<svg version="1.1" viewBox="0 0 1e3 1e3" xmlns="http://www.w3.org/2000/svg">
 <path d="m373.13 164.51-258.24-7.8754a1.6155 1.6155 0 0 0-1.5796 1.7128l-8.8932 291.07a1.6155 1.6155 0 0 0 1.7128 1.5796l258.24 7.8754a1.6155 1.6155 0 0 0 1.5796-1.7128l8.8932-291.07a1.6155 1.6155 0 0 0-1.7128-1.5795z" fill="#e2e2e2" stroke-width="3.2311"/>
 <path d="m373.36 165.45-258.55-7.7993a0.64621 0.64621 0 0 0-0.78977 0.85641l-8.8932 291.07a0.64621 0.64621 0 0 0 0.85641 0.78977l258.55 7.7993a0.64621 0.64621 0 0 0 0.78978-0.8564l8.8932-291.07a0.64621 0.64621 0 0 0-0.85641-0.78977zm-14.539 16.824-6.0779 192.97a2.2617 2.2617 0 0 1-2.4454 2.2552l-225.73-6.7816a2.5849 2.5849 0 0 1-2.2552-2.4454l6.0017-193.29a2.2617 2.2617 0 0 1 2.4454-2.2552l225.73 6.7816a2.2617 2.2617 0 0 1 2.3313 2.7595z" fill="#ebebeb" fill-rule="evenodd" stroke-width="3.2311"/>
 <path d="m357.33 179.91-227.28-7.142a1.6261 1.6261 0 0 0-1.5899 1.724l-6.1176 194.23a1.6261 1.6261 0 0 0 1.724 1.5899l227.28 7.142a1.6261 1.6261 0 0 0 1.5899-1.724l6.1176-194.23a1.6261 1.6261 0 0 0-1.724-1.5898z" fill="#f8d983" stroke-width="3.2521"/>
 <path d="m114.96 158.28-8.8934 291.07 258.24 7.8756 8.8934-291.07zm238.81 217.06a3.2311 3.2311 0 0 1-3.2353 3.1116l-225.8-7.0958a3.2311 3.2311 0 0 1-3.1116-3.2352l6.078-192.98a3.2311 3.2311 0 0 1 3.2352-3.1116l225.8 7.0958a3.2311 3.2311 0 0 1 3.1116 3.2352z" fill="#f8f8f8" fill-rule="evenodd" stroke-width="3.2311"/>
 <path d="m249.55 187.31c-14.254-0.12651-25.94 14.71-25.99 20.408-0.0279 3.1417-0.44256 12.15-0.61545 20.835-0.14567-0.56461-0.79788-3.0287-1.5654-3.8008-0.85908-0.86519-2.0582 0.74613-2.0582 0.74613s-0.68888 7.0258-0.42881 9.7049c0.25672 2.6817 3.0256 9.5422 3.0256 9.5422l1.2389-0.011-7e-3 -1.217c0.0666 0.78869 0.12023 1.648 0.21746 2.2292 0.74212 4.4315 3.2468 12.441 5.8637 19.412l-0.0109 19.627 6.2932 7.5024 5.7312 45.833 6.875 13.506 9.8762-39.593 2.1636-19.674 6.092-8.06 0.46431-15.53c3.0875-7.6815 5.9179-17.642 6.9724-22.33 0.16965-0.75415 0.31396-1.8187 0.44008-3.0581l-0.0423 1.8052 1.2385 0.033s2.8902-6.8102 3.1945-9.487c0.30756-2.6739-0.2609-9.7111-0.2609-9.7111s-1.1659-1.6323-2.0402-0.78252c-0.59426 0.57703-1.0781 1.9898-1.3974 3.0232 0.17599-8.3591 0.19697-16.879 0.35402-20.087 0.30042-6.1381-11.371-20.74-25.624-20.866z" fill="#a77660" stroke-width=".26031"/>
 <path d="m221.39 282.96-45.947 14.469c-8.3995 9.9821-32.434 47.274-39.73 73.209l38.916 1.2227c0.89872-1.3472 1.767-2.6839 2.5371-3.9258 4.7628-7.6811 7.8675-15.661 9.2461-18.496-0.30999 3.9404-0.1402 11.991 2.293 22.865l146 4.5879c0.21925-6.9982 0.22483-15.108-0.49805-22.084-1.653-15.951-3.7103-42.409-13.283-56.088-0.28085 0.13854-0.76995 0.36212-1.082 0.51368l0.17187-0.45118-46.289-14.982-13.631 4.7227-5.541 26.42-5.7949 32.777-10.184-31.135-3.0469-28.688z" fill="#93bbd3" stroke-width=".34119"/>
 <path d="m263.38 348.63-0.22852 25.607 0.86914 0.43164 28.793 0.90625 2.2188-1.0566 0.22656-25.605z" fill="#669ec0" stroke-width=".34119"/>
 <path d="m260.15 287.8-2.9766 20.475-4.8398 19.027 6e-3 0.0527c-0.44256 1.5119-0.97876 3.5284-1.7617 6.8672l-5.9648 26.584 0.0352-0.0273-0.0215 0.0488-0.16797 13.227 3.373 0.10547 0.084-16.184c3.4488-15.918 4.7769-20.693 5.2012-22.719l4e-3 0.0527 0.0703-0.38086c0.029-0.14842 0.0709-0.36125 0.0879-0.47852l6.5449-35.613z" fill="#669ec0" stroke-width=".34119"/>
 <path d="m237.66 306.66 3.3434 20.732-5e-3 0.0527c0.41563 1.5196 0.91533 3.5462 1.6389 6.8985l7.2793 17.175s-1.7418-3.8135-9.02-16.18c-2.1072-12.581-4.7525-25.686-5.4061-36.529l0.0182-11.383c2.0363 11.251 1.6436 10.942 2.1514 19.233z" fill="#669ec0" stroke-width=".34119"/>
 <path d="m274.99 228.49c-0.0631 7.1093-2.8238 35.618-9.7541 35.134-7.0372 18.171-25.414 18.202-31.911-0.59044-7.4652-1.0267-10.477-27.322-10.414-34.468-2.1601 19.413 4.8496 39.76 14.47 47.215 9.6203 7.4574 12.992 7.6672 23.498 0.20619 10.506-7.461 14.408-28.861 14.112-47.499z" fill="#846558" stroke-width=".34119"/>
 <path d="m228.57 181.08c1.8755 0.0534 18.399-1.3297 24.039 1.2067 5.6404 2.5364 4.8103 2.7728 8.225 5.5501-0.5339-1.6292-0.0696-0.25335-1.141-1.8011 3.9364 1.8833 9.5945 4.5619 10.795 11.283 3.3148 2.7746 4.4289 4.2722 6.5036 9.676l-1.5135 22.034-2.852-15.383s-3.6969-3.301-4.4365-6.5078c-3.1938 0.23376-11.781-3.4252-14.429-2.0412-2.6479 1.3839-4.0811 2.5201-7.8744 0.8786-3.7932-1.6415-4.6114-1.2689-8.8214 0.77093-2.9295 0.78174-10.072 4.3016-10.072 4.3016l-4.1733 17.268-0.85523-22.535-5.1057-5.5042s0.72981-1.8102 3.5501-3.6384c2.8205-1.8281 4.5807-2.191 4.5807-2.191-2.9194-1.5859-3.2292-2.5069-6.0681-3.9289 4.6926-5.1143 9.5984-5.7742 11.96-5.6193-1.6222-0.87925-1.7508-2.0339-2.311-3.82z" fill="#231f20" stroke-width=".34119"/>
 <path d="m246.82 252.16 2.096 0.0186-0.63759 5.4588c-4.3974-0.24425-8.6911-0.23981-10.782 0.68043 1.2352-5.5217 7.8675-2.4596 9.3239-6.1578z" fill="#846558" stroke-width="1.745"/>
 <path d="m252.39 252.21-2.096-0.0186 0.5406 5.4692c4.401-0.16615 8.6939-0.0855 10.769 0.87171-1.137-5.5427-7.8226-2.5988-9.2131-6.3224z" fill="#846558" stroke-width="1.745"/>
 <path d="m269.57 305.14-9.7064-17.264 6.5002-10.932 0.0641-4.6892 11.216 10.677z" fill="#669ec0" stroke-width=".34119"/>
 <path d="m225.6 304.75 10.012-17.089-6.3052-11.046 0.019-4.6895-11.404 10.476z" fill="#669ec0" stroke-width=".34119"/>
 <path d="m240.86 222.73c3.2216 0.943 3.2815 0.50581 4.1983 0.61764-0.0193 0.72015-0.0744 1.7181-1.345 1.8973-1.2707 0.1792-16.282-2.3188-18.376-1.0934 2.573-5.1325 12.301-2.3646 15.523-1.4216z" fill="#614a41" stroke-width=".34119"/>
 <path d="m252.31 266-4.916-0.11144c0.0965 3.0042 0.72124 1.8289 2.4224 3.5439 2.0211-1.7532 2.4694-0.71207 2.4936-3.4324z" fill="#846558" stroke-width=".34119"/>
 <path d="m257.73 222.03c-3.0688 1.3555-3.7331 1.03-4.6515 1.1083 8e-3 0.60083 0.37378 1.5578 1.6413 1.7279 1.2676 0.17012 11.054-5.6464 18.063-0.73649-1.2445-2.1609-3.8513-4.999-7.0099-4.91-3.1586 0.089-6.2571 2.0213-8.0433 2.8103z" fill="#614a41" stroke-width=".34119"/>
 <path d="m265.04 223.69c-4.438-0.0105-8.7266 1.3043-13.087 1.8065-1.82 0.20963-3.6943 0.24838-5.5134 0.0223-2.4189-0.30069-4.7564-1.0629-7.1731-1.4167-2.1599-0.31604-4.3464-0.64562-6.5223-0.67725-3.8026-0.0558-7.4907 1.0726-11.224 1.6664-9e-3 1.0632-0.24313 2.4262 0.30766 3.1786 0.56807 0.77593 1.5316 1.4895 1.7739 2.5364 0.57453 2.4828 1.3999 4.9188 2.4622 7.2567 0.51622 1.1361 1.5024 1.9337 2.6067 2.4869 2.6593 1.3322 5.8187 1.5526 8.7527 1.1672 4.178-0.54895 6.469-3.5819 8.2268-7.0549 0.65906-1.4123 0.74564-3.0482 1.6085-4.3365 0.51247-0.76518 1.6839-0.43079 2.523-0.42618 0.83934 4e-3 1.5386 1.372 1.7909 2.2803 0.89325 3.2143 2.3998 6.6298 5.4394 8.3367 4.5388 2.5493 11.729 2.1438 14.728-2.3544 1.1739-1.7606 1.5128-3.9062 2.1116-5.9057 0.36457-1.2174 0.6937-2.6697 1.9575-3.3294 0.51003-0.26638 0.1634-1.35 0.24389-1.9775 0.0877-0.6835 0.2506-1.2876-0.74681-1.4307-1.7395-0.25005-3.4226-0.97814-5.2028-1.2354-1.6872-0.24381-3.3393-0.58916-5.0628-0.59336zm-29.35 0.87884c1.2599 4e-3 2.5134 0.10449 3.7357 0.36787 7.2819 1.5694 7.4035 4.5018 4.3464 10.535-2.4911 4.9157-7.5716 6.1079-12.669 4.8792-2.35-0.56643-3.9458-2.1836-4.6858-4.3852-0.78093-2.3238-1.3654-4.7905-1.2065-7.2241 0.21288-3.2588 3.9989-3.6836 6.7095-3.9564 1.2439-0.12525 2.5102-0.21915 3.7701-0.21579zm26.638 0.23643c1.2598 0.0184 2.5242 0.13536 3.7656 0.28267 2.7054 0.32107 6.4835 0.8129 6.6382 4.0749 0.11561 2.4362-0.51247 4.892-1.3347 7.2017-0.77885 2.1881-2.4032 3.7766-4.7629 4.3014-5.1185 1.1381-10.177-0.14403-12.581-5.1034-2.9496-6.0863-2.7757-9.0161 4.533-10.456 1.2266-0.24165 2.4817-0.32039 3.7414-0.30151z" fill="#191d2a" stroke="#191d2a" stroke-width=".286"/>
 <path d="m373.82 418.02-248.8 69.626a1.6155 1.6155 0 0 0-0.99577 2.1064l78.461 280.44a1.6155 1.6155 0 0 0 2.1064 0.99578l248.8-69.626a1.6155 1.6155 0 0 0 0.99578-2.1064l-78.461-280.44a1.6155 1.6155 0 0 0-2.1064-0.99577z" fill="#e2e2e2" stroke-width="3.2311"/>
 <path d="m374.32 418.85-249.08 69.792a0.64621 0.64621 0 0 0-0.49788 1.0532l78.461 280.44a0.64621 0.64621 0 0 0 1.0532 0.49788l249.08-69.792a0.64621 0.64621 0 0 0 0.49789-1.0532l-78.461-280.44a0.64621 0.64621 0 0 0-1.0532-0.49789zm-8.85 20.399 51.845 185.98a2.2617 2.2617 0 0 1-1.6601 2.8827l-217.45 60.957a2.5849 2.5849 0 0 1-2.8827-1.6601l-52.011-186.26a2.2617 2.2617 0 0 1 1.6601-2.8827l217.45-60.957a2.2617 2.2617 0 0 1 3.0492 1.937z" fill="#ebebeb" fill-rule="evenodd" stroke-width="3.2311"/>
 <path d="m363.34 437.44-219.04 61.077a1.6261 1.6261 0 0 0-1.0023 2.1202l52.182 187.19a1.6261 1.6261 0 0 0 2.1202 1.0023l219.04-61.077a1.6261 1.6261 0 0 0 1.0023-2.1202l-52.182-187.19a1.6261 1.6261 0 0 0-2.1202-1.0022z" fill="#f8d983" stroke-width="3.2521"/>
 <path d="m125.58 489.2 78.461 280.44 248.8-69.626-78.461-280.44zm292.75 135.81a3.2311 3.2311 0 0 1-2.1581 3.936l-217.61 60.679a3.2311 3.2311 0 0 1-3.936-2.158l-51.847-185.98a3.2311 3.2311 0 0 1 2.158-3.9359l217.61-60.679a3.2311 3.2311 0 0 1 3.936 2.158z" fill="#f8f8f8" fill-rule="evenodd" stroke-width="3.2311"/>
 <path d="m262.69 476.7c-13.641 4.1371-20.361 21.787-18.707 27.24 0.91186 3.0066 3.207 11.727 5.6366 20.068-0.30768-0.49531-1.6662-2.6521-2.6293-3.1596-1.0783-0.56907-1.7413 1.3269-1.7413 1.3269s1.4413 6.9108 2.4898 9.3898c1.0461 2.4826 5.7379 8.2027 5.7379 8.2027l1.1791-0.38059-0.3702-1.1593c0.29915 0.73279 0.60702 1.5368 0.87344 2.0625 2.032 4.0075 6.8149 10.903 11.395 16.774l5.8525 18.734 8.247 5.2799 19.161 42.028 10.596 10.836-2.4021-40.736-3.8123-19.422 3.4062-9.5118-4.1959-14.959c0.65195-8.2531 0.37766-18.604-0.0163-23.393-0.0634-0.77039-0.24367-1.8295-0.49354-3.05l0.49887 1.7354 1.1918-0.33848s0.7239-7.3626 0.2147-10.008c-0.50523-2.6437-3.1499-9.1898-3.1499-9.1898s-1.6003-1.2095-2.1808-0.13733c-0.39475 0.7282-0.43445 2.221-0.43053 3.3026-2.3291-8.03-4.8542-16.167-5.6624-19.275-1.5469-5.9476-17.047-16.396-30.687-12.259z" fill="#a77660" stroke-width=".26031"/>
 <path d="m264.39 576.4-39.527 27.534c-5.0341 12.035-16.831 54.804-16.047 81.735l37.504-10.458c0.45524-1.5542 0.88459-3.0892 1.2486-4.5044 2.2509-8.7531 2.83-17.296 3.2988-20.414 0.88123 3.853 3.4483 11.486 9.0186 21.136l140.71-39.236c-1.8813-6.7442-4.2985-14.485-7.0723-20.927-6.3425-14.729-16.209-39.364-29.431-49.559-0.22664 0.21611-0.62662 0.57558-0.87918 0.81345l0.0293-0.48192-48.651-0.47084-11.598 8.5788 2.6042 26.869 4.2609 33.012-19.019-26.671-11.477-26.467z" fill="#93bbd3" stroke-width=".34119"/>
 <path d="m324.08 626.52 7.4314 24.506 0.9584 0.1523 27.749-7.7362 1.8018-1.6712-7.4327-24.504z" fill="#669ec0" stroke-width=".34119"/>
 <path d="m302.82 569.44 3.2755 20.429 1.065 19.604 0.0215 0.0485c0.0293 1.5751 0.11995 3.6597 0.37009 7.0799l2.2487 27.152 0.0254-0.0366-6e-3 0.053 3.7908 12.673 3.2505-0.90694-4.7542-15.47c-1.4638-16.222-1.6227-21.175-1.8229-23.235l0.0196 0.0491-0.0467-0.38447c-0.0167-0.1503-0.0403-0.36593-0.0591-0.48292l-4.3923-35.942z" fill="#669ec0" stroke-width=".34119"/>
 <path d="m286.99 594.16 9.3839 18.787 0.011 0.0518c0.85057 1.326 1.9329 3.1109 3.6248 6.0939l12.077 14.216s-2.8015-3.1191-13.441-12.747c-5.769-11.377-12.208-23.093-16.071-33.246l-3.3831-10.869c5.3043 10.129 4.8373 9.9518 7.7986 17.712z" fill="#669ec0" stroke-width=".34119"/>
 <path d="m299.27 508.4c2.0635 6.8036 7.945 34.835 1.1866 36.444-1.288 19.443-18.816 24.963-30.631 8.9691-7.431 1.2502-18.161-22.945-20.235-29.783 3.7375 19.172 16.505 36.496 27.913 40.737 11.409 4.2431 14.689 3.4361 22.487-6.8227 7.7979-10.259 5.129-31.847-0.72152-49.545z" fill="#846558" stroke-width=".34119"/>
 <path d="m240.81 477.02c1.8059-0.5093 17.161-6.7651 23.302-6.0294 6.1406 0.73572 5.4189 1.2093 9.5074 2.8397-0.99621-1.3954-0.1421-0.22099-1.6269-1.378 4.3192 0.62139 10.519 1.4876 13.672 7.5434 3.9923 1.6578 5.5029 2.7541 9.097 7.2914l5.1378 21.48-7.317-13.829s-4.5142-2.0459-6.1779-4.8854c-2.9781 1.1771-12.266 0.25035-14.38 2.3622-2.1136 2.1117-3.142 3.6242-7.2524 3.1907s-4.7799 0.16653-8.1883 3.3709c-2.5622 1.6212-8.3273 7.114-8.3273 7.114l1.1757 17.727-7.5479-21.251-6.5168-3.7278s0.15573-1.9456 2.3012-4.5327c2.1456-2.5871 3.717-3.4593 3.717-3.4593-3.2598-0.64142-3.8306-1.4278-6.9647-1.9368 2.9506-6.2826 7.4353-8.3778 9.735-8.9353-1.8108-0.35451-2.2785-1.418-3.3466-2.9553z" fill="#231f20" stroke-width=".34119"/>
 <path d="m279.46 539.4 2.0058-0.60836 1.0222 5.4c-4.2696 1.0805-8.3659 2.3673-10.087 3.8703-0.47061-5.6386 6.7736-4.6975 7.0587-8.6619z" fill="#846558" stroke-width="1.745"/>
 <path d="m284.79 537.78-2.0058 0.60835 2.1497 5.058c4.1504-1.4732 8.2714-2.6786 10.537-2.3849-2.7408-4.95-8.2417-0.14341-10.681-3.2815z" fill="#846558" stroke-width="1.745"/>
 <path d="m317 583.17-14.42-13.576 2.9376-12.375-1.3396-4.4943 13.894 6.8388z" fill="#669ec0" stroke-width=".34119"/>
 <path d="m274.92 595.93 4.4497-19.299-9.3171-8.6584-1.3827-4.481-7.7543 13.405z" fill="#669ec0" stroke-width=".34119"/>
 <path d="m264.98 513.09c3.3562-0.0624 3.2827-0.49753 4.1911-0.66467 0.1967 0.69303 0.44222 1.6618-0.71683 2.2124-1.1591 0.55059-16.231 2.6508-17.863 4.4458 0.92231-5.6668 11.033-5.9311 14.389-5.9936z" fill="#614a41" stroke-width=".34119"/>
 <path d="m288.83 550.97-4.7248 1.3621c0.98952 2.8382 1.2346 1.53 3.3704 2.6584 1.4051-2.2769 2.144-1.4172 1.3544-4.0206z" fill="#846558" stroke-width=".34119"/>
 <path d="m280.87 507.39c-2.5238 2.2103-3.255 2.0981-4.108 2.4472 0.18712 0.571 0.82205 1.375 2.0826 1.1587 1.2605-0.21631 8.8622-8.6905 17.019-6.0988-1.8332-1.6904-5.1688-3.6203-8.1565-2.5918-2.9878 1.0285-5.3676 3.7982-6.8366 5.0847z" fill="#614a41" stroke-width=".34119"/>
 <path d="m288.34 506.79c-4.2385 1.3157-7.9386 3.8516-11.95 5.6335-1.6743 0.74373-3.4514 1.3406-5.255 1.6682-2.3983 0.43561-4.8567 0.40649-7.2688 0.7907-2.1557 0.34359-4.3408 0.68222-6.4268 1.302-3.6457 1.0827-6.8282 3.2612-10.214 4.9432 0.30902 1.0174 0.49272 2.388 1.2431 2.9416 0.77392 0.57081 1.9066 0.96395 2.4506 1.8907 1.29 2.1978 2.8053 4.276 4.5175 6.1898 0.83202 0.92999 2.0115 1.3966 3.2306 1.5947 2.9359 0.47695 6.0168-0.25645 8.7017-1.5007 3.8232-1.7719 5.1036-5.3507 5.7438-9.1903 0.2071-1.5446-0.19898-3.1318 0.23969-4.619 0.2605-0.88333 1.4783-0.91413 2.2804-1.1604 0.80221-0.24691 1.8782 0.84978 2.3903 1.6412 1.8126 2.8007 4.2707 5.6102 7.6814 6.3312 5.0931 1.0771 11.834-1.4577 13.353-6.6465 0.59441-2.0308 0.27685-4.1798 0.251-6.2668-0.0157-1.2707-0.13548-2.7551 0.87355-3.7621 0.40717-0.40657-0.24733-1.3372-0.35795-1.96-0.12048-0.67849-0.14547-1.3036-1.1401-1.1423-1.7348 0.28098-3.5585 0.0889-5.3343 0.37521-1.6829 0.27132-3.3628 0.43525-5.0088 0.94609zm-27.747 9.6061c1.2036-0.37253 2.4299-0.65108 3.675-0.76486 7.4182-0.67747 8.4102 2.0847 7.2949 8.7554-0.90893 5.4354-5.4014 8.0908-10.633 8.441-2.4119 0.16143-4.4179-0.9052-5.7818-2.7852-1.4394-1.9844-2.7341-4.1639-3.3094-6.5339-0.77032-3.1736 2.7159-4.71 5.2213-5.7801 1.1497-0.49109 2.3301-0.95898 3.5335-1.3321zm25.492-7.7315c1.2077-0.35876 2.4493-0.62483 3.6782-0.85511 2.6778-0.50175 6.4303-1.161 7.5523 1.9059 0.83807 2.2904 0.97227 4.8217 0.87759 7.2716-0.0897 2.3209-1.1654 4.322-3.2605 5.5277-4.5448 2.6152-9.7554 2.9026-13.531-1.1122-4.633-4.9273-5.3422-7.7753 1.2027-11.333 1.0984-0.59702 2.2727-1.0471 3.4805-1.4054z" fill="#191d2a" stroke="#191d2a" stroke-width=".286"/>
 <path d="m314.99 803.6 14.304-556.53 394.03 10.127-14.304 556.53z" fill="#fafafa" stroke-width="3.2311"/>
 <path d="m729.56 217.24-412.53 0.27166a13.894 13.894 0 0 0-13.893 14.007l0.67365 597.95a13.894 13.894 0 0 0 14.007 13.893l412.45-0.58568a13.894 13.894 0 0 0 13.893-14.007l-0.67366-597.95a13.894 13.894 0 0 0-13.931-13.579z" fill="#7d5024" stroke-width="3.2311"/>
 <path d="m729.91 222.81-413.16 0.42391a7.7546 7.7546 0 0 0-7.736 7.86l0.7498 598.26a7.7546 7.7546 0 0 0 7.86 7.736l413.16-0.42392a7.7546 7.7546 0 0 0 7.736-7.86l-0.74979-598.26a7.7546 7.7546 0 0 0-7.86-7.736z" fill="#956939" stroke-width="3.2311"/>
 <path d="m523.31 182.46a57.836 57.836 0 0 0-57.778 57.893l-0.0184 46.55 115.99-0.19178 0.0946-46.236a57.836 57.836 0 0 0-58.284-58.016z" fill="#e6e6e6" stroke-width="3.2311"/>
 <path d="m329.2 812.89-0.2694-556.72 394.16-0.1907 0.2694 556.72z" fill="#fafafa" stroke-width="3.2311"/>
 <path d="m326.47 810.06-0.2694-556.72 394.16-0.1907 0.2694 556.72z" fill="#fafafa" stroke-width="3.2311"/>
 <path d="m329.73 818.49 399.14-12.984-17.896-556.54-394.25 8.4738z" fill="#fafafa" stroke-width="3.2311"/>
 <path d="m332.33 815.35-17.756-556.43 393.96-12.571 17.756 556.43z" fill="#fafafa" stroke-width="3.2311"/>
 <path d="m727.21 257-398.84-7.7026-9.2992 556.81 393.64 10.957z" fill="#fafafa" stroke-width="3.2311"/>
 <path d="m570.23 295.1-18.574 0.18103c2.0647-14.797 6.9934-46.579 6.8981-55.2a34.896 34.896 0 1 0-69.435 0.21023c0.13341 14.264 4.4824 41.802 6.7377 55.219l-18.26 0.1049a5.816 5.816 0 1 0 0.15239 11.599l92.71-0.201a5.816 5.816 0 0 0-0.15239-11.599z" fill="#ddd" fill-rule="evenodd" stroke-width="3.2311"/>
 <path d="m523.54 205.35a34.896 34.896 0 0 0-34.417 34.942c0.1334 14.264 4.4824 41.802 6.7377 55.219l-18.26 0.1049a5.816 5.816 0 1 0 0.1524 11.599l46.16-0.21944z" fill="#d6d6d6" fill-rule="evenodd" stroke-width="3.2311"/>
 <path d="m570.95 299.4-90.436-0.0179a1.9387 1.9387 0 1 0-0.10464 3.6825l90.436 0.0179a1.9387 1.9387 0 0 0 0.10461-3.6825z" fill="#ddd" stroke-width="3.2311"/>
 <path d="m524.58 223.57a11.632 11.632 0 0 1 11.638 11.626 11.632 11.632 0 0 1-11.626 11.638 11.632 11.632 0 0 1-11.638-11.626 11.632 11.632 0 0 1 11.626-11.638z" fill="#956939" stroke-width="3.2311"/>
 <path d="m519.95 235.81a13.247 13.247 0 0 1 7.4505-11.78l-4.1488-0.65652a11.638 11.638 0 0 0-9e-3 23.275l1.8841-0.45677a13.247 13.247 0 0 1-5.1766-10.381z" fill="#865e33" fill-rule="evenodd" stroke-width="3.2311"/>
 <path d="m866.53 736.07c-23.142-29.631-57.532-97.429-83.396-108.11l-242.65-95.771-9.7151 21.638s222.86 67.653 247.58 85.932 29.784 43.314 68.475 101.43c7.2129 10.553 15.32 5.595 17.68 4.3579a6.7853 6.7853 0 0 0 2.0267-9.468z" fill="#262626" stroke-width="3.2311"/>
 <path d="m620.52 574.29c-26.986-7.0888-95.174 27.063-131.37 36.836a6.7853 6.7853 0 0 0-4.1392 8.9827c1.2371 2.3598 5.0149 11.086 16.957 6.8605 66.076-23.666 79.597-40.575 115.49-40.633 30.564-0.0955 250.06 78.348 250.06 78.348l5.0239-23.161z" fill="#484848" stroke-width="3.2311"/>
 <path d="m817.56 614.96c-40.812-13.378-98.077-16.451-103.49 6.4719-2.588 11.266-16.156 89.694 54.516 113.79 63.326 21.219 81.729-20.812 100.21-62.528 13.94-31.639-0.2575-40.831-51.232-57.73zm-217.43-71.297c-50.585-16.661-67.114-17.641-74.716 15.454-9.8766 44.286-20.381 88.723 42.403 109.08 70.368 22.836 106.45-47.75 110.52-58.379 9.0871-21.486-37.711-52.697-78.209-66.151z" fill="#8a8a8a" fill-opacity=".57979" fill-rule="evenodd" stroke-width="3.2311"/>
 <path d="m645.58 565.22-83.869 101.12 6.1756 2.16a88.855 88.855 0 0 0 24.731 4.6433l75.096-90.684a126.98 126.98 0 0 0-22.133-17.242zm-16.548-9.287-84.268 102.22a87.886 87.886 0 0 0 9.9914 5.557l84.268-102.22z" fill="#fff" fill-opacity=".54255" fill-rule="evenodd" stroke-width="3.2311"/>
 <path d="m846.08 625.66-87.428 105.64 9.6108 3.9869a113.09 113.09 0 0 0 19.478 4.9193l81.975-99.334c-4.3487-5.5951-12.152-10.353-23.637-15.215zm-18.365-7.184-85.058 103.07a80.454 80.454 0 0 0 9.5156 6.3372l86.876-105.18z" fill="#fff" fill-opacity=".54255" fill-rule="evenodd" stroke-width="3.2311"/>
 <path d="m599.21 550.86-17.67-5.6901c42.582 17.936 76.905 40.202 80.959 54.181 4.0538 13.978-2.7401 32.581-28.203 53.716a111.47 111.47 0 0 0 35.892-43.943c7.5742-18.127-34.152-46.245-70.977-58.263zm214.69 70.964c-36.902-12.332-87.277-14.415-92.272 4.7494-1.6937 6.7275-6.5272 36.159 4.8061 62.336-10.249-35.417-0.3623-59.092 7.9923-65.772 8.3545-6.68 52.392-6.0526 97.22 4.6899z" fill="#fff" fill-opacity=".20213" fill-rule="evenodd" stroke-width="3.2311"/>
 <path d="m532.58 564.02c-9.144 40.451-18.278 79.569 37.702 97.915l0.314-0.0761c-23.409-25.244-36.274-78.313-27.606-117.98-4.7292 3.8063-8.2214 9.9724-10.41 20.145zm238.24 164c55.666 18.421 71.68-18.375 88.484-56.029 4.063-9.2968 5.3665-16.262 3.6061-22.152-16.956 37.025-58.348 71.995-92.091 78.181z" fill="#fff" fill-opacity=".20213" fill-rule="evenodd" stroke-width="3.2311"/>
 <path d="m823.54 610.85c-41.907-13.778-86.592-11.589-117.71-21.998-31.116-10.41-59.692-36.396-108.48-52.496-38.31-12.655-81.349-10.533-81.349-10.533l-6.8034 19.935c12.142 11.685 4.5968 58.73 5.4723 67.827 0.8756 9.0969 0.7237 41.383 51.309 58.044 73.023 24.188 104.45-42.279 109.44-49.14 4.986-6.8608 9.7057-9.3349 20.572-5.6525 10.867 3.6824 13.674 5.6616 13.208 16.081-1.3317 32.905-2.4825 84.384 57.475 105.42 37.682 12.807 61.109 2.4733 72.09-9.8305 19.43-21.334 26.519-48.32 49.937-57.322l6.8795-19.621s-38.814-29.821-72.043-40.716zm-149.14 0.58234c-4.2248 10.001-38.166 77.077-105.33 55.125-21.972-6.9746-34.827-17.489-41.555-30.154-11.133-21.239-5.0629-48.31 0.3702-73.898 4.0439-17.604 11.628-26.092 25.739-26.853 14.112-0.76143 25.445 3.4728 46.788 10.6 38.624 12.579 83.709 42.21 73.984 65.181zm189.28 62.163c-10.514 23.827-21.98 49.215-43.761 59.482-12.817 6.0996-29.593 6.8421-51.327-0.52271-66.999-22.656-54.326-96.544-51.585-107.18 5.8898-23.703 59.786-20.811 98.096-8.1561 20.953 6.889 35.255 12.398 43.905 19.278 8.6498 6.8796 12.237 20.306 4.9867 37.025z" fill="#323232" fill-rule="evenodd" stroke-width="3.2311"/>
</svg>
