<?xml version="1.0" encoding="UTF-8" standalone="no"?>
<!-- Generator: Adobe Illustrator 16.0.4, SVG Export Plug-In . SVG Version: 6.00 Build 0)  -->

<svg
   xmlns:dc="http://purl.org/dc/elements/1.1/"
   xmlns:cc="http://creativecommons.org/ns#"
   xmlns:rdf="http://www.w3.org/1999/02/22-rdf-syntax-ns#"
   xmlns:svg="http://www.w3.org/2000/svg"
   xmlns="http://www.w3.org/2000/svg"
   xmlns:sodipodi="http://sodipodi.sourceforge.net/DTD/sodipodi-0.dtd"
   xmlns:inkscape="http://www.inkscape.org/namespaces/inkscape"
   version="1.1"
   x="0px"
   y="0px"
   width="720"
   height="1280"
   viewBox="0 0 720 1280"
   enable-background="new 0 0 93 274"
   xml:space="preserve"
   id="svg2"
   inkscape:version="0.91 r13725"
   sodipodi:docname="avatar-complete.svg"
   inkscape:export-filename="/home/huntingbears/Escritorio/avatar-complete.svg.png"
   inkscape:export-xdpi="90"
   inkscape:export-ydpi="90">
  <metadata id="metadata186"><rdf:RDF><cc:Work
         rdf:about=""><dc:format>image/svg+xml</dc:format><dc:type
           rdf:resource="http://purl.org/dc/dcmitype/StillImage" /><dc:title></dc:title></cc:Work></rdf:RDF>
  </metadata>
  <defs
     id="defs184" />
  <sodipodi:namedview
     pagecolor="#f8d983"
     bordercolor="#666666"
     borderopacity="1"
     objecttolerance="10"
     gridtolerance="10"
     guidetolerance="10"
     inkscape:pageopacity="1"
     inkscape:pageshadow="2"
     inkscape:window-width="1600"
     inkscape:window-height="873"
     id="namedview182"
     showgrid="false"
     inkscape:zoom="0.35355339"
     inkscape:cx="514.14535"
     inkscape:cy="764.47625"
     inkscape:window-x="0"
     inkscape:window-y="27"
     inkscape:window-maximized="1"
     inkscape:current-layer="svg2"
     showguides="false"><sodipodi:guide
       position="-23.075212,206.66102"
       orientation="1,0"
       id="guide4818" /></sodipodi:namedview><g
     id="BASEMENT"
     transform="translate(0,1006)" /><g
     id="BG"
     transform="translate(0,1006)" /><g
     id="LAYOUT"
     transform="translate(0,1006)" /><g
     id="SPRITE_B"
     transform="translate(0,1006)" /><g
     id="MENU"
     transform="translate(0,1006)" /><path
     sodipodi:nodetypes="sscccccccscccccccccscccccccss"
     inkscape:connector-curvature="0"
     style="fill:#a77660;fill-opacity:1;stroke:none"
     d="m 358.85066,158.05055 c -23.0151,0 -41.6709,24.12194 -41.6709,33.32254 0,5.07304 -0.54048,19.62267 -0.6951,33.64881 -0.24325,-0.90952 -1.33164,-4.87844 -2.58183,-6.1141 -1.39947,-1.3846 -3.31239,1.23417 -3.31239,1.23417 0,0 -1.01152,11.35356 -0.55325,15.67535 0.45278,4.32613 5.02179,15.36327 5.02179,15.36327 l 2.0002,-0.0356 -0.0283,-1.96474 c 0.11853,1.27248 0.21753,2.65904 0.38301,3.59611 1.26169,7.14414 5.42066,20.03964 9.74568,31.25849 l 0.2635,31.68888 10.26826,12.0231 9.91044,73.91736 11.29391,21.70746 15.37847,-64.0683 3.21134,-31.79646 9.72055,-13.10076 0.52704,-25.07996 c 4.87512,-12.44645 9.302,-28.56893 10.93728,-36.15261 0.26308,-1.22003 0.48086,-2.94097 0.66674,-4.94376 l -0.0426,2.91519 2.0002,0.0356 c 0,0 4.56901,-11.03714 5.02179,-15.36327 0.45823,-4.32179 -0.56039,-15.67535 -0.56039,-15.67535 0,0 -1.90582,-2.61877 -3.3053,-1.23417 -0.95121,0.94016 -1.71215,3.22809 -2.21299,4.90121 0.1644,-13.49876 0.0762,-27.25547 0.28374,-32.43592 0.39709,-9.91476 -18.6558,-33.32254 -41.67092,-33.32254 z"
     id="path118-3" /><g
     id="g4909"
     transform="matrix(3.6315747,0,0,3.6315747,187.83913,106.58109)"><g
       id="g4897"><path
         d="m 16.107,259.695 c -1.052,2.874 -0.812,8.383 -0.812,8.383 0,0 -0.86,2.347 -1.051,2.54 -0.191,0.192 -0.573,0.813 1.338,0.718 1.909,-0.094 10.651,-0.526 12.942,-0.575 2.294,-0.048 1.77,-0.384 1.816,-0.384 0.048,0 -0.812,-2.299 -2.005,-3.928 -1.194,-1.628 -1.338,-9.628 -1.674,-11.928 -0.333,-2.299 -1.479,-7.856 -1.336,-7.807 0.143,0.048 -1.053,-1.629 -3.106,-1.485 -2.054,0.143 -3.056,0.526 -3.056,0.526 l 0.047,0.91 c 0,0 -1.671,0.097 -1.911,-0.239 -0.195,3.107 -0.141,10.395 -1.192,13.269 z"
         id="path14"
         inkscape:connector-curvature="0"
         style="fill:#242424;fill-opacity:1" /><path
         d="m 30.388,270.546 c -1,-2.704 -2.246,-4.607 -7.24,-4.607 -3.522,0 -6.484,2.312 -7.364,5.456 1.228,0.654 12.64,0.134 14.604,-0.849 z"
         id="path16"
         inkscape:connector-curvature="0"
         style="fill:#353535;fill-opacity:1;stroke:none" /><path
         d="m 14.079,271.001 c -0.845,2.936 1.217,2.999 1.217,2.999 11.216,0 11.365,0 15.032,0 0,0 0.803,-0.861 0.014,-3.623 -0.135,0.194 -5.709,0.681 -10.005,0.713 -4.554,0.033 -5.059,0.472 -6.258,-0.089 z"
         id="path18"
         inkscape:connector-curvature="0"
         style="fill:#121212;fill-opacity:1" /><path
         d="m 15.429,271.574 c -0.56,0 -0.964,-0.072 -1.473,-0.312 l 0.246,-0.525 c 0.665,0.313 1.094,0.287 2.361,0.204 0.843,-0.054 1.993,-0.127 3.771,-0.141 4.296,-0.032 9.454,-0.504 9.862,-0.668 -0.002,10e-4 -0.051,0.021 -0.092,0.079 l 0.474,0.332 c -0.086,0.121 -0.191,0.273 -3.656,0.54 -2.263,0.173 -4.661,0.282 -6.584,0.295 -1.763,0.015 -2.903,0.088 -3.736,0.14 -0.475,0.032 -0.85,0.056 -1.173,0.056 z"
         id="path20"
         inkscape:connector-curvature="0"
         style="fill:#7b7b7b;fill-opacity:1" /></g><g
       id="g4903"><path
         d="m 90.573,260.332 c 1.056,2.889 -0.294,2.817 1.009,7.747 0,0 0.857,2.347 1.051,2.54 0.191,0.192 0.571,0.813 -1.338,0.718 -1.911,-0.094 -10.651,-0.526 -12.945,-0.575 -2.293,-0.048 -1.767,-0.384 -1.815,-0.384 -0.047,0 1.093,-3.434 2.286,-5.063 1.193,-1.629 1.059,-8.493 1.392,-10.792 0.334,-2.299 1.48,-7.856 1.338,-7.807 -0.142,0.048 1.052,-1.629 3.104,-1.485 2.054,0.143 3.059,0.526 3.059,0.526 l -0.049,0.91 c 0,0 0.172,1.045 0.411,0.711 0.198,3.105 1.446,10.08 2.497,12.954 z"
         id="path24"
         inkscape:connector-curvature="0"
         style="fill:#242424;fill-opacity:1" /><path
         d="m 76.487,270.546 c 1.001,-2.704 2.249,-4.607 7.243,-4.607 3.521,0 6.484,2.312 7.363,5.456 -1.23,0.654 -12.64,0.134 -14.606,-0.849 z"
         id="path26"
         inkscape:connector-curvature="0"
         style="fill:#353535;fill-opacity:1;stroke:none" /><path
         d="m 92.797,271.001 c 0.844,2.936 -1.215,2.999 -1.215,2.999 -11.218,0 -11.366,0 -15.034,0 0,0 -0.802,-0.861 -0.014,-3.623 0.137,0.194 5.708,0.681 10.005,0.713 4.555,0.033 5.061,0.472 6.258,-0.089 z"
         id="path28"
         inkscape:connector-curvature="0"
         style="fill:#121212;fill-opacity:1" /><path
         d="m 91.447,271.574 c -0.322,0 -0.696,-0.024 -1.172,-0.056 -0.833,-0.052 -1.976,-0.125 -3.738,-0.14 -1.922,-0.014 -4.322,-0.122 -6.582,-0.295 -3.468,-0.267 -3.573,-0.418 -3.656,-0.54 l 0.472,-0.332 c -0.041,-0.059 -0.088,-0.078 -0.09,-0.079 0.407,0.164 5.563,0.636 9.862,0.668 1.778,0.014 2.929,0.087 3.77,0.141 1.27,0.083 1.696,0.109 2.361,-0.204 l 0.246,0.525 c -0.508,0.24 -0.911,0.312 -1.473,0.312 z"
         id="path30"
         inkscape:connector-curvature="0"
         style="fill:#7b7b7b;fill-opacity:1" /></g><path
       id="path74"
       d="m 24.142578,133.07031 c 0,0 -1.000328,3.83052 -1.361328,5.35352 -0.363,1.527 -0.946156,1.10761 -1.785156,7.09961 0,0 -2.1275,8.42368 -0.8125,31.67968 0.525,9.27601 1.625,15.83985 1.625,15.83985 0,0 -0.924344,-0.40972 -1.027344,1.11328 -0.101,1.521 1.027344,1.73828 1.027344,1.73828 0,0 -1.062219,0.14638 -0.449219,2.60938 0.612,2.464 0.340875,3.55186 -0.578125,4.13086 -0.916,0.58 -0.235,0.72495 0,1.37695 0.238,0.652 1.054,1.44734 0,2.02734 -1.053,0.58 -0.932344,0.79824 -1.027344,1.74024 -0.094,0.943 0.992578,0.28887 0.517578,0.79687 -0.474,0.507 -0.161484,0.57896 -0.521484,1.37695 -0.36,0.797 -1.924469,5.14521 -1.855469,14.78321 0.068,9.637 -1.630625,11.303 -1.765625,16.375 -0.137,5.071 0.505,5.43395 0,7.75195 -0.508,2.32 -1.156672,3.40749 -1.013672,5.14649 0.145,1.739 0.797125,3.18886 0.578125,4.13085 -0.216,0.94201 -0.599609,2.31836 -0.599609,2.31836 0,0 2.407391,-0.652 5.150391,0 2.748,0.652 6.45464,2.24536 7.68164,2.31836 1.229,0.072 1.012578,-1.52115 1.517578,-2.53515 0.507,-1.014 0.362,-2.60905 0,-3.62305 -0.36,-1.015 0.506719,-3.3342 1.011719,-4.7832 0.505,-1.449 0.941469,-8.47713 1.230469,-10.57813 0.289,-2.101 3.034,-16.59394 3.25,-21.08593 0.217,-4.492 -0.286922,-9.1305 0.580078,-11.8125 0.866,-2.68101 2.457266,-2.53576 3.322266,-11.59376 0.868,-9.05799 3.396734,-22.75287 4.552734,-25.79687 1.074677,-2.82893 0.819946,-6.84479 2.289063,-7.04687 0.169624,0.034 0.469781,0.1746 0.988281,0.5996 3.849,3.149 9.218531,14.4196 10.519531,20.4336 1.3,6.014 6.0265,21.44884 7.6875,23.83984 1.662,2.391 1.950953,0.14333 3.251953,10.36133 1.3,10.216 2.599469,12.24592 3.105469,14.41992 0.507,2.174 2.601828,15.28788 2.673828,15.79688 0.072,0.507 1.445047,1.73708 1.373047,1.95507 -0.072,0.218 0.507609,4.27638 0.724609,7.60938 0.216,3.332 2.816406,6.37695 2.816406,6.37695 0,0 2.988625,-1.95665 6.890626,-2.97265 3.902,-1.014 5.273437,1.52148 5.273437,1.52148 0,0 0.794125,-0.94309 0.578125,-2.24609 -0.217,-1.305 -0.72025,-2.10024 -1.15625,-3.11524 -0.433,-1.014 -0.216859,-4.27553 -0.505859,-5.14453 -0.288,-0.869 -0.794922,-3.47656 -0.794922,-3.47656 0,0 0.073,-3.33374 0,-4.92774 -0.071,-1.594 -0.06977,-2.75379 -1.009766,-5.21679 -0.94,-2.464 -1.229156,-12.53728 -3.035156,-20.36328 -1.808,-7.826 -2.673844,-8.69371 -2.964844,-9.34571 -0.288,-0.654 -0.504172,-1.37731 -0.576172,-2.32031 -0.071,-0.942 -0.359922,-0.5792 -0.794922,-1.1582 -0.434,-0.58 -0.218547,-0.9435 -0.435547,-1.8125 -0.214999,-0.87 -0.3585,-0.79683 -0.9375,-2.17383 -0.576999,-1.377 -0.794656,-4.99961 -0.722656,-5.72461 0.073,-0.726 -0.795312,-1.0155 -0.945312,-1.8125 -0.153,-0.797 -0.572,-2.75231 -0.5,-3.69531 0.072,-0.942 1.084,-1.44845 0,-4.56446 -1.084,-3.116 0.118297,-18.11574 -2.095703,-26.59374 -4.014062,-15.38441 -4.896074,-27.09219 -4.896485,-27.09766 l -16.996094,0 c 0,-1e-5 0,-0.004 0,-0.004 l -29.052734,0 z"
       style="fill:#574d4f;fill-opacity:1"
       inkscape:connector-curvature="0" /></g><path
     style="fill:#93bbd3;fill-opacity:1"
     d="m 314.75274,312.89284 -73.97915,24.01662 c -17.16646,20.77261 -75.01168,114.08286 -65.24717,148.22988 9.76452,34.14701 8.951,6.47938 8.951,6.47938 l 36.35707,-5.90606 c 0,0 -6.30023,10.98893 -0.53573,-9.85886 5.57378,3.49561 17.11789,-13.37095 24.26631,-25.13105 9.43663,-15.52451 14.79246,-31.99487 15.81874,-31.86424 0.0262,-10.06238 -5.13392,10.58163 4.848,46.53982 11.75346,42.33987 5.06468,129.92077 4.52284,151.60084 0,0 18.90935,42.24237 87.5627,42.39714 l 0,0.12784 c 68.94907,0 89.50554,-43.45833 89.50554,-43.45833 -3.23771,-26.77615 -15.92356,-105.23705 -6.0196,-146.30536 0.66149,-2.74295 0,0 3.85626,-11.77487 -5.36383,2.52213 3.50391,29.57746 3.50391,29.57746 l 49.62561,1.40797 c 0,0 3.04285,-35.95982 0.1454,-61.69067 -2.89744,-25.73086 -6.5984,-68.42165 -22.25048,-90.37089 -0.45145,0.2277 -1.23607,0.5949 -1.73777,0.84406 l 0.26953,-0.73057 -74.95088,-23.52722 -21.94276,7.82193 -8.5657,42.73509 -8.8867,53.00673 -16.88685,-50.1239 -5.33125,-46.27203 z"
     id="path88"
     inkscape:connector-curvature="0"
     sodipodi:nodetypes="cczcccscsccccsccczcccccccccc" /><path
     style="fill:#669ec0;fill-opacity:1"
     d="m 434.96576,459.66423 -25.73871,12.53312 -25.73872,-12.53312 0,-41.34729 51.47743,0 z"
     id="polygon104"
     inkscape:connector-curvature="0" /><path
     style="fill:#669ec0;fill-opacity:1"
     d="m 377.4206,320.15288 -4.51302,33.09867 -7.53977,30.79036 0.007,0.0851 c -0.69281,2.44747 -1.52866,5.71252 -2.74496,11.11461 l -9.24917,43.00437 0.0568,-0.0426 -0.0356,0.078 -0.85825,220.85935 6.95815,-0.085 -0.82986,-225.42718 c 5.34028,-25.75079 7.41578,-33.47868 8.07174,-36.75551 l 0.007,0.0851 0.1064,-0.61709 c 0.0444,-0.24004 0.10895,-0.58352 0.13477,-0.77312 l 10.05776,-57.59451 z"
     id="rect108"
     inkscape:connector-curvature="0"
     sodipodi:nodetypes="ccccccccccccccccc" /><path
     inkscape:connector-curvature="0"
     style="fill:#669ec0;fill-opacity:1"
     d="m 341.35848,350.9242 5.69514,33.42558 -0.007,0.0851 c 0.69281,2.44747 1.52866,5.71252 2.74496,11.11461 l 11.999,27.62563 c 0,0 -2.86698,-6.13223 -14.79519,-25.99414 -3.58251,-20.282 -8.04138,-41.40327 -9.25211,-58.8996 l -0.13372,-18.37951 c 3.44902,18.13631 2.81051,17.64356 3.74918,31.02231 z"
     id="rect108-9"
     sodipodi:nodetypes="ccccccccc" /><path
     style="fill:#669ec0;fill-opacity:1"
     d="m 181.30116,504.85267 c 0,0 -4.20297,-5.55958 -0.79056,-18.19031 3.41241,-12.63073 16.63619,-21.14784 33.72093,-14.53106 8.54237,3.3084 18.104,3.58347 12.11379,17.93839 -0.0276,5.03808 -2.19046,9.24906 -2.19046,9.24906 -4.15393,-6.98679 -10.48878,-15.41419 -27.09253,-5.44873 -6.15345,3.68928 -9.06642,17.34973 -9.06642,17.34973 z"
     id="polygon104-1"
     inkscape:connector-curvature="0"
     sodipodi:nodetypes="czsccccc" /><path
     style="fill:#669ec0;fill-opacity:1"
     d="m 445.64944,493.61747 c 0,0 -2.56149,-6.44071 5.43557,-16.65197 7.99707,-10.21118 25.03323,-13.3707 40.96175,-1.5834 7.96426,5.89361 18.06197,9.40313 6.72188,20.28779 -1.76985,4.52745 -5.52729,7.58255 -5.52729,7.58255 -2.01659,-7.7094 -5.86087,-17.46021 -26.99995,-14.14931 -7.83288,1.22344 -15.65296,12.53242 -15.65296,12.53242 z"
     id="polygon104-1-2"
     inkscape:connector-curvature="0"
     sodipodi:nodetypes="czsccccc" /><path
     style="fill:#846558;fill-opacity:1"
     inkscape:connector-curvature="0"
     id="path124"
     d="m 400.51578,224.17376 c 0,11.4794 -4.04895,57.54705 -15.24509,56.86432 -11.10143,29.43857 -40.77169,29.75252 -51.53257,-0.49594 -12.06772,-1.55069 -17.30782,-43.96292 -17.30782,-55.50044 -3.20934,31.37376 8.39973,64.12341 24.03919,76.02613 15.63945,11.90272 21.08634,12.19296 37.9428,-0.004 16.85645,-12.19664 22.84909,-46.80305 22.10349,-76.89044 z"
     sodipodi:nodetypes="cccczzc" /><path
     style="fill:#231f20"
     d="m 324.90311,148.29144 c 3.02895,0.0594 29.68693,-2.41057 38.83025,1.60384 9.14331,4.0144 7.80638,4.40795 13.35921,8.84295 -0.88528,-2.62285 -0.11588,-0.40805 -1.86796,-2.89163 6.38249,2.98425 15.5564,7.22799 17.58999,18.06258 5.39176,4.43253 7.21193,6.83413 10.63911,15.52913 l -2.12788,35.59777 -4.8251,-24.79581 c 0,0 -6.01628,-5.27683 -7.25636,-10.44373 -5.15316,0.42319 -19.0697,-5.36121 -23.32514,-3.08889 -4.25543,2.27232 -6.55295,4.12741 -12.70097,1.5314 -6.14802,-2.596 -7.4636,-1.98268 -14.2318,1.37115 -4.7185,1.30413 -16.20052,7.08968 -16.20052,7.08968 l -6.49051,27.94093 -1.70374,-36.37235 -8.32231,-8.81375 c 0,0 1.15229,-2.93322 5.67985,-5.92513 4.52756,-2.99191 7.36439,-3.60309 7.36439,-3.60309 -4.7361,-2.5187 -5.24934,-4.00129 -9.85367,-6.25657 7.50313,-8.32471 15.41454,-9.4604 19.2291,-9.24407 -2.63184,-1.39637 -2.85595,-3.25873 -3.78594,-6.13441 z"
     id="path126"
     inkscape:connector-curvature="0"
     sodipodi:nodetypes="czccccccczzccccczcccc" /><g
     id="g4658"
     transform="matrix(2.4717233,0,0,3.211597,294.93899,144.43928)"
     style="fill:#846558;fill-opacity:1"><path
       sodipodi:nodetypes="ccccc"
       id="path124-3-6"
       d="m 24.444605,36.851093 1.369201,0 -0.384826,2.747129 c -2.873771,-0.103172 -5.678359,-0.08178 -7.039063,0.39018 0.774842,-2.781446 5.124769,-1.271593 6.054688,-3.137309 z"
       style="fill:#846558;fill-opacity:1"
       inkscape:connector-curvature="0" /><path
       sodipodi:nodetypes="ccccc"
       id="path124-3-6-5"
       d="m 28.084196,36.851093 -1.369201,0 0.384826,2.747129 c 2.873771,-0.103172 5.678359,-0.08178 7.039063,0.39018 -0.774842,-2.781446 -5.124769,-1.271593 -6.054688,-3.137309 z"
       style="fill:#846558;fill-opacity:1"
       inkscape:connector-curvature="0" /></g><g
     id="g4845"
     transform="matrix(3.6315747,0,0,3.6315747,187.83913,106.58109)"><g
       id="g32"><path
         d="m 22.006,126.887 c -0.063,-0.039 -7.687,-4.294 -11.772,-1.379 -4.084,2.915 -9.199,13.84 -9.963,27.521 -0.601,10.718 2.535,10.539 2.535,10.539 0,0 2.849,-23.114 5.198,-28.012 5.666,-11.82 13.248,-5.951 13.248,-5.951 l 0.754,-2.718 z"
         id="path34"
         inkscape:connector-curvature="0"
         style="fill:#393536" /><path
         d="m 22.006,126.887 c 1.104,1.15 2.871,5.349 4.035,15.874 1.164,10.526 0.277,28.216 0.277,28.216 0,0 -0.463,7.35 -7.762,6.893 -7.3,-0.459 -7.3,-0.459 -7.3,-0.459 0,0 -7.974,-3.628 -8.508,-9.015 -0.534,-5.384 2.958,-42.509 10.306,-42.597 7.347,-0.089 8.952,1.088 8.952,1.088 z"
         id="path36"
         inkscape:connector-curvature="0"
         style="fill:#231f20" /><g
         id="g38"><path
           d="m 2.111,164.141 0.364,0.021 0.143,-2.536 -1.708,-0.096 c -0.025,1.21 0.435,2.057 1.189,2.832 l 0.012,-0.221 z"
           id="path40"
           inkscape:connector-curvature="0"
           style="fill:#231f20" /><path
           d="m 1.505,159.841 c -0.268,-0.016 -0.473,-0.243 -0.457,-0.512 l 0.145,-2.581 c 0.014,-0.269 0.244,-0.473 0.509,-0.458 l 0.774,0.043 0.207,-3.692 c -3.054,-0.171 -1.772,8.666 -1.772,8.666 l 1.722,0.097 0.082,-1.494 -1.21,-0.069 z"
           id="path42"
           inkscape:connector-curvature="0"
           style="fill:#231f20" /><path
           d="m 2.123,159.138 c -0.014,0.233 -0.213,0.412 -0.445,0.399 l 0,0 c -0.233,-0.014 -0.411,-0.213 -0.397,-0.446 l 0.119,-2.14 c 0.014,-0.234 0.212,-0.412 0.444,-0.399 l 0,0 c 0.234,0.013 0.412,0.213 0.398,0.446 l -0.119,2.14 z"
           id="path44"
           inkscape:connector-curvature="0"
           style="fill:#231f20" /><rect
           x="2.48"
           y="152.64799"
           transform="matrix(-0.9984,-0.0558,0.0558,-0.9984,-3.3343,312.4572)"
           width="0.43700001"
           height="7.2550001"
           id="rect46"
           style="fill:#231f20" /></g><path
         d="m 5.928,148.419 18.575,1.044 -0.718,24.856 C 23.02,176.011 11.362,177.985 6.653,173.413 1.943,168.84 5.928,148.419 5.928,148.419 Z"
         id="path48"
         inkscape:connector-curvature="0"
         style="fill:#393536" /><g
         id="g50"><path
           d="m 23.108,142.047 -7.419,-5.138 c -0.341,-0.238 -0.811,-0.152 -1.047,0.192 l -4.317,6.266 c -0.234,0.342 -0.15,0.814 0.192,1.05 l 7.419,5.14 c 0.341,0.236 0.812,0.15 1.047,-0.193 l 4.315,-6.266 c 0.237,-0.343 0.151,-0.814 -0.19,-1.051 z"
           id="path52"
           inkscape:connector-curvature="0"
           style="fill:#393536" /><path
           d="m 25.327,138.633 c -0.12,0.175 -0.423,0.231 -0.644,0.078 l -6.441,-4.463 c -0.218,-0.151 -0.274,-0.455 -0.122,-0.676 l 6.125,-8.894 c 0.154,-0.219 0.454,-0.276 0.675,-0.122 l 6.441,4.462 c 0.221,0.152 0.275,0.454 0.092,0.721 l -6.126,8.894 z"
           id="path54"
           inkscape:connector-curvature="0"
           style="fill:#393536" /><path
           d="m 20.413,145.887 c -0.152,0.221 -0.454,0.276 -0.675,0.123 l -6.553,-4.538 c -0.218,-0.154 -0.274,-0.456 -0.123,-0.676 l 4.316,-6.267 c 0.152,-0.221 0.454,-0.276 0.675,-0.123 l 6.552,4.539 c 0.221,0.153 0.275,0.455 0.123,0.676 l -4.315,6.266 z"
           id="path56"
           inkscape:connector-curvature="0"
           style="fill:#393536" /><g
           id="g58"><path
             d="m 26.102,138.355 -0.388,-0.268 -4.688,6.804 0.391,0.271 c 0.22,0.151 0.521,0.096 0.672,-0.124 l 4.139,-6.007 c 0.149,-0.221 0.094,-0.523 -0.126,-0.676 z"
             id="path60"
             inkscape:connector-curvature="0"
             style="fill:#393536" /><path
             d="m 18.083,132.78 0.39,0.27 -4.688,6.805 -0.388,-0.27 c -0.221,-0.153 -0.277,-0.455 -0.125,-0.676 l 4.139,-6.005 c 0.151,-0.22 0.451,-0.277 0.672,-0.124 z"
             id="path62"
             inkscape:connector-curvature="0"
             style="fill:#393536" /></g><g
           id="g64"><path
             d="m 13.784,139.855 4.088,-5.935 c -0.312,-0.033 -0.634,0.102 -0.825,0.379 l -3.643,5.29 0.38,0.266 z"
             id="path66"
             inkscape:connector-curvature="0"
             style="fill:#393536" /><path
             d="m 25.123,138.944 -4.098,5.946 0.383,0.265 3.652,-5.306 c 0.192,-0.275 0.204,-0.624 0.063,-0.905 z"
             id="path68"
             inkscape:connector-curvature="0"
             style="fill:#393536" /></g><path
           d="m 19.019,149.389 c -0.151,0.22 -0.454,0.277 -0.675,0.123 l -7.929,-5.494 c -0.221,-0.152 -0.275,-0.456 -0.123,-0.675 l 4.315,-6.267 c 0.152,-0.219 0.454,-0.276 0.673,-0.124 l 7.932,5.495 c 0.22,0.152 0.274,0.455 0.122,0.675 l -4.315,6.267 z"
           id="path70"
           inkscape:connector-curvature="0"
           style="fill:#393536" /><rect
           x="14.883"
           y="139.355"
           transform="matrix(0.822,0.5695,-0.5695,0.822,82.9,13.8344)"
           width="8.8719997"
           height="0.35699999"
           id="rect72"
           style="fill:#393536" /></g></g><polygon
       points="22.006,139.258 18.564,132.809 68.731,59.199 76.556,61.454 "
       id="polygon140"
       style="fill:#393536" /></g><path
     style="fill:#a77660;fill-opacity:1"
     d="m 188.89595,501.20274 -0.12783,0.4185 c -1.24563,3.90394 -1.28652,8.22955 0.19138,12.39133 0.61737,1.74316 1.48978,3.39658 2.23426,5.09979 l 2.31941,5.07145 4.63876,10.14288 9.27043,20.27864 4.63879,10.14288 2.32646,5.07142 1.15615,2.53927 0.57451,1.26256 c 0.10532,0.23605 0.19247,0.37931 0.29779,0.688 l 0.23424,0.65256 3.99331,11.23518 c 0.75286,2.46304 1.57077,4.75199 2.44707,6.86593 l 0.99298,2.80172 0.0363,0.0991 c 0.5171,1.45002 1.30541,2.71944 2.22721,3.85147 12.38818,21.53168 32.38973,19.6884 46.63592,18.65438 0,0 5.3585,-3.76118 3.7025,-8.36965 0,0 -9.29752,-4.36007 -18.39193,-17.78193 l -0.82277,-2.49671 c -0.15034,-1.01971 -0.0472,-2.02126 0.1489,-2.99322 l 6.24885,9.21371 c 1.95015,2.86531 5.83786,3.59536 8.69591,1.65974 2.84716,-1.9429 3.57394,-5.8524 1.64558,-8.69592 l -12.9446,-19.0516 c -1.40837,-2.09793 -3.88445,-3.04537 -6.22757,-2.63856 l -0.0363,-0.0991 -11.63949,3.33367 -1.39728,-4.2274 c -0.53747,-1.67053 -0.99186,-3.54072 -1.49661,-5.2984 l -1.46825,-5.36224 -2.94357,-10.71031 -5.88003,-21.43482 -2.94357,-10.7174 -1.0001,-3.63865 c -1.67564,-8.44592 -7.61501,-40.92854 -37.33702,-7.95827 z"
     id="path138"
     inkscape:connector-curvature="0"
     sodipodi:nodetypes="cccccccccccccccccccccccccccccccccccccc" /><g
     id="g4889"
     transform="matrix(3.6315747,0,0,3.6315747,187.83913,106.58109)"><g
       id="g156"><path
         style="fill:#ffffff"
         inkscape:connector-curvature="0"
         id="path158"
         d="m 50.393,107.187 0.884,18.054 c 0.095,0.611 -1.605,1.387 -3.795,1.73 -2.194,0.341 -4.047,0.126 -4.143,-0.487 l -4.647,-17.464 11.701,-1.833 z" /><path
         style="fill:#7fb860"
         inkscape:connector-curvature="0"
         id="path160"
         d="m 41.414,117.689 c -0.388,-2.497 1.316,-4.838 3.805,-5.229 2.49,-0.391 4.823,1.317 5.215,3.815 0.388,2.499 -1.314,4.839 -3.805,5.229 -2.492,0.389 -4.824,-1.318 -5.215,-3.815 z" /><polygon
         style="fill:#d1d3d4"
         id="polygon162"
         points="50.393,107.187 38.691,109.02 38.959,110.022 50.41,107.634 " /><path
         style="fill:#ffffff"
         inkscape:connector-curvature="0"
         id="path164"
         d="m 38.228,108.747 -0.127,-0.821 0.866,-0.135 -0.119,-1.31 c -0.041,-0.254 2.305,-0.832 5.24,-1.292 2.931,-0.458 5.342,-0.626 5.381,-0.373 l 0.284,1.284 0.868,-0.135 0.127,0.82 0.257,0.304 -12.93,2.025 0.153,-0.367 z" /></g><path
       sodipodi:nodetypes="ccccccccccccccccccccccccccccccccccccccc"
       inkscape:connector-curvature="0"
       id="path154"
       d="m 72.09375,109.69727 -18.763672,7.62109 c -0.226627,-0.87672 -0.464813,-1.68758 -0.703125,-2.41992 -3.81e-4,-10e-4 3.81e-4,-0.003 0,-0.004 -0.02386,-0.21512 -0.09311,-0.42099 -0.197265,-0.60742 -0.0015,-0.004 -0.0025,-0.01 -0.0039,-0.0137 -0.0014,3.1e-4 -0.0025,-3.1e-4 -0.0039,0 -0.197494,-0.34558 -0.520755,-0.61975 -0.931641,-0.74219 -0.847,-0.251 -1.741281,0.23203 -1.988281,1.08203 0,0 -0.02184,0.22269 -0.02344,0.23828 -2.994335,0.48006 -4.221212,0.27295 -5.607422,0.39453 -0.02293,-0.004 -0.04104,-0.0186 -0.06445,-0.0215 l -4.382813,-0.54688 c -0.655,-0.081 -1.257891,0.38693 -1.33789,1.04493 -0.077,0.662 0.387875,1.2607 1.046874,1.3457 l 3.88086,0.48242 c 0.01547,0.2256 0.04145,0.4535 0.07813,0.6836 l -2.636719,-0.24805 c -0.651,-0.08 -1.255937,0.38787 -1.335937,1.04687 -0.078,0.661 0.385922,1.26071 1.044921,1.34571 l 0.132813,0.0117 c -0.388837,0.15924 -0.691191,0.5045 -0.744141,0.95118 -0.08,0.663 0.387875,1.25975 1.046875,1.34375 l 2.144532,0.26757 c 0.06788,0.19053 0.133046,0.38898 0.226562,0.61329 l -1.175781,0.28906 c -0.639,0.156 -1.038859,0.81208 -0.88086,1.45508 0.162,0.646 0.812032,1.03981 1.457032,0.88281 l 1.884765,-0.46289 c 0.546813,0.2985 1.254454,0.30785 2.083985,0.0645 l 2.99414,-0.53906 c 1.606649,-0.0109 3.531295,-0.25755 5.058594,-0.81055 2.594958,-0.35772 26.635422,-3.67271 27.222656,-3.76758 2.584402,-2.46834 2.660958,-10.18783 2.65625,-11.55468 l 0,-0.004 c 0.0079,-0.0583 -0.0016,-0.0984 0.002,-0.15234 -5.14e-4,-0.0645 0.0039,-0.36328 0.0039,-0.36328 l -0.002,0 c 0.901056,-3.3616 -10.666161,-6.44294 -12.181641,1.09375 z"
       style="fill:#a77660;fill-opacity:1" /></g><path
     style="fill:#669ec0;fill-opacity:1"
     d="m 392.86963,348.00384 -15.91919,-27.73419 10.3384,-17.74438 0.0363,-7.57183 18.26292,17.07792 z"
     id="polygon94"
     inkscape:connector-curvature="0"
     sodipodi:nodetypes="cccccc" /><path
     style="fill:#669ec0;fill-opacity:1"
     d="m 321.89193,348.00383 15.91919,-27.73418 -10.3384,-17.74438 -0.0363,-7.57183 -18.26292,17.07791 z"
     id="polygon94-2"
     inkscape:connector-curvature="0"
     sodipodi:nodetypes="cccccc" /><path
     inkscape:connector-curvature="0"
     style="fill:#614a41;fill-opacity:1"
     d="m 345.34526,215.35697 c 5.21512,1.47637 5.30553,0.76965 6.78725,0.93705 -0.0209,1.16301 -0.0955,2.775 -2.14444,3.08255 -2.04897,0.30753 -26.3213,-3.51058 -29.68458,-1.50195 4.0807,-8.32378 19.82666,-3.99402 25.04177,-2.51765 z"
     id="path124-3-6-0"
     sodipodi:nodetypes="zczcz" /><path
     inkscape:connector-curvature="0"
     style="fill:#846558;fill-opacity:1"
     d="m 364.45377,285.05374 -7.93878,-0.10947 c 0.19877,4.84927 1.19071,2.94258 3.96181,5.68715 3.23814,-2.85966 3.97697,-1.18508 3.97697,-5.57768 z"
     id="path124-3-6-5-9"
     sodipodi:nodetypes="cccc" /><path
     inkscape:connector-curvature="0"
     style="fill:#614a41;fill-opacity:1"
     d="m 372.56208,213.9995 c -4.93542,2.2325 -6.01264,1.71645 -7.49436,1.85606 0.0209,0.96994 0.62583,2.50972 2.67477,2.76621 2.04897,0.25649 17.76588,-9.27495 29.15425,-1.448 -2.04035,-3.47101 -6.28991,-8.01586 -11.38837,-7.82695 -5.09847,0.18891 -10.07357,3.35322 -12.94629,4.65268 z"
     id="path124-3-6-0-3"
     sodipodi:nodetypes="sczcss" /><path
     style="fill:#191d2a;fill-opacity:1;stroke:#191d2a;stroke-width:0.46177268;stroke-miterlimit:4;stroke-dasharray:none;stroke-opacity:1"
     inkscape:connector-curvature="0"
     d="m 384.4053,216.57134 c -7.16569,0.0467 -14.07097,2.2309 -21.10458,3.1043 -2.93555,0.36454 -5.96095,0.45396 -8.90143,0.11502 -3.90967,-0.45083 -7.69482,-1.64793 -11.60181,-2.1846 -3.49179,-0.47932 -7.02698,-0.98009 -10.54055,-1 -6.14022,-0.0356 -12.07862,1.83912 -18.09795,2.85136 0,1.7168 -0.35782,3.9207 0.54218,5.12762 0.92833,1.24464 2.49431,2.38292 2.90045,4.06975 0.96316,4.00037 2.33071,7.92163 4.07935,11.68096 0.84978,1.82685 2.45344,3.10055 4.24454,3.97792 4.31274,2.11281 9.41708,2.42341 14.1483,1.75913 6.73776,-0.94617 10.39309,-5.87581 13.18177,-11.50854 1.04385,-2.28962 1.1602,-4.9322 2.53493,-7.02476 0.81643,-1.24279 2.71251,-0.71965 4.06734,-0.72427 1.35521,-0.005 2.50383,2.19321 2.92419,3.65611 1.48824,5.17711 3.96973,10.66982 8.90162,13.38231 7.36467,4.05098 18.96744,3.29323 23.74582,-4.01234 1.87013,-2.85934 2.38655,-6.3283 3.32463,-9.56539 0.57121,-1.97076 1.08175,-4.32038 3.11276,-5.40364 0.81964,-0.43739 0.24448,-2.18198 0.36539,-3.19625 0.13182,-1.10481 0.38622,-2.08245 -1.22616,-2.29922 -2.81218,-0.37879 -5.54003,-1.53022 -8.41818,-1.92001 -2.72748,-0.36947 -5.39962,-0.90339 -8.18261,-0.88546 z m -47.37339,1.83952 c 2.03424,-0.0116 4.05957,0.1327 6.03677,0.54042 11.77975,2.42959 12.01777,7.16233 7.16851,16.94669 -3.95154,7.9726 -12.13719,9.97021 -20.38536,8.05928 -3.8024,-0.88086 -6.40214,-3.46897 -7.62849,-7.01301 -1.29418,-3.74074 -2.2732,-7.71497 -2.05148,-11.64672 0.29695,-5.2647 6.40365,-6.0046 10.77629,-6.48424 2.00657,-0.22004 4.04972,-0.3898 6.08376,-0.40242 z m 43.01097,0 c 2.03424,0.0116 4.07739,0.18238 6.08397,0.40242 4.37244,0.47964 10.47968,1.21954 10.77628,6.48424 0.22156,3.93175 -0.75729,7.90598 -2.05167,11.64672 -1.22614,3.54404 -3.82608,6.13215 -7.62829,7.01301 -8.24781,1.91093 -16.43365,-0.0867 -20.38556,-8.05928 -4.84926,-9.78436 -4.61086,-14.5171 7.16891,-16.94669 1.977,-0.40774 4.00233,-0.55284 6.03636,-0.54042 l 0,0 z"
     id="svg_7" /></svg>
