<?xml version="1.0" encoding="UTF-8" standalone="no"?>
<!-- Generator: Adobe Illustrator 16.0.4, SVG Export Plug-In . SVG Version: 6.00 Build 0)  -->

<svg
   xmlns:dc="http://purl.org/dc/elements/1.1/"
   xmlns:cc="http://creativecommons.org/ns#"
   xmlns:rdf="http://www.w3.org/1999/02/22-rdf-syntax-ns#"
   xmlns:svg="http://www.w3.org/2000/svg"
   xmlns="http://www.w3.org/2000/svg"
   xmlns:sodipodi="http://sodipodi.sourceforge.net/DTD/sodipodi-0.dtd"
   xmlns:inkscape="http://www.inkscape.org/namespaces/inkscape"
   version="1.1"
   x="0px"
   y="0px"
   width="2048"
   height="1152"
   viewBox="0 0 1920 1080"
   enable-background="new 0 0 93 274"
   xml:space="preserve"
   id="svg2"
   inkscape:version="0.92.3 (2405546, 2018-03-11)"
   sodipodi:docname="avatar-banner2.svg"
   inkscape:export-filename="/home/huntingbears/Imágenes/Avatars/avatar-banner2.png"
   inkscape:export-xdpi="96"
   inkscape:export-ydpi="96"><metadata
     id="metadata186"><rdf:RDF><cc:Work
         rdf:about=""><dc:format>image/svg+xml</dc:format><dc:type
           rdf:resource="http://purl.org/dc/dcmitype/StillImage" /><dc:title></dc:title></cc:Work></rdf:RDF></metadata><defs
     id="defs184" /><sodipodi:namedview
     pagecolor="#f8d983"
     bordercolor="#666666"
     borderopacity="1"
     objecttolerance="10"
     gridtolerance="10"
     guidetolerance="10"
     inkscape:pageopacity="1"
     inkscape:pageshadow="2"
     inkscape:window-width="1600"
     inkscape:window-height="820"
     id="namedview182"
     showgrid="false"
     inkscape:zoom="0.19955369"
     inkscape:cx="88.373858"
     inkscape:cy="295.95145"
     inkscape:window-x="0"
     inkscape:window-y="48"
     inkscape:window-maximized="1"
     inkscape:current-layer="svg2"
     showguides="false"
     fit-margin-left="-0.1"><sodipodi:guide
       position="-23.075212,206.66102"
       orientation="1,0"
       id="guide4818"
       inkscape:locked="false" /></sodipodi:namedview><g
     id="BASEMENT"
     transform="translate(0,806)" /><g
     id="BG"
     transform="translate(0,806)" /><g
     id="LAYOUT"
     transform="translate(0,806)" /><g
     id="SPRITE_B"
     transform="translate(0,806)" /><g
     id="MENU"
     transform="translate(0,806)" /><g
     id="g64"
     transform="matrix(1.1103065,0,0,1.1103065,1110.7544,385.23539)"><path
       id="path118-3"
       d="M 379.1041,-203.43948 C 337.32504,-203.43948 303.45937,-159.65118 303.45937,-142.94943 C 303.45937,-133.7404 302.47824,-107.32861 302.19756,-81.86711 C 301.75599,-83.51816 299.78025,-90.72289 297.5108,-92.96597 C 294.97035,-95.47942 291.49785,-90.7256 291.49785,-90.7256 C 291.49785,-90.7256 289.66165,-70.1156 290.49354,-62.27031 C 291.31547,-54.41713 299.60954,-34.38153 299.60954,-34.38153 L 303.24048,-34.44613 L 303.18908,-38.0127 C 303.40425,-35.70279 303.58396,-33.18578 303.88435,-31.48472 C 306.17469,-18.51605 313.72442,4.89302 321.57558,25.25847 L 322.05391,82.78295 L 340.69377,104.60835 L 358.68408,238.78973 L 379.1858,278.19505 L 407.10216,161.89256 L 412.93168,104.17279 L 430.57728,80.39112 L 431.53401,34.86375 C 440.38377,12.26984 448.41983,-16.99712 451.38834,-30.76369 C 451.86591,-32.9784 452.26124,-36.1024 452.59866,-39.73805 L 452.52136,-34.44613 L 456.1523,-34.38153 C 456.1523,-34.38153 464.44638,-54.41713 465.26831,-62.27031 C 466.10013,-70.1156 464.25104,-90.7256 464.25104,-90.7256 C 464.25104,-90.7256 460.79142,-95.47942 458.25096,-92.96597 C 456.52424,-91.25931 455.14291,-87.10606 454.23374,-84.06886 C 454.53218,-108.57301 454.37207,-133.54542 454.74881,-142.94943 C 455.46965,-160.94759 420.88314,-203.43948 379.10405,-203.43948 Z"
       style="fill:#a77660;fill-opacity:1;stroke:none"
       inkscape:connector-curvature="0"
       sodipodi:nodetypes="sscccccccscccccccccscccccccss" /><path
       sodipodi:nodetypes="cczcccscsccccsccczcccccccccc"
       inkscape:connector-curvature="0"
       id="path88"
       d="M 299.05363,77.64405 L 164.76008,121.24115 C 133.598,158.94945 28.592198,328.33453 46.317607,390.32124 C 64.043034,452.30793 62.56626,402.08319 62.56626,402.08319 L 128.56485,391.36198 C 128.56485,391.36198 117.12811,411.31007 127.59235,373.4653 C 137.71037,379.81084 158.66627,349.19316 171.64272,327.84518 C 188.77293,299.66371 198.49531,269.76524 200.3583,270.00237 C 200.4059,251.73624 191.03875,289.21109 209.15882,354.4856 C 230.49475,431.3447 218.35268,590.32936 217.36909,629.68495 C 217.36909,629.68495 251.69502,706.36707 376.3207,706.64802 V 706.88008 C 501.4832,706.88008 538.79913,627.99065 538.79913,627.99065 C 532.92175,579.3842 509.89327,436.95498 527.87182,362.40413 C 529.07261,357.42488 527.87182,362.40413 534.87204,341.02933 C 525.13514,345.60773 541.23265,394.72097 541.23265,394.72097 L 631.31748,397.27685 C 631.31748,397.27685 636.84114,331.99938 631.58143,285.29045 C 626.32173,238.5815 619.60342,161.08537 591.19037,121.24115 C 590.37086,121.6545 588.94655,122.32107 588.03582,122.77337 L 588.52509,121.44717 L 452.46758,78.73847 L 412.63512,92.93753 L 397.0859,170.51407 L 380.95397,266.73661 L 350.29946,175.74724 L 340.6217,91.75013 Z"
       style="fill:#93bbd3;fill-opacity:1" /><path
       inkscape:connector-curvature="0"
       id="polygon104"
       d="M 517.27501,344.07655 L 470.55181,366.82779 L 423.8286,344.07655 V 269.01927 H 517.27501 Z"
       style="fill:#669ec0;fill-opacity:1" /><path
       sodipodi:nodetypes="ccccccccccccccccc"
       inkscape:connector-curvature="0"
       id="rect108"
       d="M 412.81391,90.82312 L 404.62148,150.90677 L 390.93461,206.80018 L 390.94731,206.95466 C 389.68966,211.39752 388.17235,217.32453 385.96441,227.13089 L 369.1745,305.19625 L 369.2776,305.11895 L 369.213,305.26054 L 367.65503,706.18411 L 380.28608,706.02982 L 378.77965,296.81431 C 388.4738,250.06918 392.24143,236.04083 393.43219,230.09244 L 393.44489,230.24692 L 393.63803,229.12672 C 393.71863,228.69098 393.83581,228.06746 393.88268,227.72328 L 412.14042,123.1726 Z"
       style="fill:#669ec0;fill-opacity:1" /><path
       sodipodi:nodetypes="ccccccccc"
       id="rect108-9"
       d="M 347.35074,146.68196 L 357.68906,207.35905 L 357.67636,207.51353 C 358.93401,211.9564 360.45132,217.88341 362.65925,227.68976 L 384.44091,277.83827 C 384.44091,277.83827 379.23651,266.7065 357.58336,230.65139 C 351.08007,193.83369 342.98593,155.49248 340.7881,123.73159 L 340.54536,90.36746 C 346.80633,123.29011 345.64725,122.39562 347.35121,146.68192 Z"
       style="fill:#669ec0;fill-opacity:1"
       inkscape:connector-curvature="0" /><path
       sodipodi:nodetypes="czsccccc"
       inkscape:connector-curvature="0"
       id="polygon104-1"
       d="M 56.80043,426.10663 C 56.80043,426.10663 49.170824,416.01439 55.365335,393.08596 C 61.559845,370.15753 85.564829,354.69652 116.57857,366.70789 C 132.08544,372.71359 149.44257,373.21292 138.5686,399.27125 C 138.5185,408.41682 134.59228,416.06097 134.59228,416.06097 C 127.0517,403.37792 115.55212,388.07976 85.41151,406.16995 C 74.241219,412.86706 68.953336,437.66472 68.953336,437.66472 Z"
       style="fill:#669ec0;fill-opacity:1" /><path
       sodipodi:nodetypes="czsccccc"
       inkscape:connector-curvature="0"
       id="polygon104-1-2"
       d="M 536.66898,405.7115 C 536.66898,405.7115 532.01914,394.01975 546.53611,375.48336 C 561.05311,356.94711 591.97866,351.21167 620.89353,372.60903 C 635.35096,383.30763 653.68123,389.67843 633.09569,409.43723 C 629.8829,417.65586 623.06206,423.20175 623.06206,423.20175 C 619.40136,409.20696 612.42288,391.50642 574.04934,397.51666 C 559.8304,399.73756 545.63469,420.26663 545.63469,420.26663 Z"
       style="fill:#669ec0;fill-opacity:1" /><path
       sodipodi:nodetypes="cccczzc"
       d="M 454.73834,-83.40673 C 454.73834,-62.5683 447.38833,21.0578 427.06409,19.81845 C 406.91179,73.25796 353.05169,73.82787 333.51758,18.91817 C 311.61118,16.10322 302.09888,-60.88724 302.09888,-81.83117 C 296.273,-24.87873 317.34682,34.57136 345.73696,56.17823 C 374.12709,77.78511 384.01477,78.31198 414.61412,56.17123 C 445.21345,34.03081 456.09182,-28.78983 454.73834,-83.40714 Z"
       id="path124"
       inkscape:connector-curvature="0"
       style="fill:#846558;fill-opacity:1" /><path
       sodipodi:nodetypes="czccccccczzccccczcccc"
       inkscape:connector-curvature="0"
       id="path126"
       d="M 317.47948,-221.15508 C 322.9779,-221.04725 371.36984,-225.53096 387.96761,-218.24365 C 404.56536,-210.95635 402.13845,-210.24194 412.21844,-202.19114 C 410.6114,-206.95237 412.00809,-202.93187 408.82755,-207.44028 C 420.41362,-202.023 437.06692,-194.31939 440.75847,-174.65148 C 450.54607,-166.60515 453.85021,-162.24555 460.07153,-146.46162 L 456.20881,-81.84137 L 447.44986,-126.85294 C 447.44986,-126.85294 436.52858,-136.43191 434.27747,-145.81133 C 424.923,-145.04311 399.66045,-155.54347 391.9356,-151.41855 C 384.21076,-147.29364 380.0401,-143.92611 368.87967,-148.63862 C 357.71923,-153.35111 355.33108,-152.23776 343.04484,-146.14959 C 334.47939,-143.78221 313.63621,-133.27977 313.63621,-133.27977 L 301.85406,-82.5589 L 298.76128,-148.58523 L 283.65388,-164.58474 C 283.65388,-164.58474 285.74562,-169.90938 293.96445,-175.34056 C 302.18328,-180.77174 307.33294,-181.88121 307.33294,-181.88121 C 298.73555,-186.45338 297.80387,-189.14471 289.44568,-193.23869 C 303.06603,-208.35045 317.42753,-210.41205 324.35206,-210.01935 C 319.57451,-212.55417 319.16768,-215.93489 317.47948,-221.15508 Z"
       style="fill:#231f20" /><g
       style="fill:#846558;fill-opacity:1"
       transform="matrix(4.4868924,0,0,5.829977,263.08594,-228.14786)"
       id="g4658"><path
         inkscape:connector-curvature="0"
         style="fill:#846558;fill-opacity:1"
         d="M 24.444605,36.851093 H 25.813806 L 25.42898,39.598222 C 22.555209,39.49505 19.750621,39.516442 18.389917,39.988402 C 19.164759,37.206956 23.514686,38.716809 24.444605,36.851093 Z"
         id="path124-3-6"
         sodipodi:nodetypes="ccccc" /><path
         inkscape:connector-curvature="0"
         style="fill:#846558;fill-opacity:1"
         d="M 28.084196,36.851093 H 26.714995 L 27.099821,39.598222 C 29.973592,39.49505 32.77818,39.516442 34.138884,39.988402 C 33.364042,37.206956 29.014115,38.716809 28.084196,36.851093 Z"
         id="path124-3-6-5"
         sodipodi:nodetypes="ccccc" /></g><path
       sodipodi:nodetypes="cccccccccccccccccccccccccccccccccccccc"
       inkscape:connector-curvature="0"
       id="path138"
       d="M 70.587169,419.48095 L 70.355121,420.24065 C 68.093942,427.32743 68.019715,435.17967 70.702531,442.7345 C 71.823236,445.89884 73.406912,448.90027 74.758359,451.99209 L 78.968758,461.19824 L 87.389449,479.6105 L 104.21796,516.42209 L 112.6387,534.83435 L 116.8619,544.04045 L 118.96065,548.64996 L 120.00355,550.94187 C 120.19474,551.37037 120.35294,551.63043 120.54412,552.19079 L 120.96934,553.37537 L 128.21835,573.77047 C 129.58501,578.2416 131.06975,582.39671 132.66049,586.23412 L 134.46304,591.32005 L 134.52894,591.49995 C 135.46763,594.13215 136.89864,596.43652 138.57197,598.49148 C 161.0601,637.5777 197.36869,634.23162 223.22965,632.35457 C 223.22965,632.35457 232.95687,625.52694 229.95076,617.16124 C 229.95076,617.16124 213.07307,609.24645 196.56409,584.88189 L 195.07052,580.34964 C 194.79761,578.49857 194.98482,576.68047 195.34082,574.91608 L 206.68429,591.64163 C 210.22437,596.843 217.28169,598.16825 222.46988,594.65454 C 227.6383,591.12761 228.95761,584.03074 225.45708,578.86893 L 201.95889,544.28477 C 199.40229,540.47642 194.90749,538.75654 190.65405,539.49502 L 190.58815,539.31512 L 169.45911,545.3667 L 166.92265,537.69274 C 165.94698,534.66025 165.12213,531.26531 164.20587,528.07462 L 161.54057,518.3406 L 156.19714,498.89829 L 145.52318,459.9879 L 140.17975,440.53272 L 138.36428,433.92752 C 135.3225,418.59573 124.54083,359.63038 70.586788,419.48095 Z"
       style="fill:#a77660;fill-opacity:1" /><g
       transform="matrix(6.592358,0,0,6.592358,68.668735,-296.87142)"
       id="g4889"><g
         id="g156"><path
           d="M 50.393,107.187 L 51.277,125.241 C 51.372,125.852 49.672,126.628 47.482,126.971 C 45.288,127.312 43.435,127.097 43.339,126.484 L 38.692,109.02 Z"
           id="path158"
           inkscape:connector-curvature="0"
           style="fill:#ffffff" /><path
           d="M 41.414,117.689 C 41.026,115.192 42.73,112.851 45.219,112.46 C 47.709,112.069 50.042,113.777 50.434,116.275 C 50.822,118.774 49.12,121.114 46.629,121.504 C 44.137,121.893 41.805,120.186 41.414,117.689 Z"
           id="path160"
           inkscape:connector-curvature="0"
           style="fill:#7fb860" /><polygon
           points="38.691,109.02 38.959,110.022 50.41,107.634 50.393,107.187 "
           id="polygon162"
           style="fill:#d1d3d4" /><path
           d="M 38.228,108.747 L 38.101,107.926 L 38.967,107.791 L 38.848,106.481 C 38.807,106.227 41.153,105.649 44.088,105.189 C 47.019,104.731 49.43,104.563 49.469,104.816 L 49.753,106.1 L 50.621,105.965 L 50.748,106.785 L 51.005,107.089 L 38.075,109.114 Z"
           id="path164"
           inkscape:connector-curvature="0"
           style="fill:#ffffff" /></g><path
         style="fill:#a77660;fill-opacity:1"
         d="M 72.09375,109.69727 L 53.330078,117.31836 C 53.103451,116.44164 52.865265,115.63078 52.626953,114.89844 C 52.626572,114.89744 52.627334,114.89544 52.626953,114.89444 C 52.603093,114.67932 52.533843,114.47345 52.429688,114.28702 C 52.428188,114.28302 52.427188,114.27702 52.425788,114.27332 C 52.424388,114.27363 52.423288,114.27301 52.421888,114.27332 C 52.224394,113.92774 51.901133,113.65357 51.490247,113.53113 C 50.643247,113.28013 49.748966,113.76316 49.501966,114.61316 C 49.501966,114.61316 49.480126,114.83585 49.478526,114.85144 C 46.484191,115.3315 45.257314,115.12439 43.871104,115.24597 C 43.848174,115.24197 43.830064,115.22737 43.806654,115.22447 L 39.423841,114.67759 C 38.768841,114.59659 38.16595,115.06452 38.085951,115.72252 C 38.008951,116.38452 38.473826,116.98322 39.132825,117.06822 L 43.013685,117.55064 C 43.029155,117.77624 43.055135,118.00414 43.091815,118.23424 L 40.455096,117.98619 C 39.804096,117.90619 39.199159,118.37406 39.119159,119.03306 C 39.041159,119.69406 39.505081,120.29377 40.16408,120.37877 L 40.296893,120.39047 C 39.908056,120.54971 39.605702,120.89497 39.552752,121.34165 C 39.472752,122.00465 39.940627,122.6014 40.599627,122.6854 L 42.744159,122.95297 C 42.812039,123.1435 42.877205,123.34195 42.970721,123.56626 L 41.79494,123.85532 C 41.15594,124.01132 40.756081,124.6674 40.91408,125.3104 C 41.07608,125.9564 41.726112,126.35021 42.371112,126.19321 L 44.255877,125.73032 C 44.80269,126.02882 45.510331,126.03817 46.339862,125.79482 L 49.334002,125.25576 C 50.940651,125.24486 52.865297,124.99821 54.392596,124.44521 C 56.987554,124.08749 81.028018,120.7725 81.615252,120.67763 C 84.199654,118.20929 84.27621,110.4898 84.271502,109.12295 V 109.11895 C 84.279402,109.06065 84.269902,109.02055 84.273502,108.96661 C 84.272988,108.90211 84.277402,108.60333 84.277402,108.60333 H 84.275402 C 85.176458,105.24173 73.609241,102.16039 72.093761,109.69708 Z"
         id="path154"
         inkscape:connector-curvature="0"
         sodipodi:nodetypes="ccccccccccccccccccccccccccccccccccccccc" /></g><path
       sodipodi:nodetypes="cccccc"
       inkscape:connector-curvature="0"
       id="polygon94"
       d="M 440.85837,141.38066 L 411.96043,91.03509 L 430.72762,58.82391 L 430.79352,45.07885 L 463.946,76.08021 Z"
       style="fill:#669ec0;fill-opacity:1" /><path
       sodipodi:nodetypes="cccccc"
       inkscape:connector-curvature="0"
       id="polygon94-2"
       d="M 312.01332,141.38064 L 340.91125,91.03509 L 322.14407,58.82391 L 322.07817,45.07885 L 288.92569,76.08019 Z"
       style="fill:#669ec0;fill-opacity:1" /><path
       sodipodi:nodetypes="zczcz"
       id="path124-3-6-0"
       d="M 354.5879,-99.41176 C 364.05485,-96.73172 364.21897,-98.01462 366.90872,-97.71074 C 366.87082,-95.59954 366.73536,-92.67331 363.01594,-92.11502 C 359.29647,-91.55676 315.23517,-98.48774 309.12984,-94.84149 C 316.53749,-109.95156 345.12096,-102.09179 354.5879,-99.41176 Z"
       style="fill:#614a41;fill-opacity:1"
       inkscape:connector-curvature="0" /><path
       sodipodi:nodetypes="cccc"
       id="path124-3-6-5-9"
       d="M 389.27537,27.10803 L 374.86419,26.90931 C 375.22501,35.71214 377.02567,32.25094 382.05602,37.23313 C 387.93418,32.04202 389.27537,35.08187 389.27537,27.10803 Z"
       style="fill:#846558;fill-opacity:1"
       inkscape:connector-curvature="0" /><path
       sodipodi:nodetypes="sczcss"
       id="path124-3-6-0-3"
       d="M 403.99429,-101.87596 C 395.03508,-97.82332 393.07961,-98.7601 390.38986,-98.50667 C 390.42776,-96.74595 391.52593,-93.9508 395.24534,-93.4852 C 398.96482,-93.0196 427.49555,-110.32192 448.16874,-96.11374 C 444.46491,-102.41463 436.75073,-110.66484 427.49555,-110.32192 C 418.24036,-109.97899 409.20911,-104.23485 403.99429,-101.87596 Z"
       style="fill:#614a41;fill-opacity:1"
       inkscape:connector-curvature="0" /><path
       id="svg_7"
       d="M 425.49316,-97.20732 C 412.48536,-97.12252 399.95028,-93.15759 387.18225,-91.57212 C 381.85338,-90.91038 376.3614,-90.74805 371.02358,-91.36333 C 363.9264,-92.18171 357.05526,-94.3548 349.96294,-95.32901 C 343.62433,-96.19911 337.20694,-97.10815 330.82879,-97.1443 C 319.68252,-97.2089 308.90261,-93.80576 297.97578,-91.96825 C 297.97578,-88.85177 297.32624,-84.85105 298.96,-82.66014 C 300.64518,-80.40076 303.48789,-78.33445 304.22515,-75.27237 C 305.97356,-68.01054 308.45606,-60.89232 311.63035,-54.06805 C 313.17295,-50.75179 316.08405,-48.43965 319.33542,-46.84697 C 327.16429,-43.01161 336.43014,-42.44778 345.01867,-43.65364 C 357.24965,-45.37122 363.88514,-54.31994 368.9474,-64.54497 C 370.84229,-68.70129 371.05349,-73.49834 373.54903,-77.29694 C 375.03108,-79.55296 378.47302,-78.60331 380.93242,-78.6117 C 383.39252,-78.6207 385.4776,-74.63039 386.24067,-71.9748 C 388.94226,-62.57685 393.44688,-52.606 402.39969,-47.68204 C 415.76869,-40.32834 436.83108,-41.70388 445.50522,-54.9656 C 448.90004,-60.15613 449.83749,-66.45329 451.54038,-72.32955 C 452.57729,-75.90705 453.50407,-80.17229 457.19094,-82.13872 C 458.67882,-82.93271 457.63474,-86.09964 457.85423,-87.94084 C 458.09352,-89.94638 458.55533,-91.72108 455.62839,-92.11458 C 450.52347,-92.8022 445.57164,-94.89238 440.34696,-95.59996 C 435.3958,-96.27065 430.54509,-97.23987 425.49316,-97.20732 Z M 339.49676,-93.86806 C 343.1895,-93.88916 346.86606,-93.62717 350.45525,-92.88704 C 371.8389,-88.47664 372.27097,-79.88534 363.46816,-62.1239 C 356.29498,-47.65133 341.43565,-44.02509 326.46284,-47.49398 C 319.56039,-49.09299 314.84111,-53.79116 312.61493,-60.22462 C 310.26562,-67.01514 308.48841,-74.22952 308.8909,-81.36678 C 309.42995,-90.92374 320.51537,-92.26687 328.45298,-93.13755 C 332.09548,-93.53699 335.80439,-93.84515 339.49676,-93.86806 Z M 417.57411,-93.86806 C 421.26684,-93.84696 424.97575,-93.53699 428.61827,-93.13755 C 436.55551,-92.26687 447.64192,-90.92374 448.18034,-81.36678 C 448.58253,-74.22952 446.80564,-67.01514 444.45596,-60.22462 C 442.23016,-53.79116 437.51052,-49.09299 430.60841,-47.49398 C 415.63625,-44.02509 400.77658,-47.65136 393.60272,-62.1239 C 384.79992,-79.88534 385.23268,-88.47664 406.61637,-92.88704 C 410.2052,-93.62721 413.88176,-93.89061 417.57411,-93.86806 Z"
       inkscape:connector-curvature="0"
       style="fill:#191d2a;fill-opacity:1;stroke:#191d2a;stroke-width:0.83825094;stroke-miterlimit:4;stroke-dasharray:none;stroke-opacity:1" /></g></svg>