<svg version="1.1" viewBox="0 0 1e3 1e3" xmlns="http://www.w3.org/2000/svg">
 <path d="m792.3 213.05 33.602 660.73c-0.76284 5.4772-3.8829 7.8344-7.0029 10.192l-491.84 23.624c-5.4772-0.76284-7.8344-3.8829-10.192-7.0029l-33.602-660.73c0.76285-5.4772 3.8829-7.8344 7.0029-10.192l491.84-23.624c5.8586-1.9758 10.954 1.5257 10.192 7.0029" fill="#757575" stroke-width="27.65"/>
 <path d="m784.59 208.29 33.602 660.73c-0.76285 5.4772-3.8829 7.8344-7.0029 10.192l-491.84 23.624c-5.4772-0.76284-7.8344-3.8829-10.192-7.0029l-33.221-663.47c0.76285-5.4772 3.8829-7.8344 7.0029-10.192l491.84-23.624c5.4772 0.76284 10.573 4.2643 9.8101 9.7415" fill="#dbd5c8" stroke-width="27.65"/>
 <path d="m810.97 197.28-50.081 660.25c-0.76285 5.4772-3.8829 7.8344-9.36 7.0715l-491.67-37.769c-5.4772-0.76284-7.8344-3.8829-7.0715-9.36l52.82-659.86c0.76285-5.4772 3.8829-7.8344 9.36-7.0715l488.93 37.387c2.7386 0.38142 7.8344 3.8829 7.0715 9.36" fill="#757575" stroke-width="27.65"/>
 <path d="m806.43 191.79-50.081 660.25c-0.76284 5.4772-3.8829 7.8344-9.36 7.0715l-491.67-37.769c-5.4772-0.76284-7.8344-3.8829-7.0715-9.36l52.82-659.86c0.76285-5.4772 3.8829-7.8344 9.36-7.0715l491.67 37.769s4.7143 6.24 4.3329 8.9786" fill="#ede6d8" stroke-width="27.65"/>
 <path d="m728.05 118.13 2.7149 662.02c-0.7628 5.4772-3.8829 7.8344-9.3601 7.0715l-494.27 0.95291c-5.4772-0.76285-7.8343-3.8829-7.0715-9.36l1.1443-8.2158 486.05-2.0972c5.4772 0.76285 8.9787-4.3329 9.3601-7.0715l-3.8591-653.8 8.2157 1.1443c5.4772 0.76284 7.8344 3.8829 7.0715 9.36" fill="#804508" stroke-width="27.65"/>
 <path d="m723.34 111.89 2.7149 662.02c-0.7629 5.4772-3.8829 7.8344-9.3601 7.0715l-494.27 0.95291c-5.4772-0.76285-7.8344-3.8829-7.0715-9.3601l1.1442-8.2158 486.05-2.0972c5.4772 0.76284 8.9786-4.3329 9.36-7.0715l-3.8591-653.8 8.2158 1.1443c2.7386 0.38143 5.0958 3.5014 7.0715 9.36" fill="#ede6d8" stroke-width="27.65"/>
 <path d="m764.62 176.26-106.36 1.9375-0.9001-33.626 106.36-1.9375z" fill="#24afff" stroke-width="27.65"/>
 <path d="m765.82 628.69-106.36 1.9375-0.9001-33.626 106.36-1.9375z" fill="#24afff" stroke-width="27.65"/>
 <path d="m768.52 729.57-106.36 1.9375-0.9001-33.626 106.36-1.9375z" fill="#00e62e" stroke-width="27.65"/>
 <path d="m764.45 237.66-106.36 1.9375-0.9001-33.626 106.36-1.9375z" fill="#ffed24" stroke-width="27.65"/>
 <path d="m767.59 575.89-106.36 1.9375-0.9001-33.626 106.36-1.9375z" fill="#ffed24" stroke-width="27.65"/>
 <path d="m765.8 288.1-106.36 1.9375-0.9001-33.626 106.36-1.9375z" fill="#00e62e" stroke-width="27.65"/>
 <path d="m765.13 433.17-106.36 1.9375-0.9001-33.626 106.36-1.9375z" fill="#ff73a5" stroke-width="27.65"/>
 <path d="m710.79 101.76 2.7149 662.02c-0.7629 5.4772-3.8829 7.8344-9.3601 7.0715l-494.27 0.95291c-5.4772-0.76285-7.8344-3.8829-7.0715-9.36l-2.7149-662.02c0.7629-5.4772 3.8829-7.8344 9.3601-7.0715l494.27-0.9529c5.4772 0.76284 7.8344 3.8829 7.0715 9.3601" fill="#d6750d" stroke-width="27.65"/>
 <path d="m240.86 128.44c-0.7628 5.4772-4.6457 13.312-12.862 12.167-5.4772-0.76285-13.312-4.6457-12.167-12.861 0.7628-5.4772 4.6457-13.312 12.862-12.167 5.4771 0.76284 10.192 7.0029 12.167 12.861" fill="#804508" stroke-width="27.65"/>
 <path d="m240.61 170.28c-0.7629 5.4772-4.6457 13.312-12.862 12.167-5.4772-0.76285-13.312-4.6457-12.167-12.861 0.7628-5.4772 4.6457-13.312 12.862-12.167 5.4772 0.76285 10.192 7.0029 12.167 12.862" fill="#804508" stroke-width="27.65"/>
 <path d="m240.37 212.12c-0.7628 5.4772-4.6457 13.312-12.862 12.167-5.4772-0.76285-13.312-4.6457-12.167-12.861 0.7629-5.4772 4.6457-13.312 12.862-12.167 5.4772 0.76285 10.573 4.2643 12.167 12.861" fill="#804508" stroke-width="27.65"/>
 <path d="m240.51 251.23c-0.7629 5.4772-4.6457 13.312-12.862 12.167-5.4772-0.76284-13.312-4.6457-12.167-12.861 0.7628-5.4772 4.6457-13.312 12.862-12.167 5.4772 0.76285 12.93 7.3843 12.167 12.861" fill="#804508" stroke-width="27.65"/>
 <path d="m240.26 293.07c-0.7628 5.4772-4.6457 13.312-12.862 12.167-5.4772-0.76284-13.312-4.6457-12.167-12.861 0.7629-5.4772 4.6457-13.312 12.862-12.167 5.4772 0.76285 12.93 7.3843 12.167 12.861" fill="#804508" stroke-width="27.65"/>
 <path d="m240.02 334.91c-0.7628 5.4772-4.6457 13.312-12.862 12.167-5.4771-0.76284-13.312-4.6457-12.167-12.861 0.7628-5.4772 4.6457-13.312 12.862-12.167 8.2157 1.1443 13.312 4.6457 12.167 12.861" fill="#804508" stroke-width="27.65"/>
 <path d="m239.77 376.75c-0.7629 5.4772-4.6457 13.312-12.862 12.167-5.4772-0.76284-13.312-4.6457-12.167-12.861 0.7629-5.4772 4.6457-13.312 12.862-12.167s13.312 4.6457 12.167 12.861" fill="#804508" stroke-width="27.65"/>
 <path d="m239.91 415.85c-0.7628 5.4772-4.6457 13.312-12.862 12.167-5.4771-0.76285-13.312-4.6457-12.167-12.861 0.7628-5.4772 4.6457-13.312 12.862-12.167 8.2157 1.1443 12.93 7.3843 12.167 12.861" fill="#804508" stroke-width="27.65"/>
 <path d="m239.67 457.7c-0.7629 5.4772-4.6457 13.312-12.862 12.167-5.4772-0.76285-13.312-4.6457-12.167-12.861 0.7629-5.4772 4.6457-13.312 12.862-12.167s12.93 7.3843 12.167 12.861" fill="#804508" stroke-width="27.65"/>
 <path d="m242.16 499.92c-0.7628 5.4772-4.6457 13.312-12.862 12.167-5.4772-0.76285-13.312-4.6457-12.167-12.861 0.7629-5.4772 4.6457-13.312 12.862-12.167 5.4772 0.76285 10.573 4.2643 12.167 12.861" fill="#804508" stroke-width="27.65"/>
 <path d="m242.3 539.02c-0.7629 5.4772-4.6457 13.312-12.862 12.167-5.4772-0.76284-13.312-4.6457-12.167-12.861 0.7628-5.4772 4.6457-13.312 12.862-12.167 5.4772 0.76285 10.192 7.0029 12.167 12.861" fill="#804508" stroke-width="27.65"/>
 <path d="m242.05 580.86c-0.7628 5.4772-4.6457 13.312-12.862 12.167-5.4772-0.76284-13.312-4.6457-12.167-12.861 0.7629-5.4772 4.6457-13.312 12.862-12.167 5.4772 0.76285 10.192 7.0029 12.167 12.861" fill="#804508" stroke-width="27.65"/>
 <path d="m241.81 622.71c-0.7628 5.4772-4.6457 13.312-12.862 12.167-5.4771-0.76284-13.312-4.6457-12.167-12.861 0.7628-5.4772 4.6457-13.312 12.862-12.167 5.4771 0.76284 12.93 7.3843 12.167 12.861" fill="#804508" stroke-width="27.65"/>
 <path d="m241.57 664.55c-0.7629 5.4772-4.6457 13.312-12.862 12.167-5.4772-0.76284-13.312-4.6457-12.167-12.861 0.7629-5.4772 4.6457-13.312 12.862-12.167s13.312 4.6457 12.167 12.861" fill="#804508" stroke-width="27.65"/>
 <path d="m241.7 703.65c-0.7628 5.4772-4.6457 13.312-12.862 12.167-8.2157-1.1443-13.312-4.6457-12.167-12.861 0.7628-5.4772 4.6457-13.312 12.862-12.167 8.2157 1.1443 12.93 7.3843 12.167 12.861" fill="#804508" stroke-width="27.65"/>
 <path d="m241.46 745.49c-0.7629 5.4772-4.6457 13.312-12.862 12.167-5.4772-0.76285-13.312-4.6457-12.167-12.861 0.7629-5.4772 4.6457-13.312 12.862-12.167s12.93 7.3843 12.167 12.861" fill="#804508" stroke-width="27.65"/>
 <path d="m223.88 751.42c-2.7386-0.38142-2.7386-0.38142-5.0957-3.5014 0.3814-2.7386 0.7628-5.4772 3.5014-5.0958l-43.886-25.654c-2.7386-0.38142-2.3572-3.12-2.3572-3.12 0.38143-2.7386 0.38143-2.7386 3.12-2.3572l23.053-5.1644c2.7385 0.38142 5.4771 0.76284 5.0957 3.5014-0.3814 2.7386-0.7628 5.4772-3.5014 5.0958l-11.717 3.9515 43.886 25.654c2.7386 0.38142 2.3572 3.12 2.3572 3.12-0.3815 2.7386-0.3815 2.7386-3.1201 2.3572l-11.336 1.2129c2.7386 0.38143 0 0 0 0" fill="#bfbfbf" stroke-width="27.65"/>
 <path d="m224.13 709.58c-2.7386-0.38142-2.7386-0.38142-5.0958-3.5014 0.3815-2.7386 0.7629-5.4772 3.5015-5.0958l-43.886-25.654c-2.7386-0.38142-2.3572-3.12-2.3572-3.12 0.38142-2.7386 0.38142-2.7386 3.12-2.3572l23.053-5.1644c2.7386 0.38142 5.4772 0.76285 5.0958 3.5014s-0.7629 5.4772-3.5015 5.0958l-11.717 3.9515 43.886 25.654c2.7386 0.38142 2.3572 3.12 2.3572 3.12-0.3814 2.7386-0.3814 2.7386-3.12 2.3572l-11.336 1.2129" fill="#bfbfbf" stroke-width="27.65"/>
 <path d="m223.99 670.48c-2.7386-0.38142-2.7386-0.38142-5.0957-3.5014 0.3814-2.7386 0.7628-5.4772 3.5014-5.0958l-43.886-25.654c-2.7386-0.38142-2.3572-3.12-2.3572-3.12 0.38142-2.7386 0.38142-2.7386 3.12-2.3572l23.053-5.1644c2.7385 0.38143 5.4771 0.76285 5.0957 3.5014-0.3814 2.7386-0.7628 5.4772-3.5014 5.0958l-11.717 3.9515 43.886 25.654c2.7386 0.38142 2.3572 3.12 2.3572 3.12-0.3815 2.7386-0.3815 2.7386-3.1201 2.3572l-11.336 1.2129" fill="#bfbfbf" stroke-width="27.65"/>
 <path d="m224.23 628.63c-2.7386-0.38142-2.7386-0.38142-5.0958-3.5014 0.3815-2.7386 0.7629-5.4772 3.5015-5.0958l-43.886-25.654c-2.7386-0.38142-2.3572-3.12-2.3572-3.12 0.38142-2.7386 0.38142-2.7386 3.12-2.3572l23.053-5.1644c2.7386 0.38143 5.4772 0.76285 5.0958 3.5014-0.3814 2.7386-0.7629 5.4772-3.5015 5.0958l-11.717 3.9515 43.886 25.654c2.7386 0.38143 2.3572 3.12 2.3572 3.12-0.3814 2.7386-0.3814 2.7386-3.12 2.3572l-11.336 1.2129" fill="#bfbfbf" stroke-width="27.65"/>
 <path d="m224.48 586.79c-2.7386-0.38142-2.7386-0.38142-5.0958-3.5014 0.3814-2.7386 0.7629-5.4772 3.5014-5.0958l-43.886-25.654c-2.7386-0.38143-2.3572-3.12-2.3572-3.12 0.38143-2.7386 0.38143-2.7386 3.12-2.3572l23.053-5.1644c2.7386 0.38143 5.4772 0.76285 5.0957 3.5014-0.3814 2.7386-0.7628 5.4772-3.5014 5.0958l-11.717 3.9515 43.886 25.654c2.7386 0.38143 2.3572 3.12 2.3572 3.12-0.3814 2.7386-0.3814 2.7386-3.12 2.3572l-11.336 1.2129" fill="#bfbfbf" stroke-width="27.65"/>
 <path d="m224.72 544.95c-2.7386-0.38142-2.7386-0.38142-5.0957-3.5014 0.3814-2.7386 0.7628-5.4772 3.5014-5.0958l-43.886-25.654c-2.7386-0.38143-2.3572-3.12-2.3572-3.12 0.38142-2.7386 0.38142-2.7386 3.12-2.3572l23.053-5.1644c2.7386 0.38142 5.4772 0.76284 5.0958 3.5014-0.3814 2.7386-0.7628 5.4772-3.5014 5.0958l-11.717 3.9515 43.886 25.654c2.7386 0.38143 2.3571 3.12 2.3571 3.12-0.3814 2.7386-0.3814 2.7386-3.12 2.3572l-11.336 1.2129" fill="#bfbfbf" stroke-width="27.65"/>
 <path d="m222.23 502.73c-2.7386-0.38142-2.7386-0.38142-5.0958-3.5014 0.3815-2.7386 0.7629-5.4772 3.5015-5.0958l-43.886-25.654c-2.7386-0.38142-2.3572-3.12-2.3572-3.12 0.38143-2.7386 0.38143-2.7386 3.12-2.3572l23.053-5.1644c2.7386 0.38143 5.4772 0.76285 5.0958 3.5014-0.3814 2.7386-0.7629 5.4772-3.5015 5.0958l-11.717 3.9515 43.886 25.654c2.7386 0.38142 2.3572 3.12 2.3572 3.12-0.3814 2.7386-0.3814 2.7386-3.12 2.3572l-11.336 1.2129c2.7386 0.38142 2.7386 0.38142 0 0" fill="#bfbfbf" stroke-width="27.65"/>
 <path d="m222.09 463.62c-2.7386-0.38142-2.7386-0.38142-5.0957-3.5014 0.3814-2.7386 0.7628-5.4772 3.5014-5.0958l-43.886-25.654c-2.7386-0.38143-2.3572-3.12-2.3572-3.12 0.38143-2.7386 0.38143-2.7386 3.12-2.3572l23.053-5.1644c2.7385 0.38142 5.4771 0.76284 5.0957 3.5014-0.3814 2.7386-0.7628 5.4772-3.5014 5.0958l-11.717 3.9515 43.886 25.654c2.7386 0.38142 2.3572 3.12 2.3572 3.12-0.3815 2.7386-0.3815 2.7386-3.1201 2.3572l-11.336 1.2129c2.7386 0.38143 2.7386 0.38143 0 0" fill="#bfbfbf" stroke-width="27.65"/>
 <path d="m221.95 424.52c-2.7386-0.38143-2.7386-0.38143-5.0958-3.5014 0.3814-2.7386 0.7629-5.4772 3.5015-5.0958l-43.886-25.654c-2.7386-0.38142-2.3572-3.12-2.3572-3.12 0.38143-2.7386 0.38143-2.7386 3.12-2.3572l23.053-5.1644c2.7386 0.38142 5.4772 0.76285 5.0958 3.5014-0.3815 2.7386-0.7629 5.4772-3.5015 5.0958l-11.717 3.9515 43.886 25.654c2.7386 0.38142 2.3572 3.12 2.3572 3.12-0.3814 2.7386-0.3814 2.7386-3.12 2.3572l-11.336 1.2129c2.7386 0.38142 0 0 0 0" fill="#bfbfbf" stroke-width="27.65"/>
 <path d="m222.2 382.68c-2.7386-0.38143-2.7386-0.38143-5.0957-3.5014 0.3814-2.7386 0.7628-5.4772 3.5014-5.0958l-43.886-25.654c-2.7386-0.38142-2.3572-3.12-2.3572-3.12 0.38142-2.7386 0.38142-2.7386 3.12-2.3572l23.053-5.1644c2.7386 0.38143 5.4771 0.76285 5.0957 3.5014-0.3814 2.7386-0.7628 5.4772-3.5014 5.0958l-11.717 3.9515 43.886 25.654c2.7386 0.38142 2.3572 3.12 2.3572 3.12-0.3815 2.7386-0.3815 2.7386-3.1201 2.3572l-11.336 1.2129" fill="#bfbfbf" stroke-width="27.65"/>
 <path d="m222.44 340.84c-2.7386-0.38142-2.7386-0.38142-5.0958-3.5014 0.3815-2.7386 0.7629-5.4772 3.5015-5.0958l-43.886-25.654c-2.7386-0.38142-2.3572-3.12-2.3572-3.12 0.38142-2.7386 0.38142-2.7386 3.12-2.3572l23.053-5.1644c2.7386 0.38143 5.4772 0.76285 5.0958 3.5014-0.3814 2.7386-0.7629 5.4772-3.5015 5.0958l-11.717 3.9515 43.886 25.654c2.7386 0.38143 2.3572 3.12 2.3572 3.12-0.3814 2.7386-0.3814 2.7386-3.12 2.3572l-11.336 1.2129" fill="#bfbfbf" stroke-width="27.65"/>
 <path d="m222.69 299c-2.7386-0.38142-2.7386-0.38142-5.0958-3.5014 0.3814-2.7386 0.7629-5.4772 3.5014-5.0958l-43.886-25.654c-2.7386-0.38142-2.3572-3.12-2.3572-3.12 0.38143-2.7386 0.38143-2.7386 3.12-2.3572l23.053-5.1644c2.7386 0.38143 5.4772 0.76285 5.0957 3.5014-0.3814 2.7386-0.7628 5.4772-3.5014 5.0958l-11.717 3.9515 43.886 25.654c2.7386 0.38143 2.3572 3.12 2.3572 3.12-0.3814 2.7386-0.3814 2.7386-3.12 2.3572l-11.336 1.2129" fill="#bfbfbf" stroke-width="27.65"/>
 <path d="m222.93 257.15c-2.7386-0.38142-2.7386-0.38142-5.0957-3.5014 0.3814-2.7386 0.7628-5.4772 3.5014-5.0958l-43.886-25.654c-2.7386-0.38143-2.3572-3.12-2.3572-3.12 0.38142-2.7386 0.38142-2.7386 3.12-2.3572l23.053-5.1644c2.7386 0.38143 5.4772 0.76285 5.0958 3.5014-0.3814 2.7386-0.7628 5.4772-3.5014 5.0958l-11.717 3.9515 43.886 25.654c2.7386 0.38143 2.3571 3.12 2.3571 3.12-0.3814 2.7386-0.3814 2.7386-3.12 2.3572l-11.336 1.2129" fill="#bfbfbf" stroke-width="27.65"/>
 <path d="m222.79 218.05c-2.7386-0.38142-2.7386-0.38142-5.0958-3.5014 0.3814-2.7386 0.7629-5.4772 3.5014-5.0958l-43.886-25.654c-2.7386-0.38142-2.3572-3.12-2.3572-3.12 0.38142-2.7386 0.38142-2.7386 3.12-2.3572l23.053-5.1644c2.7386 0.38142 5.4772 0.76285 5.0957 3.5014-0.3814 2.7386-0.7628 5.4772-3.5014 5.0958l-11.717 3.9515 43.886 25.654c2.7386 0.38142 2.3572 3.12 2.3572 3.12-0.3814 2.7386-0.3814 2.7386-3.12 2.3572l-11.336 1.2129" fill="#bfbfbf" stroke-width="27.65"/>
 <path d="m223.04 176.21c-2.7386-0.38143-2.7386-0.38143-5.0957-3.5014 0.3814-2.7386 0.7628-5.4772 3.5014-5.0958l-43.886-25.654c-2.7386-0.38142-2.3572-3.12-2.3572-3.12 0.38142-2.7386 0.38142-2.7386 3.12-2.3572l23.053-5.1644c2.7386 0.38142 5.4772 0.76285 5.0958 3.5014s-0.7628 5.4772-3.5014 5.0958l-11.717 3.9515 43.886 25.654c2.7386 0.38142 2.3571 3.12 2.3571 3.12-0.3814 2.7386-0.3814 2.7386-3.12 2.3572l-11.336 1.2129" fill="#bfbfbf" stroke-width="27.65"/>
 <path d="m223.28 134.37c-2.7386-0.38143-2.7386-0.38143-5.0958-3.5014 0.3815-2.7386 0.7629-5.4772 3.5015-5.0958l-2.7386-0.38142c-2.7386-0.38142-2.3572-3.12-1.9758-5.8586 0.3815-2.7386 3.12-2.3572 5.8586-1.9758l10.192 7.0029c2.7386 0.38143 2.3571 3.12 2.3571 3.12-0.3814 2.7386-0.3814 2.7386-3.12 2.3572l-8.9786 4.3329" fill="#bfbfbf" stroke-width="27.65"/>
</svg>
