<?xml version="1.0" encoding="UTF-8" standalone="no"?>
<svg
   xmlns:dc="http://purl.org/dc/elements/1.1/"
   xmlns:cc="http://creativecommons.org/ns#"
   xmlns:rdf="http://www.w3.org/1999/02/22-rdf-syntax-ns#"
   xmlns:svg="http://www.w3.org/2000/svg"
   xmlns="http://www.w3.org/2000/svg"
   xmlns:xlink="http://www.w3.org/1999/xlink"
   xmlns:sodipodi="http://sodipodi.sourceforge.net/DTD/sodipodi-0.dtd"
   xmlns:inkscape="http://www.inkscape.org/namespaces/inkscape"
   enable-background="new 0 0 568 284"
   version="1.1"
   viewBox="0 0 1000 1000"
   id="svg490"
   sodipodi:docname="calc.svg"
   width="1000"
   height="1000"
   inkscape:version="0.92.3 (2405546, 2018-03-11)">
  <metadata
     id="metadata496">
    <rdf:RDF>
      <cc:Work
         rdf:about="">
        <dc:format>image/svg+xml</dc:format>
        <dc:type
           rdf:resource="http://purl.org/dc/dcmitype/StillImage" />
        <dc:title></dc:title>
      </cc:Work>
    </rdf:RDF>
  </metadata>
  <defs
     id="defs494">
    <defs
       id="defs5">
      <rect
         height="190"
         width="163.2"
         y="13.4"
         x="-286.20001"
         id="SVGID_1_" />
    </defs>
    <clipPath
       id="SVGID_2_">
      <use
         id="use7"
         xlink:href="#SVGID_1_"
         height="100%"
         width="100%"
         x="0"
         y="0" />
    </clipPath>
    <defs
       id="defs17">
      <rect
         height="207.2"
         width="179.10001"
         y="-2"
         x="-287.79999"
         id="SVGID_3_" />
    </defs>
    <clipPath
       id="SVGID_4_">
      <use
         id="use19"
         xlink:href="#SVGID_3_"
         height="100%"
         width="100%"
         x="0"
         y="0" />
    </clipPath>
    <defs
       id="defs29">
      <rect
         height="96.099998"
         width="96.099998"
         y="54.400002"
         x="-237.89999"
         id="SVGID_5_" />
    </defs>
    <clipPath
       id="SVGID_6_">
      <use
         id="use31"
         xlink:href="#SVGID_5_"
         height="100%"
         width="100%"
         x="0"
         y="0" />
    </clipPath>
    <defs
       id="defs73">
      <rect
         height="24.4"
         width="29.5"
         y="119.2"
         x="-172.8"
         id="SVGID_9_" />
    </defs>
    <clipPath
       id="SVGID_10_">
      <use
         id="use75"
         xlink:href="#SVGID_9_"
         height="100%"
         width="100%"
         x="0"
         y="0" />
    </clipPath>
    <defs
       id="defs171">
      <rect
         height="8.3000002"
         width="33.799999"
         y="168"
         x="-163.60001"
         id="SVGID_11_" />
    </defs>
    <clipPath
       id="SVGID_12_">
      <use
         id="use173"
         xlink:href="#SVGID_11_"
         height="100%"
         width="100%"
         x="0"
         y="0" />
    </clipPath>
    <defs
       id="defs183">
      <polygon
         points="-174.3,152.2 -183.6,152.2 -183.6,139.3 -174.3,139.3 "
         id="SVGID_13_" />
    </defs>
    <clipPath
       id="SVGID_14_">
      <use
         id="use185"
         xlink:href="#SVGID_13_"
         height="100%"
         width="100%"
         x="0"
         y="0" />
    </clipPath>
    <defs
       id="defs195">
      <rect
         height="21.4"
         width="30.5"
         y="139.7"
         x="-157.8"
         id="SVGID_15_" />
    </defs>
    <clipPath
       id="SVGID_16_">
      <use
         id="use197"
         xlink:href="#SVGID_15_"
         height="100%"
         width="100%"
         x="0"
         y="0" />
    </clipPath>
    <defs
       id="defs207">
      <rect
         height="16.6"
         width="31"
         y="161.5"
         x="-177.7"
         id="SVGID_17_" />
    </defs>
    <clipPath
       id="SVGID_18_">
      <use
         id="use209"
         xlink:href="#SVGID_17_"
         height="100%"
         width="100%"
         x="0"
         y="0" />
    </clipPath>
  </defs>
  <sodipodi:namedview
     pagecolor="#ffffff"
     bordercolor="#666666"
     borderopacity="1"
     objecttolerance="10"
     gridtolerance="10"
     guidetolerance="10"
     inkscape:pageopacity="0"
     inkscape:pageshadow="2"
     inkscape:window-width="1600"
     inkscape:window-height="872"
     id="namedview492"
     showgrid="false"
     inkscape:zoom="0.42326814"
     inkscape:cx="577.33903"
     inkscape:cy="246.31888"
     inkscape:window-x="1920"
     inkscape:window-y="0"
     inkscape:window-maximized="1"
     inkscape:current-layer="svg490" />
  <style
     type="text/css"
     id="style2">.st0{fill:#0095EC;fill-opacity:0.9922;}
	.st1{fill:#A88CD0;}
	.st2{opacity:0.6;clip-path:url(#SVGID_2_);}
	.st3{fill:#B395DD;}
	.st4{fill:#66666B;}
	.st5{fill:#3A3A3D;}
	.st6{fill:#872237;}
	.st7{opacity:0.3;clip-path:url(#SVGID_4_);}
	.st8{fill:#434147;}
	.st9{fill:#00687E;}
	.st10{fill:#0093B1;}
	.st11{opacity:0.5;clip-path:url(#SVGID_6_);}
	.st12{fill:#F0EEE2;}
	.st13{fill:#C2BFB7;}
	.st14{fill:#E6E3D9;}
	.st15{fill:#B0AD9F;}
	.st16{fill:#556873;}
	.st17{fill:#76909F;}
	.st18{fill:#A3A7A8;}
	.st19{fill:#DCE1E3;}
	.st20{fill:#EEC19C;}
	.st21{fill:#B52126;}
	.st22{fill:#FCCDA5;}
	.st23{fill:#2B1F0C;}
	.st24{opacity:0.5;clip-path:url(#SVGID_8_);}
	.st25{fill:#F7F5E9;}
	.st26{fill:none;stroke:#A6A6A6;stroke-width:0.3559;stroke-miterlimit:10;}
	.st27{fill:#A6A6A6;}
	.st28{fill:#D4D4D4;}
	.st29{fill:#806657;}
	.st30{fill:#593017;}
	.st31{fill:#381E0E;}
	.st32{fill:#CCAE7E;}
	.st33{opacity:0.5;clip-path:url(#SVGID_10_);}
	.st34{fill:#757575;}
	.st35{fill:#0B426E;}
	.st36{fill:#4E94CF;}
	.st37{fill:#386B95;}
	.st38{fill:#A0A96A;}
	.st39{fill:#8C8B8B;}
	.st40{fill:none;stroke:#666565;stroke-width:0.2148;stroke-linecap:round;stroke-linejoin:round;stroke-miterlimit:10;}
	.st41{fill:#E5952E;}
	.st42{fill:#D4CCC0;}
	.st43{fill:#FFBD69;}
	.st44{fill:#666565;}
	.st45{opacity:0.5;clip-path:url(#SVGID_12_);}
	.st46{fill:#E3C63B;}
	.st47{fill:#1498C3;}
	.st48{fill:#EBD467;}
	.st49{fill:#18B9ED;}
	.st50{opacity:0.5;clip-path:url(#SVGID_14_);}
	.st51{fill:#C9C4B8;}
	.st52{fill:#FFFFFF;}
	.st53{opacity:0.5;clip-path:url(#SVGID_16_);}
	.st54{fill:#FBF8EC;}
	.st55{fill:#C4C3B9;}
	.st56{fill:#E0DED3;}
	.st57{fill:#B5D1E8;}
	.st58{opacity:0.5;clip-path:url(#SVGID_18_);}
	.st59{fill:#00587E;}
	.st60{fill:#007BB0;}
	.st61{opacity:0.5;clip-path:url(#SVGID_20_);}
	.st62{fill:#DBD5C8;}
	.st63{opacity:0.5;clip-path:url(#SVGID_22_);}
	.st64{fill:#EDE6D8;}
	.st65{opacity:0.5;clip-path:url(#SVGID_24_);}
	.st66{fill:#804508;}
	.st67{fill:#24AFFF;}
	.st68{fill:#00E62E;}
	.st69{fill:#FFED24;}
	.st70{fill:#FF73A5;}
	.st71{fill:#D6750D;}
	.st72{fill:#BFBFBF;}
	.st73{fill:#997B42;}
	.st74{fill:#DDB260;}
	.st75{fill:#A18146;}
	.st76{fill:#C4BFB3;}
	.st77{clip-path:url(#SVGID_26_);}
	.st78{fill:#A6A298;}
	.st79{fill:#704831;}
	.st80{fill:#945F40;}
	.st81{fill:#523523;}
	.st82{fill:#704931;}
	.st83{fill:#2AB466;}
	.st84{fill:none;}
	.st85{opacity:0.5;clip-path:url(#SVGID_28_);}
	.st86{fill:#B38B4E;}
	.st87{fill:#DEC861;}
	.st88{fill:#CCC5B8;}
	.st89{fill:none;stroke:#B38B4E;stroke-width:0.424;stroke-miterlimit:10;}
	.st90{fill:#707070;}
	.st91{fill:#B5A450;}
	.st92{fill:#F9F9F9;}
	.st93{fill:#C47A5E;}
	.st94{fill:#9E614C;}
	.st95{opacity:0.2;clip-path:url(#SVGID_30_);}
	.st96{opacity:0.2;clip-path:url(#SVGID_32_);}
	.st97{opacity:0.2;clip-path:url(#SVGID_34_);}
	.st98{opacity:0.2;clip-path:url(#SVGID_36_);}
	.st99{fill:#8A623D;}
	.st100{clip-path:url(#SVGID_38_);}
	.st101{fill-opacity:0.1961;}
	.st102{fill:#FFD3A3;}
	.st103{clip-path:url(#SVGID_40_);}
	.st104{clip-path:url(#SVGID_42_);}
	.st105{fill:#F5C795;}
	.st106{clip-path:url(#SVGID_44_);}
	.st107{fill:#A18374;}
	.st108{fill:#A67649;}
	.st109{fill:#8AA6AB;}
	.st110{fill:#222625;}
	.st111{fill:#0E1210;}
	.st112{fill:#3C403F;}
	.st113{fill:#1D2421;}
	.st114{fill:#9E4E34;}
	.st115{fill:#CC6543;}
	.st116{fill:#FFFFFF;fill-opacity:0.1961;}
	.st117{fill:#241E1B;}
	.st118{fill:#DB854B;}
	.st119{fill:#9C5C2F;}
	.st120{fill:#7D3B24;}
	.st121{fill:#1A79A3;}
	.st122{fill:#AD5F42;}
	.st123{fill:#8F513B;}
	.st124{opacity:0.2;clip-path:url(#SVGID_46_);}
	.st125{opacity:0.2;clip-path:url(#SVGID_48_);}
	.st126{opacity:0.2;clip-path:url(#SVGID_50_);}
	.st127{opacity:0.2;clip-path:url(#SVGID_52_);}
	.st128{fill:#FED2A3;}
	.st129{clip-path:url(#SVGID_54_);}
	.st130{fill:#EDEDED;}
	.st131{fill:#F5CA9D;}
	.st132{opacity:0.4;clip-path:url(#SVGID_56_);}
	.st133{opacity:0.4;clip-path:url(#SVGID_58_);}
	.st134{fill:#8FACB5;}
	.st135{fill:#A87F68;}
	.st136{clip-path:url(#SVGID_60_);}
	.st137{fill:#B6CACF;}
	.st138{clip-path:url(#SVGID_62_);}
	.st139{fill:#FAFAFA;}
	.st140{fill:#91827A;}
	.st141{fill:#B15634;}
	.st142{fill:#943817;}
	.st143{fill:#D4AA00;}
	.st144{fill:#AA8800;}
	.st145{fill:#333333;}
	.st146{fill:#8E7300;}</style>
  <g
     style="opacity:0.6"
     id="g14"
     clip-path="url(#SVGID_2_)"
     transform="matrix(-2.00375,0,0,-2.00375,284.00375,999.995)"
     class="st2">
    <g
       id="g12"
       transform="translate(68.506,46.889)">
      <path
         style="fill:#b395dd"
         inkscape:connector-curvature="0"
         id="path10"
         d="M 0,0 -8.2,94.8 H 26.7 C 32.3,70.9 50.4,52.2 73.2,45.3 v -39 z"
         class="st3" />
    </g>
  </g>
  <g
     style="opacity:0.3"
     id="g26"
     clip-path="url(#SVGID_4_)"
     transform="matrix(-2.00375,0,0,-2.00375,284.00375,999.995)"
     class="st7">
    <g
       id="g24"
       transform="translate(61.316,38.334)">
      <path
         style="fill:#434147"
         inkscape:connector-curvature="0"
         id="path22"
         d="M 0,0 -9,103.4 H 26.8 C 32.7,75.6 53.8,54 80.4,46.8 V 7 Z"
         class="st8" />
    </g>
  </g>
  <g
     style="opacity:0.5"
     id="g38"
     clip-path="url(#SVGID_6_)"
     transform="matrix(-2.00375,0,0,-2.00375,284.00375,999.995)"
     class="st11">
    <g
       id="g36"
       transform="translate(93.854,67.469)">
      <path
         style="fill:#434147"
         inkscape:connector-curvature="0"
         id="path34"
         d="m 0,0 c -1.2,-1.2 -3.1,-1.2 -4.3,0 l -20.9,20.9 c -1.2,1.2 -1.2,3.1 0,4.3 l 21,21 c 1.2,1.2 3.1,1.2 4.3,0 L 21,25.3 c 1.2,-1.2 1.2,-3.1 0,-4.3 z"
         class="st8" />
    </g>
  </g>
  <g
     style="opacity:0.5"
     id="g82"
     clip-path="url(#SVGID_10_)"
     transform="matrix(-2.00375,0,0,-2.00375,284.00375,999.995)"
     class="st33">
    <g
       id="g80"
       transform="translate(64.601,109.66)">
      <path
         style="fill:#757575"
         inkscape:connector-curvature="0"
         id="path78"
         d="M 0,0 2.4,-6.5 C 2.5,-7 3.1,-7.3 3.5,-7.1 l 0.4,0.2 10.1,3.6 c 0.5,0.2 0.7,0.7 0.5,1.2 L 12.1,4.4 C 11.9,4.9 11.4,5.1 10.9,5 L 1,1.3 0.5,1.2 C 0.1,1 -0.2,0.5 0,0"
         class="st34" />
    </g>
  </g>
  <path
     class="st35"
     d="m 286.16611,101.43133 424.06263,4.55516 c 32.44091,0.72262 56.81234,24.38554 56.08972,56.82645 l 1.60825,27.60204 -4.77461,653.47984 c -0.72262,32.44091 -24.38554,56.81234 -56.82645,56.08973 l -424.06264,-4.55516 c -32.4409,-0.72262 -56.81234,-24.38555 -56.08972,-56.82645 l 4.77462,-653.47984 -1.60825,-27.60205 c 0.72261,-32.4409 27.9704,-58.066333 56.82645,-56.08972"
     id="path84"
     inkscape:connector-curvature="0"
     style="fill:#0b426e;stroke-width:37.97862625" />
  <path
     class="st36"
     d="m 248.51798,154.83593 1.60825,27.60205 c 1.97661,-28.85605 25.63954,-53.22748 53.24158,-54.83573 l 415.63891,3.47829 c 28.85604,1.97661 53.22748,25.63954 54.83573,53.24158 l -1.60825,-27.60204 c 1.97661,-28.85604 -23.64882,-56.10383 -54.83573,-53.24158 l -415.63891,-3.47829 c -27.60204,1.60825 -52.51897,22.39482 -53.24158,54.83572"
     id="path86"
     inkscape:connector-curvature="0"
     style="fill:#4e94cf;stroke-width:37.97862625" />
  <path
     class="st37"
     d="m 248.87223,178.85311 -4.95174,641.47125 c -1.97662,28.85605 23.64881,56.10384 54.83572,53.24159 l 415.63891,3.47829 c 28.85604,1.97661 56.10383,-23.64882 53.24159,-54.83573 l 4.95174,-641.47125 c 1.97661,-28.85604 -23.64882,-56.10383 -54.83573,-53.24159 l -415.63891,-3.47828 c -27.60204,1.60825 -54.84983,27.23368 -53.24158,54.83572"
     id="path88"
     inkscape:connector-curvature="0"
     style="fill:#386b95;stroke-width:37.97862625" />
  <path
     class="st38"
     d="m 286.12377,342.85713 443.24096,1.87003 3.43596,-174.21311 -439.65609,-3.12404 z"
     id="path90"
     inkscape:connector-curvature="0"
     style="fill:#a0a96a;stroke-width:37.97862625" />
  <path
     style="fill:#8c8b8b;stroke-width:37.97862625"
     inkscape:connector-curvature="0"
     id="path92"
     d="m 645.46762,438.45091 c 0.17712,12.00859 12.36284,23.84005 24.37143,23.66292 l 32.44091,0.72262 c 12.00859,-0.17713 23.84005,-12.36284 23.66292,-24.37143 l 0.72262,-32.44091 c -0.17713,-12.00859 -12.36284,-23.84005 -24.37143,-23.66293 l -32.44091,-0.72261 c -12.00859,0.17712 -23.84005,12.36284 -23.66292,24.37143 z"
     class="st39" />
  <path
     style="fill:#8c8b8b;stroke-width:37.97862625"
     inkscape:connector-curvature="0"
     id="path94"
     d="m 524.12772,436.63731 c 0.17713,12.00859 12.36285,23.84005 24.37144,23.66292 l 32.4409,0.72262 c 12.00859,-0.17713 23.84005,-12.36284 23.66293,-24.37143 l 0.72261,-32.44091 c -0.17712,-12.00859 -12.36284,-23.84005 -24.37143,-23.66292 l -32.4409,-0.72262 c -12.00859,0.17713 -23.84006,12.36284 -23.66293,24.37143 z"
     class="st39" />
  <path
     style="fill:#8c8b8b;stroke-width:37.97862625"
     inkscape:connector-curvature="0"
     id="path96"
     d="m 407.62669,437.15458 c 0.17712,12.00859 12.36284,23.84005 24.37143,23.66292 l 32.44091,0.72262 c 12.00859,-0.17713 23.84005,-12.36284 23.66292,-24.37143 l 0.72262,-32.44091 c -0.17713,-12.00859 -12.36284,-23.84005 -24.37143,-23.66292 l -32.44091,-0.72262 c -12.00859,0.17713 -23.84005,12.36284 -23.66293,24.37143 z"
     class="st39" />
  <path
     style="fill:none;stroke:#666565;stroke-width:8.15780926;stroke-linecap:round;stroke-linejoin:round;stroke-miterlimit:10"
     inkscape:connector-curvature="0"
     id="path100"
     d="m 634.74125,281.26237 c 0.17712,12.00859 6.26998,17.92432 13.43971,15.41632 l 20.43231,0.89975 c 8.42373,1.07687 15.59346,-1.43113 14.16234,-17.02458 L 682.0671,232.5195 c -0.17713,-12.00859 -6.26999,-17.92432 -13.43972,-15.41633 l -20.43231,-0.89974 c -8.42373,-1.07687 -15.59345,1.43112 -14.16233,17.02458 z"
     class="st40" />
  <path
     style="fill:none;stroke:#666565;stroke-width:8.15780926;stroke-linecap:round;stroke-linejoin:round;stroke-miterlimit:10"
     inkscape:connector-curvature="0"
     id="path102"
     d="m 545.84225,280.17139 c 0.17713,12.00859 6.26999,17.92432 13.43972,15.41632 l 20.43231,0.89975 c 8.42373,1.07687 15.59346,-1.43113 14.16233,-17.02458 l -0.7085,-48.03436 c -0.17713,-12.00859 -6.26999,-17.92432 -13.43972,-15.41633 l -20.43231,-0.89974 c -8.42373,-1.07687 -15.59346,1.43112 -14.16233,17.02458 z"
     class="st40" />
  <path
     style="fill:none;stroke:#666565;stroke-width:8.15780926;stroke-linecap:round;stroke-linejoin:round;stroke-miterlimit:10"
     inkscape:connector-curvature="0"
     id="path104"
     d="m 480.96044,278.72615 c 0.17713,12.00859 6.26999,17.92432 13.43972,15.41633 l 20.43231,0.89974 c 8.42373,1.07687 15.59346,-1.43112 14.16233,-17.02457 l -0.7085,-48.03436 c -0.17713,-12.00859 -6.26999,-17.92433 -13.43972,-15.41633 l -20.43231,-0.89975 c -8.42373,-1.07687 -15.59346,1.43113 -14.16233,17.02458 z"
     class="st40" />
  <path
     style="fill:#8c8b8b;stroke-width:37.97862625"
     inkscape:connector-curvature="0"
     id="path108"
     d="m 286.28679,435.34098 c 0.17713,12.00859 12.36284,23.84005 24.37143,23.66293 l 32.44091,0.72261 c 12.00859,-0.17712 23.84005,-12.36284 23.66293,-24.37143 l 0.72261,-32.4409 c -0.17712,-12.00859 -12.36284,-23.84006 -24.37143,-23.66293 l -32.44091,-0.72262 c -12.00859,0.17713 -23.84005,12.36285 -23.66292,24.37144 z"
     class="st39" />
  <path
     style="fill:#8c8b8b;stroke-width:37.97862625"
     inkscape:connector-curvature="0"
     id="path110"
     d="m 645.98489,554.95194 c 0.17712,12.00859 12.36284,23.84005 24.37143,23.66293 l 32.44091,0.72261 c 12.00859,-0.17712 23.84005,-12.36284 23.66292,-24.37143 l 0.72262,-32.44091 c -0.17713,-12.00859 -12.36284,-23.84005 -24.37143,-23.66292 l -32.44091,-0.72262 c -12.00859,0.17713 -23.84005,12.36284 -23.66292,24.37143 z"
     class="st39" />
  <path
     style="fill:#8c8b8b;stroke-width:37.97862625"
     inkscape:connector-curvature="0"
     id="path112"
     d="m 525.89899,556.72321 c 0.17713,12.00859 12.36284,23.84005 24.37143,23.66292 l 32.44091,0.72262 c 12.00859,-0.17713 23.84005,-12.36284 23.66292,-24.37143 l 0.72262,-32.44091 c -0.17713,-12.00859 -12.36284,-23.84005 -24.37143,-23.66292 l -32.44091,-0.72262 c -12.00859,0.17712 -23.84005,12.36284 -23.66292,24.37143 z"
     class="st39" />
  <path
     style="fill:#8c8b8b;stroke-width:37.97862625"
     inkscape:connector-curvature="0"
     id="path114"
     d="m 404.55909,554.90961 c 0.17713,12.00859 12.36285,23.84005 24.37144,23.66293 l 32.4409,0.72261 c 12.00859,-0.17712 23.84005,-12.36284 23.66293,-24.37143 l 0.72262,-32.44091 c -0.17713,-12.00859 -12.36285,-23.84005 -24.37144,-23.66292 l -32.4409,-0.72262 c -12.00859,0.17713 -23.84006,12.36284 -23.66293,24.37143 z"
     class="st39" />
  <path
     style="fill:#8c8b8b;stroke-width:37.97862625"
     inkscape:connector-curvature="0"
     id="path116"
     d="m 283.2192,553.09601 c 0.17712,12.00859 12.36284,23.84006 24.37143,23.66293 l 32.44091,0.72262 c 12.00859,-0.17713 23.84005,-12.36285 23.66292,-24.37144 l 0.72262,-32.4409 c -0.17713,-12.00859 -12.36284,-23.84006 -24.37143,-23.66293 l -32.44091,-0.72262 c -12.00859,0.17713 -23.84005,12.36285 -23.66293,24.37144 z"
     class="st39" />
  <path
     style="fill:#8c8b8b;stroke-width:37.97862625"
     inkscape:connector-curvature="0"
     id="path118"
     d="m 644.17129,676.29184 c 0.17713,12.00859 12.36284,23.84005 24.37143,23.66292 l 32.44091,0.72262 c 12.00859,-0.17713 23.84005,-12.36284 23.66293,-24.37143 l 0.72261,-32.44091 c -0.17712,-12.00859 -12.36284,-23.84005 -24.37143,-23.66293 l -32.44091,-0.72261 c -12.00859,0.17712 -23.84005,12.36284 -23.66292,24.37143 z"
     class="st39" />
  <path
     style="fill:#8c8b8b;stroke-width:37.97862625"
     inkscape:connector-curvature="0"
     id="path120"
     d="m 522.83139,674.47824 c 0.17713,12.00859 12.36285,23.84005 24.37144,23.66292 l 32.4409,0.72262 c 12.00859,-0.17712 23.84006,-12.36284 23.66293,-24.37143 l 0.72262,-32.44091 c -0.17713,-12.00859 -8.77798,-25.09405 -24.37144,-23.66292 l -32.4409,-0.72262 c -12.00859,0.17713 -23.84005,12.36284 -23.66293,24.37143 z"
     class="st39" />
  <path
     class="st41"
     d="m 405.07636,671.41064 c 0.17713,12.00859 12.36285,23.84006 24.37144,23.66293 l 32.4409,0.72262 c 12.00859,-0.17713 23.84005,-12.36285 23.66293,-24.37144 l 0.72262,-32.4409 C 486.09712,626.97526 473.9114,615.1438 461.90281,615.32092 l -32.4409,-0.72261 c -12.00859,0.17712 -23.84006,12.36284 -23.66293,24.37143 z"
     id="path124"
     inkscape:connector-curvature="0"
     style="fill:#e5952e;stroke-width:37.97862625" />
  <path
     class="st41"
     d="m 284.99046,673.18191 c 0.17713,12.00859 12.36285,23.84005 24.37144,23.66293 l 32.4409,0.72261 c 12.00859,-0.17712 23.84006,-12.36284 23.66293,-24.37143 l 0.72262,-32.4409 c -0.17713,-12.00859 -12.36285,-23.84006 -24.37144,-23.66293 l -32.4409,-0.72262 c -12.00859,0.17713 -23.84006,12.36285 -23.66293,24.37144 z"
     id="path126"
     inkscape:connector-curvature="0"
     style="fill:#e5952e;stroke-width:37.97862625" />
  <path
     class="st39"
     d="m 641.1037,794.04687 c 0.17712,12.00859 12.36284,23.84005 24.37143,23.66292 l 32.44091,0.72262 c 12.00859,-0.17713 23.84005,-12.36284 23.66292,-24.37143 l 0.72262,-32.44091 c -0.17713,-12.00859 -12.36284,-23.84005 -24.37143,-23.66292 l -32.44091,-0.72262 c -12.00859,0.17713 -23.84005,12.36284 -23.66293,24.37143 z"
     id="path128"
     inkscape:connector-curvature="0"
     style="fill:#8c8b8b;stroke-width:37.97862625" />
  <path
     class="st39"
     d="m 523.34866,790.97927 c 0.17713,12.00859 12.36285,23.84006 24.37144,23.66293 l 32.4409,0.72262 c 12.00859,-0.17713 23.84006,-12.36285 23.66293,-24.37144 l 0.72262,-32.4409 c -0.17713,-12.00859 -12.36285,-23.84006 -24.37144,-23.66293 l -32.4409,-0.72262 c -12.00859,0.17713 -25.09405,8.77798 -23.66293,24.37144 z"
     id="path130"
     inkscape:connector-curvature="0"
     style="fill:#8c8b8b;stroke-width:37.97862625" />
  <path
     class="st41"
     d="m 281.92287,790.93694 c 0.17713,12.00859 12.36284,23.84006 24.37143,23.66293 l 153.7808,2.53621 c 12.00859,-0.17712 23.84006,-12.36284 23.66293,-24.37143 l 0.72262,-32.44091 c -0.17713,-12.00858 -12.36285,-23.84005 -24.37144,-23.66292 l -153.7808,-2.53622 c -12.00859,0.17713 -23.84005,12.36285 -23.66292,24.37144 z"
     id="path132"
     inkscape:connector-curvature="0"
     style="fill:#e5952e;stroke-width:37.97862625" />
  <path
     style="fill:#d4ccc0;stroke-width:37.97862625"
     inkscape:connector-curvature="0"
     id="path134"
     d="m 653.71422,427.51919 c 0.17712,12.00859 12.36284,23.84005 24.37143,23.66292 l 32.44091,0.72262 c 12.00859,-0.17713 23.84005,-12.36284 23.66292,-24.37143 l 0.72262,-32.44091 c -0.17713,-12.00859 -12.36284,-23.84005 -24.37143,-23.66293 l -32.44091,-0.72261 c -12.00859,0.17712 -23.84005,12.36284 -23.66293,24.37143 z"
     class="st42" />
  <path
     style="fill:#d4ccc0;stroke-width:37.97862625"
     inkscape:connector-curvature="0"
     id="path136"
     d="m 537.21318,428.03646 c 0.17713,12.00859 12.36285,23.84005 24.37144,23.66292 l 32.4409,0.72262 c 12.00859,-0.17713 23.84005,-12.36284 23.66293,-24.37143 l 0.72261,-32.44091 c -0.17712,-12.00859 -12.36284,-23.84005 -24.37143,-23.66293 l -32.4409,-0.72261 c -12.00859,0.17712 -23.84006,12.36284 -23.66293,24.37143 z"
     class="st42" />
  <path
     style="fill:#d4ccc0;stroke-width:37.97862625"
     inkscape:connector-curvature="0"
     id="path138"
     d="m 415.87329,426.22286 c 0.17712,12.00859 12.36284,23.84005 24.37143,23.66292 l 32.44091,0.72262 c 12.00859,-0.17713 23.84005,-12.36284 23.66292,-24.37143 l 0.72262,-32.44091 c -0.17713,-12.00859 -12.36284,-23.84005 -24.37143,-23.66292 l -32.44091,-0.72262 c -12.00859,0.17713 -23.84005,12.36284 -23.66293,24.37143 z"
     class="st42" />
  <path
     style="fill:#d4ccc0;stroke-width:37.97862625"
     inkscape:connector-curvature="0"
     id="path140"
     d="m 294.53339,424.40926 c 0.17713,12.00859 12.36284,23.84005 24.37143,23.66293 l 32.44091,0.72261 c 12.00859,-0.17712 23.84005,-12.36284 23.66293,-24.37143 l 0.72261,-32.4409 c -0.17712,-12.00859 -12.36284,-23.84006 -24.37143,-23.66293 l -32.44091,-0.72262 c -12.00859,0.17713 -23.84005,12.36285 -23.66292,24.37144 z"
     class="st42" />
  <path
     style="fill:#d4ccc0;stroke-width:37.97862625"
     inkscape:connector-curvature="0"
     id="path142"
     d="m 655.48548,547.60508 c 0.17713,12.00859 12.36285,23.84006 24.37144,23.66293 l 32.4409,0.72262 c 12.00859,-0.17713 23.84006,-12.36285 23.66293,-24.37144 l 0.72262,-32.4409 c -0.17713,-12.00859 -12.36285,-23.84005 -24.37144,-23.66293 l -32.4409,-0.72261 c -12.00859,0.17712 -23.84006,12.36284 -23.66293,24.37143 z"
     class="st42" />
  <path
     style="fill:#d4ccc0;stroke-width:37.97862625"
     inkscape:connector-curvature="0"
     id="path144"
     d="m 534.14559,545.79149 c 0.17712,12.00859 12.36284,23.84005 24.37143,23.66292 l 32.44091,0.72262 c 12.00859,-0.17713 23.84005,-12.36284 23.66292,-24.37143 l 0.72262,-32.44091 c -0.17713,-12.00859 -12.36284,-23.84005 -24.37143,-23.66292 l -32.44091,-0.72262 c -12.00859,0.17713 -23.84005,12.36284 -23.66292,24.37143 z"
     class="st42" />
  <path
     style="fill:#d4ccc0;stroke-width:37.97862625"
     inkscape:connector-curvature="0"
     id="path146"
     d="m 412.80569,543.97789 c 0.17713,12.00859 12.36285,23.84005 24.37144,23.66293 l 32.4409,0.72261 c 12.00859,-0.17712 23.84005,-12.36284 23.66293,-24.37143 l 0.72261,-32.44091 c -0.17712,-12.00859 -12.36284,-23.84005 -24.37143,-23.66292 l -32.4409,-0.72262 c -12.00859,0.17713 -23.84006,12.36284 -23.66293,24.37143 z"
     class="st42" />
  <path
     style="fill:#d4ccc0;stroke-width:37.97862625"
     inkscape:connector-curvature="0"
     id="path148"
     d="m 296.30466,544.49516 c 0.17712,12.00859 12.36284,23.84005 24.37143,23.66293 l 32.44091,0.72261 c 12.00859,-0.17712 23.84005,-12.36284 23.66292,-24.37143 l 0.72262,-32.44091 c -0.17713,-12.00859 -8.77798,-25.09405 -24.37143,-23.66292 l -32.44091,-0.72262 c -12.00859,0.17713 -23.84005,12.36284 -23.66293,24.37143 z"
     class="st42" />
  <path
     style="fill:#d4ccc0;stroke-width:37.97862625"
     inkscape:connector-curvature="0"
     id="path150"
     d="m 652.41789,665.36012 c 0.17713,12.00859 12.36284,23.84005 24.37143,23.66292 l 32.44091,0.72262 c 12.00859,-0.17713 23.84005,-12.36284 23.66292,-24.37143 l 0.72262,-32.44091 c -0.17712,-12.00859 -12.36284,-23.84005 -24.37143,-23.66293 l -32.44091,-0.72261 c -12.00859,0.17712 -23.84005,12.36284 -23.66292,24.37143 z"
     class="st42" />
  <path
     style="fill:#d4ccc0;stroke-width:37.97862625"
     inkscape:connector-curvature="0"
     id="path152"
     d="m 532.33199,667.13138 c 0.17713,12.00859 12.36284,23.84006 24.37143,23.66293 l 32.44091,0.72262 c 12.00859,-0.17713 23.84005,-12.36285 23.66293,-24.37144 l 0.72261,-32.4409 C 613.35275,622.696 601.16703,610.86453 589.15844,611.04166 l -32.44091,-0.72262 c -12.00859,0.17713 -23.84005,12.36285 -23.66292,24.37144 z"
     class="st42" />
  <path
     class="st43"
     d="m 414.57696,664.06379 c 0.17713,12.00859 12.36284,23.84005 24.37143,23.66293 l 32.44091,0.72261 c 12.00859,-0.17712 23.84005,-12.36284 23.66292,-24.37143 l 0.72262,-32.44091 C 495.59771,619.6284 483.412,607.79694 471.40341,607.97407 l -32.44091,-0.72262 c -12.00859,0.17713 -23.84005,12.36284 -23.66292,24.37143 z"
     id="path156"
     inkscape:connector-curvature="0"
     style="fill:#ffbd69;stroke-width:37.97862625" />
  <path
     class="st43"
     d="m 293.23706,662.25019 c 0.17713,12.00859 12.36285,23.84005 24.37144,23.66293 l 32.4409,0.72261 c 12.00859,-0.17712 23.84005,-12.36284 23.66293,-24.37143 l 0.72262,-32.4409 c -0.17713,-12.00859 -12.36285,-23.84006 -24.37144,-23.66293 l -32.4409,-0.72262 c -12.00859,0.17713 -25.09405,8.77798 -23.66293,24.37144 z"
     id="path158"
     inkscape:connector-curvature="0"
     style="fill:#ffbd69;stroke-width:37.97862625" />
  <path
     class="st42"
     d="m 654.18916,785.44602 c 0.17712,12.00859 12.36284,23.84005 24.37143,23.66292 l 32.44091,0.72262 c 12.00859,-0.17713 23.84005,-12.36284 23.66292,-24.37143 l 0.72262,-32.44091 c -0.17713,-12.00859 -12.36284,-23.84005 -24.37143,-23.66293 l -32.44091,-0.72261 c -12.00859,0.17712 -23.84005,12.36284 -23.66293,24.37143 z"
     id="path160"
     inkscape:connector-curvature="0"
     style="fill:#d4ccc0;stroke-width:37.97862625" />
  <path
     class="st42"
     d="m 532.84926,783.63242 c 0.17713,12.00859 12.36284,23.84005 24.37143,23.66292 l 32.44091,0.72262 c 12.00859,-0.17713 23.84005,-12.36284 23.66293,-24.37143 l 0.72261,-32.44091 C 613.87002,739.19703 601.6843,727.36557 589.67571,727.5427 l -32.44091,-0.72262 c -12.00859,0.17713 -23.84005,12.36284 -23.66292,24.37143 z"
     id="path162"
     inkscape:connector-curvature="0"
     style="fill:#d4ccc0;stroke-width:37.97862625" />
  <path
     class="st43"
     d="m 291.42347,783.59009 c 0.17712,12.00859 12.36284,23.84005 24.37143,23.66292 l 153.7808,2.53622 c 12.00859,-0.17713 23.84005,-12.36285 23.66293,-24.37144 l 0.72261,-32.4409 C 493.78412,740.9683 481.5984,729.13684 469.58981,729.31396 l -153.7808,-2.53621 c -12.00859,0.17713 -23.84005,12.36284 -23.66293,24.37143 z"
     id="path164"
     inkscape:connector-curvature="0"
     style="fill:#ffbd69;stroke-width:37.97862625" />
  <path
     class="st44"
     d="m 612.15519,297.21007 8.42373,1.07687 1.07687,-8.42372 -8.42373,-1.07687 z"
     id="path166"
     inkscape:connector-curvature="0"
     style="fill:#666565;stroke-width:37.97862625" />
  <g
     style="opacity:0.5"
     id="g180"
     clip-path="url(#SVGID_12_)"
     transform="matrix(-2.00375,0,0,-2.00375,284.00375,999.995)"
     class="st45">
    <g
       id="g178"
       transform="translate(58.008,131.98)">
      <path
         style="fill:#434147"
         inkscape:connector-curvature="0"
         id="path176"
         d="M 0,0 15.3,3.2 15.2,3.5 V 3.7 L 15.1,4.2 -0.2,1 -1.1,0.5 -1.6,0.2 Z"
         class="st8" />
    </g>
  </g>
  <g
     style="opacity:0.5"
     id="g192"
     clip-path="url(#SVGID_14_)"
     transform="matrix(-2.00375,0,0,-2.00375,284.00375,999.995)"
     class="st50">
    <g
       id="g190"
       transform="translate(83.451,120.38)">
      <path
         style="fill:#434147"
         inkscape:connector-curvature="0"
         id="path188"
         d="M 0,0 C 0.5,0.9 1.3,1.5 2.3,1.2 L 3.2,0.9 C 4.2,0.6 4.5,-0.4 4.4,-1.4 4.2,-2.5 3.6,-4.6 3,-5.6 2.6,-6.4 1.7,-7.1 0.7,-6.7 l -0.9,0.3 c -1,0.3 -1.3,1.3 -1.2,2.3 0.2,1 0.9,3.1 1.4,4.1"
         class="st8" />
    </g>
  </g>
  <g
     style="opacity:0.5"
     id="g204"
     clip-path="url(#SVGID_16_)"
     transform="matrix(-2.00375,0,0,-2.00375,284.00375,999.995)"
     class="st53">
    <g
       id="g202"
       transform="translate(55.31,125.01)">
      <path
         style="fill:#434147"
         inkscape:connector-curvature="0"
         id="path200"
         d="m 0,0 c -0.1,0 -0.1,0 0,0 -0.1,0 -0.1,-0.1 -0.1,-0.1 v -0.1 -0.1 -0.5 h -0.4 c 0,0 -0.1,0 -0.1,-0.1 0,0 0,-0.1 0.1,-0.1 h 0.4 v -0.1 h -0.4 c 0,0 -0.1,0 -0.1,-0.1 0,0 0,-0.1 0.1,-0.1 h 0.4 v -0.8 h -0.4 c 0,0 -0.1,0 -0.1,-0.1 0,0 0,-0.1 0.1,-0.1 h 0.4 v -0.1 h -0.4 c 0,0 -0.1,0 -0.1,-0.1 0,0 0,-0.1 0.1,-0.1 h 0.4 L 0,-3 h -0.4 c 0,0 -0.1,0 -0.1,-0.1 0,0 0,-0.1 0.1,-0.1 H 0 v -0.1 h -0.4 c 0,0 -0.1,0 -0.1,-0.1 0,0 0,-0.1 0.1,-0.1 H 0 v -0.8 h -0.4 c 0,0 -0.1,0 -0.1,-0.1 0,0 0,-0.1 0.1,-0.1 H 0 v -0.1 h -0.4 c 0,0 -0.1,0 -0.1,-0.1 0,-0.1 0,-0.1 0.1,-0.1 H 0 v -0.8 h -0.4 c 0,0 -0.1,0 -0.1,-0.1 0,0 0,-0.1 0.1,-0.1 H 0 v -0.1 h -0.4 c 0,0 -0.1,0 -0.1,-0.1 0,0 0,-0.1 0.1,-0.1 H 0 v -0.8 h -0.4 c 0,0 -0.1,0 -0.1,-0.1 0,0 0,-0.1 0.1,-0.1 H 0 v -0.1 h -0.4 c 0,0 -0.1,0 -0.1,-0.1 0,0 0,-0.1 0.1,-0.1 H 0 v -0.8 h -0.4 c 0,0 -0.1,0 -0.1,-0.1 0,0 0,-0.1 0.1,-0.1 H 0 v -0.1 h -0.4 c 0,0 -0.1,0 -0.1,-0.1 0,0 0,-0.1 0.1,-0.1 H 0 v -0.8 h -0.4 c 0,0 -0.1,0 -0.1,-0.1 0,0 0,-0.1 0.1,-0.1 H 0 v -0.1 h -0.4 c 0,0 -0.1,0 -0.1,-0.1 0,0 0,-0.1 0.1,-0.1 H 0 v -0.5 -0.1 -0.1 l 13,0.7 h 0.8 c 0.1,0 0.2,0.1 0.2,0.2 l -0.5,9.5 c 0,0.1 -0.1,0.2 -0.2,0.2 H 12.5 L 0,0"
         class="st8" />
    </g>
  </g>
  <g
     style="opacity:0.5"
     id="g216"
     clip-path="url(#SVGID_18_)"
     transform="matrix(-2.00375,0,0,-2.00375,284.00375,999.995)"
     class="st58">
    <g
       id="g214"
       transform="translate(67.967,129.59)">
      <path
         style="fill:#434147"
         inkscape:connector-curvature="0"
         id="path212"
         d="M 0,0 -1.2,-1.2 0.4,-0.9 14.3,6.2 14.2,6.4 14,6.9 13.9,7.1 Z"
         class="st8" />
    </g>
  </g>
</svg>
