<svg data-name="Layer 1" version="1.1" viewBox="0 0 1000 1000" xmlns="http://www.w3.org/2000/svg">
 <title>records-request-california-law-personnel-file</title>
 <g transform="matrix(4.2432 1.1323 -1.1323 4.2432 -160.68 -1240.5)">
  <g data-name="Ôèãóðà 3">
   <path d="m302.9 252.7-12.9-12.4a1.5524 1.5524 0 1 0-3 0.8l12.9 12.4a1.5524 1.5524 0 1 0 3-0.8zm-21.6-10.1a1.5524 1.5524 0 1 0-3 0.8l12.9 12.4a1.5524 1.5524 0 1 0 3-0.8zm-9 2.4a1.5524 1.5524 0 1 0-3 0.8l12.9 12.4a1.5524 1.5524 0 1 0 3-0.8zm-8.7 2.3a1.5524 1.5524 0 1 0-3 0.8l12.9 12.4a1.5524 1.5524 0 1 0 3-0.8zm-9 2.4a1.5524 1.5524 0 1 0-3 0.8l12.9 12.4a1.5524 1.5524 0 1 0 3-0.8zm-8.7 2.3a1.5524 1.5524 0 1 0-3 0.8l12.9 12.4a1.5524 1.5524 0 1 0 3-0.8zm-9 2.4a1.5524 1.5524 0 0 0-3 0.8l12.9 12.4a1.5524 1.5524 0 0 0 3-0.8zm-8.7 2.3a1.5524 1.5524 0 0 0-3 0.8l12.8 12.3a1.5524 1.5524 0 1 0 3-0.8zm-9 2.4a1.5524 1.5524 0 0 0-3 0.8l12.8 12.2a1.5524 1.5524 0 0 0 3-0.8zm-8.7 2.3a1.5524 1.5524 0 0 0-3 0.8l12.9 12.4a1.5524 1.5524 0 0 0 3-0.8zm-9 2.4a1.5524 1.5524 0 1 0-3 0.8l12.9 12.4a1.5524 1.5524 0 1 0 3-0.8zm-8.7 2.3a1.5524 1.5524 0 0 0-3 0.8l12.9 12.4a1.5524 1.5524 0 1 0 3-0.8zm-9 2.4a1.5524 1.5524 0 1 0-3 0.8l12.9 12.4a1.5524 1.5524 0 1 0 3-0.8zm-8.7 2.3a1.5524 1.5524 0 1 0-3 0.8l12.9 12.4a1.5524 1.5524 0 1 0 3-0.8z" fill="#a8a9a9" fill-rule="evenodd"/>
  </g>
  <g data-name="Ôèãóðà 2">
   <path d="m345.8 391.6-39-148a2.9 2.9 0 0 0-3.6-2.1l-136.2 35.9a2.9 2.9 0 0 0-2 3.6l39 148a2.9 2.9 0 0 0 3.6 2.1l136.2-35.9a2.9 2.9 0 0 0 2-3.6z" fill="#f6f5f5"/>
  </g>
  <g id="Ôèãóðà_2_êîïèÿ_" data-name="Ôèãóðà 2 (êîïèÿ)">
   <path d="m306.8 243.6a2.9 2.9 0 0 0-3.6-2.1l-136.2 35.9a2.9 2.9 0 0 0-2 3.6l5.5 20.8 141.8-37.4z" fill="#e85465" fill-rule="evenodd"/>
  </g>
  <g opacity=".05098" data-name="Ôèãóðà 2 (êîïèÿ) 2">
   <path d="m345.8 391.6-39-148a2.9 2.9 0 0 0-3.6-2.1l-136.2 35.9a2.9 2.9 0 0 0-2 3.6l39 148a2.9 2.9 0 0 0 3.6 2.1l136.2-35.9a2.9 2.9 0 0 0 2-3.6zm-138.9 36.5-39-147.8 135.9-35.8 39 147.8z" fill-rule="evenodd"/>
  </g>
  <g opacity=".4" data-name="Ôèãóðà 5">
   <path d="m304 252.3a2.8 2.8 0 1 0-2 3.4 2.8 2.8 0 0 0 2-3.4zm-12.2 0.4a2.8 2.8 0 1 0 3.4 2 2.8 2.8 0 0 0-3.4-2zm-8.9 2.3a2.8 2.8 0 1 0 3.4 2 2.8 2.8 0 0 0-3.3-1.9zm-8.9 2.3a2.8 2.8 0 1 0 3.4 2 2.7 2.7 0 0 0-3.3-1.9zm-9 2.4a2.8 2.8 0 1 0 3.4 2 2.8 2.8 0 0 0-3.3-1.9zm-8.7 2.3a2.8 2.8 0 1 0 3.4 2 2.8 2.8 0 0 0-3.3-1.9zm-8.9 2.3a2.8 2.8 0 1 0 3.4 2 2.8 2.8 0 0 0-3.3-1.9zm-8.9 2.3a2.8 2.8 0 1 0 3.4 2 2.7 2.7 0 0 0-3.3-1.8zm-8.9 2.4a2.8 2.8 0 1 0 3.4 2 2.7 2.7 0 0 0-3.3-1.9zm-8.8 2.3a2.8 2.8 0 1 0 3.4 2 2.8 2.8 0 0 0-3.3-1.9zm-8.9 2.4a2.8 2.8 0 1 0 3.4 2 2.8 2.8 0 0 0-3.3-1.9zm-8.8 2.3a2.8 2.8 0 1 0 3.4 2 2.8 2.8 0 0 0-3.3-1.9zm-8.9 2.4a2.8 2.8 0 1 0 3.4 2 2.7 2.7 0 0 0-3.4-1.9zm-8.8 2.3a2.8 2.8 0 1 0 3.4 2 2.8 2.8 0 0 0-3.4-1.9zm-8.9 2.4a2.8 2.8 0 1 0 3.4 2 2.8 2.8 0 0 0-3.4-2z" fill-rule="evenodd"/>
  </g>
  <g data-name="Ôèãóðà 1">
   <path d="m203.4 331-11.8 3.1 3.1 11.8 11.8-3.1zm20.8 7.1-3.1-11.8-11.8 3.1 3.1 11.8zm17.7-4.7-3.1-11.8-11.8 3.1 3.1 11.8zm17.7-4.7-3-11.7-11.8 3.1 3.1 11.8zm17.7-4.7-3.1-11.8-11.8 3.1 3.1 11.8zm17.7-4.7-3.1-11.8-11.8 3.1 3.1 11.8zm17.7-4.7-2.9-11.6-11.8 3.1 3.1 11.8zm-104.8 34-11.8 3.1 3.1 11.8 11.8-3.1zm9 10.3 11.8-3.1-3.1-11.8-11.6 3.2zm17.7-4.7 11.8-3.1-3.1-11.8-11.8 3.1zm17.7-4.7 11.8-3.1-3.1-11.8-11.8 3.1zm17.7-4.7 11.8-3.1-2.8-11.6-11.8 3.1zm17.7-4.7 11.8-3.1-3.1-11.8-11.8 3.1zm17.7-4.7 11.8-3.1-3.1-11.8-11.8 3.1zm-93 30.8-11.4 3.4 3.1 11.8 11.8-3.1zm5.9-1.6 3.1 11.8 11.8-3.1-3.1-11.8zm17.7-4.7 3.1 11.8 11.8-3.1-3.1-11.8zm17.7-4.7 3.1 11.8 11.8-3.1-2.6-11.4zm17.7-4.7 3.1 11.8 11.8-3.1-3.1-11.8zm17.7-4.7 3.1 11.8 11.8-3.1-3.1-11.8zm20.8 7.1 11.8-3.1-3.1-11.8-11.8 3.1zm-93 30.8-11.8 3.1 3.1 11.8 11.8-3.1zm17.7-4.7-11.8 3.1 3.1 11.8 11.8-3.1zm17.7-4.7-11.2 3.7 3.1 11.8 11.8-3.1zm17.7-4.7-11.8 3.1 3.1 11.8 11.8-3.1zm17.7-4.7-11.8 3.1 3.1 11.8 11.8-3.1zm17.7-4.7-11.1 3.8 3.1 11.8 11.8-3.1zm17.7-4.7-11.1 3.8 3.1 11.8 11.9-3.1zm-112.8 49.6 3.1 11.8 11.8-3.1-3.1-11.8zm17.7-4.7 3.1 11.8 11.8-3.1-3.1-11.8zm17.7-4.7 3.1 11.8 11.8-3.1-3.1-11.8zm17.7-4.7 3.1 11.8 11.8-3.1-3.1-11.8zm17.7-4.7 3.1 11.8 11.8-3.1-3.1-11.8zm17.7-4.7 3.1 11.8 11.8-3.1-3.1-11.8zm29.5-7.8-11.6 3.2 3.1 11.8 11.8-3.1z" fill="#dadada" fill-rule="evenodd"/>
  </g>
  <g data-name="Ôèãóðà 1 (êîïèÿ) 2">
   <path d="m259.7 328.8-3.1-11.8-11.8 3.1 3.1 11.8zm17.7-4.7-3.1-11.8-11.8 3.1 3.1 11.8zm17.7-4.7-3.1-11.8-11.8 3.1 3.1 11.8zm17.7-4.7-3-11.7-11.8 3.1 3.1 11.8zm-104.8 34-11.8 3.1 3.1 11.8 11.8-3.1zm20.8 7.1-3.1-11.8-11.7 3.2 3.1 11.8zm17.7-4.7-3.1-11.8-11.8 3.1 3.1 11.8zm5.9-1.6 11.8-3.1-3.1-11.8-11.8 3.1zm17.7-4.7 11.8-3.1-2.9-11.6-11.8 3.1zm17.7-4.7 11.8-3.1-3.1-11.8-11.8 3.1zm17.7-4.7 11.8-3.1-3.1-11.8-11.8 3.1zm-93 30.8-11.5 3.4 3.1 11.8 11.8-3.1zm9 10.3 11.8-3.1-3.1-11.8-11.8 3.1zm14.6-16.5 3.1 11.8 11.8-3.1-3.1-11.8zm17.7-4.7 3.1 11.8 11.8-3.1-2.7-11.5zm17.7-4.7 3.1 11.8 11.8-3.1-3.1-11.8zm17.7-4.7 3.1 11.8 11.8-3.1-3.1-11.8zm29.6-7.8-11.8 3.1 3.1 11.8 11.8-3.1zm-101.3 46.1-11.8 3.1 3.1 11.8 11.8-3.1zm17.7-4.7-11.8 3.1 3.1 11.8 11.8-3.1zm17.7-4.7-11.8 3.2 3.1 11.8 11.8-3.1zm17.7-4.7-11.8 3.1 3.1 11.8 11.8-3.1zm17.7-4.7-11.8 3.1 3.1 11.8 11.8-3.1zm5.9-1.6 3.1 11.8 11.8-3.1-3.1-11.8zm29.6-7.8-11.8 3.3 3.1 11.8 11.9-3.1zm-113.5 49.1 3.1 11.8 11.8-3.1-3.1-11.8zm17.7-4.7 3.1 11.8 11.8-3.1-3.1-11.8zm17.7-4.7 3.1 11.8 11.8-3.1-3.1-11.8zm17.7-4.7 3.1 11.8 11.8-3.1-3.1-11.8zm17.7-4.7 3.1 11.8 11.8-3.1-3.1-11.8z" fill="#fac061" fill-rule="evenodd"/>
  </g>
  <g id="Ôèãóðà_1_êîïèÿ_" data-name="Ôèãóðà 1 (êîïèÿ)">
   <path d="m292.1 307.7-11.8 3.1 3.1 11.8 11.8-3.1zm20.8 7.1-3.1-11.8-11.8 3.1 3.1 11.8zm-16.2 10.6-11.8 3.1 3.1 11.8 11.8-3.1zm9 10.3 11.8-3.1-3.1-11.8-11.8 3.1zm-4.4 7.5-11.8 3.1 3.1 11.8 11.8-3.1zm17.7-4.7-11.8 3.1 3.1 11.8 11.8-3.1zm-24.7 25.5 3.1 11.8 11.8-3.1-3.1-11.8zm29.6-7.8-11.9 3.1 3.1 11.8 11.9-3.1z" fill="#e85465" fill-rule="evenodd"/>
  </g>
  <g data-name="Ôèãóðà 4">
   <path d="m306.3 289.7a1.5 1.5 0 0 0-1.9-1.1l-115.2 30.4a1.5524 1.5524 0 0 0 0.8 3l115.2-30.4a1.5 1.5 0 0 0 1.1-1.9zm-75.1 8.7a1.5524 1.5524 0 0 0-0.8-3l-44.3 11.7a1.5524 1.5524 0 1 0 0.8 3zm1.6 5.9a1.5524 1.5524 0 0 0-0.8-3l-44.3 11.7a1.5524 1.5524 0 1 0 0.8 3zm48.7-19.2 20.7-5.5a1.5524 1.5524 0 1 0-0.8-3l-20.7 5.5a1.5524 1.5524 0 1 0 0.8 3z" fill="#dadada" fill-rule="evenodd"/>
  </g>
  <g opacity=".2" data-name="Ôèãóðà 3 (êîïèÿ) 2">
   <path d="m230.4 260.7-1.4 11.4a1.5524 1.5524 0 0 0 3-0.8l1.4-11.4zm-9 2.4-1.4 11.4a1.5524 1.5524 0 0 0 3-0.8l1.4-11.4zm-17.7 4.7-1.4 11.4a1.5524 1.5524 0 1 0 3-0.8l1.4-11.4zm9-2.4-1.4 11.4a1.5524 1.5524 0 1 0 3-0.8l1.4-11.4zm-35.5 9.4-1.4 11.4a1.5524 1.5524 0 1 0 3-0.8l1.4-11.4zm8.7-2.3-1.4 11.4a1.5524 1.5524 0 1 0 3-0.8l1.4-11.4zm9-2.4-1.4 11.4a1.5524 1.5524 0 1 0 3-0.8l1.4-11.4zm109.3-28.6h-1l-1.9 0.5-1.4 11.4a1.5524 1.5524 0 1 0 3-0.8zm-20.7 5.2-1.4 11.4a1.5524 1.5524 0 1 0 3-0.8l1.4-11.4zm-9 2.4-1.4 11.4a1.5524 1.5524 0 1 0 3-0.8l1.4-11.4zm17.7-4.7-1.4 11.4a1.5524 1.5524 0 1 0 3-0.8l1.4-11.4zm-53.2 14-1.4 11.4a1.5524 1.5524 0 0 0 3-0.8l1.4-11.4zm26.7-7-1.4 11.4a1.5524 1.5524 0 1 0 3-0.8l1.4-11.4zm-17.6 4.6-1.4 11.4a1.5524 1.5524 0 0 0 3-0.8l1.4-11.4zm8.7-2.3-1.4 11.4a1.5524 1.5524 0 1 0 3-0.8l1.4-11.4z" fill-rule="evenodd"/>
  </g>
  <g data-name="Ôèãóðà 3 (êîïèÿ)">
   <path d="m302.9 252.7-3.9-14.8a1.5524 1.5524 0 0 0-3 0.8l3.9 14.8a1.5524 1.5524 0 1 0 3-0.8zm-12.9-12.4a1.5524 1.5524 0 1 0-3 0.8l3.9 14.8a1.5524 1.5524 0 1 0 3-0.8zm-8.7 2.3a1.5524 1.5524 0 1 0-3 0.8l3.9 14.8a1.5524 1.5524 0 1 0 3-0.8zm-9 2.4a1.5524 1.5524 0 1 0-3 0.8l3.9 14.8a1.5524 1.5524 0 1 0 3-0.8zm-8.7 2.3a1.5524 1.5524 0 1 0-3 0.8l3.9 14.8a1.5524 1.5524 0 1 0 3-0.8zm-9 2.4a1.5524 1.5524 0 1 0-3 0.8l3.9 14.8a1.5524 1.5524 0 1 0 3-0.8zm-8.7 2.3a1.5524 1.5524 0 1 0-3 0.8l3.9 14.8a1.5524 1.5524 0 0 0 3-0.8zm-9 2.4a1.5524 1.5524 0 0 0-3 0.8l3.9 14.8a1.5524 1.5524 0 0 0 3-0.8zm-8.7 2.3a1.5524 1.5524 0 0 0-3 0.8l3.9 14.8a1.5524 1.5524 0 0 0 3-0.8zm-9 2.4a1.5524 1.5524 0 0 0-3 0.8l3.9 14.8a1.5524 1.5524 0 0 0 3-0.8zm-8.7 2.3a1.5524 1.5524 0 0 0-3 0.8l3.9 14.8a1.5524 1.5524 0 1 0 3-0.8zm-9 2.4a1.5524 1.5524 0 1 0-3 0.8l3.9 14.8a1.5524 1.5524 0 1 0 3-0.8zm-8.7 2.3a1.5524 1.5524 0 0 0-3 0.8l3.9 14.8a1.5524 1.5524 0 1 0 3-0.8zm-9 2.4a1.5524 1.5524 0 1 0-3 0.8l3.9 14.8a1.5524 1.5524 0 1 0 3-0.8zm-8.7 2.3a1.5524 1.5524 0 1 0-3 0.8l3.9 14.8a1.5524 1.5524 0 1 0 3-0.8z" fill="#d3d3d3" fill-rule="evenodd"/>
  </g>
  <g data-name="Ôèãóðà 8">
   <path d="m278.4 429.1a0.3 0.3 0 0 0-0.1-0.3l-1.8-1.9a0.3 0.3 0 0 0-0.5 0.1l-1 1.5a0.3 0.3 0 0 0 0.1 0.5l2.4 1.1h0.3a0.61033 0.61033 0 0 0 0.7-1z" fill="#9d9d9d" fill-rule="evenodd"/>
  </g>
  <g data-name="Ôèãóðà 10">
   <path d="m278 429.1-2.1-2-0.6 0.6-0.4 0.7 2.6 1.4a0.43012 0.43012 0 0 0 0.5-0.7z" fill="#9d9d9d"/>
  </g>
  <g data-name="Ôèãóðà 1">
   <path d="m276.8 426.7-8.5-10.1-63-44.8a0.3 0.3 0 0 0-0.5 0.1 0.43012 0.43012 0 1 1-0.7-0.5 0.3 0.3 0 0 0-0.1-0.5l-37-26.3a0.8 0.8 0 1 1-1.3-0.9l-2.4-1.7c-0.1-0.1-0.4-0.2-0.5 0.1-2.9 20.7 24.8 44.7 46.3 48.2a1.2258 1.2258 0 0 0 0.5-2.4c-10.8-1.3-32.3-13-41-30.1a30.7 30.7 0 0 1-2.1-5.5 0.81394 0.81394 0 1 1 1.6-0.3c0.5 2.3 2.2 7.1 5.1 9.1l25 17.8a0.3 0.3 0 0 0 0.5-0.1 0.43012 0.43012 0 1 1 0.7 0.5 0.3 0.3 0 0 0 0.1 0.5l63 44.8 12.3 4.7a0.3 0.3 0 0 0 0.5-0.1l1.5-2.1a0.3 0.3 0 0 0 0-0.4z" fill="#b4b4b4" fill-rule="evenodd"/>
  </g>
  <g data-name="Ôèãóðà 1 (êîïèÿ)">
   <path d="m166.7 352.2a0.80623 0.80623 0 0 1 1.6-0.2 43.3 43.3 0 0 1-1.1-7.3 0.8 0.8 0 0 1-1.4-0.6c-0.5 3 1 8.1 1 8.1z" fill="#b4b4b4" fill-rule="evenodd"/>
  </g>
  <g data-name="Ôèãóðà 3">
   <path d="m204.8 372a0.43012 0.43012 0 1 1-0.7-0.5l-0.3-0.2-5.2 7.3 0.3 0.2a0.43012 0.43012 0 0 1 0.7 0.5l0.3 0.2 5.2-7.3z" fill="#b4b4b4"/>
  </g>
  <g data-name="Ôèãóðà 3 (êîïèÿ)">
   <path d="m204.8 372a0.43012 0.43012 0 0 1-0.7-0.5l-5.2 7.3a0.43012 0.43012 0 0 1 0.7 0.5z" fill="#b4b4b4" fill-rule="evenodd"/>
  </g>
  <g data-name="Ôèãóðà 4">
   <path d="m276.8 426.7-8.5-10.1-63-44.8a0.3 0.3 0 0 0-0.5 0.1l-5.3 7.5a0.3 0.3 0 0 0 0.1 0.5l63 44.8 12.3 4.7a0.3 0.3 0 0 0 0.5-0.1l1.5-2.1a0.3 0.3 0 0 0-0.1-0.5z" fill="#b4b4b4" fill-rule="evenodd"/>
  </g>
  <g data-name="Ôèãóðà 2">
   <path d="m167.5 345.5s1.1 11.8 6.1 15.3l25.1 17.8 5.2-7.3zm100.5 71.5-62.9-44.8-5.2 7.3 62.9 44.8 12.2 4.7 1.4-2z" fill="#eaeaea" fill-rule="evenodd"/>
  </g>
  <g opacity=".10196" data-name="Ôèãóðà 2 (êîïèÿ) 3">
   <path d="m204.2 373.6-1.2 1.7 63.6 45.2 1.2-1.7zm-35.8-22.8 33.2 23.6 1.2-1.7-35-24.9c0.1 0.8 0.3 1.9 0.6 3z" fill="#fff" fill-rule="evenodd"/>
  </g>
  <g id="Ôèãóðà_5_êîïèÿ_" opacity=".10196" data-name="Ôèãóðà 5 (êîïèÿ)">
   <polygon points="262.8 424.3 275.1 429 276.5 427 268 417" fill="#fff"/>
  </g>
  <g data-name="Ôèãóðà 7">
   <path d="m209.7 388.4c-8.9-1.5-19.6-7-28-14.1s-16.9-18.4-16.5-30.4l-1.8-1.3c-1.6 10.4 5.6 22.7 16.6 32.3s20.5 13.6 29.4 15a0.8 0.8 0 0 0 0.9-0.6 0.8 0.8 0 0 0-0.6-0.9z" fill="#9d9d9d"/>
  </g>
 </g>
</svg>
