<svg version="1.1" viewBox="0 0 1e3 1e3" xmlns="http://www.w3.org/2000/svg">
 <path d="m891.12 211.72-40.697-67.222a6.8177 6.8177 0 1 0-13.635-2e-3l40.697 67.222a6.8177 6.8177 0 1 0 13.635 2e-3zm-80.217-67.314a6.8177 6.8177 0 1 0-13.635-2e-3l40.697 67.222a6.8177 6.8177 0 1 0 13.635 2e-3zm-40.906-7e-3a6.8177 6.8177 0 1 0-13.635-2e-3l40.697 67.222a6.8177 6.8177 0 1 0 13.635 2e-3zm-39.52-0.0917a6.8177 6.8177 0 1 0-13.635-2e-3l40.697 67.222a6.8177 6.8177 0 1 0 13.635 2e-3zm-40.906-7e-3a6.8177 6.8177 0 1 0-13.635-2e-3l40.697 67.222a6.8177 6.8177 0 1 0 13.635 2e-3zm-39.52-0.0917a6.8177 6.8177 0 1 0-13.635-2e-3l40.697 67.222a6.8177 6.8177 0 1 0 13.635 2e-3zm-40.906-7e-3a6.8177 6.8177 0 0 0-13.635-2e-3l40.697 67.222a6.8177 6.8177 0 0 0 13.635 2e-3zm-39.52-0.0917a6.8177 6.8177 0 0 0-13.635-2e-3l40.386 66.685a6.8177 6.8177 0 1 0 13.635 2e-3zm-40.906-7e-3a6.8177 6.8177 0 0 0-13.635-2e-3l40.499 66.26a6.8177 6.8177 0 0 0 13.635 2e-3zm-39.52-0.0917a6.8177 6.8177 0 0 0-13.635-2e-3l40.697 67.222a6.8177 6.8177 0 0 0 13.635 2e-3zm-40.906-7e-3a6.8177 6.8177 0 1 0-13.635-2e-3l40.697 67.222a6.8177 6.8177 0 1 0 13.635 2e-3zm-39.52-0.0917a6.8177 6.8177 0 0 0-13.635-2e-3l40.697 67.222a6.8177 6.8177 0 1 0 13.635 2e-3zm-40.906-7e-3a6.8177 6.8177 0 1 0-13.635-2e-3l40.697 67.222a6.8177 6.8177 0 1 0 13.635 2e-3zm-39.52-0.0917a6.8177 6.8177 0 1 0-13.635-2e-3l40.697 67.222a6.8177 6.8177 0 1 0 13.635 2e-3z" fill="#a8a9a9" fill-rule="evenodd" stroke-width="4.3917"/>
 <path d="m915.88 849.68 2.0956-672.15a12.736 12.736 0 0 0-12.898-12.987l-618.57-1.8884a12.736 12.736 0 0 0-12.563 13.011l-2.0956 672.15a12.736 12.736 0 0 0 12.898 12.987l618.57 1.8884a12.736 12.736 0 0 0 12.563-13.011z" fill="#f6f5f5" stroke-width="4.3917"/>
 <path d="m917.98 177.52a12.736 12.736 0 0 0-12.898-12.987l-618.57-1.8884a12.736 12.736 0 0 0-12.563 13.011l-0.21424 94.486 644.03 1.8645z" fill="#e85465" fill-rule="evenodd" stroke-width="4.3917"/>
 <path d="m915.88 849.68 2.0956-672.15a12.736 12.736 0 0 0-12.898-12.987l-618.57-1.8884a12.736 12.736 0 0 0-12.563 13.011l-2.0956 672.15a12.736 12.736 0 0 0 12.898 12.987l618.57 1.8884a12.736 12.736 0 0 0 12.563-13.011zm-630.71-2.3997 1.8691-671.3 617.19 1.973-1.8691 671.3z" fill="#5e5e5e" fill-rule="evenodd" opacity=".1" stroke-width="4.3917"/>
 <path d="m896.24 211.27a12.297 12.297 0 1 0-12.336 12.162 12.297 12.297 0 0 0 12.336-12.162zm-52.22-12.117a12.297 12.297 0 1 0 12.162 12.336 12.297 12.297 0 0 0-12.162-12.336zm-40.369-0.31811a12.297 12.297 0 1 0 12.162 12.336 12.297 12.297 0 0 0-11.851-11.799zm-40.369-0.31811a12.297 12.297 0 1 0 12.162 12.336 11.858 11.858 0 0 0-11.851-11.799zm-40.906-7e-3a12.297 12.297 0 1 0 12.162 12.336 12.297 12.297 0 0 0-11.851-11.799zm-39.52-0.0917a12.297 12.297 0 1 0 12.162 12.336 12.297 12.297 0 0 0-11.851-11.799zm-40.369-0.31811a12.297 12.297 0 1 0 12.162 12.336 12.297 12.297 0 0 0-11.851-11.799zm-40.369-0.31811a12.297 12.297 0 1 0 12.162 12.336 11.858 11.858 0 0 0-11.964-11.374zm-40.482 0.10621a12.297 12.297 0 1 0 12.162 12.336 11.858 11.858 0 0 0-11.851-11.799zm-39.944-0.20485a12.297 12.297 0 1 0 12.162 12.336 12.297 12.297 0 0 0-11.851-11.799zm-40.482 0.10621a12.297 12.297 0 1 0 12.162 12.336 12.297 12.297 0 0 0-11.851-11.799zm-39.944-0.20488a12.297 12.297 0 1 0 12.162 12.336 12.297 12.297 0 0 0-11.851-11.799zm-40.482 0.10621a12.297 12.297 0 1 0 12.162 12.336 11.858 11.858 0 0 0-12.276-11.912zm-39.944-0.20488a12.297 12.297 0 1 0 12.162 12.336 12.297 12.297 0 0 0-12.276-11.912zm-40.482 0.10621a12.297 12.297 0 1 0 12.162 12.336 12.297 12.297 0 0 0-12.162-12.336z" fill-rule="evenodd" stroke-width="4.3917"/>
 <path d="m380.27 431.3-53.58-0.20722-0.20722 53.58 53.58 0.20722zm80.219 53.679 0.20722-53.58-53.58-0.20722-0.20722 53.58zm80.426 0.0987 0.20722-53.58-53.58-0.20722-0.20722 53.58zm80.426 0.0987 0.51831-53.042-53.58-0.20722-0.20722 53.58zm80.426 0.0987 0.20722-53.58-53.58-0.20722-0.20722 53.58zm80.426 0.0987 0.20722-53.58-53.58-0.20722-0.20722 53.58zm80.426 0.0987 0.8294-52.505-53.58-0.20722-0.20722 53.58zm-483.19 25.604-53.58-0.20722-0.20722 53.58 53.58 0.20722zm26.526 53.896 53.58 0.20722 0.20722-53.58-52.844 0.44356zm80.426 0.0987 53.58 0.20722 0.20722-53.58-53.58-0.20722zm80.426 0.0987 53.58 0.20722 0.20722-53.58-53.58-0.20722zm80.426 0.0987 53.58 0.20722 1.2537-52.392-53.58-0.20722zm80.426 0.0987 53.58 0.20722 0.20722-53.58-53.58-0.20722zm80.426 0.0987 53.58 0.20722 0.20722-53.58-53.58-0.20722zm-429.49 25.387-52.222 1.5187-0.20722 53.58 53.58 0.20722zm26.847-0.10855-0.20722 53.58 53.58 0.20722 0.20722-53.58zm80.426 0.0987-0.20722 53.58 53.58 0.20722 0.20722-53.58zm80.426 0.0987-0.20722 53.58 53.58 0.20722 1.8759-51.316zm80.426 0.0987-0.20722 53.58 53.58 0.20722 0.20722-53.58zm80.426 0.0987-0.20722 53.58 53.58 0.20722 0.20722-53.58zm80.219 53.679 53.58 0.20722 0.20722-53.58-53.58-0.20722zm-429.49 25.387-53.58-0.20722-0.20722 53.58 53.58 0.20722zm80.426 0.0987-53.58-0.20722-0.20722 53.58 53.58 0.20722zm80.426 0.0987-51.713 3.0181-0.20722 53.58 53.58 0.20722zm80.426 0.0987-53.58-0.20722-0.20722 53.58 53.58 0.20722zm80.426 0.0987-53.58-0.20722-0.20722 53.58 53.58 0.20722zm80.426 0.0987-51.402 3.5556-0.20722 53.58 53.58 0.20722zm80.426 0.0987-51.402 3.5556-0.20722 53.58 54.004 0.32045zm-534.8 82.739-0.20722 53.58 53.58 0.20722 0.20722-53.58zm80.426 0.0987-0.20722 53.58 53.58 0.20722 0.20722-53.58zm80.426 0.0987-0.20722 53.58 53.58 0.20722 0.20722-53.58zm80.426 0.0987-0.20722 53.58 53.58 0.20722 0.20722-53.58zm80.426 0.0987-0.20722 53.58 53.58 0.20722 0.20722-53.58zm80.426 0.0987-0.20722 53.58 53.58 0.20722 0.20722-53.58zm134.01 0.30589-52.844 0.44356-0.20722 53.58 53.58 0.20722z" fill="#dadada" fill-rule="evenodd" stroke-width="4.3917"/>
 <path d="m621.65 485.71 0.20722-53.58-53.58-0.20722-0.20722 53.58zm80.426 0.0987 0.20722-53.58-53.58-0.20722-0.20722 53.58zm80.426 0.0987 0.20722-53.58-53.58-0.20722-0.20722 53.58zm80.426 0.0987 0.51831-53.042-53.58-0.20722-0.20722 53.58zm-483.19 25.604-53.58-0.20722-0.20722 53.58 53.58 0.20722zm80.219 53.679 0.20722-53.58-53.269 0.33033-0.20722 53.58zm80.426 0.0987 0.20722-53.58-53.58-0.20722-0.20722 53.58zm26.847-0.10855 53.58 0.20722 0.20722-53.58-53.58-0.20722zm80.426 0.0987 53.58 0.20722 0.8294-52.505-53.58-0.20722zm80.426 0.0987 53.58 0.20722 0.20722-53.58-53.58-0.20722zm80.426 0.0987 53.58 0.20722 0.20722-53.58-53.58-0.20722zm-429.49 25.387-52.647 1.4054-0.20722 53.58 53.58 0.20722zm26.526 53.896 53.58 0.20722 0.20722-53.58-53.58-0.20722zm80.634-53.481-0.20722 53.58 53.58 0.20722 0.20722-53.58zm80.426 0.0987-0.20722 53.58 53.58 0.20722 1.5648-51.854zm80.426 0.0987-0.20722 53.58 53.58 0.20722 0.20722-53.58zm80.426 0.0987-0.20722 53.58 53.58 0.20722 0.20722-53.58zm134.43 0.41912-53.58-0.20722-0.20722 53.58 53.58 0.20722zm-482.04 80.91-53.58-0.20722-0.20722 53.58 53.58 0.20722zm80.426 0.0987-53.58-0.20722-0.20722 53.58 53.58 0.20722zm80.426 0.0987-53.693 0.2171-0.20722 53.58 53.58 0.20722zm80.426 0.0987-53.58-0.20722-0.20722 53.58 53.58 0.20722zm80.426 0.0987-53.58-0.20722-0.20722 53.58 53.58 0.20722zm26.847-0.10855-0.20722 53.58 53.58 0.20722 0.20722-53.58zm134.43 0.41912-53.806 0.64142-0.20722 53.58 54.004 0.32045zm-537.2 79.825-0.20722 53.58 53.58 0.20722 0.20722-53.58zm80.426 0.0987-0.20722 53.58 53.58 0.20722 0.20722-53.58zm80.426 0.0987-0.20722 53.58 53.58 0.20722 0.20722-53.58zm80.426 0.0987-0.20722 53.58 53.58 0.20722 0.20722-53.58zm80.426 0.0987-0.20722 53.58 53.58 0.20722 0.20722-53.58z" fill="#fac061" fill-rule="evenodd" stroke-width="4.3917"/>
 <path d="m783.02 432.87-53.58-0.20722-0.20722 53.58 53.58 0.20722zm80.219 53.679 0.20722-53.58-53.58-0.20722-0.20722 53.58zm-80.742 26.635-53.58-0.20722-0.20722 53.58 53.58 0.20722zm26.526 53.896 53.58 0.20722 0.20722-53.58-53.58-0.20722zm-27.162 26.842-53.58-0.20722-0.20722 53.58 53.58 0.20722zm80.426 0.0987-53.58-0.20722-0.20722 53.58 53.58 0.20722zm-133.68 80.234-0.20722 53.58 53.58 0.20722 0.20722-53.58zm134.43 0.41912-54.004-0.32045-0.20722 53.58 54.004 0.32045z" fill="#e85465" fill-rule="evenodd" stroke-width="4.3917"/>
 <path d="m863.66 372.57a6.5875 6.5875 0 0 0-6.8166-6.8189l-523.24-1.4477a6.8177 6.8177 0 0 0-2e-3 13.635l523.24 1.4477a6.5875 6.5875 0 0 0 6.8189-6.8166zm-328.52-48.12a6.8177 6.8177 0 0 0 2e-3 -13.635l-201.22-0.51545a6.8177 6.8177 0 1 0-2e-3 13.635zm0.10855 26.847a6.8177 6.8177 0 0 0 2e-3 -13.635l-201.22-0.51545a6.8177 6.8177 0 1 0-2e-3 13.635zm228.38-26.326 94.062 0.10101a6.8177 6.8177 0 1 0 2e-3 -13.635l-94.062-0.10101a6.8177 6.8177 0 1 0-2e-3 13.635z" fill="#dadada" fill-rule="evenodd" stroke-width="4.3917"/>
 <path d="m574.43 163.57-18.849 46.787a6.8177 6.8177 0 0 0 13.635 2e-3l18.849-46.787zm-40.906-7e-3 -18.849 46.787a6.8177 6.8177 0 0 0 13.635 2e-3l18.849-46.787zm-80.426-0.0987-18.849 46.787a6.8177 6.8177 0 1 0 13.635 2e-3l18.849-46.787zm40.906 7e-3 -18.849 46.787a6.8177 6.8177 0 1 0 13.635 2e-3l18.849-46.787zm-161.28-0.31054-18.849 46.787a6.8177 6.8177 0 1 0 13.635 2e-3l18.849-46.787zm39.52 0.0917-18.849 46.787a6.8177 6.8177 0 1 0 13.635 2e-3l18.849-46.787zm40.906 7e-3 -18.849 46.787a6.8177 6.8177 0 1 0 13.635 2e-3l18.849-46.787zm496.17 2.4049-4.2432-1.1323-8.6282-0.0298-18.849 46.787a6.8177 6.8177 0 1 0 13.635 2e-3zm-93.722-1.374-18.849 46.787a6.8177 6.8177 0 1 0 13.635 2e-3l18.849-46.787zm-40.906-7e-3 -18.849 46.787a6.8177 6.8177 0 1 0 13.635 2e-3l18.849-46.787zm80.426 0.0987-18.849 46.787a6.8177 6.8177 0 1 0 13.635 2e-3l18.849-46.787zm-241.59-0.83356-18.849 46.787a6.8177 6.8177 0 0 0 13.635 2e-3l18.849-46.787zm121.22 0.53001-18.849 46.787a6.8177 6.8177 0 1 0 13.635 2e-3l18.849-46.787zm-79.889-0.40976-18.849 46.787a6.8177 6.8177 0 0 0 13.635 2e-3l18.849-46.787zm39.52 0.0917-18.849 46.787a6.8177 6.8177 0 1 0 13.635 2e-3l18.849-46.787z" fill="#5e5e5e" fill-rule="evenodd" opacity=".1" stroke-width="4.3917"/>
 <path d="m891.12 211.72 0.20956-67.215a6.8177 6.8177 0 0 0-13.635-2e-3l-0.20956 67.215a6.8177 6.8177 0 1 0 13.635 2e-3zm-40.697-67.222a6.8177 6.8177 0 1 0-13.635-2e-3l-0.20956 67.215a6.8177 6.8177 0 1 0 13.635 2e-3zm-39.52-0.0917a6.8177 6.8177 0 1 0-13.635-2e-3l-0.20956 67.215a6.8177 6.8177 0 1 0 13.635 2e-3zm-40.906-7e-3a6.8177 6.8177 0 1 0-13.635-2e-3l-0.20956 67.215a6.8177 6.8177 0 1 0 13.635 2e-3zm-39.52-0.0917a6.8177 6.8177 0 1 0-13.635-2e-3l-0.20956 67.215a6.8177 6.8177 0 1 0 13.635 2e-3zm-40.906-7e-3a6.8177 6.8177 0 1 0-13.635-2e-3l-0.20956 67.215a6.8177 6.8177 0 1 0 13.635 2e-3zm-39.52-0.0917a6.8177 6.8177 0 1 0-13.635-2e-3l-0.20956 67.215a6.8177 6.8177 0 0 0 13.635 2e-3zm-40.906-7e-3a6.8177 6.8177 0 0 0-13.635-2e-3l-0.20956 67.215a6.8177 6.8177 0 0 0 13.635 2e-3zm-39.52-0.0917a6.8177 6.8177 0 0 0-13.635-2e-3l-0.20956 67.215a6.8177 6.8177 0 0 0 13.635 2e-3zm-40.906-7e-3a6.8177 6.8177 0 0 0-13.635-2e-3l-0.20956 67.215a6.8177 6.8177 0 0 0 13.635 2e-3zm-39.52-0.0917a6.8177 6.8177 0 0 0-13.635-2e-3l-0.20956 67.215a6.8177 6.8177 0 1 0 13.635 2e-3zm-40.906-7e-3a6.8177 6.8177 0 1 0-13.635-2e-3l-0.20956 67.215a6.8177 6.8177 0 1 0 13.635 2e-3zm-39.52-0.0917a6.8177 6.8177 0 0 0-13.635-2e-3l-0.20956 67.215a6.8177 6.8177 0 1 0 13.635 2e-3zm-40.906-7e-3a6.8177 6.8177 0 1 0-13.635-2e-3l-0.20956 67.215a6.8177 6.8177 0 1 0 13.635 2e-3zm-39.52-0.0917a6.8177 6.8177 0 1 0-13.635-2e-3l-0.20956 67.215a6.8177 6.8177 0 1 0 13.635 2e-3z" fill="#d3d3d3" fill-rule="evenodd" stroke-width="4.3917"/>
 <path d="m239.09 859.69a1.2183 1.2183 0 0 0 0.50474-1.1808l-0.34453-10.623a1.2183 1.2183 0 0 0-1.788-1.0442l-7.0807 1.8596a1.2183 1.2183 0 0 0-1.0442 1.7881l4.3233 9.8106 0.91113 0.80876a2.4785 2.4785 0 0 0 4.8216-1.1499z" fill="#9d9d9d" fill-rule="evenodd" stroke-width="4.0609"/>
 <path d="m237.88 858.62-0.98601-11.735-3.4397 0.2047-3.1019 1.0476 4.122 11.261a1.7467 1.7467 0 0 0 3.4055-0.77798z" fill="#9d9d9d" stroke-width="4.0609"/>
 <path d="m240.7 848.09 1.4133-53.588-70.557-305.89a1.2183 1.2183 0 0 0-1.7881-1.0442 1.7467 1.7467 0 1 1-0.77799-3.4056 1.2183 1.2183 0 0 0 1.0443-1.788l-41.468-179.62a3.2487 3.2487 0 1 1-1.5218-6.2378l-2.7059-11.633c-0.0341-0.57328-0.67562-1.6857-1.788-1.0442-64.61 55.048-45.186 202.61 10.674 271.2a4.9778 4.9778 0 0 0 7.9884-5.9408c-29.295-33.063-63.049-126.56-43.372-201.94a124.67 124.67 0 0 1 8.4493-22.365 3.3053 3.3053 0 1 1 5.668 3.4022c-4.6819 8.333-12.459 27.493-9.0434 41.385l27.939 121.45a1.2183 1.2183 0 0 0 1.788 1.0442 1.7467 1.7467 0 1 1 0.77798 3.4056 1.2183 1.2183 0 0 0-1.0442 1.7881l70.557 305.89 24.684 47.432a1.2183 1.2183 0 0 0 1.788 1.0442l10.217-2.3339a1.2183 1.2183 0 0 0 1.0783-1.2148z" fill="#b4b4b4" fill-rule="evenodd" stroke-width="4.0609"/>
 <path d="m107.17 325.03a3.274 3.274 0 0 1 5.3983 3.7059 175.84 175.84 0 0 1 16.339-25.135 3.2487 3.2487 0 0 1-2.6343-5.5963c-9.6059 7.763-18.799 27.295-18.799 27.295z" fill="#b4b4b4" fill-rule="evenodd" stroke-width="4.0609"/>
 <path d="m169.5 487.87a1.7467 1.7467 0 1 1-0.77798-3.4056l-0.37194-1.4161-35.472 8.1517 0.37193 1.4161a1.7467 1.7467 0 0 1 0.77799 3.4056l0.37193 1.4161 35.472-8.1517z" fill="#b4b4b4" stroke-width="4.0609"/>
 <path d="m169.5 487.87a1.7467 1.7467 0 0 1-0.77798-3.4056l-35.472 8.1517a1.7467 1.7467 0 0 1 0.77799 3.4056z" fill="#b4b4b4" fill-rule="evenodd" stroke-width="4.0609"/>
 <path d="m240.7 848.09 1.4133-53.588-70.557-305.89a1.2183 1.2183 0 0 0-1.7881-1.0442l-36.315 8.4895a1.2183 1.2183 0 0 0-1.0442 1.7881l70.557 305.89 24.685 47.432a1.2183 1.2183 0 0 0 1.788 1.0442l10.217-2.3339a1.2183 1.2183 0 0 0 1.0442-1.7881z" fill="#b4b4b4" fill-rule="evenodd" stroke-width="4.0609"/>
 <path d="m127.66 306.84s-28.47 38.802-22.72 62.91l28.243 121.72 35.472-8.1517zm112.47 488.07-70.254-305.62-35.472 8.1517 70.254 305.62 24.381 47.163 9.6434-2.2998z" fill="#eaeaea" fill-rule="evenodd" stroke-width="4.0609"/>
 <path d="m163.37 491.11-8.2273 1.9279 71.301 308.72 8.2273-1.9279zm-47.259-165.75 37.206 161.17 8.2273-1.9279-39.168-169.97c-1.853 2.6991-4.211 6.579-6.2653 10.728z" fill="#fff" fill-rule="evenodd" stroke-width="4.0609"/>
 <path d="m204.66 803.06 24.685 47.432 9.6433-2.2998 1.1438-53.284z" fill="#fff" stroke-width="4.0609"/>
 <path d="m140.17 550.89c-22.985-28.548-40.654-74.097-47.024-118.3-6.3704-44.207-1.7221-101.44 31.842-136.8l-1.962-8.8005c-32.896 27.271-44.188 84.036-36.661 142.84 7.527 58.809 25.595 96.567 48.85 124.81a3.2487 3.2487 0 0 0 4.3508 0.60406 3.2487 3.2487 0 0 0 0.60408-4.3507z" fill="#9d9d9d" stroke-width="4.0609"/>
</svg>
