<svg version="1.1" viewBox="0 0 1e3 1e3" xmlns="http://www.w3.org/2000/svg">
 <path d="m608.3 405.73c-35.151-4.0592-56.827 38.84-88.701 15.738-33.525-17.266-71.31 17.078-98.929 1.8208-60.21-36.004-148.28 9.0971-159.77 77.029-17.854 1.3914-52.674-24.202-64.623 11.425-5.4236 24.19-54.143 13.72-65.243 44.17-35.983-1.9188-62.212 20.408-98.225 24.973-19.163-4.754-38.984 14.306-8.625 11.457 321.8 3.4134 643.63 2.0153 965.4 1.3397 13.571-13.137-49.405-8.9031-62.964-18.903-40.41-7.3897-74.324-9.1059-102.29-40.731-18.639-11.467-40.892 4.465-39.31-21.174-14.994-31.618-44.676-15.053-66.462-11.666-8.4209-52.067-56.572-96.69-110.28-95.476zm8.9106 13.11c49.449 3.2981 89.563 46.893 98.076 94.222 2.4857 0.63593 19.246 2.213 29.794 8.0953-34.238-35.801 67.733-12.834 25.889 12.579-2.848 11.285 46.361-6.113 57.285 13.293 17.316 8.3584 23.136 42.975 37.88 23.912 17.217 8.2401 59.436 6.8257 64.64 13.537-287.39 0.14003-574.87 1.7354-862.19-1.4095 9.4147-23.876 20.787 4.0614 27.239-6.7223 7.6009-11.091 35.309-18.169 27.66 1.1435 15.627-27.694 46.352-47.808 79.792-43.696 32.996 0.56506-22.884-13.163 8.7561-26.452 30.428-18.54 25.18 11.127 25.661 15.652 11.143-11.948 26.776-17.426 42.782-18.354-25.737-9.1604 12.236-51.213 32.961-63.497 31.99-20.53 76.149-23.819 108.73-2.7346-9.8287 25.405-33.3 13.75-45.789 32.872 17.739-9.1736 46.51 7.5054 55.771 5.9722-20.005-11.513-28.754-22.48-1.9998-33.624 33.666-11.666 70.817-18.095 105.23-5.0492 17.928 3.4454 49.221 22.916 22.219 35.208 4.633 12.004 30.674-12.945 44.381 1.386-7.3268-13.144-40.576-15.677-42.5-37.142 17.082-11.242 36.896-19.952 57.747-19.191zm52.326 66.048c-37.756 7.2163 33.065 5.0114 32.577 29.437 14.229 14.261-1.8175 78.886 15.833 33.109 5.2177-29.884-17.234-61.332-48.411-62.546zm-360.79 7.8314c-24.184-2.1256-54.847 44.535-40.983 53.039 7.3065-24.018 25.768-41.89 47.28-51.653-0.75084-2.7672-4.3298-0.87381-6.2977-1.386zm-99.202 44.887c-21.335-5.4887-43.742 41.173-16.389 13.206 19.353-13.373 44.271 3.46 37.78 15.659 8.6413-8.6497 44.966-15.895 14.203-16.506-12.351 6.5639-17.695-18.569-35.594-12.359zm531.14 5.117c-24.272 1.9365-15.866 19.74 3.0627 8.0162 14.452 1.1104 41.035 22.757 18.731-0.75692-6.2225-4.7021-14.005-7.252-21.794-7.259z" fill-rule="evenodd" stroke-width="2.2975"/>
 <path d="m617.18 418.85c-16.065-0.36111-56.013 9.0214-56.268 23.09 18.913-3.8877 46.035-19.23 70.228-10.57 36.402 5.501 63.373 34.464 77.658 66.823 11.05 20.496-5.6902-27.91-14.831-34.173-18.218-24.312-45.6-43.868-76.792-45.169zm-243.38 5.2208c-46.273-1.2778-91.622 30.055-105.22 74.605 17.026-29.678 47.65-55.89 82.599-64.086 23.676-8.8846 50.853 8.7979 70.949 3.8021-14.412-9.0491-31.272-14.247-48.323-14.323zm68.749 15.328c-16.613-4.0739-45.155 37.852-20.183 14.233 28.335-15.466 64.416-16.952 95.938-11.459 18.779-2.1381 40.808 27.07 51.337 19.461-16.203-24.836-49.115-27.114-75.696-31.36-17.574-0.82225-34.812 3.8173-51.398 9.1252zm-44.179 29.384c-43.628 3.7077 31.014 8.7029 20.364 4.4984-6.2243-3.283-13.331-4.897-20.364-4.4984zm187.27 1.5478c-14.284-0.23951-32.171 14.596-7.4653 6.2718 7.933-2.0795 33.444-0.68841 7.4653-6.2718zm78.872 20.375c28.509 11.305 43.295 42.119 43.108 71.948 7.7262-28.525-4.7043-65.116-36.753-71.231l-6.354-0.71679zm-357.34 8.351c-17.982 2.0643-41.439 41.24-35.662 44.676 6.8134-18.53 19.375-33.451 35.662-44.676zm442.76 1.4438c-15.901 2.1796-17.381 17.697-0.16366 7.8947 18.497-6.7166 37.727 40.83 26.982 4.0255-6.9431-7.1825-16.799-11.705-26.818-11.92zm-521.95 2.0791c-20.571-4.0713-37.044 37.746-11.543 9.0439 10.197-0.92221 41.471 2.7425 14.921-8.6281zm52.476 2.0906c-9.1081-2.9989-42.06 13.388-31.747 10.488 5.6796-8.482 33.839-0.41209 31.747-10.488zm439.58 6.2142c-5.2463 9.812 38.456 15.99 9.255 2.414l-3.7901-1.0164-5.4649-1.3976zm-1.1389 6.1913c-0.0695-0.0339-9e-3 0.0968 0 0zm-521.55 16.518c-21.932-6.4746-67.478 24.834-62.04 30.297 20.192-21.671 51.834-23.127 78.129-27.144-1.6265-6.4346-11.983-0.50417-16.089-3.1533zm594.18 2.4949c-32.906 1.743 34.092 1.628 39.705 18.819 9.7354 12.722 32.283 36.425 13.922 8.8538-12.028-17.576-32.455-27.754-53.629-27.673zm-13.725 1.4323c-0.2556-0.23268-0.17465 0.25631 0 0zm-570.43 8.4666c-15.918 2.2421-29.176 14.978-3.7231 5.6136 14.533 5.1953 43.468 7.7711 14.796-3.6535-3.5547-1.2059-7.2889-2.106-11.072-1.9601zm539.1 4.6088c-12.228-0.0198-27.353 7.2792-5.3404 4.2044 9.991-1.6945 39.565 12.466 13.667-2.5296l-4.1135-1.232-4.2132-0.44289zm-18.29 4.0658c-0.1553-0.14416-0.0959 0.15099 0 0zm-477.12 1.7903c-14.888-0.0832-26.232 16.957-7.992 3.419l4.3069-1.7788 3.6848-1.6402zm-133.78 9.2519c-13.534-0.39009-30.916 16.679-8.413 5.1979 6.9106 4.0218 27.855-4.4487 8.413-5.1979zm748.78 5.2093c-21.44 4.9449 19.252 11.198 29.672 13.537h39.01c-22.921-8.4935-46.955-4.6524-68.679-13.537zm-784.63 1.6402c-27.194 6.7905 1.7993 19.414 7.2546 1.6518l-3.5795-1.0164-3.6753-0.63527z" fill="#e1e1e1" fill-rule="evenodd" stroke-width="2.2975"/>
 <path d="m609.71 429.38c-23.839-2.612-63.017 17.782-29.494 33.157 20.891-0.33017 30.499 18.537 4.1596 12.502-18.687 8.3523-33.289 3.6924-22.712-12.197-35.104-29.877-86.017-27.87-127.87-15.595-26.057 8.8116-16.824 19.239-1.4005 31.732-12.896-4.5507-41.239-3.3259-56.26-8.9862 11.36-19.387 34.728-3.1476 41.222-27.421-35.79-15.769-79.044-12.014-109.82 12.816-11.057 9.1706-49.515 39.025-28.373 44.416 0.14567 16.727 30.422-19.58 34.599-3.4421-19.799 8.8067-34.573 27.429-42.256 47.474-24.86 14.463 13.051-39.911 1.8376-34.174-13.295-7.8089-35.525 19.815-38.963 10.402 23.434-22.666-56.642-1.5982-19.343 8.5014-10.71 11.961 21.724 14.346 25.92 22.598 19.177-7.6189 22.481 7.4733 2.1426 8.6923-13.026 11.361-14.158 3.2238-19.611-3.6886-14.051-12.299-39.686 4.2512-44.306 2.2513 3.927-14.787 32.539-22.69 3.2736-17.31-21.478 3.9908-45.653 14.596-55.978 34.387-3.9994-7.1693-28.226-3.9313-38.16 5.3017-4.5494-5.0004-16.785 6.428 0.71116 2.3819 266.56 2.8988 533.12 1.5992 799.68 1.3028-19.815-14.829-43.392 3.7628-53.211-25.608-15.275-21.821-50.84-18.929-67.544-23.275 25.418-10.863-15.571-38.511-30.282-23.725 19.154 20.774-11.709 1.2186-20.377 6.5723-12.976-37.241-37.99-76.215-79.123-85.511-9.2805-2.3942-18.887-3.6432-28.475-3.557zm59.81 55.468c37.572 0.62146 62.823 48.877 41.26 79.805-10.161-1.9722-2.0534-46.128-21.133-55.965-1.3714-14.605-58.952-20.616-20.127-23.84zm71.121 57.87c11.746-6.6497 43.025 25.195 24.732 17.014-11.573-7.457-62.661-0.92036-28.42-16.681l3.6889-0.33308z" fill="#f3f3f3" fill-rule="evenodd" stroke-width="2.2975"/>
</svg>
