<svg version="1.1" viewBox="0 0 1000 1000" xmlns="http://www.w3.org/2000/svg">
 <path d="m711.61 142.87a42.884 42.884 0 0 0-43.051-42.804l-337.53-0.06102a42.884 42.884 0 0 0-42.804 43.051l0.16734 714.08a42.884 42.884 0 0 0 43.051 42.804l337.53 0.061a42.884 42.884 0 0 0 42.804-43.051z" fill="#303030" stroke-width="6.4975"/>
 <path d="m312.04 208.3h378.16v572.76h-378.16z" fill="#60a9dd" stroke-width="6.4975"/>
 <path d="m711.61 142.87a42.884 42.884 0 0 0-43.051-42.804l-337.53-0.06102a42.884 42.884 0 0 0-42.804 43.051l0.16734 714.08a42.884 42.884 0 0 0 43.051 42.804l337.53 0.061a42.884 42.884 0 0 0 42.804-43.051zm-392.36 631.04-0.33577-557.36 362.9-0.15954 0.33576 557.36z" fill="#303030" fill-rule="evenodd" stroke-width="6.4975"/>
 <path d="m711.61 142.87a42.884 42.884 0 0 0-43.051-42.804l-337.53-0.06102a42.884 42.884 0 0 0-42.804 43.051l0.16734 714.08a42.884 42.884 0 0 0 43.051 42.804l337.53 0.061a42.884 42.884 0 0 0 42.804-43.051zm-399.83 638.52-0.32169-572.97 377.86-0.17309 0.32169 572.97z" fill="#303030" fill-rule="evenodd" stroke-width="6.4975"/>
 <path d="m544.01 168.9a7.797 7.797 0 0 0-8.1075-8.1492l-78.038-0.0704a8.1284 8.1284 0 1 0-0.0417 16.257l78.038 0.0704a7.797 7.797 0 0 0 8.1492-8.1075zm-47.745 632.7a40.285 40.285 0 1 0 39.916 40.069 40.285 40.285 0 0 0-39.889-40.719z" fill="#585858" fill-rule="evenodd" stroke-width="6.4975"/>
 <path d="m544.01 168.9a7.797 7.797 0 0 0-8.1075-8.1492l-78.038-0.0704a8.1284 8.1284 0 1 0-0.0417 16.257l78.038 0.0704a7.797 7.797 0 0 0 8.1492-8.1075zm-47.856 635.3a37.036 37.036 0 1 0 36.808 36.685 37.036 37.036 0 0 0-36.808-36.685z" fill="#676767" fill-rule="evenodd" stroke-width="6.4975"/>
 <path d="m506.98 142.67a9.0966 9.0966 0 0 1-9.0966 9.0966 9.0966 9.0966 0 0 1-9.0966-9.0966 9.0966 9.0966 0 0 1 9.0966-9.0966 9.0966 9.0966 0 0 1 9.0966 9.0966z" fill="#414143" stroke-width="6.4975"/>
 <path d="m629.36 414.88a104.79 104.79 0 0 1-30.09 8.25 52.46 52.46 0 0 0 23-29 104.68 104.68 0 0 1-33.28 12.7 52.45 52.45 0 0 0-89.28 47.79 148.74 148.74 0 0 1-108-54.75 52.48 52.48 0 0 0 16.22 70 52.42 52.42 0 0 1-23.73-6.55v0.64a52.41 52.41 0 0 0 42 51.38 51.15 51.15 0 0 1-13.76 1.88 52 52 0 0 1-9.85-0.93 52.4 52.4 0 0 0 48.94 36.37 105.1 105.1 0 0 1-65.08 22.44 105.21 105.21 0 0 1-12.5-0.72 148.45 148.45 0 0 0 80.32 23.53c96.4 0 149.09-79.83 149.09-149.09 0-2.28 0-4.55-0.14-6.78a106.22 106.22 0 0 0 26.14-27.16" fill="#fff"/>
</svg>
