<?xml version="1.0" encoding="UTF-8" standalone="no"?>
<svg
   xmlns:dc="http://purl.org/dc/elements/1.1/"
   xmlns:cc="http://creativecommons.org/ns#"
   xmlns:rdf="http://www.w3.org/1999/02/22-rdf-syntax-ns#"
   xmlns:svg="http://www.w3.org/2000/svg"
   xmlns="http://www.w3.org/2000/svg"
   xmlns:sodipodi="http://sodipodi.sourceforge.net/DTD/sodipodi-0.dtd"
   xmlns:inkscape="http://www.inkscape.org/namespaces/inkscape"
   id="Layer_1"
   data-name="Layer 1"
   width="1000"
   height="1000"
   viewBox="0 0 1000 1000"
   version="1.1"
   sodipodi:docname="smartphone.svg"
   inkscape:version="0.92.3 (2405546, 2018-03-11)">
  <metadata
     id="metadata524">
    <rdf:RDF>
      <cc:Work
         rdf:about="">
        <dc:format>image/svg+xml</dc:format>
        <dc:type
           rdf:resource="http://purl.org/dc/dcmitype/StillImage" />
        <dc:title>records-request-california-law-personnel-file</dc:title>
      </cc:Work>
    </rdf:RDF>
  </metadata>
  <defs
     id="defs522" />
  <sodipodi:namedview
     pagecolor="#ffffff"
     bordercolor="#666666"
     borderopacity="1"
     objecttolerance="10"
     gridtolerance="10"
     guidetolerance="10"
     inkscape:pageopacity="0"
     inkscape:pageshadow="2"
     inkscape:window-width="1920"
     inkscape:window-height="1004"
     id="namedview520"
     showgrid="false"
     inkscape:zoom="0.20925347"
     inkscape:cx="2159.0935"
     inkscape:cy="458.80695"
     inkscape:window-x="0"
     inkscape:window-y="48"
     inkscape:window-maximized="1"
     inkscape:current-layer="Layer_1" />
  <title
     id="title2">records-request-california-law-personnel-file</title>
  <g
     id="g1013"
     transform="matrix(6.4916611,0.27635215,-0.27635215,6.4916611,-1057.8436,-245.60155)">
    <g
       transform="translate(-52.377411,-146.14987)"
       data-name="Ôèãóðà 1 (êîïèÿ) 4"
       id="Ôèãóðà_1_êîïèÿ_4-2">
      <path
         inkscape:connector-curvature="0"
         id="path498"
         style="fill:#303030"
         d="m 327,194.3 a 6.6,6.6 0 0 0 -6.9,-6.3 l -51.9,2.2 a 6.6,6.6 0 0 0 -6.3,6.9 l 4.7,109.8 a 6.6,6.6 0 0 0 6.9,6.3 l 51.9,-2.2 a 6.6,6.6 0 0 0 6.3,-6.9 z" />
    </g>
    <g
       transform="translate(-52.377411,-146.14987)"
       data-name="Ôèãóðà 1 (êîïèÿ) 5"
       id="Ôèãóðà_1_êîïèÿ_5">
      <rect
         id="rect501"
         style="fill:#ffffff"
         transform="rotate(-2.5,292.64078,247.10409)"
         height="88.150002"
         width="58.200001"
         y="205.8"
         x="267.79999" />
    </g>
    <g
       transform="translate(-52.377411,-146.14987)"
       style="opacity:0.2"
       data-name="Ôèãóðà 1 (êîïèÿ) 6"
       id="Ôèãóðà_1_êîïèÿ_6">
      <path
         inkscape:connector-curvature="0"
         id="path504"
         style="fill:#303030;fill-rule:evenodd"
         d="m 327,194.3 a 6.6,6.6 0 0 0 -6.9,-6.3 l -51.9,2.2 a 6.6,6.6 0 0 0 -6.3,6.9 l 4.7,109.8 a 6.6,6.6 0 0 0 6.9,6.3 l 51.9,-2.2 a 6.6,6.6 0 0 0 6.3,-6.9 z m -56.2,99.6 -3.7,-85.7 55.8,-2.4 3.7,85.7 z" />
    </g>
    <g
       transform="translate(-52.377411,-146.14987)"
       data-name="Ôèãóðà 1 (êîïèÿ) 7"
       id="Ôèãóðà_1_êîïèÿ_7">
      <path
         inkscape:connector-curvature="0"
         id="path507"
         style="fill:#303030;fill-rule:evenodd"
         d="m 327,194.3 a 6.6,6.6 0 0 0 -6.9,-6.3 l -51.9,2.2 a 6.6,6.6 0 0 0 -6.3,6.9 l 4.7,109.8 a 6.6,6.6 0 0 0 6.9,6.3 l 51.9,-2.2 a 6.6,6.6 0 0 0 6.3,-6.9 z m -57.3,100.8 -3.8,-88.1 58.1,-2.5 3.8,88.1 z" />
    </g>
    <g
       transform="translate(-52.377411,-146.14987)"
       data-name="Ôèãóðà 2 (êîïèÿ) 9"
       id="Ôèãóðà_2_êîïèÿ_9-2">
      <path
         inkscape:connector-curvature="0"
         id="path510"
         style="fill:#585858;fill-rule:evenodd"
         d="m 301.4,199.4 a 1.2,1.2 0 0 0 -1.3,-1.2 l -12,0.5 a 1.2509996,1.2509996 0 1 0 0.1,2.5 l 12,-0.5 a 1.2,1.2 0 0 0 1.2,-1.3 z m -3.2,97.6 a 6.2,6.2 0 1 0 6.4,5.9 6.2,6.2 0 0 0 -6.4,-6 z" />
    </g>
    <g
       transform="translate(-52.377411,-146.14987)"
       data-name="Ôèãóðà 2 (êîïèÿ) 11"
       id="Ôèãóðà_2_êîïèÿ_11">
      <path
         inkscape:connector-curvature="0"
         id="path513"
         style="fill:#676767;fill-rule:evenodd"
         d="m 301.4,199.4 a 1.2,1.2 0 0 0 -1.3,-1.2 l -12,0.5 a 1.2509996,1.2509996 0 1 0 0.1,2.5 l 12,-0.5 a 1.2,1.2 0 0 0 1.2,-1.3 z m -3.2,98 a 5.7,5.7 0 1 0 5.9,5.4 5.7,5.7 0 0 0 -5.9,-5.4 z" />
    </g>
    <g
       transform="translate(-52.377411,-146.14987)"
       data-name="Ôèãóðà 3 (êîïèÿ) 4"
       id="Ôèãóðà_3_êîïèÿ_4-2">
      <circle
         id="circle516"
         style="fill:#414143"
         transform="rotate(-2.5,291.49932,194.35034)"
         r="1.4"
         cy="195.7"
         cx="294.10001" />
    </g>
  </g>
</svg>
