<svg version="1.1" viewBox="0 0 1e3 1e3" xmlns="http://www.w3.org/2000/svg">
 <path d="m296.27 543.59-189.22-3.4435 3.0135-90.444 189.22 3.4435z" fill="#f7f5e9" stroke-width="39.015"/>
 <path d="m296.27 543.59-189.22-3.4435 3.0135-90.444 189.22 3.4435z" fill="none" stroke="#a6a6a6" stroke-miterlimit="10" stroke-width="13.885"/>
 <path d="m268.57 495.56c0.91032-173.82 146.85-315.89 320.04-311.12 173.82 0.9107 315.89 146.85 311.12 320.04-0.91031 173.82-146.85 315.89-320.04 311.12-177.67-1.544-316.52-143-311.12-320.04" fill="#a6a6a6" stroke-width="39.015"/>
 <path d="m283.92 498.1c3.4942-165.49 139.83-297.27 301.47-294.41 165.49 3.4942 297.27 139.83 294.41 301.47-3.4942 165.49-139.83 297.27-301.47 294.41-165.49-3.4942-297.27-139.83-294.41-301.47" fill="#f7f5e9" stroke-width="39.015"/>
 <path d="m323.7 496.7c3.545-141.76 121.32-256.82 263.07-253.28 141.76 3.5446 256.82 121.32 253.28 263.07-3.5446 141.76-121.32 256.82-263.07 253.28-141.76-3.545-252.97-120.68-253.28-263.07" fill="#d4d4d4" stroke-width="39.015"/>
 <path d="m348.72 488.97c2.2785-134.06 106.6-239.47 236.81-237.83 126.36 1.0124 230.5 113.03 228.23 247.09-2.2785 134.06-107.24 243.32-236.81 237.83-126.36-1.0124-230.5-113.03-228.23-247.09" fill="#806657" stroke-width="39.015"/>
 <path d="m362.88 499.19c0.37901-122.51 103.44-220.22 225.31-216 122.51 0.37901 220.22 103.44 216 225.31-0.37901 122.51-103.44 220.22-225.31 216-121.88-4.2288-220.22-103.44-216-225.31" fill="#593017" stroke-width="39.015"/>
 <path d="m407.39 490.76c1.0628-102.63 85.555-183.62 187.55-178.71 102.63 1.0632 179.77 84.92 179.35 183.7-1.0632 102.63-85.555 183.62-187.55 178.71-98.776-0.42996-179.77-84.92-179.35-183.7" fill="#381e0e" stroke-width="39.015"/>
 <path d="m479.04 656.74c-5.8-12.816-0.0509-23.732 12.765-29.532 12.816-5.8 23.732-0.0508 29.532 12.765 5.8 12.816 0.0508 23.732-12.765 29.532-12.816 5.8-27.582-0.58235-29.532-12.765" fill="#ccae7e" stroke-width="39.015"/>
 <path d="m528.44 668.83c-3.2153-4.4831 1.8979-11.549 5.7496-10.916 4.4826-3.2166 11.549 1.8995 10.916 5.7492 3.2153 4.4831-1.8979 11.549-5.7492 10.916-4.483 3.2166-12.182 1.9503-10.916-5.7492" fill="#ccae7e" stroke-width="39.015"/>
 <path d="m571.56 671.94c-3.2153-4.4831 1.2666-7.6994 5.7492-10.916 4.483-3.2166 7.6994 1.2663 10.916 5.7492 3.2153 4.4831-1.2666 7.6995-5.7496 10.916-3.8505-0.63312-11.549-1.8995-10.916-5.7492" fill="#ccae7e" stroke-width="39.015"/>
 <path d="m756.96 433.57c-3.2153-4.4831 1.2666-7.6994 5.7492-10.916 4.483-3.2164 7.6998 1.2662 10.916 5.7492 3.2153 4.4831-1.2666 7.6994-5.7492 10.916-3.8505-0.63325-7.6998-1.2662-10.916-5.7492" fill="#ccae7e" stroke-width="39.015"/>
 <path d="m771.69 463.68c-3.2153-4.4831 1.8979-11.549 6.3824-14.766 4.483-3.2164 11.549 1.8994 14.766 6.3824 3.2153 4.4831-1.8979 11.549-6.3824 14.766-8.3327 2.5836-11.55-1.8994-14.766-6.3824" fill="#ccae7e" stroke-width="39.015"/>
 <path d="m545.35 687.38c-3.2153-4.4831 1.8979-11.549 6.3824-14.766 4.483-3.2166 11.55 1.8995 14.766 6.3824 3.2153 4.4831-1.8979 11.549-6.3824 14.766-4.483 3.2166-12.182 1.9503-14.766-6.3824" fill="#ccae7e" stroke-width="39.015"/>
</svg>
