<?xml version="1.0" encoding="UTF-8" standalone="no"?>
<svg
   xmlns:dc="http://purl.org/dc/elements/1.1/"
   xmlns:cc="http://creativecommons.org/ns#"
   xmlns:rdf="http://www.w3.org/1999/02/22-rdf-syntax-ns#"
   xmlns:svg="http://www.w3.org/2000/svg"
   xmlns="http://www.w3.org/2000/svg"
   xmlns:xlink="http://www.w3.org/1999/xlink"
   xmlns:sodipodi="http://sodipodi.sourceforge.net/DTD/sodipodi-0.dtd"
   xmlns:inkscape="http://www.inkscape.org/namespaces/inkscape"
   version="1.1"
   viewBox="0 0 1000 1000"
   id="svg134"
   sodipodi:docname="coffee.svg"
   inkscape:version="0.92.3 (2405546, 2018-03-11)">
  <metadata
     id="metadata140">
    <rdf:RDF>
      <cc:Work
         rdf:about="">
        <dc:format>image/svg+xml</dc:format>
        <dc:type
           rdf:resource="http://purl.org/dc/dcmitype/StillImage" />
      </cc:Work>
    </rdf:RDF>
  </metadata>
  <defs
     id="defs138" />
  <sodipodi:namedview
     pagecolor="#ffffff"
     bordercolor="#666666"
     borderopacity="1"
     objecttolerance="10"
     gridtolerance="10"
     guidetolerance="10"
     inkscape:pageopacity="0"
     inkscape:pageshadow="2"
     inkscape:window-width="1920"
     inkscape:window-height="1004"
     id="namedview136"
     showgrid="false"
     inkscape:zoom="0.236"
     inkscape:cx="512.71186"
     inkscape:cy="500"
     inkscape:window-x="0"
     inkscape:window-y="48"
     inkscape:window-maximized="1"
     inkscape:current-layer="svg134" />
  <style
     type="text/css"
     id="style2">.st0{fill:#0095EC;fill-opacity:0.9922;}
	.st1{fill:#A88CD0;}
	.st2{opacity:0.6;clip-path:url(#SVGID_2_);}
	.st3{fill:#B395DD;}
	.st4{fill:#66666B;}
	.st5{fill:#3A3A3D;}
	.st6{fill:#872237;}
	.st7{opacity:0.3;clip-path:url(#SVGID_4_);}
	.st8{fill:#434147;}
	.st9{fill:#00687E;}
	.st10{fill:#0093B1;}
	.st11{opacity:0.5;clip-path:url(#SVGID_6_);}
	.st12{fill:#F0EEE2;}
	.st13{fill:#C2BFB7;}
	.st14{fill:#E6E3D9;}
	.st15{fill:#B0AD9F;}
	.st16{fill:#556873;}
	.st17{fill:#76909F;}
	.st18{fill:#A3A7A8;}
	.st19{fill:#DCE1E3;}
	.st20{fill:#EEC19C;}
	.st21{fill:#B52126;}
	.st22{fill:#FCCDA5;}
	.st23{fill:#2B1F0C;}
	.st24{opacity:0.5;clip-path:url(#SVGID_8_);}
	.st25{fill:#F7F5E9;}
	.st26{fill:none;stroke:#A6A6A6;stroke-width:0.3559;stroke-miterlimit:10;}
	.st27{fill:#A6A6A6;}
	.st28{fill:#D4D4D4;}
	.st29{fill:#806657;}
	.st30{fill:#593017;}
	.st31{fill:#381E0E;}
	.st32{fill:#CCAE7E;}
	.st33{opacity:0.5;clip-path:url(#SVGID_10_);}
	.st34{fill:#757575;}
	.st35{fill:#0B426E;}
	.st36{fill:#4E94CF;}
	.st37{fill:#386B95;}
	.st38{fill:#A0A96A;}
	.st39{fill:#8C8B8B;}
	.st40{fill:none;stroke:#666565;stroke-width:0.2148;stroke-linecap:round;stroke-linejoin:round;stroke-miterlimit:10;}
	.st41{fill:#E5952E;}
	.st42{fill:#D4CCC0;}
	.st43{fill:#FFBD69;}
	.st44{fill:#666565;}
	.st45{opacity:0.5;clip-path:url(#SVGID_12_);}
	.st46{fill:#E3C63B;}
	.st47{fill:#1498C3;}
	.st48{fill:#EBD467;}
	.st49{fill:#18B9ED;}
	.st50{opacity:0.5;clip-path:url(#SVGID_14_);}
	.st51{fill:#C9C4B8;}
	.st52{fill:#FFFFFF;}
	.st53{opacity:0.5;clip-path:url(#SVGID_16_);}
	.st54{fill:#FBF8EC;}
	.st55{fill:#C4C3B9;}
	.st56{fill:#E0DED3;}
	.st57{fill:#B5D1E8;}
	.st58{opacity:0.5;clip-path:url(#SVGID_18_);}
	.st59{fill:#00587E;}
	.st60{fill:#007BB0;}
	.st61{opacity:0.5;clip-path:url(#SVGID_20_);}
	.st62{fill:#DBD5C8;}
	.st63{opacity:0.5;clip-path:url(#SVGID_22_);}
	.st64{fill:#EDE6D8;}
	.st65{opacity:0.5;clip-path:url(#SVGID_24_);}
	.st66{fill:#804508;}
	.st67{fill:#24AFFF;}
	.st68{fill:#00E62E;}
	.st69{fill:#FFED24;}
	.st70{fill:#FF73A5;}
	.st71{fill:#D6750D;}
	.st72{fill:#BFBFBF;}
	.st73{fill:#997B42;}
	.st74{fill:#DDB260;}
	.st75{fill:#A18146;}
	.st76{fill:#C4BFB3;}
	.st77{clip-path:url(#SVGID_26_);}
	.st78{fill:#A6A298;}
	.st79{fill:#704831;}
	.st80{fill:#945F40;}
	.st81{fill:#523523;}
	.st82{fill:#704931;}
	.st83{fill:#2AB466;}
	.st84{fill:none;}
	.st85{opacity:0.5;clip-path:url(#SVGID_28_);}
	.st86{fill:#B38B4E;}
	.st87{fill:#DEC861;}
	.st88{fill:#CCC5B8;}
	.st89{fill:none;stroke:#B38B4E;stroke-width:0.424;stroke-miterlimit:10;}
	.st90{fill:#707070;}
	.st91{fill:#B5A450;}
	.st92{fill:#F9F9F9;}
	.st93{fill:#C47A5E;}
	.st94{fill:#9E614C;}
	.st95{opacity:0.2;clip-path:url(#SVGID_30_);}
	.st96{opacity:0.2;clip-path:url(#SVGID_32_);}
	.st97{opacity:0.2;clip-path:url(#SVGID_34_);}
	.st98{opacity:0.2;clip-path:url(#SVGID_36_);}
	.st99{fill:#8A623D;}
	.st100{clip-path:url(#SVGID_38_);}
	.st101{fill-opacity:0.1961;}
	.st102{fill:#FFD3A3;}
	.st103{clip-path:url(#SVGID_40_);}
	.st104{clip-path:url(#SVGID_42_);}
	.st105{fill:#F5C795;}
	.st106{clip-path:url(#SVGID_44_);}
	.st107{fill:#A18374;}
	.st108{fill:#A67649;}
	.st109{fill:#8AA6AB;}
	.st110{fill:#222625;}
	.st111{fill:#0E1210;}
	.st112{fill:#3C403F;}
	.st113{fill:#1D2421;}
	.st114{fill:#9E4E34;}
	.st115{fill:#CC6543;}
	.st116{fill:#FFFFFF;fill-opacity:0.1961;}
	.st117{fill:#241E1B;}
	.st118{fill:#DB854B;}
	.st119{fill:#9C5C2F;}
	.st120{fill:#7D3B24;}
	.st121{fill:#1A79A3;}
	.st122{fill:#AD5F42;}
	.st123{fill:#8F513B;}
	.st124{opacity:0.2;clip-path:url(#SVGID_46_);}
	.st125{opacity:0.2;clip-path:url(#SVGID_48_);}
	.st126{opacity:0.2;clip-path:url(#SVGID_50_);}
	.st127{opacity:0.2;clip-path:url(#SVGID_52_);}
	.st128{fill:#FED2A3;}
	.st129{clip-path:url(#SVGID_54_);}
	.st130{fill:#EDEDED;}
	.st131{fill:#F5CA9D;}
	.st132{opacity:0.4;clip-path:url(#SVGID_56_);}
	.st133{opacity:0.4;clip-path:url(#SVGID_58_);}
	.st134{fill:#8FACB5;}
	.st135{fill:#A87F68;}
	.st136{clip-path:url(#SVGID_60_);}
	.st137{fill:#B6CACF;}
	.st138{clip-path:url(#SVGID_62_);}
	.st139{fill:#FAFAFA;}
	.st140{fill:#91827A;}
	.st141{fill:#B15634;}
	.st142{fill:#943817;}
	.st143{fill:#D4AA00;}
	.st144{fill:#AA8800;}
	.st145{fill:#333333;}
	.st146{fill:#8E7300;}</style>
  <g
     transform="matrix(-1.25,0,0,-1.25,662.30055,946.58)"
     id="g132">
    <defs
       id="defs5">
      <rect
         id="SVGID_1_"
         x="-286.20001"
         y="13.4"
         width="163.2"
         height="190" />
    </defs>
    <clipPath
       id="SVGID_2_">
      <use
         width="100%"
         height="100%"
         xlink:href="#SVGID_1_"
         id="use7"
         x="0"
         y="0" />
    </clipPath>
    <g
       class="st2"
       transform="matrix(-1.603,0,0,1.603,-42.733,-42.732)"
       clip-path="url(#SVGID_2_)"
       id="g14"
       style="opacity:0.6">
      <g
         transform="translate(68.506,46.889)"
         id="g12">
        <path
           class="st3"
           d="M 0,0 -8.2,94.8 H 26.7 C 32.3,70.9 50.4,52.2 73.2,45.3 v -39 z"
           id="path10"
           inkscape:connector-curvature="0"
           style="fill:#b395dd" />
      </g>
    </g>
    <defs
       id="defs17">
      <rect
         id="SVGID_3_"
         x="-287.79999"
         y="-2"
         width="179.10001"
         height="207.2" />
    </defs>
    <clipPath
       id="SVGID_4_">
      <use
         width="100%"
         height="100%"
         xlink:href="#SVGID_3_"
         id="use19"
         x="0"
         y="0" />
    </clipPath>
    <g
       class="st7"
       transform="matrix(-1.603,0,0,1.603,-42.733,-42.732)"
       clip-path="url(#SVGID_4_)"
       id="g26"
       style="opacity:0.3">
      <g
         transform="translate(61.316,38.334)"
         id="g24">
        <path
           class="st8"
           d="M 0,0 -9,103.4 H 26.8 C 32.7,75.6 53.8,54 80.4,46.8 V 7 Z"
           id="path22"
           inkscape:connector-curvature="0"
           style="fill:#434147" />
      </g>
    </g>
    <defs
       id="defs29">
      <rect
         id="SVGID_5_"
         x="-237.89999"
         y="54.400002"
         width="96.099998"
         height="96.099998" />
    </defs>
    <clipPath
       id="SVGID_6_">
      <use
         width="100%"
         height="100%"
         xlink:href="#SVGID_5_"
         id="use31"
         x="0"
         y="0" />
    </clipPath>
    <g
       class="st11"
       transform="matrix(-1.603,0,0,1.603,-42.733,-42.732)"
       clip-path="url(#SVGID_6_)"
       id="g38"
       style="opacity:0.5">
      <g
         transform="translate(93.854,67.469)"
         id="g36">
        <path
           class="st8"
           d="m 0,0 c -1.2,-1.2 -3.1,-1.2 -4.3,0 l -20.9,20.9 c -1.2,1.2 -1.2,3.1 0,4.3 l 21,21 c 1.2,1.2 3.1,1.2 4.3,0 L 21,25.3 c 1.2,-1.2 1.2,-3.1 0,-4.3 z"
           id="path34"
           inkscape:connector-curvature="0"
           style="fill:#434147" />
      </g>
    </g>
    <g
       transform="matrix(31.176,-1.4984,1.4984,31.176,4410.5,-162.69)"
       id="g70">
      <path
         class="st25"
         d="m -132.52,9.1901 4.8401,0.32099 -0.18844,2.3118 -4.8401,-0.32099 z"
         id="path40"
         inkscape:connector-curvature="0"
         style="fill:#f7f5e9" />
      <path
         class="st26"
         d="m -132.52,9.1901 4.8401,0.32099 -0.18844,2.3118 -4.8401,-0.32099 z"
         stroke-miterlimit="10"
         id="path42"
         inkscape:connector-curvature="0"
         style="fill:none;stroke:#a6a6a6;stroke-width:0.35589999;stroke-miterlimit:10" />
      <path
         class="st27"
         d="m -131.87,10.454 c -0.23719,4.449 -4.1482,7.9065 -8.5763,7.5715 -4.449,-0.2372 -7.9065,-4.1482 -7.5715,-8.5763 0.23719,-4.449 4.1482,-7.9065 8.5763,-7.5715 4.5468,0.25815 7.9274,4.0504 7.5715,8.5763"
         id="path44"
         inkscape:connector-curvature="0"
         style="fill:#a6a6a6" />
      <path
         class="st25"
         d="m -132.26,10.37 c -0.29309,4.2325 -3.9457,7.4385 -8.0804,7.1664 -4.2325,-0.29309 -7.4385,-3.9457 -7.1664,-8.0804 0.29309,-4.2325 3.9457,-7.4385 8.0804,-7.1664 4.2325,0.29309 7.4385,3.9457 7.1664,8.0804"
         id="path46"
         inkscape:connector-curvature="0"
         style="fill:#f7f5e9" />
      <path
         class="st28"
         d="m -133.28,10.357 c -0.26519,3.6249 -3.4219,6.4258 -7.0468,6.1606 -3.6249,-0.26518 -6.4258,-3.4219 -6.1606,-7.0468 0.26518,-3.6249 3.4219,-6.4258 7.0468,-6.1606 3.6249,0.26519 6.328,3.401 6.1606,7.0468"
         id="path48"
         inkscape:connector-curvature="0"
         style="fill:#d4d4d4" />
      <path
         class="st29"
         d="m -133.93,10.524 c -0.22329,3.4293 -3.0238,5.9997 -6.3554,5.7974 -3.2337,-0.1814 -5.7622,-3.1775 -5.539,-6.6068 0.22329,-3.4293 3.0448,-6.0975 6.3554,-5.7974 3.2337,0.1814 5.7622,3.1775 5.539,6.6068"
         id="path50"
         inkscape:connector-curvature="0"
         style="fill:#806657" />
      <path
         class="st30"
         d="m -134.28,10.245 c -0.16045,3.136 -2.9191,5.5108 -6.0341,5.2526 -3.136,-0.16045 -5.5108,-2.9191 -5.2526,-6.0341 0.16045,-3.136 2.9191,-5.5108 6.0341,-5.2526 3.115,0.25823 5.5108,2.9191 5.2526,6.0341"
         id="path52"
         inkscape:connector-curvature="0"
         style="fill:#593017" />
      <path
         class="st31"
         d="m -135.43,10.406 c -0.15349,2.6261 -2.4163,4.5958 -5.0214,4.3445 -2.6261,-0.1535 -4.498,-2.3953 -4.3655,-4.9237 0.1535,-2.6261 2.4163,-4.5958 5.0215,-4.3445 2.5283,0.13255 4.498,2.3953 4.3655,4.9237"
         id="path54"
         inkscape:connector-curvature="0"
         style="fill:#381e0e" />
      <g
         id="g68"
         style="fill:#ccae7e">
        <path
           class="st32"
           d="m -137.06,6.0684 c 0.13272,0.33524 -0.0279,0.60764 -0.36314,0.74036 -0.33524,0.13272 -0.60764,-0.027901 -0.74036,-0.36314 -0.13272,-0.33524 0.0279,-0.60764 0.36314,-0.74036 0.33524,-0.13272 0.70542,0.048848 0.74036,0.36314"
           id="path56"
           inkscape:connector-curvature="0"
           style="fill:#ccae7e" />
        <path
           class="st32"
           d="m -138.31,5.6983 c 0.0768,0.11873 -0.0628,0.29334 -0.16063,0.2724 -0.11872,0.076835 -0.29334,-0.062841 -0.27239,-0.16062 -0.0768,-0.11873 0.0628,-0.29334 0.16062,-0.2724 0.11873,-0.076834 0.31429,-0.03494 0.2724,0.16062"
           id="path58"
           inkscape:connector-curvature="0"
           style="fill:#ccae7e" />
        <path
           class="st32"
           d="m -139.41,5.5656 c 0.0768,0.11873 -0.0419,0.19556 -0.16062,0.2724 -0.11873,0.076834 -0.19556,-0.041894 -0.2724,-0.16062 -0.0768,-0.11873 0.0419,-0.19556 0.16063,-0.2724 0.0978,0.020947 0.29334,0.062841 0.27239,0.16062"
           id="path60"
           inkscape:connector-curvature="0"
           style="fill:#ccae7e" />
        <path
           class="st32"
           d="m -144.45,11.44 c 0.0768,0.11873 -0.0419,0.19556 -0.16062,0.2724 -0.11873,0.07683 -0.19557,-0.04189 -0.2724,-0.16062 -0.0768,-0.11873 0.0419,-0.19556 0.16062,-0.2724 0.0978,0.02095 0.19557,0.04189 0.2724,0.16062"
           id="path62"
           inkscape:connector-curvature="0"
           style="fill:#ccae7e" />
        <path
           class="st32"
           d="m -144.79,10.651 c 0.0768,0.11873 -0.0628,0.29334 -0.18157,0.37018 -0.11873,0.07683 -0.29334,-0.06284 -0.37018,-0.18157 -0.0768,-0.11873 0.0628,-0.29334 0.18157,-0.37018 0.21651,-0.05589 0.29335,0.06284 0.37018,0.18157"
           id="path64"
           inkscape:connector-curvature="0"
           style="fill:#ccae7e" />
        <path
           class="st32"
           d="m -138.72,5.2024 c 0.0768,0.11873 -0.0628,0.29334 -0.18157,0.37018 -0.11873,0.076834 -0.29335,-0.062841 -0.37018,-0.18157 -0.0768,-0.11873 0.0628,-0.29334 0.18157,-0.37018 0.11873,-0.076834 0.31429,-0.03494 0.37018,0.18157"
           id="path66"
           inkscape:connector-curvature="0"
           style="fill:#ccae7e" />
      </g>
    </g>
    <defs
       id="defs73">
      <rect
         id="SVGID_9_"
         x="-172.8"
         y="119.2"
         width="29.5"
         height="24.4" />
    </defs>
    <clipPath
       id="SVGID_10_">
      <use
         width="100%"
         height="100%"
         xlink:href="#SVGID_9_"
         id="use75"
         x="0"
         y="0" />
    </clipPath>
    <g
       class="st33"
       transform="matrix(-1.603,0,0,1.603,-42.733,-42.732)"
       clip-path="url(#SVGID_10_)"
       id="g82"
       style="opacity:0.5">
      <g
         transform="translate(64.601,109.66)"
         id="g80">
        <path
           class="st34"
           d="M 0,0 2.4,-6.5 C 2.5,-7 3.1,-7.3 3.5,-7.1 l 0.4,0.2 10.1,3.6 c 0.5,0.2 0.7,0.7 0.5,1.2 L 12.1,4.4 C 11.9,4.9 11.4,5.1 10.9,5 L 1,1.3 0.5,1.2 C 0.1,1 -0.2,0.5 0,0"
           id="path78"
           inkscape:connector-curvature="0"
           style="fill:#757575" />
      </g>
    </g>
    <defs
       id="defs85">
      <rect
         id="SVGID_11_"
         x="-163.60001"
         y="168"
         width="33.799999"
         height="8.3000002" />
    </defs>
    <clipPath
       id="SVGID_12_">
      <use
         width="100%"
         height="100%"
         xlink:href="#SVGID_11_"
         id="use87"
         x="0"
         y="0" />
    </clipPath>
    <g
       class="st45"
       transform="matrix(-1.603,0,0,1.603,-42.733,-42.732)"
       clip-path="url(#SVGID_12_)"
       id="g94"
       style="opacity:0.5">
      <g
         transform="translate(58.008,131.98)"
         id="g92">
        <path
           class="st8"
           d="M 0,0 15.3,3.2 15.2,3.5 V 3.7 L 15.1,4.2 -0.2,1 -1.1,0.5 -1.6,0.2 Z"
           id="path90"
           inkscape:connector-curvature="0"
           style="fill:#434147" />
      </g>
    </g>
    <defs
       id="defs97">
      <polygon
         id="SVGID_13_"
         points="-174.3,139.3 -174.3,152.2 -183.6,152.2 -183.6,139.3 " />
    </defs>
    <clipPath
       id="SVGID_14_">
      <use
         width="100%"
         height="100%"
         xlink:href="#SVGID_13_"
         id="use99"
         x="0"
         y="0" />
    </clipPath>
    <g
       class="st50"
       transform="matrix(-1.603,0,0,1.603,-42.733,-42.732)"
       clip-path="url(#SVGID_14_)"
       id="g106"
       style="opacity:0.5">
      <g
         transform="translate(83.451,120.38)"
         id="g104">
        <path
           class="st8"
           d="M 0,0 C 0.5,0.9 1.3,1.5 2.3,1.2 L 3.2,0.9 C 4.2,0.6 4.5,-0.4 4.4,-1.4 4.2,-2.5 3.6,-4.6 3,-5.6 2.6,-6.4 1.7,-7.1 0.7,-6.7 l -0.9,0.3 c -1,0.3 -1.3,1.3 -1.2,2.3 0.2,1 0.9,3.1 1.4,4.1"
           id="path102"
           inkscape:connector-curvature="0"
           style="fill:#434147" />
      </g>
    </g>
    <defs
       id="defs109">
      <rect
         id="SVGID_15_"
         x="-157.8"
         y="139.7"
         width="30.5"
         height="21.4" />
    </defs>
    <clipPath
       id="SVGID_16_">
      <use
         width="100%"
         height="100%"
         xlink:href="#SVGID_15_"
         id="use111"
         x="0"
         y="0" />
    </clipPath>
    <g
       class="st53"
       transform="matrix(-1.603,0,0,1.603,-42.733,-42.732)"
       clip-path="url(#SVGID_16_)"
       id="g118"
       style="opacity:0.5">
      <g
         transform="translate(55.31,125.01)"
         id="g116">
        <path
           class="st8"
           d="m 0,0 c -0.1,0 -0.1,0 0,0 -0.1,0 -0.1,-0.1 -0.1,-0.1 v -0.1 -0.1 -0.5 h -0.4 c 0,0 -0.1,0 -0.1,-0.1 0,0 0,-0.1 0.1,-0.1 h 0.4 v -0.1 h -0.4 c 0,0 -0.1,0 -0.1,-0.1 0,0 0,-0.1 0.1,-0.1 h 0.4 v -0.8 h -0.4 c 0,0 -0.1,0 -0.1,-0.1 0,0 0,-0.1 0.1,-0.1 h 0.4 v -0.1 h -0.4 c 0,0 -0.1,0 -0.1,-0.1 0,0 0,-0.1 0.1,-0.1 h 0.4 L 0,-3 h -0.4 c 0,0 -0.1,0 -0.1,-0.1 0,0 0,-0.1 0.1,-0.1 H 0 v -0.1 h -0.4 c 0,0 -0.1,0 -0.1,-0.1 0,0 0,-0.1 0.1,-0.1 H 0 v -0.8 h -0.4 c 0,0 -0.1,0 -0.1,-0.1 0,0 0,-0.1 0.1,-0.1 H 0 v -0.1 h -0.4 c 0,0 -0.1,0 -0.1,-0.1 0,-0.1 0,-0.1 0.1,-0.1 H 0 v -0.8 h -0.4 c 0,0 -0.1,0 -0.1,-0.1 0,0 0,-0.1 0.1,-0.1 H 0 v -0.1 h -0.4 c 0,0 -0.1,0 -0.1,-0.1 0,0 0,-0.1 0.1,-0.1 H 0 v -0.8 h -0.4 c 0,0 -0.1,0 -0.1,-0.1 0,0 0,-0.1 0.1,-0.1 H 0 v -0.1 h -0.4 c 0,0 -0.1,0 -0.1,-0.1 0,0 0,-0.1 0.1,-0.1 H 0 v -0.8 h -0.4 c 0,0 -0.1,0 -0.1,-0.1 0,0 0,-0.1 0.1,-0.1 H 0 v -0.1 h -0.4 c 0,0 -0.1,0 -0.1,-0.1 0,0 0,-0.1 0.1,-0.1 H 0 v -0.8 h -0.4 c 0,0 -0.1,0 -0.1,-0.1 0,0 0,-0.1 0.1,-0.1 H 0 v -0.1 h -0.4 c 0,0 -0.1,0 -0.1,-0.1 0,0 0,-0.1 0.1,-0.1 H 0 v -0.5 -0.1 -0.1 l 13,0.7 h 0.8 c 0.1,0 0.2,0.1 0.2,0.2 l -0.5,9.5 c 0,0.1 -0.1,0.2 -0.2,0.2 H 12.5 L 0,0"
           id="path114"
           inkscape:connector-curvature="0"
           style="fill:#434147" />
      </g>
    </g>
    <defs
       id="defs121">
      <rect
         id="SVGID_17_"
         x="-177.7"
         y="161.5"
         width="31"
         height="16.6" />
    </defs>
    <clipPath
       id="SVGID_18_">
      <use
         width="100%"
         height="100%"
         xlink:href="#SVGID_17_"
         id="use123"
         x="0"
         y="0" />
    </clipPath>
    <g
       class="st58"
       transform="matrix(-1.603,0,0,1.603,-42.733,-42.732)"
       clip-path="url(#SVGID_18_)"
       id="g130"
       style="opacity:0.5">
      <g
         transform="translate(67.967,129.59)"
         id="g128">
        <path
           class="st8"
           d="M 0,0 -1.2,-1.2 0.4,-0.9 14.3,6.2 14.2,6.4 14,6.9 13.9,7.1 Z"
           id="path126"
           inkscape:connector-curvature="0"
           style="fill:#434147" />
      </g>
    </g>
  </g>
</svg>
