<svg version="1.1" viewBox="0 0 1e3 1e3" xmlns="http://www.w3.org/2000/svg">
 <path d="m287.28 204.24 18.846-41.75 7.8971 45.534s-1.3615 7.1518-15.665 4.4288c-12.44-1.0605-11.079-8.2122-11.079-8.2122" fill="#e3c63b" stroke-width="17.658"/>
 <path d="m221.86 639.49 26.744 3.7836 65.325-437.01-26.744-3.7836z" fill="#1498c3" stroke-width="17.658"/>
 <path d="m301.64 176.9 6.3491-12.741 2.6659 15.765z" fill="#1498c3" stroke-width="17.658"/>
 <path d="m294.44 205.6 13.458-43.211-1.0174 44.272s-1.3615 7.1518-8.5133 5.7902c-5.2885 0.30099-3.927-6.8508-3.927-6.8508" fill="#ebd467" stroke-width="17.658"/>
 <path d="m301.64 176.9 6.3491-12.741 2.6659 15.765z" fill="#1498c3" stroke-width="17.658"/>
 <path d="m229.01 640.86 12.541 2.8234 65.325-437.01-12.541-2.8234z" fill="#18b9ed" stroke-width="17.658"/>
 <path d="m501.87 121.29-0.28533 367.88c0.20067 3.5258 2.0639 5.1882 5.5895 4.9875l268.86 0.61533c3.5258-0.20067 5.1882-2.0639 4.9875-5.5895l0.28532-367.88-0.10038-1.7629-0.20075-3.5258-1.8632-1.6625-1.7629 0.10037-268.86-0.61531-1.7629 0.10038s-1.7629 0.10037-1.6625 1.8632l0.10038 1.7629c-3.4254 1.9635-3.4254 1.9635-3.325 3.7264-0.10038-1.7629 0 0 0 0" fill="#fbf8ec" stroke-width="17.658"/>
 <path d="m500.52 501.6 0.60199 10.577c0.20066 3.5258 2.0639 5.1882 5.6899 6.7504l268.86 0.61531c3.5258-0.20066 5.1882-2.0639 4.9875-5.5895l-0.60199-10.577c0.20067 3.5258-3.2247 5.4892-4.9875 5.5895l-268.86-0.61531c-1.8632-1.6625-5.5895-4.9876-5.6899-6.7504" fill="#c4c3b9" stroke-width="17.658"/>
 <path d="m501.58 489.17 0.60199 10.577c0.20066 3.5258 2.0639 5.1882 5.5895 4.9875l268.86 0.61532c3.5258-0.20066 5.1882-2.0639 4.9875-5.5895l-0.60199-10.577c0.20066 3.5258-3.2248 5.4892-4.9875 5.5895l-268.86-0.61533c-3.5258 0.20066-5.3889-1.4619-5.5895-4.9875" fill="#e0ded3" stroke-width="17.658"/>
 <path d="m749.01 144.37 14.102-0.80265-0.80265-14.102-14.102 0.80265z" fill="#c4c3b9" stroke-width="17.658"/>
 <path d="m717.07 142.64 14.102-0.80265-0.80265-14.102-14.102 0.80265z" fill="#c4c3b9" stroke-width="17.658"/>
 <path d="m683.48 142.79 14.102-0.80265-0.80265-14.102-14.102 0.80266z" fill="#c4c3b9" stroke-width="17.658"/>
 <path d="m649.88 142.93 14.102-0.80265-0.80265-14.102-14.102 0.80265z" fill="#c4c3b9" stroke-width="17.658"/>
 <path d="m618.06 142.98 14.102-0.80265-0.80265-14.102-14.102 0.80265z" fill="#c4c3b9" stroke-width="17.658"/>
 <path d="m584.46 143.12 14.102-0.80265-0.80265-14.102-14.102 0.80265z" fill="#c4c3b9" stroke-width="17.658"/>
 <path d="m550.87 143.26 14.102-0.80265-0.80265-14.102-14.102 0.80265z" fill="#c4c3b9" stroke-width="17.658"/>
 <path d="m517.27 143.4 14.102-0.80265-0.80265-14.102-14.102 0.80265z" fill="#c4c3b9" stroke-width="17.658"/>
 <path d="m753.9 137.02s1.7629-0.10037 0 0l1.6194-33.695c-0.10037-1.7629-0.10037-1.7629-1.8632-1.6625-1.7629 0.10037-1.7629 0.10037-1.6625 1.8632l1.9062 33.494c-1.7629 0.10037-1.7629 0.10037 0 0" fill="#8c8b8b" stroke-width="17.658"/>
 <path d="m760.94 136.6s1.7629-0.10037 0 0l1.6194-33.695c-0.10037-1.7629-0.10037-1.7629-1.8631-1.6625 0 0-1.7629 0.10037-1.6625 1.8632l1.9062 33.494c-1.7629 0.10037-1.7629 0.10037 0 0" fill="#8c8b8b" stroke-width="17.658"/>
 <path d="m720.2 135.39s1.7629-0.10037 0 0l1.6194-33.695c-0.10038-1.7629-0.10038-1.7629-1.8632-1.6625 0 0-1.7629 0.10037-1.6625 1.8632l1.9062 33.494c-1.7629 0.10037-1.7629 0.10037 0 0" fill="#8c8b8b" stroke-width="17.658"/>
 <path d="m727.36 136.76c1.7629-0.10038 1.6625-1.8632 0 0l1.6194-33.695c-0.10038-1.7629-0.10038-1.7629-1.8631-1.6625-1.7629 0.10037-1.7629 0.10037-1.6625 1.8631l1.9062 33.494c-1.8631-1.6625-1.7629 0.10038 0 0" fill="#8c8b8b" stroke-width="17.658"/>
 <path d="m686.61 135.53c1.7629-0.10037 1.7629-0.10037 0 0l1.6194-33.695c-0.10038-1.7629-0.10038-1.7629-1.8632-1.6625-1.7629 0.10037-1.7629 0.10037-1.6625 1.8631l1.9062 33.494c-1.7629 0.10038 0 0 0 0" fill="#8c8b8b" stroke-width="17.658"/>
 <path d="m693.76 136.89c1.7629-0.10037 1.6625-1.8632 0 0l1.6194-33.695s-0.10037-1.7629-1.8631-1.6625c-1.7629 0.10037-1.7629 0.10037-1.6625 1.8632l1.9062 33.494c-1.8632-1.6625 0 0 0 0" fill="#8c8b8b" stroke-width="17.658"/>
 <path d="m654.77 135.58s1.7629-0.10037 0 0l1.6194-33.695c-0.10037-1.7629-0.10037-1.7629-1.8632-1.6625-1.7629 0.10037-1.7629 0.10037-1.6625 1.8632l1.9062 33.494c-1.7629 0.10037-1.7629 0.10037 0 0" fill="#8c8b8b" stroke-width="17.658"/>
 <path d="m661.92 136.94s1.6625-1.8632 0 0l1.6194-33.695c-0.10038-1.7629-0.10038-1.7629-1.8632-1.6625-1.7629 0.10037-1.7629 0.10037-1.6625 1.8632l1.9062 33.494c-1.8632-1.6625-1.7629 0.10037 0 0" fill="#8c8b8b" stroke-width="17.658"/>
 <path d="m621.18 135.72s1.7629-0.10038 0 0l1.6194-33.695c-0.10037-1.7629-0.10037-1.7629-1.8632-1.6625-1.7629 0.10037-1.7629 0.10037-1.6625 1.8632l1.9062 33.494c-1.7629 0.10037-1.7629 0.10037 0 0" fill="#8c8b8b" stroke-width="17.658"/>
 <path d="m628.33 137.08c1.7629-0.10037 1.6625-1.8631 0 0l1.6194-33.695s-0.10037-1.7629-1.8632-1.6625c0 0-1.7629 0.10037-1.6625 1.8632l1.9062 33.494c-1.8632-1.6625 0 0 0 0" fill="#8c8b8b" stroke-width="17.658"/>
 <path d="m587.58 135.87s1.7629-0.10038 0 0l1.6194-33.695s-0.10037-1.7629-1.8632-1.6625c-1.7629 0.10037-1.7629 0.10037-1.6625 1.8632l1.9062 33.494c-1.7629 0.10037-1.7629 0.10037 0 0" fill="#8c8b8b" stroke-width="17.658"/>
 <path d="m594.63 135.47c1.7629-0.10037 1.7629-0.10037 0 0l1.6194-33.695c-0.10038-1.7629-0.10038-1.7629-1.8631-1.6625-1.7629 0.10038-1.7629 0.10038-1.6625 1.8632l1.9062 33.494c-1.7629 0.10037-1.7629 0.10037 0 0" fill="#8c8b8b" stroke-width="17.658"/>
 <path d="m554 136c1.7629-0.10038 1.7629-0.10038 0 0l1.6194-33.695s-0.10037-1.7629-1.8632-1.6625c-1.7629 0.10037-1.7629 0.10037-1.6625 1.8632l1.9062 33.494c-1.7629 0.10037 0 0 0 0" fill="#8c8b8b" stroke-width="17.658"/>
 <path d="m561.04 135.6c1.7629-0.10037 1.7629-0.10037 0 0l1.6194-33.695c-0.10038-1.7629-0.10038-1.7629-1.8631-1.6625 0 0-1.7629 0.10037-1.6625 1.8632l1.9062 33.494c-1.7629 0.10037 0 0 0 0" fill="#8c8b8b" stroke-width="17.658"/>
 <path d="m522.16 136.06 1.6194-33.695s-0.10038-1.7629-1.8631-1.6625c-1.7629 0.10037-1.7629 0.10037-1.6625 1.8632l1.9062 33.494c-1.7629 0.10037-1.7629 0.10037 0 0" fill="#8c8b8b" stroke-width="17.658"/>
 <path d="m529.21 135.66s1.7629-0.10037 0 0l1.6194-33.695c-0.10037-1.7629-0.10037-1.7629-1.8632-1.6625 0 0-1.7629 0.10037-1.6625 1.8632l1.9062 33.494c-1.7629 0.10037-1.7629 0.10037 0 0" fill="#8c8b8b" stroke-width="17.658"/>
 <path d="m398.83 486.17 29.825-35.3-4.4428 46.235s-3.1244 7.2521-15.866 0.90299c-12.741-6.3491-9.5166-11.838-9.5166-11.838" fill="#e3c63b" stroke-width="17.658"/>
 <path d="m418.68 462.06 9.9751-11.179-0.9602 14.204z" fill="#1498c3" stroke-width="17.658"/>
 <path d="m404.32 489.39 24.336-38.525-11.695 43.111s-3.1244 7.2521-8.6136 4.0274c-5.4892-3.2247-4.0274-8.6136-4.0274-8.6136" fill="#ebd467" stroke-width="17.658"/>
 <path d="m218.38 889.06 25.382 10.935 180.45-402.89-25.382-10.935z" fill="#00587e" stroke-width="17.658"/>
 <path d="m418.68 462.06 9.9751-11.179-0.9602 14.204z" fill="#00587e" stroke-width="17.658"/>
 <path d="m225.63 892.19 12.641 4.5862 180.45-402.89-12.641-4.5862z" fill="#007bb0" stroke-width="17.658"/>
 <path d="m591.87 210.45a79.832 28.152 78.996 0 0-2.7558 0.57031 79.832 28.152 78.996 0 0-10.062 87.557 79.832 28.152 78.996 0 0 11.051 35.584 74.606 71.253 0 0 0-23.283 51.664 74.606 71.253 0 0 0 74.605 71.252 74.606 71.253 0 0 0 74.605-71.252 74.606 71.253 0 0 0-23.305-51.617 28.152 79.832 11.004 0 0 11.072-35.631 28.152 79.832 11.004 0 0-10.062-87.557 28.152 79.832 11.004 0 0-43.48 68.363 28.152 79.832 11.004 0 0-4.5879 35.391 74.606 71.253 0 0 0-4.2422-0.20312 74.606 71.253 0 0 0-4.2441 0.14453 79.832 28.152 78.996 0 0-4.5879-35.332 79.832 28.152 78.996 0 0-40.723-68.934z" fill="#e8e5c3"/>
</svg>
