<?xml version="1.0" encoding="UTF-8" standalone="no"?>
<svg
   xmlns:dc="http://purl.org/dc/elements/1.1/"
   xmlns:cc="http://creativecommons.org/ns#"
   xmlns:rdf="http://www.w3.org/1999/02/22-rdf-syntax-ns#"
   xmlns:svg="http://www.w3.org/2000/svg"
   xmlns="http://www.w3.org/2000/svg"
   xmlns:sodipodi="http://sodipodi.sourceforge.net/DTD/sodipodi-0.dtd"
   xmlns:inkscape="http://www.inkscape.org/namespaces/inkscape"
   enable-background="new 0 0 128 128"
   id="Слой_1"
   version="1.1"
   viewBox="0 0 300 300"
   xml:space="preserve"
   sodipodi:docname="extinguisher.svg"
   width="300"
   height="300"
   inkscape:version="0.92.3 (2405546, 2018-03-11)"><metadata
     id="metadata71"><rdf:RDF><cc:Work
         rdf:about=""><dc:format>image/svg+xml</dc:format><dc:type
           rdf:resource="http://purl.org/dc/dcmitype/StillImage" /><dc:title /></cc:Work></rdf:RDF></metadata><defs
     id="defs69" /><sodipodi:namedview
     pagecolor="#ffffff"
     bordercolor="#666666"
     borderopacity="1"
     objecttolerance="10"
     gridtolerance="10"
     guidetolerance="10"
     inkscape:pageopacity="0"
     inkscape:pageshadow="2"
     inkscape:window-width="1920"
     inkscape:window-height="1032"
     id="namedview67"
     showgrid="false"
     inkscape:zoom="1.4142136"
     inkscape:cx="293.65844"
     inkscape:cy="155.13706"
     inkscape:window-x="0"
     inkscape:window-y="48"
     inkscape:window-maximized="1"
     inkscape:current-layer="Слой_1" /><path
     style="fill:#cf4d3f;stroke-width:1.19601333"
     inkscape:connector-curvature="0"
     id="path8"
     d="m 64.252882,136.65914 v 0 c 16.21794,0 29.364518,13.14658 29.364518,29.36452 v 0.97833 l -4.784053,23.65595 4.784053,23.65595 v 69.82924 C 84.728629,287.91296 74.952417,290 64.688231,290 54.084377,290 44.010357,287.75867 34.888363,283.74964 V 166.02485 c 0,-16.21794 13.146578,-29.36571 29.364519,-29.36571 z"
     sodipodi:nodetypes="ccsccccscsc" /><rect
     style="fill:#faf8ee;stroke-width:1.19601333"
     id="rect10"
     y="167.00317"
     x="-93.617416"
     width="14.792293"
     height="47.310696"
     transform="scale(-1,1)" /><g
     id="g20"
     transform="matrix(-1.1960133,0,0,1.1960133,141.23308,74.717609)"><path
       style="fill:#a4a6a0"
       inkscape:connector-curvature="0"
       id="path14"
       d="m 50.656,34.91 c 0,-0.904 -0.733,-1.637 -1.637,-1.637 h -1.637 c -0.904,0 -1.637,0.733 -1.637,1.637 v 9.821 c 0,0.904 0.733,1.637 1.637,1.637 h 1.637 c 0.904,0 1.637,-0.733 1.637,-1.637 v -1.347 h 15.55 v -7.127 h -15.55 z" /><g
       id="g18"><rect
         style="opacity:0.1;fill:#373936"
         id="rect16"
         y="36.257999"
         x="50.655998"
         width="0.81800002"
         height="7.1269999" /></g></g><rect
     style="fill:#cf4d3f;stroke-width:1.19601333"
     id="rect22"
     y="123.39655"
     x="-71.594025"
     width="14.68226"
     height="20.163588"
     transform="scale(-1,1)" /><path
     style="opacity:0.1;fill:#373936;stroke-width:1.19601333"
     inkscape:connector-curvature="0"
     id="path24"
     d="m 71.594011,133.90233 c -2.124119,1.35149 -4.636943,2.14564 -7.341129,2.14564 -2.704186,0 -5.218206,-0.79415 -7.34113,-2.14564 v -10.50578 h 14.682259 z" /><g
     id="g34"
     transform="matrix(-1.1960133,0,0,1.1960133,141.23308,74.717609)"><g
       id="g28"><path
         style="fill:#cf4d3f"
         inkscape:connector-curvature="0"
         id="path26"
         d="M 94.52,47.515 C 86.55,42.442 77.898,38.531 68.825,35.898 l -4.46,-1.294 -1.825,6.288 4.46,1.294 c 8.474,2.459 14.772,0.48 22.221,5.22 l 13.17,8.382 c 0.49,0.312 1.057,0.483 1.638,0.495 l 4.402,0.086 z" /></g><path
       style="opacity:0.1;fill:#373936"
       inkscape:connector-curvature="0"
       id="path30"
       d="m 64.364,34.604 -1.637,5.641 v 0.702 L 67,42.186 c 0.817,0.237 1.608,0.423 2.388,0.587 3.425,-0.039 6.32,-0.573 9.111,-1.103 1.365,-0.259 2.69,-0.502 4.013,-0.677 -4.427,-2.027 -9,-3.735 -13.688,-5.096 z" /><path
       style="fill:#cf4d3f"
       inkscape:connector-curvature="0"
       id="path32"
       d="M 96.923,38.6 C 87.855,35.95 78.456,34.604 69.008,34.604 h -4.644 v 6.547 h 4.644 c 8.824,0 14.321,-3.656 22.795,-1.18 l 14.984,4.38 c 0.558,0.163 1.15,0.169 1.711,0.018 l 4.252,-1.144 z" /></g><g
     id="g40"
     transform="matrix(-1.1960133,0,0,1.1960133,141.23308,74.717609)"><path
       style="opacity:0.2;fill:#fefefd"
       inkscape:connector-curvature="0"
       id="path36"
       d="M 59.863,52.595 V 40.701 H 58.226 V 52.595 C 47.642,55.325 39.812,64.906 39.812,76.343 v 98.76 c 1.602,0.679 3.243,1.28 4.911,1.825 V 76.343 C 44.722,64.906 49.279,55.325 59.863,52.595 Z"
       sodipodi:nodetypes="ccccscccc" /><path
       style="opacity:0.1;fill:#373936"
       inkscape:connector-curvature="0"
       id="path38"
       d="M 70.502,52.595 V 40.701 h -1.637 v 11.894 c 10.584,2.73 15.141,12.311 15.141,23.748 v 100.339 c 1.67,-0.569 3.308,-1.204 4.91,-1.908 V 76.343 c 0,-11.437 -7.83,-21.018 -18.414,-23.748 z"
       sodipodi:nodetypes="ccccsccsc" /></g><circle
     style="fill:#ffffff;stroke-width:1.19601333"
     id="circle42"
     r="11.746047"
     cy="122.34405"
     cx="-64.252892"
     transform="scale(-1,1)" /><circle
     style="fill:#008d95;stroke-width:1.19601333"
     id="circle44"
     r="7.8302989"
     cy="122.34405"
     cx="-64.252892"
     transform="scale(-1,1)" /><line
     style="fill:none;stroke:#54544c;stroke-width:0.89700997;stroke-linecap:round;stroke-miterlimit:10"
     id="line46"
     y2="123.09156"
     y1="117.40931"
     x2="64.252892"
     x1="56.911758"
     stroke-miterlimit="10" /><path
     style="fill:#eec932;stroke-width:1.19601333"
     inkscape:connector-curvature="0"
     id="path48"
     d="m 64.252882,122.34405 c 4.345116,0 8.130498,2.36572 10.161329,5.87243 -2.032027,3.50791 -5.816213,5.87242 -10.161329,5.87242 -4.345117,0 -8.130499,-2.36571 -10.161329,-5.87242 2.03083,-3.50671 5.816212,-5.87243 10.161329,-5.87243 z" /><g
     style="opacity:0.2"
     id="g52"
     transform="matrix(-1.1960133,0,0,1.1960133,141.23308,74.717609)"><path
       style="fill:#fefefd"
       inkscape:connector-curvature="0"
       id="path50"
       d="m 64.364,30 c -5.424,0 -9.821,4.397 -9.821,9.821 0,3.551 1.891,6.652 4.714,8.377 -0.032,-0.052 -0.071,-0.098 -0.102,-0.151 -0.851,-1.454 11.029,-14.52 12.167,-14.059 0.496,0.201 0.966,0.449 1.418,0.725 C 71.015,31.89 67.914,30 64.364,30 Z" /></g><circle
     style="fill:none;stroke:#54544c;stroke-width:1.19601333;stroke-miterlimit:10"
     id="circle54"
     stroke-miterlimit="10"
     r="11.746047"
     cy="122.34405"
     cx="-64.252892"
     transform="scale(-1,1)" /><g
     style="opacity:0.2"
     id="g58"
     transform="matrix(-1.1960133,0,0,1.1960133,141.23308,74.717609)"><path
       style="fill:#fefefd"
       inkscape:connector-curvature="0"
       id="path56"
       d="m 41.453,76.86 c 7.77,-12.111 17.523,-19.341 36.935,-17.999 -3.878,-3.01 -8.735,-4.82 -14.024,-4.82 -12.623,0 -22.858,10.208 -22.911,22.819 z" /></g><path
     style="fill:none;stroke:#54544c;stroke-width:4.78405333;stroke-miterlimit:10"
     inkscape:connector-curvature="0"
     id="path60"
     stroke-miterlimit="10"
     d="M 65.116403,121.48053" /><g
     id="cloud-small"><path
       sodipodi:nodetypes="sccccccccccccccccccccccccccccccccccccccccccccccccccccccccccccccccccccscccccccccccccccccccccccccccccccccsccccccccccccccccccccccccccccccccccccccccccccccccccccccccccccccccccccccccccccccccccccccccccccccccccccccccccccccccccccccccccccccccccccccccccccccccccccccccccccccccccccccccccccccccccccccccccccccccccccccccccccccccccccccccccccccccccccccccccccccccccccccccccccsccccccccccccccccccccccccccccccccccccccccccccccccccccccccccccccccccccccccccccccccccccccccccccccccccccccccccccccccccccccccccccccccccccccccccccccccccccccccccccsccccccccscccccccccccccccccccccccccccccccccccccccccccccccccccccccccccccccccccccccccccccccccccccccccccccccccccccccccccccccccccccccccccccccccccccccccsccccccccccccccccccccccccccccccscccccccccccccccccccccccccccccccccccccccccccccccccccccccccccccccccccccccccccccccccccccccccccccccccccccccccccccccccccccccccccccc"
       inkscape:connector-curvature="0"
       id="path12-6"
       d="m 134.57231,124.26873 c 7.9e-4,-0.33285 -0.007,-0.66582 -0.0241,-0.9986 -0.0513,-1.23859 -0.24994,-2.46664 -0.59176,-3.65823 -0.20316,-0.67614 -0.45678,-1.33611 -0.75866,-1.97431 -0.32175,-0.68244 -0.69585,-1.33899 -1.11896,-1.96366 -0.41071,-0.61972 -0.88495,-1.19486 -1.41499,-1.7162 0.20127,-0.76298 0.32921,-1.54352 0.38192,-2.33084 0.0539,-0.79738 0.0214,-1.59827 -0.0968,-2.38867 -0.1125,-0.7978 -0.31832,-1.57951 -0.61323,-2.32928 -0.26749,-0.68993 -0.62568,-1.34125 -1.06521,-1.93654 -0.38273,-0.52406 -0.85216,-0.97878 -1.38803,-1.34479 -0.47172,-0.32113 -1.01469,-0.52245 -1.58174,-0.58643 -0.13691,-0.44768 -0.31885,-0.88028 -0.54318,-1.29119 -0.22321,-0.41548 -0.48625,-0.80828 -0.78546,-1.17286 -0.28153,-0.35016 -0.60489,-0.664558 -0.96287,-0.936067 -0.23427,-0.179925 -0.50096,-0.313236 -0.78546,-0.392731 -0.28406,-0.08611 -0.58373,-0.108093 -0.8773,-0.06425 h -0.0269 c -0.0143,0.0036 -0.0268,0.0073 -0.0376,0.01081 -0.0325,0.0071 -0.0665,0.01418 -0.10218,0.02131 l -0.0749,0.01614 c -0.008,0.0039 -0.0177,0.0056 -0.027,0.0053 -0.009,0.003 -0.0181,0.0067 -0.0268,0.01081 -0.31262,-0.634525 -0.71892,-1.218439 -1.20515,-1.732186 -0.5026,-0.519245 -1.09024,-0.94869 -1.73767,-1.269716 -0.41951,-0.202757 -0.87901,-0.309391 -1.34494,-0.312022 -0.47326,-0.0067 -0.94375,0.07346 -1.38803,0.236642 -0.44964,0.160148 -0.87093,0.390771 -1.24809,0.683284 -0.36582,0.289351 -0.67575,0.643114 -0.9146,1.04373 -0.24754,0.424031 -0.44963,0.872942 -0.60273,1.339455 -0.15766,0.476328 -0.26045,0.969131 -0.30654,1.468751 -0.0434,0.4945 -0.0163,0.99273 0.0807,1.47956 l -0.0161,0.032 c -0.005,0.0129 -0.01,0.0255 -0.016,0.0378 -0.29289,0.53451 -0.52235,1.10157 -0.68344,1.6894 -0.1653,0.60806 -0.26448,1.23213 -0.29588,1.86148 -0.0221,0.624 0.0267,1.2486 0.14528,1.86163 0.039,0.14203 0.0315,0.29273 -0.0215,0.43019 -0.0323,0.0586 -0.0785,0.10859 -0.13446,0.14527 -0.0753,0.0502 -0.15957,0.11114 -0.25279,0.18289 -0.41496,0.33098 -0.7793,0.72088 -1.08134,1.15735 -0.28109,0.40779 -0.49872,0.85577 -0.64552,1.3288 -0.16183,0.45729 -0.2684,0.9324 -0.3175,1.41499 -0.0501,0.49199 -0.0483,0.9878 0.005,1.4794 0.0546,0.50232 0.15905,0.998 0.31202,1.47956 -0.12902,0.22341 -0.23892,0.45728 -0.32832,0.69927 -0.10008,0.27013 -0.18085,0.54705 -0.24197,0.82856 -0.0541,0.24742 -0.10985,0.57375 -0.16691,0.97901 -0.0482,0.28492 -0.0804,0.57234 -0.0967,0.86084 -0.011,0.33799 0.0214,0.67597 0.0967,1.00565 0.99756,5.37521 0.75983,4.53026 0.0259,9.70026 -0.0764,0.26567 -0.11254,0.54137 -0.10704,0.81775 -0.004,0.31631 0.0124,0.6326 0.0484,0.94688 0.0274,0.25883 0.0705,0.51574 0.12913,0.76932 0.0334,0.16559 0.0765,0.32892 0.12914,0.48943 0.0537,0.17185 0.11644,0.34076 0.18821,0.50588 0.0695,0.16082 0.15224,0.31558 0.24746,0.46262 0.003,0.11679 -0.002,0.23367 -0.0161,0.34964 -0.0106,0.12196 -0.0248,0.2386 -0.0428,0.34979 -0.0143,0.11476 -0.025,0.21688 -0.0321,0.30654 -0.0215,0.33365 -0.0375,0.64924 -0.0483,0.94688 -0.007,0.30119 -0.007,0.58447 0,0.84987 0.007,0.5687 0.0851,1.13444 0.23131,1.68407 0.16098,0.57937 0.40557,1.13213 0.72623,1.64082 0.14541,0.23592 0.31289,0.45744 0.50024,0.66166 0.1745,0.19301 0.37149,0.36447 0.58658,0.5109 0.0863,0.09 0.15706,0.19379 0.20969,0.30685 0.0298,0.0994 0.0371,0.204 0.0215,0.30653 -0.0108,0.12197 -0.0215,0.29592 -0.0321,0.52187 -0.007,0.13986 -0.0106,0.2977 -0.0106,0.47344 0,0.17574 0.007,0.3622 0.0213,0.55948 0.006,0.28426 0.0278,0.56803 0.0643,0.85003 0.0372,0.26497 0.0911,0.5273 0.16142,0.78546 0.0569,0.24154 0.1307,0.47882 0.22066,0.71009 0.0791,0.19713 0.18593,0.38193 0.31735,0.54882 0.005,0.2196 0.0437,0.43713 0.11315,0.64552 0.0696,0.19718 0.17546,0.37979 0.31202,0.53816 -0.0387,0.1938 -0.0674,0.38949 -0.0857,0.58628 -0.0212,0.18933 -0.0302,0.37979 -0.0268,0.57029 0.0119,0.75217 0.18433,1.49317 0.50572,2.17333 0.31007,0.65902 0.76856,1.23719 1.33961,1.68925 0.59542,0.46505 1.29875,0.77226 2.04453,0.89313 0.51262,0.0826 1.03685,0.0551 1.53801,-0.0807 0.51713,-0.14171 1.00912,-0.36304 1.45809,-0.65617 0.4578,-0.29666 0.87535,-0.65116 1.2426,-1.05454 0.35567,-0.39047 0.65797,-0.82643 0.89877,-1.29652 0.3577,0.006 0.71346,-0.054 1.04922,-0.17756 0.36437,-0.13094 0.70693,-0.31585 1.0163,-0.54866 0.30389,-0.23267 0.57059,-0.51016 0.79095,-0.82308 0.24411,-0.3365 0.4532,-0.69717 0.62405,-1.07617 0.16972,-0.36994 0.30309,-0.75549 0.39821,-1.15124 0.27942,-0.0314 0.55396,-0.0964 0.81775,-0.1937 0.24309,-0.0893 0.47579,-0.20487 0.69394,-0.34446 0.72097,-0.49521 1.32356,-1.14362 1.76462,-1.89893 0.46964,-0.79186 0.81772,-1.64976 1.03276,-2.54492 0.22438,-0.91219 0.34181,-1.84739 0.3498,-2.78673 0.0165,-0.87719 -0.0719,-1.75316 -0.26344,-2.60933 -0.0245,-0.1145 -0.0551,-0.2276 -0.0917,-0.33882 -0.0394,-0.1256 -0.0824,-0.25474 -0.12914,-0.38741 0.10763,-0.0932 0.21704,-0.19534 0.32817,-0.30654 0.10769,-0.10755 0.22072,-0.22419 0.33897,-0.34979 0.83901,-0.91915 1.51237,-1.9767 1.99046,-3.12571 0.51688,-1.22066 0.88365,-2.49959 1.09215,-3.80867 0.1605,-0.98664 0.24226,-1.98392 0.24464,-2.98247 z m -0.71871,0.11957 c -1e-4,0.29614 -0.007,0.59237 -0.0207,0.88843 -0.10026,2.20711 -0.65926,4.36912 -1.64129,6.34826 -0.49103,0.97576 -1.1118,1.88064 -1.84534,2.69004 l -0.0969,0.10766 -0.60242,0.61308 c -0.0897,0.0861 -0.17751,0.17042 -0.26359,0.25294 l -0.34447,0.31202 -0.17207,0.1506 -0.0321,0.0213 c -0.0368,0.0251 -0.0711,0.0538 -0.10233,0.0856 -0.0345,0.0289 -0.0508,0.074 -0.0428,0.11832 0.0145,0.0324 0.0416,0.0577 0.0749,0.0701 0.033,0.0143 0.0708,0.0124 0.10218,-0.005 0.0636,-0.0206 0.12479,-0.0477 0.18289,-0.0807 0.0648,-0.0359 0.11878,-0.0664 0.16158,-0.0915 l 0.88795,-0.62405 0.0213,0.0536 c 0.004,0.0183 0.009,0.0361 0.0161,0.0534 0.14229,0.463 0.23965,0.93864 0.29055,1.42032 0.0502,0.51304 0.068,1.02869 0.0534,1.54397 -0.0116,0.48806 -0.0529,0.97506 -0.12365,1.45809 -0.0882,0.59174 -0.22674,1.17486 -0.4142,1.743 -0.20128,0.61074 -0.46267,1.20007 -0.78014,1.7593 -0.30898,0.54544 -0.697,1.04205 -1.15139,1.47392 -0.4373,0.40973 -0.96413,0.71191 -1.53864,0.88231 -0.0143,0.003 -0.12192,0.0246 -0.32284,0.0641 -0.0607,0.007 -0.12179,0.0106 -0.18289,0.0106 l -0.14512,-0.0106 c -0.061,-0.007 -0.1201,-0.0161 -0.17756,-0.0268 -0.0576,-0.0143 -0.11501,-0.0305 -0.17207,-0.0484 -0.0997,-0.032 -0.19686,-0.0715 -0.29055,-0.11832 -0.0943,-0.0508 -0.18581,-0.1065 -0.27426,-0.1669 -0.0247,-0.021 -0.0519,-0.0391 -0.0809,-0.0536 -0.0265,-0.0132 -0.0561,-0.0186 -0.0856,-0.0158 -0.0314,0.0101 -0.0544,0.0371 -0.0592,0.0697 -0.007,0.007 -0.002,0.0273 0.0161,0.0594 0.0173,0.0361 0.0409,0.0686 0.0699,0.0962 l 0.0699,0.0643 c 0.0628,0.0515 0.12935,0.0981 0.19903,0.13979 0.0664,0.044 0.13658,0.0818 0.20984,0.11299 0.0474,0.0204 0.0959,0.0383 0.14527,0.0536 l 0.25827,0.0641 c 0.0356,0.007 0.0716,0.0126 0.10767,0.0161 -0.14404,0.50926 -0.35007,0.99886 -0.61339,1.45794 -0.25103,0.44339 -0.58093,0.83727 -0.97352,1.16205 -0.41293,0.32787 -0.89785,0.55274 -1.41484,0.65633 -0.0503,0.0107 -0.1026,0.0199 -0.15609,0.0269 -0.0505,0.007 -0.10068,0.0142 -0.1506,0.0213 -0.0358,0.004 -0.0735,0.007 -0.11299,0.0108 H 122.228 c -0.0664,0.003 -0.13292,0.001 -0.19903,-0.005 -0.15201,-0.0212 -0.3015,-0.0571 -0.44649,-0.10751 -0.1507,-0.0504 -0.24946,-0.0863 -0.29603,-0.10766 -0.0397,-0.0214 -0.0809,-0.0429 -0.12365,-0.0643 -0.11661,-0.0669 -0.22809,-0.14251 -0.3335,-0.22599 -0.10637,-0.0848 -0.20372,-0.18032 -0.29055,-0.28507 l -0.17756,-0.20436 c 0.0243,-0.008 0.0477,-0.0192 0.0699,-0.0321 0.0265,-0.01 0.0517,-0.0224 0.0754,-0.0378 0.26418,-0.12553 0.50171,-0.30084 0.69942,-0.51638 0.0717,-0.0789 0.12724,-0.14166 0.16675,-0.18837 0.0424,-0.0492 0.0785,-0.10327 0.10766,-0.16127 0.0448,-0.0865 0.0826,-0.17651 0.113,-0.26908 0.007,-0.0108 -8e-5,-0.0272 -0.0215,-0.0486 -0.0365,2.4e-4 -0.0721,0.0114 -0.10218,0.0321 -0.0308,0.0205 -0.0594,0.044 -0.0856,0.0701 -0.0159,0.0196 -0.0338,0.0375 -0.0534,0.0534 -0.0753,0.0718 -0.15428,0.14173 -0.2368,0.20984 -0.0861,0.0682 -0.17394,0.13264 -0.2636,0.19355 -0.18363,0.12051 -0.3804,0.2199 -0.58643,0.29604 -0.20228,0.0748 -0.41432,0.12011 -0.62953,0.13446 -0.14424,0.007 -0.28876,-0.004 -0.43034,-0.0321 -0.14614,-0.0333 -0.28717,-0.0858 -0.41953,-0.15609 l -0.0917,-0.0534 c -0.0469,-0.0252 -0.0917,-0.0487 -0.13446,-0.0701 l -0.0856,-0.0376 h -0.0107 c -0.007,-0.004 -0.0143,-4e-5 -0.0215,0.0107 -0.009,0.0591 0.007,0.11928 0.0428,0.16691 0.0382,0.0592 0.0814,0.11497 0.12913,0.16674 l 0.0856,0.0857 c 0.18263,0.15785 0.40334,0.26536 0.64019,0.31202 0.22814,0.043 0.46273,0.0375 0.68861,-0.0161 l 0.14527,-0.0378 c 0.0108,-0.004 0.0233,-0.007 0.0376,-0.0107 0.0496,0.11087 0.1091,0.21718 0.17756,0.31751 l 0.027,0.0269 c 0.0229,0.0302 0.048,0.0588 0.0749,0.0856 0.0252,0.0285 0.0522,0.057 0.0807,0.0856 0.0927,0.0927 0.19142,0.17905 0.29588,0.25827 0.0969,0.079 0.19944,0.1509 0.30669,0.21517 l 0.15061,0.0857 c 0.0505,0.0248 0.10068,0.0496 0.1506,0.0748 0.0861,0.036 0.17034,0.0683 0.25279,0.0968 0.0861,0.0252 0.17042,0.0485 0.25294,0.0699 -0.24,0.33034 -0.49677,0.64819 -0.76932,0.95221 -0.2759,0.30098 -0.57853,0.57648 -0.90394,0.82308 -0.32416,0.2482 -0.68065,0.4508 -1.05972,0.60241 l -0.18289,0.0643 c -0.0646,0.0216 -0.12746,0.0412 -0.18837,0.0591 -0.0361,0.007 -0.072,0.0162 -0.10767,0.0269 -0.0346,0.007 -0.0687,0.0159 -0.10217,0.027 -0.0541,0.0108 -0.10969,0.0198 -0.16675,0.0269 -0.0538,0.0108 -0.10764,0.0197 -0.16142,0.0268 -0.0718,0.007 -0.14032,0.0126 -0.20451,0.0162 -0.0718,0.004 -0.13981,0.005 -0.20436,0.005 -0.0701,7e-5 -0.14015,-0.003 -0.20985,-0.0106 -0.0681,-0.004 -0.13809,-0.009 -0.20984,-0.0162 v -1.6e-4 c -0.57822,-0.0801 -1.12814,-0.29971 -1.60242,-0.64003 -0.48212,-0.34214 -0.88879,-0.77984 -1.1945,-1.28585 -0.32358,-0.50456 -0.53288,-1.07378 -0.61323,-1.66778 -0.0587,-0.48361 -0.082,-0.97092 -0.0697,-1.45793 0.0502,0.0214 0.10216,0.0428 0.15594,0.0642 0.0523,0.022 0.10629,0.0399 0.16142,0.0534 l 0.016,0.005 c 0.18953,0.0504 0.38772,0.0596 0.5811,0.027 0.19734,-0.0339 0.38586,-0.10697 0.55431,-0.21518 0.16006,-0.10146 0.28714,-0.24726 0.36578,-0.41968 l 0.0643,-0.2205 c -0.0572,-0.0219 -0.12055,-0.0219 -0.17772,0 -0.0671,0.0202 -0.13193,0.0472 -0.19354,0.0807 -0.10406,0.0537 -0.20282,0.10388 -0.29604,0.1506 -0.0969,0.043 -0.19185,0.0807 -0.28507,0.11299 -0.14438,0.0463 -0.29834,0.0537 -0.44648,0.0215 -0.17343,-0.0525 -0.32842,-0.15324 -0.44664,-0.29055 -0.0605,-0.0697 -0.1162,-0.14344 -0.16675,-0.22066 -0.0371,-0.0675 -0.0692,-0.13769 -0.0962,-0.20984 -0.0888,-0.24104 -0.13255,-0.49633 -0.12914,-0.75318 5.7e-4,-0.27657 0.0292,-0.5523 0.0856,-0.82307 0.0572,-0.26028 0.13451,-0.51572 0.23131,-0.76399 0.0397,-0.0897 0.0809,-0.1739 0.12365,-0.25279 0.0397,-0.0789 0.0809,-0.15254 0.12365,-0.22065 0.0332,-0.0439 0.0536,-0.0959 0.0592,-0.15061 0,-0.0395 -0.0285,-0.0664 -0.0856,-0.0807 -0.0353,-0.003 -0.0702,0.009 -0.0969,0.0321 -0.0285,0.0213 -0.0554,0.0447 -0.0805,0.0699 l -0.0486,0.0641 c -0.0959,0.11658 -0.18221,0.24076 -0.25811,0.37126 -0.0885,0.14456 -0.1659,0.29569 -0.23147,0.45197 -0.0432,0.10399 -0.0827,0.21149 -0.11832,0.32268 -0.0364,0.11316 -0.0669,0.22818 -0.0915,0.34446 -0.12523,-0.37639 -0.21532,-0.76354 -0.26908,-1.15656 -0.0616,-0.41858 -0.0921,-0.84114 -0.0914,-1.26423 -0.004,-0.42938 0.0162,-0.85864 0.0592,-1.28586 0.0108,-0.0824 0.0215,-0.1667 0.0321,-0.25278 0.0106,-0.0861 0.0214,-0.17034 0.0321,-0.25279 0.0358,-0.26546 0.0806,-0.52551 0.13446,-0.78013 0.0538,-0.24735 0.11301,-0.48591 0.17756,-0.71557 0.0287,-0.10035 0.0591,-0.19895 0.0915,-0.29588 0.0358,-0.10042 0.0735,-0.19902 0.113,-0.29588 l 0.10766,-0.2368 c 0.0361,-0.0752 0.0718,-0.15227 0.10751,-0.23116 l 0.0376,-0.07 0.005,-0.0428 c -0.004,-0.0214 -0.0308,-0.0357 -0.0807,-0.0428 -0.0326,0.004 -0.0629,0.019 -0.0856,0.0428 -0.0414,0.0375 -0.0744,0.0834 -0.0969,0.13462 -0.18336,0.3022 -0.34157,0.61885 -0.47328,0.94688 -0.14296,0.3574 -0.26163,0.72408 -0.35512,1.09748 -0.0106,0.0432 -0.0214,0.088 -0.0321,0.13447 -0.0106,0.0431 -0.0214,0.088 -0.0321,0.13462 -0.0681,-0.0502 -0.13793,-0.10216 -0.20968,-0.15594 -0.0787,-0.0604 -0.15251,-0.12709 -0.22066,-0.19918 -0.5345,-0.54355 -0.94079,-1.19963 -1.18901,-1.92041 -0.24073,-0.7163 -0.3659,-1.46643 -0.3711,-2.22208 -10e-4,-0.75497 0.0834,-1.50751 0.25278,-2.24324 l 0.0641,-0.30136 c 0.0324,-0.13994 0.063,-0.27798 0.0915,-0.4142 0.0361,-0.1363 0.072,-0.27073 0.10767,-0.40339 l 0.0321,0.10751 c 0.007,0.0403 0.0179,0.0799 0.032,0.11832 0.0143,0.0434 0.0305,0.09 0.0484,0.13995 0.0215,0.0576 0.0448,0.11501 0.0699,0.17207 0.0794,0.1878 0.16928,0.37101 0.26909,0.54882 0.0955,0.18228 0.20508,0.35668 0.328,0.52171 0.0964,0.13473 0.21043,0.25597 0.33898,0.36045 0.0171,0.007 0.0333,0.0162 0.0484,0.0269 0.0219,0.0101 0.0458,0.0156 0.0699,0.0161 0.0215,-0.0287 0.0197,-0.0735 -0.005,-0.13446 -0.0272,-0.0584 -0.0596,-0.11435 -0.0969,-0.1669 l -0.0591,-0.0807 c -0.0252,-0.0394 -0.0485,-0.0788 -0.0699,-0.11832 -0.0255,-0.04 -0.0487,-0.0812 -0.0699,-0.12365 -0.17842,-0.32403 -0.31582,-0.66911 -0.40887,-1.02712 -0.0928,-0.35702 -0.14534,-0.7233 -0.15672,-1.092 -0.007,-0.37116 0.0326,-0.74166 0.11848,-1.10281 0.003,-0.0123 0.005,-0.025 0.005,-0.0378 l 0.0106,-0.0428 0.0107,-0.14512 -0.0321,-0.0534 c -0.0358,-8e-5 -0.0806,0.0339 -0.13446,0.10202 -0.0557,0.0655 -0.10262,0.13775 -0.13995,0.21517 -0.10903,0.21102 -0.19042,0.43531 -0.24212,0.66714 -0.0466,0.20819 -0.0629,0.42202 -0.0484,0.63486 l -0.12913,0.26892 c -0.0432,0.0861 -0.0862,0.17034 -0.12898,0.25279 -0.0288,0.061 -0.0558,0.12198 -0.0809,0.18289 -0.0287,0.061 -0.0554,0.12213 -0.0805,0.18304 -0.18566,-0.33851 -0.3251,-0.70039 -0.41436,-1.07601 -0.0934,-0.37687 -0.14385,-0.7632 -0.1506,-1.1514 -0.008,-0.38635 0.0267,-0.77241 0.10218,-1.15139 1.16268,-2.69073 0.95537,-8.0721 0.0442,-9.95259 -0.1283,-0.56817 -0.15723,-1.15414 -0.0856,-1.73219 0.0744,-0.58266 0.24719,-1.14847 0.51106,-1.67326 0.0253,0.0578 0.0523,0.11518 0.0809,0.17223 0.0252,0.0576 0.052,0.11502 0.0806,0.17208 0.0252,0.0467 0.0485,0.0932 0.0699,0.13979 0.0216,0.0431 0.045,0.088 0.07,0.13462 l 0.0591,0.0967 c 0.0374,0.0652 0.0787,0.12815 0.12365,0.18838 0.0492,0.0639 0.10926,0.11856 0.17756,0.16141 -0.008,0.19472 0.006,0.3897 0.0428,0.58111 0.0306,0.16878 0.0909,0.33085 0.17771,0.47877 l 0.0856,0.13446 0.0641,0.0643 c 0.0321,0.0201 0.0747,0.004 0.0857,-0.0321 0.0257,-0.0632 0.0385,-0.13082 0.0376,-0.19903 0.004,-0.086 0.004,-0.17027 0,-0.25279 -0.0106,-0.0825 -0.0178,-0.14351 -0.0215,-0.18288 -0.018,-0.13281 -0.0305,-0.26195 -0.0376,-0.38741 -0.007,-0.12721 -0.007,-0.2547 0,-0.38192 0,-0.0393 0.002,-0.0788 0.005,-0.11847 0.004,-0.0397 0.005,-0.0773 0.005,-0.113 0.0386,-0.37128 0.11984,-0.7369 0.24197,-1.08964 0.12128,-0.35798 0.27235,-0.70514 0.45181,-1.03778 0.0144,-0.0251 0.0306,-0.052 0.0486,-0.0806 0.0142,-0.0288 0.0268,-0.0557 0.0375,-0.0809 0.004,-0.0195 0.004,-0.0395 0,-0.0591 -3.2e-4,-0.019 -0.006,-0.0376 -0.016,-0.0536 -0.0133,-0.0192 -0.036,-0.0294 -0.0592,-0.0268 -0.0208,-2.4e-4 -0.0414,0.005 -0.0592,0.016 -0.0544,0.0318 -0.10488,0.0697 -0.1506,0.11299 -0.0461,0.0456 -0.0893,0.0941 -0.12914,0.14528 l -0.0749,0.0964 c -0.11579,0.17593 -0.21658,0.36128 -0.30121,0.55415 -0.10101,0.23042 -0.18547,0.46781 -0.25279,0.71023 -0.0214,0.0861 -0.0427,0.17395 -0.0641,0.2636 -0.0214,0.0862 -0.0393,0.17394 -0.0536,0.2636 l -0.005,-0.0107 c -0.0541,-0.17574 -0.10984,-0.35321 -0.1669,-0.53252 -0.0538,-0.17931 -0.10403,-0.35678 -0.1506,-0.53252 -0.0216,-0.0717 -0.0413,-0.14358 -0.0591,-0.21533 -0.0181,-0.0757 -0.038,-0.14918 -0.0594,-0.2205 -0.19366,-0.73438 -0.2983,-1.48936 -0.31187,-2.24872 -0.0109,-0.73116 0.13012,-1.45661 0.4142,-2.13041 0.29043,-0.68827 0.78895,-1.34091 1.49555,-1.95785 0.0181,-0.0181 0.0378,-0.0343 0.0591,-0.0484 0.018,-0.014 0.038,-0.0284 0.0594,-0.0428 l 0.0213,0.12913 c 0.007,0.0432 0.0162,0.0862 0.0269,0.12898 0.0322,0.14707 0.0662,0.29424 0.10218,0.44131 0.0359,0.14707 0.0736,0.29048 0.11299,0.43034 0.038,0.14963 0.0848,0.29697 0.13995,0.44116 0.0697,0.19632 0.15061,0.38846 0.24213,0.57562 0.0509,0.13458 0.13406,0.25463 0.24213,0.34963 0.0153,0.007 0.0315,0.0128 0.0483,0.016 0.0186,0.003 0.0378,-4e-4 0.0536,-0.0107 0.0144,-0.0337 0.0181,-0.0711 0.0107,-0.10703 -0.009,-0.0352 -0.0217,-0.0694 -0.0376,-0.10218 -0.009,-0.0242 -0.0196,-0.0476 -0.0321,-0.0701 -0.0541,-0.17224 -0.10248,-0.34611 -0.14528,-0.5217 -0.0432,-0.17945 -0.0827,-0.3623 -0.11832,-0.54867 -0.0431,-0.244 -0.0827,-0.48801 -0.11832,-0.73186 -0.0397,-0.24386 -0.0773,-0.48409 -0.11299,-0.72074 -3e-5,-0.018 -0.002,-0.0358 -0.005,-0.0534 -0.004,-0.014 -0.005,-0.0284 -0.005,-0.0428 l -0.0215,-0.13994 -0.0213,-0.13995 c -0.0636,-0.40976 -0.10308,-0.82289 -0.11832,-1.23728 -0.0181,-0.40579 -0.004,-0.81229 0.0428,-1.2158 0.0449,-0.41118 0.12404,-0.81797 0.23664,-1.21597 0.0253,0.10057 0.0522,0.19933 0.0807,0.29604 0.0307,0.0933 0.0665,0.18482 0.10704,0.27426 0.0401,0.0947 0.0869,0.18636 0.13995,0.27441 0.0501,0.0775 0.10577,0.15122 0.16674,0.2205 0.0107,0.0107 0.027,0.0249 0.0484,0.0428 0.0222,0.0145 0.0484,0.022 0.0749,0.0215 0.0381,-0.0357 0.0527,-0.0899 0.0376,-0.13995 -0.0112,-0.0627 -0.0291,-0.12416 -0.0534,-0.18304 l -0.0536,-0.1235 -0.0106,-0.0161 c -0.0564,-0.17587 -0.0995,-0.3557 -0.12914,-0.538 -0.0367,-0.22052 -0.0565,-0.44361 -0.0592,-0.66715 -0.004,-0.2323 0.0123,-0.46443 0.0484,-0.69394 0.0268,-0.15827 0.07,-0.31334 0.12898,-0.46262 0.0508,-0.13805 0.12353,-0.267 0.21533,-0.38192 0.0404,-0.0475 0.0854,-0.0907 0.13446,-0.12913 0.0467,-0.043 0.0993,-0.0793 0.15609,-0.10767 0.0504,-0.0238 0.10246,-0.0435 0.15593,-0.0591 0.0517,-0.007 0.10392,-0.0107 0.15609,-0.0108 0.12603,0.008 0.2488,0.0431 0.36045,0.10217 0.11483,0.0645 0.22962,0.13261 0.3443,0.20436 0.10642,0.071 0.22007,0.13045 0.33898,0.17756 0.14343,0.0538 0.20797,0.0503 0.1937,-0.0106 -0.0164,-0.0753 -0.0474,-0.14665 -0.0915,-0.20985 -0.0643,-0.0936 -0.13633,-0.18167 -0.21517,-0.26344 -0.10618,-0.0837 -0.22066,-0.15644 -0.34149,-0.21705 -0.13411,-0.0863 -0.27871,-0.15493 -0.43034,-0.20436 -0.17372,-0.0397 -0.35431,-0.0379 -0.52719,0.005 -0.0567,0.0141 -0.11241,0.0319 -0.16675,0.0534 -0.0539,0.025 -0.10604,0.0537 -0.15609,0.0857 -0.0358,-0.3162 -0.0396,-0.63527 -0.0108,-0.9522 0.0347,-0.35501 0.10884,-0.70506 0.22081,-1.043735 0.11917,-0.386524 0.27406,-0.761122 0.46263,-1.118955 0.17263,-0.329868 0.38786,-0.635664 0.64018,-0.909425 0.24762,-0.265423 0.53662,-0.48885 0.85583,-0.661656 0.0611,-0.03212 0.12386,-0.06067 0.18822,-0.08557 l 0.19386,-0.08572 c 0.061,-0.02168 0.1219,-0.04132 0.18288,-0.05908 0.061,-0.01776 0.12383,-0.03554 0.18838,-0.05344 0.0825,-0.01776 0.16861,-0.0357 0.25827,-0.0536 0.0861,-0.01427 0.1757,-0.02499 0.26892,-0.03213 0.0539,-0.0071 0.10764,-0.01242 0.16142,-0.01599 0.11248,-0.01413 0.22611,-0.0159 0.33898,-0.0053 0.0468,-2.5e-5 0.0937,0.0035 0.13995,0.01066 0.23829,0.02106 0.47209,0.07723 0.69393,0.166746 0.22543,0.08751 0.4431,0.193765 0.65085,0.317507 0.20797,0.12551 0.40922,0.261892 0.60273,0.408716 0.0502,0.03595 0.0985,0.07362 0.14512,0.112992 0.0502,0.0398 0.0987,0.07765 0.14527,0.113306 0.171,0.138066 0.331,0.288972 0.47877,0.451657 0.16141,0.172104 0.31563,0.351498 0.46263,0.538008 0.15071,0.183016 0.28698,0.358813 0.40887,0.52735 0.0288,0.03609 0.0557,0.072 0.0807,0.107664 l 0.0749,0.107507 c -0.12916,0.05742 -0.26183,0.123785 -0.39806,0.19903 -0.13696,0.07448 -0.26822,0.158957 -0.39273,0.252784 -0.0394,0.02853 -0.079,0.05704 -0.11848,0.08557 l -0.11832,0.09685 c -0.13903,0.120924 -0.26685,0.254134 -0.38192,0.398054 -0.099,0.13059 -0.17702,0.2759 -0.23131,0.4305 -0.12013,-0.0424 -0.24453,-0.0711 -0.3711,-0.0856 -0.12657,-0.018 -0.25505,-0.0199 -0.38208,-0.005 -0.0634,0.007 -0.12626,0.0177 -0.18837,0.0321 -0.0656,0.0136 -0.13023,0.0316 -0.19354,0.0536 -0.0107,0.003 -0.0214,0.007 -0.0321,0.0107 -0.0129,0.004 -0.0255,0.01 -0.0376,0.016 -0.11099,0.0403 -0.2108,0.10678 -0.29071,0.1937 -0.0717,0.0755 -0.0878,0.13109 -0.0483,0.16675 l 0.11816,0.0161 0.10234,-0.0215 0.13446,-0.0484 c 0.0672,-0.0212 0.13551,-0.039 0.20452,-0.0534 0.0717,-0.0143 0.14157,-0.025 0.20968,-0.0321 0.21707,-0.007 0.43377,0.0242 0.64019,0.0917 0.21234,0.0683 0.41628,0.1603 0.60806,0.27425 0.18221,0.1091 0.35492,0.2333 0.51638,0.37126 0.027,0.0218 0.0556,0.0415 0.0856,0.0591 0.0327,0.0238 0.0751,0.0301 0.11315,0.0163 0.0175,-0.0208 0.0252,-0.048 0.0213,-0.0749 -0.007,-0.0287 -0.0142,-0.0557 -0.0213,-0.0807 -0.0252,-0.0325 -0.0522,-0.0667 -0.0807,-0.10233 l -0.0592,-0.0641 c -0.0868,-0.10116 -0.18029,-0.19652 -0.27974,-0.28522 -0.0976,-0.0831 -0.20002,-0.16024 -0.30669,-0.23132 -0.0193,-0.008 -0.0373,-0.0189 -0.0534,-0.0321 -0.0207,-0.009 -0.0406,-0.0195 -0.0592,-0.0321 0.0462,-0.0605 0.0893,-0.12329 0.12913,-0.18822 0.0394,-0.061 0.0717,-0.10764 0.0969,-0.13995 0.19978,-0.25214 0.44414,-0.46553 0.7209,-0.62953 0.43784,-0.252287 0.94496,-0.357797 1.44712,-0.301209 0.20621,0.02556 0.40843,0.07612 0.60241,0.150605 0.22453,0.129918 0.43083,0.289154 0.61339,0.473444 0.19224,0.19693 0.37024,0.40725 0.53252,0.62953 0.16861,0.22952 0.33366,0.4627 0.49507,0.69943 0.14581,0.21692 0.27001,0.44742 0.3711,0.68845 0.10058,0.23363 0.18856,0.47253 0.2636,0.71557 l -0.23116,0.0591 c -0.0756,0.0253 -0.14939,0.056 -0.22065,0.0917 -0.0215,0.0107 -0.0413,0.0214 -0.0592,0.0321 l -0.0536,0.032 c -0.031,0.0241 -0.0596,0.0512 -0.0856,0.0807 -0.0219,0.0258 -0.0399,0.0546 -0.0534,0.0856 l -0.0107,0.0215 c -0.007,0.0112 -0.0111,0.0243 -0.0108,0.0376 0.0266,0.0308 0.0697,0.0416 0.10767,0.027 0.0443,-0.0163 0.0846,-0.0418 0.11832,-0.0749 0.0251,-0.0236 0.0522,-0.045 0.0809,-0.0641 0.005,-0.006 0.013,-0.0103 0.0213,-0.0108 l 0.0161,-0.0107 c 0.0681,-0.0358 0.14032,-0.0629 0.21517,-0.0807 0.0758,-0.0184 0.15333,-0.0292 0.23132,-0.0321 0.12469,2.4e-4 0.24906,0.0129 0.37126,0.0378 0.0824,0.0142 0.16349,0.0357 0.24212,0.0643 0.26799,0.0847 0.52595,0.19837 0.76932,0.33898 0.25132,0.1483 0.4922,0.31366 0.7209,0.49491 0.2038,0.16223 0.39601,0.33837 0.57546,0.52719 0.37272,0.4163 0.69257,0.87711 0.95221,1.37189 0.27985,0.54552 0.50678,1.11662 0.6778,1.70539 0.18316,0.61109 0.30923,1.23775 0.37659,1.87214 0.0715,0.62884 0.0787,1.26346 0.0215,1.89376 -0.029,0.34427 -0.0719,0.67766 -0.12898,1.00047 -0.0538,0.32274 -0.11317,0.64017 -0.17772,0.95221 -0.061,-0.0502 -0.12182,-0.0985 -0.18273,-0.14512 l -0.18304,-0.13995 c -0.0285,-0.018 -0.057,-0.0378 -0.0856,-0.0592 -0.0318,-0.0177 -0.0623,-0.0374 -0.0914,-0.0592 -0.005,-0.004 -0.0102,-0.008 -0.0162,-0.0107 l -0.0106,-0.0106 c -0.0278,-0.0157 -0.0563,-0.03 -0.0856,-0.0428 l -0.17756,-0.0807 c -0.0196,-0.003 -0.0394,-0.005 -0.0592,-0.005 -0.0177,-0.004 -0.0358,-0.004 -0.0534,0 -0.014,0.0652 -0.007,0.13313 0.0213,0.1937 0.0262,0.0667 0.0605,0.13003 0.10218,0.18837 0.036,0.0504 0.0683,0.0935 0.0968,0.12913 l 0.0643,0.0807 c 0.079,0.1077 0.16137,0.21167 0.24746,0.31203 0.0861,0.10035 0.1757,0.20071 0.26892,0.30121 0.0469,0.0504 0.0953,0.10067 0.14528,0.1506 l 0.13995,0.1506 0.1506,0.15609 c 0.10399,0.11113 0.20803,0.226 0.31202,0.34447 0.1005,0.11468 0.19918,0.23116 0.29604,0.34963 0.71681,0.93488 1.29981,1.96514 1.73219,3.06098 0.42343,1.07622 0.71433,2.19991 0.86648,3.34637 0.12155,0.88078 0.18241,1.76854 0.1821,2.65697 z m -8.15849,-18.33691 c 9.2e-4,-0.0173 -0.001,-0.0348 -0.007,-0.0516 -0.01,-0.0368 -0.0224,-0.0728 -0.0376,-0.10766 -0.0143,-0.0357 -0.025,-0.0606 -0.0321,-0.0749 -0.22117,-0.47376 -0.50547,-0.91538 -0.84518,-1.31282 -0.34754,-0.4089 -0.75369,-0.76408 -1.20514,-1.05423 -0.43912,-0.2855 -0.93128,-0.47951 -1.44712,-0.57029 -0.33489,-0.0498 -0.67476,-0.057 -1.01145,-0.0213 -0.31807,0.0346 -0.62964,0.11424 -0.92525,0.23664 -0.0148,0.004 -0.0292,0.009 -0.0428,0.0161 -0.0122,0.006 -0.0247,0.0115 -0.0376,0.016 l -0.0107,0.005 c -0.0825,0.0359 -0.16148,0.0735 -0.23679,0.113 -0.0789,0.0394 -0.156,0.0826 -0.23132,0.12913 -0.37827,0.23477 -0.71756,0.52705 -1.00565,0.86649 -0.29409,0.35019 -0.53513,0.74178 -0.71541,1.16205 -0.18824,0.42949 -0.3116,0.88449 -0.36593,1.35026 l -0.0107,0.0857 c -0.003,0.0575 -0.002,0.1151 0.005,0.17223 0.002,0.0486 0.0258,0.0937 0.0641,0.12365 0.0361,-0.0174 0.0674,-0.0433 0.0914,-0.0754 0.0248,-0.0356 0.0464,-0.0734 0.0643,-0.11299 0.018,-0.0396 0.0306,-0.0701 0.0378,-0.0915 0.0107,-0.0321 0.0214,-0.0627 0.0321,-0.0915 l 0.032,-0.0962 c 0.0436,-0.1475 0.0836,-0.29128 0.11973,-0.43129 0.0362,-0.14 0.0792,-0.27989 0.12914,-0.41968 0.0543,-0.14874 0.12088,-0.29265 0.19903,-0.43034 0.16073,-0.27591 0.34808,-0.5355 0.55948,-0.77481 0.19639,-0.22203 0.41447,-0.42375 0.651,-0.60242 0.043,-0.0324 0.0879,-0.063 0.13462,-0.0915 0.0429,-0.0285 0.0877,-0.057 0.13446,-0.0856 0.38,-0.23614 0.80196,-0.3969 1.24276,-0.47344 0.4395,-0.0752 0.88974,-0.0606 1.32347,0.0428 0.47536,0.11446 0.92568,0.31504 1.3288,0.59176 0.0574,0.0394 0.11849,0.0826 0.18304,0.12929 0.061,0.0469 0.12182,0.0952 0.18273,0.14512 0.19104,0.15569 0.36925,0.32659 0.53268,0.51105 0.15427,0.16847 0.30129,0.34601 0.44116,0.53252 0.13986,0.18295 0.28511,0.37662 0.43567,0.5811 l 0.0592,0.0807 c 0.0249,0.0386 0.0536,0.0745 0.0856,0.10751 0.0357,0.0285 0.0642,0.0357 0.0856,0.0215 0.007,-0.0161 0.0114,-0.0333 0.0124,-0.0506 z m -0.0351,37.04853 c 3.2e-4,-0.0101 -0.004,-0.0198 -0.0108,-0.0269 -0.0565,-0.0161 -0.11694,0.005 -0.15061,0.0536 -0.0513,0.054 -0.0963,0.11357 -0.13446,0.17756 l -0.0534,0.113 c -0.061,0.0932 -0.12743,0.1846 -0.19918,0.27425 -0.0656,0.091 -0.13737,0.17731 -0.21502,0.25827 -0.27208,0.29726 -0.58348,0.55607 -0.92541,0.76932 -0.34729,0.21121 -0.71716,0.38263 -1.10281,0.51105 -0.38612,0.1245 -0.78496,0.20572 -1.18901,0.24213 -0.22917,0.0179 -0.45944,0.0179 -0.68861,0 -0.20429,-0.0194 -0.40601,-0.0589 -0.60242,-0.11832 -0.0425,-0.0105 -0.0839,-0.0249 -0.1238,-0.0429 -0.043,-0.0141 -0.0843,-0.0283 -0.12365,-0.0428 -0.29411,-0.1232 -0.56386,-0.29806 -0.79628,-0.51638 -0.24142,-0.22888 -0.45296,-0.48737 -0.62953,-0.76932 -0.19209,-0.31175 -0.36112,-0.6371 -0.50572,-0.97352 l -0.0213,-0.0701 c -0.0143,-0.0323 -0.032,-0.0717 -0.0534,-0.11832 -0.0251,-0.0574 -0.0524,-0.12002 -0.0818,-0.18806 -0.0252,-0.0612 -0.0485,-0.1133 -0.0699,-0.15609 l -0.0321,-0.0699 -0.016,-0.0161 c -0.007,-0.007 -0.0177,-0.009 -0.027,-0.005 -0.0354,0.0284 -0.0538,0.0732 -0.0484,0.11832 -0.004,0.0523 2e-5,0.10481 0.0108,0.15609 l 0.016,0.0856 c 0.0381,0.52516 0.19062,1.03559 0.44664,1.4957 0.24836,0.45197 0.5938,0.84322 1.01145,1.14575 0.43275,0.30516 0.93298,0.50097 1.45793,0.57045 0.10042,0.0143 0.20262,0.025 0.30654,0.0321 0.10042,0.007 0.20263,0.0106 0.30669,0.0106 0.0701,8e-5 0.14014,-0.003 0.20984,-0.0106 0.0719,3e-5 0.14365,-0.004 0.21517,-0.0108 0.47638,-0.05 0.94253,-0.17156 1.38271,-0.36045 0.43992,-0.18711 0.84828,-0.44118 1.21048,-0.75318 0.36197,-0.30789 0.66621,-0.67767 0.89861,-1.09216 0.0359,-0.0609 0.0772,-0.12728 0.12381,-0.19903 0.0466,-0.0753 0.0896,-0.15058 0.12913,-0.22583 0.0371,-0.0689 0.0624,-0.14342 0.0749,-0.22065 z m -4.25861,-12.46537 c 0.004,-0.0588 -0.006,-0.11813 -0.0298,-0.17286 -0.0287,-0.0785 -0.0646,-0.15407 -0.10751,-0.22583 -0.0143,-0.025 -0.0271,-0.0485 -0.0378,-0.0699 -0.0102,-0.0134 -0.0193,-0.0278 -0.027,-0.0428 -0.15913,-0.27152 -0.29927,-0.55371 -0.41952,-0.84454 -0.10967,-0.26797 -0.20126,-0.54305 -0.27426,-0.82324 -0.0144,-0.0538 -0.027,-0.10764 -0.0378,-0.16141 -0.0108,-0.0574 -0.0235,-0.11297 -0.0378,-0.16675 -0.0468,-0.21882 -0.0845,-0.44471 -0.11299,-0.6778 -0.0359,-0.23315 -0.0663,-0.47893 -0.0914,-0.73719 -0.004,-0.0122 -0.006,-0.0249 -0.005,-0.0376 v -0.0486 c -0.008,-0.0641 -0.0223,-0.12708 -0.0429,-0.18821 -0.022,-0.0576 -0.064,-0.1053 -0.11832,-0.13446 -0.11607,0.0663 -0.19674,0.18049 -0.2205,0.31202 -0.039,0.14747 -0.059,0.29942 -0.0592,0.45197 v 0.28506 c 0.002,0.17877 0.0199,0.35695 0.0536,0.53253 0.0394,0.19378 0.0895,0.39643 0.1506,0.6079 -0.0573,0.0754 -0.10576,0.1436 -0.14528,0.20451 l -0.0699,0.113 c -0.12908,0.18968 -0.23553,0.39371 -0.31735,0.60806 -0.0957,0.22605 -0.1713,0.46013 -0.22599,0.69942 -0.018,0.0717 -0.0342,0.14695 -0.0484,0.22583 -0.0144,0.0717 -0.027,0.1471 -0.0378,0.22598 -0.19007,-0.28696 -0.36249,-0.58523 -0.51638,-0.89312 -0.15487,-0.31347 -0.29309,-0.63487 -0.4142,-0.96287 -0.0396,-0.11126 -0.0773,-0.22613 -0.11315,-0.34446 -0.0358,-0.11832 -0.0699,-0.23496 -0.10218,-0.34979 -0.19437,-0.70331 -0.31875,-1.42409 -0.37126,-2.15187 -0.0538,-0.72953 -0.0412,-1.46241 0.0378,-2.18964 0.0726,-0.71426 0.21136,-1.4203 0.41435,-2.10894 0.0214,-0.0718 0.0427,-0.14173 0.0641,-0.20984 0.0215,-0.0754 0.0449,-0.14713 0.0699,-0.21517 0.0469,-0.1363 0.0952,-0.27073 0.14512,-0.40339 0.0502,-0.12909 0.10231,-0.26008 0.15609,-0.39289 0.10769,-0.24749 0.22056,-0.48244 0.33882,-0.70475 0.11483,-0.21875 0.23499,-0.43214 0.36044,-0.64019 0.0178,0.0721 0.0357,0.14033 0.0536,0.20452 0.0143,0.0645 0.032,0.13091 0.0534,0.19903 0.0589,0.1885 0.13266,0.37201 0.22066,0.54882 0.0824,0.16958 0.17971,0.33156 0.29055,0.4841 0.0351,0.0469 0.0747,0.0901 0.11832,0.12913 0.048,0.0521 0.10431,0.0956 0.16675,0.12898 0.0582,0.0348 0.12738,0.0463 0.1937,0.0321 0.0178,-0.0425 0.0253,-0.0886 0.0215,-0.13446 -0.007,-0.0514 -0.02,-0.10179 -0.0376,-0.1506 -0.0228,-0.0635 -0.0516,-0.12486 -0.0857,-0.18305 -0.0273,-0.0398 -0.0521,-0.0811 -0.0748,-0.12365 -0.13692,-0.28507 -0.24682,-0.58234 -0.32816,-0.88795 -0.079,-0.31217 -0.12936,-0.63091 -0.15061,-0.95221 -0.007,-0.1328 -0.0108,-0.26371 -0.0108,-0.39273 0,-0.13266 0.004,-0.26357 0.0108,-0.39273 0.0316,-0.42677 0.10917,-0.84893 0.23131,-1.25906 0.1193,-0.4027 0.2872,-0.78929 0.50024,-1.15124 0.0251,-0.0358 0.0682,-0.10025 0.12914,-0.19355 0.061,-0.0896 0.12382,-0.18841 0.18837,-0.29603 0.0621,-0.0966 0.11777,-0.19714 0.16675,-0.30105 0.026,-0.0438 0.0459,-0.0908 0.0592,-0.13995 0.0103,-0.0274 0.0121,-0.0572 0.005,-0.0856 l -0.0106,-0.0161 c -0.006,-0.006 -0.0118,-0.0135 -0.016,-0.0215 -0.12882,-0.0239 -0.26126,0.0162 -0.35512,0.10766 -0.12684,0.0982 -0.24078,0.21198 -0.33898,0.33882 l -0.18288,0.2368 c -0.23518,0.29213 -0.42386,0.61886 -0.55948,0.96851 -0.14963,0.37549 -0.2544,0.76731 -0.31202,1.16738 -0.0644,0.41454 -0.0859,0.83463 -0.0643,1.25357 -0.18639,0.23293 -0.36057,0.47526 -0.52186,0.72623 -0.16134,0.25462 -0.31012,0.51474 -0.44649,0.78013 -0.036,0.0681 -0.0683,0.13624 -0.0968,0.20436 -0.0322,0.0645 -0.0645,0.13077 -0.0969,0.19903 -0.004,-0.0114 -0.009,-0.0222 -0.016,-0.0321 -0.007,-0.0107 -0.0143,-0.0214 -0.0215,-0.0321 -0.19341,-0.32873 -0.36074,-0.67204 -0.5004,-1.02696 -0.13425,-0.33078 -0.24562,-0.67046 -0.33349,-1.01646 l -0.0428,-0.19354 c -0.0143,-0.0645 -0.0268,-0.12916 -0.0376,-0.19371 -0.054,-0.27029 -0.0936,-0.54323 -0.11847,-0.81774 -0.0285,-0.27609 -0.0498,-0.5577 -0.0641,-0.8447 0.0298,-0.47053 0.11286,-0.93618 0.24745,-1.38804 0.1393,-0.45197 0.32111,-0.8896 0.54318,-1.30717 0.014,-0.0252 0.0286,-0.0526 0.0429,-0.0809 0.0143,-0.0282 0.0303,-0.0569 0.0483,-0.0856 0.0143,-0.0252 0.0357,-0.061 0.0643,-0.10751 0.028,-0.0452 0.0495,-0.0943 0.0641,-0.14543 0.0152,-0.0444 0.0114,-0.093 -0.0107,-0.13447 -0.0578,0.0165 -0.11113,0.0457 -0.15608,0.0856 -0.0461,0.0456 -0.0891,0.0941 -0.12898,0.14528 -0.0357,0.0503 -0.0606,0.0863 -0.0749,0.10766 -0.20865,0.26797 -0.39234,0.55441 -0.54882,0.85583 -0.15259,0.29734 -0.28039,0.60684 -0.38192,0.92525 -0.0332,0.045 -0.0569,0.0962 -0.0699,0.15061 -0.02,0.0521 -0.0344,0.10622 -0.0428,0.16142 -0.006,0.0338 -0.009,0.0679 -0.0107,0.10217 l -0.0108,0.0484 v 0.0428 c -0.0964,0.42034 -0.1505,0.84926 -0.16142,1.28038 -0.0107,0.43052 0.02,0.86104 0.0917,1.2857 0.0389,0.26648 4.8e-4,0.001 0.0815,0.4225 0.10697,0.48234 0.26205,0.95275 0.46279,1.40418 0.20267,0.45245 0.44769,0.88467 0.73171,1.29103 -0.1684,0.49427 -0.30329,0.99939 -0.40355,1.51184 -0.21226,1.0275 -0.28996,2.07832 -0.23131,3.12587 0.0287,0.54169 0.0933,1.08076 0.19354,1.61386 0.0948,0.5265 0.23165,1.04461 0.40903,1.5493 -0.20255,0.33357 -0.38594,0.67852 -0.54898,1.03308 -0.16614,0.49456 -0.54746,1.19486 -0.5286,1.48629 -0.11384,0.44868 -0.17509,0.90907 -0.18273,1.3719 -0.0102,0.46826 0.0459,0.93567 0.16675,1.38819 -0.29275,0.34331 -0.52389,0.73449 -0.68329,1.15657 -0.16971,0.44257 -0.28008,0.90568 -0.32816,1.37722 -0.047,0.46595 -0.0343,0.93612 0.0378,1.39885 0.0627,0.42764 0.19529,0.84191 0.39257,1.22647 0.23721,0.4205 0.54277,0.79872 0.90394,1.11911 0.16473,0.14843 0.3647,0.25217 0.58095,0.30121 h 0.0215 c 0.007,0.004 0.0146,0.004 0.0213,0 0.0112,-0.004 0.0207,-0.0115 0.027,-0.0215 0.007,-0.009 0.009,-0.0212 0.005,-0.0321 -0.0247,-0.0323 -0.0516,-0.0628 -0.0806,-0.0914 l -0.0643,-0.0643 c -0.0431,-0.0358 -0.0843,-0.0735 -0.12365,-0.11299 -0.0431,-0.0361 -0.0843,-0.0719 -0.12365,-0.10751 -0.1457,-0.13423 -0.28228,-0.27811 -0.40887,-0.4305 -0.11636,-0.14597 -0.21576,-0.30475 -0.29604,-0.47328 -0.097,-0.20075 -0.17608,-0.40964 -0.23664,-0.6242 -0.13101,-0.45108 -0.19807,-0.91833 -0.19903,-1.38804 0.003,-0.45722 0.0698,-0.91169 0.19903,-1.35027 0.13299,-0.43813 0.32472,-0.85621 0.57013,-1.24276 0.0148,0.0258 0.0274,0.0528 0.0378,0.0807 0.011,0.0294 0.0236,0.0581 0.0376,0.0862 l 0.0321,0.0749 c 0.0141,0.0251 0.0285,0.0522 0.0428,0.0807 0.0538,0.10043 0.1111,0.20625 0.17208,0.31751 0.061,0.10756 0.12559,0.21153 0.1937,0.31202 0.0639,0.0908 0.13401,0.177 0.20984,0.25811 0.0105,0.007 0.0319,0.0234 0.0643,0.0484 0.0322,0.0198 0.0665,0.036 0.10218,0.0484 0.0402,-0.0608 0.0463,-0.13797 0.0161,-0.20435 -0.0336,-0.0748 -0.0732,-0.14686 -0.11832,-0.21533 l -0.0856,-0.10767 c -0.10881,-0.16716 -0.19905,-0.34561 -0.26908,-0.53236 -0.0738,-0.2013 -0.13136,-0.40822 -0.17208,-0.61872 -0.0214,-0.10042 -0.0392,-0.20455 -0.0534,-0.31218 -0.0143,-0.10399 -0.027,-0.20972 -0.0378,-0.31735 -0.0214,-0.24385 -0.0321,-0.48417 -0.0321,-0.72089 0.007,-0.23309 0.0234,-0.45008 0.0486,-0.651 0.0214,-0.14336 0.0427,-0.28501 0.0641,-0.42502 0.0285,-0.13986 0.057,-0.27797 0.0856,-0.4142 0.0181,-0.0574 0.0343,-0.11658 0.0486,-0.17756 0.018,-0.0648 0.034,-0.12583 0.0483,-0.18289 0.0897,-0.29435 0.19201,-0.57959 0.3067,-0.85582 0.11832,-0.27253 0.25107,-0.54323 0.39821,-0.81227 0.0214,0.0502 0.0464,0.10394 0.0749,0.16142 0.0292,0.0618 0.0633,0.12108 0.10203,0.17741 0.0862,0.1542 0.18491,0.31732 0.29603,0.48942 0.11476,0.17217 0.24022,0.34267 0.37659,0.51121 0.13623,0.17225 0.27804,0.33714 0.42518,0.49491 -0.0183,0.45387 0.0123,0.90844 0.0914,1.35575 0.0704,0.43183 0.19518,0.85304 0.37126,1.25358 0.15867,0.37061 0.38271,0.70957 0.66166,1.00063 0.0329,0.0354 0.0689,0.0679 0.10766,0.0968 0.0533,0.0375 0.11114,0.0682 0.17208,0.0914 0.0538,0.0245 0.11331,0.0338 0.17207,0.0269 0.0182,-0.0486 0.0182,-0.10215 0,-0.15076 -0.0241,-0.0622 -0.0546,-0.12172 -0.0914,-0.1774 -0.039,-0.0603 -0.0821,-0.11789 -0.12914,-0.17223 -0.0299,-0.0396 -0.0622,-0.0774 -0.0969,-0.113 l -0.0321,-0.0376 -0.0106,-0.0161 c -0.14725,-0.24133 -0.26474,-0.49972 -0.34979,-0.76932 -0.0949,-0.28693 -0.16154,-0.58244 -0.19903,-0.88231 -0.0432,-0.31196 -0.0645,-0.62647 -0.0641,-0.9414 0,-0.0824 0.002,-0.16671 0.005,-0.25294 0.004,-0.0825 0.009,-0.165 0.016,-0.24745 0.0271,-0.39124 0.0846,-0.77976 0.17208,-1.16205 0.0798,-0.35364 0.19138,-0.69942 0.33349,-1.03292 0.0325,0.0789 0.0667,0.15599 0.10234,0.23131 0.0359,0.0789 0.0736,0.15423 0.11299,0.22599 0.11186,0.21538 0.2395,0.42219 0.38192,0.61871 0.12204,0.16493 0.26691,0.31164 0.43034,0.43567 0.0181,0.0143 0.0415,0.0321 0.07,0.0534 0.0238,0.0205 0.0575,0.0247 0.0856,0.0107 0.004,-0.0194 0.007,-0.0388 0.008,-0.0585 z m -4.05817,-22.19606 c -0.0699,0.0241 -0.13815,0.0528 -0.20436,0.0857 l -0.1238,0.0641 c -0.44256,0.23815 -0.81111,0.59353 -1.0652,1.02712 -0.26643,0.46466 -0.44848,0.97277 -0.53785,1.50088 -0.0894,0.5388 -0.10378,1.08741 -0.0428,1.63016 0.0521,0.49542 0.19042,0.97787 0.40872,1.42565 0.0932,0.1828 0.18107,0.28323 0.2636,0.30121 0.0791,0.0178 0.13657,-0.0216 0.17223,-0.11832 0.0325,-0.13277 0.0306,-0.27171 -0.005,-0.40355 -0.003,-0.0104 -0.005,-0.0212 -0.005,-0.0321 l -0.0108,-0.0213 c -0.10429,-0.38752 -0.185,-0.78095 -0.24197,-1.17819 -0.0612,-0.43831 -0.0846,-0.88115 -0.0699,-1.32347 0.0146,-0.43405 0.0925,-0.86368 0.23132,-1.2752 0.13097,-0.38628 0.35875,-0.73251 0.66165,-1.00565 0.0325,-0.0502 0.0667,-0.0986 0.10234,-0.14512 0.0361,-0.0505 0.0718,-0.0972 0.10751,-0.13995 h 1.6e-4 c 0.0645,-0.0826 0.12713,-0.1559 0.1879,-0.21987 0.0648,-0.0682 0.12215,-0.12557 0.17207,-0.17208 z"
       style="fill-rule:evenodd;stroke-width:0.10698504" /><path
       inkscape:connector-curvature="0"
       id="path14-7"
       d="m 124.89711,143.95011 c -1.49296,1.40896 -4.0952,1.91377 -5.63786,0.28727 -0.57294,-0.59065 -1.5859,-2.16782 -0.68321,-0.49084 0.8189,1.86904 3.21438,2.1352 4.85866,1.25949 0.55159,-0.25024 1.05448,-0.60732 1.46241,-1.05592 z m -1.22192,-39.95594 c -2.0382,-1.60476 -5.16517,-0.16104 -5.70275,2.24323 -0.34077,1.88377 0.78903,-1.34628 1.30375,-1.69722 1.12705,-1.16369 3.01423,-1.34082 4.399,-0.54601 z m -2.40951,26.24169 c -0.44444,-1.05434 -0.9277,-2.67752 -1.03873,-3.52375 0.10353,1.23187 0.37154,2.46566 1.03873,3.52375 z m -0.39305,-15.88273 c -1.26471,1.56358 -1.71555,4.20617 -0.58063,6.09255 -0.62005,-2.06443 -0.40769,-4.15575 0.58063,-6.09255 z m -0.43551,20.22001 c -0.56229,-1.60697 -0.61097,-3.39154 -0.0104,-4.99847 -0.61365,-0.80817 -0.82823,2.11645 -0.70579,2.94568 0.0918,0.70679 0.23357,1.49957 0.71623,2.05279 z m -1.11911,-15.16591 c -0.48564,-0.59297 -1.22202,2.04894 -1.44386,2.94426 -0.58806,2.75915 -0.30476,5.82047 1.26631,8.21896 -0.64587,-2.17745 -1.73254,-4.62877 -1.18267,-7.09374 0.19063,-1.42621 0.68054,-2.80515 1.36022,-4.06948 z m -1.19434,0.2205 c -1.00165,-1.95909 -1.43972,-4.37124 -0.53806,-6.45046 -1.24301,2.11708 -0.85543,4.81214 0.3444,6.85384 l 0.0969,-0.19903 0.0969,-0.20436 z m -0.14026,10.12435 c -0.79619,-0.18463 -1.31331,2.74283 -1.14499,3.90082 -0.0524,0.89817 0.89989,2.63533 0.38281,0.80138 -0.25095,-1.60467 0.11878,-3.23258 0.76218,-4.7022 z m -0.49413,22.51058 c -2.08634,-0.6463 -3.25027,-2.85245 -3.16393,-4.93422 -1.19235,1.15868 1,4.93353 3.16393,4.93422 z m -0.44977,-12.13471 c -1.38975,-1.60478 -0.57488,-3.7903 -0.37357,-5.47463 -1.05869,1.58631 -1.10522,4.24735 0.37357,5.47463 z m -0.003,0.034 c -9.9e-4,0.002 0.001,-6e-5 0,0 z m -0.026,-31.25583 c -1.37573,0.96001 -1.30953,3.38436 -0.81868,4.99248 -0.12263,-1.46802 -0.19119,-3.54173 0.81868,-4.99248 z m -0.94782,-12.019984 c -1.57817,0.922529 -2.31916,2.920455 -2.1686,4.685974 0.59133,-1.30445 0.40415,-3.623151 2.1686,-4.685974 z m -1.10767,49.964314 c -1.94055,0.18579 -0.54174,-4.75754 -1.26352,-1.86648 -0.15202,0.7693 0.22289,2.14659 1.26352,1.86648 z m -0.37221,-45.00299 c -1.43555,-0.0819 -0.90037,3.14623 -0.82297,2.80769 -0.10084,-0.99055 0.0389,-2.10663 0.82297,-2.80769 z m -1.02116,36.61537 c -0.69425,1.99917 -0.89691,4.25249 -0.28034,6.29984 0.20164,-2.03803 -0.36225,-4.19524 0.28034,-6.29984 z m -0.13509,-33.66205 c -0.55819,-1.01592 -0.56969,2.48277 -0.30715,3.37943 0.10831,0.98867 0.38771,2.20891 0.15762,0.46186 -0.13178,-1.2771 -0.17713,-2.58997 0.14953,-3.84129 z m -0.68313,4.03482 c -0.80019,-0.25076 -2.0968,2.2323 -2.05637,3.37587 -0.14305,1.17696 0.37774,3.83547 0.786,4.04327 -0.50912,-2.19475 -1.02959,-4.95141 0.73661,-6.8217 0.24857,-0.0644 0.27033,-0.55176 0.53376,-0.59744 z m -0.0163,31.22496 c -1.76509,-1.86136 -2.02612,-4.66212 -1.35624,-7.05287 -0.45355,-0.97798 -0.73395,2.30703 -0.69094,3.1074 -0.041,1.37927 0.96611,4.02695 2.04715,3.94547 z m -0.12365,-25.52988 c -0.75667,1.00893 -0.9613,2.69353 -0.71987,3.94833 0.42335,-1.14177 -0.01,-2.74741 0.71973,-3.92459 l 8.1e-4,-0.0238 z m -0.0215,-0.0351 c 2.1e-4,-6.1e-4 -0.002,-2.7e-4 0,0 z m -0.10093,19.65568 c -0.61816,-1.08266 -0.75129,-2.53586 -0.78668,-3.59676 -0.27935,1.22572 -0.13051,2.77574 0.7639,3.69515 l 0.0234,-0.0989 z m -1.89799,-14.82929 c -0.40515,-0.76252 0.78852,-4.30272 -0.2163,-2.38208 -0.73627,2.45198 0.93774,4.80245 0.5893,7.29913 0.10272,2.45677 -1.05941,4.81709 -0.74393,7.26296 0.18046,1.4869 0.94735,1.43003 0.29862,-0.007 -0.25845,-2.13039 1.83271,-3.91948 1.44601,-6.24836 -4.1e-4,-1.97525 0.0244,-4.36558 -1.3737,-5.92506 z"
       style="fill:#ffffff;fill-opacity:1;fill-rule:evenodd;stroke-width:0.10698504" /><path
       inkscape:connector-curvature="0"
       id="path16-5"
       d="m 132.17125,124.44644 c -0.0164,-3.92432 -1.0427,-7.83833 -2.92062,-11.28154 0.48966,0.0479 0.58379,-0.97347 0.53274,-1.75169 -0.16445,-2.70977 -0.92144,-5.75786 -3.17812,-7.4809 -0.96009,-0.78945 -1.70151,0.0188 -1.76255,-1.19976 -0.64635,-1.42704 -2.50679,-3.79704 -4.01883,-1.93137 -0.44642,0.32317 1.28954,1.67023 -0.26315,0.62885 -0.64474,-0.58408 -3.06603,0.0139 -1.22669,-0.69946 2.51705,0.14804 0.77426,-3.602979 -0.86775,-4.009601 -1.61657,-0.806938 -3.3152,0.601374 -3.87098,2.093256 -0.54874,1.318995 -0.81692,2.883935 0.91877,3.032395 0.92023,1.20738 -1.79791,-0.94237 -1.61236,1.06926 -0.47293,0.91976 0.35439,3.05596 -0.53008,2.11117 -0.37116,2.00008 -0.16771,4.11088 0.3116,6.05183 -0.92348,-0.53085 -0.60401,-3.34464 -1.70693,-1.3577 -1.37226,1.79584 -1.18014,4.25811 -0.43855,6.26969 -0.0997,-0.97966 1.66946,-2.42639 0.78051,-0.68059 -0.57913,0.63569 0.28121,3.55435 -0.7417,2.94311 -0.18793,-1.18894 -0.94974,-2.51805 -1.00031,-0.47887 -0.26823,2.1437 0.9908,4.13455 0.91267,6.29111 0.19622,2.06555 -0.56059,4.03008 -1.05347,5.9813 -0.3282,1.0822 0.65716,3.49152 0.71972,1.29296 0.93186,-2.33692 0.38115,0.81916 0.84928,1.63052 0.42354,0.6829 0.48424,1.53188 0.19038,1.0111 0.62029,1.69392 -1.26172,-2.23175 -0.9717,-0.27766 -0.49698,2.20613 -0.0747,4.67627 1.504,6.35692 0.11446,-1.02873 1.50423,-3.30388 0.76293,-1.13034 -0.33424,1.459 -0.48919,4.30102 0.10815,4.93439 1.5117,-2.18825 -0.84509,2.48985 0.90781,2.85116 0.8423,0.0163 2.08743,-0.4275 0.70395,0.56583 -2.01949,0.24781 -0.052,3.97769 1.40792,4.56635 1.72253,1.32717 3.43318,-0.73115 4.2796,-2.10402 0.50024,-1.45605 -1.74327,-1.1585 -2.43399,-1.90381 0.49649,0.0897 2.50881,0.15778 3.13008,-0.7692 -0.40029,0.8741 -2.11187,1.44915 -0.26941,1.86556 1.73862,0.36702 4.41313,-2.3413 3.37315,-3.54436 1.21144,0.58529 2.91559,-1.00327 3.46874,-2.35121 1.07827,-2.20235 1.37772,-4.76035 1.04426,-7.17673 -1.3522,0.29751 1.25276,-2.29671 1.2554,-3.19841 1.14673,-2.57625 1.70773,-5.40323 1.70553,-8.21954 z m -6.47881,-18.39474 c -0.92463,-0.95258 -2.07366,-2.72917 -3.83817,-2.54659 -1.92392,-0.12218 -3.28638,1.51475 -3.76268,3.21621 -0.29064,0.1212 -0.76384,0.67246 -0.42337,-0.65595 0.49613,-2.372 3.32832,-4.076 5.55859,-2.81126 1.10061,0.60207 2.04242,1.61232 2.46563,2.79759 z m -0.0316,37.04869 c -0.90536,2.80846 -5.28805,4.08663 -7.12272,1.46732 -0.7083,-0.78691 -0.98745,-3.36362 0.0152,-1.18676 1.10479,2.01744 3.93164,2.4633 5.6921,1.0481 0.62818,-0.28077 0.92727,-1.07147 1.41541,-1.32866 z m -4.25846,-12.46522 c -0.63428,-0.0464 -1.11062,-1.84945 -1.22622,-0.18398 -0.39324,1.541 -0.14108,3.21638 0.48265,4.62317 -2.00717,-0.8314 -0.91962,-3.61549 -2.37805,-4.83113 -0.73363,-0.9842 -1.08528,2.21373 -1.1351,3.03968 -0.18146,0.90857 0.97986,3.96711 -0.32829,1.69419 -0.97729,1.77468 -0.77306,4.16476 0.60746,5.59423 -1.81866,-0.58555 -2.30927,-3.02853 -1.86662,-4.72345 1.26984,-1.87976 0.30159,-4.11619 1.4644,-6.12483 0.98824,-1.75432 -0.59096,-3.89025 3.8e-4,-5.88168 0.69204,-2.11555 0.2575,-3.8054 -0.66809,-5.75427 -0.39293,-1.88301 -0.0129,-4.12403 1.44042,-5.4618 -0.63432,1.44658 -0.93073,3.14106 -0.50382,4.72494 0.285,1.08943 0.80154,3.30137 1.53116,1.12937 0.47532,-1.41768 0.36125,-3.4692 1.89232,-4.41851 0.3867,0.89666 -1.24512,3.00311 -0.77817,4.42862 0.17381,0.83833 0.74593,3.30349 -0.39733,1.46709 -0.55124,-1.13037 -1.19839,1.98583 -1.44798,2.74569 -0.50434,2.49619 -0.24062,5.22933 1.1358,7.4169 1.02092,-1.20477 0.23526,-2.57521 0.83427,-3.81448 0.43943,1.34252 0.65579,2.85165 1.31229,4.15751 l 0.0296,0.1727 z m -4.05864,-22.1973 c -1.25213,1.46553 -1.35077,3.64066 -1.13526,5.51422 -0.34259,1.47683 -1.19087,-1.84757 -0.84872,-2.43087 0.10887,-1.25541 0.71765,-2.63252 1.98398,-3.08335 z"
       style="fill:#f3f3f3;fill-opacity:1;fill-rule:evenodd;stroke-width:0.10698504" /><path
       inkscape:connector-curvature="0"
       id="path18-3"
       d="m 125.47263,145.618 c 2.93933,-1.18878 3.72997,-4.73821 3.86661,-7.58875 0.1018,-1.07127 -0.58857,-2.36536 0.75994,-2.78916 0.88188,3.20885 0.30012,7.06608 -2.08777,9.50564 -0.6653,0.57662 -1.62565,1.17103 -2.53878,0.87227 z m -4.30935,3.37313 c 2.30924,0.53327 3.1424,-2.46817 4.45374,-3.07503 0.0217,1.4965 -1.73534,3.53798 -3.58727,3.35457 -0.29337,-0.0664 -0.60247,-0.12566 -0.86647,-0.27954 z m 7.67179,-13.22335 c 0.75371,-1.53341 1.92478,-3.29291 2.39021,-5.10785 1.8134,-5.70711 0.91379,-12.07043 -1.87285,-17.31009 1.65747,1.83164 3.2784,3.79906 3.87361,6.26497 1.55698,5.62847 0.31788,12.35978 -4.39097,16.15297 z m -7.68217,13.56228 c 1.74665,0.53111 -1.14247,2.39931 -2.109,2.76914 -1.51774,0.49359 2.10584,-1.62583 2.10904,-2.76904 z m 8.47835,-36.21187 c 0.48225,-3.01493 -0.36873,-6.31894 -2.35712,-8.64721 -0.51211,-0.70419 -3.04023,-1.36339 -0.88731,-1.10631 3.29054,1.24891 4.37971,5.24618 4.0697,8.4605 -0.22639,0.57886 0.0819,2.31039 -0.82527,1.29302 z m -4.48685,-9.83439 c -0.77291,-1.31548 -1.91178,-3.904678 -3.80741,-2.94486 -1.97455,1.74199 0.57092,-1.567299 1.80017,-0.569992 0.86532,0.300562 3.47719,3.045152 2.00724,3.514852 z m -7.16061,-6.778569 c 1.21943,0.150494 4.0742,2.054561 3.34579,3.050464 -1.28227,1.266825 -0.7568,-2.237024 -2.16672,-2.446304 -0.36572,-0.250519 -0.77269,-0.431398 -1.17907,-0.60416 z"
       style="fill:#e1e1e1;fill-opacity:1;fill-rule:evenodd;stroke-width:0.10698504" /></g></svg>