<svg enable-background="new 0 0 128 128" version="1.1" viewBox="0 0 300 300" xmlns="http://www.w3.org/2000/svg">
 <path d="m64.253 136.66c16.218 0 29.365 13.147 29.365 29.365v0.97833l-4.7841 23.656 4.7841 23.656v69.829c-8.8888 3.7698-18.665 5.8569-28.929 5.8569-10.604 0-20.678-2.2413-29.8-6.2504v-117.72c0-16.218 13.147-29.366 29.365-29.366z" fill="#cf4d3f" stroke-width="1.196"/>
 <path d="m-93.617 167h14.792v47.311h-14.792z" fill="#faf8ee" stroke-width="1.196"/>
 <path d="m80.648 116.47c0-1.0812 0.87668-1.9579 1.9579-1.9579h1.9579c1.0812 0 1.9579 0.87668 1.9579 1.9579v11.746c0 1.0812-0.87668 1.9579-1.9579 1.9579h-1.9579c-1.0812 0-1.9579-0.87667-1.9579-1.9579v-1.611h-18.598v-8.524h18.598z" fill="#a4a6a0" stroke-width="1.196"/>
 <path d="m-80.648 118.08h0.97834v8.524h-0.97834z" fill="#373936" opacity=".1" stroke-width="1.196"/>
 <path d="m-71.594 123.4h14.682v20.164h-14.682z" fill="#cf4d3f" stroke-width="1.196"/>
 <path d="m71.594 133.9c-2.1241 1.3515-4.6369 2.1456-7.3411 2.1456s-5.2182-0.79415-7.3411-2.1456v-10.506h14.682z" fill="#373936" opacity=".1" stroke-width="1.196"/>
 <path d="m28.186 131.55c9.5322-6.0674 19.88-10.745 30.732-13.894l5.3342-1.5476 2.1827 7.5205-5.3342 1.5476c-10.135 2.941-17.668 0.57408-26.577 6.2432l-15.751 10.025c-0.58605 0.37316-1.2642 0.57767-1.9591 0.59203l-5.2648 0.10285z" fill="#cf4d3f" stroke-width="1.196"/>
 <path d="m64.253 116.1 1.9579 6.7467v0.83961l-5.1106 1.4819c-0.97714 0.28345-1.9232 0.50591-2.8561 0.70206-4.0963-0.0466-7.5588-0.68532-10.897-1.3192-1.6326-0.30976-3.2173-0.6004-4.7996-0.8097 5.2948-2.4243 10.764-4.4671 16.371-6.0949z" fill="#373936" opacity=".1" stroke-width="1.196"/>
 <path d="m25.312 120.88c10.845-3.1694 22.087-4.7793 33.387-4.7793h5.5543v7.8303h-5.5543c-10.554 0-17.128-4.3726-27.263-1.4113l-17.921 5.2385c-0.66738 0.19496-1.3754 0.20213-2.0464 0.0215l-5.0854-1.3682z" fill="#cf4d3f" stroke-width="1.196"/>
 <path d="m69.636 137.62v-14.225h1.9579v14.225c12.659 3.2651 22.023 14.724 22.023 28.403v118.12c-1.916 0.81209-3.8787 1.5309-5.8736 2.1827v-120.3c0.0012-13.679-5.449-25.138-18.108-28.403z" fill="#fefefd" opacity=".2" stroke-width="1.196"/>
 <path d="m56.912 137.62v-14.225h1.9579v14.225c-12.659 3.2651-18.109 14.724-18.109 28.403v120.01c-1.9973-0.68053-3.9564-1.44-5.8724-2.282v-117.72c0-13.679 9.3648-25.138 22.023-28.403z" fill="#373936" opacity=".1" stroke-width="1.196"/>
 <path d="m-52.507 122.34a11.746 11.746 0 0 1-11.746 11.746 11.746 11.746 0 0 1-11.746-11.746 11.746 11.746 0 0 1 11.746-11.746 11.746 11.746 0 0 1 11.746 11.746z" fill="#fff" stroke-width="1.196"/>
 <path d="m-56.423 122.34a7.8303 7.8303 0 0 1-7.8303 7.8303 7.8303 7.8303 0 0 1-7.8303-7.8303 7.8303 7.8303 0 0 1 7.8303-7.8303 7.8303 7.8303 0 0 1 7.8303 7.8303z" fill="#008d95" stroke-width="1.196"/>
 <path d="m56.912 117.41 7.3411 5.6822" fill="none" stroke="#54544c" stroke-linecap="round" stroke-miterlimit="10" stroke-width=".89701"/>
 <path d="m64.253 122.34c4.3451 0 8.1305 2.3657 10.161 5.8724-2.032 3.5079-5.8162 5.8724-10.161 5.8724-4.3451 0-8.1305-2.3657-10.161-5.8724 2.0308-3.5067 5.8162-5.8724 10.161-5.8724z" fill="#eec932" stroke-width="1.196"/>
 <path d="m64.253 110.6c6.4872 0 11.746 5.2589 11.746 11.746 0 4.247-2.2617 7.9559-5.638 10.019 0.03827-0.0622 0.08492-0.11721 0.12199-0.1806 1.0178-1.739-13.191-17.366-14.552-16.815-0.59322 0.2404-1.1553 0.53701-1.6959 0.86711 2.0631-3.3764 5.772-5.6368 10.018-5.6368z" fill="#fefefd" opacity=".35" stroke-width="1.196"/>
 <path d="m-52.507 122.34a11.746 11.746 0 0 1-11.746 11.746 11.746 11.746 0 0 1-11.746-11.746 11.746 11.746 0 0 1 11.746-11.746 11.746 11.746 0 0 1 11.746 11.746z" fill="none" stroke="#54544c" stroke-miterlimit="10" stroke-width="1.196"/>
 <path d="m91.655 166.64c-9.293-14.485-20.958-23.132-44.175-21.527 4.6381-3.6 10.447-5.7648 16.773-5.7648 15.097 0 27.338 12.209 27.402 27.292z" fill="#fefefd" opacity=".046" stroke-width="1.196"/>
 <path d="m65.116 121.48" fill="none" stroke="#54544c" stroke-miterlimit="10" stroke-width="4.7841"/>
 <path d="m134.57 124.27c0.0744-3.7608-1.2369-7.6146-3.9085-10.311 0.97241-3.6713 0.27843-8.3789-3.1478-10.548-2.2565-0.43394-2.2045-4.5812-5.1696-4.2254-0.94317-0.27116-1.3395-2.1253-2.5364-2.5316-2.2379-1.7527-5.648-0.04324-6.2002 2.5852-0.0576 2.4566-1.0482 4.5814-1.2406 7.0369 0.98119 2.5181-2.6509 3.4264-2.3045 6.0532 0.47671 2.4016-0.36486 4.4356-0.50089 6.8326 0.51866 2.6879 1.0838 5.4511 0.41148 8.1704-0.72567 2.2615-0.22056 4.5856 0.27153 6.7209-0.57404 2.6722 0.51432 5.3333 2.1952 7.2141-0.48618 2.2139 0.86134 4.2292 1.0818 6.2192-0.43776 2.9379 2.3692 6.0593 5.4011 5.2453 2.4457-0.48647 3.0489-3.2386 5.4269-3.5679 1.7921-1.1075 1.5462-3.6339 3.8277-3.947 2.8206-2.369 3.3552-6.5735 2.5273-9.9859 1.3486-2.2065 3.4329-4.9522 3.6206-7.9781 0.16049-0.98555 0.24206-1.9843 0.24484-2.9825zm-0.71871 0.11957c0.0522 4.3171-1.6892 8.7556-5.1212 11.47 0.32117 0.67034 1.7519-1.6551 1.5836 0.19732 0.52676 3.2594-0.16258 7.2235-3.0228 9.2264-0.45447 1.1975-2.737-0.35212-2.4559 0.27529 2.1711 0.57731-0.70666 3.558-2.0817 3.6629-1.1597 0.39701-3.5637-1.0136-1.383-1.7155 0.55016-1.1926-2.1103 1.6793-2.92 0.16125 0.56442 1.0909 2.1455 0.41707 2.8078 1.728 1.474 0.58952-1.3661 2.4743-2.4054 2.7668-2.6587 0.78045-5.1314-2.0054-4.849-4.5845-0.12394-0.46301 2.3555-0.14127 1.7237-1.071-2.5887 1.5708-2.039-2.5163-1.619-3.3682-0.71698 0.784-0.90712 2.37-1.0976 0.46781-0.23013-1.925-0.0261-3.9618 0.80629-5.7239-1.0408 0.48922-0.84238 3.8073-2.1318 1.4365-1.388-2.0098-1.1287-4.6174-0.49841-6.8482 0.15153 1.1579 1.9353 2.9293 0.69952 0.88698-0.74667-0.69835 0.30389-4.4844-0.73299-2.0159 0.0331 1.3512-0.85015 1.8617-0.94426 0.16218-0.41828-2.0098 0.90475-3.8327 0.77875-5.8542 0.13437-2.2072-0.0626-4.4591-0.79855-6.546-0.33116-1.4746 0.56542-4.0825 1.1693-1.6194 0.73444 2.4357 0.17461-1.3973 0.7783-2.0568 1.1991-2.2223-0.93508 0.07-0.72435 1.0792-0.91032-2.4631-1.3219-5.6934 0.90666-7.6048 0.76232-1.1895 0.86833 2.9695 1.3042 1.8979-0.48028-2.1307-0.99345-4.4059-0.38659-6.5681 0.23618 1.2071 0.9185 1.3204 0.40859 0.12892-0.5208-1.5315 0.71066-3.3572 2.1735-2.0388-0.62029-1.4221-2.7707-0.18283-1.8579-2.2308 0.30822-2.0499 2.1604-4.0537 4.372-3.5282 1.0614 0.36981 4.6743 2.5179 2.4814 3.3311-0.29259 1.1637-2.0955 0.52872-2.1572 1.3238 0.92559-0.82775 3.8059 1.6565 1.888-0.18136 0.73543-2.2919 4.2007-1.2279 4.7272 0.96508 0.98512 0.84491-0.14965 1.1387-0.18506 1.5361 1.8986-0.90582 3.8059 1.4005 4.5143 2.9756 0.93552 1.9154 1.3942 5.6913 0.28774 6.7895-1.2022-0.93357-0.17491 0.84275 0.42239 1.1737 2.5586 2.5983 3.5604 6.3506 3.5392 9.9134zm-8.1585-18.337c-0.78388-2.3556-3.7815-4.1583-6.07-2.6769-1.167 0.43823-2.5256 3.1872-1.8729 3.572 0.31326-2.2489 2.632-4.3072 4.9471-3.4436 1.3594 0.32255 2.1747 1.8233 2.9959 2.5486zm-0.0351 37.049c-0.92526 1.0933-2.3046 2.3712-3.9807 2.3723-1.9434 0.31772-3.193-1.475-3.7445-3.0818-0.28963 1.9059 1.7016 3.8861 3.6905 3.599 1.748-0.0699 3.4462-1.2309 4.0347-2.8895zm-4.2586-12.465c-0.92523-1.0925-0.82057-3.5554-1.487-4.1996-0.0725 1.3028-0.11129 3.457-0.91458 3.9174-2.029-3.4271-1.8153-7.9696 0.20868-11.35-0.0751 1.1125 1.7703 2.522 0.73546 0.69865-0.79408-1.9285 4e-3 -3.9904 0.97556-5.6319-1.446 0.54948-1.8943 2.5887-1.8288 4.0512-0.72194 0.76325-1.2079 2.982-1.7 0.81859-0.8367-1.9906-0.77797-4.3418 0.41377-6.1808-0.77347 0.25739-1.4506 2.0271-1.5484 3.1267-0.74295 2.418 1.8707 4.3565 0.9155 6.5595-0.9082 2.3379 0.62174 4.9448-0.0516 7.058-1.3219 2.0387-0.24919 4.4042-1.5636 6.3448-0.44259 1.695 0.0479 4.1379 1.8666 4.7236-1.7507-1.3614-1.9841-4.1019-0.75862-5.9174 0.40744 1.1839 1.3317 1.6454 0.4355 0.24723-0.66313-1.5321-0.13735-4.9494 0.88166-5.1491 1.6102 1.3852 0.73574 3.7766 2.3298 5.2023 0.65572-0.0907-1.2217-2.3155-0.62391-3.3948 0.0531-1.0298 0.38585-3.5078 1.1188-1.3664 0.0847 0.0715 0.49888 0.6615 0.59514 0.44154zm-4.0582-22.196c-2.1894 0.93473-2.502 4.0657-1.4295 5.946 0.74638-0.73025-0.71054-3.2521 0.31472-4.545 0.29558-0.5173 0.72067-0.95896 1.1148-1.401z" fill-rule="evenodd" stroke-width=".10699"/>
 <path d="m124.9 143.95c-1.7338 1.7919-5.0907 1.7842-6.3438-0.56977-0.80034-0.842 0.86156 2.1812 1.8079 1.9375 1.6104 0.50727 3.4091-0.17898 4.5359-1.3678zm-1.2219-39.956c-2.1174-1.7756-5.838 0.19193-5.7152 2.8221 0.70755-1.7837 2.1203-3.683 4.3083-3.282 0.49314 0.0581 0.97588 0.21243 1.4069 0.45994zm-2.4095 26.242c-0.54832-0.93116-1.3584-5.1345-0.84049-2.1464 0.16149 0.7541 0.42703 1.4923 0.84049 2.1464zm-0.39305-15.883c-1.6142 1.3178-1.2952 5.4776-0.68715 5.7052-0.49314-1.9041-0.219-3.9662 0.68715-5.7052zm-0.43551 20.22c-1.0074-1.4133 0.16393-4.4028-0.39678-4.9958-0.50457 1.5693-0.58857 3.5926 0.39678 4.9958zm-1.1191-15.166c-1.2736 0.67811-1.4144 3.0422-1.68 4.5218-0.2023 2.2929 0.22673 4.6969 1.5024 6.6414-0.93941-2.6854-1.858-5.5921-0.91962-8.4149 0.25255-0.9562 0.62927-1.8777 1.0972-2.7483zm-1.1943 0.2205c-1.3405-1.5618-0.95153-5.7755-0.75222-6.047-1.0713 1.6184-0.44775 5.9888 0.75236 6.047zm-0.14026 10.124c-1.4532 1.0684-1.3913 3.7074-0.77933 5.3261 0.0885-0.70437-0.27979-3.4398 0.55156-4.7679l0.11042-0.28081zm-0.49413 22.511c-2.3004-0.2939-3.1023-3.8153-3.3487-4.6879-0.58484 1.9652 1.3611 4.5055 3.3487 4.6879zm-0.44977-12.135c-1.5803-1.2208-0.21745-4.8088-0.56009-5.1652-0.83504 1.5916-0.88575 3.8995 0.56009 5.1652zm-0.029-31.222c-1.6014 0.8967-1.1177 4.307-0.84079 4.7104-0.10706-1.5941-0.0906-3.3375 0.84079-4.7104zm-0.94782-12.02c-1.6175 0.64083-2.4854 3.8058-2.0662 4.4301 0.49273-1.5425 0.49372-3.5078 2.0662-4.4301zm-1.1077 49.964c-1.8262 0.28133-0.65427-4.5517-1.2956-1.5539-0.0346 0.71243 0.38471 1.8182 1.2956 1.5539zm-0.37221-45.003c-1.6794-0.20405-0.68128 4.5627-0.81363 1.6689 0.0804-0.62301 0.3338-1.2463 0.81363-1.6689zm-1.0212 36.615c-0.79679 1.6392-0.79946 5.5012-0.25102 5.9164 0.10089-1.9703-0.34541-3.9898 0.25102-5.9164zm-0.13509-33.662c-1.0765 0.12152-0.12751 4.6965-0.0858 4.3636-0.18248-1.4452-0.28276-2.9378 0.0858-4.3636zm-0.68313 4.0348c-1.88 0.69679-2.303 3.3083-1.9782 5.1176 0.012 1.0838 1.0595 3.4362 0.43539 1.0173-0.51004-2.1722-0.21571-4.6344 1.5428-6.1349zm-0.0163 31.225c-2.1581-1.6961-1.4706-5.5387-1.6616-7.0925-0.62172 2.3064-0.71346 5.3177 1.2615 7.0029l0.40002 0.0896zm-0.12365-25.53c-0.86393 0.80788-1.0083 3.9371-0.59733 3.5002 0.20755-1.1628-0.0288-2.4418 0.59733-3.5002zm-0.12243 19.621c-0.81164-0.73977-0.73154-5.1448-0.91344-2.3818-0.01 0.82996 0.34367 2.1129 0.91344 2.3818zm-1.898-14.829c-0.30108-0.77386 0.63133-4.4127-0.32719-1.9235-0.27065 2.9146 1.3349 5.7238 0.58292 8.6678-0.20031 1.9995-1.4347 4.9356-0.0899 6.4544-0.98332-2.4064 1.2869-4.4648 1.2525-6.8436-0.12505-2.1524 0.12568-4.6132-1.4184-6.3552z" fill="#fff" fill-rule="evenodd" stroke-width=".10699"/>
 <path d="m132.17 124.45c-0.0168-3.9255-1.0422-7.8368-2.9206-11.282 1.1318-1.1891 0.27008-3.3338 0.0499-4.8552-0.59038-2.046-1.7832-4.5484-4.1265-4.8702-0.56162-1.5296-2.5263-4.6265-4.3502-2.6383 0.19449 0.98705 0.62011 1.2087-0.57641 0.46036-1.1228 8e-3 -2.2468-0.3552-0.49034-0.54714 2.1782-1.1238-0.51911-4.5938-2.4995-4.2166-2.0438 0.32655-3.371 2.7503-2.9417 4.6719 0.73097 0.61739 2.2687 1.3796 0.25705 0.8422-1.5914 0.31643-0.14622 3.4065-1.2643 3.3914-0.2794 1.892-0.0798 3.827 0.37453 5.6756-0.67576-0.90089-1.0327-3.1338-1.9461-1.0134-1.2386 1.4105-0.73857 5.2878-0.15797 5.5433 0.33052-1.3093 1.5361-1.2605 0.58295 0.0356 0.0248 0.81184-0.07 4.1536-0.81398 1.7459-1.0473-1.7984-0.90937 2.042-0.58034 2.7483 0.9733 2.8539 0.98624 5.9648-0.0352 8.8089-0.94023 0.94448 0.18829 4.9987 0.58062 2.0168 0.85499-1.0895 0.14218 2.0354 0.94107 2.5256 0.30065 1.5122-0.13903 0.52171-0.99594-0.34073-0.65139 1.9848 0.0399 6.4123 1.5649 6.4787 0.24102-1.0848 1.3174-2.3054 0.60645-0.40837-0.17005 1.2066-0.66098 4.4151 0.40864 4.3129 0.65345-0.21024-1.0283 4.2026 1.6254 3.108 0.9189 0.38162-2.1968 1.0948-0.99128 2.4116 0.48076 2.1209 3.3152 4.4853 5.1532 2.3112 1.4234-0.92891 1.868-3.1179-0.42007-3.1156-2.1232-0.46495 3.0253-0.64797 2.186-0.8623-2.4912 1.88 2.0014 2.0211 2.6612 0.36812 1.421-0.69254 0.0368-2.8336 1.6199-2.2919 2.6754-1.0273 3.3758-4.2997 3.6382-6.8451 0.3807-2.0396-1.224-3.1415 0.59027-4.7491 1.5103-2.8684 2.2728-6.1703 2.2702-9.4208zm-6.4788-18.395c-1.1635-1.465-2.7903-3.1402-4.859-2.441-1.8432 0.0524-2.2352 3.0875-3.2836 3.1346 0.0642-2.8495 3.6737-5.092 6.0815-3.2468 0.92266 0.61494 1.6834 1.503 2.061 2.5531zm-0.0316 37.049c-0.91548 3.0014-5.769 4.1108-7.3666 1.1011-0.62061-0.80626-0.40192-2.5783 0.25903-0.82055 1.3566 2.5784 5.3094 2.342 6.7688-4e-3l0.33875-0.27662zm-4.2585-12.465c-1.7281-2.2644-1.5169 1.8885-1.2111 3.0539 0.3296 0.88824 0.65279 1.933-0.37229 0.73486-0.92556-1.1533-0.28384-4.1-2.0181-4.2371-0.85925 1.7467-0.65358 3.7856-0.40589 5.6122-1.1516-1.9073-1.4739 2.2201-0.91965 3.1988 0.24158 0.83972 1.546 2.1834 0.0639 1.0654-1.942-1.785-0.83633-4.3757-0.26631-6.4497-0.32643-2.5104 1.7726-4.639 0.82347-7.1195-0.70855-2.3273 1.0008-4.6881-0.14937-6.9832-1.1844-2.1544-0.97417-5.1372 0.84823-6.8856-0.98045 2.1138-0.95928 4.7643 0.29738 6.7387 1.5023-0.94968 0.70491-3.6351 2.1209-4.8986 1.3605-0.71655-0.39243 2.2647-0.34522 3.1632 0.0903 1.479 0.91649 3.8273-0.75258 2.1736-1.6107 3.1585-1.7967 7.2314 0.11152 10.317 1.0028-0.79771 0.23655-3.5437 0.91421-3.5609 0.37741 1.3739 0.7054 2.7696 1.2609 4.0767zm-4.0586-22.197c-1.6432 1.5176-0.83987 4.357-1.4605 5.8395-1.1036-1.837-0.66216-4.946 1.4605-5.8395z" fill="#f3f3f3" fill-rule="evenodd" stroke-width=".10699"/>
 <path d="m125.47 145.62c3.0671-1.2942 3.8154-5.0086 3.8732-7.9988-0.72242-1.2902 1.0006-3.5 1.0148-1.1494 0.4687 3.1898-0.36795 7.0196-3.2041 8.8841-0.50321 0.2808-1.1171 0.45421-1.6839 0.26411zm-4.3094 3.3731c2.1417 0.82274 3.3416-2.9897 4.4374-2.7887-0.30417 1.8922-2.5103 3.8051-4.4374 2.7887zm7.6718-13.223c1.6673-2.8227 2.9775-5.9029 3.2288-9.2059 0.44709-4.5453-0.57528-9.1894-2.7114-13.212 2.3388 2.348 4.07 5.3502 4.3627 8.6937 0.66096 4.9816-0.84344 10.497-4.8801 13.724zm-7.6822 13.562c2.0898 0.87913-3.0543 3.567-2.1095 2.4113 0.74693-0.72483 1.8571-1.3354 2.1095-2.4113zm8.4784-36.212c0.48176-3.1457-0.39989-6.5908-2.6306-8.9075-1.0507-0.42451-2.0613-1.2866-0.31179-0.72102 3.3796 1.5989 4.2319 5.8934 3.6462 9.2672 0.0656 0.50967-0.31242 0.99373-0.70386 0.36127zm-4.4868-9.8344c-0.7233-1.7056-2.5949-4.3942-4.532-2.4393 1.3099-2.3862 3.9722-0.6465 4.771 1.2 0.23821 0.39284 0.35875 1.0964-0.23903 1.2393zm-7.1606-6.7786c1.3395 0.0229 4.7978 2.6119 2.6646 3.2321-0.51798-1.5071-0.86184-2.8382-2.6646-3.2321z" fill="#e1e1e1" fill-rule="evenodd" stroke-width=".10699"/>
</svg>
