<?xml version="1.0" encoding="UTF-8" standalone="no"?>
<!-- Created with Inkscape (http://www.inkscape.org/) -->

<svg
   xmlns:dc="http://purl.org/dc/elements/1.1/"
   xmlns:cc="http://creativecommons.org/ns#"
   xmlns:rdf="http://www.w3.org/1999/02/22-rdf-syntax-ns#"
   xmlns:svg="http://www.w3.org/2000/svg"
   xmlns="http://www.w3.org/2000/svg"
   xmlns:sodipodi="http://sodipodi.sourceforge.net/DTD/sodipodi-0.dtd"
   xmlns:inkscape="http://www.inkscape.org/namespaces/inkscape"
   width="100mm"
   height="100mm"
   viewBox="0 0 100 100"
   version="1.1"
   id="svg1450"
   inkscape:version="0.92.3 (2405546, 2018-03-11)"
   sodipodi:docname="glasses.svg">
  <defs
     id="defs1444" />
  <sodipodi:namedview
     id="base"
     pagecolor="#ffffff"
     bordercolor="#666666"
     borderopacity="1.0"
     inkscape:pageopacity="0.0"
     inkscape:pageshadow="2"
     inkscape:zoom="1.979899"
     inkscape:cx="218.75404"
     inkscape:cy="194.2899"
     inkscape:document-units="mm"
     inkscape:current-layer="layer1"
     showgrid="false"
     inkscape:window-width="1920"
     inkscape:window-height="1032"
     inkscape:window-x="0"
     inkscape:window-y="48"
     inkscape:window-maximized="1" />
  <metadata
     id="metadata1447">
    <rdf:RDF>
      <cc:Work
         rdf:about="">
        <dc:format>image/svg+xml</dc:format>
        <dc:type
           rdf:resource="http://purl.org/dc/dcmitype/StillImage" />
        <dc:title></dc:title>
      </cc:Work>
    </rdf:RDF>
  </metadata>
  <g
     inkscape:label="Layer 1"
     inkscape:groupmode="layer"
     id="layer1"
     transform="translate(0,-197)">
    <path
       style="opacity:1;fill:#414141;fill-opacity:1;stroke:#414141;stroke-width:1.02679825;stroke-miterlimit:4;stroke-dasharray:none;stroke-opacity:1"
       d="m 54.237695,225.02246 41.981238,3.9325 0.455918,2.60162 -39.338643,-3.49111 z"
       id="rect5041-7-8"
       inkscape:connector-curvature="0"
       sodipodi:nodetypes="ccccc" />
    <path
       id="glasses-side-3"
       d="m 88.189532,229.55218 c -3.626193,1.34819 -7.031024,4.51459 -10.845862,6.73647 -1.651131,0.96178 -3.43875,1.72944 -5.294088,2.12428 -2.54787,0.54199 -5.261102,0.40112 -8.033981,0.89387 -2.572901,0.4575 -5.278099,0.92312 -7.943053,1.8641 -4.880665,1.72239 -9.2824,5.39624 -14.251819,8.40053 0.591902,1.70825 1.021973,3.99161 2.215789,4.83064 1.206971,0.84815 2.893107,1.35134 3.747545,2.76042 1.965671,3.24149 4.140827,6.12955 6.4633,8.61475 1.090741,1.16711 2.563315,1.58368 4.039421,1.60863 3.42148,0.0578 6.815134,-1.51802 9.651698,-3.62782 3.875263,-2.88251 5.195864,-7.69631 5.908226,-12.84386 0.240611,-2.09316 -0.119529,-4.24476 0.351602,-6.30372 0.280195,-1.2263 1.470595,-1.26763 2.249668,-1.60382 0.770691,-0.33298 1.735305,1.15112 2.175312,2.20368 1.511421,3.61427 3.50158,7.03389 6.269026,7.69025 3.867385,0.91762 8.859585,-2.36558 10.314268,-8.29201 0.573507,-2.33633 0.542693,-4.84244 0.705804,-7.30621 0.100513,-1.51566 0.148635,-3.30793 0.930347,-4.45494 0.31357,-0.4605 -0.04773,-1.6419 -0.06714,-2.41282 -0.0194,-0.84439 0.0194,-1.61807 -0.687641,-1.51899 -1.254046,0.17541 -2.562578,-0.25691 -3.909764,-0.0776 -1.306592,0.17386 -2.632898,0.21034 -3.988311,0.71423 0,0 -1.16e-4,-4e-5 -1.16e-4,-4e-5 M 60.10048,241.56898 c 1.465278,-0.55779 2.931915,-0.95973 4.393584,-1.10165 8.108997,-0.78749 9.052694,3.14668 7.796747,12.3418 -0.996632,7.29461 -5.614954,11.45748 -11.379164,12.86245 -2.827715,0.68935 -5.321447,-0.43255 -7.140578,-2.91899 -1.999744,-2.73364 -3.900566,-5.90966 -4.877794,-9.59783 -1.356965,-5.12147 3.45144,-7.75189 6.752769,-9.50349 1.473623,-0.78175 2.961643,-1.51301 4.454436,-2.08229 0,0 0,0 0,0 m 26.109331,-9.73009 c 1.022206,-0.37101 2.049302,-0.61103 3.046632,-0.80127 2.116983,-0.40364 4.956457,-0.89073 5.49686,3.00239 0.391768,2.82116 0.270105,5.83752 -0.001,8.70691 -0.253029,2.68331 -1.154619,4.99849 -2.71587,6.45143 -3.503054,3.26011 -7.577442,3.94442 -10.519369,-0.83554 -3.962776,-6.43959 -4.533372,-10.39922 1.633589,-14.91377 0.988947,-0.72393 2.020739,-1.23375 3.059245,-1.61015 0,0 0,0 0,0"
       inkscape:connector-curvature="0"
       style="fill:#414141;fill-opacity:1;stroke:#414141;stroke-width:1.02679825;stroke-miterlimit:4;stroke-dasharray:none;stroke-opacity:1" />
    <path
       style="opacity:1;fill:#414141;fill-opacity:1;stroke:#414141;stroke-width:1.02679825;stroke-miterlimit:4;stroke-dasharray:none;stroke-opacity:1"
       d="m 4.0925169,247.0666 37.7282121,2.50483 1.455926,4.04889 -33.9691798,-1.72572 z"
       id="rect5041-0"
       inkscape:connector-curvature="0"
       sodipodi:nodetypes="ccccc" />
  </g>
</svg>
