<?xml version="1.0" encoding="UTF-8" standalone="no"?>
<svg
   xmlns:dc="http://purl.org/dc/elements/1.1/"
   xmlns:cc="http://creativecommons.org/ns#"
   xmlns:rdf="http://www.w3.org/1999/02/22-rdf-syntax-ns#"
   xmlns:svg="http://www.w3.org/2000/svg"
   xmlns="http://www.w3.org/2000/svg"
   xmlns:sodipodi="http://sodipodi.sourceforge.net/DTD/sodipodi-0.dtd"
   xmlns:inkscape="http://www.inkscape.org/namespaces/inkscape"
   id="Layer_1"
   data-name="Layer 1"
   width="1000"
   height="1000"
   viewBox="0 0 1000 1000"
   version="1.1"
   sodipodi:docname="laptop.svg"
   inkscape:version="0.92.3 (2405546, 2018-03-11)">
  <metadata
     id="metadata524">
    <rdf:RDF>
      <cc:Work
         rdf:about="">
        <dc:format>image/svg+xml</dc:format>
        <dc:type
           rdf:resource="http://purl.org/dc/dcmitype/StillImage" />
        <dc:title>records-request-california-law-personnel-file</dc:title>
      </cc:Work>
    </rdf:RDF>
  </metadata>
  <defs
     id="defs522" />
  <sodipodi:namedview
     pagecolor="#ffffff"
     bordercolor="#666666"
     borderopacity="1"
     objecttolerance="10"
     gridtolerance="10"
     guidetolerance="10"
     inkscape:pageopacity="0"
     inkscape:pageshadow="2"
     inkscape:window-width="1920"
     inkscape:window-height="1004"
     id="namedview520"
     showgrid="false"
     inkscape:zoom="0.5918582"
     inkscape:cx="684.73165"
     inkscape:cy="525.68925"
     inkscape:window-x="0"
     inkscape:window-y="48"
     inkscape:window-maximized="1"
     inkscape:current-layer="Layer_1" />
  <title
     id="title2">records-request-california-law-personnel-file</title>
  <g
     id="g1461"
     transform="matrix(2.5501259,0,0,2.5501259,-765.8825,-143.28201)">
    <g
       data-name="Ôèãóðà 3"
       id="Ôèãóðà_3">
      <rect
         id="rect293"
         style="fill:#f3f3f3"
         ry="9.8999996"
         rx="9.8999996"
         height="186.11"
         width="269.89999"
         y="223"
         x="361.39999" />
    </g>
    <g
       data-name="Ôèãóðà 3 (êîïèÿ) 6"
       id="Ôèãóðà_3_êîïèÿ_6">
      <path
         id="path296"
         style="fill:#e9e9e9;fill-rule:evenodd"
         d="m 621.4,223 h -250 a 9.9,9.9 0 0 0 -9.9,9.9 v 166.3 a 9.9,9.9 0 0 0 9.9,9.9 h 250 a 9.9,9.9 0 0 0 9.9,-9.9 V 232.9 a 9.9,9.9 0 0 0 -9.9,-9.9 z m 8.4,176.2 a 8.3,8.3 0 0 1 -8.3,8.3 H 371.3 A 8.3,8.3 0 0 1 363,399.2 V 232.8 a 8.3,8.3 0 0 1 8.3,-8.3 h 250.1 a 8.3,8.3 0 0 1 8.3,8.3 z"
         inkscape:connector-curvature="0" />
    </g>
    <g
       data-name="Ôèãóðà 5"
       id="Ôèãóðà_5">
      <rect
         id="rect299"
         style="fill:#5e5e5e"
         height="9.3100004"
         width="218.7"
         y="223"
         x="386.20001" />
    </g>
    <g
       data-name="Ôèãóðà 7"
       id="Ôèãóðà_7">
      <rect
         id="rect302"
         style="fill:#444444"
         height="10.24"
         width="215.60001"
         y="220.5"
         x="387.79999" />
    </g>
    <g
       data-name="Ôèãóðà 3 (êîïèÿ)"
       id="Ôèãóðà_3_êîïèÿ_">
      <path
         id="path305"
         style="fill:#dadada;fill-rule:evenodd"
         d="m 473.1,409.1 h 46.5 a 4.9,4.9 0 0 0 -4.9,-4.7 h -36.6 a 4.9,4.9 0 0 0 -5,4.7 z"
         inkscape:connector-curvature="0" />
    </g>
    <g
       data-name="Ôèãóðà 4"
       id="Ôèãóðà_4">
      <rect
         id="rect308"
         style="fill:#dadada"
         ry="5"
         rx="5"
         height="49.630001"
         width="83.699997"
         y="347"
         x="454.5" />
    </g>
    <g
       data-name="Ôèãóðà 2"
       id="Ôèãóðà_2">
      <rect
         id="rect311"
         style="fill:#dadada"
         ry="7.4000001"
         rx="7.4000001"
         height="96.160004"
         width="218.7"
         y="243.10001"
         x="386.20001" />
    </g>
    <g
       data-name="Ôèãóðà 1"
       id="Ôèãóðà_1">
      <path
         id="path314"
         style="fill:#3d3d3d;fill-rule:evenodd"
         d="m 393.7,271 h 9.9 a 1.2,1.2 0 0 0 1.2,-1.2 v -9.9 a 1.2,1.2 0 0 0 -1.2,-1.2 h -9.9 a 1.2,1.2 0 0 0 -1.2,1.2 v 9.9 a 1.2,1.2 0 0 0 1.2,1.2 z m 15.5,0 h 9.9 a 1.2,1.2 0 0 0 1.2,-1.2 v -9.9 a 1.2,1.2 0 0 0 -1.2,-1.2 h -9.9 a 1.2,1.2 0 0 0 -1.2,1.2 v 9.9 a 1.2,1.2 0 0 0 1.2,1.2 z m 15.5,0 h 9.9 a 1.2,1.2 0 0 0 1.2,-1.2 v -9.9 a 1.2,1.2 0 0 0 -1.2,-1.2 h -9.9 a 1.2,1.2 0 0 0 -1.2,1.2 v 9.9 a 1.2,1.2 0 0 0 1.2,1.2 z m 15.5,0 h 9.9 a 1.2,1.2 0 0 0 1.2,-1.2 v -9.9 a 1.2,1.2 0 0 0 -1.2,-1.2 h -9.9 a 1.2,1.2 0 0 0 -1.2,1.2 v 9.9 a 1.2,1.2 0 0 0 1.2,1.2 z m 15.5,0 h 9.9 a 1.2,1.2 0 0 0 1.2,-1.2 v -9.9 a 1.2,1.2 0 0 0 -1.2,-1.2 h -9.9 a 1.2,1.2 0 0 0 -1.2,1.2 v 9.9 a 1.2,1.2 0 0 0 1.2,1.2 z m 15.5,0 h 9.9 a 1.2,1.2 0 0 0 1.2,-1.2 v -9.9 a 1.2,1.2 0 0 0 -1.2,-1.2 h -9.9 a 1.2,1.2 0 0 0 -1.2,1.2 v 9.9 a 1.2,1.2 0 0 0 1.2,1.2 z m 14.3,-1.2 a 1.2,1.2 0 0 0 1.2,1.2 h 9.9 a 1.2,1.2 0 0 0 1.2,-1.2 v -9.9 a 1.2,1.2 0 0 0 -1.2,-1.2 h -9.9 a 1.2,1.2 0 0 0 -1.2,1.2 z m 15.5,-9.9 v 9.9 a 1.2,1.2 0 0 0 1.2,1.2 h 9.9 a 1.2,1.2 0 0 0 1.2,-1.2 v -9.9 a 1.2,1.2 0 0 0 -1.2,-1.2 h -9.9 a 1.2,1.2 0 0 0 -1.2,1.2 z m 26.7,-1.2 h -9.9 a 1.2,1.2 0 0 0 -1.2,1.2 v 9.9 a 1.2,1.2 0 0 0 1.2,1.2 h 9.9 a 1.2,1.2 0 0 0 1.2,-1.2 v -9.9 a 1.2,1.2 0 0 0 -1.2,-1.3 z m 15.5,0 h -9.9 a 1.2,1.2 0 0 0 -1.2,1.2 v 9.9 a 1.2,1.2 0 0 0 1.2,1.2 h 9.9 a 1.2,1.2 0 0 0 1.2,-1.2 v -9.9 a 1.2,1.2 0 0 0 -1.2,-1.3 z m 15.5,0 h -9.9 a 1.2,1.2 0 0 0 -1.2,1.2 v 9.9 a 1.2,1.2 0 0 0 1.2,1.2 h 9.9 a 1.2,1.2 0 0 0 1.2,-1.2 v -9.9 a 1.2,1.2 0 0 0 -1.2,-1.3 z m 15.5,0 h -9.9 a 1.2,1.2 0 0 0 -1.2,1.2 v 9.9 a 1.2,1.2 0 0 0 1.2,1.2 h 9.9 a 1.2,1.2 0 0 0 1.2,-1.2 v -9.9 a 1.2,1.2 0 0 0 -1.2,-1.3 z m -180.5,27.9 h 17.7 a 1.2,1.2 0 0 0 1.2,-1.2 v -9.9 a 1.2,1.2 0 0 0 -1.2,-1.2 h -17.7 a 1.2,1.2 0 0 0 -1.2,1.2 v 9.9 a 1.2,1.2 0 0 0 1.2,1.2 z m 34.4,-1.2 v -9.9 a 1.2,1.2 0 0 0 -1.2,-1.2 H 417 a 1.2,1.2 0 0 0 -1.2,1.2 v 9.9 a 1.2,1.2 0 0 0 1.2,1.2 h 9.9 a 1.2,1.2 0 0 0 1.2,-1.3 z m 15.5,0 v -9.9 a 1.2,1.2 0 0 0 -1.2,-1.2 h -9.9 a 1.2,1.2 0 0 0 -1.2,1.2 v 9.9 a 1.2,1.2 0 0 0 1.2,1.2 h 9.9 a 1.2,1.2 0 0 0 1.2,-1.3 z m 15.5,0 v -9.9 a 1.2,1.2 0 0 0 -1.2,-1.2 H 448 a 1.2,1.2 0 0 0 -1.2,1.2 v 9.9 a 1.2,1.2 0 0 0 1.2,1.2 h 9.9 a 1.2,1.2 0 0 0 1.2,-1.3 z m 14.3,1.2 a 1.2,1.2 0 0 0 1.2,-1.2 v -9.9 a 1.2,1.2 0 0 0 -1.2,-1.2 h -9.9 a 1.2,1.2 0 0 0 -1.2,1.2 v 9.9 a 1.2,1.2 0 0 0 1.2,1.2 z m 15.5,0 a 1.2,1.2 0 0 0 1.2,-1.2 v -9.9 a 1.2,1.2 0 0 0 -1.2,-1.2 H 479 a 1.2,1.2 0 0 0 -1.2,1.2 v 9.9 a 1.2,1.2 0 0 0 1.2,1.2 z m 15.5,0 a 1.2,1.2 0 0 0 1.2,-1.2 v -9.9 a 1.2,1.2 0 0 0 -1.2,-1.2 h -9.9 a 1.2,1.2 0 0 0 -1.2,1.2 v 9.9 a 1.2,1.2 0 0 0 1.2,1.2 z m 4.3,-11.2 v 9.9 a 1.2,1.2 0 0 0 1.2,1.2 h 9.9 a 1.2,1.2 0 0 0 1.2,-1.2 v -9.9 a 1.2,1.2 0 0 0 -1.2,-1.2 H 510 a 1.2,1.2 0 0 0 -1.2,1.2 z m 15.5,0 v 9.9 a 1.2,1.2 0 0 0 1.2,1.2 h 9.9 a 1.2,1.2 0 0 0 1.2,-1.2 v -9.9 a 1.2,1.2 0 0 0 -1.2,-1.2 h -9.9 a 1.2,1.2 0 0 0 -1.1,1.2 z m 15.5,0 v 9.9 a 1.2,1.2 0 0 0 1.2,1.2 h 9.9 a 1.2,1.2 0 0 0 1.2,-1.2 v -9.9 a 1.2,1.2 0 0 0 -1.2,-1.2 H 541 a 1.2,1.2 0 0 0 -1.2,1.2 z m 15.5,0 v 9.9 a 1.2,1.2 0 0 0 1.2,1.2 h 9.9 a 1.2,1.2 0 0 0 1.2,-1.2 v -9.9 a 1.2,1.2 0 0 0 -1.2,-1.2 h -9.9 a 1.2,1.2 0 0 0 -1.1,1.2 z m 15.5,0 v 9.9 a 1.2,1.2 0 0 0 1.2,1.2 H 582 a 1.2,1.2 0 0 0 1.2,-1.2 v -9.9 a 1.2,1.2 0 0 0 -1.2,-1.2 h -10 a 1.2,1.2 0 0 0 -1.2,1.2 z m 26.7,-1.2 h -9.9 a 1.2,1.2 0 0 0 -1.2,1.2 v 9.9 a 1.2,1.2 0 0 0 1.2,1.2 h 9.9 a 1.2,1.2 0 0 0 1.2,-1.2 v -9.9 a 1.2,1.2 0 0 0 -1.1,-1.3 z m 0,-15.5 h -17.6 a 1.2,1.2 0 0 0 -1.2,1.2 v 9.9 a 1.2,1.2 0 0 0 1.2,1.2 h 17.7 a 1.2,1.2 0 0 0 1.2,-1.2 v -9.9 a 1.2,1.2 0 0 0 -1.2,-1.3 z m -203.7,43.4 h 20.8 a 1.2,1.2 0 0 0 1.2,-1.2 V 291 a 1.2,1.2 0 0 0 -1.2,-1.2 h -20.8 a 1.2,1.2 0 0 0 -1.2,1.2 v 9.9 a 1.2,1.2 0 0 0 1.2,1.2 z m 26.4,0 h 9.9 a 1.2,1.2 0 0 0 1.2,-1.2 V 291 a 1.2,1.2 0 0 0 -1.2,-1.2 h -10 a 1.2,1.2 0 0 0 -1.2,1.2 v 9.9 a 1.2,1.2 0 0 0 1.2,1.2 z m 15.5,0 h 9.9 a 1.2,1.2 0 0 0 1.2,-1.2 V 291 a 1.2,1.2 0 0 0 -1.2,-1.2 h -9.9 a 1.2,1.2 0 0 0 -1.2,1.2 v 9.9 a 1.2,1.2 0 0 0 1.2,1.2 z m 15.5,0 h 9.9 a 1.2,1.2 0 0 0 1.2,-1.2 V 291 a 1.2,1.2 0 0 0 -1.2,-1.2 h -9.9 a 1.2,1.2 0 0 0 -1.2,1.2 v 9.9 a 1.2,1.2 0 0 0 1.2,1.2 z m 26.7,-1.2 V 291 a 1.2,1.2 0 0 0 -1.2,-1.2 h -9.9 a 1.2,1.2 0 0 0 -1.2,1.2 v 9.9 a 1.2,1.2 0 0 0 1.2,1.2 h 9.9 a 1.2,1.2 0 0 0 1.1,-1.3 z m 15.5,0 V 291 a 1.2,1.2 0 0 0 -1.2,-1.2 h -9.9 A 1.2,1.2 0 0 0 481,291 v 9.9 a 1.2,1.2 0 0 0 1.2,1.2 h 9.8 a 1.2,1.2 0 0 0 1.3,-1.3 z m 15.5,0 V 291 a 1.2,1.2 0 0 0 -1.2,-1.2 h -9.9 a 1.2,1.2 0 0 0 -1.2,1.2 v 9.9 a 1.2,1.2 0 0 0 1.2,1.2 h 9.9 a 1.2,1.2 0 0 0 1.2,-1.3 z m 15.5,0 V 291 a 1.2,1.2 0 0 0 -1.2,-1.2 h -9.9 A 1.2,1.2 0 0 0 512,291 v 9.9 a 1.2,1.2 0 0 0 1.2,1.2 h 9.8 a 1.2,1.2 0 0 0 1.3,-1.3 z m 15.5,0 V 291 a 1.2,1.2 0 0 0 -1.2,-1.2 h -9.9 a 1.2,1.2 0 0 0 -1.2,1.2 v 9.9 a 1.2,1.2 0 0 0 1.2,1.2 h 9.9 a 1.2,1.2 0 0 0 1.2,-1.3 z m 15.5,0 V 291 a 1.2,1.2 0 0 0 -1.2,-1.2 h -9.9 A 1.2,1.2 0 0 0 543,291 v 9.9 a 1.2,1.2 0 0 0 1.2,1.2 h 9.8 a 1.2,1.2 0 0 0 1.3,-1.3 z m 15.5,0 V 291 a 1.2,1.2 0 0 0 -1.2,-1.2 h -9.9 a 1.2,1.2 0 0 0 -1.2,1.2 v 9.9 a 1.2,1.2 0 0 0 1.2,1.2 h 9.9 a 1.2,1.2 0 0 0 1.2,-1.3 z m 26.7,-11.2 h -22.4 a 1.2,1.2 0 0 0 -1.2,1.2 v 9.9 a 1.2,1.2 0 0 0 1.2,1.2 h 22.3 a 1.2,1.2 0 0 0 1.2,-1.2 v -9.9 a 1.2,1.2 0 0 0 -1.1,-1.2 z m 0,15.5 h -30.1 a 1.2,1.2 0 0 0 -1.2,1.2 v 9.9 a 1.2,1.2 0 0 0 1.2,1.2 h 30.1 a 1.2,1.2 0 0 0 1.2,-1.2 v -9.9 a 1.2,1.2 0 0 0 -1.2,-1.2 z m -45.6,12.4 h 9.9 a 1.2,1.2 0 0 0 1.2,-1.2 v -9.9 a 1.2,1.2 0 0 0 -1.2,-1.2 h -9.9 a 1.2,1.2 0 0 0 -1.2,1.2 v 9.9 a 1.2,1.2 0 0 0 1.2,1.2 z m -15.5,0 h 9.9 a 1.2,1.2 0 0 0 1.2,-1.2 v -9.9 a 1.2,1.2 0 0 0 -1.2,-1.2 h -9.9 a 1.2,1.2 0 0 0 -1.2,1.2 v 9.9 a 1.2,1.2 0 0 0 1.2,1.2 z m -15.5,0 h 9.9 a 1.2,1.2 0 0 0 1.2,-1.2 v -9.9 a 1.2,1.2 0 0 0 -1.2,-1.2 h -9.9 a 1.2,1.2 0 0 0 -1.2,1.2 v 9.9 a 1.2,1.2 0 0 0 1.2,1.2 z m -15.5,0 h 9.9 a 1.2,1.2 0 0 0 1.2,-1.2 v -9.9 a 1.2,1.2 0 0 0 -1.2,-1.2 h -9.9 a 1.2,1.2 0 0 0 -1.2,1.2 v 9.9 a 1.2,1.2 0 0 0 1.1,1.2 z m -15.5,0 h 9.9 a 1.2,1.2 0 0 0 1.2,-1.2 v -9.9 a 1.2,1.2 0 0 0 -1.2,-1.2 h -9.9 a 1.2,1.2 0 0 0 -1.2,1.2 v 9.9 a 1.2,1.2 0 0 0 1.1,1.2 z m -15.5,0 h 9.9 a 1.2,1.2 0 0 0 1.2,-1.2 v -9.9 a 1.2,1.2 0 0 0 -1.2,-1.2 h -9.9 a 1.2,1.2 0 0 0 -1.2,1.2 v 9.9 a 1.2,1.2 0 0 0 1.1,1.2 z m -15.5,0 h 9.9 a 1.2,1.2 0 0 0 1.2,-1.2 v -9.9 a 1.2,1.2 0 0 0 -1.2,-1.2 h -9.9 a 1.2,1.2 0 0 0 -1.2,1.2 v 9.9 a 1.2,1.2 0 0 0 1.1,1.2 z m -5.6,-12.4 h -9.9 a 1.2,1.2 0 0 0 -1.2,1.2 v 9.9 a 1.2,1.2 0 0 0 1.2,1.2 h 9.9 a 1.2,1.2 0 0 0 1.2,-1.2 v -9.9 a 1.2,1.2 0 0 0 -1.3,-1.2 z m -14.3,1.2 a 1.2,1.2 0 0 0 -1.2,-1.2 h -9.9 a 1.2,1.2 0 0 0 -1.2,1.2 v 9.9 a 1.2,1.2 0 0 0 1.2,1.2 h 9.9 a 1.2,1.2 0 0 0 1.2,-1.2 z m -15.5,0 a 1.2,1.2 0 0 0 -1.2,-1.2 h -28.6 a 1.2,1.2 0 0 0 -1.2,1.2 v 9.9 a 1.2,1.2 0 0 0 1.2,1.2 h 28.5 a 1.2,1.2 0 0 0 1.2,-1.2 z m -19.9,14.3 h -9.9 a 1.2,1.2 0 0 0 -1.2,1.2 v 9.9 a 1.2,1.2 0 0 0 1.2,1.2 h 9.9 a 1.2,1.2 0 0 0 1.2,-1.2 v -9.9 a 1.2,1.2 0 0 0 -1.2,-1.2 z m 15.5,0 h -9.9 a 1.2,1.2 0 0 0 -1.2,1.2 v 9.9 a 1.2,1.2 0 0 0 1.2,1.2 h 9.9 a 1.2,1.2 0 0 0 1.2,-1.2 v -9.9 a 1.2,1.2 0 0 0 -1.2,-1.2 z m 15.5,0 h -9.9 a 1.2,1.2 0 0 0 -1.2,1.2 v 9.9 a 1.2,1.2 0 0 0 1.2,1.2 h 9.9 a 1.2,1.2 0 0 0 1.2,-1.2 v -9.9 a 1.2,1.2 0 0 0 -1.2,-1.2 z m 18.6,0 h -13 a 1.2,1.2 0 0 0 -1.2,1.2 v 9.9 a 1.2,1.2 0 0 0 1.2,1.2 h 13 a 1.2,1.2 0 0 0 1.2,-1.2 v -9.9 a 1.2,1.2 0 0 0 -1.2,-1.2 z m 68.2,0 h -62.6 a 1.2,1.2 0 0 0 -1.2,1.2 v 9.9 a 1.2,1.2 0 0 0 1.2,1.2 h 62.7 a 1.2,1.2 0 0 0 1.2,-1.2 v -9.9 a 1.2,1.2 0 0 0 -1.2,-1.2 z m 18.6,0 h -13 a 1.2,1.2 0 0 0 -1.2,1.2 v 9.9 a 1.2,1.2 0 0 0 1.2,1.2 h 13 a 1.2,1.2 0 0 0 1.2,-1.2 v -9.9 a 1.2,1.2 0 0 0 -1.1,-1.2 z m 15.5,0 h -9.9 a 1.2,1.2 0 0 0 -1.2,1.2 v 9.9 a 1.2,1.2 0 0 0 1.2,1.2 h 9.9 a 1.2,1.2 0 0 0 1.2,-1.2 v -9.9 a 1.2,1.2 0 0 0 -1.1,-1.2 z m 14,7.8 h -8.4 a 1.2,1.2 0 0 0 -1.2,1.2 v 2.2 a 1.2,1.2 0 0 0 1.2,1.2 h 8.4 a 1.2,1.2 0 0 0 1.2,-1.2 v -2.2 a 1.2,1.2 0 0 0 -1.1,-1.3 z m 14,0 h -8.4 a 1.2,1.2 0 0 0 -1.2,1.2 v 2.2 a 1.2,1.2 0 0 0 1.2,1.2 h 8.4 a 1.2,1.2 0 0 0 1.2,-1.2 v -2.2 a 1.2,1.2 0 0 0 -1.2,-1.3 z m 14,0 h -8.4 a 1.2,1.2 0 0 0 -1.2,1.2 v 2.2 a 1.2,1.2 0 0 0 1.2,1.2 h 8.4 a 1.2,1.2 0 0 0 1.2,-1.2 v -2.2 a 1.2,1.2 0 0 0 -1.2,-1.3 z m -14,-6.2 h -8.4 a 1.2,1.2 0 0 0 -1.2,1.2 v 2.2 a 1.2,1.2 0 0 0 1.2,1.2 h 8.4 a 1.2,1.2 0 0 0 1.2,-1.2 v -2.2 a 1.2,1.2 0 0 0 -1.2,-1.3 z M 393.7,255.5 h 9.9 a 1.2,1.2 0 0 0 1.2,-1.2 v -3.7 a 1.2,1.2 0 0 0 -1.2,-1.2 h -9.9 a 1.2,1.2 0 0 0 -1.2,1.2 v 3.7 a 1.2,1.2 0 0 0 1.2,1.2 z m 16.2,0 h 9.9 a 1.2,1.2 0 0 0 1.2,-1.2 v -3.7 a 1.2,1.2 0 0 0 -1.2,-1.2 h -9.9 a 1.2,1.2 0 0 0 -1.2,1.2 v 3.7 a 1.2,1.2 0 0 0 1.1,1.2 z m 16.2,0 h 9.9 a 1.2,1.2 0 0 0 1.2,-1.2 v -3.7 a 1.2,1.2 0 0 0 -1.2,-1.2 h -10 a 1.2,1.2 0 0 0 -1.2,1.2 v 3.7 a 1.2,1.2 0 0 0 1.2,1.2 z m 16.2,0 h 9.9 a 1.2,1.2 0 0 0 1.2,-1.2 v -3.7 a 1.2,1.2 0 0 0 -1.2,-1.2 h -9.9 a 1.2,1.2 0 0 0 -1.2,1.2 v 3.7 a 1.2,1.2 0 0 0 1.1,1.2 z m 16.2,0 h 9.9 a 1.2,1.2 0 0 0 1.2,-1.2 v -3.7 a 1.2,1.2 0 0 0 -1.2,-1.2 h -9.9 a 1.2,1.2 0 0 0 -1.2,1.2 v 3.7 a 1.2,1.2 0 0 0 1,1.2 z m 16.2,0 h 9.9 a 1.2,1.2 0 0 0 1.2,-1.2 v -3.7 a 1.2,1.2 0 0 0 -1.2,-1.2 h -9.9 a 1.2,1.2 0 0 0 -1.2,1.2 v 3.7 a 1.2,1.2 0 0 0 1,1.2 z m 16.2,0 h 9.9 a 1.2,1.2 0 0 0 1.2,-1.2 v -3.7 a 1.2,1.2 0 0 0 -1.2,-1.2 h -9.9 a 1.2,1.2 0 0 0 -1.2,1.2 v 3.7 a 1.2,1.2 0 0 0 0.9,1.2 z m 16.2,0 h 9.9 a 1.2,1.2 0 0 0 1.2,-1.2 v -3.7 a 1.2,1.2 0 0 0 -1.2,-1.2 h -9.9 a 1.2,1.2 0 0 0 -1.2,1.2 v 3.7 a 1.2,1.2 0 0 0 0.9,1.2 z m 16.2,0 h 9.9 a 1.2,1.2 0 0 0 1.2,-1.2 v -3.7 a 1.2,1.2 0 0 0 -1.2,-1.2 h -9.9 a 1.2,1.2 0 0 0 -1.2,1.2 v 3.7 a 1.2,1.2 0 0 0 0.8,1.2 z m 16.2,0 h 9.5 a 1.2,1.2 0 0 0 1.2,-1.2 v -3.7 a 1.2,1.2 0 0 0 -1.2,-1.2 h -9.9 a 1.2,1.2 0 0 0 -1.2,1.2 v 3.7 a 1.2,1.2 0 0 0 1.2,1.2 z m 16.2,0 h 9.9 a 1.2,1.2 0 0 0 1.2,-1.2 v -3.7 a 1.2,1.2 0 0 0 -1.2,-1.2 h -9.9 a 1.2,1.2 0 0 0 -1.2,1.2 v 3.7 a 1.2,1.2 0 0 0 0.8,1.2 z m 16.2,0 h 9.9 a 1.2,1.2 0 0 0 1.2,-1.2 v -3.7 a 1.2,1.2 0 0 0 -1.2,-1.2 h -9.9 a 1.2,1.2 0 0 0 -1.2,1.2 v 3.7 a 1.2,1.2 0 0 0 0.7,1.2 z m 26.1,-6.2 h -9.9 a 1.2,1.2 0 0 0 -1.2,1.2 v 3.7 a 1.2,1.2 0 0 0 1.2,1.2 h 9.9 a 1.2,1.2 0 0 0 1.2,-1.2 v -3.7 a 1.2,1.2 0 0 0 -1.7,-1.2 z"
         inkscape:connector-curvature="0" />
    </g>
    <g
       data-name="Ôèãóðà 3 (êîïèÿ) 4"
       id="Ôèãóðà_3_êîïèÿ_4">
      <path
         id="path317"
         style="fill:#dadada"
         d="M 650.1,95.4 H 342.7 c -6.7,0 -11.3,6.4 -10.2,9.9 l 27.6,113.3 c 0.8,2.4 5.8,4.3 11.3,4.3 h 250 c 5.5,0 10.5,-1.9 11.3,-4.3 l 27.6,-113.3 c 1.1,-3.5 -3.5,-9.9 -10.2,-9.9 z"
         inkscape:connector-curvature="0" />
    </g>
    <g
       data-name="Ôèãóðà 3 (êîïèÿ) 5"
       id="Ôèãóðà_3_êîïèÿ_5">
      <path
         id="path320"
         style="fill:#3d3d3d"
         d="M 650.1,98.9 H 342.7 c -6.7,0 -11.3,2.9 -10.2,6.4 l 27.6,113.3 c 0.8,2.4 5.8,4.3 11.3,4.3 h 250 c 5.5,0 10.5,-1.9 11.3,-4.3 l 27.6,-113.3 c 1.1,-3.5 -3.5,-6.4 -10.2,-6.4 z"
         inkscape:connector-curvature="0" />
    </g>
    <g
       data-name="Ôèãóðà 6 (êîïèÿ) 3"
       id="Ôèãóðà_6_êîïèÿ_3">
      <polygon
         id="polygon323"
         style="fill:#c75a60"
         points="625.1,215.2 645.2,111.3 345.9,111.3 367.6,215.2 " />
    </g>
  </g>
</svg>
