<svg version="1.1" viewBox="0 0 300 100" xmlns="http://www.w3.org/2000/svg">
 <path d="m18.669 3.8951c2.8677 0.0563 28.106-2.2822 36.763 1.5184 8.6564 3.8006 7.3907 4.1732 12.648 8.3721-0.83814-2.4832-0.10971-0.38633-1.7685-2.7377 6.0426 2.8253 14.728 6.8431 16.653 17.101 5.1046 4.1965 6.8279 6.4702 10.072 14.702l-2.0146 33.702-4.5681-23.476s-5.6959-4.9958-6.87-9.8876c-4.8788 0.40065-18.054-5.0758-22.083-2.9244-4.0288 2.1513-6.204 3.9076-12.025 1.4499-5.8206-2.4578-7.0662-1.8771-13.474 1.2981-4.4673 1.2347-15.338 6.7122-15.338 6.7122l-6.1449 26.453-1.613-34.436-7.8792-8.3444s1.0909-2.777 5.3774-5.6096 6.9723-3.4112 6.9723-3.4112c-4.4839-2.3846-4.9698-3.7882-9.329-5.9234 7.1036-7.8814 14.594-8.9567 18.205-8.7518-2.4917-1.322-2.7039-3.0852-3.5844-5.8078z" fill="#231f20" stroke-width=".94675"/>
 <path d="m38.023 67.39c4.9374 1.3978 5.023 0.72867 6.4258 0.88715-0.0198 1.1011-0.0904 2.6272-2.0302 2.9184-1.9399 0.29116-24.92-3.3236-28.104-1.422 3.8634-7.8806 18.771-3.7814 23.708-2.3836z" fill="#3e3734" stroke-width=".94675"/>
 <path d="m63.79 66.104c-4.6726 2.1136-5.6925 1.625-7.0953 1.7572 0.0198 0.9183 0.5925 2.3761 2.5324 2.6189 1.9399 0.24283 16.82-8.7811 27.602-1.3709-1.9317-3.2862-5.955-7.589-10.782-7.4102-4.827 0.17886-9.5372 3.1747-12.257 4.4049z" fill="#3e3734" stroke-width=".94675"/>
 <path d="m75.003 68.539c-6.7841 0.0442-13.322 2.1121-19.981 2.939-2.7792 0.34513-5.6435 0.42979-8.4274 0.10889-3.7015-0.42682-7.2851-1.5602-10.984-2.0683-3.3059-0.4538-6.6528-0.9279-9.9793-0.94675-5.8133-0.0337-11.435 1.7412-17.134 2.6995 0 1.6254-0.33877 3.7119 0.51331 4.8546 0.8789 1.1784 2.3615 2.256 2.746 3.853 0.91187 3.7874 2.2066 7.4998 3.8621 11.059 0.80453 1.7296 2.3228 2.9354 4.0185 3.7661 4.0831 2.0003 8.9156 2.2944 13.395 1.6655 6.379-0.89578 9.8397-5.5629 12.48-10.896 0.98826-2.1677 1.0984-4.6696 2.4-6.6507 0.77295-1.1766 2.5681-0.68133 3.8508-0.6857 1.283-5e-3 2.3705 2.0764 2.7685 3.4614 1.409 4.9014 3.7584 10.102 8.4276 12.67 6.9725 3.8353 17.957 3.1179 22.481-3.7987 1.7706-2.7071 2.2594-5.9913 3.1476-9.056 0.5408-1.8658 1.0241-4.0903 2.947-5.1159 0.776-0.4141 0.2315-2.0658 0.3459-3.026 0.1248-1.046 0.3657-1.9716-1.1608-2.1768-2.6625-0.35862-5.2451-1.4487-7.97-1.8178-2.5822-0.3498-5.1121-0.85529-7.7469-0.83832zm-44.851 1.7416c1.9259-0.011 3.8434 0.12564 5.7153 0.51165 11.152 2.3002 11.378 6.781 6.7868 16.044-3.7411 7.5481-11.491 9.4393-19.3 7.6301-3.5999-0.83395-6.0612-3.2843-7.2223-6.6396-1.2253-3.5416-2.1522-7.3042-1.9422-11.027 0.28114-4.9844 6.0627-5.6849 10.202-6.139 1.8997-0.20833 3.8341-0.36905 5.7598-0.381zm40.721 0c1.9259 0.011 3.8603 0.17267 5.76 0.381 4.1396 0.4541 9.9217 1.1546 10.203 6.139 0.2098 3.7224-0.717 7.485-1.9425 11.027-1.1608 3.3553-3.6223 5.8056-7.2221 6.6396-7.8086 1.8092-15.559-0.0821-19.3-7.6301-4.591-9.2634-4.3654-13.744 6.7872-16.044 1.8717-0.38603 3.7892-0.5234 5.7149-0.51165z" fill="#3d3e40"/>
 <path d="m112.02 61.087h28.404v1.9561h-30.646v-57.298h2.2414z"/>
 <path d="m181.33 61.739q4.442 0 7.906-1.5486 3.5047-1.5893 5.9091-4.3197 2.4451-2.7304 3.7085-6.3981 1.3041-3.7085 1.3041-7.9467v-35.781h2.2821v35.781q0 4.6458-1.4671 8.721-1.4671 4.0345-4.2382 7.0502-2.7304 3.0157-6.6426 4.768-3.8715 1.7116-8.7618 1.7116t-8.8025-1.7116q-3.9122-1.7524-6.6426-4.768-2.7304-3.0157-4.1975-7.0502-1.4671-4.0752-1.4671-8.721v-35.781h2.2414v35.699q0 4.2382 1.2633 7.9467 1.3041 3.7085 3.7085 6.4796 2.4451 2.7304 5.9498 4.3197 3.5047 1.5486 7.9467 1.5486z"/>
 <path d="m235.22 63.043h-2.2414v-57.298h2.2414z"/>
 <path d="m293.54 11.695q-0.24451 0.40752-0.69279 0.40752-0.44827 0-1.2633-0.77429-0.77429-0.81505-2.2006-1.7931-1.4263-0.97806-3.6677-1.7523-2.2414-0.81505-5.5423-0.81505-3.3417 0-5.9498 1.0188-2.5674 0.97806-4.3197 2.6897-1.7524 1.7116-2.6489 3.953-0.89656 2.2006-0.89656 4.6458 0 3.1379 1.2633 5.257 1.2633 2.0784 3.3417 3.5047t4.6865 2.4044q2.6489 0.97806 5.4201 1.9154 2.7712 0.89655 5.3793 1.9561 2.6489 1.0188 4.7273 2.6081t3.3417 3.953q1.2633 2.3229 1.2633 5.7868 0 3.5455-1.2226 6.6834-1.1818 3.0972-3.5047 5.4201-2.2821 2.2821-5.6238 3.627-3.3009 1.3041-7.5392 1.3041-2.8934 0-5.257-0.52978-2.3229-0.48903-4.3197-1.4263-1.9561-0.97806-3.627-2.3636-1.6301-1.3856-3.1379-3.1379l0.52978-0.81505q0.20376-0.20376 0.32602-0.28527 0.16301-0.12226 0.44827-0.12226 0.28527 0 0.7743 0.52978 0.52978 0.48903 1.3448 1.2633 0.81504 0.73354 1.9561 1.6301 1.1411 0.8558 2.6896 1.6301 1.5893 0.73354 3.627 1.2633 2.0784 0.48903 4.6865 0.48903 3.7085 0 6.6426-1.1411 2.9342-1.1818 4.931-3.1787 2.0376-2.0376 3.0972-4.7273t1.0596-5.7461q0-3.2602-1.2633-5.3793t-3.3417-3.5455q-2.0376-1.4263-4.6865-2.3636-2.6489-0.97806-5.4201-1.8339-2.7304-0.89655-5.3793-1.9154-2.6489-1.0596-4.7273-2.6489-2.0376-1.6301-3.3009-3.9937-1.2633-2.4044-1.2633-5.9906 0-2.8119 1.0596-5.3793t3.0564-4.5235q2.0376-1.9969 4.9718-3.1787 2.9749-1.1818 6.8056-1.1818 4.3198 0 7.6207 1.3856 3.3417 1.3856 6.2351 4.3197z"/>
 <path d="m125.95 92.922-0.89328-2.9879h-7.4235l-0.89328 2.9879h-6.9614l7.7315-21.192h7.9163l7.7315 21.192zm-6.8998-7.7315h4.5896l-2.2178-7.5467h-0.12321z"/>
 <path d="m133.01 71.73h6.8074v15.771h10.873v5.4213h-17.681z"/>
 <path d="m150.89 71.73h18.328v5.0825h-11.52v2.9263h9.8569v4.8668h-9.8569v3.2343h11.736v5.0825h-18.543z"/>
 <path d="m186.45 85.56q0 3.9736-2.2794 5.8525-2.2486 1.879-6.4994 1.879t-6.5302-1.879q-2.2486-1.879-2.2486-5.8525v-0.27722h6.3762v0.24642q0 1.4477 0.52365 2.0638 0.55445 0.61606 1.6634 0.61606t1.6325-0.61606q0.55445-0.61606 0.55445-2.0638v-13.8h6.8074z"/>
 <path d="m201.77 92.922-0.89328-2.9879h-7.4235l-0.89328 2.9879h-6.9614l7.7315-21.192h7.9163l7.7315 21.192zm-6.8998-7.7315h4.5896l-2.2178-7.5467h-0.12321z"/>
 <path d="m223.98 92.922-8.902-10.288v10.288h-6.253v-21.192h5.9449l8.902 10.442v-10.442h6.253v21.192z"/>
 <path d="m241 71.73q11.12 0 11.12 10.596t-11.12 10.596h-9.1792v-21.192zm-2.3718 16.11h2.2486q4.2816 0 4.2816-4.5896v-1.8482q0-4.5896-4.2816-4.5896h-2.2486z"/>
 <path d="m273.19 78.229q0 1.9406-1.0473 3.5115t-3.0495 2.3102l4.7128 8.8712h-7.6391l-3.7579-7.7315h-2.5258v7.7315h-6.8074v-21.192h12.968q2.2794 0 3.8812 0.89328 1.6326 0.86248 2.4334 2.3718 0.83168 1.4785 0.83168 3.2343zm-6.9306 0.27722q0-0.83168-0.55445-1.3861t-1.3553-0.55445h-4.4664v3.912h4.4664q0.80088 0 1.3553-0.55445 0.55445-0.58525 0.55445-1.4169z"/>
 <path d="m284.32 71.36q5.4829 0 8.4708 2.8031t2.9879 8.1627q0 5.3597-2.9879 8.1627-2.9879 2.8031-8.4708 2.8031t-8.4708-2.7723q-2.9571-2.8031-2.9571-8.1935 0-5.3905 2.9571-8.1627 2.9879-2.8031 8.4708-2.8031zm0 5.0825q-2.187 0-3.3267 1.3245t-1.1397 3.5731v1.9714q0 2.2486 1.1397 3.5731t3.3267 1.3245 3.3267-1.3245q1.1705-1.3245 1.1705-3.5731v-1.9714q0-2.2486-1.1705-3.5731-1.1397-1.3245-3.3267-1.3245z"/>
</svg>
