<?xml version="1.0" encoding="UTF-8" standalone="no"?>
<!-- Generator: Adobe Illustrator 16.0.4, SVG Export Plug-In . SVG Version: 6.00 Build 0)  -->

<svg
   xmlns:dc="http://purl.org/dc/elements/1.1/"
   xmlns:cc="http://creativecommons.org/ns#"
   xmlns:rdf="http://www.w3.org/1999/02/22-rdf-syntax-ns#"
   xmlns:svg="http://www.w3.org/2000/svg"
   xmlns="http://www.w3.org/2000/svg"
   xmlns:sodipodi="http://sodipodi.sourceforge.net/DTD/sodipodi-0.dtd"
   xmlns:inkscape="http://www.inkscape.org/namespaces/inkscape"
   version="1.1"
   x="0px"
   y="0px"
   width="100"
   height="100"
   viewBox="0 0 93.75 93.75"
   enable-background="new 0 0 93 274"
   xml:space="preserve"
   id="svg2"
   inkscape:version="0.92.3 (2405546, 2018-03-11)"
   sodipodi:docname="avatar-banner2.svg"
   inkscape:export-filename="/home/huntingbears/Imágenes/Avatars/avatar-banner2.png"
   inkscape:export-xdpi="41.088001"
   inkscape:export-ydpi="41.088001"><metadata
     id="metadata186"><rdf:RDF><cc:Work
         rdf:about=""><dc:format>image/svg+xml</dc:format><dc:type
           rdf:resource="http://purl.org/dc/dcmitype/StillImage" /><dc:title></dc:title></cc:Work></rdf:RDF></metadata><defs
     id="defs184" /><sodipodi:namedview
     pagecolor="#ffffff"
     bordercolor="#666666"
     borderopacity="1"
     objecttolerance="10"
     gridtolerance="10"
     guidetolerance="10"
     inkscape:pageopacity="0"
     inkscape:pageshadow="2"
     inkscape:window-width="1600"
     inkscape:window-height="852"
     id="namedview182"
     showgrid="false"
     inkscape:zoom="1.6807384"
     inkscape:cx="96.916797"
     inkscape:cy="-7.6309476"
     inkscape:window-x="0"
     inkscape:window-y="48"
     inkscape:window-maximized="1"
     inkscape:current-layer="svg2"
     showguides="false"
     fit-margin-left="-0.1"><sodipodi:guide
       position="-23.075212,206.66102"
       orientation="1,0"
       id="guide4818"
       inkscape:locked="false" /></sodipodi:namedview><g
     id="BASEMENT"
     transform="translate(0,-180.25)" /><g
     id="BG"
     transform="translate(0,-180.25)" /><g
     id="LAYOUT"
     transform="translate(0,-180.25)" /><g
     id="SPRITE_B"
     transform="translate(0,-180.25)" /><g
     id="MENU"
     transform="translate(0,-180.25)" /><g
     id="g860"
     transform="translate(-919.10856,111.35009)"><path
       sodipodi:nodetypes="czccccccczzccccczcccc"
       inkscape:connector-curvature="0"
       id="path126-3"
       d="m 937.62036,-110.68952 c 2.86767,0.0563 28.10617,-2.28221 36.76264,1.51844 8.65645,3.80064 7.39071,4.17324 12.64787,8.37209 -0.83814,-2.48319 -0.10971,-0.38633 -1.7685,-2.73766 6.04264,2.82534 14.72806,6.84312 16.65343,17.1008 5.1046,4.1965 6.8279,6.47022 10.0725,14.70224 l -2.0146,33.70229 -4.5681,-23.47551 c 0,0 -5.69594,-4.99585 -6.86998,-9.88762 -4.87877,0.40065 -18.0543,-5.07575 -22.08314,-2.92442 -4.02885,2.15132 -6.20402,3.90764 -12.02468,1.44986 -5.82065,-2.45777 -7.06618,-1.87711 -13.47399,1.29813 -4.46726,1.23469 -15.33789,6.71218 -15.33789,6.71218 l -6.1449,26.45315 -1.61303,-34.43562 -7.87916,-8.34444 c 0,0 1.09093,-2.77703 5.3774,-5.60964 4.28649,-2.83259 6.97226,-3.41123 6.97226,-3.41123 -4.48391,-2.38459 -4.96983,-3.78823 -9.32899,-5.92342 7.10361,-7.88145 14.59377,-8.95667 18.20521,-8.75185 -2.4917,-1.32201 -2.70388,-3.08522 -3.58435,-5.80777 z"
       style="fill:#231f20;stroke-width:0.94675261" /><path
       sodipodi:nodetypes="zczcz"
       id="path124-3-6-0-6"
       d="m 956.97401,-47.19505 c 4.93744,1.39776 5.02303,0.72867 6.42585,0.88715 -0.0198,1.10109 -0.0904,2.62724 -2.03025,2.91841 -1.93987,0.29116 -24.91976,-3.32364 -28.10396,-1.42197 3.86342,-7.88056 18.77095,-3.78135 23.70836,-2.38359 z"
       style="fill:#614a41;fill-opacity:1;stroke-width:0.94675261"
       inkscape:connector-curvature="0" /><path
       sodipodi:nodetypes="sczcss"
       id="path124-3-6-0-3-7"
       d="m 982.74161,-48.48024 c -4.67261,2.11362 -5.69248,1.62505 -7.0953,1.75723 0.0198,0.9183 0.5925,2.37608 2.53235,2.61892 1.93987,0.24283 16.81989,-8.78109 27.60184,-1.3709 -1.9317,-3.28619 -5.95498,-7.58904 -10.78195,-7.41019 -4.827,0.17886 -9.53718,3.17467 -12.25694,4.40494 z"
       style="fill:#614a41;fill-opacity:1;stroke-width:0.94675261"
       inkscape:connector-curvature="0" /><path
       id="svg_7-5"
       d="m 993.95421,-46.04535 c -6.78413,0.0442 -13.32172,2.11212 -19.98081,2.93901 -2.77924,0.34513 -5.64354,0.42979 -8.42745,0.10889 -3.7015,-0.42682 -7.2851,-1.56018 -10.98405,-2.06827 -3.30586,-0.4538 -6.65281,-0.9279 -9.9793,-0.94675 -5.81326,-0.0337 -11.43546,1.74119 -17.13427,2.69953 0,1.62538 -0.33877,3.71193 0.51331,4.85459 0.8789,1.17837 2.36148,2.25603 2.746,3.85305 0.91187,3.78735 2.20661,7.49981 3.86214,11.05898 0.80453,1.72957 2.3228,2.93545 4.01853,3.7661 4.08309,2.00031 8.91564,2.29437 13.39494,1.66546 6.37899,-0.89578 9.83968,-5.56294 12.47988,-10.89574 0.98826,-2.1677 1.09842,-4.66957 2.39995,-6.65071 0.77295,-1.17661 2.56807,-0.68133 3.85076,-0.6857 1.28305,-0.005 2.37051,2.07642 2.76848,3.46143 1.409,4.90144 3.75836,10.10168 8.42763,12.66974 6.97253,3.83527 17.95748,3.11787 22.48145,-3.7987 1.7706,-2.70708 2.2594,-5.99133 3.1476,-9.05605 0.5408,-1.86583 1.0241,-4.09034 2.947,-5.11592 0.776,-0.4141 0.2315,-2.06579 0.3459,-3.02605 0.1248,-1.04599 0.3657,-1.97157 -1.1608,-2.1768 -2.6625,-0.35862 -5.2451,-1.44874 -7.97,-1.81777 -2.58223,-0.3498 -5.11209,-0.85529 -7.74689,-0.83832 z m -44.85088,1.74157 c 1.92593,-0.011 3.84341,0.12564 5.71533,0.51165 11.1525,2.30023 11.37786,6.78096 6.78681,16.04433 -3.74113,7.54807 -11.49092,9.43932 -19.2999,7.63014 -3.59993,-0.83395 -6.06124,-3.28426 -7.22229,-6.63958 -1.22527,-3.54156 -2.15216,-7.30418 -1.94225,-11.02657 0.28114,-4.98437 6.06267,-5.68487 10.20248,-6.13897 1.89973,-0.20833 3.83408,-0.36905 5.75982,-0.381 z m 40.72075,0 c 1.92592,0.011 3.86028,0.17267 5.76001,0.381 4.13963,0.4541 9.92171,1.1546 10.20251,6.13897 0.2098,3.72239 -0.717,7.48501 -1.9425,11.02657 -1.1608,3.35532 -3.6223,5.80563 -7.22207,6.63958 -7.80863,1.80918 -15.55859,-0.0821 -19.30007,-7.63014 -4.59105,-9.26337 -4.36535,-13.7441 6.78718,-16.04433 1.87173,-0.38603 3.78922,-0.5234 5.71494,-0.51165 z"
       inkscape:connector-curvature="0"
       style="fill:#191d2a;fill-opacity:1;stroke:#191d2a;stroke-width:0.43718448;stroke-miterlimit:4;stroke-dasharray:none;stroke-opacity:1" /></g></svg>