<svg version="1.1" viewBox="0 0 100 100" xmlns="http://www.w3.org/2000/svg">
 <path d="m21.637 3.8952c2.8677 0.0563 28.106-2.2822 36.763 1.5184 8.6564 3.8006 7.3907 4.1732 12.648 8.3721-0.83814-2.4832-0.10971-0.38633-1.7685-2.7377 6.0426 2.8253 14.728 6.8431 16.653 17.101 5.1046 4.1965 6.8279 6.4702 10.072 14.702l-2.0146 33.702-4.5681-23.476s-5.6959-4.9958-6.87-9.8876c-4.8788 0.40065-18.054-5.0758-22.083-2.9244-4.0288 2.1513-6.204 3.9076-12.025 1.4499-5.8206-2.4578-7.0662-1.8771-13.474 1.2981-4.4673 1.2347-15.338 6.7122-15.338 6.7122l-6.1449 26.453-1.613-34.436-7.8792-8.3444s1.0909-2.777 5.3774-5.6096 6.9723-3.4112 6.9723-3.4112c-4.4839-2.3846-4.9698-3.7882-9.329-5.9234 7.1036-7.8814 14.594-8.9567 18.205-8.7518-2.4917-1.322-2.7039-3.0852-3.5844-5.8078z" fill="#231f20" stroke-width=".94675"/>
 <path d="m40.991 67.39c4.9374 1.3978 5.023 0.72867 6.4258 0.88715-0.0198 1.1011-0.0904 2.6272-2.0302 2.9184-1.9399 0.29116-24.92-3.3236-28.104-1.422 3.8634-7.8806 18.771-3.7814 23.708-2.3836z" fill="#3e3734" stroke-width=".94675"/>
 <path d="m66.758 66.104c-4.6726 2.1136-5.6925 1.625-7.0953 1.7572 0.0198 0.9183 0.5925 2.3761 2.5324 2.6189 1.9399 0.24283 16.82-8.7811 27.602-1.3709-1.9317-3.2862-5.955-7.589-10.782-7.4102-4.827 0.17886-9.5372 3.1747-12.257 4.4049z" fill="#3e3734" stroke-width=".94675"/>
 <path d="m77.971 68.539c-6.7841 0.0442-13.322 2.1121-19.981 2.939-2.7792 0.34513-5.6435 0.42979-8.4274 0.10889-3.7015-0.42682-7.2851-1.5602-10.984-2.0683-3.3059-0.4538-6.6528-0.9279-9.9793-0.94675-5.8133-0.0337-11.435 1.7412-17.134 2.6995 0 1.6254-0.33877 3.7119 0.51331 4.8546 0.8789 1.1784 2.3615 2.256 2.746 3.853 0.91187 3.7874 2.2066 7.4998 3.8621 11.059 0.80453 1.7296 2.3228 2.9354 4.0185 3.7661 4.0831 2.0003 8.9156 2.2944 13.395 1.6655 6.379-0.89578 9.8397-5.5629 12.48-10.896 0.98826-2.1677 1.0984-4.6696 2.4-6.6507 0.77295-1.1766 2.5681-0.68133 3.8508-0.6857 1.283-5e-3 2.3705 2.0764 2.7685 3.4614 1.409 4.9014 3.7584 10.102 8.4276 12.67 6.9725 3.8353 17.957 3.1179 22.481-3.7987 1.7706-2.7071 2.2594-5.9913 3.1476-9.056 0.5408-1.8658 1.0241-4.0903 2.947-5.1159 0.776-0.4141 0.2315-2.0658 0.3459-3.026 0.1248-1.046 0.3657-1.9716-1.1608-2.1768-2.6625-0.35862-5.2451-1.4487-7.97-1.8178-2.5822-0.3498-5.1121-0.85529-7.7469-0.83832zm-44.851 1.7416c1.9259-0.011 3.8434 0.12564 5.7153 0.51165 11.152 2.3002 11.378 6.781 6.7868 16.044-3.7411 7.5481-11.491 9.4393-19.3 7.6301-3.5999-0.83395-6.0612-3.2843-7.2223-6.6396-1.2253-3.5416-2.1522-7.3042-1.9422-11.027 0.28114-4.9844 6.0627-5.6849 10.202-6.139 1.8997-0.20833 3.8341-0.36905 5.7598-0.381zm40.721 0c1.9259 0.011 3.8603 0.17267 5.76 0.381 4.1396 0.4541 9.9217 1.1546 10.203 6.139 0.2098 3.7224-0.717 7.485-1.9425 11.027-1.1608 3.3553-3.6223 5.8056-7.2221 6.6396-7.8086 1.8092-15.559-0.0821-19.3-7.6301-4.591-9.2634-4.3654-13.744 6.7872-16.044 1.8717-0.38603 3.7892-0.5234 5.7149-0.51165z" fill="#3d3e40"/>
</svg>
