<?xml version="1.0" encoding="UTF-8" standalone="no"?>
<!-- Generator: Adobe Illustrator 18.0.0, SVG Export Plug-In . SVG Version: 6.00 Build 0)  -->

<svg
   xmlns:dc="http://purl.org/dc/elements/1.1/"
   xmlns:cc="http://creativecommons.org/ns#"
   xmlns:rdf="http://www.w3.org/1999/02/22-rdf-syntax-ns#"
   xmlns:svg="http://www.w3.org/2000/svg"
   xmlns="http://www.w3.org/2000/svg"
   xmlns:sodipodi="http://sodipodi.sourceforge.net/DTD/sodipodi-0.dtd"
   xmlns:inkscape="http://www.inkscape.org/namespaces/inkscape"
   version="1.1"
   id="Capa_1"
   x="0px"
   y="0px"
   viewBox="0 0 489.418 489.418"
   style="enable-background:new 0 0 489.418 489.418;"
   xml:space="preserve"
   sodipodi:docname="alert.svg"
   inkscape:version="0.92.3 (2405546, 2018-03-11)"><metadata
   id="metadata43"><rdf:RDF><cc:Work
       rdf:about=""><dc:format>image/svg+xml</dc:format><dc:type
         rdf:resource="http://purl.org/dc/dcmitype/StillImage" /><dc:title></dc:title></cc:Work></rdf:RDF></metadata><defs
   id="defs41">


</defs><sodipodi:namedview
   pagecolor="#ffffff"
   bordercolor="#666666"
   borderopacity="1"
   objecttolerance="10"
   gridtolerance="10"
   guidetolerance="10"
   inkscape:pageopacity="0"
   inkscape:pageshadow="2"
   inkscape:window-width="1600"
   inkscape:window-height="852"
   id="namedview39"
   showgrid="false"
   inkscape:zoom="1.164074"
   inkscape:cx="23.949429"
   inkscape:cy="244.709"
   inkscape:window-x="0"
   inkscape:window-y="48"
   inkscape:window-maximized="1"
   inkscape:current-layer="Capa_1" />
<g
   id="g854"
   transform="matrix(0.72303162,0,0,0.72303162,67.776685,67.776655)"
   style="fill:#b22222"><path
     d="M 244.709,389.496 C 263.445,389.496 279.041,375.141 280.619,356.47 L 304.978,65.543 C 306.396,48.67 300.675,31.99 289.222,19.532 C 277.783,7.09 261.629,0 244.709,0 C 227.789,0 211.635,7.09 200.195,19.532 C 188.74,31.99 183.022,48.67 184.44,65.543 L 208.799,356.47 C 210.377,375.141 225.973,389.496 244.709,389.496 Z"
     id="path2"
     inkscape:connector-curvature="0"
     style="fill:#b22222" /><path
     d="M 244.709,410.908 C 223.025,410.908 205.453,428.479 205.453,450.164 C 205.453,471.847 223.025,489.418 244.709,489.418 C 266.393,489.418 283.965,471.847 283.965,450.164 C 283.965,428.479 266.393,410.908 244.709,410.908 Z"
     id="path4"
     inkscape:connector-curvature="0"
     style="fill:#b22222" /></g>
</svg>
