<?xml version="1.0" encoding="UTF-8" standalone="no"?>
<svg
   xmlns:dc="http://purl.org/dc/elements/1.1/"
   xmlns:cc="http://creativecommons.org/ns#"
   xmlns:rdf="http://www.w3.org/1999/02/22-rdf-syntax-ns#"
   xmlns:svg="http://www.w3.org/2000/svg"
   xmlns="http://www.w3.org/2000/svg"
   xmlns:sodipodi="http://sodipodi.sourceforge.net/DTD/sodipodi-0.dtd"
   xmlns:inkscape="http://www.inkscape.org/namespaces/inkscape"
   viewBox="0 0 500 1000"
   version="1.1"
   id="svg63"
   sodipodi:docname="me.svg"
   inkscape:version="0.92.3 (2405546, 2018-03-11)"
   width="500"
   height="1000">
  <sodipodi:namedview
     pagecolor="#ffffff"
     bordercolor="#666666"
     borderopacity="1"
     objecttolerance="10"
     gridtolerance="10"
     guidetolerance="10"
     inkscape:pageopacity="0"
     inkscape:pageshadow="2"
     inkscape:window-width="1600"
     inkscape:window-height="852"
     id="namedview65"
     showgrid="false"
     inkscape:zoom="0.91863692"
     inkscape:cx="-20.147888"
     inkscape:cy="632.84484"
     inkscape:window-x="0"
     inkscape:window-y="48"
     inkscape:window-maximized="1"
     inkscape:current-layer="svg63"
     inkscape:snap-global="false" />
  <metadata
     id="metadata69">
    <rdf:RDF>
      <cc:Work
         rdf:about="">
        <dc:format>image/svg+xml</dc:format>
        <dc:type
           rdf:resource="http://purl.org/dc/dcmitype/StillImage" />
        <dc:title />
      </cc:Work>
    </rdf:RDF>
  </metadata>
  <defs
     id="defs67" />
  <g
     id="full-body">
    <g
       id="legs">
      <g
         id="right-leg">
        <path
           inkscape:label="#upper-right-leg"
           sodipodi:nodetypes="czcccccccczc"
           style="fill:#41403a;fill-opacity:1;stroke-width:1.07287025"
           d="M 201.95693,422.13751 C 185.39124,437.06949 165.46184,463.69664 157.93261,475.22013 C 150.40336,486.74362 149.80013,490.34876 150.33601,496.384 C 149.73266,549.77502 159.93863,601.95483 164.66355,654.6533 C 159.3065,657.08416 159.8563,665.47221 165.51009,666.76999 C 164.77959,666.91991 159.36899,668.83079 164.46369,672.63263 C 170.38782,697.85522 221.34784,712.41398 236.2327,676.59317 C 240.00995,675.23292 241.87568,673.44875 239.10694,669.35048 C 241.33367,669.64032 243.92592,664.12467 239.50938,662.06463 C 247.90337,598.19144 252.67506,551.78017 253.12493,495.52176 C 251.58953,490.80665 251.49579,486.5808 246.74929,477.72824 C 242.00278,468.87567 214.53061,435.77992 201.95693,422.13751 Z"
           id="upper-right-leg"
           inkscape:connector-curvature="0" />
        <g
           id="lower-right-leg-plus-foot">
          <g
             id="right-foot-2">
            <path
               d="M 224.03049,850.2491 C 225.09146,850.5774 226.15242,850.90568 227.21338,851.23397 C 228.52319,853.08288 231.90729,855.67222 232.75269,859.0141 C 234.15569,864.56017 235.45727,876.11303 238.24968,880.72686 C 239.59492,884.97738 240.34798,889.49091 241.23457,893.9306 C 241.4598,895.8435 241.22067,897.8271 240.59132,899.54169 C 239.13405,901.34233 237.03444,901.38213 235.16883,901.69142 C 223.88246,903.1528 212.60429,904.7309 201.2931,905.87782 C 192.90202,906.72119 184.49403,907.29197 176.09223,907.95788 C 161.52237,909.04255 146.94927,910.06739 132.375,911.06756 C 126.63843,911.46544 120.89937,911.81221 115.16098,912.17275 C 113.60221,912.05246 112.40637,909.86502 112.56799,907.82705 C 112.52052,904.66411 112.49432,901.50136 112.48927,898.33882 C 112.78497,896.14824 113.78937,894.32718 114.59222,892.44471 C 116.17191,888.93646 117.84582,885.50973 119.48398,882.05232 C 122.17977,878.96571 125.40175,876.88342 128.59508,874.89756 C 133.63279,871.8361 139.14965,870.00552 144.73231,870.17059 C 149.09682,870.12679 153.46321,870.33238 157.82826,870.49484 C 166.55315,867.71064 158.84733,867.51506 167.84549,866.673 C 180.78642,864.98703 209.02796,850.49935 221.96889,848.81338 Z"
               id="path14-3-62"
               inkscape:connector-curvature="0"
               style="fill:#242424;fill-opacity:1;stroke-width:4.22042465"
               sodipodi:nodetypes="cssssssccccscsccccccc" />
            <path
               d="M 132.90842,873.43156 C 137.54086,873.54002 144.41211,877.00892 147.53284,881.5928 C 151.67267,887.54824 151.92263,894.74895 154.40105,902.10352 C 155.08601,904.21694 155.73951,906.34791 156.40298,908.47333 C 151.41242,910.99028 146.02426,911.4646 140.75383,912.22443 C 132.6766,913.0868 124.53759,913.56214 116.42865,912.58394 C 115.21679,912.33904 114.00721,912.07271 112.79989,911.78531 C 111.59455,910.63029 111.41205,908.48959 111.22983,906.67719 C 110.54639,897.94567 112.97327,889.09893 117.31531,882.78562 C 121.17339,877.17562 126.71658,873.83481 132.40607,873.46629 C 132.57281,873.44189 132.74097,873.44299 132.90842,873.43159 Z"
               id="path16-6-9"
               inkscape:connector-curvature="0"
               style="fill:#353535;fill-opacity:1;stroke:none;stroke-width:4.22042465"
               sodipodi:nodetypes="cscccccccccc" />
            <path
               d="M 133.42807,911.77812 C 154.40733,910.0583 171.02016,905.9486 194.61357,901.93144 C 209.26913,896.87129 224.19727,889.16977 239.16993,887.54813 C 240.21317,887.43891 241.29458,889.30426 241.88575,890.50051 C 242.61025,891.77986 242.86617,895.23885 242.74801,896.76918 C 242.66711,898.20809 242.88103,899.74544 242.47495,901.10534 C 239.79626,906.05403 235.19414,907.57892 230.29089,908.86589 C 212.24759,912.89877 190.4909,919.45822 174.21738,924.01194 C 151.87087,926.61798 136.65651,923.02803 114.30312,925.54308 C 112.56025,924.92396 111.57573,922.43312 111.46361,920.15025 C 111.2617,916.65472 110.9416,918.81063 110.83802,915.31041 C 111.88077,913.56942 113.66555,913.38517 115.21118,913.22805 C 121.28348,912.74474 127.35576,912.26143 133.42806,911.77812 Z"
               id="path18-7-1"
               inkscape:connector-curvature="0"
               style="fill:#121212;fill-opacity:1;stroke-width:4.22042465"
               sodipodi:nodetypes="cccccccccccccc" />
            <path
               d="M 239.89491,884.52734 C 240.70509,885.42467 240.18236,887.81691 239.16993,887.54813 C 220.2622,892.33223 201.3079,900.65724 183.00152,905.34425 C 163.92575,908.51963 144.76134,910.77265 125.57861,912.67495 C 122.37164,913.00929 116.25437,913.60041 113.05087,913.98247 C 112.31497,914.27623 111.42614,914.31703 111.19691,913.03552 C 111.14537,912.03654 111.28439,910.69097 111.9044,910.59712 C 129.12415,908.15669 149.60996,906.36541 166.82683,903.88828 C 178.1153,902.2495 187.60062,897.51237 198.86456,894.18127 C 210.12851,890.85016 224.98212,883.05613 238.24968,880.72686 Z"
               id="path20-5-2"
               inkscape:connector-curvature="0"
               style="fill:#7b7b7b;fill-opacity:1;stroke-width:4.22042465"
               sodipodi:nodetypes="cccccccczcc" />
          </g>
          <g
             id="right-foot-3">
            <path
               d="M 208.4234,870.1167 C 207.5945,869.39763 206.76561,868.67854 205.93672,867.95946 C 203.87515,867.76777 200.12209,866.21773 197.24625,867.12992 C 192.4736,868.64376 183.43753,873.13764 178.55905,873.05301 C 174.75045,873.98996 171.08355,875.54343 167.39515,876.95087 C 165.89354,877.68692 164.60052,878.84104 163.71903,880.18821 C 163.23822,882.26149 164.38271,884.01694 165.20264,885.70885 C 170.45762,895.74676 175.62407,905.83416 181.11909,915.74098 C 185.20086,923.08664 199.19656,926.77809 203.41196,934.04704 C 210.77245,946.61861 218.17778,959.16402 225.6015,971.69849 C 228.52053,976.63421 231.47771,981.54735 234.42459,986.46656 C 235.38204,987.69759 237.62341,987.63181 238.99882,986.51555 C 241.30014,985.02979 243.58944,983.52653 245.86676,982.00588 C 247.27702,980.70516 248.02554,978.99654 248.93085,977.42498 C 250.57137,974.42714 252.10063,971.39069 253.67192,968.36901 C 254.38561,964.65149 254.08299,960.98309 253.72702,957.38487 C 253.11413,951.74283 251.34826,946.29802 248.11035,941.76102 C 245.70328,938.13065 236.47859,934.61101 230.85164,934.62439 C 227.9792,926.0669 232.42533,932.34496 228.00341,924.4979 C 221.98551,912.98346 216.62576,882.64376 210.60784,871.12932 Z"
               id="path14-3-67-9"
               inkscape:connector-curvature="0"
               style="fill:#242424;fill-opacity:1;stroke-width:3.92326784"
               sodipodi:nodetypes="cssssssccccscsccccccc" />
            <path
               d="M 252.50726,950.42149 C 249.84098,946.64297 245.03159,944.59445 239.99121,944.22388 C 233.39502,943.67186 226.55196,944.97585 219.87777,946.47234 C 217.97509,946.9249 216.07735,947.41194 214.17805,947.88805 C 215.15622,953.22856 217.8256,957.91302 220.22387,962.63777 C 224.11662,969.73306 228.32225,976.69283 233.55645,982.9269 C 234.4097,983.81098 235.27707,984.68282 236.15832,985.54266 C 237.66248,985.9825 239.61069,985.93058 241.01598,985.20741 C 247.67758,981.56265 252.37757,974.46099 254.4921,967.82634 C 256.37121,961.93101 255.67679,955.73628 252.76296,950.85366 C 252.68734,950.70402 252.5926,950.56549 252.50723,950.42151 Z"
               id="path16-6-5-2"
               inkscape:connector-curvature="0"
               style="fill:#353535;fill-opacity:1;stroke:none;stroke-width:3.92326784"
               sodipodi:nodetypes="cscccccccccc" />
            <path
               d="M 217.53165,965.50404 C 207.04684,947.32596 199.92918,939.34005 189.63604,917.89252 C 185.08685,903.33329 180.33836,888.74447 173.139,875.5809 C 172.63467,874.66553 170.68889,874.67064 169.49824,874.75854 C 168.17333,874.77626 165.54263,876.23239 164.50802,877.06794 C 163.51835,877.82861 162.29317,878.39296 161.54202,879.38445 C 159.47955,883.98562 160.95419,888.5266 162.76818,893.20187 C 169.94901,910.0673 187.77711,932.41152 193.59454,948.06455 C 204.20588,967.80058 220.33721,981.97678 227.23975,993.54308 C 234.34083,993.31561 239.02729,990.73256 236.15832,985.54266 C 229.27419,979.09801 224.46825,974.00987 217.53165,965.50404 Z"
               id="path18-7-3-0"
               inkscape:connector-curvature="0"
               style="fill:#121212;fill-opacity:1;stroke-width:3.92326784"
               sodipodi:nodetypes="ccccccccccc" />
            <path
               d="M 174.9065,873.5249 C 173.80847,873.28757 172.38003,874.87327 173.139,875.5809 C 180.26254,893.52339 187.68937,919.36188 197.78528,933.56065 C 206.1597,950.86644 213.87731,961.64258 225.82193,978.02549 C 227.3733,980.8387 234.95307,986.06526 236.46818,988.89862 C 238.11123,988.53722 239.96854,986.3646 241.01598,985.20741 C 231.38021,976.86918 216.93279,955.11052 209.0948,939.67861 C 203.96624,929.55344 196.2283,922.44365 192.33056,911.5228 C 188.43282,900.60194 184.29679,885.14773 178.55905,873.05301 Z"
               id="path20-5-5-2"
               inkscape:connector-curvature="0"
               style="fill:#7b7b7b;fill-opacity:1;stroke-width:3.92326784"
               sodipodi:nodetypes="ccccccczcc" />
          </g>
          <g
             id="right-foot-1">
            <path
               d="M 230.97452,853.29867 C 231.78801,853.71305 232.60148,854.12742 233.41496,854.54179 C 234.31031,856.61902 236.78862,859.61331 237.20438,863.28419 C 237.89435,869.37627 238.41834,876.69626 240.27642,881.85367 C 241.01851,886.53749 241.27287,891.47399 241.63831,896.33777 C 241.67191,898.42476 241.33368,900.56295 240.70663,902.38786 C 239.41939,904.26062 237.75751,904.18836 236.26017,904.42123 C 227.23264,905.38566 218.2028,906.47714 209.17941,907.09918 C 202.48607,907.55255 195.79993,907.70934 189.11153,907.96964 C 177.5182,908.34502 165.92681,908.65532 154.33637,908.9388 C 149.77394,909.05494 145.21342,909.11552 140.65237,909.19107 C 139.42989,908.97484 138.65015,906.53679 138.93163,904.33542 C 139.13284,900.90247 139.35083,897.4709 139.58538,894.04071 C 139.98432,891.68118 140.9153,889.76139 141.69169,887.7639 C 143.82511,878.45805 159.42385,867.62207 167.05471,867.14981 C 170.50637,867.34228 167.65167,865.74045 171.08818,866.15662 C 179.55965,860.30044 185.12527,855.65792 192.29816,855.23936 C 208.72481,853.97644 219.10222,852.7453 229.45393,851.62824 Z"
               id="path14-3-6"
               inkscape:connector-curvature="0"
               style="fill:#242424;fill-opacity:1;stroke-width:3.91620994"
               sodipodi:nodetypes="cssssssccccsccccccc" />
            <path
               d="M 179.45498,866.26859 C 187.68573,866.96877 195.2244,871.34658 200.40205,877.09524 C 207.28064,884.57451 211.5398,893.55988 215.34945,902.47031 C 216.39573,905.02745 217.3846,907.60126 218.3917,910.16975 C 209.31023,912.49655 199.68786,912.38456 190.25163,912.62114 C 175.81467,912.63014 161.29933,912.17905 146.95581,910.03111 C 144.82023,909.59463 142.69047,909.13336 140.56644,908.64774 C 138.51655,907.14735 138.3662,904.62049 138.18963,902.47772 C 137.68475,892.17862 142.7215,882.12969 150.9585,875.28151 C 158.27743,869.19618 160.93844,865.88357 171.08818,866.15662 C 171.38674,866.14862 179.1562,866.26126 179.45497,866.26866 Z"
               id="path16-6-7"
               inkscape:connector-curvature="0"
               style="fill:#353535;fill-opacity:1;stroke:none;stroke-width:6.10262585"
               sodipodi:nodetypes="cscccccccccc" />
            <path
               d="M 155.11477,909.76733 C 171.82002,909.05548 185.25577,905.51166 204.1998,902.45196 C 216.16087,897.76972 228.53661,890.23779 240.48873,889.30221 C 241.3212,889.24111 242.03485,891.3236 242.41164,892.65349 C 242.88753,894.08084 242.82869,897.84632 242.61985,899.49952 C 242.44745,901.05564 242.5003,902.73472 242.07688,904.18727 C 239.58701,909.40707 235.83586,910.80785 231.86473,911.93406 C 217.30459,915.31594 214.93529,920.69135 201.73411,924.73538 C 183.88173,926.33321 168.11921,925.34455 138.96559,923.64459 C 137.6353,922.8773 137.04541,920.12176 137.1291,917.63972 C 137.23337,913.83757 136.81775,916.15816 137.00007,912.35633 C 137.95532,910.52548 139.37935,910.42377 140.61239,910.33835 C 145.44651,910.148 150.28063,909.95768 155.11477,909.76733 Z"
               id="path18-7-5"
               inkscape:connector-curvature="0"
               style="fill:#121212;fill-opacity:1;stroke-width:3.91620994"
               sodipodi:nodetypes="ccccccccccccc" />
            <path
               d="M 241.28947,886.06589 C 241.86187,887.08362 241.26837,889.64936 240.48873,889.30221 C 225.1889,893.45129 209.58508,901.43806 194.76771,905.51491 C 179.45654,907.91002 164.14493,909.29992 148.84532,910.30844 C 146.2863,910.49476 141.40852,910.79953 138.84863,911.03778 C 138.24504,911.31592 137.5397,911.31129 137.45529,909.90885 C 137.49002,908.82258 137.70132,907.37088 138.19829,907.30319 C 151.98759,905.60314 168.30836,904.78665 182.09815,903.04661 C 191.14071,901.88989 198.99245,897.27374 208.14333,894.28028 C 217.29423,891.2868 229.61807,883.65045 240.27642,881.85367 Z"
               id="path20-5-3"
               inkscape:connector-curvature="0"
               style="fill:#7b7b7b;fill-opacity:1;stroke-width:3.91620994"
               sodipodi:nodetypes="cccccccczcc" />
          </g>
          <g
             id="right-foot">
            <path
               d="M 231.86192,855.57541 C 237.00738,869.63254 235.83351,896.57778 235.83351,896.57778 C 235.83351,896.57778 240.0399,908.05727 240.97411,909.00126 C 241.90831,909.94035 243.77672,912.97775 234.42977,912.51309 C 225.0926,912.05333 182.33431,909.94035 171.12872,909.70069 C 159.90847,909.46591 162.47142,907.82249 162.24642,907.82249 C 162.01166,907.82249 166.21801,896.57778 172.05314,888.61012 C 185.72804,835.36325 205.02495,841.50267 231.86192,855.57541 Z"
               id="path14-5"
               inkscape:connector-curvature="0"
               style="fill:#242424;fill-opacity:1;stroke-width:4.89113331"
               sodipodi:nodetypes="cccccscc" />
            <path
               sodipodi:nodetypes="cscc"
               d="M 162.01166,908.6491 C 166.90278,895.42347 172.99714,884.70312 197.42346,884.70312 C 214.65002,884.70312 229.13756,897.42394 233.44175,912.80168 C 227.43544,916.00048 171.61783,913.45709 162.01166,908.6491 Z"
               id="path16-3"
               inkscape:connector-curvature="0"
               style="fill:#353535;fill-opacity:1;stroke:none;stroke-width:4.89113331" />
            <path
               d="M 241.78115,910.87457 C 245.91415,925.23492 235.82863,925.54308 235.82863,925.54308 C 180.96969,925.54308 180.24091,925.54308 162.30512,925.54308 C 162.30512,925.54308 158.37754,921.33181 162.23671,907.82249 C 162.897,908.77138 190.16018,911.15337 211.17249,911.30988 C 233.44671,911.47128 235.91672,913.61849 241.7812,910.87457 Z"
               id="path18-5"
               inkscape:connector-curvature="0"
               style="fill:#121212;fill-opacity:1;stroke-width:4.89113331" />
            <path
               d="M 235.1781,913.67719 C 237.91716,913.67719 239.89315,913.32502 242.38273,912.15115 L 241.17953,909.5833 C 237.92692,911.11422 235.82863,910.98705 229.63157,910.58109 C 225.50835,910.31698 219.88354,909.95992 211.1871,909.89144 C 190.1748,909.73494 164.94632,907.42632 162.95075,906.62418 C 162.96,906.6288 163.20019,906.72694 163.40074,907.01057 L 161.08234,908.63442 C 161.50298,909.22624 162.01654,909.9697 178.96432,911.27563 C 190.03296,912.12181 201.7619,912.65494 211.16753,912.71852 C 219.79061,912.79183 225.36651,913.14894 229.44081,913.40328 C 231.7641,913.5598 233.59828,913.67719 235.1781,913.67719 Z"
               id="path20-6"
               inkscape:connector-curvature="0"
               style="fill:#7b7b7b;fill-opacity:1;stroke-width:4.89113331" />
          </g>
          <path
             inkscape:connector-curvature="0"
             id="lower-right-leg"
             d="M 169.28316,684.87423 C 167.33092,685.11066 166.97142,686.06076 168.5817,687.65234 C 166.12099,688.62804 164.68399,691.89515 169.22517,692.7309 C 176.74271,744.78243 172.89596,807.03336 169.81529,835.64487 C 168.66586,849.09862 168.39777,862.01067 168.87705,872.92137 C 179.02964,880.16319 189.83632,885.23029 206.02814,889.21846 C 220.05686,884.80749 227.69043,880.5213 238.94619,871.76644 C 238.86239,858.80949 241.76338,853.40645 236.46555,833.73025 C 231.16772,814.05404 227.14759,740.99571 233.85153,689.76 C 236.27783,688.51216 236.70209,686.36072 233.63227,685.21064 C 234.95167,684.26877 234.78266,683.33432 233.44723,682.61373 C 216.79149,639.06718 185.2665,639.55037 169.28316,684.87423 Z"
             style="fill:#41403a;fill-opacity:1;stroke-width:1.01905394"
             sodipodi:nodetypes="ccccccczcccc" />
        </g>
      </g>
      <g
         id="left-leg">
        <path
           inkscape:label="#upper-left-leg"
           sodipodi:nodetypes="czcccccccczc"
           style="fill:#41403a;fill-opacity:1;stroke-width:1.07287025"
           d="M 298.72342,422.13747 C 315.28912,437.06945 335.21852,463.6966 342.74775,475.2201 C 350.27699,486.74358 350.88022,490.34872 350.34435,496.38396 C 350.94769,549.77498 340.74172,601.95479 336.01681,654.65326 C 341.37386,657.08412 340.82405,665.47217 335.17027,666.76995 C 335.90077,666.91988 341.31136,668.83076 336.21666,672.63259 C 330.29253,697.85518 279.33251,712.41394 264.44765,676.59313 C 260.6704,675.23288 258.80468,673.44872 261.57341,669.35044 C 259.34668,669.64028 256.75444,664.12463 261.17098,662.06459 C 252.777,598.19141 248.00531,551.78013 247.55543,495.52173 C 249.09084,490.80662 249.18457,486.58076 253.93108,477.7282 C 258.67757,468.87563 286.14974,435.77988 298.72342,422.13747 Z"
           id="upper-left-leg"
           inkscape:connector-curvature="0" />
        <g
           id="lower-left-leg-plus-foot">
          <g
             id="left-foot-2">
            <path
               d="M 276.64988,850.2491 C 275.58891,850.5774 274.52795,850.90568 273.46699,851.23397 C 272.15718,853.08288 268.77308,855.67222 267.92768,859.0141 C 266.52468,864.56017 265.2231,876.11303 262.43069,880.72686 C 261.08545,884.97738 260.33239,889.49091 259.4458,893.9306 C 259.22057,895.8435 259.4597,897.8271 260.08905,899.54169 C 261.54632,901.34233 263.64593,901.38213 265.51154,901.69142 C 276.79791,903.1528 288.07608,904.7309 299.38727,905.87782 C 307.77835,906.72119 316.18634,907.29197 324.58814,907.95788 C 339.158,909.04255 353.7311,910.06739 368.30537,911.06756 C 374.04194,911.46544 379.781,911.81221 385.51939,912.17275 C 387.07816,912.05246 388.274,909.86502 388.11238,907.82705 C 388.15985,904.66411 388.18605,901.50136 388.1911,898.33882 C 387.8954,896.14824 386.891,894.32718 386.08815,892.44471 C 384.50846,888.93646 382.83455,885.50973 381.19639,882.05232 C 378.5006,878.96571 375.27862,876.88342 372.08529,874.89756 C 367.04758,871.8361 361.53072,870.00552 355.94806,870.17059 C 351.58355,870.12679 347.21716,870.33238 342.85211,870.49484 C 334.12722,867.71064 341.83304,867.51506 332.83488,866.673 C 319.89395,864.98703 291.65241,850.49935 278.71148,848.81338 Z"
               id="path14-3-62-7"
               inkscape:connector-curvature="0"
               style="fill:#242424;fill-opacity:1;stroke-width:4.22042465"
               sodipodi:nodetypes="cssssssccccscsccccccc" />
            <path
               d="M 367.77195,873.43156 C 363.13951,873.54002 356.26826,877.00892 353.14753,881.5928 C 349.0077,887.54824 348.75774,894.74895 346.27932,902.10352 C 345.59436,904.21694 344.94086,906.34791 344.27739,908.47333 C 349.26795,910.99028 354.65611,911.4646 359.92654,912.22443 C 368.00377,913.0868 376.14278,913.56214 384.25172,912.58394 C 385.46358,912.33904 386.67316,912.07271 387.88048,911.78531 C 389.08582,910.63029 389.26832,908.48959 389.45054,906.67719 C 390.13398,897.94567 387.7071,889.09893 383.36506,882.78562 C 379.50698,877.17562 373.96379,873.83481 368.2743,873.46629 C 368.10757,873.44189 367.93941,873.44299 367.77195,873.43159 Z"
               id="path16-6-9-5"
               inkscape:connector-curvature="0"
               style="fill:#353535;fill-opacity:1;stroke:none;stroke-width:4.22042465"
               sodipodi:nodetypes="cscccccccccc" />
            <path
               d="M 367.25229,911.77812 C 346.27304,910.0583 329.66021,905.9486 306.0668,901.93144 C 291.41124,896.87129 276.4831,889.16977 261.51044,887.54813 C 260.4672,887.43891 259.38579,889.30426 258.79462,890.50051 C 258.07012,891.77986 257.8142,895.23885 257.93236,896.76918 C 258.01326,898.20809 257.79934,899.74544 258.20542,901.10534 C 260.88411,906.05403 265.48623,907.57892 270.38948,908.86589 C 288.43278,912.89877 310.18947,919.45822 326.46299,924.01194 C 348.8095,926.61798 364.02386,923.02803 386.37725,925.54308 C 388.12012,924.92396 389.10464,922.43312 389.21676,920.15025 C 389.41867,916.65472 389.73877,918.81063 389.84235,915.31041 C 388.7996,913.56942 387.01482,913.38517 385.46919,913.22805 C 379.39689,912.74474 373.32461,912.26143 367.25231,911.77812 Z"
               id="path18-7-1-3"
               inkscape:connector-curvature="0"
               style="fill:#121212;fill-opacity:1;stroke-width:4.22042465"
               sodipodi:nodetypes="cccccccccccccc" />
            <path
               d="M 260.78546,884.52734 C 259.97528,885.42467 260.49801,887.81691 261.51044,887.54813 C 280.41817,892.33223 299.37247,900.65724 317.67885,905.34425 C 336.75462,908.51963 355.91903,910.77265 375.10176,912.67495 C 378.30873,913.00929 384.426,913.60041 387.6295,913.98247 C 388.3654,914.27623 389.25423,914.31703 389.48346,913.03552 C 389.535,912.03654 389.39598,910.69097 388.77597,910.59712 C 371.55622,908.15669 351.07041,906.36541 333.85354,903.88828 C 322.56507,902.2495 313.07975,897.51237 301.81581,894.18127 C 290.55186,890.85016 275.69825,883.05613 262.43069,880.72686 Z"
               id="path20-5-2-5"
               inkscape:connector-curvature="0"
               style="fill:#7b7b7b;fill-opacity:1;stroke-width:4.22042465"
               sodipodi:nodetypes="cccccccczcc" />
          </g>
          <g
             id="left-foot-3">
            <path
               d="M 292.25696,870.1167 C 293.08586,869.39763 293.91475,868.67854 294.74364,867.95946 C 296.80521,867.76777 300.55827,866.21773 303.43411,867.12992 C 308.20676,868.64376 317.24283,873.13764 322.12131,873.05301 C 325.92991,873.98996 329.59681,875.54343 333.28521,876.95087 C 334.78682,877.68692 336.07984,878.84104 336.96133,880.18821 C 337.44214,882.26149 336.29765,884.01694 335.47772,885.70885 C 330.22274,895.74676 325.05629,905.83416 319.56127,915.74098 C 315.4795,923.08664 301.4838,926.77809 297.2684,934.04704 C 289.90791,946.61861 282.50258,959.16402 275.07886,971.69849 C 272.15983,976.63421 269.20265,981.54735 266.25577,986.46656 C 265.29832,987.69759 263.05695,987.63181 261.68154,986.51555 C 259.38022,985.02979 257.09092,983.52653 254.8136,982.00588 C 253.40334,980.70516 252.65482,978.99654 251.74951,977.42498 C 250.10899,974.42714 248.57973,971.39069 247.00844,968.36901 C 246.29475,964.65149 246.59737,960.98309 246.95334,957.38487 C 247.56623,951.74283 249.3321,946.29802 252.57001,941.76102 C 254.97708,938.13065 264.20177,934.61101 269.82872,934.62439 C 272.70116,926.0669 268.25503,932.34496 272.67695,924.4979 C 278.69485,912.98346 284.0546,882.64376 290.07252,871.12932 Z"
               id="path14-3-67"
               inkscape:connector-curvature="0"
               style="fill:#242424;fill-opacity:1;stroke-width:3.92326784"
               sodipodi:nodetypes="cssssssccccscsccccccc" />
            <path
               d="M 248.1731,950.42149 C 250.83938,946.64297 255.64877,944.59445 260.68915,944.22388 C 267.28534,943.67186 274.1284,944.97585 280.80259,946.47234 C 282.70527,946.9249 284.60301,947.41194 286.50231,947.88805 C 285.52414,953.22856 282.85476,957.91302 280.45649,962.63777 C 276.56374,969.73306 272.35811,976.69283 267.12391,982.9269 C 266.27066,983.81098 265.40329,984.68282 264.52204,985.54266 C 263.01788,985.9825 261.06967,985.93058 259.66438,985.20741 C 253.00278,981.56265 248.30279,974.46099 246.18826,967.82634 C 244.30915,961.93101 245.00357,955.73628 247.9174,950.85366 C 247.99302,950.70402 248.08776,950.56549 248.17313,950.42151 Z"
               id="path16-6-5"
               inkscape:connector-curvature="0"
               style="fill:#353535;fill-opacity:1;stroke:none;stroke-width:3.92326784"
               sodipodi:nodetypes="cscccccccccc" />
            <path
               d="M 283.14871,965.50404 C 293.63352,947.32596 300.75118,939.34005 311.04432,917.89252 C 315.59351,903.33329 320.342,888.74447 327.54136,875.5809 C 328.04569,874.66553 329.99147,874.67064 331.18212,874.75854 C 332.50703,874.77626 335.13773,876.23239 336.17234,877.06794 C 337.16201,877.82861 338.38719,878.39296 339.13834,879.38445 C 341.20081,883.98562 339.72617,888.5266 337.91218,893.20187 C 330.73135,910.0673 312.90325,932.41152 307.08582,948.06455 C 296.47448,967.80058 280.34315,981.97678 273.44061,993.54308 C 266.33953,993.31561 261.65307,990.73256 264.52204,985.54266 C 271.40617,979.09801 276.21211,974.00987 283.14871,965.50404 Z"
               id="path18-7-3"
               inkscape:connector-curvature="0"
               style="fill:#121212;fill-opacity:1;stroke-width:3.92326784"
               sodipodi:nodetypes="ccccccccccc" />
            <path
               d="M 325.77386,873.5249 C 326.87189,873.28757 328.30033,874.87327 327.54136,875.5809 C 320.41782,893.52339 312.99099,919.36188 302.89508,933.56065 C 294.52066,950.86644 286.80305,961.64258 274.85843,978.02549 C 273.30706,980.8387 265.72729,986.06526 264.21218,988.89862 C 262.56913,988.53722 260.71182,986.3646 259.66438,985.20741 C 269.30015,976.86918 283.74757,955.11052 291.58556,939.67861 C 296.71412,929.55344 304.45206,922.44365 308.3498,911.5228 C 312.24754,900.60194 316.38357,885.14773 322.12131,873.05301 Z"
               id="path20-5-5"
               inkscape:connector-curvature="0"
               style="fill:#7b7b7b;fill-opacity:1;stroke-width:3.92326784"
               sodipodi:nodetypes="ccccccczcc" />
          </g>
          <g
             id="left-foot-1">
            <path
               d="M 269.70585,853.29867 C 268.89236,853.71305 268.07889,854.12742 267.26541,854.54179 C 266.37006,856.61902 263.89175,859.61331 263.47599,863.28419 C 262.78602,869.37627 262.26203,876.69626 260.40395,881.85367 C 259.66186,886.53749 259.4075,891.47399 259.04206,896.33777 C 259.00846,898.42476 259.34669,900.56295 259.97374,902.38786 C 261.26098,904.26062 262.92286,904.18836 264.4202,904.42123 C 273.44773,905.38566 282.47757,906.47714 291.50096,907.09918 C 298.1943,907.55255 304.88044,907.70934 311.56884,907.96964 C 323.16217,908.34502 334.75356,908.65532 346.344,908.9388 C 350.90643,909.05494 355.46695,909.11552 360.028,909.19107 C 361.25048,908.97484 362.03022,906.53679 361.74874,904.33542 C 361.54753,900.90247 361.32954,897.4709 361.09499,894.04071 C 360.69605,891.68118 359.76507,889.76139 358.98868,887.7639 C 356.85526,878.45805 341.25652,867.62207 333.62566,867.14981 C 330.174,867.34228 333.0287,865.74045 329.59219,866.15662 C 321.12072,860.30044 315.5551,855.65792 308.38221,855.23936 C 291.95556,853.97644 281.57815,852.7453 271.22644,851.62824 Z"
               id="path14-3-6-0"
               inkscape:connector-curvature="0"
               style="fill:#242424;fill-opacity:1;stroke-width:3.91620994"
               sodipodi:nodetypes="cssssssccccsccccccc" />
            <path
               d="M 321.22539,866.26859 C 312.99464,866.96877 305.45597,871.34658 300.27832,877.09524 C 293.39973,884.57451 289.14057,893.55988 285.33092,902.47031 C 284.28464,905.02745 283.29577,907.60126 282.28867,910.16975 C 291.37014,912.49655 300.99251,912.38456 310.42874,912.62114 C 324.8657,912.63014 339.38104,912.17905 353.72456,910.03111 C 355.86014,909.59463 357.9899,909.13336 360.11393,908.64774 C 362.16382,907.14735 362.31417,904.62049 362.49074,902.47772 C 362.99562,892.17862 357.95887,882.12969 349.72187,875.28151 C 342.40294,869.19618 332.27149,865.97401 322.12175,866.24706 C 321.82319,866.23906 321.52417,866.26126 321.2254,866.26866 Z"
               id="path16-6-7-9"
               inkscape:connector-curvature="0"
               style="fill:#353535;fill-opacity:1;stroke:none;stroke-width:6.10262585"
               sodipodi:nodetypes="cscc" />
            <path
               d="M 345.5656,909.76733 C 328.86035,909.05548 315.4246,905.51166 296.48057,902.45196 C 284.5195,897.76972 272.14376,890.23779 260.19164,889.30221 C 259.35917,889.24111 258.64552,891.3236 258.26873,892.65349 C 257.79284,894.08084 257.85168,897.84632 258.06052,899.49952 C 258.23292,901.05564 258.18007,902.73472 258.60349,904.18727 C 261.09336,909.40707 264.84451,910.80785 268.81564,911.93406 C 283.37578,915.31594 285.74508,920.69135 298.94626,924.73538 C 316.79864,926.33321 332.56116,925.34455 361.71478,923.64459 C 363.04507,922.8773 363.63496,920.12176 363.55127,917.63972 C 363.447,913.83757 363.86262,916.15816 363.6803,912.35633 C 362.72505,910.52548 361.30102,910.42377 360.06798,910.33835 C 355.23386,910.148 350.39974,909.95768 345.5656,909.76733 Z"
               id="path18-7-5-3"
               inkscape:connector-curvature="0"
               style="fill:#121212;fill-opacity:1;stroke-width:3.91620994"
               sodipodi:nodetypes="ccccccccccccc" />
            <path
               d="M 259.3909,886.06589 C 258.8185,887.08362 259.412,889.64936 260.19164,889.30221 C 275.49147,893.45129 291.09529,901.43806 305.91266,905.51491 C 321.22383,907.91002 336.53544,909.29992 351.83505,910.30844 C 354.39407,910.49476 359.27185,910.79953 361.83174,911.03778 C 362.43533,911.31592 363.14067,911.31129 363.22508,909.90885 C 363.19038,908.82258 362.97905,907.37088 362.48208,907.30319 C 348.69278,905.60314 332.37201,904.78665 318.58222,903.04661 C 309.53966,901.88989 301.68792,897.27374 292.53704,894.28028 C 283.38614,891.2868 271.0623,883.65045 260.40395,881.85367 Z"
               id="path20-5-3-6"
               inkscape:connector-curvature="0"
               style="fill:#7b7b7b;fill-opacity:1;stroke-width:3.91620994"
               sodipodi:nodetypes="cccccccczcc" />
          </g>
          <g
             id="left-foot">
            <path
               d="M 268.81845,855.57541 C 263.67299,869.63254 264.84686,896.57778 264.84686,896.57778 C 264.84686,896.57778 260.64047,908.05727 259.70626,909.00126 C 258.77206,909.94035 256.90365,912.97775 266.2506,912.51309 C 275.58777,912.05333 318.34606,909.94035 329.55165,909.70069 C 340.7719,909.46591 338.20895,907.82249 338.43395,907.82249 C 338.66871,907.82249 334.46236,896.57778 328.62723,888.61012 C 314.95233,835.36325 295.65542,841.50267 268.81845,855.57541 Z"
               id="path14"
               inkscape:connector-curvature="0"
               style="fill:#242424;fill-opacity:1;stroke-width:4.89113331"
               sodipodi:nodetypes="cccccscc" />
            <path
               sodipodi:nodetypes="cscc"
               d="M 338.66871,908.6491 C 333.77759,895.42347 327.68323,884.70312 303.25691,884.70312 C 286.03035,884.70312 271.54281,897.42394 267.23862,912.80168 C 273.24493,916.00048 329.06254,913.45709 338.66871,908.6491 Z"
               id="path16"
               inkscape:connector-curvature="0"
               style="fill:#353535;fill-opacity:1;stroke:none;stroke-width:4.89113331" />
            <path
               d="M 258.89922,910.87457 C 254.76622,925.23492 264.85174,925.54308 264.85174,925.54308 C 319.71068,925.54308 320.43946,925.54308 338.37525,925.54308 C 338.37525,925.54308 342.30283,921.33181 338.44366,907.82249 C 337.78337,908.77138 310.52019,911.15337 289.50788,911.30988 C 267.23366,911.47128 264.76365,913.61849 258.89917,910.87457 Z"
               id="path18"
               inkscape:connector-curvature="0"
               style="fill:#121212;fill-opacity:1;stroke-width:4.89113331" />
            <path
               d="M 265.50227,913.67719 C 262.76321,913.67719 260.78722,913.32502 258.29764,912.15115 L 259.50084,909.5833 C 262.75345,911.11422 264.85174,910.98705 271.0488,910.58109 C 275.17202,910.31698 280.79683,909.95992 289.49327,909.89144 C 310.50557,909.73494 335.73405,907.42632 337.72962,906.62418 C 337.72037,906.6288 337.48018,906.72694 337.27963,907.01057 L 339.59803,908.63442 C 339.17739,909.22624 338.66383,909.9697 321.71605,911.27563 C 310.64741,912.12181 298.91847,912.65494 289.51284,912.71852 C 280.88976,912.79183 275.31386,913.14894 271.23956,913.40328 C 268.91627,913.5598 267.08209,913.67719 265.50227,913.67719 Z"
               id="path20"
               inkscape:connector-curvature="0"
               style="fill:#7b7b7b;fill-opacity:1;stroke-width:4.89113331" />
          </g>
          <path
             inkscape:connector-curvature="0"
             id="lower-left-leg"
             d="M 331.3972,684.87419 C 333.34944,685.11062 333.70893,686.06072 332.09865,687.6523 C 334.55936,688.628 335.99636,691.89512 331.45519,692.73086 C 323.93765,744.78239 327.78439,807.03332 330.86507,835.64483 C 332.0145,849.09863 332.28259,862.01059 331.80331,872.92134 C 321.65072,880.16313 310.84403,885.23027 294.65222,889.21846 C 280.62349,884.80742 272.98992,880.52127 261.73417,871.7664 C 261.81797,858.80941 258.91698,853.40641 264.2148,833.73024 C 269.51263,814.05398 273.53277,740.99568 266.82882,689.75997 C 264.40253,688.51212 263.97827,686.36068 267.04808,685.2106 C 265.72869,684.26873 265.89769,683.33428 267.23312,682.61369 C 283.88886,639.06714 315.41386,639.55033 331.3972,684.87419 Z"
             style="fill:#41403a;fill-opacity:1;stroke-width:1.01905394"
             sodipodi:nodetypes="ccccccczcccc" />
        </g>
      </g>
      <g
         id="crotch-front">
        <path
           inkscape:label="#path123"
           sodipodi:nodetypes="cccszscc"
           inkscape:connector-curvature="0"
           id="path123"
           d="M 149.2461,470.02509 H 351.90237 C 351.90237,470.02509 351.60771,483.02607 349.8697,519.65441 C 311.17939,521.22952 290.65295,522.36004 272.03273,559.17099 C 266.48976,570.12908 257.70847,570.87986 250.97632,570.83702 C 244.24418,570.79418 233.61537,569.94874 227.61659,560.629 C 204.40529,524.56781 174.51583,516.63977 150.94655,517.81395 C 149.47575,483.61628 149.2461,470.02509 149.2461,470.02509 Z"
           style="opacity:1;fill:#474640;fill-opacity:1;stroke:none;stroke-width:0.63298208;stroke-miterlimit:4;stroke-dasharray:none;stroke-opacity:1" />
        <path
           sodipodi:nodetypes="ccccc"
           inkscape:connector-curvature="0"
           id="rect1079"
           d="M 149.21641,472.02509 H 351.93206 L 351.09122,492.87181 L 149.81239,492.89584 Z"
           style="opacity:1;fill:#21201d;fill-opacity:1;stroke:none;stroke-width:1;stroke-miterlimit:4;stroke-dasharray:none;stroke-opacity:1" />
        <path
           inkscape:connector-curvature="0"
           id="rect1082"
           d="M 194.85554,472.02509 H 199.66035 V 495.02509 H 194.85554 Z"
           style="opacity:1;fill:#474640;fill-opacity:1;stroke:none;stroke-width:0.59285688;stroke-miterlimit:4;stroke-dasharray:none;stroke-opacity:1" />
        <path
           id="rect1082-7"
           d="M 301.48814,472.02509 H 306.29295 V 495.02509 H 301.48814 Z"
           style="opacity:1;fill:#474640;fill-opacity:1;stroke:none;stroke-width:0.59285694;stroke-miterlimit:4;stroke-dasharray:none;stroke-opacity:1"
           inkscape:connector-curvature="0" />
        <path
           style="opacity:1;fill:#616161;fill-opacity:1;stroke:none;stroke-width:0.91651517;stroke-miterlimit:4;stroke-dasharray:none;stroke-opacity:1"
           d="M 238.73605,470.0935 H 262.41242 C 265.34047,470.0935 267.69771,472.19359 267.69771,474.80222 V 490.1187 C 267.69771,492.72732 265.34047,494.82741 262.41242,494.82741 H 238.73605 C 235.808,494.82741 233.45076,492.72732 233.45076,490.1187 V 474.80222 C 233.45076,472.19359 235.808,470.0935 238.73605,470.0935 Z"
           id="rect1100"
           inkscape:connector-curvature="0" />
      </g>
      <g
         id="crotch-side">
        <path
           sodipodi:nodetypes="ccscscc"
           inkscape:connector-curvature="0"
           id="path1234"
           d="M 149.21642,470.02509 L 252.94489,470.29689 C 252.94489,470.29689 252.97849,490.22029 255.81866,516.19495 C 259.63092,551.05983 266.95815,559.2779 244.48533,566.83702 C 239.22707,566.79418 230.92524,565.94874 226.23979,556.629 C 208.11018,520.56781 168.9538,516.63977 150.54458,517.81395 C 149.39579,483.61628 149.21642,470.02509 149.21642,470.02509 Z"
           style="opacity:1;fill:#474640;fill-opacity:1;stroke:none;stroke-width:0.55941731;stroke-miterlimit:4;stroke-dasharray:none;stroke-opacity:1" />
        <path
           sodipodi:nodetypes="ccccc"
           inkscape:connector-curvature="0"
           id="rect1079-5"
           d="M 149.21642,471.95668 H 252.87638 L 252.21963,492.8034 L 149.68192,492.82743 Z"
           style="opacity:1;fill:#21201d;fill-opacity:1;stroke:none;stroke-width:0.8837806;stroke-miterlimit:4;stroke-dasharray:none;stroke-opacity:1" />
        <path
           inkscape:connector-curvature="0"
           id="rect1082-3"
           d="M 159.86951,471.95668 H 163.62239 V 494.95668 H 159.86951 Z"
           style="opacity:1;fill:#474640;fill-opacity:1;stroke:none;stroke-width:0.5239554;stroke-miterlimit:4;stroke-dasharray:none;stroke-opacity:1" />
        <path
           id="rect1082-7-5"
           d="M 200.97915,471.95668 H 204.73204 V 494.95668 H 200.97915 Z"
           style="opacity:1;fill:#474640;fill-opacity:1;stroke:none;stroke-width:0.52395546;stroke-miterlimit:4;stroke-dasharray:none;stroke-opacity:1"
           inkscape:connector-curvature="0" />
        <path
           sodipodi:nodetypes="sccssss"
           inkscape:connector-curvature="0"
           id="rect1100-6"
           d="M 242.5694,470.02509 H 254.81371 C 254.94692,481.07245 254.86126,482.92288 254.81371,494.759 H 242.5694 C 240.28239,494.759 238.44122,492.65891 238.44122,490.05028 V 474.7338 C 238.44122,472.12517 240.28239,470.02509 242.5694,470.02509 Z"
           style="opacity:1;fill:#616161;fill-opacity:1;stroke:none;stroke-width:0.80999833;stroke-miterlimit:4;stroke-dasharray:none;stroke-opacity:1" />
      </g>
      <path
         style="opacity:1;fill:#a77660;fill-opacity:1;stroke:none;stroke-width:1.1690551;stroke-miterlimit:4;stroke-dasharray:none;stroke-opacity:1"
         d="M 201.09142,344.98615 C 239.75597,306.3216 253.17159,306.3216 291.83614,344.98615 C 330.50069,383.6507 351.83614,470.32101 351.83614,470.32101 H 149.09142 C 149.09142,470.32101 162.42687,383.6507 201.09142,344.98615 Z"
         id="belly-front"
         inkscape:connector-curvature="0"
         sodipodi:nodetypes="zzccz" />
      <path
         style="opacity:1;fill:#a77660;fill-opacity:1;stroke:none;stroke-width:0.73155552;stroke-miterlimit:4;stroke-dasharray:none;stroke-opacity:1"
         d="M 177.30424,379.86168 C 198.28185,351.95588 205.56055,351.95588 226.53817,379.86168 C 247.51578,407.76748 259.09142,470.32101 259.09142,470.32101 H 149.09142 C 149.09142,470.32101 156.32662,407.76748 177.30424,379.86168 Z"
         id="belly-side"
         inkscape:connector-curvature="0"
         sodipodi:nodetypes="zzccz" />
    </g>
    <g
       id="torso-plus-head-arms">
      <g
         id="shirt-side">
        <path
           style="fill:#81afcb;fill-opacity:1;stroke-width:1.05401933"
           d="M 221.91467,172.28205 C 221.91467,172.28205 175.86054,214.86975 167.33863,235.38098 C 158.81673,255.8922 160.34921,265.04517 173.20103,311.96281 C 186.05284,358.88046 180.64615,345.8576 188.23711,387.65067 C 195.82807,429.44374 174.93316,500.22554 174.39549,511.64206 C 182.03953,524.42222 228.13345,541.19411 310.95305,543.90045 C 310.95305,543.90045 317.18495,508.01481 306.29634,474.83693 C 317.57346,437.73628 311.23071,410.16864 305.06633,352.43413 C 308.10457,329.6447 314.36341,331.94901 311.03378,313.09857 C 304.37452,275.39769 302.61272,262.2427 294.40519,245.887 C 286.19766,229.53131 245.86383,181.00324 245.86383,181.00324 Z"
           id="path88-9"
           inkscape:connector-curvature="0"
           sodipodi:nodetypes="czzzccccszcc" />
        <path
           style="fill:#669ec0;fill-opacity:1;stroke-width:1.05401933"
           d="M 276.98234,218.91605 L 285.08302,186.19832 L 221.46636,165.20962 L 219.23657,157.54649 L 205.6743,180.14347 Z"
           id="polygon94-2-9"
           inkscape:connector-curvature="0"
           sodipodi:nodetypes="cccccc" />
      </g>
      <path
         id="neck"
         d="M 219.21027,137.69502 L 218.74578,171.45041 L 229.39895,184.49665 L 236.2872,261.20302 L 249.73342,286.83728 L 267.61822,218.96507 L 271.786,185.17683 L 282.4466,171.45286 L 282.145,137.49152 C 263.58154,99.09964 238.69696,99.32618 219.21027,137.69502 Z"
         style="fill:#a77660;fill-opacity:1;stroke:none;stroke-width:1.06527615"
         inkscape:connector-curvature="0"
         sodipodi:nodetypes="cccccccccc" />
      <g
         id="shirt-front">
        <path
           style="fill:#81afcb;fill-opacity:1;stroke-width:1.05401933"
           d="M 205.51259,176.22851 L 100.62848,216.49613 C 100.97995,261.8674 89.347151,269.59515 123.88615,303.95002 C 135.07576,329.98785 141.09953,326.27032 152.96298,364.41701 C 156.18158,409.30662 151.10332,476.94829 150.56565,488.36481 C 158.20969,501.14497 162.99841,521.03825 226.24832,534.61664 C 226.24832,534.61664 233.77716,494.7404 247.89426,476.78339 C 255.93747,499.63533 263.57027,511.3446 277.11689,536.73464 C 315.98033,533.43136 339.83853,517.5384 351.20374,487.23169 C 345.29245,460.75295 344.13817,410.21321 344.88947,370.68764 C 353.8225,331.16206 368.55034,319.9232 371.17052,301.13791 C 405.21939,267.53955 397.49724,268.04046 399.33522,217.09847 C 373.89404,207.73703 319.32955,187.1204 294.55426,178.82998 L 271.24983,186.56193 L 261.22938,231.39528 L 250.6317,287.04503 L 234.00311,233.83346 L 229.46175,184.9497 Z"
           id="path88"
           inkscape:connector-curvature="0"
           sodipodi:nodetypes="ccccccccccccccccccc" />
        <path
           style="fill:#669ec0;fill-opacity:1;stroke-width:0.97097486"
           d="M 316.06314,336.90157 L 292.79871,349.50967 L 270.02917,335.70391 L 270.84551,292.13371 L 316.87949,293.33134 Z"
           id="polygon104"
           inkscape:connector-curvature="0" />
        <path
           style="fill:#669ec0;fill-opacity:1;stroke-width:1.05401933"
           d="M 271.38072,185.33685 L 265.85503,220.11 C 262.1788,234.63729 257.5382,250.16365 254.0477,264.11842 L 243.98259,309.4469 L 244.0434,309.40334 L 244.00409,309.48471 L 247.81848,476.56198 C 254.43179,494.89014 257.385,506.06229 277.3266,540.51681 C 268.89711,512.84495 260.30677,498.59075 253.17154,476.0988 C 251.71807,453.37958 252.05771,438.27825 251.55579,416.31022 C 250.72026,379.74154 248.34108,310.26241 248.34108,310.26241 C 257.05788,275.07474 265.25844,244.0547 272.3151,208.31938 Z"
           id="rect108"
           inkscape:connector-curvature="0"
           sodipodi:nodetypes="cccccccccsccc" />
        <path
           inkscape:connector-curvature="0"
           style="fill:#669ec0;fill-opacity:1;stroke-width:1.05401933"
           d="M 232.6639,216.92351 C 234.55379,232.59545 237.48769,249.29722 240.51204,264.14418 L 250.69527,286.48882 C 250.69527,286.48882 248.04408,287.00558 235.93667,265.79834 C 232.63342,244.34258 228.88077,222.2093 228.012,203.74417 L 229.43503,184.14614 C 232.64755,203.33775 231.98617,202.80366 232.66405,216.92352 Z"
           id="rect108-9"
           sodipodi:nodetypes="cccccccc" />
        <path
           style="fill:#669ec0;fill-opacity:1;stroke-width:1.05401933"
           d="M 287.01237,215.04457 L 270.88257,185.44896 L 282.1896,166.99111 L 282.40402,159.01305 L 301.25148,177.43401 Z"
           id="polygon94"
           inkscape:connector-curvature="0"
           sodipodi:nodetypes="cccccc" />
        <path
           style="fill:#669ec0;fill-opacity:1;stroke-width:1.05401933"
           d="M 212.21873,213.39325 L 229.63902,184.53837 L 219.15763,165.59948 L 219.29554,157.61972 L 199.65343,175.1909 Z"
           id="polygon94-2"
           inkscape:connector-curvature="0"
           sodipodi:nodetypes="cccccc" />
      </g>
      <g
         id="head-side">
        <path
           sodipodi:nodetypes="ccccc"
           inkscape:connector-curvature="0"
           id="rect5041-7"
           d="M 316.86364,72.863077 L 334.50268,75.036448 L 334.94668,76.561526 L 317.42537,74.61453 C 317.09099,73.488192 317.36829,73.918647 316.86364,72.863077 Z"
           style="opacity:1;fill:#414141;fill-opacity:1;stroke:#414141;stroke-width:1;stroke-miterlimit:4;stroke-dasharray:none;stroke-opacity:1" />
        <path
           id="path2998"
           d="M 307.24759,40.777562 C 303.25002,45.84569 294.07618,43.800426 287.32912,45.482365 C 283.83513,53.935786 277.74181,56.436189 270.56788,59.089917 C 255.59475,76.551159 244.65231,88.74284 222.63416,89.118643 C 215.45612,96.89847 213.24347,113.43007 217.48057,122.20555 C 217.69756,131.7646 219.96595,135.83823 219.05379,144.9681 C 224.32324,170.39165 242.84832,198.73012 281.03604,162.37865 C 283.1783,162.46989 290.0171,161.77725 301.40231,161.79801 C 310.60894,160.94244 322.36564,159.14281 317.43952,142.89792 C 320.90359,134.60353 320.06171,134.04152 317.12965,131.60691 C 319.10279,129.91659 318.24497,130.05149 318.86039,127.67233 C 317.90206,125.60344 318.12911,122.97995 318.04662,119.89139 C 318.17788,118.72834 330.01604,121.29324 329.2827,113.2752 C 328.54936,105.25714 325.43914,105.53406 314.59894,87.04769 C 316.98661,79.750974 316.96787,82.581124 318.06102,75.863757 C 315.48275,68.991978 308.11733,50.866778 307.24766,40.777522 Z"
           style="fill:#a77660;fill-opacity:1;stroke:none;stroke-width:0.64035678px;stroke-linecap:butt;stroke-linejoin:miter;stroke-opacity:1"
           inkscape:connector-curvature="0"
           sodipodi:nodetypes="ccccccccccccscccc" />
        <path
           style="fill:#614a41;fill-opacity:1;stroke:none;stroke-width:0.64035678px;stroke-linecap:butt;stroke-linejoin:miter;stroke-opacity:1"
           d="M 308.85194,79.731383 C 307.69142,84.252885 306.25742,82.148891 300.85115,82.55429 C 295.4449,82.959693 292.04388,86.554092 287.07656,88.952462 C 286.07734,89.549304 285.1203,90.13396 284.4049,90.566041 C 285.48627,87.092327 287.3619,84.831188 291.02137,82.489287 C 294.68083,80.147384 295.14937,80.288632 298.7446,79.017749 C 302.33984,77.746878 306.51707,77.789283 308.09488,78.235396 C 309.6727,78.681503 308.55812,78.684741 308.85194,79.731383 Z"
           id="path3012"
           inkscape:connector-curvature="0"
           sodipodi:nodetypes="czcczzzc" />
        <path
           style="fill:#614a41;fill-opacity:1;stroke:none;stroke-width:0.64035678px;stroke-linecap:butt;stroke-linejoin:miter;stroke-opacity:1"
           d="M 317.30231,73.404521 C 314.81047,74.945351 314.98593,74.527064 314.61855,79.257521 C 316.19698,78.41352 316.47483,78.330969 317.36672,77.750289 C 319.13001,75.764315 317.42408,74.802588 317.30229,73.404513 Z"
           id="path3028"
           inkscape:connector-curvature="0"
           sodipodi:nodetypes="cccc" />
        <path
           style="fill:#231f20;fill-opacity:1;stroke:none;stroke-width:0.64035678px;stroke-linecap:butt;stroke-linejoin:miter;stroke-opacity:1"
           d="M 224.74443,129.64159 C 226.04114,132.88418 224.04881,136.19522 223.84645,138.10217 C 218.43567,137.31929 222.30862,136.4277 217.16814,134.55401 C 213.29705,121.37349 208.08314,119.10539 195.71167,100.76468 C 183.83882,85.73547 187.88947,79.563718 187.46264,68.189201 C 188.65191,61.175967 190.34088,61.11872 191.79772,58.095307 C 186.59443,43.504732 198.73301,35.235911 199.21813,34.629513 C 201.18096,22.286261 204.39327,22.911047 213.37312,17.361877 C 204.63842,36.009198 212.05703,15.180005 226.49731,11.315638 C 223.01152,41.474996 216.4335,-4.196311 259.68731,7.127023 C 270.41726,10.599711 271.10622,8.684974 259.56447,11.525132 C 256.41088,12.301159 273.00299,13.112057 276.19421,10.778752 C 277.97136,16.231785 277.03338,14.529641 277.62568,17.85302 C 279.11222,12.991435 279.23391,15.028056 281.39055,3.120918 C 287.17934,9.28668 289.82301,12.294182 292.01655,24.266581 C 293.91773,22.437642 298.61701,20.859735 300.51719,10.101597 C 303.36727,16.4307 319.13375,23.628601 309.30179,49.389381 C 307.86378,52.469677 308.36986,53.350789 303.45093,52.208158 C 296.04321,48.741366 293.541,51.517711 281.25189,62.148194 C 273.1738,69.391991 277.11485,72.004385 272.70831,77.866984 C 260.85005,81.180597 262.21207,86.199957 260.95915,104.47804 L 252.30569,104.11756 C 247.38291,83.839445 214.5015,85.419745 231.00619,114.56465 C 230.82016,118.465 234.84386,120.85097 235.38298,125.20599 C 232.49732,125.3018 230.22752,124.68996 228.53833,124.07027 L 228.84165,130.53172 C 227.08807,130.44811 226.17824,130.68228 224.74444,129.6416 Z"
           id="path3052"
           inkscape:connector-curvature="0"
           sodipodi:nodetypes="ccccccccccsccccccccccccccccc" />
        <path
           style="fill:#414141;fill-opacity:1;stroke:#414141;stroke-width:1;stroke-miterlimit:4;stroke-dasharray:none;stroke-opacity:1"
           inkscape:connector-curvature="0"
           d="M 326.68282,75.618077 C 323.15129,76.931098 319.83533,80.014862 316.12005,82.178717 C 314.51199,83.115414 312.77102,83.863056 310.96413,84.247556 C 308.48276,84.775443 305.84032,84.638235 303.13983,85.118109 C 300.63405,85.563674 297.99947,86.017146 295.40406,86.933556 C 290.65078,88.610992 286.36394,92.18898 281.52421,95.114862 C 282.10067,96.77854 282.51951,99.00229 283.68217,99.81942 C 284.85765,100.64542 286.49975,101.13548 287.33191,102.50781 C 289.24627,105.6647 291.36465,108.47738 293.62651,110.8977 C 294.68878,112.03436 296.12294,112.44006 297.56052,112.46434 C 300.89271,112.52077 304.19779,110.98597 306.96033,108.93121 C 310.73444,106.12393 312.02058,101.43576 312.71435,96.422574 C 312.94874,94.38405 312.598,92.288578 313.05657,90.283348 C 313.32961,89.089056 314.48878,89.048831 315.24753,88.721388 C 315.9981,88.397113 316.93753,89.84247 317.36606,90.867555 C 318.83803,94.387513 320.77625,97.71787 323.47145,98.35713 C 327.23792,99.25079 332.09983,96.053267 333.51656,90.281505 C 334.07508,88.006159 334.04506,85.565454 334.20393,83.165975 C 334.30171,81.68991 334.3487,79.944414 335.11001,78.82731 C 335.41551,78.378843 335.0634,77.228256 335.04448,76.477464 C 335.02406,75.655126 335.06292,74.90165 334.37478,74.998122 C 333.15346,75.168896 331.87909,74.747904 330.56705,74.922484 C 329.29457,75.091845 328.00287,75.127359 326.68282,75.61808 C 326.68282,75.61808 326.68273,75.618048 326.68273,75.618048 M 299.32654,87.321212 C 300.7536,86.777971 302.18193,86.386535 303.60547,86.248288 C 311.50283,85.481347 312.42188,89.312871 311.19872,98.268 C 310.22812,105.37221 305.73031,109.42643 300.11654,110.79475 C 297.36261,111.4661 294.93397,110.3735 293.16233,107.95194 C 291.21476,105.28963 289.36356,102.19651 288.41182,98.60461 C 287.09028,93.616808 291.77318,91.055042 294.98836,89.349128 C 296.42354,88.587809 297.87272,87.875618 299.32654,87.321212 C 299.32654,87.321212 299.32654,87.321212 299.32654,87.321212 M 324.75446,77.845057 C 325.74996,77.483587 326.75028,77.249968 327.72156,77.064683 C 329.7833,76.671595 332.54867,76.19722 333.07498,79.988719 C 333.4565,82.73626 333.33789,85.673883 333.07391,88.468415 C 332.82752,91.081685 331.94943,93.336433 330.42894,94.751448 C 327.01731,97.92649 323.04923,98.59292 320.18409,93.93773 C 316.32476,87.666182 315.76904,83.80991 321.77505,79.413167 C 322.73818,78.708142 323.74306,78.211643 324.75446,77.845057 C 324.75446,77.845057 324.75446,77.845057 324.75446,77.845057"
           id="svg_7-3" />
        <path
           inkscape:connector-curvature="0"
           style="fill:#846558;fill-opacity:1;stroke-width:2.20339537"
           d="M 313.04709,122.57779 L 316.42597,121.98541 L 316.25742,128.56435 C 310.13965,129.58509 309.11405,132.08221 306.60178,133.6891 C 306.17758,127.35315 312.46932,127.00521 313.04709,122.57779 Z"
           id="path124-3-6-56"
           sodipodi:nodetypes="ccccc" />
        <path
           inkscape:connector-curvature="0"
           style="fill:#846558;fill-opacity:1;stroke-width:0.91744018"
           d="M 316.93033,143.60311 C 314.87619,143.74343 311.2377,145.29334 311.2377,145.29334 C 312.98421,149.38916 313.21554,147.43099 316.48498,148.8851 C 316.45174,145.73536 317.37223,146.52824 316.93033,143.60311 Z"
           id="path124-3-6-5-9-9"
           sodipodi:nodetypes="cccc" />
        <path
           inkscape:connector-curvature="0"
           style="fill:#846558;fill-opacity:1;stroke-width:2.20339537"
           d="M 260.37316,111.28767 L 252.95305,109.78302 L 252.3953,118.98627 C 252.68377,123.76436 252.06213,135.55923 254.46686,136.69738 C 258.50462,147.0164 274.31494,158.16422 283.98723,162.35374 C 293.73653,161.84833 302.81837,162.81401 311.48643,159.72939 C 296.76595,161.44865 296.70612,157.87229 294.1113,156.49801 C 290.30573,154.4825 293.81501,150.53163 281.5733,144.98086 C 276.53488,142.69629 276.46507,131.59824 277.10419,131.98213 C 277.28502,128.83905 268.75092,122.7072 264.21619,119.75961 C 262.40474,118.58217 260.72425,113.49238 260.37316,111.28767 Z"
           id="path124-3-6-56-1"
           sodipodi:nodetypes="ccccccsscsc" />
        <path
           sodipodi:nodetypes="cccccc"
           inkscape:connector-curvature="0"
           id="rect5041"
           d="M 244.78065,92.675383 L 281.52421,95.114862 L 282.94213,99.05808 L 249.85953,97.37738 L 247.46651,94.831905 Z"
           style="opacity:1;fill:#414141;fill-opacity:1;stroke:#414141;stroke-width:1;stroke-miterlimit:4;stroke-dasharray:none;stroke-opacity:1" />
      </g>
      <g
         id="head-front">
        <path
           sodipodi:nodetypes="cscccccccsccscccccccssc"
           inkscape:connector-curvature="0"
           style="fill:#a77660;fill-opacity:1;stroke:none"
           d="M 251.99211,22.11833 C 228.98261,21.610323 209.79891,45.314599 209.59584,54.512953 C 209.48387,59.584755 208.62237,74.118914 208.15818,88.138225 C 207.93507,87.223558 206.93454,83.23158 205.71193,81.968624 C 204.34338,80.553466 202.37311,83.129399 202.37311,83.129399 C 202.37311,83.129399 201.11123,94.457864 201.47399,98.78871 C 201.83118,103.12378 206.15545,114.25907 206.15545,114.25907 L 208.15596,114.26764 L 208.17102,112.30276 C 208.26144,113.57754 208.32982,114.96594 208.47457,115.90644 C 209.57826,123.07669 213.45157,136.06086 217.52791,147.37243 C 243.42709,181.71383 252.80835,181.38209 277.96985,153.9995 C 283.11852,141.66369 287.90018,125.64285 289.70245,118.09712 C 289.9924,116.88319 290.24812,115.16747 290.47815,113.16928 L 290.37122,116.08281 L 292.37015,116.16255 C 292.37015,116.16255 297.18167,105.22897 297.72982,100.91387 C 298.28334,96.603255 297.51557,85.229985 297.51557,85.229985 C 297.51557,85.229985 295.66802,82.569779 294.23832,83.923152 C 293.26659,84.84208 292.45533,87.112666 291.91768,88.774325 C 292.38001,75.282477 292.59547,61.527179 292.91731,56.352565 C 293.53315,46.448988 275.00158,22.626355 251.99206,22.118348 Z"
           id="path118-3" />
        <path
           style="fill:#846558;fill-opacity:1;stroke:none"
           inkscape:connector-curvature="0"
           id="path124"
           d="M 292.18756,89.145103 C 291.93417,100.6217 286.86936,146.58876 275.69101,145.65906 C 263.94249,174.84543 234.27254,174.50439 224.18195,144.02578 C 212.1514,142.20909 207.84873,99.69153 208.1034,88.15682 C 204.20234,119.45209 215.08569,152.45002 230.45861,164.69504 C 245.83153,176.94007 251.27068,177.35046 268.39225,165.52855 C 285.51382,153.70694 292.26886,119.24124 292.18755,89.144728 Z"
           sodipodi:nodetypes="cccczzc" />
        <path
           style="fill:#231f20"
           d="M 218.26824,11.612278 C 221.29513,11.738523 248.00115,9.85757 257.05363,14.07282 C 266.1061,18.288062 264.76081,18.65201 270.21439,23.208495 C 269.38722,20.566745 270.10755,22.797991 268.41072,20.276336 C 274.72579,23.400736 283.80379,27.845939 285.59773,38.722773 C 290.89034,43.273243 292.65705,45.714435 295.89147,54.482954 L 292.97837,90.025091 L 288.70176,65.128816 C 288.70176,65.128816 282.80342,59.720471 281.67769,54.527463 C 276.51644,54.836803 262.73098,48.746633 258.42641,50.924477 C 254.12185,53.102295 251.78396,54.90623 245.69473,52.175152 C 239.60551,49.44408 238.27672,50.028208 231.43614,53.23183 C 226.69001,54.43149 215.08308,59.962188 215.08308,59.962188 L 207.97741,87.753047 L 207.07693,51.351953 L 198.95119,42.356655 C 198.95119,42.356655 200.16795,39.449581 204.76044,36.55834 C 209.35294,33.667094 212.20257,33.118679 212.20257,33.118679 C 207.52322,30.496053 207.04282,29.002499 202.4894,26.646133 C 210.17446,18.489067 218.109,17.528284 221.91786,17.828758 C 219.31748,16.374635 219.13453,14.507784 218.26824,11.612278 Z"
           id="path126"
           inkscape:connector-curvature="0"
           sodipodi:nodetypes="czccccccczzccccczcccc" />
        <path
           inkscape:connector-curvature="0"
           style="fill:#846558;fill-opacity:1;stroke:none;stroke-width:2.81747746"
           d="M 246.1897,126.75533 L 249.57316,126.83003 L 248.42746,135.62955 C 241.33334,135.1415 234.40135,135.05718 231.00543,136.49831 C 233.11733,127.60988 243.75949,132.69506 246.1897,126.75533 Z"
           id="path124-3-6"
           sodipodi:nodetypes="ccccc" />
        <path
           inkscape:connector-curvature="0"
           style="fill:#846558;fill-opacity:1;stroke:none;stroke-width:2.81747746"
           d="M 255.18357,126.9539 L 251.8001,126.8792 L 252.55632,135.72071 C 259.66507,135.54624 266.59402,135.76793 269.92303,137.35755 C 268.20548,128.38457 257.34925,132.9951 255.18357,126.9539 Z"
           id="path124-3-6-5"
           sodipodi:nodetypes="ccccc" />
        <path
           inkscape:connector-curvature="0"
           style="fill:#614a41;fill-opacity:1"
           d="M 237.22508,79.112686 C 242.40635,80.703806 242.51233,79.999253 243.99,80.199314 C 243.94343,81.361585 243.83326,82.971538 241.77804,83.233783 C 239.72277,83.496011 215.54065,79.143074 212.13384,81.076969 C 216.39728,72.845295 232.04383,77.521565 237.22508,79.112686 Z"
           id="path124-3-6-0"
           sodipodi:nodetypes="zczcz" />
        <path
           inkscape:connector-curvature="0"
           style="fill:#846558;fill-opacity:1;stroke:none"
           d="M 254.79053,149.21426 L 246.8561,148.92958 C 246.94779,153.78206 247.98152,151.89775 250.69142,154.70279 C 253.99188,151.91531 254.69357,153.60578 254.79053,149.21426 Z"
           id="path124-3-6-5-9"
           sodipodi:nodetypes="cccc" />
        <path
           inkscape:connector-curvature="0"
           style="fill:#614a41;fill-opacity:1;stroke:none"
           d="M 264.46524,78.356292 C 259.48174,80.47931 258.41617,79.939614 256.93174,80.046484 C 256.93122,81.016652 257.50201,82.569404 259.54479,82.87106 C 261.5876,83.17272 277.51108,73.990526 288.72389,82.066938 C 286.76066,78.551724 282.61246,73.914192 277.51107,73.990509 C 272.40967,74.066839 267.36593,77.120566 264.46524,78.356292 Z"
           id="path124-3-6-0-3"
           sodipodi:nodetypes="sczcss" />
        <path
           style="fill:#414141;fill-opacity:1;stroke:#414141;stroke-width:0.46177268;stroke-miterlimit:4;stroke-dasharray:none;stroke-opacity:1"
           inkscape:connector-curvature="0"
           d="M 276.2488,81.188927 C 269.08383,81.077457 262.13202,83.108696 255.08084,83.826627 C 252.13796,84.126293 249.11133,84.148895 246.17905,83.745147 C 242.28028,83.208127 238.52247,81.927759 234.62828,81.304991 C 231.14792,80.748717 227.62465,80.170033 224.11237,80.072571 C 217.97444,79.901448 211.9961,81.644636 205.95589,82.523763 C 205.918,84.240147 205.51161,86.43561 206.38476,87.662098 C 207.28539,88.926932 208.82586,90.099502 209.19467,91.794881 C 210.0693,95.815542 211.34996,99.76602 213.0152,103.56304 C 213.82447,105.40819 215.3996,106.71699 217.1709,107.63367 C 221.43595,109.84117 226.53219,110.26436 231.27693,109.70467 C 238.03393,108.90746 241.79718,104.0597 244.7095,98.48989 C 245.80364,96.223875 245.97829,93.584509 247.39887,91.522808 C 248.24254,90.298333 250.12661,90.863204 251.48121,90.88849 C 252.83621,90.913402 253.93602,93.136427 254.32399,94.608249 C 255.69758,99.81695 258.05723,105.3631 262.92806,108.18379 C 270.20151,112.39634 281.81818,111.89488 286.75665,104.69656 C 288.68943,101.8792 289.2823,98.42248 290.2916,95.206886 C 290.90618,93.249215 291.46846,90.911439 293.52288,89.873275 C 294.35207,89.454269 293.81546,87.69722 293.95873,86.68587 C 294.11491,85.584233 294.39083,84.61245 292.78363,84.360145 C 289.98049,83.919376 287.27872,82.708012 284.40987,82.254785 C 281.69122,81.8252 279.03151,81.232431 276.2488,81.188927 Z M 228.84635,81.982328 C 230.88035,82.015631 232.90201,82.204609 234.86973,82.655876 C 246.59298,85.344881 246.72647,90.081716 241.66243,99.75666 C 237.53587,107.6401 229.30812,109.45654 221.10413,107.36402 C 217.32211,106.39943 214.78013,103.75457 213.6323,100.18432 C 212.421,96.41594 211.52996,92.421064 211.8384,88.495156 C 212.25148,83.2383 218.37303,82.633375 222.75519,82.250357 C 224.76614,82.074675 226.81253,81.950054 228.84635,81.982328 Z M 271.84684,82.931712 C 273.88032,82.988211 275.91921,83.204037 277.92045,83.468313 C 282.28123,84.044348 288.37065,84.918882 288.55098,90.188842 C 288.68569,94.124535 287.61937,98.07618 286.24273,101.78744 C 284.93866,105.30355 282.28223,107.83365 278.4615,108.63036 C 270.17352,110.35878 262.03376,108.18094 258.2588,100.12307 C 253.62669,90.234062 253.96949,85.507743 265.80003,83.338757 C 267.78554,82.974755 269.81358,82.87439 271.84684,82.931712 Z"
           id="svg_7" />
      </g>
      <g
         id="left-arm">
        <g
           id="upper-left-arm">
          <path
             sodipodi:nodetypes="cccscc"
             inkscape:connector-curvature="0"
             id="left-sleeve"
             d="M 399.32548,217.22145 C 404.21638,243.72178 409.35411,353.38707 384.20935,378.46906 C 358.40689,380.09611 350.48266,367.7638 347.2403,353.88926 C 338.5185,343.28365 341.16176,328.56292 340.63825,314.81063 C 339.94717,296.65621 343.2815,279.66093 342.32133,279.27572 C 311.71111,246.08333 328.16723,174.35136 399.32548,217.22145 Z"
             style="fill:#9ec2d8;fill-opacity:1" />
          <path
             sodipodi:nodetypes="czszccc"
             inkscape:connector-curvature="0"
             id="left-scuff"
             d="M 382.25754,394.16434 C 382.25754,394.16434 391.16784,390.26642 395.96756,373.48869 C 400.76735,356.71083 391.59818,337.23333 366.59709,334.48759 C 354.09682,333.11455 340.88786,335.16017 336.88846,348.4834 C 332.88905,361.80662 335.08184,361.53399 335.08184,361.53399 C 338.06348,387.39185 340.21474,392.01346 369.81176,397.47845 Z"
             style="fill:#669ec0;fill-opacity:1;stroke-width:1.34721255" />
        </g>
        <g
           id="lower-left-arm-plus-hand">
          <path
             sodipodi:nodetypes="cccccccccccccc"
             inkscape:connector-curvature="0"
             id="left-hand"
             d="M 369.72346,479.52561 L 367.40577,495.56641 C 366.08977,502.06305 366.50683,509.36442 363.44552,515.24026 C 352.69319,547.2478 325.54442,550.13944 306.28216,552.57066 C 306.28216,552.57066 298.13523,548.99096 299.10993,542.4065 C 299.10993,542.4065 310.33482,534.10983 318.86603,513.7909 C 319.46007,511.17413 319.22409,508.53353 318.29615,506.29432 L 312.432,520.24422 C 310.59919,524.58425 305.61328,526.5967 301.28682,524.78132 C 296.97294,522.95332 294.95901,517.93751 296.7686,513.63234 L 308.92561,484.78121 C 310.24158,481.60875 313.28808,479.68402 316.51952,479.59965 C 321.68205,479.7098 327.56184,480.35183 332.94506,480.78847 C 340.19077,462.45502 357.15486,451.63074 369.72346,479.52561 Z"
             style="fill:#a77660;fill-opacity:1;stroke-width:1.35925114" />
          <path
             sodipodi:nodetypes="ccccccc"
             inkscape:connector-curvature="0"
             id="lower-left-arm"
             d="M 386.98935,373.80634 C 389.60328,379.4652 390.99668,385.813 390.32984,390.89489 C 385.18752,420.56655 377.68763,449.31136 369.72357,479.52587 C 354.2207,512.59267 337.33008,500.58457 332.94517,480.78873 C 335.78646,449.38044 337.45455,421.46714 339.3587,394.39564 C 339.3335,382.69176 338.56338,337.81434 386.98952,373.80625 Z"
             style="fill:#a77660;fill-opacity:1;stroke-width:1.35925114" />
        </g>
      </g>
      <g
         id="right-arm">
        <g
           id="upper-right-arm">
          <path
             sodipodi:nodetypes="cccscc"
             inkscape:connector-curvature="0"
             id="right-sleeve"
             d="M 100.67452,216.51371 C 95.783622,243.01404 90.645893,352.67934 115.79065,377.76132 C 141.59311,379.38837 149.51734,367.05606 152.7597,353.18152 C 161.4815,342.57592 158.83824,327.85519 159.36175,314.1029 C 160.05283,295.94848 156.71849,278.95319 157.67867,278.56798 C 188.28889,245.3756 171.83277,173.64363 100.67452,216.51371 Z"
             style="fill:#9ec2d8;fill-opacity:1" />
          <path
             sodipodi:nodetypes="czszccc"
             inkscape:connector-curvature="0"
             id="right-cuff"
             d="M 117.74246,393.4566 C 117.74246,393.4566 108.83216,389.55868 104.03244,372.78095 C 99.232647,356.00309 108.40182,336.52559 133.40291,333.77985 C 145.90318,332.40681 159.11213,334.45243 163.11154,347.77566 C 167.11095,361.09889 164.91816,360.82625 164.91816,360.82625 C 161.93651,386.68411 159.78526,391.30573 130.18823,396.77071 Z"
             style="fill:#669ec0;fill-opacity:1;stroke-width:1.34721255" />
        </g>
        <g
           id="lower-right-arm-plus-hand">
          <path
             sodipodi:nodetypes="cccccccccccccc"
             inkscape:connector-curvature="0"
             id="right-hand"
             d="M 130.27654,478.81787 L 132.59423,494.85867 C 133.91023,501.35531 133.49317,508.65668 136.55448,514.53252 C 147.30681,546.54006 174.45558,549.4317 193.71784,551.86292 C 193.71784,551.86292 201.86477,548.28322 200.89007,541.69876 C 200.89007,541.69876 189.66518,533.40209 181.13397,513.08316 C 180.53993,510.46639 180.77591,507.82579 181.70385,505.58658 L 187.568,519.53648 C 189.40081,523.87651 194.38672,525.88896 198.71318,524.07358 C 203.02706,522.24558 205.04099,517.22977 203.2314,512.9246 L 191.07439,484.07347 C 189.75842,480.90101 186.71192,478.97628 183.48048,478.89191 C 178.31795,479.00206 172.43816,479.64409 167.05494,480.08073 C 159.80923,461.74728 142.84514,450.923 130.27654,478.81787 Z"
             style="fill:#a77660;fill-opacity:1;stroke-width:1.35925114" />
          <path
             sodipodi:nodetypes="ccccccc"
             inkscape:connector-curvature="0"
             id="lower-right-arm"
             d="M 113.01065,373.0986 C 110.39672,378.75746 109.00332,385.10526 109.67016,390.18715 C 114.81248,419.85881 122.31237,448.60362 130.27643,478.81813 C 145.7793,511.88493 162.66992,499.87683 167.05483,480.08099 C 164.21354,448.6727 162.54545,420.7594 160.6413,393.6879 C 160.6665,381.98402 161.43662,337.1066 113.01048,373.09851 Z"
             style="fill:#a77660;fill-opacity:1;stroke-width:1.35925114" />
        </g>
      </g>
    </g>
  </g>
</svg>
