<svg version="1.1" viewBox="0 0 500 1000" xmlns="http://www.w3.org/2000/svg">
 <g id="full-body">
  <g id="legs">
   <g id="right-leg">
    <path id="upper-right-leg" d="m201.96 422.14c-16.566 14.932-36.495 41.559-44.024 53.083-7.5292 11.523-8.1325 15.129-7.5966 21.164-0.60335 53.391 9.6026 105.57 14.328 158.27-5.357 2.4309-4.8072 10.819 0.84654 12.117-0.7305 0.14992-6.1411 2.0608-1.0464 5.8626 5.9241 25.223 56.884 39.781 71.769 3.9605 3.7772-1.3602 5.643-3.1444 2.8742-7.2427 2.2267 0.28984 4.819-5.2258 0.40244-7.2858 8.394-63.873 13.166-110.28 13.616-166.54-1.5354-4.7151-1.6291-8.941-6.3756-17.794-4.7465-8.8526-32.219-41.948-44.792-55.591z" fill="#41403a" stroke-width="1.0729"/>
    <g id="lower-right-leg-plus-foot">
     <g id="right-foot-2">
      <path d="m224.03 850.25c1.061 0.3283 2.1219 0.65658 3.1829 0.98487 1.3098 1.8489 4.6939 4.4382 5.5393 7.7801 1.403 5.5461 2.7046 17.099 5.497 21.713 1.3452 4.2505 2.0983 8.764 2.9849 13.204 0.22523 1.9129-0.0139 3.8965-0.64325 5.6111-1.4573 1.8006-3.5569 1.8404-5.4225 2.1497-11.286 1.4614-22.565 3.0395-33.876 4.1864-8.3911 0.84337-16.799 1.4142-25.201 2.0801-14.57 1.0847-29.143 2.1095-43.717 3.1097-5.7366 0.39788-11.476 0.74465-17.214 1.1052-1.5588-0.12029-2.7546-2.3077-2.593-4.3457-0.04747-3.1629-0.07367-6.3257-0.07872-9.4882 0.2957-2.1906 1.3001-4.0116 2.103-5.8941 1.5797-3.5082 3.2536-6.935 4.8918-10.392 2.6958-3.0866 5.9178-5.1689 9.1111-7.1548 5.0377-3.0615 10.555-4.892 16.137-4.727 4.3645-0.0438 8.7309 0.16179 13.096 0.32425 8.7249-2.7842 1.0191-2.9798 10.017-3.8218 12.941-1.686 41.182-16.174 54.123-17.86z" fill="#242424" stroke-width="4.2204"/>
      <path d="m132.91 873.43c4.6324 0.10846 11.504 3.5774 14.624 8.1612 4.1398 5.9554 4.3898 13.156 6.8682 20.511 0.68496 2.1134 1.3385 4.2444 2.0019 6.3698-4.9906 2.517-10.379 2.9913-15.649 3.7511-8.0772 0.86237-16.216 1.3377-24.325 0.35951-1.2119-0.2449-2.4214-0.51123-3.6288-0.79863-1.2053-1.155-1.3878-3.2957-1.5701-5.1081-0.68344-8.7315 1.7434-17.578 6.0855-23.892 3.8581-5.61 9.4013-8.9508 15.091-9.3193 0.16674-0.0244 0.3349-0.0233 0.50235-0.0347z" fill="#353535"/>
      <path d="m133.43 911.78c20.979-1.7198 37.592-5.8295 61.186-9.8467 14.656-5.0602 29.584-12.762 44.556-14.383 1.0432-0.10922 2.1246 1.7561 2.7158 2.9524 0.7245 1.2794 0.98042 4.7383 0.86226 6.2687-0.0809 1.4389 0.13302 2.9763-0.27306 4.3362-2.6787 4.9487-7.2808 6.4736-12.184 7.7606-18.043 4.0329-39.8 10.592-56.074 15.146-22.347 2.606-37.561-0.98391-59.914 1.5311-1.7429-0.61912-2.7274-3.11-2.8395-5.3928-0.20191-3.4955-0.52201-1.3396-0.62559-4.8398 1.0428-1.741 2.8275-1.9252 4.3732-2.0824 6.0723-0.48331 12.145-0.96662 18.217-1.4499z" fill="#121212" stroke-width="4.2204"/>
      <path d="m239.89 884.53c0.81018 0.89733 0.28745 3.2896-0.72498 3.0208-18.908 4.7841-37.862 13.109-56.168 17.796-19.076 3.1754-38.24 5.4284-57.423 7.3307-3.207 0.33434-9.3242 0.92546-12.528 1.3075-0.7359 0.29376-1.6247 0.33456-1.854-0.94695-0.05154-0.99898 0.08748-2.3446 0.70749-2.4384 17.22-2.4404 37.706-4.2317 54.922-6.7088 11.288-1.6388 20.774-6.3759 32.038-9.707 11.264-3.3311 26.118-11.125 39.385-13.454z" fill="#7b7b7b" stroke-width="4.2204"/>
     </g>
     <g id="right-foot-3">
      <path d="m208.42 870.12c-0.8289-0.71907-1.6578-1.4382-2.4867-2.1572-2.0616-0.19169-5.8146-1.7417-8.6905-0.82954-4.7726 1.5138-13.809 6.0077-18.687 5.9231-3.8086 0.93695-7.4755 2.4904-11.164 3.8979-1.5016 0.73605-2.7946 1.8902-3.6761 3.2373-0.48081 2.0733 0.66368 3.8287 1.4836 5.5206 5.255 10.038 10.421 20.125 15.916 30.032 4.0818 7.3457 18.077 11.037 22.293 18.306 7.3605 12.572 14.766 25.117 22.19 37.651 2.919 4.9357 5.8762 9.8489 8.8231 14.768 0.95745 1.231 3.1988 1.1652 4.5742 0.04899 2.3013-1.4858 4.5906-2.989 6.8679-4.5097 1.4103-1.3007 2.1588-3.0093 3.0641-4.5809 1.6405-2.9978 3.1698-6.0343 4.7411-9.056 0.71369-3.7175 0.41107-7.3859 0.0551-10.984-0.61289-5.642-2.3788-11.087-5.6167-15.624-2.4071-3.6304-11.632-7.15-17.259-7.1366-2.8724-8.5575 1.5737-2.2794-2.8482-10.126-6.0179-11.514-11.378-41.854-17.396-53.369z" fill="#242424" stroke-width="3.9233"/>
      <path d="m252.51 950.42c-2.6663-3.7785-7.4757-5.827-12.516-6.1976-6.5962-0.55202-13.439 0.75197-20.113 2.2485-1.9027 0.45256-3.8004 0.9396-5.6997 1.4157 0.97817 5.3405 3.6476 10.025 6.0458 14.75 3.8928 7.0953 8.0984 14.055 13.333 20.289 0.85325 0.88408 1.7206 1.7559 2.6019 2.6158 1.5042 0.43984 3.4524 0.38792 4.8577-0.33525 6.6616-3.6448 11.362-10.746 13.476-17.381 1.8791-5.8953 1.1847-12.09-1.7291-16.973-0.07562-0.14964-0.17036-0.28817-0.25573-0.43215z" fill="#353535"/>
      <path d="m217.53 965.5c-10.485-18.178-17.602-26.164-27.896-47.612-4.5492-14.559-9.2977-29.148-16.497-42.312-0.50433-0.91537-2.4501-0.91026-3.6408-0.82236-1.3249 0.01772-3.9556 1.4738-4.9902 2.3094-0.98967 0.76067-2.2148 1.325-2.966 2.3165-2.0625 4.6012-0.58783 9.1422 1.2262 13.817 7.1808 16.865 25.009 39.21 30.826 54.863 10.611 19.736 26.743 33.912 33.645 45.479 7.1011-0.22747 11.788-2.8105 8.9186-8.0004-6.8841-6.4446-11.69-11.533-18.627-20.039z" fill="#121212" stroke-width="3.9233"/>
      <path d="m174.91 873.52c-1.098-0.23733-2.5265 1.3484-1.7675 2.056 7.1235 17.942 14.55 43.781 24.646 57.98 8.3744 17.306 16.092 28.082 28.037 44.465 1.5514 2.8132 9.1311 8.0398 10.646 10.873 1.643-0.3614 3.5004-2.534 4.5478-3.6912-9.6358-8.3382-24.083-30.097-31.921-45.529-5.1286-10.125-12.866-17.235-16.764-28.156-3.8977-10.921-8.0338-26.375-13.772-38.47z" fill="#7b7b7b" stroke-width="3.9233"/>
     </g>
     <g id="right-foot-1">
      <path d="m230.97 853.3c0.81349 0.41438 1.627 0.82875 2.4404 1.2431 0.89535 2.0772 3.3737 5.0715 3.7894 8.7424 0.68997 6.0921 1.214 13.412 3.072 18.569 0.74209 4.6838 0.99645 9.6203 1.3619 14.484 0.0336 2.087-0.30463 4.2252-0.93168 6.0501-1.2872 1.8728-2.9491 1.8005-4.4465 2.0334-9.0275 0.96443-18.057 2.0559-27.081 2.678-6.6933 0.45337-13.379 0.61016-20.068 0.87046-11.593 0.37538-23.185 0.68568-34.775 0.96916-4.5624 0.11614-9.123 0.17672-13.684 0.25227-1.2225-0.21623-2.0022-2.6543-1.7207-4.8556 0.20121-3.433 0.4192-6.8645 0.65375-10.295 0.39894-2.3595 1.3299-4.2793 2.1063-6.2768 2.1334-9.3058 17.732-20.142 25.363-20.614 3.4517 0.19247 0.59696-1.4094 4.0335-0.99319 8.4715-5.8562 14.037-10.499 21.21-10.917 16.427-1.2629 26.804-2.4941 37.156-3.6111z" fill="#242424" stroke-width="3.9162"/>
      <path d="m179.45 866.27c8.2308 0.70018 15.769 5.078 20.947 10.827 6.8786 7.4793 11.138 16.465 14.947 25.375 1.0463 2.5571 2.0352 5.131 3.0422 7.6994-9.0815 2.3268-18.704 2.2148-28.14 2.4514-14.437 9e-3 -28.952-0.44209-43.296-2.59-2.1356-0.43648-4.2653-0.89775-6.3894-1.3834-2.0499-1.5004-2.2002-4.0272-2.3768-6.17-0.50488-10.299 4.5319-20.348 12.769-27.196 7.3189-6.0853 9.9799-9.3979 20.13-9.1249 0.29856-8e-3 8.068 0.10464 8.3668 0.11204z" fill="#353535"/>
      <path d="m155.11 909.77c16.705-0.71185 30.141-4.2557 49.085-7.3154 11.961-4.6822 24.337-12.214 36.289-13.15 0.83247-0.0611 1.5461 2.0214 1.9229 3.3513 0.47589 1.4274 0.41705 5.1928 0.20821 6.846-0.1724 1.5561-0.11955 3.2352-0.54297 4.6878-2.4899 5.2198-6.241 6.6206-10.212 7.7468-14.56 3.3819-16.929 8.7573-30.131 12.801-17.852 1.5978-33.615 0.60917-62.769-1.0908-1.3303-0.76729-1.9202-3.5228-1.8365-6.0049 0.10427-3.8022-0.31135-1.4816-0.12903-5.2834 0.95525-1.8308 2.3793-1.9326 3.6123-2.018 4.8341-0.19035 9.6682-0.38067 14.502-0.57102z" fill="#121212" stroke-width="3.9162"/>
      <path d="m241.29 886.07c0.5724 1.0177-0.0211 3.5835-0.80074 3.2363-15.3 4.1491-30.904 12.136-45.721 16.213-15.311 2.3951-30.623 3.785-45.922 4.7935-2.559 0.18632-7.4368 0.49109-9.9967 0.72934-0.60359 0.27814-1.3089 0.27351-1.3933-1.1289 0.03473-1.0863 0.24603-2.538 0.743-2.6057 13.789-1.7 30.11-2.5165 43.9-4.2566 9.0426-1.1567 16.894-5.7729 26.045-8.7663 9.1509-2.9935 21.475-10.63 32.133-12.427z" fill="#7b7b7b" stroke-width="3.9162"/>
     </g>
     <g id="right-foot">
      <path d="m231.86 855.58c5.1455 14.057 3.9716 41.002 3.9716 41.002s4.2064 11.479 5.1406 12.423c0.9342 0.93909 2.8026 3.9765-6.5443 3.5118-9.3372-0.45976-52.095-2.5727-63.301-2.8124-11.22-0.23478-8.6573-1.8782-8.8823-1.8782-0.23476 0 3.9716-11.245 9.8067-19.212 13.675-53.247 32.972-47.107 59.809-33.035z" fill="#242424" stroke-width="4.8911"/>
      <path d="m162.01 908.65c4.8911-13.226 10.985-23.946 35.412-23.946 17.227 0 31.714 12.721 36.018 28.099-6.0063 3.1988-61.824 0.65541-71.43-4.1526z" fill="#353535"/>
      <path d="m241.78 910.87c4.133 14.36-5.9525 14.669-5.9525 14.669h-73.524s-3.9276-4.2113-0.06841-17.721c0.66029 0.94889 27.923 3.3309 48.936 3.4874 22.274 0.1614 24.744 2.3086 30.609-0.43531z" fill="#121212" stroke-width="4.8911"/>
      <path d="m235.18 913.68c2.7391 0 4.715-0.35217 7.2046-1.526l-1.2032-2.5678c-3.2526 1.5309-5.3509 1.4038-11.548 0.99779-4.1232-0.26411-9.748-0.62117-18.444-0.68965-21.012-0.1565-46.241-2.4651-48.236-3.2673 0.00925 0.00462 0.24944 0.10276 0.44999 0.38639l-2.3184 1.6238c0.42064 0.59182 0.9342 1.3353 17.882 2.6412 11.069 0.84618 22.798 1.3793 32.203 1.4429 8.6231 0.07331 14.199 0.43042 18.273 0.68476 2.3233 0.15652 4.1575 0.27391 5.7373 0.27391z" fill="#7b7b7b" stroke-width="4.8911"/>
     </g>
     <path id="lower-right-leg" d="m169.28 684.87c-1.9522 0.23643-2.3117 1.1865-0.70146 2.7781-2.4607 0.9757-3.8977 4.2428 0.64347 5.0786 7.5175 52.052 3.6708 114.3 0.59012 142.91-1.1494 13.454-1.4175 26.366-0.93824 37.276 10.153 7.2418 20.959 12.309 37.151 16.297 14.029-4.411 21.662-8.6972 32.918-17.452-0.0838-12.957 2.8172-18.36-2.4806-38.036-5.2978-19.676-9.318-92.735-2.614-143.97 2.4263-1.2478 2.8506-3.3993-0.21926-4.5494 1.3194-0.94187 1.1504-1.8763-0.18504-2.5969-16.656-43.547-48.181-43.063-64.164 2.2605z" fill="#41403a" stroke-width="1.0191"/>
    </g>
   </g>
   <g id="left-leg">
    <path id="upper-left-leg" d="m298.72 422.14c16.566 14.932 36.495 41.559 44.024 53.083 7.5292 11.523 8.1325 15.129 7.5966 21.164 0.60334 53.391-9.6026 105.57-14.328 158.27 5.357 2.4309 4.8072 10.819-0.84654 12.117 0.7305 0.14993 6.1411 2.0608 1.0464 5.8626-5.9241 25.223-56.884 39.781-71.769 3.9605-3.7772-1.3602-5.643-3.1444-2.8742-7.2427-2.2267 0.28984-4.819-5.2258-0.40243-7.2858-8.394-63.873-13.166-110.28-13.616-166.54 1.5354-4.7151 1.6291-8.941 6.3756-17.794 4.7465-8.8526 32.219-41.948 44.792-55.591z" fill="#41403a" stroke-width="1.0729"/>
    <g id="lower-left-leg-plus-foot">
     <g id="left-foot-2">
      <path d="m276.65 850.25c-1.061 0.3283-2.1219 0.65658-3.1829 0.98487-1.3098 1.8489-4.6939 4.4382-5.5393 7.7801-1.403 5.5461-2.7046 17.099-5.497 21.713-1.3452 4.2505-2.0983 8.764-2.9849 13.204-0.22523 1.9129 0.0139 3.8965 0.64325 5.6111 1.4573 1.8006 3.5569 1.8404 5.4225 2.1497 11.286 1.4614 22.565 3.0395 33.876 4.1864 8.3911 0.84337 16.799 1.4142 25.201 2.0801 14.57 1.0847 29.143 2.1095 43.717 3.1097 5.7366 0.39788 11.476 0.74465 17.214 1.1052 1.5588-0.12029 2.7546-2.3077 2.593-4.3457 0.04747-3.1629 0.07367-6.3257 0.07872-9.4882-0.2957-2.1906-1.3001-4.0116-2.103-5.8941-1.5797-3.5082-3.2536-6.935-4.8918-10.392-2.6958-3.0866-5.9178-5.1689-9.1111-7.1548-5.0377-3.0615-10.555-4.892-16.137-4.727-4.3645-0.0438-8.7309 0.16179-13.096 0.32425-8.7249-2.7842-1.0191-2.9798-10.017-3.8218-12.941-1.686-41.182-16.174-54.123-17.86z" fill="#242424" stroke-width="4.2204"/>
      <path d="m367.77 873.43c-4.6324 0.10846-11.504 3.5774-14.624 8.1612-4.1398 5.9554-4.3898 13.156-6.8682 20.511-0.68496 2.1134-1.3385 4.2444-2.0019 6.3698 4.9906 2.517 10.379 2.9913 15.649 3.7511 8.0772 0.86237 16.216 1.3377 24.325 0.35951 1.2119-0.2449 2.4214-0.51123 3.6288-0.79863 1.2053-1.155 1.3878-3.2957 1.5701-5.1081 0.68344-8.7315-1.7434-17.578-6.0855-23.892-3.8581-5.61-9.4013-8.9508-15.091-9.3193-0.16673-0.0244-0.33489-0.0233-0.50235-0.0347z" fill="#353535"/>
      <path d="m367.25 911.78c-20.979-1.7198-37.592-5.8295-61.185-9.8467-14.656-5.0602-29.584-12.762-44.556-14.383-1.0432-0.10922-2.1246 1.7561-2.7158 2.9524-0.7245 1.2794-0.98042 4.7383-0.86226 6.2687 0.0809 1.4389-0.13302 2.9763 0.27306 4.3362 2.6787 4.9487 7.2808 6.4736 12.184 7.7606 18.043 4.0329 39.8 10.592 56.074 15.146 22.347 2.606 37.561-0.98391 59.914 1.5311 1.7429-0.61912 2.7274-3.11 2.8395-5.3928 0.20191-3.4955 0.52201-1.3396 0.62559-4.8398-1.0428-1.741-2.8275-1.9252-4.3732-2.0824-6.0723-0.48331-12.145-0.96662-18.217-1.4499z" fill="#121212" stroke-width="4.2204"/>
      <path d="m260.79 884.53c-0.81018 0.89733-0.28745 3.2896 0.72498 3.0208 18.908 4.7841 37.862 13.109 56.168 17.796 19.076 3.1754 38.24 5.4284 57.423 7.3307 3.207 0.33434 9.3242 0.92546 12.528 1.3075 0.7359 0.29376 1.6247 0.33456 1.854-0.94695 0.05154-0.99898-0.08748-2.3446-0.70749-2.4384-17.22-2.4404-37.706-4.2317-54.922-6.7088-11.288-1.6388-20.774-6.3759-32.038-9.707-11.264-3.3311-26.118-11.125-39.385-13.454z" fill="#7b7b7b" stroke-width="4.2204"/>
     </g>
     <g id="left-foot-3">
      <path d="m292.26 870.12c0.8289-0.71907 1.6578-1.4382 2.4867-2.1572 2.0616-0.19169 5.8146-1.7417 8.6905-0.82954 4.7726 1.5138 13.809 6.0077 18.687 5.9231 3.8086 0.93695 7.4755 2.4904 11.164 3.8979 1.5016 0.73605 2.7946 1.8902 3.6761 3.2373 0.48081 2.0733-0.66368 3.8287-1.4836 5.5206-5.255 10.038-10.421 20.125-15.916 30.032-4.0818 7.3457-18.077 11.037-22.293 18.306-7.3605 12.572-14.766 25.117-22.19 37.651-2.919 4.9357-5.8762 9.8489-8.8231 14.768-0.95745 1.231-3.1988 1.1652-4.5742 0.04899-2.3013-1.4858-4.5906-2.989-6.8679-4.5097-1.4103-1.3007-2.1588-3.0093-3.0641-4.5809-1.6405-2.9978-3.1698-6.0343-4.7411-9.056-0.71369-3.7175-0.41107-7.3859-0.0551-10.984 0.61289-5.642 2.3788-11.087 5.6167-15.624 2.4071-3.6304 11.632-7.15 17.259-7.1366 2.8724-8.5575-1.5737-2.2794 2.8482-10.126 6.0179-11.514 11.378-41.854 17.396-53.369z" fill="#242424" stroke-width="3.9233"/>
      <path d="m248.17 950.42c2.6663-3.7785 7.4757-5.827 12.516-6.1976 6.5962-0.55202 13.439 0.75197 20.113 2.2485 1.9027 0.45256 3.8004 0.9396 5.6997 1.4157-0.97817 5.3405-3.6476 10.025-6.0458 14.75-3.8928 7.0953-8.0984 14.055-13.333 20.289-0.85325 0.88408-1.7206 1.7559-2.6019 2.6158-1.5042 0.43984-3.4524 0.38792-4.8577-0.33525-6.6616-3.6448-11.362-10.746-13.476-17.381-1.8791-5.8953-1.1847-12.09 1.7291-16.973 0.07562-0.14964 0.17036-0.28817 0.25573-0.43215z" fill="#353535"/>
      <path d="m283.15 965.5c10.485-18.178 17.602-26.164 27.896-47.612 4.5492-14.559 9.2977-29.148 16.497-42.312 0.50433-0.91537 2.4501-0.91026 3.6408-0.82236 1.3249 0.01772 3.9556 1.4738 4.9902 2.3094 0.98967 0.76067 2.2148 1.325 2.966 2.3165 2.0625 4.6012 0.58783 9.1422-1.2262 13.817-7.1808 16.865-25.009 39.21-30.826 54.863-10.611 19.736-26.743 33.912-33.645 45.479-7.1011-0.22747-11.788-2.8105-8.9186-8.0004 6.8841-6.4446 11.69-11.533 18.627-20.039z" fill="#121212" stroke-width="3.9233"/>
      <path d="m325.77 873.52c1.098-0.23733 2.5265 1.3484 1.7675 2.056-7.1235 17.942-14.55 43.781-24.646 57.98-8.3744 17.306-16.092 28.082-28.037 44.465-1.5514 2.8132-9.1311 8.0398-10.646 10.873-1.643-0.3614-3.5004-2.534-4.5478-3.6912 9.6358-8.3382 24.083-30.097 31.921-45.529 5.1286-10.125 12.866-17.235 16.764-28.156 3.8977-10.921 8.0338-26.375 13.772-38.47z" fill="#7b7b7b" stroke-width="3.9233"/>
     </g>
     <g id="left-foot-1">
      <path d="m269.71 853.3c-0.81349 0.41438-1.627 0.82875-2.4404 1.2431-0.89535 2.0772-3.3737 5.0715-3.7894 8.7424-0.68997 6.0921-1.214 13.412-3.072 18.569-0.74209 4.6838-0.99645 9.6203-1.3619 14.484-0.0336 2.087 0.30463 4.2252 0.93168 6.0501 1.2872 1.8728 2.9491 1.8005 4.4465 2.0334 9.0275 0.96443 18.057 2.0559 27.081 2.678 6.6933 0.45337 13.379 0.61016 20.068 0.87046 11.593 0.37538 23.185 0.68568 34.775 0.96916 4.5624 0.11614 9.123 0.17672 13.684 0.25227 1.2225-0.21623 2.0022-2.6543 1.7207-4.8556-0.20121-3.433-0.4192-6.8645-0.65375-10.295-0.39894-2.3595-1.3299-4.2793-2.1063-6.2768-2.1334-9.3058-17.732-20.142-25.363-20.614-3.4517 0.19247-0.59696-1.4094-4.0335-0.99319-8.4715-5.8562-14.037-10.499-21.21-10.917-16.427-1.2629-26.804-2.4941-37.156-3.6111z" fill="#242424" stroke-width="3.9162"/>
      <path d="m321.23 866.27c-8.2308 0.70018-15.769 5.078-20.947 10.827-6.8786 7.4793-11.138 16.465-14.947 25.375-1.0463 2.5571-2.0352 5.131-3.0422 7.6994 9.0815 2.3268 18.704 2.2148 28.14 2.4514 14.437 9e-3 28.952-0.44209 43.296-2.59 2.1356-0.43648 4.2653-0.89775 6.3894-1.3834 2.0499-1.5004 2.2002-4.0272 2.3768-6.17 0.50488-10.299-4.5319-20.348-12.769-27.196-7.3189-6.0853-17.45-9.3075-27.6-9.0344-0.29856-8e-3 -0.59758 0.0142-0.89635 0.0216z" fill="#353535"/>
      <path d="m345.57 909.77c-16.705-0.71185-30.141-4.2557-49.085-7.3154-11.961-4.6822-24.337-12.214-36.289-13.15-0.83247-0.0611-1.5461 2.0214-1.9229 3.3513-0.47589 1.4274-0.41705 5.1928-0.20821 6.846 0.1724 1.5561 0.11955 3.2352 0.54297 4.6878 2.4899 5.2198 6.241 6.6206 10.212 7.7468 14.56 3.3819 16.929 8.7573 30.131 12.801 17.852 1.5978 33.615 0.60917 62.769-1.0908 1.3303-0.76729 1.9202-3.5228 1.8365-6.0049-0.10427-3.8022 0.31135-1.4816 0.12903-5.2834-0.95525-1.8308-2.3793-1.9326-3.6123-2.018-4.8341-0.19035-9.6682-0.38067-14.502-0.57102z" fill="#121212" stroke-width="3.9162"/>
      <path d="m259.39 886.07c-0.5724 1.0177 0.0211 3.5835 0.80074 3.2363 15.3 4.1491 30.904 12.136 45.721 16.213 15.311 2.3951 30.623 3.785 45.922 4.7935 2.559 0.18632 7.4368 0.49109 9.9967 0.72934 0.60359 0.27814 1.3089 0.27351 1.3933-1.1289-0.0347-1.0863-0.24603-2.538-0.743-2.6057-13.789-1.7-30.11-2.5165-43.9-4.2566-9.0426-1.1567-16.894-5.7729-26.045-8.7663-9.1509-2.9935-21.475-10.63-32.133-12.427z" fill="#7b7b7b" stroke-width="3.9162"/>
     </g>
     <g id="left-foot">
      <path d="m268.82 855.58c-5.1455 14.057-3.9716 41.002-3.9716 41.002s-4.2064 11.479-5.1406 12.423c-0.9342 0.93909-2.8026 3.9765 6.5443 3.5118 9.3372-0.45976 52.095-2.5727 63.301-2.8124 11.22-0.23478 8.6573-1.8782 8.8823-1.8782 0.23476 0-3.9716-11.245-9.8067-19.212-13.675-53.247-32.972-47.107-59.809-33.035z" fill="#242424" stroke-width="4.8911"/>
      <path d="m338.67 908.65c-4.8911-13.226-10.985-23.946-35.412-23.946-17.227 0-31.714 12.721-36.018 28.099 6.0063 3.1988 61.824 0.65541 71.43-4.1526z" fill="#353535"/>
      <path d="m258.9 910.87c-4.133 14.36 5.9525 14.669 5.9525 14.669h73.524s3.9276-4.2113 0.06841-17.721c-0.66029 0.94889-27.923 3.3309-48.936 3.4874-22.274 0.1614-24.744 2.3086-30.609-0.43531z" fill="#121212" stroke-width="4.8911"/>
      <path d="m265.5 913.68c-2.7391 0-4.715-0.35217-7.2046-1.526l1.2032-2.5678c3.2526 1.5309 5.3509 1.4038 11.548 0.99779 4.1232-0.26411 9.748-0.62117 18.444-0.68965 21.012-0.1565 46.241-2.4651 48.236-3.2673-0.00925 0.00462-0.24944 0.10276-0.44999 0.38639l2.3184 1.6238c-0.42064 0.59182-0.9342 1.3353-17.882 2.6412-11.069 0.84618-22.798 1.3793-32.203 1.4429-8.6231 0.07331-14.199 0.43042-18.273 0.68476-2.3233 0.15652-4.1575 0.27391-5.7373 0.27391z" fill="#7b7b7b" stroke-width="4.8911"/>
     </g>
     <path id="lower-left-leg" d="m331.4 684.87c1.9522 0.23643 2.3117 1.1865 0.70145 2.7781 2.4607 0.9757 3.8977 4.2428-0.64346 5.0786-7.5175 52.052-3.6708 114.3-0.59012 142.91 1.1494 13.454 1.4175 26.366 0.93824 37.277-10.153 7.2418-20.959 12.309-37.151 16.297-14.029-4.411-21.662-8.6972-32.918-17.452 0.0838-12.957-2.8172-18.36 2.4806-38.036 5.2978-19.676 9.318-92.735 2.614-143.97-2.4263-1.2478-2.8506-3.3993 0.21926-4.5494-1.3194-0.94187-1.1504-1.8763 0.18504-2.5969 16.656-43.547 48.181-43.063 64.164 2.2605z" fill="#41403a" stroke-width="1.0191"/>
    </g>
   </g>
   <g id="crotch-front">
    <path d="m149.25 470.03h202.66s-0.29466 13.001-2.0327 49.629c-38.69 1.5751-59.217 2.7056-77.837 39.517-5.543 10.958-14.324 11.709-21.056 11.666-6.7321-0.04284-17.361-0.88828-23.36-10.208-23.211-36.061-53.101-43.989-76.67-42.815-1.4708-34.198-1.7004-47.789-1.7004-47.789z" fill="#474640"/>
    <path d="m149.22 472.03h202.72l-0.84084 20.847-201.28 0.02403z" fill="#21201d"/>
    <path d="m194.86 472.03h4.8048v23h-4.8048z" fill="#474640"/>
    <path d="m301.49 472.03h4.8048v23h-4.8048z" fill="#474640"/>
    <path d="m238.74 470.09h23.676c2.928 0 5.2853 2.1001 5.2853 4.7087v15.316c0 2.6086-2.3572 4.7087-5.2853 4.7087h-23.676c-2.928 0-5.2853-2.1001-5.2853-4.7087v-15.316c0-2.6086 2.3572-4.7087 5.2853-4.7087z" fill="#616161"/>
   </g>
   <g id="crotch-side">
    <path d="m149.22 470.03 103.73 0.2718s0.0336 19.923 2.8738 45.898c3.8123 34.865 11.139 43.083-11.333 50.642-5.2583-0.04284-13.56-0.88828-18.246-10.208-18.13-36.061-57.286-39.989-75.695-38.815-1.1488-34.198-1.3282-47.789-1.3282-47.789z" fill="#474640"/>
    <path d="m149.22 471.96h103.66l-0.65675 20.847-102.54 0.02403z" fill="#21201d"/>
    <path d="m159.87 471.96h3.7529v23h-3.7529z" fill="#474640"/>
    <path d="m200.98 471.96h3.7529v23h-3.7529z" fill="#474640"/>
    <path d="m242.57 470.03h12.244c0.13321 11.047 0.04755 12.898 0 24.734h-12.244c-2.287 0-4.1282-2.1001-4.1282-4.7087v-15.316c0-2.6086 1.8412-4.7087 4.1282-4.7087z" fill="#616161"/>
   </g>
   <path id="belly-front" d="m201.09 344.99c38.665-38.665 52.08-38.665 90.745 0s60 125.33 60 125.33h-202.74s13.335-86.67 52-125.33z" fill="#a77660"/>
   <path id="belly-side" d="m177.3 379.86c20.978-27.906 28.256-27.906 49.234 0 20.978 27.906 32.553 90.459 32.553 90.459h-110s7.2352-62.554 28.213-90.459z" fill="#a77660"/>
  </g>
  <g id="torso-plus-head-arms">
   <g id="shirt-side" stroke-width="1.054">
    <path id="path88-9" d="m221.91 172.28s-46.054 42.588-54.576 63.099c-8.5219 20.511-6.9894 29.664 5.8624 76.582 12.852 46.918 7.4451 33.895 15.036 75.688s-13.304 112.57-13.842 123.99c7.644 12.78 53.738 29.552 136.56 32.258 0 0 6.2319-35.886-4.6567-69.064 11.277-37.101 4.9344-64.668-1.23-122.4 3.0382-22.789 9.2971-20.485 5.9674-39.336-6.6593-37.701-8.4211-50.856-16.629-67.212-8.2075-16.356-48.541-64.884-48.541-64.884z" fill="#81afcb"/>
    <path id="path94-2-9" d="m276.98 218.92 8.1007-32.718-63.617-20.989-2.2298-7.6631-13.562 22.597z" fill="#669ec0"/>
   </g>
   <path id="neck" d="m219.21 137.7-0.46449 33.755 10.653 13.046 6.8882 76.706 13.446 25.634 17.885-67.872 4.1678-33.788 10.661-13.724-0.3016-33.961c-18.563-38.392-43.448-38.165-62.935 0.2035z" fill="#a77660"/>
   <g id="shirt-front">
    <path d="m205.51 176.23-104.88 40.268c0.35147 45.371-11.281 53.099 23.258 87.454 11.19 26.038 17.213 22.32 29.077 60.467 3.2186 44.89-1.8597 112.53-2.3973 123.95 7.644 12.78 12.433 32.673 75.683 46.252 0 0 7.5288-39.876 21.646-57.833 8.0432 22.852 15.676 34.561 29.223 59.951 38.863-3.3033 62.722-19.196 74.087-49.503-5.9113-26.479-7.0656-77.018-6.3143-116.54 8.933-39.526 23.661-50.764 26.281-69.55 34.049-33.598 26.327-33.097 28.165-84.039-25.441-9.3614-80.006-29.978-104.78-38.268l-23.304 7.732-10.02 44.833-10.598 55.65-16.629-53.212-4.5414-48.884z" fill="#81afcb" stroke-width="1.054"/>
    <path d="m316.06 336.9-23.264 12.608-22.77-13.806 0.81634-43.57 46.034 1.1976z" fill="#669ec0" stroke-width=".97097"/>
    <path d="m271.38 185.34-5.5257 34.773c-3.6762 14.527-8.3168 30.054-11.807 44.008l-10.065 45.328 0.06081-0.04356-0.03931 0.08137 3.8144 167.08c6.6133 18.328 9.5665 29.5 29.508 63.955-8.4295-27.672-17.02-41.926-24.155-64.418-1.4535-22.719-1.1138-37.821-1.6158-59.789-0.83553-36.569-3.2147-106.05-3.2147-106.05 8.7168-35.188 16.917-66.208 23.974-101.94z" fill="#669ec0" stroke-width="1.054"/>
    <path d="m232.66 216.92c1.8899 15.672 4.8238 32.374 7.8481 47.221l10.183 22.345s-2.6512 0.51676-14.759-20.69c-3.3032-21.456-7.0559-43.589-7.9247-62.054l1.423-19.598c3.2125 19.192 2.5511 18.658 3.229 32.777z" fill="#669ec0" stroke-width="1.054"/>
    <path d="m287.01 215.04-16.13-29.596 11.307-18.458 0.21442-7.9781 18.847 18.421z" fill="#669ec0" stroke-width="1.054"/>
    <path d="m212.22 213.39 17.42-28.855-10.481-18.939 0.13791-7.9798-19.642 17.571z" fill="#669ec0" stroke-width="1.054"/>
   </g>
   <g id="head-side">
    <path d="m316.86 72.863 17.639 2.1734 0.444 1.5251-17.521-1.947c-0.33438-1.1263-0.05708-0.69588-0.56173-1.7515z" fill="#414141" stroke="#414141"/>
    <path d="m307.25 40.778c-3.9976 5.0681-13.171 3.0229-19.918 4.7048-3.494 8.4534-9.5873 10.954-16.761 13.608-14.973 17.461-25.916 29.653-47.934 30.029-7.178 7.7798-9.3907 24.311-5.1536 33.087 0.21699 9.559 2.4854 13.633 1.5732 22.763 5.2694 25.424 23.795 53.762 61.982 17.411 2.1423 0.09124 8.9811-0.6014 20.366-0.58064 9.2066-0.85557 20.963-2.6552 16.037-18.9 3.4641-8.2944 2.6222-8.8564-0.30987-11.291 1.9731-1.6903 1.1153-1.5554 1.7307-3.9346-0.95833-2.0689-0.73128-4.6924-0.81377-7.7809 0.13126-1.163 11.969 1.4018 11.236-6.6162-0.73334-8.0181-3.8436-7.7411-14.684-26.228 2.3877-7.2967 2.3689-4.4666 3.4621-11.184-2.5783-6.8718-9.9437-24.997-10.813-35.086z" fill="#a77660"/>
    <path d="m308.85 79.731c-1.1605 4.5215-2.5945 2.4175-8.0008 2.8229-5.4062 0.4054-8.8073 3.9998-13.775 6.3982-0.99922 0.59684-1.9563 1.1815-2.6717 1.6136 1.0814-3.4737 2.957-5.7349 6.6165-8.0768 3.6595-2.3419 4.128-2.2007 7.7232-3.4715 3.5952-1.2709 7.7725-1.2285 9.3503-0.78235 1.5778 0.44611 0.46324 0.44934 0.75706 1.496z" fill="#614a41"/>
    <path d="m317.3 73.405c-2.4918 1.5408-2.3164 1.1225-2.6838 5.853 1.5784-0.844 1.8563-0.92655 2.7482-1.5072 1.7633-1.986 0.05736-2.9477-0.06443-4.3458z" fill="#614a41"/>
    <path d="m224.74 129.64c1.2967 3.2426-0.69562 6.5536-0.89798 8.4606-5.4108-0.78288-1.5378-1.6745-6.6783-3.5482-3.8711-13.181-9.085-15.449-21.456-33.789-11.873-15.029-7.8222-21.201-8.249-32.575 1.1893-7.0132 2.8782-7.0705 4.3351-10.094-5.2033-14.591 6.9353-22.859 7.4204-23.466 1.9628-12.343 5.1751-11.718 14.155-17.268-8.7347 18.647-1.3161-2.1819 13.124-6.0462-3.4858 30.159-10.064-15.512 33.19-4.1886 10.73 3.4727 11.419 1.558-0.12284 4.3981-3.1536 0.77603 13.439 1.5869 16.63-0.74638 1.7772 5.453 0.83917 3.7509 1.4315 7.0743 1.4865-4.8616 1.6082-2.825 3.7649-14.732 5.7888 6.1658 8.4325 9.1733 10.626 21.146 1.9012-1.8289 6.6005-3.4068 8.5006-14.165 2.8501 6.3291 18.617 13.527 8.7846 39.288-1.438 3.0803-0.93193 3.9614-5.8509 2.8188-7.4077-3.4668-9.9099-0.69045-22.199 9.94-8.0781 7.2438-4.137 9.8562-8.5436 15.719-11.858 3.3136-10.496 8.333-11.749 26.611l-8.6535-0.36048c-4.9228-20.278-37.804-18.698-21.3 10.447-0.18603 3.9004 3.8377 6.2863 4.3768 10.641-2.8857 0.09581-5.1555-0.51603-6.8446-1.1357l0.30332 6.4614c-1.7536-0.08361-2.6634 0.15056-4.0972-0.89012z" fill="#231f20"/>
    <path id="glasses-side" d="m326.68 75.618c-3.5315 1.313-6.8475 4.3968-10.563 6.5606-1.6081 0.9367-3.349 1.6843-5.1559 2.0688-2.4814 0.52789-5.1238 0.39068-7.8243 0.87055-2.5058 0.44556-5.1404 0.89904-7.7358 1.8154-4.7533 1.6774-9.0401 5.2554-13.88 8.1813 0.57646 1.6637 0.9953 3.8874 2.158 4.7046 1.1755 0.826 2.8176 1.3161 3.6497 2.6884 1.9144 3.1569 4.0327 5.9696 6.2946 8.3899 1.0623 1.1367 2.4964 1.5424 3.934 1.5666 3.3322 0.05643 6.6373-1.4784 9.3998-3.5331 3.7741-2.8073 5.0602-7.4954 5.754-12.509 0.23439-2.0385-0.11635-4.134 0.34222-6.1392 0.27304-1.1943 1.4322-1.2345 2.191-1.562 0.75057-0.32428 1.69 1.1211 2.1185 2.1462 1.472 3.52 3.4102 6.8503 6.1054 7.4896 3.7665 0.89366 8.6284-2.3039 10.045-8.0756 0.55852-2.2753 0.5285-4.7161 0.68737-7.1155 0.09778-1.4761 0.14477-3.2216 0.90608-4.3387 0.3055-0.44847-0.04661-1.5991-0.06553-2.3498-0.02042-0.82234 0.01844-1.5758-0.6697-1.4793-1.2213 0.17077-2.4957-0.25022-3.8077-0.075638-1.2725 0.16936-2.5642 0.20488-3.8842 0.6956l-9e-5 -3.2e-5m-27.356 11.703c1.4271-0.54324 2.8554-0.93468 4.2789-1.0729 7.8974-0.76694 8.8164 3.0646 7.5932 12.02-0.9706 7.1042-5.4684 11.158-11.082 12.527-2.7539 0.67135-5.1826-0.42125-6.9542-2.8428-1.9476-2.6623-3.7988-5.7554-4.7505-9.3473-1.3215-4.9878 3.3614-7.5496 6.5765-9.2555 1.4352-0.76132 2.8844-1.4735 4.3382-2.0279m25.428-9.4762c0.9955-0.36147 1.9958-0.59509 2.9671-0.78037 2.0617-0.39309 4.8271-0.86746 5.3534 2.924 0.38152 2.7475 0.26291 5.6852-0.00107 8.4797-0.24639 2.6133-1.1245 4.868-2.645 6.283-3.4116 3.175-7.3797 3.8415-10.245-0.81372-3.8593-6.2715-4.415-10.128 1.591-14.525 0.96313-0.70502 1.968-1.2015 2.9794-1.5681" fill="#414141" stroke="#414141"/>
    <path d="m313.05 122.58 3.3789-0.59238-0.16855 6.5789c-6.1178 1.0207-7.1434 3.5179-9.6556 5.1248-0.4242-6.336 5.8675-6.6839 6.4453-11.111z" fill="#846558" stroke-width="2.2034"/>
    <path d="m316.93 143.6c-2.0541 0.14032-5.6926 1.6902-5.6926 1.6902 1.7465 4.0958 1.9778 2.1376 5.2473 3.5918-0.03324-3.1497 0.88725-2.3569 0.44535-5.282z" fill="#846558" stroke-width=".91744"/>
    <path d="m260.37 111.29-7.4201-1.5046-0.55775 9.2032c0.28847 4.7781-0.33317 16.573 2.0716 17.711 4.0378 10.319 19.848 21.467 29.52 25.656 9.7493-0.50541 18.831 0.46027 27.499-2.6244-14.72 1.7193-14.78-1.8571-17.375-3.2314-3.8056-2.0155-0.29629-5.9664-12.538-11.517-5.0384-2.2846-5.1082-13.383-4.4691-12.999 0.18083-3.1431-8.3533-9.2749-12.888-12.223-1.8114-1.1774-3.4919-6.2672-3.843-8.4719z" fill="#846558" stroke-width="2.2034"/>
    <path d="m244.78 92.675 36.744 2.4395 1.4179 3.9432-33.083-1.6807-2.393-2.5455z" fill="#414141" stroke="#414141"/>
   </g>
   <g id="head-front">
    <path d="m251.99 22.118c-23.01-0.50801-42.193 23.196-42.396 32.395-0.11197 5.0718-0.97347 19.606-1.4377 33.625-0.22311-0.91467-1.2236-4.9066-2.4462-6.1696-1.3686-1.4152-3.3388 1.1608-3.3388 1.1608s-1.2619 11.328-0.89912 15.659c0.35719 4.3351 4.6815 15.47 4.6815 15.47l2.0005 0.00857 0.01506-1.9649c0.09042 1.2748 0.1588 2.6632 0.30355 3.6037 1.1037 7.1702 4.977 20.154 9.0533 31.466 25.899 34.341 35.28 34.01 60.442 6.6271 5.1487-12.336 9.9303-28.357 11.733-35.902 0.28995-1.2139 0.54567-2.9296 0.7757-4.9278l-0.10693 2.9135 1.9989 0.07974s4.8115-10.934 5.3597-15.249c0.55352-4.3106-0.21425-15.684-0.21425-15.684s-1.8476-2.6602-3.2772-1.3068c-0.97173 0.91893-1.783 3.1895-2.3206 4.8512 0.46233-13.492 0.67779-27.247 0.99963-32.422 0.61584-9.9036-17.916-33.726-40.925-34.234z" fill="#a77660"/>
    <path d="m292.19 89.145c-0.25339 11.477-5.3182 57.444-16.497 56.514-11.749 29.186-41.418 28.845-51.509-1.6333-12.031-1.8167-16.333-44.334-16.079-55.869-3.9011 31.295 6.9823 64.293 22.355 76.538 15.373 12.245 20.812 12.655 37.934 0.83351 17.122-11.822 23.877-46.287 23.795-76.384z" fill="#846558"/>
    <path d="m218.27 11.612c3.0269 0.12624 29.733-1.7547 38.785 2.4605 9.0525 4.2152 7.7072 4.5792 13.161 9.1357-0.82717-2.6418-0.10684-0.4105-1.8037-2.9322 6.3151 3.1244 15.393 7.5696 17.187 18.446 5.2926 4.5505 7.0593 6.9917 10.294 15.76l-2.9131 35.542-4.2766-24.896s-5.8983-5.4083-7.0241-10.601c-5.1612 0.30934-18.947-5.7808-23.251-3.603-4.3046 2.1778-6.6424 3.9818-12.732 1.2507-6.0892-2.7311-7.418-2.1469-14.259 1.0567-4.7461 1.1997-16.353 6.7304-16.353 6.7304l-7.1057 27.791-0.90048-36.401-8.1257-8.9953s1.2168-2.9071 5.8092-5.7983c4.5925-2.8912 7.4421-3.4397 7.4421-3.4397-4.6794-2.6226-5.1598-4.1162-9.7132-6.4725 7.6851-8.1571 15.62-9.1178 19.428-8.8174-2.6004-1.4541-2.7833-3.321-3.6496-6.2165z" fill="#231f20"/>
    <path d="m246.19 126.76 3.3835 0.0747-1.1457 8.7995c-7.0941-0.48805-14.026-0.57237-17.422 0.86876 2.1119-8.8884 12.754-3.8032 15.184-9.743z" fill="#846558"/>
    <path d="m255.18 126.95-3.3835-0.0747 0.75622 8.8415c7.1088-0.17447 14.038 0.04722 17.367 1.6368-1.7176-8.973-12.574-4.3624-14.739-10.404z" fill="#846558"/>
    <path d="m237.23 79.113c5.1813 1.5911 5.2872 0.88657 6.7649 1.0866-0.04657 1.1623-0.15674 2.7722-2.212 3.0345-2.0553 0.26223-26.237-4.0907-29.644-2.1568 4.2634-8.2317 19.91-3.5554 25.091-1.9643z" fill="#614a41"/>
    <path d="m254.79 149.21-7.9344-0.28468c0.09169 4.8525 1.1254 2.9682 3.8353 5.7732 3.3005-2.7875 4.0022-1.097 4.0991-5.4885z" fill="#846558"/>
    <path d="m264.47 78.356c-4.9835 2.123-6.0491 1.5833-7.5335 1.6902-5.2e-4 0.97017 0.57027 2.5229 2.613 2.8246 2.0428 0.30166 17.966-8.8805 29.179-0.80412-1.9632-3.5152-6.1114-8.1527-11.213-8.0764-5.1014 0.07633-10.145 3.1301-13.046 4.3658z" fill="#614a41"/>
    <path id="glasses-front" d="m276.25 81.189c-7.165-0.11147-14.117 1.9198-21.168 2.6377-2.9429 0.29967-5.9695 0.32227-8.9018-0.08148-3.8988-0.53702-7.6566-1.8174-11.551-2.4402-3.4804-0.55627-7.0036-1.135-10.516-1.2324-6.1379-0.17112-12.116 1.5721-18.156 2.4512-0.03789 1.7164-0.44428 3.9118 0.42887 5.1383 0.90063 1.2648 2.4411 2.4374 2.8099 4.1328 0.87463 4.0207 2.1553 7.9711 3.8205 11.768 0.80927 1.8452 2.3844 3.154 4.1557 4.0706 4.265 2.2075 9.3613 2.6307 14.106 2.071 6.757-0.79721 10.52-5.645 13.433-11.215 1.0941-2.266 1.2688-4.9054 2.6894-6.9671 0.84367-1.2245 2.7277-0.6596 4.0823-0.63432 1.355 0.024912 2.4548 2.2479 2.8428 3.7198 1.3736 5.2087 3.7332 10.755 8.6041 13.576 7.2734 4.2126 18.89 3.7111 23.829-3.4872 1.9328-2.8174 2.5256-6.2741 3.535-9.4897 0.61458-1.9577 1.1769-4.2954 3.2313-5.3336 0.82919-0.41901 0.29258-2.1761 0.43585-3.1874 0.15618-1.1016 0.4321-2.0734-1.1751-2.3257-2.8031-0.44077-5.5049-1.6521-8.3738-2.1054-2.7186-0.42958-5.3784-1.0224-8.1611-1.0659zm-47.402 0.7934c2.034 0.033303 4.0557 0.22228 6.0234 0.67355 11.723 2.689 11.857 7.4258 6.7927 17.101-4.1266 7.8834-12.354 9.6999-20.558 7.6074-3.782-0.96459-6.324-3.6094-7.4718-7.1797-1.2113-3.7684-2.1023-7.7633-1.7939-11.689 0.41308-5.2569 6.5346-5.8618 10.917-6.2448 2.011-0.17568 4.0573-0.3003 6.0912-0.26803zm43 0.94938c2.0335 0.056499 4.0724 0.27232 6.0736 0.5366 4.3608 0.57604 10.45 1.4506 10.631 6.7205 0.13471 3.9357-0.93161 7.8873-2.3082 11.599-1.3041 3.5161-3.9605 6.0462-7.7812 6.8429-8.288 1.7284-16.428-0.44942-20.203-8.5073-4.6321-9.889-4.2893-14.615 7.5412-16.784 1.9855-0.364 4.0136-0.46437 6.0468-0.40704z" fill="#414141" stroke="#414141" stroke-width=".46177"/>
   </g>
   <g id="left-arm">
    <g id="upper-left-arm">
     <path id="left-sleeve" d="m399.33 217.22c4.8909 26.5 10.029 136.17-15.116 161.25-25.802 1.627-33.727-10.705-36.969-24.58-8.7218-10.606-6.0785-25.326-6.602-39.079-0.69108-18.154 2.6432-35.15 1.6831-35.535-30.61-33.192-14.154-104.92 57.004-62.054z" fill="#9ec2d8"/>
     <path id="left-scuff" d="m382.26 394.16s8.9103-3.8979 13.71-20.676c4.7998-16.778-4.3694-36.255-29.37-39.001-12.5-1.373-25.709 0.67258-29.709 13.996-3.9994 13.323-1.8066 13.051-1.8066 13.051 2.9816 25.858 5.1329 30.479 34.73 35.944z" fill="#669ec0" stroke-width="1.3472"/>
    </g>
    <g id="lower-left-arm-plus-hand" fill="#a77660" stroke-width="1.3593">
     <path id="left-hand" d="m369.72 479.53-2.3177 16.041c-1.316 6.4966-0.89894 13.798-3.9602 19.674-10.752 32.008-37.901 34.899-57.163 37.33 0 0-8.1469-3.5797-7.1722-10.164 0 0 11.225-8.2967 19.756-28.616 0.59404-2.6168 0.35806-5.2574-0.56988-7.4966l-5.8642 13.95c-1.8328 4.34-6.8187 6.3525-11.145 4.5371-4.3139-1.828-6.3278-6.8438-4.5182-11.149l12.157-28.851c1.316-3.1725 4.3625-5.0972 7.5939-5.1816 5.1625 0.11015 11.042 0.75218 16.426 1.1888 7.2457-18.333 24.21-29.158 36.778-1.2629z"/>
     <path id="lower-left-arm" d="m386.99 373.81c2.6139 5.6589 4.0073 12.007 3.3405 17.089-5.1423 29.672-12.642 58.416-20.606 88.631-15.503 33.067-32.393 21.059-36.778 1.2629 2.8413-31.408 4.5094-59.322 6.4135-86.393-0.0252-11.704-0.79532-56.581 47.631-20.589z"/>
    </g>
   </g>
   <g id="right-arm">
    <g id="upper-right-arm">
     <path id="right-sleeve" d="m100.67 216.51c-4.8909 26.5-10.029 136.17 15.116 161.25 25.802 1.627 33.727-10.705 36.969-24.58 8.7218-10.606 6.0785-25.326 6.602-39.079 0.69108-18.154-2.6433-35.15-1.6831-35.535 30.61-33.192 14.154-104.92-57.004-62.054z" fill="#9ec2d8"/>
     <path id="right-cuff" d="m117.74 393.46s-8.9103-3.8979-13.71-20.676c-4.7998-16.778 4.3694-36.255 29.37-39.001 12.5-1.373 25.709 0.67258 29.709 13.996s1.8066 13.051 1.8066 13.051c-2.9816 25.858-5.1329 30.479-34.73 35.944z" fill="#669ec0" stroke-width="1.3472"/>
    </g>
    <g id="lower-right-arm-plus-hand" fill="#a77660" stroke-width="1.3593">
     <path id="right-hand" d="m130.28 478.82 2.3177 16.041c1.316 6.4966 0.89894 13.798 3.9602 19.674 10.752 32.008 37.901 34.899 57.163 37.33 0 0 8.1469-3.5797 7.1722-10.164 0 0-11.225-8.2967-19.756-28.616-0.59404-2.6168-0.35806-5.2574 0.56988-7.4966l5.8642 13.95c1.8328 4.34 6.8187 6.3525 11.145 4.5371 4.3139-1.828 6.3278-6.8438 4.5182-11.149l-12.157-28.851c-1.316-3.1725-4.3625-5.0972-7.5939-5.1816-5.1625 0.11015-11.042 0.75218-16.426 1.1888-7.2457-18.333-24.21-29.158-36.778-1.2629z"/>
     <path id="lower-right-arm" d="m113.01 373.1c-2.6139 5.6589-4.0073 12.007-3.3405 17.089 5.1423 29.672 12.642 58.416 20.606 88.631 15.503 33.067 32.393 21.059 36.778 1.2629-2.8413-31.408-4.5094-59.322-6.4135-86.393 0.0252-11.704 0.79532-56.581-47.631-20.589z"/>
    </g>
   </g>
  </g>
 </g>
</svg>
