<svg version="1.1" viewBox="0 0 1000 1000" xmlns="http://www.w3.org/2000/svg" xmlns:xlink="http://www.w3.org/1999/xlink">
 <style type="text/css">.st0{fill:#0095EC;fill-opacity:0.9922;}
	.st1{fill:#A88CD0;}
	.st2{opacity:0.6;clip-path:url(#SVGID_2_);}
	.st3{fill:#B395DD;}
	.st4{fill:#66666B;}
	.st5{fill:#3A3A3D;}
	.st6{fill:#872237;}
	.st7{opacity:0.3;clip-path:url(#SVGID_4_);}
	.st8{fill:#434147;}
	.st9{fill:#00687E;}
	.st10{fill:#0093B1;}
	.st11{opacity:0.5;clip-path:url(#SVGID_6_);}
	.st12{fill:#F0EEE2;}
	.st13{fill:#C2BFB7;}
	.st14{fill:#E6E3D9;}
	.st15{fill:#B0AD9F;}
	.st16{fill:#556873;}
	.st17{fill:#76909F;}
	.st18{fill:#A3A7A8;}
	.st19{fill:#DCE1E3;}
	.st20{fill:#EEC19C;}
	.st21{fill:#B52126;}
	.st22{fill:#FCCDA5;}
	.st23{fill:#2B1F0C;}
	.st24{opacity:0.5;clip-path:url(#SVGID_8_);}
	.st25{fill:#F7F5E9;}
	.st26{fill:none;stroke:#A6A6A6;stroke-width:0.3559;stroke-miterlimit:10;}
	.st27{fill:#A6A6A6;}
	.st28{fill:#D4D4D4;}
	.st29{fill:#806657;}
	.st30{fill:#593017;}
	.st31{fill:#381E0E;}
	.st32{fill:#CCAE7E;}
	.st33{opacity:0.5;clip-path:url(#SVGID_10_);}
	.st34{fill:#757575;}
	.st35{fill:#0B426E;}
	.st36{fill:#4E94CF;}
	.st37{fill:#386B95;}
	.st38{fill:#A0A96A;}
	.st39{fill:#8C8B8B;}
	.st40{fill:none;stroke:#666565;stroke-width:0.2148;stroke-linecap:round;stroke-linejoin:round;stroke-miterlimit:10;}
	.st41{fill:#E5952E;}
	.st42{fill:#D4CCC0;}
	.st43{fill:#FFBD69;}
	.st44{fill:#666565;}
	.st45{opacity:0.5;clip-path:url(#SVGID_12_);}
	.st46{fill:#E3C63B;}
	.st47{fill:#1498C3;}
	.st48{fill:#EBD467;}
	.st49{fill:#18B9ED;}
	.st50{opacity:0.5;clip-path:url(#SVGID_14_);}
	.st51{fill:#C9C4B8;}
	.st52{fill:#FFFFFF;}
	.st53{opacity:0.5;clip-path:url(#SVGID_16_);}
	.st54{fill:#FBF8EC;}
	.st55{fill:#C4C3B9;}
	.st56{fill:#E0DED3;}
	.st57{fill:#B5D1E8;}
	.st58{opacity:0.5;clip-path:url(#SVGID_18_);}
	.st59{fill:#00587E;}
	.st60{fill:#007BB0;}
	.st61{opacity:0.5;clip-path:url(#SVGID_20_);}
	.st62{fill:#DBD5C8;}
	.st63{opacity:0.5;clip-path:url(#SVGID_22_);}
	.st64{fill:#EDE6D8;}
	.st65{opacity:0.5;clip-path:url(#SVGID_24_);}
	.st66{fill:#804508;}
	.st67{fill:#24AFFF;}
	.st68{fill:#00E62E;}
	.st69{fill:#FFED24;}
	.st70{fill:#FF73A5;}
	.st71{fill:#D6750D;}
	.st72{fill:#BFBFBF;}
	.st73{fill:#997B42;}
	.st74{fill:#DDB260;}
	.st75{fill:#A18146;}
	.st76{fill:#C4BFB3;}
	.st77{clip-path:url(#SVGID_26_);}
	.st78{fill:#A6A298;}
	.st79{fill:#704831;}
	.st80{fill:#945F40;}
	.st81{fill:#523523;}
	.st82{fill:#704931;}
	.st83{fill:#2AB466;}
	.st84{fill:none;}
	.st85{opacity:0.5;clip-path:url(#SVGID_28_);}
	.st86{fill:#B38B4E;}
	.st87{fill:#DEC861;}
	.st88{fill:#CCC5B8;}
	.st89{fill:none;stroke:#B38B4E;stroke-width:0.424;stroke-miterlimit:10;}
	.st90{fill:#707070;}
	.st91{fill:#B5A450;}
	.st92{fill:#F9F9F9;}
	.st93{fill:#C47A5E;}
	.st94{fill:#9E614C;}
	.st95{opacity:0.2;clip-path:url(#SVGID_30_);}
	.st96{opacity:0.2;clip-path:url(#SVGID_32_);}
	.st97{opacity:0.2;clip-path:url(#SVGID_34_);}
	.st98{opacity:0.2;clip-path:url(#SVGID_36_);}
	.st99{fill:#8A623D;}
	.st100{clip-path:url(#SVGID_38_);}
	.st101{fill-opacity:0.1961;}
	.st102{fill:#FFD3A3;}
	.st103{clip-path:url(#SVGID_40_);}
	.st104{clip-path:url(#SVGID_42_);}
	.st105{fill:#F5C795;}
	.st106{clip-path:url(#SVGID_44_);}
	.st107{fill:#A18374;}
	.st108{fill:#A67649;}
	.st109{fill:#8AA6AB;}
	.st110{fill:#222625;}
	.st111{fill:#0E1210;}
	.st112{fill:#3C403F;}
	.st113{fill:#1D2421;}
	.st114{fill:#9E4E34;}
	.st115{fill:#CC6543;}
	.st116{fill:#FFFFFF;fill-opacity:0.1961;}
	.st117{fill:#241E1B;}
	.st118{fill:#DB854B;}
	.st119{fill:#9C5C2F;}
	.st120{fill:#7D3B24;}
	.st121{fill:#1A79A3;}
	.st122{fill:#AD5F42;}
	.st123{fill:#8F513B;}
	.st124{opacity:0.2;clip-path:url(#SVGID_46_);}
	.st125{opacity:0.2;clip-path:url(#SVGID_48_);}
	.st126{opacity:0.2;clip-path:url(#SVGID_50_);}
	.st127{opacity:0.2;clip-path:url(#SVGID_52_);}
	.st128{fill:#FED2A3;}
	.st129{clip-path:url(#SVGID_54_);}
	.st130{fill:#EDEDED;}
	.st131{fill:#F5CA9D;}
	.st132{opacity:0.4;clip-path:url(#SVGID_56_);}
	.st133{opacity:0.4;clip-path:url(#SVGID_58_);}
	.st134{fill:#8FACB5;}
	.st135{fill:#A87F68;}
	.st136{clip-path:url(#SVGID_60_);}
	.st137{fill:#B6CACF;}
	.st138{clip-path:url(#SVGID_62_);}
	.st139{fill:#FAFAFA;}
	.st140{fill:#91827A;}
	.st141{fill:#B15634;}
	.st142{fill:#943817;}
	.st143{fill:#D4AA00;}
	.st144{fill:#AA8800;}
	.st145{fill:#333333;}
	.st146{fill:#8E7300;}</style>
 <g transform="matrix(1.25 0 0 -1.25 337.42 946.58)">
  <defs>
   <rect id="SVGID_1_" x="-286.2" y="13.4" width="163.2" height="190"/>
  </defs>
  <clipPath id="SVGID_2_">
   <use width="100%" height="100%" xlink:href="#SVGID_1_"/>
  </clipPath>
  <g class="st2" transform="matrix(-1.603 0 0 1.603 -42.733 -42.732)" clip-path="url(#SVGID_2_)" opacity=".6">
   <g transform="translate(68.506 46.889)">
    <path class="st3" d="m0 0-8.2 94.8h34.9c5.6-23.9 23.7-42.6 46.5-49.5v-39z" fill="#b395dd"/>
   </g>
  </g>
  <defs>
   <rect id="SVGID_3_" x="-287.8" y="-2" width="179.1" height="207.2"/>
  </defs>
  <clipPath id="SVGID_4_">
   <use width="100%" height="100%" xlink:href="#SVGID_3_"/>
  </clipPath>
  <g class="st7" transform="matrix(-1.603 0 0 1.603 -42.733 -42.732)" clip-path="url(#SVGID_4_)" opacity=".3">
   <g transform="translate(61.316 38.334)">
    <path class="st8" d="m0 0-9 103.4h35.8c5.9-27.8 27-49.4 53.6-56.6v-39.8z" fill="#434147"/>
   </g>
  </g>
  <defs>
   <rect id="SVGID_5_" x="-237.9" y="54.4" width="96.1" height="96.1"/>
  </defs>
  <clipPath id="SVGID_6_">
   <use width="100%" height="100%" xlink:href="#SVGID_5_"/>
  </clipPath>
  <g class="st11" transform="matrix(-1.603 0 0 1.603 -42.733 -42.732)" clip-path="url(#SVGID_6_)" opacity=".5">
   <g transform="translate(93.854 67.469)">
    <path class="st8" d="m0 0c-1.2-1.2-3.1-1.2-4.3 0l-20.9 20.9c-1.2 1.2-1.2 3.1 0 4.3l21 21c1.2 1.2 3.1 1.2 4.3 0l20.9-20.9c1.2-1.2 1.2-3.1 0-4.3z" fill="#434147"/>
   </g>
  </g>
  <defs>
   <rect id="SVGID_9_" x="-172.8" y="119.2" width="29.5" height="24.4"/>
  </defs>
  <clipPath id="SVGID_10_">
   <use width="100%" height="100%" xlink:href="#SVGID_9_"/>
  </clipPath>
  <g class="st33" transform="matrix(-1.603 0 0 1.603 -42.733 -42.732)" clip-path="url(#SVGID_10_)" opacity=".5">
   <g transform="translate(64.601 109.66)">
    <path class="st34" d="m0 0 2.4-6.5c0.1-0.5 0.7-0.8 1.1-0.6l0.4 0.2 10.1 3.6c0.5 0.2 0.7 0.7 0.5 1.2l-2.4 6.5c-0.2 0.5-0.7 0.7-1.2 0.6l-9.9-3.7-0.5-0.1c-0.4-0.2-0.7-0.7-0.5-1.2" fill="#757575"/>
   </g>
  </g>
  <defs>
   <rect id="SVGID_11_" x="-163.6" y="168" width="33.8" height="8.3"/>
  </defs>
  <clipPath id="SVGID_12_">
   <use width="100%" height="100%" xlink:href="#SVGID_11_"/>
  </clipPath>
  <g class="st45" transform="matrix(-1.603 0 0 1.603 -42.733 -42.732)" clip-path="url(#SVGID_12_)" opacity=".5">
   <g transform="translate(58.008 131.98)">
    <path class="st8" d="m0 0 15.3 3.2-0.1 0.3v0.2l-0.1 0.5-15.3-3.2-0.9-0.5-0.5-0.3z" fill="#434147"/>
   </g>
  </g>
  <defs>
   <polygon id="SVGID_13_" points="-183.6 139.3 -174.3 139.3 -174.3 152.2 -183.6 152.2"/>
  </defs>
  <clipPath id="SVGID_14_">
   <use width="100%" height="100%" xlink:href="#SVGID_13_"/>
  </clipPath>
  <g class="st50" transform="matrix(-1.603 0 0 1.603 -42.733 -42.732)" clip-path="url(#SVGID_14_)" opacity=".5">
   <g transform="translate(83.451 120.38)">
    <path class="st8" d="m0 0c0.5 0.9 1.3 1.5 2.3 1.2l0.9-0.3c1-0.3 1.3-1.3 1.2-2.3-0.2-1.1-0.8-3.2-1.4-4.2-0.4-0.8-1.3-1.5-2.3-1.1l-0.9 0.3c-1 0.3-1.3 1.3-1.2 2.3 0.2 1 0.9 3.1 1.4 4.1" fill="#434147"/>
   </g>
  </g>
  <defs>
   <rect id="SVGID_15_" x="-157.8" y="139.7" width="30.5" height="21.4"/>
  </defs>
  <clipPath id="SVGID_16_">
   <use width="100%" height="100%" xlink:href="#SVGID_15_"/>
  </clipPath>
  <g class="st53" transform="matrix(-1.603 0 0 1.603 -42.733 -42.732)" clip-path="url(#SVGID_16_)" opacity=".5">
   <g transform="translate(55.31 125.01)">
    <path class="st8" d="m0 0c-0.1 0-0.1 0 0 0-0.1 0-0.1-0.1-0.1-0.1v-0.1-0.1-0.5h-0.4s-0.1 0-0.1-0.1c0 0 0-0.1 0.1-0.1h0.4v-0.1h-0.4s-0.1 0-0.1-0.1c0 0 0-0.1 0.1-0.1h0.4v-0.8h-0.4s-0.1 0-0.1-0.1c0 0 0-0.1 0.1-0.1h0.4v-0.1h-0.4s-0.1 0-0.1-0.1c0 0 0-0.1 0.1-0.1h0.4l0.1-0.4h-0.4s-0.1 0-0.1-0.1c0 0 0-0.1 0.1-0.1h0.4v-0.1h-0.4s-0.1 0-0.1-0.1c0 0 0-0.1 0.1-0.1h0.4v-0.8h-0.4s-0.1 0-0.1-0.1c0 0 0-0.1 0.1-0.1h0.4v-0.1h-0.4s-0.1 0-0.1-0.1 0-0.1 0.1-0.1h0.4v-0.8h-0.4s-0.1 0-0.1-0.1c0 0 0-0.1 0.1-0.1h0.4v-0.1h-0.4s-0.1 0-0.1-0.1c0 0 0-0.1 0.1-0.1h0.4v-0.8h-0.4s-0.1 0-0.1-0.1c0 0 0-0.1 0.1-0.1h0.4v-0.1h-0.4s-0.1 0-0.1-0.1c0 0 0-0.1 0.1-0.1h0.4v-0.8h-0.4s-0.1 0-0.1-0.1c0 0 0-0.1 0.1-0.1h0.4v-0.1h-0.4s-0.1 0-0.1-0.1c0 0 0-0.1 0.1-0.1h0.4v-0.8h-0.4s-0.1 0-0.1-0.1c0 0 0-0.1 0.1-0.1h0.4v-0.1h-0.4s-0.1 0-0.1-0.1c0 0 0-0.1 0.1-0.1h0.4v-0.5-0.1-0.1l13 0.7h0.8c0.1 0 0.2 0.1 0.2 0.2l-0.5 9.5c0 0.1-0.1 0.2-0.2 0.2h-0.8l-12.5 0.1" fill="#434147"/>
   </g>
  </g>
  <defs>
   <rect id="SVGID_17_" x="-177.7" y="161.5" width="31" height="16.6"/>
  </defs>
  <clipPath id="SVGID_18_">
   <use width="100%" height="100%" xlink:href="#SVGID_17_"/>
  </clipPath>
  <g class="st58" transform="matrix(-1.603 0 0 1.603 -42.733 -42.732)" clip-path="url(#SVGID_18_)" opacity=".5">
   <g transform="translate(67.967 129.59)">
    <path class="st8" d="m0 0-1.2-1.2 1.6 0.3 13.9 7.1-0.1 0.2-0.2 0.5-0.1 0.2z" fill="#434147"/>
   </g>
  </g>
 </g>
 <g transform="matrix(-13.667 -1.9035 1.9035 -13.667 -307.29 2071.3)">
  <g transform="matrix(2.0038 0 0 -2.0038 -297.21 266.52)">
   <defs>
    <rect id="SVGID_19_" x="102.8" y="46.7" width="45.3" height="55"/>
   </defs>
   <clipPath id="SVGID_20_">
    <use width="100%" height="100%" xlink:href="#SVGID_19_"/>
   </clipPath>
   <g class="st61" clip-path="url(#SVGID_20_)" opacity=".5">
    <g transform="translate(118.6 60.732)">
     <path class="st34" d="m0 0-4.5 23.5c0 0.2 0.1 0.3 0.2 0.4l17.5 3.3c0.2 0 0.3-0.1 0.4-0.2l4.5-23.5c0-0.2-0.1-0.3-0.2-0.4l-17.5-3.3c-0.2-0.1-0.4 0-0.4 0.2" fill="#757575"/>
    </g>
   </g>
   <path class="st62" d="m118.9 60.6-4.5 23.5c0 0.2 0.1 0.3 0.2 0.4l17.5 3.3c0.2 0 0.3-0.1 0.4-0.2l4.5-23.6c0-0.2-0.1-0.3-0.2-0.4l-17.5-3.3c-0.2 0-0.4 0.1-0.4 0.3" fill="#dbd5c8"/>
   <defs>
    <rect id="SVGID_21_" x="106.6" y="46.9" width="39.8" height="51.3"/>
   </defs>
   <clipPath id="SVGID_22_">
    <use width="100%" height="100%" xlink:href="#SVGID_21_"/>
   </clipPath>
   <g class="st63" clip-path="url(#SVGID_22_)" opacity=".5">
    <g transform="translate(118.01 60.074)">
     <path class="st34" d="m0 0-1.5 23.9c0 0.2 0.1 0.3 0.3 0.3l17.8 1.1c0.2 0 0.3-0.1 0.3-0.3l1.4-23.9c0-0.2-0.1-0.3-0.3-0.3l-17.7-1.1c-0.1 0-0.3 0.1-0.3 0.3" fill="#757575"/>
    </g>
   </g>
   <path class="st64" d="m118.2 59.9-1.5 23.9c0 0.2 0.1 0.3 0.3 0.3l17.8 1.1c0.2 0 0.3-0.1 0.3-0.3l1.4-23.9c0-0.2-0.1-0.3-0.3-0.3l-17.8-1.1s-0.2 0.2-0.2 0.3" fill="#ede6d8"/>
   <defs>
    <polygon id="SVGID_23_" points="116.8 85 140 85 140 57.6 116.8 57.6"/>
   </defs>
   <clipPath id="SVGID_24_">
    <use width="100%" height="100%" xlink:href="#SVGID_23_"/>
   </clipPath>
   <g class="st65" clip-path="url(#SVGID_24_)" opacity=".5">
    <g transform="translate(136.43 82.534)">
     <path class="st34" d="m0 0-0.4-0.2-0.1 0.4zm0.2-1.5-0.4-0.2-0.1 0.4 0.5-0.2zm0.2-1.5-0.4-0.2-0.1 0.4zm0.2-1.5-0.4-0.1v0.3zm0.3-1.4-0.5-0.2v0.3zm0.2-1.5-0.5-0.2v0.4zm0.2-1.5-0.5-0.2v0.4zm0.2-1.4-0.5-0.2v0.4l0.5-0.2zm0.2-1.5-0.4-0.2-0.1 0.4zm0.2-1.5-0.4-0.2-0.1 0.4zm0.2-1.4-0.4-0.2-0.1 0.4zm0.2-1.5-0.4-0.2-0.1 0.4 0.5-0.2zm0.2-1.5-0.4-0.2-0.1 0.4zm0.3-1.4-0.4-0.2-0.1 0.4 0.5-0.2zm0.2-1.5-0.4-0.2-0.1 0.4zm-19-3.8c0-0.1 0.2-0.2 0.3-0.2h0.1v-0.1c0-0.2 0.2-0.3 0.3-0.3l17.7 2.5c0.2 0 0.3 0.2 0.3 0.3l-0.1 0.9h0.1l0.8 0.3c0.1 0 0.1 0.1 0.1 0.1 0 0.1 0 0.1-0.1 0.1l-1 0.4-0.1 0.5h0.1l0.8 0.3c0.1 0 0.1 0.1 0.1 0.1 0 0.1 0 0.1-0.1 0.1l-1 0.4-0.1 0.4h0.1l0.7 0.8c0.1 0 0.1 0.1 0.1 0.1 0 0.1 0 0.1-0.1 0.1l-1 0.4-0.1 0.5h0.1l0.8 0.3c0.1 0 0.1 0.1 0.1 0.1 0 0.1 0 0.1-0.1 0.1l-1 0.4-0.1 0.5h0.1l0.8 0.3c0.1 0 0.1 0.1 0.1 0.1 0 0.1 0 0.1-0.1 0.1l-1 0.4-0.1 0.5h0.1l0.8 0.3c0.1 0 0.1 0.1 0.1 0.1 0 0.1 0 0.1-0.1 0.1l-1 0.4-0.1 0.5h0.1l0.8 0.3c0.1 0 0.1 0.1 0.1 0.1 0 0.1 0 0.1-0.1 0.1l-1 0.4-0.1 0.5h0.1l0.8 0.3v0.5c0 0.1 0 0.1-0.1 0.1l-1 0.4v0.4h0.1l0.8 0.4v0.1c0 0.1 0 0.1-0.1 0.1l-1 0.4v0.5h0.1l0.8 0.3c0.1 0 0.1 0.1 0.1 0.1 0 0.1 0 0.1-0.1 0.1l-1 0.4-0.1 0.6h0.1l0.8 0.3v0.2c0 0.1 0 0.1-0.1 0.1l-1 0.4-0.1 0.5h0.1l0.8 0.3c0.1 0 0.1 0.1 0.1 0.1 0 0.1 0 0.1-0.1 0.1l-1 0.4-0.1 0.6h0.1l0.8 0.3c0.1 0 0.1 0.1 0.1 0.1 0 0.1 0 0.1-0.1 0.1l-1 0.4-0.1 0.5h0.1l0.8 0.3c0.1 0 0.1 0.1 0.1 0.1 0 0.1 0 0.1-0.1 0.1l-1 0.4-0.1 0.5h0.1l0.8 0.3c0.1 0 0.1 0.1 0.1 0.1 0 0.1 0 0.1-0.1 0.1l-1 0.4-0.2 1.1c0 0.4-0.2 0.6-0.3 0.5h-0.1v0.1c0 0.1-0.1 0.3-0.3 0.3 0 0.1-0.2 0.2-0.3 0.2l-17.7-2.5c-0.2 0-0.3-0.2-0.3-0.3l3.4-23.7c0.1-0.3 0.2-0.4 0.3-0.4" fill="#757575"/>
    </g>
   </g>
   <path class="st66" d="m120.6 58.1-3.4 23.7c0 0.2 0.1 0.3 0.3 0.3l17.7 2.5c0.2 0 0.3-0.1 0.3-0.3v-0.3l-17.4-2.5c-0.2 0-0.3-0.2-0.3-0.3l3.4-23.4h-0.3c-0.2 0-0.3 0.1-0.3 0.3" fill="#804508"/>
   <path class="st64" d="m120.8 57.9-3.4 23.7c0 0.2 0.1 0.3 0.3 0.3l17.7 2.5c0.2 0 0.3-0.1 0.3-0.3v-0.3l-17.4-2.5c-0.2 0-0.3-0.2-0.3-0.3l3.4-23.4h-0.3c-0.1 0-0.2 0.1-0.3 0.3" fill="#ede6d8"/>
   <path class="st67" d="m119 60 3.8 0.6 0.2-1.2-3.8-0.6z" fill="#24afff"/>
   <path class="st67" d="m116.7 76.2 3.8 0.6 0.2-1.2-3.8-0.6z" fill="#24afff"/>
   <path class="st68" d="m116.1 79.8 3.8 0.6 0.2-1.2-3.8-0.6z" fill="#00e62e"/>
   <path class="st69" d="m118.7 62.2 3.8 0.6 0.2-1.2-3.8-0.6z" fill="#ffed24"/>
   <path class="st69" d="m116.9 74.3 3.8 0.6 0.2-1.2-3.8-0.6z" fill="#ffed24"/>
   <path class="st68" d="m118.4 64 3.8 0.6 0.2-1.2-3.8-0.6z" fill="#00e62e"/>
   <path class="st70" d="m117.7 69.2 3.8 0.6 0.2-1.2-3.8-0.6z" fill="#ff73a5"/>
   <path class="st71" d="m121.3 57.6-3.4 23.7c0 0.2 0.1 0.3 0.3 0.3l17.7 2.5c0.2 0 0.3-0.1 0.3-0.3l3.4-23.7c0-0.2-0.1-0.3-0.3-0.3l-17.7-2.5c-0.2 0-0.3 0.1-0.3 0.3" fill="#d6750d"/>
   <g fill="#804508">
    <path class="st66" d="m138 60.9c0 0.2 0.1 0.5 0.4 0.5 0.2 0 0.5-0.1 0.5-0.4 0-0.2-0.1-0.5-0.4-0.5-0.2 0-0.4 0.2-0.5 0.4"/>
    <path class="st66" d="m137.8 62.4c0 0.2 0.1 0.5 0.4 0.5 0.2 0 0.5-0.1 0.5-0.4 0-0.2-0.1-0.5-0.4-0.5-0.2 0-0.4 0.2-0.5 0.4"/>
    <path class="st66" d="m137.6 63.9c0 0.2 0.1 0.5 0.4 0.5 0.2 0 0.5-0.1 0.5-0.4 0-0.2-0.1-0.5-0.4-0.5-0.2 0-0.4 0.1-0.5 0.4"/>
    <path class="st66" d="m137.4 65.3c0 0.2 0.1 0.5 0.4 0.5 0.2 0 0.5-0.1 0.5-0.4 0-0.2-0.1-0.5-0.4-0.5-0.2 0-0.5 0.2-0.5 0.4"/>
    <path class="st66" d="m137.2 66.8c0 0.2 0.1 0.5 0.4 0.5 0.2 0 0.5-0.1 0.5-0.4 0-0.2-0.1-0.5-0.4-0.5-0.2 0-0.5 0.2-0.5 0.4"/>
    <path class="st66" d="m137 68.3c0 0.2 0.1 0.5 0.4 0.5 0.2 0 0.5-0.1 0.5-0.4 0-0.2-0.1-0.5-0.4-0.5s-0.5 0.1-0.5 0.4"/>
    <path class="st66" d="m136.8 69.8c0 0.2 0.1 0.5 0.4 0.5 0.2 0 0.5-0.1 0.5-0.4 0-0.2-0.1-0.5-0.4-0.5s-0.5 0.1-0.5 0.4"/>
    <path class="st66" d="m136.6 71.2c0 0.2 0.1 0.5 0.4 0.5 0.2 0 0.5-0.1 0.5-0.4 0-0.2-0.1-0.5-0.4-0.5s-0.5 0.2-0.5 0.4"/>
    <path class="st66" d="m136.4 72.7c0 0.2 0.1 0.5 0.4 0.5 0.2 0 0.5-0.1 0.5-0.4 0-0.2-0.1-0.5-0.4-0.5s-0.5 0.2-0.5 0.4"/>
    <path class="st66" d="m136.1 74.2c0 0.2 0.1 0.5 0.4 0.5 0.2 0 0.5-0.1 0.5-0.4 0-0.2-0.1-0.5-0.4-0.5-0.2 0-0.4 0.1-0.5 0.4"/>
    <path class="st66" d="m135.9 75.6c0 0.2 0.1 0.5 0.4 0.5 0.2 0 0.5-0.1 0.5-0.4 0-0.2-0.1-0.5-0.4-0.5-0.2 0-0.4 0.2-0.5 0.4"/>
    <path class="st66" d="m135.7 77.1c0 0.2 0.1 0.5 0.4 0.5 0.2 0 0.5-0.1 0.5-0.4 0-0.2-0.1-0.5-0.4-0.5-0.2 0-0.4 0.2-0.5 0.4"/>
    <path class="st66" d="m135.5 78.6c0 0.2 0.1 0.5 0.4 0.5 0.2 0 0.5-0.1 0.5-0.4 0-0.2-0.1-0.5-0.4-0.5-0.2 0-0.5 0.2-0.5 0.4"/>
    <path class="st66" d="m135.3 80.1c0 0.2 0.1 0.5 0.4 0.5 0.2 0 0.5-0.1 0.5-0.4 0-0.2-0.1-0.5-0.4-0.5s-0.5 0.1-0.5 0.4"/>
    <path class="st66" d="m135.1 81.5c0 0.2 0.1 0.5 0.4 0.5s0.5-0.1 0.5-0.4c0-0.2-0.1-0.5-0.4-0.5s-0.5 0.2-0.5 0.4"/>
    <path class="st66" d="m134.9 83c0 0.2 0.1 0.5 0.4 0.5 0.2 0 0.5-0.1 0.5-0.4 0-0.2-0.1-0.5-0.4-0.5s-0.5 0.2-0.5 0.4"/>
   </g>
   <g fill="#bfbfbf">
    <path class="st72" d="m135.5 83.3c0.1 0 0.1 0 0.2-0.1 0-0.1 0-0.2-0.1-0.2l1.7-0.7c0.1 0 0.1-0.1 0.1-0.1 0-0.1 0-0.1-0.1-0.1l-0.8-0.3c-0.1 0-0.2 0-0.2 0.1s0 0.2 0.1 0.2l0.4 0.2-1.7 0.7c-0.1 0-0.1 0.1-0.1 0.1 0 0.1 0 0.1 0.1 0.1l0.4 0.1c-0.1 0 0 0 0 0"/>
    <path class="st72" d="m135.7 81.8c0.1 0 0.1 0 0.2-0.1 0-0.1 0-0.2-0.1-0.2l1.7-0.7c0.1 0 0.1-0.1 0.1-0.1 0-0.1 0-0.1-0.1-0.1l-0.8-0.3c-0.1 0-0.2 0-0.2 0.1s0 0.2 0.1 0.2l0.4 0.2-1.7 0.7c-0.1 0-0.1 0.1-0.1 0.1 0 0.1 0 0.1 0.1 0.1l0.4 0.1"/>
    <path class="st72" d="m135.9 80.4c0.1 0 0.1 0 0.2-0.1 0-0.1 0-0.2-0.1-0.2l1.7-0.7c0.1 0 0.1-0.1 0.1-0.1 0-0.1 0-0.1-0.1-0.1l-0.8-0.3c-0.1 0-0.2 0-0.2 0.1s0 0.2 0.1 0.2l0.4 0.2-1.7 0.7c-0.1 0-0.1 0.1-0.1 0.1 0 0.1 0 0.1 0.1 0.1l0.4 0.1"/>
    <path class="st72" d="m136.1 78.9c0.1 0 0.1 0 0.2-0.1 0-0.1 0-0.2-0.1-0.2l1.7-0.7c0.1 0 0.1-0.1 0.1-0.1 0-0.1 0-0.1-0.1-0.1l-0.8-0.3c-0.1 0-0.2 0-0.2 0.1s0 0.2 0.1 0.2l0.4 0.2-1.7 0.7c-0.1 0-0.1 0.1-0.1 0.1 0 0.1 0 0.1 0.1 0.1l0.4 0.1"/>
    <path class="st72" d="m136.3 77.4c0.1 0 0.1 0 0.2-0.1 0-0.1 0-0.2-0.1-0.2l1.7-0.7c0.1 0 0.1-0.1 0.1-0.1 0-0.1 0-0.1-0.1-0.1l-0.8-0.3c-0.1 0-0.2 0-0.2 0.1s0 0.2 0.1 0.2l0.4 0.2-1.7 0.7c-0.1 0-0.1 0.1-0.1 0.1 0 0.1 0 0.1 0.1 0.1l0.4 0.1"/>
    <path class="st72" d="m136.5 75.9c0.1 0 0.1 0 0.2-0.1 0-0.1 0-0.2-0.1-0.2l1.7-0.7c0.1 0 0.1-0.1 0.1-0.1 0-0.1 0-0.1-0.1-0.1l-0.8-0.3c-0.1 0-0.2 0-0.2 0.1s0 0.2 0.1 0.2l0.4 0.2-1.7 0.7c-0.1 0-0.1 0.1-0.1 0.1 0 0.1 0 0.1 0.1 0.1l0.4 0.1"/>
    <path class="st72" d="m136.8 74.4c0.1 0 0.1 0 0.2-0.1 0-0.1 0-0.2-0.1-0.2l1.7-0.7c0.1 0 0.1-0.1 0.1-0.1 0-0.1 0-0.1-0.1-0.1l-0.8-0.3c-0.1 0-0.2 0-0.2 0.1s0 0.2 0.1 0.2l0.4 0.2-1.7 0.7c-0.1 0-0.1 0.1-0.1 0.1 0 0.1 0 0.1 0.1 0.1l0.4 0.1c-0.1 0-0.1 0 0 0"/>
    <path class="st72" d="m137 73c0.1 0 0.1 0 0.2-0.1 0-0.1 0-0.2-0.1-0.2l1.7-0.7c0.1 0 0.1-0.1 0.1-0.1 0-0.1 0-0.1-0.1-0.1l-0.8-0.3c-0.1 0-0.2 0-0.2 0.1s0 0.2 0.1 0.2l0.4 0.2-1.7 0.7c-0.1 0-0.1 0.1-0.1 0.1 0 0.1 0 0.1 0.1 0.1l0.4 0.1c-0.1 0-0.1 0 0 0"/>
    <path class="st72" d="m137.2 71.6c0.1 0 0.1 0 0.2-0.1 0-0.1 0-0.2-0.1-0.2l1.7-0.7c0.1 0 0.1-0.1 0.1-0.1 0-0.1 0-0.1-0.1-0.1l-0.8-0.3c-0.1 0-0.2 0-0.2 0.1s0 0.2 0.1 0.2l0.4 0.2-1.7 0.7c-0.1 0-0.1 0.1-0.1 0.1 0 0.1 0 0.1 0.1 0.1l0.4 0.1c-0.1 0 0 0 0 0"/>
    <path class="st72" d="m137.4 70.1c0.1 0 0.1 0 0.2-0.1 0-0.1 0-0.2-0.1-0.2l1.7-0.7c0.1 0 0.1-0.1 0.1-0.1 0-0.1 0-0.1-0.1-0.1l-0.8-0.3c-0.1 0-0.2 0-0.2 0.1s0 0.2 0.1 0.2l0.4 0.2-1.7 0.7c-0.1 0-0.1 0.1-0.1 0.1 0 0.1 0 0.1 0.1 0.1l0.4 0.1"/>
    <path class="st72" d="m137.6 68.6c0.1 0 0.1 0 0.2-0.1 0-0.1 0-0.2-0.1-0.2l1.7-0.7c0.1 0 0.1-0.1 0.1-0.1 0-0.1 0-0.1-0.1-0.1l-0.8-0.3c-0.1 0-0.2 0-0.2 0.1s0 0.2 0.1 0.2l0.4 0.2-1.7 0.7c-0.1 0-0.1 0.1-0.1 0.1 0 0.1 0 0.1 0.1 0.1l0.4 0.1"/>
    <path class="st72" d="m137.8 67.1c0.1 0 0.1 0 0.2-0.1 0-0.1 0-0.2-0.1-0.2l1.7-0.7c0.1 0 0.1-0.1 0.1-0.1 0-0.1 0-0.1-0.1-0.1l-0.8-0.3c-0.1 0-0.2 0-0.2 0.1s0 0.2 0.1 0.2l0.4 0.2-1.7 0.7c-0.1 0-0.1 0.1-0.1 0.1 0 0.1 0 0.1 0.1 0.1l0.4 0.1"/>
    <path class="st72" d="m138 65.6c0.1 0 0.1 0 0.2-0.1 0-0.1 0-0.2-0.1-0.2l1.7-0.7c0.1 0 0.1-0.1 0.1-0.1 0-0.1 0-0.1-0.1-0.1l-0.8-0.3c-0.1 0-0.2 0-0.2 0.1s0 0.2 0.1 0.2l0.4 0.2-1.7 0.7c-0.1 0-0.1 0.1-0.1 0.1 0 0.1 0 0.1 0.1 0.1l0.4 0.1"/>
    <path class="st72" d="m138.2 64.2c0.1 0 0.1 0 0.2-0.1 0-0.1 0-0.2-0.1-0.2l1.7-0.7c0.1 0 0.1-0.1 0.1-0.1 0-0.1 0-0.1-0.1-0.1l-0.8-0.3c-0.1 0-0.2 0-0.2 0.1s0 0.2 0.1 0.2l0.4 0.2-1.7 0.7c-0.1 0-0.1 0.1-0.1 0.1 0 0.1 0 0.1 0.1 0.1l0.4 0.1"/>
    <path class="st72" d="m138.4 62.7c0.1 0 0.1 0 0.2-0.1 0-0.1 0-0.2-0.1-0.2l1.7-0.7c0.1 0 0.1-0.1 0.1-0.1 0-0.1 0-0.1-0.1-0.1l-0.8-0.3c-0.1 0-0.2 0-0.2 0.1s0 0.2 0.1 0.2l0.4 0.2-1.7 0.7c-0.1 0-0.1 0.1-0.1 0.1 0 0.1 0 0.1 0.1 0.1l0.4 0.1"/>
    <path class="st72" d="m138.6 61.2c0.1 0 0.1 0 0.2-0.1 0-0.1 0-0.2-0.1-0.2h0.1c0.1 0 0.1-0.1 0.1-0.2s-0.1-0.1-0.2-0.1l-0.4 0.2c-0.1 0-0.1 0.1-0.1 0.1 0 0.1 0 0.1 0.1 0.1l0.3 0.2"/>
   </g>
   <g transform="matrix(1.4238 0 0 1.4238 -53.791 -28.028)">
    <path class="st66" d="m123.4 68.1 8.9 1.3 0.8-5.3-8.9-1.3z" fill="#804508"/>
    <path class="st64" d="m123.6 67.9 8.9 1.3 0.8-5.3-8.9-1.3z" fill="#ede6d8"/>
   </g>
  </g>
  <g transform="translate(-76,-40)">
   <g fill="#333">
    <path class="st145" d="m44.5 175.4 1.5 3.8-0.9 0.1-0.5-1.6c-0.2-0.4-0.3-0.9-0.4-1.3 0 0.4 0 0.9-0.1 1.4l-0.1 1.6-0.9 0.1-0.5-1.6c-0.2-0.4-0.3-0.8-0.4-1.3v1.4l-0.1 1.6-0.9 0.1 0.5-4 0.9-0.1 0.6 1.6c0.1 0.4 0.2 0.7 0.4 1.2 0-0.4 0-0.8 0.1-1.2l0.1-1.7z"/>
    <path class="st145" d="m36.8 178.5c-0.2-1.3 0.5-2.2 1.6-2.3 1.2-0.2 1.9 0.6 2.1 1.7 0.2 1.2-0.5 2.1-1.6 2.3-1.2 0.1-2-0.7-2.1-1.7zm2.8-0.5c-0.1-0.8-0.5-1.2-1.1-1.2-0.6 0.1-0.9 0.7-0.7 1.4 0.1 0.7 0.5 1.2 1.1 1.2 0.5 0 0.8-0.6 0.7-1.4z"/>
    <path class="st145" d="m36.5 180.4c-0.3 0.1-0.7 0.2-1.2 0.2-0.6 0.1-1 0.1-1.3-0.1s-0.4-0.4-0.5-0.8c-0.1-0.5 0.2-0.9 0.6-1.1-0.3-0.1-0.5-0.3-0.6-0.7-0.2-0.4-0.4-0.9-0.5-1l0.9-0.1c0.1 0.1 0.2 0.4 0.4 0.9s0.4 0.6 0.7 0.5h0.3l-0.2-1.5 0.9-0.1zm-1.1-1.6h-0.3c-0.4 0.1-0.7 0.3-0.6 0.7s0.3 0.5 0.7 0.5c0.2 0 0.3-0.1 0.4-0.1z"/>
    <path class="st145" d="m33.1 180.9-0.9 0.1-0.2-1.7c-0.1 0.2-0.1 0.3-0.2 0.5l-0.7 1.4-1.1 0.2 1.1-1.8-1.7-2 1-0.1 1.2 1.5 0.3-0.5-0.2-1.3 0.9-0.1z"/>
    <path class="st145" d="m44.7 168.3 0.5 3.9-1 0.1-1-1.3c-0.3-0.4-0.6-0.8-0.8-1.2 0.1 0.5 0.2 1 0.3 1.6l0.2 1.1-0.8 0.1-0.5-3.9 0.9-0.1 1 1.4c0.3 0.4 0.6 0.8 0.9 1.3-0.1-0.5-0.2-1.1-0.3-1.7l-0.2-1.2z"/>
    <path class="st145" d="m37.5 171.3c-0.2-1.3 0.5-2.2 1.6-2.3 1.2-0.2 1.9 0.6 2.1 1.7 0.2 1.2-0.5 2.1-1.6 2.3-1.2 0.2-2-0.6-2.1-1.7zm2.8-0.4c-0.1-0.8-0.5-1.2-1.1-1.2-0.6 0.1-0.9 0.7-0.7 1.4 0.1 0.7 0.5 1.2 1.1 1.2 0.5-0.1 0.8-0.7 0.7-1.4z"/>
    <path class="st145" d="m36.5 172.6 1-0.1 0.1 0.7-3 0.4-0.1-0.7 1.1-0.1-0.4-3.1 0.9-0.1z"/>
    <path class="st145" d="m31.6 171.8 1.4-0.2-0.1-0.9-1.6 0.2-0.1-0.7 2.5-0.3 0.5 3.9-2.4 0.3-0.1-0.7 1.5-0.2-0.1-0.8-1.4 0.2z"/>
    <path class="st145" d="m30.7 171.2c-0.3-0.1-0.6-0.2-1-0.1s-0.6 0.3-0.6 0.5 0.2 0.4 0.7 0.5c0.7 0.1 1.1 0.4 1.2 1 0.1 0.7-0.4 1.2-1.3 1.4-0.4 0.1-0.8 0-1-0.1l0.1-0.7c0.2 0.1 0.5 0.1 0.8 0.1s0.5-0.3 0.5-0.5-0.3-0.3-0.8-0.4c-0.7-0.2-1.1-0.5-1.2-1-0.1-0.7 0.3-1.3 1.4-1.4 0.4-0.1 0.9 0 1.1 0.1z"/>
   </g>
  </g>
 </g>
</svg>
