<svg enable-background="new 0 0 4253.661 1017.313" version="1.1" viewBox="0 0 1e3 1e3" xmlns="http://www.w3.org/2000/svg">
 <path d="m961.6 290.13s-12.769-19.034-8.9673-28.901c3.8004-9.867 9.3799-7.406 9.3799-7.406l1.729-151.79-207.65 8.1907-294.29-0.14476-438.58-6.9649 5.7094 201.48 6.9203 25.903h-6.1856l5.156 181.93 0.68594 291.81-3.7165 89.65 773.58-7.5399 158.37 1.8251-3.3201-51.328-4.2198-72.488 5.3942-474.16z" fill="#fff" stroke="#808184" stroke-linejoin="round" stroke-miterlimit="10" stroke-width="2"/>
 <path d="m64.189 862.12 1.8941-70.08-5.9528-282.21v-375.02l464.72 0.81174 415.34-3.1117-7.1704 631.67 5.5469 96.732-157.21 2.9764z" fill="none" stroke="#808184" stroke-miterlimit="10" stroke-width="1.3529"/>
 <path d="m66.228 755.84c293.58 2.0427 573.25 0.61289 866.84 0.61289" fill="none" stroke="#808184" stroke-miterlimit="10" stroke-width="1.3529"/>
 <path d="m316.7 863.3-4.8162-107.33" fill="none" stroke="#808184" stroke-miterlimit="10" stroke-width="1.3529"/>
 <path d="m349.73 792.79v11.76h-1.1v-28.12h6.72q4.76 0 7.22 2.04 2.48 2.04 2.48 6.12 0 1.78-0.7 3.3-0.68 1.5-1.96 2.6-1.28 1.08-3.08 1.7-1.78 0.6-3.96 0.6zm0-0.9h5.62q1.98 0 3.56-0.56 1.6-0.56 2.7-1.54 1.12-0.98 1.72-2.32t0.6-2.88q0-3.56-2.14-5.42t-6.44-1.86h-5.62z"/>
 <path d="m369.88 804.55v-19.72h0.48q0.4 0 0.42 0.44l0.12 4.86q0.86-2.68 2.4-4.14 1.56-1.48 4.08-1.48 0.58 0 1.18 0.1 0.62 0.08 1.1 0.36l-0.12 0.62q-0.08 0.22-0.28 0.22-0.22 0-0.68-0.14-0.44-0.16-1.32-0.16-1.26 0-2.22 0.4-0.96 0.38-1.72 1.16-0.76 0.76-1.34 1.9-0.56 1.14-1.04 2.66v12.92z"/>
 <path d="m390.07 784.51q2.1 0 3.72 0.74 1.64 0.72 2.76 2.06 1.12 1.32 1.7 3.2t0.58 4.18-0.58 4.18q-0.58 1.86-1.7 3.18t-2.76 2.04q-1.62 0.7-3.72 0.7t-3.74-0.7q-1.62-0.72-2.74-2.04t-1.7-3.18q-0.58-1.88-0.58-4.18t0.58-4.18 1.7-3.2q1.12-1.34 2.74-2.06 1.64-0.74 3.74-0.74zm0 19.44q1.92 0 3.36-0.66t2.4-1.88q0.98-1.22 1.46-2.92t0.48-3.8-0.48-3.82-1.46-2.94q-0.96-1.24-2.4-1.9-1.44-0.68-3.36-0.68t-3.36 0.68q-1.44 0.66-2.42 1.9-0.96 1.22-1.44 2.94t-0.48 3.82 0.48 3.8 1.44 2.92q0.98 1.22 2.42 1.88t3.36 0.66z"/>
 <path d="m405.92 784.83v22.8q0 0.94-0.28 1.74t-0.84 1.38q-0.54 0.58-1.34 0.9-0.78 0.34-1.8 0.34-0.56 0-0.96-0.12-0.42-0.1-0.82-0.3l0.1-0.5q0.06-0.16 0.16-0.18 0.1 0 0.28 0.06t0.46 0.14q0.26 0.08 0.66 0.08 1.66 0 2.5-0.96t0.84-2.58v-22.8zm0.84-7.12q0 0.28-0.12 0.52t-0.32 0.44q-0.18 0.18-0.44 0.3-0.24 0.1-0.5 0.1-0.56 0-0.98-0.4-0.4-0.42-0.4-0.96 0-0.56 0.4-0.96 0.42-0.42 0.98-0.42 0.26 0 0.5 0.12 0.26 0.1 0.44 0.3 0.2 0.18 0.32 0.44 0.12 0.24 0.12 0.52z"/>
 <path d="m420.74 784.51q1.6 0 2.98 0.56 1.4 0.56 2.44 1.66 1.04 1.08 1.62 2.68 0.6 1.6 0.6 3.66 0 0.42-0.36 0.42h-14.94q-0.02 0.2-0.02 0.4t0 0.4q0 2.36 0.56 4.16t1.58 3.02 2.46 1.86q1.46 0.62 3.24 0.62 1.58 0 2.74-0.34 1.16-0.36 1.94-0.78t1.2-0.76q0.44-0.36 0.56-0.36 0.16 0 0.26 0.12l0.26 0.3q-0.4 0.5-1.12 0.98t-1.66 0.86q-0.92 0.36-2.02 0.58-1.08 0.24-2.22 0.24-2.02 0-3.66-0.7-1.62-0.72-2.78-2.06-1.14-1.34-1.76-3.28-0.62-1.96-0.62-4.46 0-2.16 0.58-3.94 0.6-1.8 1.72-3.1t2.74-2.02 3.68-0.72zm0.02 0.8q-1.68 0-3.02 0.54-1.32 0.54-2.28 1.52t-1.56 2.36q-0.58 1.38-0.76 3.06h14.28q0-1.78-0.52-3.16-0.5-1.4-1.4-2.36-0.88-0.96-2.1-1.46t-2.64-0.5z"/>
 <path d="m446.96 786.99q-0.06 0.06-0.12 0.12-0.06 0.04-0.16 0.04-0.16 0-0.5-0.28t-0.94-0.62-1.52-0.62-2.22-0.28q-1.84 0-3.28 0.66-1.42 0.64-2.42 1.86-0.98 1.22-1.5 2.94t-0.52 3.88q0 2.22 0.52 3.96 0.54 1.72 1.5 2.9 0.98 1.18 2.34 1.8 1.38 0.62 3.06 0.62 1.52 0 2.54-0.34 1.04-0.36 1.72-0.78 0.68-0.44 1.04-0.78 0.36-0.36 0.52-0.36t0.26 0.12l0.24 0.3q-0.36 0.5-1 0.98-0.62 0.48-1.46 0.86-0.82 0.36-1.84 0.58-1 0.24-2.14 0.24-1.9 0-3.44-0.68t-2.64-1.98q-1.08-1.3-1.68-3.18t-0.6-4.26q0-2.28 0.58-4.16 0.6-1.88 1.72-3.2 1.12-1.34 2.74-2.08t3.7-0.74q1.84 0 3.28 0.6 1.44 0.58 2.48 1.54z"/>
 <path d="m457.73 804.87q-1.84 0-2.88-1-1.04-1.02-1.04-3.26v-14.22h-3.08q-0.38 0-0.38-0.3v-0.36l3.46-0.14 0.3-7.6q0.02-0.12 0.1-0.22 0.08-0.12 0.22-0.12h0.44v7.94h6.52v0.8h-6.52v14.18q0 0.92 0.24 1.58 0.24 0.64 0.64 1.06t0.94 0.62q0.56 0.18 1.2 0.18 0.78 0 1.36-0.24 0.6-0.24 1.02-0.52t0.68-0.52 0.38-0.24q0.1 0 0.22 0.12l0.26 0.38q-0.34 0.42-0.8 0.76-0.44 0.34-0.98 0.6-0.54 0.24-1.12 0.38t-1.18 0.14z"/>
 <path d="m477.22 804.55v-19.72h0.5q0.38 0 0.4 0.4l0.12 3.42q1.38-1.9 3.28-3.02t4.18-1.12q1.64 0 2.86 0.52 1.24 0.5 2.04 1.46 0.82 0.94 1.22 2.32 0.42 1.38 0.42 3.12v12.62h-1.06v-12.62q0-1.54-0.34-2.76t-1.06-2.06q-0.7-0.86-1.76-1.3-1.06-0.46-2.5-0.46-2.16 0-4 1.14-1.84 1.12-3.24 3.12v14.94z"/>
 <path d="m511 804.55q-0.4 0-0.46-0.42l-0.2-2.9q-0.82 0.84-1.66 1.52-0.82 0.66-1.74 1.14-0.9 0.46-1.96 0.72t-2.34 0.26q-0.94 0-1.86-0.28t-1.66-0.88-1.2-1.54q-0.44-0.96-0.44-2.3 0-1.3 0.74-2.36 0.76-1.06 2.34-1.82 1.58-0.78 4-1.22 2.42-0.46 5.76-0.54v-2.34q0-2.96-1.28-4.6t-3.8-1.64q-1.5 0-2.58 0.44-1.08 0.42-1.8 0.96-0.72 0.52-1.16 0.96-0.42 0.42-0.64 0.42-0.2 0-0.36-0.22l-0.18-0.28q1.48-1.52 3.1-2.32t3.7-0.8q1.54 0 2.68 0.5 1.14 0.48 1.88 1.4 0.76 0.92 1.12 2.24 0.36 1.3 0.36 2.94v12.96zm-8.16-0.46q1.28 0 2.34-0.28 1.06-0.3 1.96-0.8t1.68-1.16q0.78-0.68 1.5-1.44v-5.72q-6.04 0.2-8.94 1.5-2.88 1.3-2.88 3.64 0 1.1 0.36 1.9 0.38 0.8 0.98 1.34 0.62 0.52 1.4 0.78 0.78 0.24 1.6 0.24z"/>
 <path d="m518.16 804.55v-19.72h0.5q0.38 0 0.4 0.4l0.12 3.32q1.16-1.84 2.72-2.94 1.58-1.1 3.48-1.1 2.26 0 3.58 1.36t1.72 3.82q0.3-1.32 0.92-2.28 0.64-0.98 1.48-1.62 0.84-0.66 1.84-0.96 1-0.32 2.06-0.32 1.42 0 2.56 0.5 1.16 0.48 1.96 1.42t1.22 2.32q0.44 1.38 0.44 3.18v12.62h-1.06v-12.62q0-3.2-1.38-4.88-1.36-1.7-3.9-1.7-1.12 0-2.16 0.42-1.02 0.4-1.82 1.24-0.78 0.82-1.26 2.06-0.48 1.22-0.48 2.86v12.62h-1.06v-12.62q0-3.14-1.24-4.86t-3.64-1.72q-1.8 0-3.3 1.12t-2.64 3.08v15z"/>
 <path d="m557.45 784.51q1.6 0 2.98 0.56 1.4 0.56 2.44 1.66 1.04 1.08 1.62 2.68 0.6 1.6 0.6 3.66 0 0.42-0.36 0.42h-14.94q-0.02 0.2-0.02 0.4t0 0.4q0 2.36 0.56 4.16t1.58 3.02 2.46 1.86q1.46 0.62 3.24 0.62 1.58 0 2.74-0.34 1.16-0.36 1.94-0.78t1.2-0.76q0.44-0.36 0.56-0.36 0.16 0 0.26 0.12l0.26 0.3q-0.4 0.5-1.12 0.98t-1.66 0.86q-0.92 0.36-2.02 0.58-1.08 0.24-2.22 0.24-2.02 0-3.66-0.7-1.62-0.72-2.78-2.06-1.14-1.34-1.76-3.28-0.62-1.96-0.62-4.46 0-2.16 0.58-3.94 0.6-1.8 1.72-3.1t2.74-2.02 3.68-0.72zm0.02 0.8q-1.68 0-3.02 0.54-1.32 0.54-2.28 1.52t-1.56 2.36q-0.58 1.38-0.76 3.06h14.28q0-1.78-0.52-3.16-0.5-1.4-1.4-2.36-0.88-0.96-2.1-1.46t-2.64-0.5z"/>
 <path d="m570.34 804.55m0-1.18q0-0.64 0.42-1.08 0.44-0.46 1.08-0.46t1.08 0.46q0.46 0.44 0.46 1.08t-0.46 1.08q-0.44 0.42-1.08 0.42t-1.08-0.42q-0.42-0.44-0.42-1.08zm0-16.44q0-0.64 0.42-1.08 0.44-0.46 1.08-0.46t1.08 0.46q0.46 0.44 0.46 1.08t-0.46 1.08q-0.44 0.42-1.08 0.42t-1.08-0.42q-0.42-0.44-0.42-1.08z"/>
 <path d="m612.8 800.37q0.08 0 0.22 0.1l0.42 0.44q-0.88 0.88-1.9 1.62-1.02 0.72-2.24 1.24t-2.68 0.8q-1.44 0.3-3.18 0.3-2.86 0-5.28-1-2.4-1.02-4.14-2.88-1.74-1.88-2.72-4.54t-0.98-5.96q0-3.22 0.98-5.86 0.98-2.66 2.76-4.54 1.8-1.9 4.28-2.94 2.5-1.04 5.5-1.04 2.82 0 5 0.86t4.06 2.48l-0.3 0.44q-0.08 0.14-0.32 0.14-0.12 0-0.42-0.22-0.28-0.22-0.76-0.54-0.46-0.34-1.14-0.72-0.66-0.4-1.56-0.72-0.9-0.34-2.04-0.56t-2.52-0.22q-2.72 0-5 0.94t-3.92 2.68-2.56 4.24q-0.9 2.48-0.9 5.58 0 3.16 0.9 5.66 0.92 2.48 2.54 4.22 1.62 1.72 3.82 2.64t4.78 0.92q1.62 0 2.9-0.22t2.34-0.66q1.08-0.44 1.98-1.08 0.92-0.64 1.82-1.46 0.14-0.14 0.26-0.14z"/>
 <path d="m625.62 784.51q2.1 0 3.72 0.74 1.64 0.72 2.76 2.06 1.12 1.32 1.7 3.2t0.58 4.18-0.58 4.18q-0.58 1.86-1.7 3.18t-2.76 2.04q-1.62 0.7-3.72 0.7t-3.74-0.7q-1.62-0.72-2.74-2.04t-1.7-3.18q-0.58-1.88-0.58-4.18t0.58-4.18 1.7-3.2q1.12-1.34 2.74-2.06 1.64-0.74 3.74-0.74zm0 19.44q1.92 0 3.36-0.66t2.4-1.88q0.98-1.22 1.46-2.92t0.48-3.8-0.48-3.82-1.46-2.94q-0.96-1.24-2.4-1.9-1.44-0.68-3.36-0.68t-3.36 0.68q-1.44 0.66-2.42 1.9-0.96 1.22-1.44 2.94t-0.48 3.82 0.48 3.8 1.44 2.92q0.98 1.22 2.42 1.88t3.36 0.66z"/>
 <path d="m640.19 804.55v-19.72h0.5q0.38 0 0.4 0.4l0.12 3.42q1.38-1.9 3.28-3.02t4.18-1.12q1.64 0 2.86 0.52 1.24 0.5 2.04 1.46 0.82 0.94 1.22 2.32 0.42 1.38 0.42 3.12v12.62h-1.06v-12.62q0-1.54-0.34-2.76t-1.06-2.06q-0.7-0.86-1.76-1.3-1.06-0.46-2.5-0.46-2.16 0-4 1.14-1.84 1.12-3.24 3.12v14.94z"/>
 <path d="m666.87 804.87q-1.84 0-2.88-1-1.04-1.02-1.04-3.26v-14.22h-3.08q-0.38 0-0.38-0.3v-0.36l3.46-0.14 0.3-7.6q0.02-0.12 0.1-0.22 0.08-0.12 0.22-0.12h0.44v7.94h6.52v0.8h-6.52v14.18q0 0.92 0.24 1.58 0.24 0.64 0.64 1.06t0.94 0.62q0.56 0.18 1.2 0.18 0.78 0 1.36-0.24 0.6-0.24 1.02-0.52t0.68-0.52 0.38-0.24q0.1 0 0.22 0.12l0.26 0.38q-0.34 0.42-0.8 0.76-0.44 0.34-0.98 0.6-0.54 0.24-1.12 0.38t-1.18 0.14z"/>
 <path d="m687.09 804.55q-0.4 0-0.46-0.42l-0.2-2.9q-0.82 0.84-1.66 1.52-0.82 0.66-1.74 1.14-0.9 0.46-1.96 0.72t-2.34 0.26q-0.94 0-1.86-0.28t-1.66-0.88-1.2-1.54q-0.44-0.96-0.44-2.3 0-1.3 0.74-2.36 0.76-1.06 2.34-1.82 1.58-0.78 4-1.22 2.42-0.46 5.76-0.54v-2.34q0-2.96-1.28-4.6t-3.8-1.64q-1.5 0-2.58 0.44-1.08 0.42-1.8 0.96-0.72 0.52-1.16 0.96-0.42 0.42-0.64 0.42-0.2 0-0.36-0.22l-0.18-0.28q1.48-1.52 3.1-2.32t3.7-0.8q1.54 0 2.68 0.5 1.14 0.48 1.88 1.4 0.76 0.92 1.12 2.24 0.36 1.3 0.36 2.94v12.96zm-8.16-0.46q1.28 0 2.34-0.28 1.06-0.3 1.96-0.8t1.68-1.16q0.78-0.68 1.5-1.44v-5.72q-6.04 0.2-8.94 1.5-2.88 1.3-2.88 3.64 0 1.1 0.36 1.9 0.38 0.8 0.98 1.34 0.62 0.52 1.4 0.78 0.78 0.24 1.6 0.24z"/>
 <path d="m707.27 786.99q-0.06 0.06-0.12 0.12-0.06 0.04-0.16 0.04-0.16 0-0.5-0.28t-0.94-0.62-1.52-0.62-2.22-0.28q-1.84 0-3.28 0.66-1.42 0.64-2.42 1.86-0.98 1.22-1.5 2.94t-0.52 3.88q0 2.22 0.52 3.96 0.54 1.72 1.5 2.9 0.98 1.18 2.34 1.8 1.38 0.62 3.06 0.62 1.52 0 2.54-0.34 1.04-0.36 1.72-0.78 0.68-0.44 1.04-0.78 0.36-0.36 0.52-0.36t0.26 0.12l0.24 0.3q-0.36 0.5-1 0.98-0.62 0.48-1.46 0.86-0.82 0.36-1.84 0.58-1 0.24-2.14 0.24-1.9 0-3.44-0.68t-2.64-1.98q-1.08-1.3-1.68-3.18t-0.6-4.26q0-2.28 0.58-4.16 0.6-1.88 1.72-3.2 1.12-1.34 2.74-2.08t3.7-0.74q1.84 0 3.28 0.6 1.44 0.58 2.48 1.54z"/>
 <path d="m718.04 804.87q-1.84 0-2.88-1-1.04-1.02-1.04-3.26v-14.22h-3.08q-0.38 0-0.38-0.3v-0.36l3.46-0.14 0.3-7.6q0.02-0.12 0.1-0.22 0.08-0.12 0.22-0.12h0.44v7.94h6.52v0.8h-6.52v14.18q0 0.92 0.24 1.58 0.24 0.64 0.64 1.06t0.94 0.62q0.56 0.18 1.2 0.18 0.78 0 1.36-0.24 0.6-0.24 1.02-0.52t0.68-0.52 0.38-0.24q0.1 0 0.22 0.12l0.26 0.38q-0.34 0.42-0.8 0.76-0.44 0.34-0.98 0.6-0.54 0.24-1.12 0.38t-1.18 0.14z"/>
 <text x="345.6557" y="839.05487" fill="#000000" font-family="sans-serif" font-size="40px" letter-spacing="0px" word-spacing="0px" style="line-height:1.25" xml:space="preserve"><tspan class="deployment-date" x="345.6557" y="839.05487" font-family="Roboto" font-size="26.667px" font-weight="200"></tspan></text>
 <path d="m87.322 775.65c2.2152 0.0435 21.711-1.763 28.398 1.173 6.6869 2.9359 5.7092 3.2238 9.7702 6.4673-0.64745-1.9182-0.0847-0.29843-1.3661-2.1148 4.6678 2.1825 11.377 5.2862 12.864 13.21 3.9432 3.2417 5.2744 4.9981 7.7808 11.357l-1.5562 26.034-3.5288-18.134s-4.4-3.8592-5.3069-7.638c-3.7688 0.30949-13.947-3.9209-17.059-2.2591-3.1122 1.6618-4.7925 3.0186-9.2888 1.12s-5.4585-1.45-10.408 1.0028c-3.4509 0.95377-11.848 5.185-11.848 5.185l-4.7468 20.435-1.246-26.601-6.0865-6.4459s0.84272-2.1452 4.1539-4.3333c3.3112-2.1881 5.3859-2.6351 5.3859-2.6351-3.4637-1.842-3.8391-2.9263-7.2065-4.5757 5.4874-6.0883 11.273-6.9188 14.063-6.7606-1.9248-1.0212-2.0887-2.3833-2.7688-4.4864z" fill="#231f20" stroke-width=".73135"/>
 <path d="m102.27 824.7c3.8141 1.0797 3.8802 0.56288 4.9638 0.6853-0.0153 0.85057-0.0698 2.0295-1.5683 2.2544-1.4985 0.22491-19.25-2.5674-21.71-1.0984 2.9844-6.0876 14.5-2.921 18.314-1.8413z" fill="#3e3734" stroke-width=".73135"/>
 <path d="m122.18 823.7c-3.6095 1.6327-4.3973 1.2553-5.481 1.3574 0.0153 0.70937 0.45769 1.8355 1.9562 2.0231 1.4985 0.18758 12.993-6.7832 21.322-1.059-1.4922-2.5385-4.6001-5.8624-8.3288-5.7242-3.7288 0.13817-7.3673 2.4524-9.4682 3.4027z" fill="#3e3734" stroke-width=".73135"/>
 <path d="m130.84 825.58c-5.2406 0.0341-10.291 1.6316-15.435 2.2703-2.1469 0.26661-4.3595 0.33201-6.51 0.0841-2.8593-0.32971-5.6276-1.2052-8.485-1.5977-2.5537-0.35055-5.1392-0.71678-7.7088-0.73134-4.4906-0.026-8.8337 1.345-13.236 2.0853 0 1.2556-0.26169 2.8674 0.39652 3.7501 0.67893 0.91027 1.8242 1.7427 2.1212 2.9764 0.7044 2.9256 1.7046 5.7934 2.9834 8.5428 0.62148 1.3361 1.7943 2.2676 3.1042 2.9092 3.1541 1.5452 6.8871 1.7724 10.347 1.2865 4.9276-0.69197 7.601-4.2973 9.6405-8.4167 0.76341-1.6745 0.84851-3.6072 1.8539-5.1375 0.59709-0.9089 1.9838-0.52631 2.9746-0.52969 0.99113-4e-3 1.8312 1.604 2.1386 2.6739 1.0884 3.7863 2.9033 7.8033 6.5102 9.7871 5.3861 2.9627 13.872 2.4085 17.366-2.9344 1.3678-2.0912 1.7453-4.6282 2.4315-6.9956 0.41775-1.4413 0.79109-3.1597 2.2765-3.9519 0.59945-0.31989 0.17883-1.5958 0.26721-2.3376 0.0964-0.80801 0.28249-1.523-0.8967-1.6815-2.0567-0.27702-4.0517-1.1191-6.1567-1.4042-1.9947-0.27021-3.949-0.66069-5.9843-0.64758zm-34.646 1.3453c1.4877-9e-3 2.969 0.097 4.415 0.39523 8.6151 1.7769 8.7892 5.2382 5.2427 12.394-2.89 5.8307-8.8765 7.2917-14.909 5.8941-2.7809-0.64421-4.6822-2.537-5.5791-5.1289-0.9465-2.7358-1.6625-5.6423-1.5003-8.5178 0.21717-3.8503 4.6833-4.3914 7.8812-4.7422 1.4675-0.16093 2.9617-0.28508 4.4493-0.29431zm31.456 0c1.4877 8e-3 2.982 0.13338 4.4495 0.29431 3.1978 0.35078 7.6643 0.89191 7.8812 4.7422 0.16207 2.8755-0.55386 5.782-1.5005 8.5178-0.89669 2.5919-2.7982 4.4847-5.5789 5.1289-6.032 1.3976-12.019-0.0634-14.909-5.8941-3.5465-7.1558-3.3721-10.617 5.243-12.394 1.4459-0.2982 2.9271-0.40431 4.4147-0.39523z" fill="#3d3e40"/>
 <path d="m289.33 776.57c-1.9727 0-3.7238 0.30349-5.2559 0.91211-1.5111 0.60867-2.7925 1.4287-3.8418 2.457-1.0283 1.0073-1.8157 2.1719-2.3613 3.4941s-0.81836 2.7062-0.81836 4.1543c0 1.8469 0.32597 3.3907 0.97656 4.6289 0.6506 1.2173 1.4995 2.2445 2.5488 3.084 1.0703 0.81847 2.2882 1.5012 3.6524 2.0469 1.3641 0.52469 2.7501 1.0168 4.1562 1.4785 1.4271 0.44072 2.8214 0.91428 4.1856 1.418 1.3641 0.48273 2.5718 1.0916 3.6211 1.8262 1.0703 0.73454 1.9314 1.647 2.582 2.7383 0.65059 1.0913 0.97461 2.4754 0.97461 4.1543 0 1.574-0.2727 3.0543-0.81836 4.4394-0.54567 1.3851-1.3432 2.603-2.3926 3.6524-1.0283 1.0284-2.2975 1.8465-3.8086 2.4551-1.5111 0.58762-3.2211 0.88086-5.1309 0.88085-1.3431 1e-5 -2.5508-0.12511-3.6211-0.37695-1.0494-0.27283-1.9823-0.5988-2.8008-0.97656-0.7975-0.39874-1.4905-0.81904-2.0781-1.2598-0.5876-0.4617-1.092-0.88005-1.5117-1.2578-0.41977-0.39875-0.76623-0.72471-1.0391-0.97656-0.25184-0.27283-0.45074-0.4082-0.59765-0.4082-0.1469 0-0.26175 0.03081-0.3457 0.09375-0.06297 0.04197-0.14702 0.11577-0.25196 0.2207l-0.41015 0.6289c0.77653 0.90247 1.5844 1.7103 2.4238 2.4238 0.86047 0.71358 1.7953 1.3225 2.8027 1.8262 1.0283 0.48269 2.1397 0.84972 3.3359 1.1016 1.2173 0.27282 2.5724 0.41015 4.0625 0.41015 2.1827 0 4.1243-0.33621 5.8242-1.0078 1.7209-0.6926 3.1685-1.6275 4.3438-2.8027 1.1962-1.1963 2.0984-2.5906 2.707-4.1856 0.6296-1.616 0.94335-3.3382 0.94335-5.1641 1e-5 -1.7839-0.32401-3.2725-0.9746-4.4688-0.6506-1.2173-1.5117-2.2362-2.582-3.0547-1.0703-0.81846-2.2882-1.489-3.6523-2.0137-1.3431-0.54569-2.7272-1.05-4.1543-1.5117-1.4271-0.48271-2.8234-0.97678-4.1875-1.4805-1.3431-0.50367-2.5488-1.1229-3.6191-1.8574s-1.9314-1.6367-2.582-2.707c-0.6506-1.0913-0.97656-2.4446-0.97656-4.0606 0-1.2593 0.23164-2.4546 0.69336-3.5879 0.46167-1.1543 1.1444-2.1732 2.0469-3.0547 0.9024-0.88144 2.0137-1.5744 3.3359-2.0781 1.3431-0.52467 2.8748-0.78711 4.5957-0.78711 1.6999 0 3.127 0.21112 4.2812 0.63086 1.1543 0.39872 2.0995 0.84983 2.834 1.3535 0.73452 0.50367 1.3005 0.96504 1.6992 1.3848 0.41974 0.39875 0.74571 0.59765 0.97656 0.59766 0.23086 0 0.40924-0.10459 0.53516-0.31446l0.37695-0.6914c-1.4901-1.5111-3.0955-2.6244-4.8164-3.3379-1.6999-0.71353-3.6621-1.0703-5.8867-1.0703zm-92.672 0.50586v27.639c0 2.3925 0.37923 4.6396 1.1348 6.7383 0.75553 2.0777 1.836 3.8923 3.2422 5.4453 1.4061 1.5531 3.1161 2.7812 5.1309 3.6836 2.0148 0.88147 4.2824 1.3223 6.8008 1.3223 2.5185 0 4.7738-0.4408 6.7676-1.3223 2.0147-0.9024 3.7247-2.1305 5.1309-3.6836 1.4271-1.553 2.5179-3.3676 3.2734-5.4453 0.75553-2.0987 1.1348-4.3457 1.1348-6.7383v-27.639h-1.7637v27.639c0 2.1827-0.33621 4.2289-1.0078 6.1387-0.6506 1.8888-1.6041 3.5372-2.8633 4.9434-1.2382 1.4061-2.7596 2.5175-4.5645 3.3359-1.7839 0.79754-3.8198 1.1973-6.1074 1.1973s-4.3338-0.39973-6.1387-1.1973c-1.8049-0.81846-3.3384-1.9298-4.5976-3.3359-1.2382-1.4271-2.1917-3.0961-2.8633-5.0059-0.65059-1.9098-0.97656-3.956-0.97656-6.1387v-27.576h-1.7324zm56.207 0.00195v44.262h1.7305v-44.262h-1.7305zm-95.16 0.00196v44.262h23.674v-1.5117h-21.943v-42.75h-1.7305z"/>
 <path d="m292.53 827.76c-2.8236 0-5.0042 0.72248-6.543 2.166-1.5229 1.4277-2.2832 3.5287-2.2832 6.3047s0.76034 4.8865 2.2832 6.3301c1.5387 1.4277 3.7194 2.1406 6.543 2.1406s5.0062-0.72053 6.5449-2.1641 2.3066-3.5464 2.3066-6.3066-0.76791-4.8612-2.3066-6.3047-3.7213-2.166-6.5449-2.166zm-80.857 0.28711v10.66c0 0.74554-0.14221 1.2765-0.42774 1.5938-0.26967 0.31726-0.69065 0.47461-1.2617 0.47461-0.57106 0-0.99962-0.15735-1.2852-0.47461-0.26968-0.31727-0.4043-0.84822-0.4043-1.5938v-0.19141h-4.9258v0.21485c0 0.64345 0.06519 1.2269 0.17969 1.7637h-8.8281v-2.498h7.6133v-3.7598h-7.6133v-2.2598h8.8984v-3.9258h-14.156v16.369h14.324v-3.0742c0.28937 0.77479 0.72738 1.4124 1.3184 1.9062 1.1739 0.96767 2.8558 1.4512 5.0449 1.4512s3.8635-0.4835 5.0215-1.4512c1.1739-0.96766 1.7598-2.4752 1.7598-4.5215v-10.684h-5.2578zm-47.992 0.00195-5.9727 16.371h5.3789l0.68945-2.3086h5.7344l0.68945 2.3086h19.109v-4.1875h-8.4004v-12.182h-5.2578v16.049l-5.8555-16.051h-6.1152zm58.561 0-5.9726 16.371h5.377l0.69141-2.3086h5.7344l0.68946 2.3086h10.283v-7.9473l6.877 7.9473h4.5918v-16.371h-4.8301v8.0664l-6.877-8.0664h-4.5918v16.055l-5.8574-16.055h-6.1152zm29.738 0v16.371h7.0918c5.7265 0 8.5898-2.7287 8.5898-8.1855 0-5.4569-2.8633-8.1836-8.5898-8.1836l-7.0918-0.00195zm16.414 0v16.371h5.2578v-5.9726h1.9512l2.9024 5.9726h5.9023l-3.6406-6.8535c1.0311-0.38074 1.8161-0.97421 2.3555-1.7832 0.53935-0.809 0.8086-1.7135 0.8086-2.7129 0-0.90413-0.21427-1.7385-0.64258-2.5-0.41247-0.7773-1.0382-1.3879-1.8789-1.832-0.82486-0.46003-1.8242-0.68945-2.998-0.68945h-10.018zm24.137 3.6367c1.1263 0 1.9834 0.3413 2.5703 1.0234 0.60279 0.68214 0.9043 1.6018 0.9043 2.7598v1.5234c0 1.158-0.30151 2.0776-0.9043 2.7598-0.58693 0.68214-1.444 1.0234-2.5703 1.0234s-1.9814-0.3413-2.5684-1.0234c-0.58693-0.68213-0.88086-1.6018-0.88086-2.7598v-1.5234c0-1.158 0.29393-2.0776 0.88086-2.7598 0.58693-0.68213 1.4421-1.0234 2.5684-1.0234zm-18.879 0.09961h3.4512c0.41247 0 0.76134 0.1422 1.0469 0.42773 0.28554 0.28557 0.42773 0.64201 0.42773 1.0703 0 0.42834-0.14219 0.79431-0.42773 1.0957-0.28556 0.28553-0.63444 0.42773-1.0469 0.42773h-3.4512v-3.0215zm-16.412 0.1914h1.7363c2.2049 0 3.3066 1.1813 3.3066 3.5449v1.4277c0 2.3636-1.1017 3.5449-3.3066 3.5449h-1.7363v-8.5176zm-90.631 0.64063h0.0957l1.7129 5.8301h-3.5469l1.7383-5.8301zm58.561 0h0.09375l1.7129 5.8301h-3.5449l1.7383-5.8301z"/>
 <path d="m380.28 574.52c-0.66687 4e-3 -1.4402 0.0171-2.3359 0.0117-4.0336-0.0242-7.6793 0.53997-10.316 1.5957-6.3115 2.5263-18.911 12.62-21.729 17.371-12.614 21.261-16.623 33.605-18.756 45.656-3.7198 16.906-13.739 45.076 7.1445 58.135 9.9758 2.7586 23.723-4.4726 34.379-9.9941 8.9022-5.7308 19.117-14.446 23.779-20.283 2.9234-3.6607 2.5364-4.7313-0.63281-1.752-1.0466 0.98394-3.0585 2.635-4.4707 3.6699-22.649 16.597-33.959 22.252-44.604 22.305-8.9602 0.0441-11.597-1.4078-14.197-7.8203-3.23-8.0928-0.86222-18.309 0.90235-27.834 0.57537-3.9321 1.2302-7.4062 1.4551-7.7187 0.22483-0.3125 1.0216-3.9272 1.7715-8.0332 2.6084-14.195 7.5499-30.285 17.637-44.414 2.9054-3.1978 13.604-16.908 26.443-17.365l2.8613 0.26367-1.1289 16.156c-1.9546 27.949-1.9552 27.86-0.36133 30.266 1.2421 1.8747 1.6661 2.047 2.8906 1.168 0.78906-0.56642 1.4852-1.7488 1.5469-2.627 3.6775-17.33 2.3501-19.078 2.6875-37.518-0.78122-10.803-0.29866-11.263-4.9668-11.238zm156.58-28.4c-0.67904-0.0434-1.3564 0.5694-1.7812 1.9219-4.9427 9.2114-6.0568 15.344-9.6133 26.42-0.31785 1.4064-1.1891 4.4548-1.9375 6.7734-1.201 3.72-1.7976 4.276-5.082 4.7285-2.0468 0.28185-4.8741 0.76883-6.3867 1.084-3.0679 0.63917-8.1508 1.133-11.199 3.7871-1.679 1.4617 5.4913 0.70944 13.389 0.43945l5.7031-0.19531c-0.95036 6.35-2.6754 12.169-4.084 18.682-0.69051 3.9004-2.2106 10.537-3.3789 14.746-1.5836 5.7052-2.9053 13.071-3.7773 28.949-0.64436 11.714-0.66899 15.798-1.4414 20.789-4.2269 4.6574-9.5489 11.587-13.189 12.449-2.1586-0.10492-3.087-9.6845-2.0547-21.184 0.86602-9.6458 0.75163-11.816-0.82031-15.553-1.005-2.388-2.241-5.6418-2.748-7.2305-1.1964-3.7496-2.3314-3.6986-5.6602 0.25195-3.1716 3.7644-6.9412 9.9762-11.516 20.99-0.32387 1.3508-1.8739 5.1641-3.4473 9.3535-2.7013 7.1918-2.8588 8.1055-2.75 4.2051 0.0626-2.2721 0.97796-7.1155 2.0332-10.762 2.4976-8.6277 3.3678-20.793 1.6504-23.08-0.71026-0.94566-2.3039-1.7698-3.543-1.8301-2.1402-0.10402-8.3454 3.3474-10.719 5.9629-1.5089 1.6629-7.728 5.55-8.7969 5.498-0.71651-2.4197-0.53463-2.8002-1.3262-6.0488-1.4423-5.9192-3.5748-10.737-5.5254-10.832-0.75282-0.0366-0.78802 0.37136-0.11133 1.2891 0.54393 0.7374 1.4774 3.3426 2.0762 5.7891 0.72424 2.905 1.7228 4.6798 2.0586 9.1016-0.55186 6.4003-4.567 10.838-13 14.371-10.152 4.2528-11.652 2.6709-6.3438-6.6914 3.4885-6.4843 4.194-10.101 7.7812-13.863 0.0298-0.61345-0.65179-1.4268-1.5137-1.8066-2.808-1.0105-6.7609 8.33-9.4746 14.666-0.65318 1.9766-1.6857 4.2682-2.2949 5.0918-1.8229 3.4879-1.2176 1.3179-2.0938-0.10352-1.5612-2.5334 1.4117-15.47 4.4062-19.174 1.0904-1.3487-0.13351-1.7375-1.8633-0.5918-2.0229 1.3402-5.0477 8.3234-5.9551 13.752-0.70152 4.1995-0.51878 6.2645 0.79883 9.0644 0.93842 1.9946 1.5455 4.783 1.3476 6.1953-1.6853 12.071-0.32931 17.746 4.7734 19.975 3.6388 1.5897 7.5859 0.0361 12.535-4.9336 4.2625-4.2806 8.1399-10.172 11.176-19.863 2.8641-7.5352 2.1788-8.9311 8.1602-14.186 6.6484-5.8406 13.757-10.16 14.465-8.791 1.6058 3.1055 1.047 13.136-1.1973 21.488-1.3498 5.0251-2.868 11.322-3.375 13.994-1.0183 5.4276-3.7e-4 -1e-3 -2.0332 11.543h2e-3c-0.27808 3.1148-0.0615 5.6865 0.48243 5.7129 0.54358 0.0264 3.2317-6.0112 5.9726-13.414 6.0861-16.438 9.7764-25.905 12.676-30.555 1.205-1.9321 3.5014-5.3469 4.3711-6.8574 2.4176-4.199 3.1833-4.0772 4.668 0.74414 3.3527 10.887 2.3252 14.336 2.0957 19.619-1.4155 7.8218-0.0843 15.473-0.29492 22.59 1.0066 4.4212 10.54-2.3546 15.555-8.584l3.4453-4.2793 2.0742 5.834c1.0687 2.916 3.0164 9.6517 9.2324 7.7578 3.3669-1.1752 8.3215-8.2521 8.3242-5.6699-1.3885 6.4037 3.0606 7.6649 7.4141 6.8672 8.6308-1.8928 11.859-7.0723 19.041-14.109 0.92286 3.6582 3.7238 5.1142 7.2266 5.3223 3.3285 0.19759 7.2669-2.5202 11.779-8.123l2.3223-2.8848 0.50391 5.1133c1.2815 13.023 9.5957 18.5 20.627 13.588 4.6767-2.0827 17.888-14.675 26.217-25.811 5.2096-7.4788 5.3737-7.9759 5.2734-4.2012-0.0189 0.71094-0.22917 4.8656-0.51562 9.2305-0.54761 8.3074 0.522 23.346 1.8281 25.709 1.5705 2.8408 6.1129 0.12595 15.922-9.5195 5.5229-5.431 9.5563-9.9007 8.9629-9.9297-0.59355-0.0289-5.2587 3.3519-10.365 7.5117-5.1067 4.1598-9.6605 7.6824-10.121 7.8262-1.6617 0.51923-2.1545-3.7997-2.3516-20.621l-0.19922-17.113 3.2109-4.9746c9.2548-14.334 17.095-31.545 20.094-44.102l1.375-5.752 8.3867-3.2988c4.6127-1.8148 8.4076-3.7709 8.4355-4.3457 0.0575-1.1851-4.5629-0.70499-10.783 1.1211-2.2364 0.65655-4.191 1.1889-4.3457 1.1816-0.15416-7e-3 0.46716-4.0079 0.5039-8.8867 0.0548-7.3032-0.99165-9.1431-2.5703-10.42-2.574-2.0812-2.8928-1.5171-1.2539 2.2109 1.1787 2.6843 1.4612 10.086 0.61719 16.193-0.16504 1.1947-0.49045 1.8648-4.5137 2.6914-2.346 0.48755-5.9121 1.2405-7.9238 1.6719-5.426 1.1636-5.5412 1.0731-4.6856-3.6504 1.5254-8.4239 3.6836-11.703 5.6816-14.979 3.5953-4.729 8.4668-5.8563 8.5254-7.0606 0.0738-1.5196-6.1814-0.3856-8.5371 1.5469-5.9007 5.0932-8.3237 13.931-10.291 24.15-0.0411 0.84513-0.30254 1.5446-3.7871 1.9629-3.0854 0.59213-3.456 0.34885-8.043 1.0781-8.5834 0.93833-8.2772 2.6492-4.3906 4.3613 1.2868 0.56695 10.327 0.48271 14.824-0.13867 0.28307-0.0389-0.32441 5.2772-0.61719 11.375-0.99986 10.82-2.2035 23.171-3.5879 33.123-2.2861 9.482-12.35 19.773-22.033 30.18-13.872 12.89-27.585 11.603-26.631-8.0176 0.26832-5.5201 1.0452-8.113 4.3164-14.377 2.3326-4.4743 5.0874-9.9547 9.6875-14.453 0.64089 1.2999 2.4431 16.263 4.6289 12.375 1.0481-2.4671-0.57766-15.75-2.1387-17.471-0.4825-0.53178-2.3486-0.0896-4.3008 1.0176-2.846 1.6424-10.404 16.003-14.021 24.354-2.2506 5.6845-10.116 19.468-18.521 15.539-2.5536-1.4124-2.7908-2.0022-2.168-5.3535 0.38471-2.0709 1.7379-6.7643 3.0078-10.432 1.9326-5.6942 2.3224-12.496 1.5215-18.998-0.14937-2.8512-0.71582-5.788-1.2598-6.5254-1.8204-2.4671-5.966-1.7213-9.5215 1.7129-9.5127 9.4331-14.396 20.135-20.812 32.49-4.0755 7.5465-9.4877 16.342-12.232 16.209-1.537-0.0747-3.6766-4.4121-4.834-9.8008-0.87044-4.0521-0.7702-5.8512 0.54687-9.7969 0.88771-2.6585 1.8794-5.9844 2.2031-7.3906 7.1045-22.417 12.999-40.442 16.139-58.678 0.50415-4.201 2.2609-9.8179 2.8574-12.971 3.5319-1.0398 3.971-1.1845 8.418-1.9863 4.4471-0.80188 11.568-2.1531 15.824-3.0039 4.2561-0.85081 8.5912-1.5058 9.6348-1.4551 1.0443 0.0508 1.9216-0.37201 1.9492-0.93945-0.7999-3.1638-22.599-0.80486-34.588 1.4434l1.8086-11.314c1.1506-7.8434 1.6345-15.631 1.8008-22.566-0.37907-1.141-0.9324-3.1075-2.0957-3.2363zm-0.69727 4.002c1.1459 0.24129 0.70384 5.6817 0.14453 10.646-0.61723 7.6564-1.9952 15.188-3.3242 22.721-2.6682 0.88635-4.5708 1.227-7.4395 1.5508l0.9668-3.9473c1.4015-5.64 3.8153-13.57 4.7676-16.533l4.6328-14.414c0.0909-0.0318 0.17556-0.0395 0.25195-0.0234zm-5.2559 39.213c-4.4826 25.166-10.737 50.443-18.393 70.994-3.405 9.1408-1.8337 2.1035-1.0684-10.117 1.0294-16.43 10.281-56.221 12.584-59.193 0.68233-0.6207 3.0056-1.0637 4.7969-1.3476 0.92449-0.14661 1.6135-0.36106 2.0801-0.33594zm122.27 11.246c0.13178-2e-3 0.21134 9e-3 0.23242 0.0332-4.1719 16.081-9.7109 28.403-17.545 42.217-0.76844 1.1429-1.9204 3.1066-3.3262 4.0488-0.53538-0.0223-0.43008-4.2907 0.25-10.064 0.64968-5.5141 1.7245-15.176 2.3867-21.473l1.2031-11.449 8.3613-1.8086c4.0241-0.87016 7.513-1.4862 8.4356-1.502zm-221.82 32.391c-1.3183-0.0641-5.6569 3.3906-8.9258 7.1074-1.3491 1.5336-1.2727 1.6982 0.68554 1.4961 1.2095-0.1249 3.3002-1.1402 4.6445-2.2559 1.344-1.1157 3.5275-2.3017 4.8535-2.6348 1.9375-0.48689 2.1868-0.90352 1.2695-2.125-0.6277-0.83584-1.7651-1.5509-2.5273-1.5879zm124.28 7.084c5.9467 8.98-0.81276 27.247-4.4375 34.475-5.9053 6.1284-9.8033 13.589-18.645 14.803-2.0711-0.10068-2.6514-4.6544-1.125-8.8438 3.6595-10.043 9.1129-22.093 13.488-27.512 5.0546-6.2613 10.069-12.964 10.719-12.922zm-135.88 0.62696c-0.2502-0.0121-0.76613 0.42615-1.1445 0.97656-0.37801 0.5504-0.19634 1.0255 0.40429 1.0547 0.60098 0.0292 1.1169-0.41111 1.1445-0.97852 0.0276-0.56742-0.15284-1.0405-0.4043-1.0527zm21.213 23.91c0.62928 0.0359 0.67205 0.7306 0.17187 2.0762-0.44126 1.1865-0.93774 2.6743-1.1074 3.3066-0.334 1.2534-1.4092 3.8754-3.1074 7.5781-0.5986 1.3052-2.295 3.8011-3.7676 5.5488-3.7074 4.4002-10.056 7.4096-12.951 6.1387-2.6918-1.1816-3.4267-4.192-2.666-10.906 0.53153-4.691 0.75238-5.0083 3.6777-5.2226 5.63-0.41261 9.8552-1.9979 14.318-5.373 2.8446-2.151 4.6225-3.1926 5.4316-3.1465z" stroke-width="1.0329"/>
</svg>
