<?xml version="1.0" encoding="UTF-8" standalone="no"?>
<svg
   xmlns:dc="http://purl.org/dc/elements/1.1/"
   xmlns:cc="http://creativecommons.org/ns#"
   xmlns:rdf="http://www.w3.org/1999/02/22-rdf-syntax-ns#"
   xmlns:svg="http://www.w3.org/2000/svg"
   xmlns="http://www.w3.org/2000/svg"
   xmlns:sodipodi="http://sodipodi.sourceforge.net/DTD/sodipodi-0.dtd"
   xmlns:inkscape="http://www.inkscape.org/namespaces/inkscape"
   enable-background="new 0 0 4253.661 1017.313"
   version="1.1"
   viewBox="0 0 1e3 1e3"
   id="svg16"
   sodipodi:docname="page-contact.svg"
   inkscape:version="0.92.4 (5da689c313, 2019-01-14)">
  <metadata
     id="metadata22">
    <rdf:RDF>
      <cc:Work
         rdf:about="">
        <dc:format>image/svg+xml</dc:format>
        <dc:type
           rdf:resource="http://purl.org/dc/dcmitype/StillImage" />
      </cc:Work>
    </rdf:RDF>
  </metadata>
  <defs
     id="defs20" />
  <sodipodi:namedview
     pagecolor="#ffffff"
     bordercolor="#666666"
     borderopacity="1"
     objecttolerance="10"
     gridtolerance="10"
     guidetolerance="10"
     inkscape:pageopacity="0"
     inkscape:pageshadow="2"
     inkscape:window-width="1600"
     inkscape:window-height="872"
     id="namedview18"
     showgrid="false"
     inkscape:zoom="0.236"
     inkscape:cx="500"
     inkscape:cy="500"
     inkscape:window-x="1920"
     inkscape:window-y="0"
     inkscape:window-maximized="1"
     inkscape:current-layer="svg16" />
  <path
     id="home-sheet"
     d="m961.6 290.13s-12.769-19.034-8.9673-28.901c3.8004-9.867 9.3799-7.406 9.3799-7.406l1.729-151.79-207.65 8.1907-294.29-0.14476-438.58-6.9649 5.7094 201.48 6.9203 25.903h-6.1856l5.156 181.93 0.68594 291.81-3.7165 89.65 773.58-7.5399 158.37 1.8251-3.3201-51.328-4.2198-72.488 5.3942-474.16z"
     fill="#fff"
     stroke="#808184"
     stroke-linejoin="round"
     stroke-miterlimit="10"
     stroke-width="2" />
  <path
     id="home-sheet-frame"
     d="m64.189 862.12 1.8941-70.08-5.9528-282.21v-375.02l464.72 0.81174 415.34-3.1117-7.1704 631.67 5.5469 96.732-157.21 2.9764z"
     fill="none"
     stroke="#808184"
     stroke-miterlimit="10"
     stroke-width="1.3529" />
  <path
     id="home-sheet-frame-line1"
     d="m66.228 755.84c293.58 2.0427 573.25 0.61289 866.84 0.61289"
     fill="none"
     stroke="#808184"
     stroke-miterlimit="10"
     stroke-width="1.3529" />
  <path
     id="home-sheet-frame-line2"
     d="m316.7 863.3-4.8162-107.33"
     fill="none"
     stroke="#808184"
     stroke-miterlimit="10"
     stroke-width="1.3529" />
  <text
     id="home-project-name"
     x="344.16904"
     y="804.54724"
     fill="#000000"
     font-family="sans-serif"
     font-size="40px"
     letter-spacing="0px"
     word-spacing="0px"
     style="line-height:1.25"
     xml:space="preserve"><tspan
       id="tspan10"
       x="344.16904"
       y="804.54724"
       font-family="Lato"
       font-weight="200">Project name: Home</tspan></text>
  <text
     id="home-deployment-date"
     x="345.6557"
     y="839.05487"
     fill="#000000"
     font-family="sans-serif"
     font-size="40px"
     letter-spacing="0px"
     word-spacing="0px"
     style="line-height:1.25"
     xml:space="preserve"><tspan
       id="tspan13"
       x="345.6557"
       y="839.05487"
       font-family="Lato"
       font-size="26.667px"
       font-weight="200">Deployment date: ##date##</tspan></text>
  <path
     id="home-logo-hair"
     d="m87.322 775.65c2.2152 0.0435 21.711-1.763 28.398 1.173 6.6869 2.9359 5.7092 3.2238 9.7702 6.4673-0.64745-1.9182-0.0847-0.29843-1.3661-2.1148 4.6678 2.1825 11.377 5.2862 12.864 13.21 3.9432 3.2417 5.2744 4.9981 7.7808 11.357l-1.5562 26.034-3.5288-18.134s-4.4-3.8592-5.3069-7.638c-3.7688 0.30949-13.947-3.9209-17.059-2.2591-3.1122 1.6618-4.7925 3.0186-9.2888 1.12s-5.4585-1.45-10.408 1.0028c-3.4509 0.95377-11.848 5.185-11.848 5.185l-4.7468 20.435-1.246-26.601-6.0865-6.4459s0.84272-2.1452 4.1539-4.3333c3.3112-2.1881 5.3859-2.6351 5.3859-2.6351-3.4637-1.842-3.8391-2.9263-7.2065-4.5757 5.4874-6.0883 11.273-6.9188 14.063-6.7606-1.9248-1.0212-2.0887-2.3833-2.7688-4.4864z"
     fill="#231f20"
     stroke-width=".73135" />
  <path
     id="home-logo-left-eyebrow"
     d="m102.27 824.7c3.8141 1.0797 3.8802 0.56288 4.9638 0.6853-0.0153 0.85057-0.0698 2.0295-1.5683 2.2544-1.4985 0.22491-19.25-2.5674-21.71-1.0984 2.9844-6.0876 14.5-2.921 18.314-1.8413z"
     fill="#3e3734"
     stroke-width=".73135" />
  <path
     id="home-logo-right-eyebrow"
     d="m122.18 823.7c-3.6095 1.6327-4.3973 1.2553-5.481 1.3574 0.0153 0.70937 0.45769 1.8355 1.9562 2.0231 1.4985 0.18758 12.993-6.7832 21.322-1.059-1.4922-2.5385-4.6001-5.8624-8.3288-5.7242-3.7288 0.13817-7.3673 2.4524-9.4682 3.4027z"
     fill="#3e3734"
     stroke-width=".73135" />
  <path
     id="home-logo-glasses"
     d="m130.84 825.58c-5.2406 0.0341-10.291 1.6316-15.435 2.2703-2.1469 0.26661-4.3595 0.33201-6.51 0.0841-2.8593-0.32971-5.6276-1.2052-8.485-1.5977-2.5537-0.35055-5.1392-0.71678-7.7088-0.73134-4.4906-0.026-8.8337 1.345-13.236 2.0853 0 1.2556-0.26169 2.8674 0.39652 3.7501 0.67893 0.91027 1.8242 1.7427 2.1212 2.9764 0.7044 2.9256 1.7046 5.7934 2.9834 8.5428 0.62148 1.3361 1.7943 2.2676 3.1042 2.9092 3.1541 1.5452 6.8871 1.7724 10.347 1.2865 4.9276-0.69197 7.601-4.2973 9.6405-8.4167 0.76341-1.6745 0.84851-3.6072 1.8539-5.1375 0.59709-0.9089 1.9838-0.52631 2.9746-0.52969 0.99113-4e-3 1.8312 1.604 2.1386 2.6739 1.0884 3.7863 2.9033 7.8033 6.5102 9.7871 5.3861 2.9627 13.872 2.4085 17.366-2.9344 1.3678-2.0912 1.7453-4.6282 2.4315-6.9956 0.41775-1.4413 0.79109-3.1597 2.2765-3.9519 0.59945-0.31989 0.17883-1.5958 0.26721-2.3376 0.0964-0.80801 0.28249-1.523-0.8967-1.6815-2.0567-0.27702-4.0517-1.1191-6.1567-1.4042-1.9947-0.27021-3.949-0.66069-5.9843-0.64758zm-34.646 1.3453c1.4877-9e-3 2.969 0.097 4.415 0.39523 8.6151 1.7769 8.7892 5.2382 5.2427 12.394-2.89 5.8307-8.8765 7.2917-14.909 5.8941-2.7809-0.64421-4.6822-2.537-5.5791-5.1289-0.9465-2.7358-1.6625-5.6423-1.5003-8.5178 0.21717-3.8503 4.6833-4.3914 7.8812-4.7422 1.4675-0.16093 2.9617-0.28508 4.4493-0.29431zm31.456 0c1.4877 8e-3 2.982 0.13338 4.4495 0.29431 3.1978 0.35078 7.6643 0.89191 7.8812 4.7422 0.16207 2.8755-0.55386 5.782-1.5005 8.5178-0.89669 2.5919-2.7982 4.4847-5.5789 5.1289-6.032 1.3976-12.019-0.0634-14.909-5.8941-3.5465-7.1558-3.3721-10.617 5.243-12.394 1.4459-0.2982 2.9271-0.40431 4.4147-0.39523z"
     fill="#3d3e40" />
  <path
     id="home-logo-luis"
     d="m289.33 776.57c-1.9727 0-3.7238 0.30349-5.2559 0.91211-1.5111 0.60867-2.7925 1.4287-3.8418 2.457-1.0283 1.0073-1.8157 2.1719-2.3613 3.4941s-0.81836 2.7062-0.81836 4.1543c0 1.8469 0.32597 3.3907 0.97656 4.6289 0.6506 1.2173 1.4995 2.2445 2.5488 3.084 1.0703 0.81847 2.2882 1.5012 3.6524 2.0469 1.3641 0.52469 2.7501 1.0168 4.1562 1.4785 1.4271 0.44072 2.8214 0.91428 4.1856 1.418 1.3641 0.48273 2.5718 1.0916 3.6211 1.8262 1.0703 0.73454 1.9314 1.647 2.582 2.7383 0.65059 1.0913 0.97461 2.4754 0.97461 4.1543 0 1.574-0.2727 3.0543-0.81836 4.4394-0.54567 1.3851-1.3432 2.603-2.3926 3.6524-1.0283 1.0284-2.2975 1.8465-3.8086 2.4551-1.5111 0.58762-3.2211 0.88086-5.1309 0.88085-1.3431 1e-5 -2.5508-0.12511-3.6211-0.37695-1.0494-0.27283-1.9823-0.5988-2.8008-0.97656-0.7975-0.39874-1.4905-0.81904-2.0781-1.2598-0.5876-0.4617-1.092-0.88005-1.5117-1.2578-0.41977-0.39875-0.76623-0.72471-1.0391-0.97656-0.25184-0.27283-0.45074-0.4082-0.59765-0.4082-0.1469 0-0.26175 0.03081-0.3457 0.09375-0.06297 0.04197-0.14702 0.11577-0.25196 0.2207l-0.41015 0.6289c0.77653 0.90247 1.5844 1.7103 2.4238 2.4238 0.86047 0.71358 1.7953 1.3225 2.8027 1.8262 1.0283 0.48269 2.1397 0.84972 3.3359 1.1016 1.2173 0.27282 2.5724 0.41015 4.0625 0.41015 2.1827 0 4.1243-0.33621 5.8242-1.0078 1.7209-0.6926 3.1685-1.6275 4.3438-2.8027 1.1962-1.1963 2.0984-2.5906 2.707-4.1856 0.6296-1.616 0.94335-3.3382 0.94335-5.1641 1e-5 -1.7839-0.32401-3.2725-0.9746-4.4688-0.6506-1.2173-1.5117-2.2362-2.582-3.0547-1.0703-0.81846-2.2882-1.489-3.6523-2.0137-1.3431-0.54569-2.7272-1.05-4.1543-1.5117-1.4271-0.48271-2.8234-0.97678-4.1875-1.4805-1.3431-0.50367-2.5488-1.1229-3.6191-1.8574s-1.9314-1.6367-2.582-2.707c-0.6506-1.0913-0.97656-2.4446-0.97656-4.0606 0-1.2593 0.23164-2.4546 0.69336-3.5879 0.46167-1.1543 1.1444-2.1732 2.0469-3.0547 0.9024-0.88144 2.0137-1.5744 3.3359-2.0781 1.3431-0.52467 2.8748-0.78711 4.5957-0.78711 1.6999 0 3.127 0.21112 4.2812 0.63086 1.1543 0.39872 2.0995 0.84983 2.834 1.3535 0.73452 0.50367 1.3005 0.96504 1.6992 1.3848 0.41974 0.39875 0.74571 0.59765 0.97656 0.59766 0.23086 0 0.40924-0.10459 0.53516-0.31446l0.37695-0.6914c-1.4901-1.5111-3.0955-2.6244-4.8164-3.3379-1.6999-0.71353-3.6621-1.0703-5.8867-1.0703zm-92.672 0.50586v27.639c0 2.3925 0.37923 4.6396 1.1348 6.7383 0.75553 2.0777 1.836 3.8923 3.2422 5.4453 1.4061 1.5531 3.1161 2.7812 5.1309 3.6836 2.0148 0.88147 4.2824 1.3223 6.8008 1.3223 2.5185 0 4.7738-0.4408 6.7676-1.3223 2.0147-0.9024 3.7247-2.1305 5.1309-3.6836 1.4271-1.553 2.5179-3.3676 3.2734-5.4453 0.75553-2.0987 1.1348-4.3457 1.1348-6.7383v-27.639h-1.7637v27.639c0 2.1827-0.33621 4.2289-1.0078 6.1387-0.6506 1.8888-1.6041 3.5372-2.8633 4.9434-1.2382 1.4061-2.7596 2.5175-4.5645 3.3359-1.7839 0.79754-3.8198 1.1973-6.1074 1.1973s-4.3338-0.39973-6.1387-1.1973c-1.8049-0.81846-3.3384-1.9298-4.5976-3.3359-1.2382-1.4271-2.1917-3.0961-2.8633-5.0059-0.65059-1.9098-0.97656-3.956-0.97656-6.1387v-27.576h-1.7324zm56.207 0.00195v44.262h1.7305v-44.262h-1.7305zm-95.16 0.00196v44.262h23.674v-1.5117h-21.943v-42.75h-1.7305z" />
  <path
     id="home-logo-alejandro"
     d="m292.53 827.76c-2.8236 0-5.0042 0.72248-6.543 2.166-1.5229 1.4277-2.2832 3.5287-2.2832 6.3047s0.76034 4.8865 2.2832 6.3301c1.5387 1.4277 3.7194 2.1406 6.543 2.1406s5.0062-0.72053 6.5449-2.1641 2.3066-3.5464 2.3066-6.3066-0.76791-4.8612-2.3066-6.3047-3.7213-2.166-6.5449-2.166zm-80.857 0.28711v10.66c0 0.74554-0.14221 1.2765-0.42774 1.5938-0.26967 0.31726-0.69065 0.47461-1.2617 0.47461-0.57106 0-0.99962-0.15735-1.2852-0.47461-0.26968-0.31727-0.4043-0.84822-0.4043-1.5938v-0.19141h-4.9258v0.21485c0 0.64345 0.06519 1.2269 0.17969 1.7637h-8.8281v-2.498h7.6133v-3.7598h-7.6133v-2.2598h8.8984v-3.9258h-14.156v16.369h14.324v-3.0742c0.28937 0.77479 0.72738 1.4124 1.3184 1.9062 1.1739 0.96767 2.8558 1.4512 5.0449 1.4512 2.1891 0 3.8635-0.4835 5.0215-1.4512 1.1739-0.96766 1.7598-2.4752 1.7598-4.5215v-10.684h-5.2578zm-47.992 0.00195-5.9727 16.371h5.3789l0.68945-2.3086h5.7344l0.68945 2.3086h5.4512 0.11719 13.541v-4.1875h-8.4004v-12.182h-5.2578v16.049l-5.8555-16.051h-6.1152zm58.561 0-5.9726 16.371h5.377l0.69141-2.3086h5.7344l0.68946 2.3086h5.5684 4.7148v-7.9473l6.877 7.9473h4.5918v-16.371h-4.8301v8.0664l-6.877-8.0664h-4.5918v16.055l-5.8574-16.055h-6.1152zm29.738 0v16.371h7.0918c5.7265 0 8.5898-2.7287 8.5898-8.1855 0-5.4569-2.8633-8.1836-8.5898-8.1836l-7.0918-0.00195zm16.414 0v16.371h5.2578v-5.9726h1.9512l2.9024 5.9726h5.9023l-3.6406-6.8535c1.0311-0.38074 1.8161-0.97421 2.3555-1.7832 0.53935-0.809 0.8086-1.7135 0.8086-2.7129 0-0.90413-0.21427-1.7385-0.64258-2.5-0.41247-0.7773-1.0382-1.3879-1.8789-1.832-0.82486-0.46003-1.8242-0.68945-2.998-0.68945h-10.018zm24.137 3.6367c1.1263 0 1.9834 0.3413 2.5703 1.0234 0.60279 0.68214 0.9043 1.6018 0.9043 2.7598v1.5234c0 1.158-0.30151 2.0776-0.9043 2.7598-0.58693 0.68214-1.444 1.0234-2.5703 1.0234-1.1263 0-1.9814-0.3413-2.5684-1.0234-0.58693-0.68213-0.88086-1.6018-0.88086-2.7598v-1.5234c0-1.158 0.29393-2.0776 0.88086-2.7598 0.58693-0.68213 1.4421-1.0234 2.5684-1.0234zm-18.879 0.09961h3.4512c0.41247 0 0.76134 0.1422 1.0469 0.42773 0.28554 0.28557 0.42773 0.64201 0.42773 1.0703 0 0.42834-0.14219 0.79431-0.42773 1.0957-0.28556 0.28553-0.63444 0.42773-1.0469 0.42773h-3.4512v-3.0215zm-16.412 0.1914h1.7363c2.2049 0 3.3066 1.1813 3.3066 3.5449v1.4277c0 2.3636-1.1017 3.5449-3.3066 3.5449h-1.7363v-8.5176zm-90.631 0.64063h0.0957l1.7129 5.8301h-3.5469l1.7383-5.8301zm58.561 0h0.09375l1.7129 5.8301h-3.5449l1.7383-5.8301z" />
  <path
     style="fill:#000000;stroke-width:1.14143479"
     d="m 347.86849,724.64042 c -8.0882,-2.50245 -11.6434,-5.63002 -14.6204,-12.86204 -2.3089,-5.6093 -2.6221,-8.22297 -2.5436,-21.23526 0.096,-15.91388 -0.132,-14.73966 9.7771,-50.22312 7.6019,-27.22015 8.8707,-31.54041 10.0582,-34.24305 11.6544,-26.52423 15.0701,-31.66365 28.1984,-42.42467 7.8063,-6.39856 10.6203,-7.64687 15.8513,-7.03152 2.9264,0.34421 3.3091,0.97357 4.7412,7.79382 0.9885,4.70735 1.2931,10.23561 0.8337,15.12402 -0.5511,5.8643 -0.3764,7.70468 0.7319,7.70468 0.8543,0 0.346,1.17982 -1.2245,2.85359 -1.4743,1.56947 -2.2754,2.85358 -1.78,2.85358 0.4958,0 0.1534,1.15571 -0.7594,2.56823 -0.9135,1.41253 -1.7375,4.70311 -1.8313,7.31239 -0.2176,6.04732 -1.965,10.66521 -4.0367,10.66521 -1.7261,0 -3.1233,-7.0963 -1.8146,-9.21388 0.4056,-0.65632 0.1998,-3.20643 -0.4565,-5.66693 -1.374,-5.14738 0.046,-10.80147 2.7159,-10.80147 1.043,0 1.8013,-1.30434 1.9904,-3.42431 0.1676,-1.88336 0.8635,-5.55918 1.5452,-8.16846 0.6816,-2.60928 0.8842,-6.84686 0.4501,-9.41684 -0.7644,-4.52422 -0.9292,-4.67268 -5.1874,-4.67268 -2.4192,0 -4.7156,0.51364 -5.1037,1.14143 -0.3881,0.62779 -1.8602,1.14144 -3.272,1.14144 -2.5882,0 -4.0057,1.62009 -15.3847,17.58327 -8.4252,11.81956 -12.1549,21.86119 -23.9944,64.60004 -7.6466,27.60196 -8.4966,32.61225 -7.8417,46.2281 0.8896,18.50245 5.7143,25.81444 18.1578,27.52003 9.7232,1.33273 24.9157,-4.47863 24.9157,-9.53066 0,-0.8733 2.5682,-6.24311 5.7072,-11.93291 3.1389,-5.68977 5.7071,-10.84181 5.7071,-11.44895 0,-1.65369 3.7832,-7.73401 4.8119,-7.73401 1.5602,0 0.9795,4.13689 -1.8723,13.33289 -1.522,4.90881 -3.4079,11.90249 -4.1901,15.54153 -1.2663,5.89008 -3.3152,9.90715 -3.3152,6.49968 0,-0.70758 -1.5973,-0.096 -3.5495,1.35945 -11.5278,8.59279 -23.0345,11.41913 -33.4151,8.20738 z m 128.416,-15.83434 c 0.16764,-4.18036 0.73836,-6.27789 1.70359,-6.27789 0.79722,0 1.82094,-0.60093 2.27466,-1.33541 0.56073,-0.90726 0.19262,-1.09331 -1.1425,-0.58024 -1.7521,0.67231 -1.8848,0.16123 -1.21135,-4.65712 0.41627,-2.97679 1.75531,-10.00953 2.97558,-15.62835 2.0289,-9.33972 2.10666,-20.43732 0.16765,-23.77887 -0.85537,-1.47384 -8.46838,3.6746 -15.4932,10.47787 -6.31998,6.12023 -9.98684,13.27721 -8.24615,16.0937 1.10327,1.78556 -6.79403,17.57103 -11.26917,22.52436 -5.19567,5.75076 -9.46891,7.67739 -13.57059,6.11802 -5.75172,-2.18689 -7.55312,-8.37649 -6.34062,-21.78974 0.1426,-1.56948 -0.6771,-4.61357 -1.8199,-6.76472 -1.6045,-3.01934 -1.9159,-5.29115 -1.3669,-9.9639 0.7102,-6.04062 3.6726,-13.9117 5.8335,-15.49944 1.8477,-1.35741 3.2213,-0.99386 2.0902,0.55324 -3.1065,4.2491 -5.6936,18.68946 -3.8345,21.4019 1.0433,1.52189 1.3005,1.52189 2.3153,0 0.6282,-0.94168 1.6448,-3.52578 2.2597,-5.74245 0.6146,-2.21666 1.88231,-5.04171 2.81686,-6.27789 0.93455,-1.23617 1.73212,-3.27488 1.77172,-4.53046 0.10701,-3.32275 3.00661,-6.68256 5.08188,-5.88616 0.97165,0.37292 1.76673,1.23332 1.76673,1.91201 0,2.05929 -3.40754,7.96917 -4.59499,7.96917 -0.61174,0 -1.11219,0.79095 -1.11219,1.75763 0,0.96669 -0.9613,3.66333 -2.13626,5.99254 -5.35685,10.61844 -3.61585,12.28515 7.36082,7.0465 9.11864,-4.35197 13.31163,-9.46553 13.57737,-16.55944 0.10344,-2.79722 -0.14981,-5.08584 -0.56394,-5.08584 -0.4152,0 -1.40289,-2.18299 -2.19476,-4.85109 -0.79223,-2.66811 -1.96363,-5.49316 -2.60355,-6.27789 -0.79615,-0.97664 -0.77938,-1.4268 0.0535,-1.4268 2.15802,0 4.75764,4.93778 6.1509,11.68394 0.74764,3.61846 1.79063,6.57902 2.31819,6.57902 1.18245,0 7.83844,-4.6237 9.41469,-6.54007 2.47906,-3.01413 9.14147,-7.15715 11.50923,-7.15715 1.37079,0 3.17498,0.82283 4.00965,1.82854 2.0182,2.43172 1.71072,15.90914 -0.5832,25.56589 -0.96915,4.08063 -1.71893,9.47391 -1.66614,11.98507 0.0892,4.31084 0.24969,4.08783 2.84538,-3.99502 1.51169,-4.70842 2.982,-9.79487 3.267,-11.3032 0.7562,-4.00273 8.28361,-19.46075 11.58235,-23.78575 3.46212,-4.53896 4.71092,-4.65535 6.2326,-0.58089 0.64491,1.72642 2.18477,5.25135 3.42216,7.83321 1.93544,4.03896 2.17836,6.42902 1.73997,17.12152 -0.52256,12.74782 1.01731,23.27089 3.4054,23.27089 1.63011,0 13.03233,-11.98307 13.03233,-13.69625 0,-0.70245 0.38524,-1.04103 0.85608,-0.75242 0.47084,0.28857 0.92421,-10.08244 1.00696,-23.04671 0.11058,-17.57243 0.64313,-25.75013 2.0849,-32.13214 1.06368,-4.70842 2.38596,-12.11333 2.93884,-16.45539 0.55253,-4.34201 1.35652,-8.708 1.78634,-9.70219 0.42983,-0.99416 0.99234,-3.90663 1.24988,-6.47211 l 0.46798,-4.66455 -6.28395,0.5211 c -8.70273,0.72171 -14.62392,-0.49581 -14.15879,-2.91141 0.42412,-2.20261 6.90033,-3.92104 11.38296,-3.02052 1.67399,0.33637 4.87964,0.26681 7.12363,-0.15409 3.60087,-0.67552 4.23044,-1.32111 5.35653,-5.49152 0.70163,-2.59929 1.50099,-6.01008 1.77636,-7.57955 0.67951,-3.87403 3.03729,-9.13149 4.09561,-9.13149 0.47441,0 0.8625,-0.85607 0.8625,-1.90241 0,-1.0463 0.28536,-1.61677 0.63492,-1.26771 0.34957,0.34921 -0.23542,3.90182 -1.29767,7.89496 -1.0626,3.99313 -2.31711,9.24412 -2.78759,11.66889 l -0.85572,4.40868 4.05815,-0.65857 c 2.23222,-0.36223 4.47728,-1.31882 4.98914,-2.12582 0.66382,-1.04577 0.93598,-1.07619 0.94847,-0.10594 0,0.82551 1.02836,1.12614 2.5857,0.76387 18.34179,-4.2665 36.24055,-6.16171 36.24055,-3.83732 0,0.62779 -0.94489,1.14143 -2.10024,1.14143 -1.15498,0 -5.90621,0.95513 -10.55827,2.12254 -4.6517,1.1674 -12.43878,3.04188 -17.30415,4.16552 -4.86536,1.12364 -8.92423,2.60828 -9.01983,3.29928 -0.39522,2.85623 -0.56537,3.64403 -1.257,5.82203 -0.39879,1.25558 -1.01338,4.8511 -1.36616,7.99004 -0.35313,3.13895 -0.85572,6.73447 -1.11753,7.99005 -0.26039,1.25558 -0.51579,3.01053 -0.56394,3.89989 -0.0499,0.88935 -0.36633,1.3379 -0.70769,0.99676 -0.34243,-0.34136 -0.0856,-4.92119 0.56358,-10.17782 2.36348,-19.07901 2.53755,-17.19643 -1.51276,-16.35077 -1.96184,0.40956 -4.15589,1.33512 -4.87571,2.05683 -3.37829,3.38732 -10.80689,47.50555 -11.06157,65.69567 -0.18905,13.52968 0.76084,16.52887 3.60979,11.3938 l 1.51204,-2.72549 -0.51257,2.85358 c -0.2818,1.56948 -1.19708,5.29341 -2.03426,8.2754 -1.24202,4.42585 -1.25664,6.41779 -0.0785,10.84363 1.56662,5.88563 4.16053,10.55828 5.86091,10.55828 3.03586,0 10.35817,-10.75161 12.63212,-18.54832 0.86998,-2.982 2.24006,-5.42181 3.04442,-5.42181 0.80471,0 1.52738,-0.51365 1.60585,-1.14144 0.0785,-0.62779 0.20689,-1.61228 0.28536,-2.18777 0.0785,-0.57546 0.52792,-1.43154 0.99876,-1.90238 0.47084,-0.47084 0.85607,-1.82808 0.85607,-3.01606 0,-1.18802 0.51365,-1.84257 1.14144,-1.45455 0.63135,0.39023 1.14143,-0.43885 1.14143,-1.8554 0,-2.99859 6.99165,-14.50136 12.15628,-19.99926 3.73963,-3.98114 8.27362,-5.02627 10.41524,-2.40083 0.63992,0.78474 1.42358,3.99502 1.7414,7.13397 0.31746,3.13895 0.79187,7.47576 1.05404,9.63735 0.26039,2.16159 -0.50901,7.29805 -1.71358,11.41434 -1.20492,4.1163 -2.44695,9.37118 -2.76048,11.67752 -0.50759,3.73225 -0.21402,4.36906 2.68023,5.791 3.39933,1.67071 7.24561,1.4635 7.24561,-0.39033 0,-0.59523 1.1557,-1.60975 2.56823,-2.25448 3.42787,-1.56466 7.08581,-7.3528 9.79565,-15.49943 2.34922,-7.0631 8.02785,-18.75781 9.67865,-19.93288 0.53969,-0.38409 0.93705,-1.02615 0.88354,-1.42679 -0.39022,-2.91505 0.35813,-4.21714 3.60551,-6.27315 2.09525,-1.32674 4.13342,-1.91411 4.69451,-1.35303 1.81524,1.81528 4.32318,16.38879 3.29875,19.16815 -1.05762,2.86832 -2.56467,1.31939 -2.56467,-2.63561 0,-2.41759 -0.46228,-3.77676 -1.14143,-3.35692 -0.67951,0.4198 -1.14144,-0.93937 -1.14144,-3.35696 0,-2.23429 -0.41733,-4.06237 -0.92705,-4.06237 -0.89068,0 -5.92155,6.19329 -5.92155,7.28974 0,0.29356 -1.79776,4.42559 -3.99503,9.18252 -3.27449,7.08899 -3.99502,9.99287 -3.99502,16.10012 0,21.70741 14.15058,25.22888 29.82498,7.422 3.44713,-3.91623 6.34495,-6.32733 6.77263,-5.6353 0.41092,0.66524 1.06082,-0.24434 1.44392,-2.02148 0.38345,-1.77707 2.31176,-5.02877 4.28537,-7.22603 7.89445,-8.78877 10.17803,-13.18068 10.19658,-19.61007 0,-3.33973 0.39486,-5.47756 0.85608,-4.75079 0.46121,0.72681 0.6606,-3.51077 0.44301,-9.41684 -0.21758,-5.90603 0.0392,-10.74018 0.57072,-10.74257 0.53148,-0.002 0.96202,-5.52405 0.95738,-12.27043 -0.004,-6.74634 -0.26039,-12.21859 -0.57072,-12.16049 -4.93028,0.9271 -14.90499,1.50602 -16.35569,0.94929 -4.38168,-1.68127 -1.30444,-5.04993 4.61247,-5.04993 2.44838,0 2.6788,0.26646 1.47923,1.71216 -0.78153,0.94168 -0.96808,1.71215 -0.41449,1.71215 0.5536,0 1.60836,-0.96348 2.34387,-2.14105 0.73515,-1.17757 3.17033,-2.48497 5.41076,-2.90531 2.37525,-0.44558 4.07421,-1.43296 4.07421,-2.36797 0,-0.88205 0.89887,-2.12728 1.99751,-2.76716 1.57482,-0.91732 1.6351,-1.1745 0.28535,-1.21563 -1.52203,-0.0464 -1.52203,-0.18691 0,-1.26303 1.2884,-0.91123 1.35903,-1.35414 0.28536,-1.78981 -0.78473,-0.31853 -1.42679,-1.3369 -1.42679,-2.26336 0,-0.99536 0.54611,-1.34678 1.33512,-0.85903 0.89817,0.55491 1.09685,0.20296 0.60675,-1.07409 -0.40093,-1.04467 -0.23186,-1.89939 0.37667,-1.89939 0.60817,0 1.10576,-0.55035 1.10576,-1.22297 0,-0.67263 0.77047,-1.99345 1.71216,-2.93513 0.94168,-0.94169 1.71215,-3.13677 1.71215,-4.87799 0,-1.74123 0.93241,-4.00987 2.07242,-5.04141 2.49653,-2.25932 9.34193,-3.84467 9.34193,-2.16352 0,1.33242 -7.57414,8.25098 -9.03303,8.25098 -1.81274,0 -4.23366,7.45653 -5.46534,16.83616 -0.69092,5.25945 -0.55966,5.3518 5.36689,3.77637 2.19726,-0.5841 6.09241,-1.60529 8.65564,-2.26928 3.08651,-0.79943 4.72126,-1.88455 4.83933,-3.21203 0.60389,-6.78605 -0.10701,-14.94146 -1.552,-17.84099 -2.00892,-4.02691 -1.68611,-4.66594 1.26664,-2.50695 1.81096,1.32421 2.27074,3.33874 2.60211,11.40258 0.22116,5.38683 0.54218,9.79423 0.71269,9.79423 0.17121,0 2.3007,-0.69107 4.73385,-1.5357 6.76767,-2.34928 11.8432,-3.12785 11.8432,-1.81673 0,0.63595 -4.08583,2.99762 -9.07965,5.24821 l -9.07972,4.09193 -1.20742,6.42296 c -2.636,14.02103 -10.36744,33.43591 -19.81353,49.75389 l -3.27877,5.66355 1.13965,18.8773 c 1.12004,18.55606 1.8955,23.29743 3.70182,22.63519 0.50045,-0.18335 5.33906,-4.31434 10.75232,-9.17971 5.41325,-4.86536 10.37956,-8.84611 11.03624,-8.84611 0.65668,0 -3.55557,5.14694 -9.36012,11.43763 -10.30894,11.1719 -15.17609,14.41308 -17.06195,11.36181 -1.5684,-2.53755 -3.55521,-19.08101 -3.39648,-28.27962 0.082,-4.83326 0.11414,-9.42982 0.0713,-10.21455 -0.15338,-2.71048 -1.99252,-1.40718 -5.63762,3.99502 -8.595,12.73816 -22.45702,28.26909 -27.50715,30.81874 -11.91159,6.01365 -21.38228,0.41459 -23.49537,-13.89051 l -0.82968,-5.61508 -2.40949,3.30895 c -4.67953,6.42613 -8.88215,9.63492 -12.56649,9.5954 -3.87731,-0.0417 -9.27665,-3.77512 -8.13379,-5.62424 0.39415,-0.63814 0.0499,-0.90006 -0.76904,-0.5821 -0.81755,0.31782 -3.38864,3.5224 -5.71395,7.12088 -5.96186,9.22707 -14.54616,17.35594 -19.51033,18.47551 -3.48173,0.78527 -4.45374,0.52866 -6.58323,-1.73776 -1.64794,-1.75432 -2.31675,-3.60637 -1.96576,-5.44315 0.52577,-2.74975 -0.56537,-3.27428 -3.27984,-1.5771 -1.59266,0.99579 -5.17035,-0.18905 -4.38882,-1.4533 0.30319,-0.49114 -0.27109,-0.82255 -1.2752,-0.73648 -1.12895,0.0967 -3.01766,-2.14889 -4.94419,-5.87874 l -3.11719,-6.03523 -3.05583,4.61721 c -4.87678,7.36935 -16.70847,14.6679 -16.70847,10.30683 0,-0.62778 0.47405,-1.14143 1.05369,-1.14143 0.57963,0 0.35313,-1.41253 -0.5058,-3.13895 -1.76815,-3.55735 -2.06849,-11.58905 -0.77939,-20.83118 0.87641,-6.28467 0.26396,-9.54204 -4.0207,-21.37886 -1.89728,-5.24179 -2.74836,-5.33539 -5.19139,-0.57107 -0.8789,1.71393 -2.6014,4.91402 -3.82773,7.11128 -2.95096,5.28748 -7.14574,16.62942 -12.98132,35.09912 -2.62815,8.3182 -5.27093,15.12401 -5.87233,15.12401 -0.60175,0 -0.97985,-2.82505 -0.84002,-6.27789 z m 81.79949,-2.25512 c 6.81829,-3.57875 10.01359,-6.3356 11.02055,-9.50829 0.43731,-1.3775 1.58553,-2.50452 2.55218,-2.50452 1.11932,0 1.51062,-0.6432 1.07759,-1.77144 -0.37382,-0.97429 -0.22472,-1.49089 0.32816,-1.148 0.55502,0.34279 1.31372,-0.17086 1.68611,-1.14143 0.42162,-1.09878 0.20689,-1.47513 -0.56501,-0.99715 -0.78295,0.48382 -0.72089,-0.23293 0.16765,-1.93819 1.83628,-3.52401 2.81578,-4.4292 1.82701,-1.68847 -0.65811,1.82526 -0.51186,1.93758 0.94703,0.72674 0.94918,-0.78774 1.47138,-1.84378 1.1607,-2.34683 -0.31033,-0.50302 0.0785,-1.21531 0.86856,-1.58281 1.13894,-0.53073 1.13038,-0.80846 -0.0392,-1.34993 -0.98056,-0.45329 -1.10469,-1.12713 -0.37132,-2.01106 0.60674,-0.73116 1.2702,-2.86418 1.47459,-4.7401 0.20332,-1.87591 0.85893,-3.76142 1.45569,-4.18999 0.5964,-0.42857 1.02729,-2.73998 0.95809,-5.13646 -0.0713,-2.39647 0.35313,-4.9393 0.94204,-5.6507 0.69948,-0.84691 0.4951,-1.51351 -0.59176,-1.93067 -1.20564,-0.4626 -1.42965,-1.50113 -0.8172,-3.79045 0.77867,-2.91173 -0.67844,-8.36494 -2.24078,-8.38588 -0.71982,-0.0107 -6.49298,6.93436 -11.73609,14.11634 -4.53792,6.21622 -14.91819,28.81153 -18.41848,40.09293 -1.45996,4.70582 -0.57713,9.7022 1.7143,9.7022 0.66881,0 3.63868,-1.27163 6.59999,-2.82584 z m -111.0245,-7.00152 c 1.53166,-2.008 3.26807,-4.85588 3.85876,-6.32862 1.67577,-4.178 2.72089,-7.12772 3.0223,-8.52908 0.15338,-0.70712 0.6228,-2.37647 1.0462,-3.70967 1.09685,-3.45608 -0.75192,-3.00853 -6.12843,1.48358 -4.74552,3.96478 -9.32232,5.94078 -15.51424,6.69823 -3.21738,0.39358 -3.44568,0.75367 -3.78068,5.95989 -0.4794,7.45136 0.4951,10.73637 3.52956,11.89614 3.26344,1.24738 10.11062,-2.41495 13.96653,-7.47047 z m 221.34524,-54.38559 c 1.2142,-2.03632 2.28536,-3.95924 2.37989,-4.27314 0.83824,-2.78203 4.86715,-10.13979 5.30981,-9.69716 0.31033,0.31104 0.56572,-0.18798 0.56572,-1.10905 0,-0.92107 0.84716,-3.61771 1.88302,-5.99253 3.15999,-7.24601 4.58179,-11.1261 4.39666,-11.99912 -0.0963,-0.45797 0.56965,-4.03144 1.48172,-7.94103 0.91208,-3.90956 1.49778,-7.26877 1.3016,-7.46488 -0.19619,-0.19618 -4.46622,0.74332 -9.48889,2.08769 l -9.13255,2.44423 -0.71518,12.70196 c -0.39308,6.98608 -1.0594,17.71 -1.48066,23.83095 -0.44088,6.40933 -0.32816,11.12592 0.26396,11.12175 0.56572,-0.003 2.02177,-1.67331 3.23632,-3.70967 z m -130.95824,17.69948 c 0.3032,-2.35421 1.01766,-4.76834 1.58695,-5.36474 0.56894,-0.5964 1.03479,-1.97861 1.03479,-3.0716 0,-1.09296 0.58855,-2.35097 1.30801,-2.79555 0.93277,-0.5765 1.07045,0.13732 0.48012,2.48943 -0.45515,1.81377 -1.26379,3.56723 -1.79669,3.89657 -0.53256,0.32923 -0.92457,1.36181 -0.87106,2.29432 0.22472,3.88755 -0.3246,6.83195 -1.2777,6.83195 -0.55894,0 -0.76761,-1.92617 -0.46442,-4.28038 z m -108.66819,-8.2754 c 0.3881,-0.62779 0.9321,-1.14143 1.2089,-1.14143 0.2782,0 0.5033,0.51364 0.5033,1.14143 0,0.62779 -0.544,1.14144 -1.2089,1.14144 -0.6645,0 -0.891,-0.51365 -0.5033,-1.14144 z m 4.1274,-1.95035 c 3.40861,-4.27789 8.01108,-8.32256 9.46962,-8.32256 0.84324,0 2.13663,0.72727 2.87428,1.61616 1.07794,1.29895 0.8254,1.77272 -1.28697,2.41407 -1.4457,0.43884 -3.79349,1.86435 -5.21707,3.16787 -1.42394,1.30348 -3.67613,2.53587 -5.00448,2.73862 -2.15058,0.32816 -2.24218,0.15089 -0.83538,-1.61416 z m 108.30396,-3.61332 c 0,-0.54886 0.77047,-3.18168 1.71215,-5.85068 0.94169,-2.66903 1.71216,-6.29883 1.71216,-8.0662 0,-1.76736 0.58855,-3.57718 1.30801,-4.02177 0.90209,-0.55752 1.10291,0.0414 0.64776,1.93017 -0.36312,1.50616 -1.31122,5.94876 -2.10701,9.87244 -0.7958,3.92369 -1.85769,7.13397 -2.35992,7.13397 -0.50223,0 -0.91315,-0.44908 -0.91315,-0.99793 z m 5.01447,-23.6363 c 0.38095,-0.99301 0.70055,-2.91918 0.71018,-4.28038 0,-1.76287 0.2925,-2.04317 0.96915,-0.97425 1.19066,1.87784 0.27823,7.06017 -1.24166,7.06017 -0.62173,0 -0.81863,-0.81249 -0.43767,-1.80554 z m 6.39988,-44.99329 c 0,-0.62779 0.51364,-1.14143 1.14143,-1.14143 0.62779,0 1.14144,0.51364 1.14144,1.14143 0,0.62779 -0.51365,1.14144 -1.14144,1.14144 -0.62779,0 -1.14143,-0.51365 -1.14143,-1.14144 z m 0.56073,-5.99253 c 0.21402,-2.04031 0.72945,-8.97454 1.14678,-15.40938 0.64384,-9.9318 0.50188,-11.6997 -0.93847,-11.6997 -1.13466,0 -1.49885,-0.7561 -1.0997,-2.28287 0.90601,-3.46429 3.47567,-2.72942 4.34815,1.24345 0.67844,3.08954 0,15.78982 -1.64188,31.00209 -0.0499,0.47084 -0.56751,0.85607 -1.14821,0.85607 -0.58035,0 -0.88033,-1.66935 -0.66667,-3.70966 z m -3.98504,-15.05667 c 0,-0.90463 0.46585,-1.93263 1.03514,-2.28444 0.56929,-0.35171 0.76619,0.38834 0.43767,1.64477 -0.69699,2.66525 -1.47281,3.00215 -1.47281,0.63967 z m 0.82255,-5.52972 c -0.36597,-0.95431 0.0357,-2.68308 0.87463,-3.84175 2.14875,-2.93819 2.81791,-1.61791 1.16818,2.30402 -1.0148,2.41168 -1.55199,2.81628 -2.04281,1.53773 z"
     id="path827"
     inkscape:connector-curvature="0"
     sodipodi:nodetypes="ccsccccccscsccsccscccssscccsscssccscccsccccccccccccccccccccssscccsccscscscccccccccssccccccccsccccssccccccccsscscccccccccccccccscsccsscscccccccscccccccscssscscccccccccccscsccsccccsccsscscsscccccccscscccccccssccccscccccccccccccccccssccccccsccccsccccccccccccccccccccscccccccsccccccscccccccccccccsccccsccsssccssccccssscccsscccscsssssccscccscsccscccc" />
</svg>
