<?xml version="1.0" encoding="UTF-8" standalone="no"?>
<svg
   xmlns:dc="http://purl.org/dc/elements/1.1/"
   xmlns:cc="http://creativecommons.org/ns#"
   xmlns:rdf="http://www.w3.org/1999/02/22-rdf-syntax-ns#"
   xmlns:svg="http://www.w3.org/2000/svg"
   xmlns="http://www.w3.org/2000/svg"
   xmlns:sodipodi="http://sodipodi.sourceforge.net/DTD/sodipodi-0.dtd"
   xmlns:inkscape="http://www.inkscape.org/namespaces/inkscape"
   enable-background="new 0 0 4253.661 1017.313"
   version="1.1"
   viewBox="0 0 1e3 1e3"
   id="svg16"
   sodipodi:docname="page-portfolio.svg"
   inkscape:version="0.92.4 (5da689c313, 2019-01-14)">
  <metadata
     id="metadata22">
    <rdf:RDF>
      <cc:Work
         rdf:about="">
        <dc:format>image/svg+xml</dc:format>
        <dc:type
           rdf:resource="http://purl.org/dc/dcmitype/StillImage" />
      </cc:Work>
    </rdf:RDF>
  </metadata>
  <defs
     id="defs20" />
  <sodipodi:namedview
     pagecolor="#ffffff"
     bordercolor="#666666"
     borderopacity="1"
     objecttolerance="10"
     gridtolerance="10"
     guidetolerance="10"
     inkscape:pageopacity="0"
     inkscape:pageshadow="2"
     inkscape:window-width="1600"
     inkscape:window-height="872"
     id="namedview18"
     showgrid="false"
     inkscape:zoom="0.236"
     inkscape:cx="500"
     inkscape:cy="-170.1241"
     inkscape:window-x="1920"
     inkscape:window-y="0"
     inkscape:window-maximized="1"
     inkscape:current-layer="svg16" />
  <path
     id="home-sheet"
     d="m961.6 290.13s-12.769-19.034-8.9673-28.901c3.8004-9.867 9.3799-7.406 9.3799-7.406l1.729-151.79-207.65 8.1907-294.29-0.14476-438.58-6.9649 5.7094 201.48 6.9203 25.903h-6.1856l5.156 181.93 0.68594 291.81-3.7165 89.65 773.58-7.5399 158.37 1.8251-3.3201-51.328-4.2198-72.488 5.3942-474.16z"
     fill="#fff"
     stroke="#808184"
     stroke-linejoin="round"
     stroke-miterlimit="10"
     stroke-width="2" />
  <path
     id="home-sheet-frame"
     d="m64.189 862.12 1.8941-70.08-5.9528-282.21v-375.02l464.72 0.81174 415.34-3.1117-7.1704 631.67 5.5469 96.732-157.21 2.9764z"
     fill="none"
     stroke="#808184"
     stroke-miterlimit="10"
     stroke-width="1.3529" />
  <path
     id="home-sheet-frame-line1"
     d="m66.228 755.84c293.58 2.0427 573.25 0.61289 866.84 0.61289"
     fill="none"
     stroke="#808184"
     stroke-miterlimit="10"
     stroke-width="1.3529" />
  <path
     id="home-sheet-frame-line2"
     d="m316.7 863.3-4.8162-107.33"
     fill="none"
     stroke="#808184"
     stroke-miterlimit="10"
     stroke-width="1.3529" />
  <text
     id="home-project-name"
     x="344.16904"
     y="804.54724"
     fill="#000000"
     font-family="sans-serif"
     font-size="40px"
     letter-spacing="0px"
     word-spacing="0px"
     style="line-height:1.25"
     xml:space="preserve"><tspan
       id="tspan10"
       x="344.16904"
       y="804.54724"
       font-family="Lato"
       font-weight="200">Project name: Home</tspan></text>
  <text
     id="home-deployment-date"
     x="345.6557"
     y="839.05487"
     fill="#000000"
     font-family="sans-serif"
     font-size="40px"
     letter-spacing="0px"
     word-spacing="0px"
     style="line-height:1.25"
     xml:space="preserve"><tspan
       id="tspan13"
       x="345.6557"
       y="839.05487"
       font-family="Lato"
       font-size="26.667px"
       font-weight="200">Deployment date: ##date##</tspan></text>
  <path
     id="home-logo-hair"
     d="m87.322 775.65c2.2152 0.0435 21.711-1.763 28.398 1.173 6.6869 2.9359 5.7092 3.2238 9.7702 6.4673-0.64745-1.9182-0.0847-0.29843-1.3661-2.1148 4.6678 2.1825 11.377 5.2862 12.864 13.21 3.9432 3.2417 5.2744 4.9981 7.7808 11.357l-1.5562 26.034-3.5288-18.134s-4.4-3.8592-5.3069-7.638c-3.7688 0.30949-13.947-3.9209-17.059-2.2591-3.1122 1.6618-4.7925 3.0186-9.2888 1.12s-5.4585-1.45-10.408 1.0028c-3.4509 0.95377-11.848 5.185-11.848 5.185l-4.7468 20.435-1.246-26.601-6.0865-6.4459s0.84272-2.1452 4.1539-4.3333c3.3112-2.1881 5.3859-2.6351 5.3859-2.6351-3.4637-1.842-3.8391-2.9263-7.2065-4.5757 5.4874-6.0883 11.273-6.9188 14.063-6.7606-1.9248-1.0212-2.0887-2.3833-2.7688-4.4864z"
     fill="#231f20"
     stroke-width=".73135" />
  <path
     id="home-logo-left-eyebrow"
     d="m102.27 824.7c3.8141 1.0797 3.8802 0.56288 4.9638 0.6853-0.0153 0.85057-0.0698 2.0295-1.5683 2.2544-1.4985 0.22491-19.25-2.5674-21.71-1.0984 2.9844-6.0876 14.5-2.921 18.314-1.8413z"
     fill="#3e3734"
     stroke-width=".73135" />
  <path
     id="home-logo-right-eyebrow"
     d="m122.18 823.7c-3.6095 1.6327-4.3973 1.2553-5.481 1.3574 0.0153 0.70937 0.45769 1.8355 1.9562 2.0231 1.4985 0.18758 12.993-6.7832 21.322-1.059-1.4922-2.5385-4.6001-5.8624-8.3288-5.7242-3.7288 0.13817-7.3673 2.4524-9.4682 3.4027z"
     fill="#3e3734"
     stroke-width=".73135" />
  <path
     id="home-logo-glasses"
     d="m130.84 825.58c-5.2406 0.0341-10.291 1.6316-15.435 2.2703-2.1469 0.26661-4.3595 0.33201-6.51 0.0841-2.8593-0.32971-5.6276-1.2052-8.485-1.5977-2.5537-0.35055-5.1392-0.71678-7.7088-0.73134-4.4906-0.026-8.8337 1.345-13.236 2.0853 0 1.2556-0.26169 2.8674 0.39652 3.7501 0.67893 0.91027 1.8242 1.7427 2.1212 2.9764 0.7044 2.9256 1.7046 5.7934 2.9834 8.5428 0.62148 1.3361 1.7943 2.2676 3.1042 2.9092 3.1541 1.5452 6.8871 1.7724 10.347 1.2865 4.9276-0.69197 7.601-4.2973 9.6405-8.4167 0.76341-1.6745 0.84851-3.6072 1.8539-5.1375 0.59709-0.9089 1.9838-0.52631 2.9746-0.52969 0.99113-4e-3 1.8312 1.604 2.1386 2.6739 1.0884 3.7863 2.9033 7.8033 6.5102 9.7871 5.3861 2.9627 13.872 2.4085 17.366-2.9344 1.3678-2.0912 1.7453-4.6282 2.4315-6.9956 0.41775-1.4413 0.79109-3.1597 2.2765-3.9519 0.59945-0.31989 0.17883-1.5958 0.26721-2.3376 0.0964-0.80801 0.28249-1.523-0.8967-1.6815-2.0567-0.27702-4.0517-1.1191-6.1567-1.4042-1.9947-0.27021-3.949-0.66069-5.9843-0.64758zm-34.646 1.3453c1.4877-9e-3 2.969 0.097 4.415 0.39523 8.6151 1.7769 8.7892 5.2382 5.2427 12.394-2.89 5.8307-8.8765 7.2917-14.909 5.8941-2.7809-0.64421-4.6822-2.537-5.5791-5.1289-0.9465-2.7358-1.6625-5.6423-1.5003-8.5178 0.21717-3.8503 4.6833-4.3914 7.8812-4.7422 1.4675-0.16093 2.9617-0.28508 4.4493-0.29431zm31.456 0c1.4877 8e-3 2.982 0.13338 4.4495 0.29431 3.1978 0.35078 7.6643 0.89191 7.8812 4.7422 0.16207 2.8755-0.55386 5.782-1.5005 8.5178-0.89669 2.5919-2.7982 4.4847-5.5789 5.1289-6.032 1.3976-12.019-0.0634-14.909-5.8941-3.5465-7.1558-3.3721-10.617 5.243-12.394 1.4459-0.2982 2.9271-0.40431 4.4147-0.39523z"
     fill="#3d3e40" />
  <path
     id="home-logo-luis"
     d="m289.33 776.57c-1.9727 0-3.7238 0.30349-5.2559 0.91211-1.5111 0.60867-2.7925 1.4287-3.8418 2.457-1.0283 1.0073-1.8157 2.1719-2.3613 3.4941s-0.81836 2.7062-0.81836 4.1543c0 1.8469 0.32597 3.3907 0.97656 4.6289 0.6506 1.2173 1.4995 2.2445 2.5488 3.084 1.0703 0.81847 2.2882 1.5012 3.6524 2.0469 1.3641 0.52469 2.7501 1.0168 4.1562 1.4785 1.4271 0.44072 2.8214 0.91428 4.1856 1.418 1.3641 0.48273 2.5718 1.0916 3.6211 1.8262 1.0703 0.73454 1.9314 1.647 2.582 2.7383 0.65059 1.0913 0.97461 2.4754 0.97461 4.1543 0 1.574-0.2727 3.0543-0.81836 4.4394-0.54567 1.3851-1.3432 2.603-2.3926 3.6524-1.0283 1.0284-2.2975 1.8465-3.8086 2.4551-1.5111 0.58762-3.2211 0.88086-5.1309 0.88085-1.3431 1e-5 -2.5508-0.12511-3.6211-0.37695-1.0494-0.27283-1.9823-0.5988-2.8008-0.97656-0.7975-0.39874-1.4905-0.81904-2.0781-1.2598-0.5876-0.4617-1.092-0.88005-1.5117-1.2578-0.41977-0.39875-0.76623-0.72471-1.0391-0.97656-0.25184-0.27283-0.45074-0.4082-0.59765-0.4082-0.1469 0-0.26175 0.03081-0.3457 0.09375-0.06297 0.04197-0.14702 0.11577-0.25196 0.2207l-0.41015 0.6289c0.77653 0.90247 1.5844 1.7103 2.4238 2.4238 0.86047 0.71358 1.7953 1.3225 2.8027 1.8262 1.0283 0.48269 2.1397 0.84972 3.3359 1.1016 1.2173 0.27282 2.5724 0.41015 4.0625 0.41015 2.1827 0 4.1243-0.33621 5.8242-1.0078 1.7209-0.6926 3.1685-1.6275 4.3438-2.8027 1.1962-1.1963 2.0984-2.5906 2.707-4.1856 0.6296-1.616 0.94335-3.3382 0.94335-5.1641 1e-5 -1.7839-0.32401-3.2725-0.9746-4.4688-0.6506-1.2173-1.5117-2.2362-2.582-3.0547-1.0703-0.81846-2.2882-1.489-3.6523-2.0137-1.3431-0.54569-2.7272-1.05-4.1543-1.5117-1.4271-0.48271-2.8234-0.97678-4.1875-1.4805-1.3431-0.50367-2.5488-1.1229-3.6191-1.8574s-1.9314-1.6367-2.582-2.707c-0.6506-1.0913-0.97656-2.4446-0.97656-4.0606 0-1.2593 0.23164-2.4546 0.69336-3.5879 0.46167-1.1543 1.1444-2.1732 2.0469-3.0547 0.9024-0.88144 2.0137-1.5744 3.3359-2.0781 1.3431-0.52467 2.8748-0.78711 4.5957-0.78711 1.6999 0 3.127 0.21112 4.2812 0.63086 1.1543 0.39872 2.0995 0.84983 2.834 1.3535 0.73452 0.50367 1.3005 0.96504 1.6992 1.3848 0.41974 0.39875 0.74571 0.59765 0.97656 0.59766 0.23086 0 0.40924-0.10459 0.53516-0.31446l0.37695-0.6914c-1.4901-1.5111-3.0955-2.6244-4.8164-3.3379-1.6999-0.71353-3.6621-1.0703-5.8867-1.0703zm-92.672 0.50586v27.639c0 2.3925 0.37923 4.6396 1.1348 6.7383 0.75553 2.0777 1.836 3.8923 3.2422 5.4453 1.4061 1.5531 3.1161 2.7812 5.1309 3.6836 2.0148 0.88147 4.2824 1.3223 6.8008 1.3223 2.5185 0 4.7738-0.4408 6.7676-1.3223 2.0147-0.9024 3.7247-2.1305 5.1309-3.6836 1.4271-1.553 2.5179-3.3676 3.2734-5.4453 0.75553-2.0987 1.1348-4.3457 1.1348-6.7383v-27.639h-1.7637v27.639c0 2.1827-0.33621 4.2289-1.0078 6.1387-0.6506 1.8888-1.6041 3.5372-2.8633 4.9434-1.2382 1.4061-2.7596 2.5175-4.5645 3.3359-1.7839 0.79754-3.8198 1.1973-6.1074 1.1973s-4.3338-0.39973-6.1387-1.1973c-1.8049-0.81846-3.3384-1.9298-4.5976-3.3359-1.2382-1.4271-2.1917-3.0961-2.8633-5.0059-0.65059-1.9098-0.97656-3.956-0.97656-6.1387v-27.576h-1.7324zm56.207 0.00195v44.262h1.7305v-44.262h-1.7305zm-95.16 0.00196v44.262h23.674v-1.5117h-21.943v-42.75h-1.7305z" />
  <path
     id="home-logo-alejandro"
     d="m292.53 827.76c-2.8236 0-5.0042 0.72248-6.543 2.166-1.5229 1.4277-2.2832 3.5287-2.2832 6.3047s0.76034 4.8865 2.2832 6.3301c1.5387 1.4277 3.7194 2.1406 6.543 2.1406s5.0062-0.72053 6.5449-2.1641 2.3066-3.5464 2.3066-6.3066-0.76791-4.8612-2.3066-6.3047-3.7213-2.166-6.5449-2.166zm-80.857 0.28711v10.66c0 0.74554-0.14221 1.2765-0.42774 1.5938-0.26967 0.31726-0.69065 0.47461-1.2617 0.47461-0.57106 0-0.99962-0.15735-1.2852-0.47461-0.26968-0.31727-0.4043-0.84822-0.4043-1.5938v-0.19141h-4.9258v0.21485c0 0.64345 0.06519 1.2269 0.17969 1.7637h-8.8281v-2.498h7.6133v-3.7598h-7.6133v-2.2598h8.8984v-3.9258h-14.156v16.369h14.324v-3.0742c0.28937 0.77479 0.72738 1.4124 1.3184 1.9062 1.1739 0.96767 2.8558 1.4512 5.0449 1.4512 2.1891 0 3.8635-0.4835 5.0215-1.4512 1.1739-0.96766 1.7598-2.4752 1.7598-4.5215v-10.684h-5.2578zm-47.992 0.00195-5.9727 16.371h5.3789l0.68945-2.3086h5.7344l0.68945 2.3086h5.4512 0.11719 13.541v-4.1875h-8.4004v-12.182h-5.2578v16.049l-5.8555-16.051h-6.1152zm58.561 0-5.9726 16.371h5.377l0.69141-2.3086h5.7344l0.68946 2.3086h5.5684 4.7148v-7.9473l6.877 7.9473h4.5918v-16.371h-4.8301v8.0664l-6.877-8.0664h-4.5918v16.055l-5.8574-16.055h-6.1152zm29.738 0v16.371h7.0918c5.7265 0 8.5898-2.7287 8.5898-8.1855 0-5.4569-2.8633-8.1836-8.5898-8.1836l-7.0918-0.00195zm16.414 0v16.371h5.2578v-5.9726h1.9512l2.9024 5.9726h5.9023l-3.6406-6.8535c1.0311-0.38074 1.8161-0.97421 2.3555-1.7832 0.53935-0.809 0.8086-1.7135 0.8086-2.7129 0-0.90413-0.21427-1.7385-0.64258-2.5-0.41247-0.7773-1.0382-1.3879-1.8789-1.832-0.82486-0.46003-1.8242-0.68945-2.998-0.68945h-10.018zm24.137 3.6367c1.1263 0 1.9834 0.3413 2.5703 1.0234 0.60279 0.68214 0.9043 1.6018 0.9043 2.7598v1.5234c0 1.158-0.30151 2.0776-0.9043 2.7598-0.58693 0.68214-1.444 1.0234-2.5703 1.0234-1.1263 0-1.9814-0.3413-2.5684-1.0234-0.58693-0.68213-0.88086-1.6018-0.88086-2.7598v-1.5234c0-1.158 0.29393-2.0776 0.88086-2.7598 0.58693-0.68213 1.4421-1.0234 2.5684-1.0234zm-18.879 0.09961h3.4512c0.41247 0 0.76134 0.1422 1.0469 0.42773 0.28554 0.28557 0.42773 0.64201 0.42773 1.0703 0 0.42834-0.14219 0.79431-0.42773 1.0957-0.28556 0.28553-0.63444 0.42773-1.0469 0.42773h-3.4512v-3.0215zm-16.412 0.1914h1.7363c2.2049 0 3.3066 1.1813 3.3066 3.5449v1.4277c0 2.3636-1.1017 3.5449-3.3066 3.5449h-1.7363v-8.5176zm-90.631 0.64063h0.0957l1.7129 5.8301h-3.5469l1.7383-5.8301zm58.561 0h0.09375l1.7129 5.8301h-3.5449l1.7383-5.8301z" />
  <path
     style="fill:#000000;stroke-width:1.12141633"
     d="m 550.72354,723.88714 c -0.5625,-1.47974 -0.7509,-6.39995 -0.4185,-10.9338 0.9515,-12.97626 0.9492,-14.79688 -0.047,-38.20448 -0.6534,-15.35079 -1.3708,-22.46779 -2.3464,-23.27748 -1.037,-0.86062 -2.7049,0.13316 -6.3632,3.79154 -5.3501,5.35017 -10.3908,7.06716 -17.0691,5.81433 -4.09722,-0.76866 -11.59326,-5.91305 -12.14499,-8.33485 -0.18854,-0.82715 -1.94812,0.77865 -3.91038,3.56841 -4.57261,6.50078 -8.1745,8.80855 -14.71898,9.43062 -4.19938,0.39919 -5.88617,0.007 -8.34687,-1.93423 -2.77821,-2.19321 -3.0839,-3.13236 -3.0839,-9.47428 0,-8.49277 4.12412,-17.18981 12.82886,-27.05371 8.49747,-9.62908 15.17077,-11.91551 21.11964,-7.23615 1.56823,1.23355 3.34851,2.24283 3.95621,2.24283 1.78691,0 2.46741,3.0636 2.44911,11.02552 -0.021,8.60911 -1.0023,10.86288 -4.35369,9.98649 -1.98869,-0.52006 -2.35761,-0.11635 -2.35761,2.58017 0,7.83922 10.1551,12.40482 18.638,8.37943 6.0145,-2.85404 9.4974,-7.18169 8.7455,-10.86659 -0.9172,-4.49506 1.7726,-16.83915 4.2716,-19.60341 1.9211,-2.12508 2.3157,-5.02359 3.2054,-23.54974 1.0592,-22.05615 3.6695,-48.77947 5.6179,-57.51537 2.173,-9.74255 6.1828,-12.45427 8.6711,-5.86392 1.7499,4.63474 3.7045,26.11463 3.4722,38.15608 -0.3095,16.03541 -2.7638,33.71976 -6.2139,44.77398 -3.9787,12.74801 -3.8501,12.21212 -4.5712,19.03825 -0.3777,3.57556 -0.1836,5.88743 0.4942,5.88743 1.7008,0 12.1129,-11.96442 17.8105,-20.46584 2.7902,-4.16326 5.539,-7.56956 6.1084,-7.56956 1.3952,0 1.3239,4.17489 -0.086,5.04637 -0.6168,0.38118 -1.1236,1.5464 -1.1262,2.58939 0,1.04295 -1.2641,4.37885 -2.8035,7.41305 -2.0162,3.97405 -2.7988,7.31272 -2.7988,11.93905 0,5.93019 0.2992,6.68515 3.9072,9.85287 3.8582,3.38759 3.9602,3.40893 8.1302,1.70021 7.7321,-3.16825 7.8098,-4.12934 0.629,-7.77836 -3.7219,-1.89127 -7.1908,-4.59479 -8.1666,-6.36463 -1.5698,-2.84721 -1.5051,-3.43753 0.867,-7.91219 2.6389,-4.97803 7.3623,-8.63585 11.1516,-8.63585 2.0765,0 7.0313,4.2726 7.0313,6.06318 0,0.47976 1.0093,2.15537 2.2428,3.72356 1.2336,1.56823 2.2429,4.29716 2.2429,6.0643 0,5.99678 5.7378,3.50587 20.4962,-8.89773 l 8.4056,-7.0644 0.5909,-34.428 c 0.6271,-36.53438 2.3995,-53.62427 5.9706,-57.57043 1.0401,-1.14917 3.3267,-2.08944 5.0814,-2.08944 8.0832,0 10.5097,8.89024 10.4065,38.12815 -0.057,16.13869 -0.5112,22.34727 -2.0451,27.95533 -2.2429,8.19994 -6.3179,16.75333 -9.9719,20.93071 -1.3685,1.56462 -2.7837,3.94738 -3.1448,5.29508 -0.8365,3.12223 -0.1303,18.36999 1.2559,27.12156 2.0231,12.77117 1.2662,19.62478 -2.1673,19.62478 -1.632,0 -2.0913,-2.47658 -3.3796,-18.22301 -0.82,-10.02266 -1.514,-18.85381 -1.5424,-19.62479 -0.028,-0.77097 -0.3605,-1.40177 -0.7381,-1.40177 -0.3776,0 -5.1647,3.76985 -10.638,8.37744 -6.1114,5.14481 -11.9453,9.03966 -15.1185,10.09365 -3.0447,1.01128 -7.6458,4.01905 -11.2015,7.3224 -4.7902,4.4503 -6.8223,5.60617 -9.8563,5.60617 -8.2313,0 -14.4716,-5.72725 -15.7413,-14.44717 l -0.8655,-5.94411 -5.4557,5.76514 -5.4555,5.76516 1.2533,12.00007 c 1.6647,15.93774 1.5762,26.00452 -0.3283,37.36537 -0.8667,5.16921 -1.9047,11.92174 -2.3068,15.00564 -0.4021,3.08389 -0.9886,6.49019 -1.3035,7.56956 -0.8271,2.83581 -3.6707,2.4102 -4.8639,-0.72798 z m 5.6381,-47.24806 c -0.8576,-5.12908 -0.9421,-5.24487 -1.0635,-1.45799 -0.1241,3.87453 0.8289,8.19573 1.6308,7.39378 0.2005,-0.20045 -0.055,-2.87145 -0.5673,-5.93579 z m -55.44265,-19.01814 c 2.67027,-1.74962 7.50413,-8.59814 9.34788,-13.24389 2.2046,-5.55493 4.6947,-19.00916 3.70197,-20.00189 -0.63038,-0.63038 -2.31103,-0.36727 -4.30883,0.67453 -1.80145,0.93943 -3.92124,1.71114 -4.71069,1.71496 -1.67501,0.007 -11.32819,9.37651 -13.87307,13.4639 -1.69856,2.72812 -2.69802,6.4651 -3.91648,14.64398 -0.50618,3.39771 -0.20536,4.16487 2.02598,5.16415 2.9045,1.30081 7.50746,0.35311 11.73324,-2.41574 z m 97.77145,-16.01214 c 0.3326,-2.25247 -2.0187,-6.92674 -5.1111,-10.16136 -2.4391,-2.55108 -7.1808,-0.11389 -8.7831,4.51451 -1.3885,4.01057 -1.3837,4.0209 2.7125,5.77147 7.9786,3.40977 10.6645,3.37984 11.1817,-0.12476 z m -49.1484,-6.77318 c -0.014,-3.08526 -0.294,-3.71083 -1.1043,-2.45699 -1.4463,2.23811 -1.4463,8.18312 0,7.28921 0.6168,-0.38118 1.1137,-2.55567 1.1043,-4.83222 z m 8.9538,-13.39079 c 4.2053,-14.83361 4.8908,-21.31837 4.8898,-46.25842 -6e-4,-14.38115 -0.4977,-26.67863 -1.156,-28.59611 l -1.1549,-3.36425 -0.6999,3.92495 c -1.3644,7.65199 -5.2086,57.94491 -5.2086,68.14416 0,10.88404 1.3044,13.29326 3.3296,6.14967 z m 84.8014,-11.00299 c 4.3954,-7.50017 5.9012,-13.76899 7.2779,-30.2986 0.9337,-11.21234 0.9218,-17.48978 -0.047,-24.8393 -2.4872,-18.86337 -4.7278,-23.26963 -8.2803,-16.2832 -1.7531,3.44761 -3.9351,23.30733 -4.3432,39.52992 -0.4906,19.50125 0.1871,38.29734 1.3547,37.57564 0.6095,-0.37666 2.4266,-2.93464 4.0381,-5.68446 z m -170.87211,78.1809 c -1.08276,-0.68627 -1.55291,-7.54457 -1.9015,-27.73683 -0.25477,-14.75384 -0.49051,-27.22119 -0.52405,-27.70525 -0.035,-0.48403 -1.65325,0.93347 -3.59939,3.14999 -1.94612,2.21651 -5.4585,5.00957 -7.80524,6.20679 -5.14859,2.6266 -14.34322,2.86893 -18.92663,0.49875 -1.7847,-0.92289 -3.46556,-1.30137 -3.73523,-0.84106 -0.65879,1.12446 -3.87098,20.56214 -4.71205,28.51355 -0.67859,6.41541 -2.69542,9.64393 -5.09722,8.15956 -1.46106,-0.90302 -1.08188,-5.89514 1.57209,-20.69703 0.94002,-5.24262 2.02359,-13.76349 2.40792,-18.93526 l 0.69882,-9.40321 -3.53285,0.70656 c -5.80353,1.1607 -12.10074,6.90747 -12.83727,11.71512 -1.93087,12.60381 -9.069,28.01417 -15.28988,33.00899 -5.77564,4.63734 -11.39194,5.72504 -14.98159,2.90142 -3.95674,-3.11238 -6.60248,-12.93084 -5.88684,-21.84634 0.53124,-6.6179 0.3639,-7.27337 -2.66599,-10.44389 -6.0034,-6.28196 -3.31067,-17.02156 6.42999,-25.64528 6.22487,-5.5111 7.88064,-6.10166 14.71385,-5.24792 5.09309,0.63637 7.01688,1.55786 11.08944,5.3118 3.58906,3.30829 5.111,5.69035 5.60351,8.77028 l 0.67614,4.22837 4.96402,-3.78912 c 5.39275,-4.11637 12.63598,-6.79999 15.44464,-5.7222 1.24789,0.47888 1.76633,2.16927 1.76633,5.75938 0,6.75783 2.39864,9.04804 10.54216,10.06552 5.60659,0.7005 6.92579,0.45725 11.24363,-2.07319 5.70065,-3.3408 10.42872,-8.58808 11.46746,-12.72677 0.40235,-1.60303 0.13773,-10.52148 -0.58793,-19.81872 -0.7257,-9.29721 -1.27004,-22.62801 -1.20959,-29.62393 0.0603,-6.99592 -0.0536,-12.86892 -0.25337,-13.05111 -0.19975,-0.18223 -4.65272,0.0547 -9.89534,0.5264 -10.11423,0.91003 -14.57841,0.0533 -14.57841,-2.79825 0,-2.11573 1.16939,-2.57148 8.41062,-3.27779 16.47851,-1.60738 17.10909,-1.79865 17.83108,-5.40856 0.36975,-1.84879 0.67228,-4.78249 0.67228,-6.51932 0,-1.73686 0.50464,-3.4698 1.12142,-3.85098 0.61678,-0.38121 1.12142,-2.11558 1.12142,-3.8542 0,-6.20686 4.73171,-14.64916 8.21052,-14.64916 2.55486,0 3.00364,2.54162 3.00364,17.01153 v 13.46383 l 4.20531,-0.62747 c 2.31292,-0.34519 12.02719,-1.20177 21.58726,-1.90367 20.02263,-1.47004 17.45343,-1.3409 22.42833,-1.12738 3.4876,0.14964 3.7092,0.33222 1.9887,1.63899 -1.9476,1.47922 -12.66147,3.49437 -37.03296,6.96546 l -13.17664,1.87669 -0.0175,7.42392 c -0.0449,18.71738 -2.61297,39.23113 -6.38027,50.96276 -1.44995,4.51517 -1.66747,10.80961 -1.31433,38.03272 0.27405,21.13667 0.028,32.74799 -0.69826,32.97963 -0.61678,0.1966 -1.76872,-0.0526 -2.55987,-0.55412 z m -80.98566,-14.8179 c 0,-0.65316 0.40974,-0.93439 0.91049,-0.62488 1.55025,0.95808 8.75931,-6.34084 11.38416,-11.52605 1.37201,-2.71036 3.13316,-7.38975 3.91363,-10.39865 1.38527,-5.34029 1.3627,-5.45334 -0.94644,-4.7424 -1.30105,0.40059 -3.78867,1.45262 -5.52805,2.33784 -1.73942,0.88525 -6.28116,1.76465 -10.09275,1.95428 l -6.93025,0.34483 v 9.98961 c 0,7.2924 0.45418,10.49961 1.68213,11.87867 1.87476,2.10546 5.60708,2.6292 5.60708,0.78682 z m 7.43264,-29.77963 c 8.21224,-3.4239 10.51002,-5.7378 10.51002,-10.58382 0,-6.20087 -4.528,-11.10395 -10.82465,-11.72133 -4.29123,-0.42074 -4.71453,-0.21832 -5.39141,2.57779 -0.40403,1.66891 -1.96704,6.1483 -3.47342,9.95418 -3.84919,9.7251 -3.68087,11.5836 1.04919,11.5836 2.08339,0 5.74201,-0.81467 8.13027,-1.81042 z m -17.14498,-3.51631 c 0.35307,-1.07936 1.62364,-4.57695 2.82348,-7.77246 1.812,-4.82588 1.91538,-5.91211 0.61026,-6.41296 -1.01954,-0.3912 -1.57131,0.17242 -1.57131,1.60467 0,1.21474 -0.75654,2.20765 -1.68213,2.20765 -0.92517,0 -1.68212,0.75696 -1.68212,1.68213 0,0.92517 -0.45064,1.68212 -1.00143,1.68212 -1.55708,0 -2.43193,3.25912 -1.67953,6.25691 0.79242,3.1572 3.25137,3.59925 4.18278,0.75194 z m 95.96011,-43.45488 c 0.66903,-5.55101 1.21782,-16.02223 1.21954,-23.26938 0.003,-12.13733 -0.16261,-13.17664 -2.09947,-13.17664 -1.45784,0 -2.31761,1.07466 -2.80354,3.50442 -1.53805,7.69019 -0.13772,45.76784 1.61544,43.92805 0.4684,-0.49153 1.399,-5.43544 2.06803,-10.98645 z m 1.17027,-52.98691 -0.0526,-9.81239 -2.18946,5.60708 c -1.20419,3.08389 -2.18988,7.49947 -2.19037,9.81239 -7.7e-4,3.45799 0.39765,4.20531 2.24192,4.20531 2.07595,0 2.23894,-0.73015 2.19037,-9.81239 z M 311.05979,679.19776 c -0.4903,-0.77097 -1.08027,-12.67891 -1.311,-26.46206 l -0.41952,-25.06032 -3.80157,-1.58838 c -2.55262,-1.06657 -3.80153,-2.33693 -3.80153,-3.86696 0,-1.98151 0.49441,-2.18585 3.79172,-1.56728 l 3.79172,0.71132 0.82221,-44.11539 c 0.79775,-42.80351 0.74567,-44.57457 -1.75165,-59.55638 -1.94892,-11.6922 -2.25878,-15.75607 -1.27614,-16.73868 0.98261,-0.98264 1.80198,-0.84127 3.37494,0.58223 1.14251,1.03394 2.84377,1.87991 3.78061,1.87991 0.93683,0 7.7097,2.96058 15.0508,6.57903 7.34111,3.61846 14.60908,6.96519 16.15103,7.43713 4.5268,1.38551 14.76586,8.47262 19.84461,13.73574 6.20701,6.4323 9.4159,15.07218 10.10123,27.1975 0.53866,9.53046 -1.89025,30.39328 -4.00977,34.44135 -0.57728,1.10256 -2.85754,5.92833 -5.06722,10.72389 -5.57382,12.09658 -12.0253,20.30717 -18.43896,23.46662 -4.74618,2.33805 -6.52699,2.54831 -19.12715,2.25836 l -13.89372,-0.31961 0.54375,21.65683 c 0.35244,14.03746 1.03048,22.56626 1.92715,24.24172 1.17739,2.19997 1.07796,2.81637 -0.66773,4.13943 -2.57558,1.95203 -4.46685,2.02755 -5.61381,0.22393 z m 24.86958,-55.30937 c 2.46711,-0.45992 5.68635,-0.71164 7.15379,-0.55937 4.26668,0.44261 13.49152,-10.23279 19.51587,-22.58463 5.67594,-11.63746 6.2384,-13.70163 7.49747,-27.51566 1.74216,-19.1137 -2.12466,-33.36346 -11.04973,-40.72027 -2.12964,-1.75544 -9.21153,-5.75111 -15.73754,-8.87934 -6.52604,-3.12819 -16.2811,-7.96121 -21.67792,-10.74001 -6.0403,-3.11014 -9.80444,-4.50108 -9.79171,-3.61828 0.0859,5.96646 3.75187,21.01908 5.79737,23.80458 2.58924,3.52594 3.02807,12.08473 0.75976,14.8179 -1.24257,1.4972 -2.65285,32.69892 -2.65285,58.69275 v 16.26054 l 6.16779,1.28185 c 3.39228,0.70502 6.92474,1.12758 7.84991,0.93897 0.92517,-0.18854 3.70067,-0.71914 6.16779,-1.17903 z m 330.60187,35.72026 c -4.9593,-2.4703 -6.373,-6.53007 -5.4757,-15.72513 0.4068,-4.16897 1.0275,-9.04345 1.3792,-10.83218 0.525,-2.66963 0.3158,-3.12794 -1.1686,-2.5584 -2.4688,0.94742 -2.3271,-1.71069 0.2618,-4.90777 2.3096,-2.85219 5.3917,-3.76008 6.0662,-1.78691 0.2429,0.71014 0.028,7.34682 -0.4776,14.74816 -0.8183,11.985 -0.712,13.61032 0.972,14.85877 2.9646,2.1978 6.3677,1.66365 10.7168,-1.68213 4.7617,-3.6631 9.8095,-11.00778 9.8095,-14.273 0,-2.39636 2.8848,-7.32764 4.2688,-7.29709 3.2199,0.0711 3.5026,2.02258 1.2564,8.67381 -3.1058,9.19691 -2.6129,12.2814 2.428,15.19333 3.6558,2.11184 4.3761,2.18294 7.7891,0.76926 4.7942,-1.98586 10.8195,-7.26268 12.911,-11.30735 3.1367,-6.0656 1.7032,-15.03356 -3.3434,-20.91578 -4.3271,-5.04374 -11.7937,-2.44244 -22.0651,7.68728 -4.3853,4.32481 -8.1411,7.69543 -8.3462,7.49029 -0.7191,-0.71911 3.7957,-9.31883 6.398,-12.18682 7.9626,-8.77564 18.0644,-12.76477 24.2389,-9.57181 3.9698,2.05289 9.7175,12.72797 10.1985,18.94142 0.947,12.23531 -16.3154,28.91119 -27.1208,26.19919 -3.025,-0.75923 -9.7347,-6.82396 -9.7347,-8.79902 0,-0.73656 -1.8923,0.49935 -4.2053,2.74653 -3.993,3.87957 -8.9393,6.54742 -11.8478,6.39046 -0.7309,-0.0396 -2.9399,-0.87425 -4.909,-1.85511 z m -0.3448,-47.07232 c -2.8967,-1.03528 -4.4857,-3.9804 -4.4857,-8.314 0,-2.30711 -0.6171,-4.38355 -1.378,-4.6372 -3.2012,-1.06706 6.7447,-12.67796 11.9087,-13.90237 4.6168,-1.09464 6.066,-0.73008 9.0805,2.28439 5.9279,5.92795 6.3545,9.62533 1.8793,16.28871 -5.0568,7.52944 -11.0036,10.42522 -17.0048,8.28047 z m 9.7747,-7.13333 c 1.3565,-0.84719 3.3521,-3.18485 4.4345,-5.19482 1.9637,-3.64632 1.9608,-3.66202 -1.284,-7.0489 -1.7887,-1.86695 -3.6705,-3.39446 -4.1819,-3.39446 -0.5113,0 -1.772,1.76623 -2.8014,3.92496 -1.0294,2.15872 -2.2216,3.92495 -2.6494,3.92495 -1.3089,0 -3.5891,6.58096 -2.9013,8.37344 0.7701,2.00667 5.7284,1.69744 9.3835,-0.58517 z"
     id="path817"
     inkscape:connector-curvature="0"
     sodipodi:nodetypes="ccccccccccsccsccscccccccccscscccscccccsscsccccscccccsscscccsccccccscccccccccscccscccccsccccccsccccssccccccccccccccccccccccsccccccccscscccccccsccscssscccccccccccccscccccccscsscscccsccccssssccscsccsccccscccsccsscscccssccscscccsccccccscccccccscscccccccccccsccccccsccccssccccsccccccccscscc" />
</svg>
