<?xml version="1.0" encoding="UTF-8" standalone="no"?>
<svg
   xmlns:dc="http://purl.org/dc/elements/1.1/"
   xmlns:cc="http://creativecommons.org/ns#"
   xmlns:rdf="http://www.w3.org/1999/02/22-rdf-syntax-ns#"
   xmlns:svg="http://www.w3.org/2000/svg"
   xmlns="http://www.w3.org/2000/svg"
   xmlns:sodipodi="http://sodipodi.sourceforge.net/DTD/sodipodi-0.dtd"
   xmlns:inkscape="http://www.inkscape.org/namespaces/inkscape"
   enable-background="new 0 0 4253.661 1017.313"
   version="1.1"
   viewBox="0 0 1e3 1e3"
   id="svg16"
   sodipodi:docname="page-home.svg"
   inkscape:version="0.92.4 (5da689c313, 2019-01-14)">
  <metadata
     id="metadata22">
    <rdf:RDF>
      <cc:Work
         rdf:about="">
        <dc:format>image/svg+xml</dc:format>
        <dc:type
           rdf:resource="http://purl.org/dc/dcmitype/StillImage" />
      </cc:Work>
    </rdf:RDF>
  </metadata>
  <defs
     id="defs20" />
  <sodipodi:namedview
     pagecolor="#ffffff"
     bordercolor="#666666"
     borderopacity="1"
     objecttolerance="10"
     gridtolerance="10"
     guidetolerance="10"
     inkscape:pageopacity="0"
     inkscape:pageshadow="2"
     inkscape:window-width="1920"
     inkscape:window-height="1004"
     id="namedview18"
     showgrid="false"
     inkscape:zoom="0.6675088"
     inkscape:cx="263.95475"
     inkscape:cy="497.94819"
     inkscape:window-x="0"
     inkscape:window-y="48"
     inkscape:window-maximized="1"
     inkscape:current-layer="svg16" />
  <path
     id="home-sheet"
     d="m961.6 290.13s-12.769-19.034-8.9673-28.901c3.8004-9.867 9.3799-7.406 9.3799-7.406l1.729-151.79-207.65 8.1907-294.29-0.14476-438.58-6.9649 5.7094 201.48 6.9203 25.903h-6.1856l5.156 181.93 0.68594 291.81-3.7165 89.65 773.58-7.5399 158.37 1.8251-3.3201-51.328-4.2198-72.488 5.3942-474.16z"
     fill="#fff"
     stroke="#808184"
     stroke-linejoin="round"
     stroke-miterlimit="10"
     stroke-width="2"
     style="fill:#fffffc;fill-opacity:1" />
  <path
     id="home-sheet-frame"
     d="m64.189 862.12 1.8941-70.08-5.9528-282.21v-375.02l464.72 0.81174 415.34-3.1117-7.1704 631.67 5.5469 96.732-157.21 2.9764z"
     fill="none"
     stroke="#808184"
     stroke-miterlimit="10"
     stroke-width="1.3529" />
  <path
     id="home-sheet-frame-line1"
     d="m66.228 755.84c293.58 2.0427 573.25 0.61289 866.84 0.61289"
     fill="none"
     stroke="#808184"
     stroke-miterlimit="10"
     stroke-width="1.3529" />
  <path
     id="home-sheet-frame-line2"
     d="m316.7 863.3-4.8162-107.33"
     fill="none"
     stroke="#808184"
     stroke-miterlimit="10"
     stroke-width="1.3529" />
  <text
     id="home-project-name"
     x="344.16904"
     y="804.54724"
     fill="#000000"
     font-family="sans-serif"
     font-size="40px"
     letter-spacing="0px"
     word-spacing="0px"
     style="line-height:1.25"
     xml:space="preserve"><tspan
       id="tspan10"
       x="344.16904"
       y="804.54724"
       font-family="Lato"
       font-weight="200">Project name: Home</tspan></text>
  <text
     id="home-deployment-date"
     x="345.6557"
     y="839.05487"
     fill="#000000"
     font-family="sans-serif"
     font-size="40px"
     letter-spacing="0px"
     word-spacing="0px"
     style="line-height:1.25"
     xml:space="preserve"><tspan
       id="tspan13"
       x="345.6557"
       y="839.05487"
       font-family="Lato"
       font-size="26.667px"
       font-weight="200">Deployment date: ##date##</tspan></text>
  <path
     id="home-logo-hair"
     d="m87.322 775.65c2.2152 0.0435 21.711-1.763 28.398 1.173 6.6869 2.9359 5.7092 3.2238 9.7702 6.4673-0.64745-1.9182-0.0847-0.29843-1.3661-2.1148 4.6678 2.1825 11.377 5.2862 12.864 13.21 3.9432 3.2417 5.2744 4.9981 7.7808 11.357l-1.5562 26.034-3.5288-18.134s-4.4-3.8592-5.3069-7.638c-3.7688 0.30949-13.947-3.9209-17.059-2.2591-3.1122 1.6618-4.7925 3.0186-9.2888 1.12s-5.4585-1.45-10.408 1.0028c-3.4509 0.95377-11.848 5.185-11.848 5.185l-4.7468 20.435-1.246-26.601-6.0865-6.4459s0.84272-2.1452 4.1539-4.3333c3.3112-2.1881 5.3859-2.6351 5.3859-2.6351-3.4637-1.842-3.8391-2.9263-7.2065-4.5757 5.4874-6.0883 11.273-6.9188 14.063-6.7606-1.9248-1.0212-2.0887-2.3833-2.7688-4.4864z"
     fill="#231f20"
     stroke-width=".73135" />
  <path
     id="home-logo-left-eyebrow"
     d="m102.27 824.7c3.8141 1.0797 3.8802 0.56288 4.9638 0.6853-0.0153 0.85057-0.0698 2.0295-1.5683 2.2544-1.4985 0.22491-19.25-2.5674-21.71-1.0984 2.9844-6.0876 14.5-2.921 18.314-1.8413z"
     fill="#3e3734"
     stroke-width=".73135" />
  <path
     id="home-logo-right-eyebrow"
     d="m122.18 823.7c-3.6095 1.6327-4.3973 1.2553-5.481 1.3574 0.0153 0.70937 0.45769 1.8355 1.9562 2.0231 1.4985 0.18758 12.993-6.7832 21.322-1.059-1.4922-2.5385-4.6001-5.8624-8.3288-5.7242-3.7288 0.13817-7.3673 2.4524-9.4682 3.4027z"
     fill="#3e3734"
     stroke-width=".73135" />
  <path
     id="home-logo-glasses"
     d="m130.84 825.58c-5.2406 0.0341-10.291 1.6316-15.435 2.2703-2.1469 0.26661-4.3595 0.33201-6.51 0.0841-2.8593-0.32971-5.6276-1.2052-8.485-1.5977-2.5537-0.35055-5.1392-0.71678-7.7088-0.73134-4.4906-0.026-8.8337 1.345-13.236 2.0853 0 1.2556-0.26169 2.8674 0.39652 3.7501 0.67893 0.91027 1.8242 1.7427 2.1212 2.9764 0.7044 2.9256 1.7046 5.7934 2.9834 8.5428 0.62148 1.3361 1.7943 2.2676 3.1042 2.9092 3.1541 1.5452 6.8871 1.7724 10.347 1.2865 4.9276-0.69197 7.601-4.2973 9.6405-8.4167 0.76341-1.6745 0.84851-3.6072 1.8539-5.1375 0.59709-0.9089 1.9838-0.52631 2.9746-0.52969 0.99113-4e-3 1.8312 1.604 2.1386 2.6739 1.0884 3.7863 2.9033 7.8033 6.5102 9.7871 5.3861 2.9627 13.872 2.4085 17.366-2.9344 1.3678-2.0912 1.7453-4.6282 2.4315-6.9956 0.41775-1.4413 0.79109-3.1597 2.2765-3.9519 0.59945-0.31989 0.17883-1.5958 0.26721-2.3376 0.0964-0.80801 0.28249-1.523-0.8967-1.6815-2.0567-0.27702-4.0517-1.1191-6.1567-1.4042-1.9947-0.27021-3.949-0.66069-5.9843-0.64758zm-34.646 1.3453c1.4877-9e-3 2.969 0.097 4.415 0.39523 8.6151 1.7769 8.7892 5.2382 5.2427 12.394-2.89 5.8307-8.8765 7.2917-14.909 5.8941-2.7809-0.64421-4.6822-2.537-5.5791-5.1289-0.9465-2.7358-1.6625-5.6423-1.5003-8.5178 0.21717-3.8503 4.6833-4.3914 7.8812-4.7422 1.4675-0.16093 2.9617-0.28508 4.4493-0.29431zm31.456 0c1.4877 8e-3 2.982 0.13338 4.4495 0.29431 3.1978 0.35078 7.6643 0.89191 7.8812 4.7422 0.16207 2.8755-0.55386 5.782-1.5005 8.5178-0.89669 2.5919-2.7982 4.4847-5.5789 5.1289-6.032 1.3976-12.019-0.0634-14.909-5.8941-3.5465-7.1558-3.3721-10.617 5.243-12.394 1.4459-0.2982 2.9271-0.40431 4.4147-0.39523z"
     fill="#3d3e40" />
  <path
     id="home-logo-luis"
     d="m289.33 776.57c-1.9727 0-3.7238 0.30349-5.2559 0.91211-1.5111 0.60867-2.7925 1.4287-3.8418 2.457-1.0283 1.0073-1.8157 2.1719-2.3613 3.4941s-0.81836 2.7062-0.81836 4.1543c0 1.8469 0.32597 3.3907 0.97656 4.6289 0.6506 1.2173 1.4995 2.2445 2.5488 3.084 1.0703 0.81847 2.2882 1.5012 3.6524 2.0469 1.3641 0.52469 2.7501 1.0168 4.1562 1.4785 1.4271 0.44072 2.8214 0.91428 4.1856 1.418 1.3641 0.48273 2.5718 1.0916 3.6211 1.8262 1.0703 0.73454 1.9314 1.647 2.582 2.7383 0.65059 1.0913 0.97461 2.4754 0.97461 4.1543 0 1.574-0.2727 3.0543-0.81836 4.4394-0.54567 1.3851-1.3432 2.603-2.3926 3.6524-1.0283 1.0284-2.2975 1.8465-3.8086 2.4551-1.5111 0.58762-3.2211 0.88086-5.1309 0.88085-1.3431 1e-5 -2.5508-0.12511-3.6211-0.37695-1.0494-0.27283-1.9823-0.5988-2.8008-0.97656-0.7975-0.39874-1.4905-0.81904-2.0781-1.2598-0.5876-0.4617-1.092-0.88005-1.5117-1.2578-0.41977-0.39875-0.76623-0.72471-1.0391-0.97656-0.25184-0.27283-0.45074-0.4082-0.59765-0.4082-0.1469 0-0.26175 0.03081-0.3457 0.09375-0.06297 0.04197-0.14702 0.11577-0.25196 0.2207l-0.41015 0.6289c0.77653 0.90247 1.5844 1.7103 2.4238 2.4238 0.86047 0.71358 1.7953 1.3225 2.8027 1.8262 1.0283 0.48269 2.1397 0.84972 3.3359 1.1016 1.2173 0.27282 2.5724 0.41015 4.0625 0.41015 2.1827 0 4.1243-0.33621 5.8242-1.0078 1.7209-0.6926 3.1685-1.6275 4.3438-2.8027 1.1962-1.1963 2.0984-2.5906 2.707-4.1856 0.6296-1.616 0.94335-3.3382 0.94335-5.1641 1e-5 -1.7839-0.32401-3.2725-0.9746-4.4688-0.6506-1.2173-1.5117-2.2362-2.582-3.0547-1.0703-0.81846-2.2882-1.489-3.6523-2.0137-1.3431-0.54569-2.7272-1.05-4.1543-1.5117-1.4271-0.48271-2.8234-0.97678-4.1875-1.4805-1.3431-0.50367-2.5488-1.1229-3.6191-1.8574s-1.9314-1.6367-2.582-2.707c-0.6506-1.0913-0.97656-2.4446-0.97656-4.0606 0-1.2593 0.23164-2.4546 0.69336-3.5879 0.46167-1.1543 1.1444-2.1732 2.0469-3.0547 0.9024-0.88144 2.0137-1.5744 3.3359-2.0781 1.3431-0.52467 2.8748-0.78711 4.5957-0.78711 1.6999 0 3.127 0.21112 4.2812 0.63086 1.1543 0.39872 2.0995 0.84983 2.834 1.3535 0.73452 0.50367 1.3005 0.96504 1.6992 1.3848 0.41974 0.39875 0.74571 0.59765 0.97656 0.59766 0.23086 0 0.40924-0.10459 0.53516-0.31446l0.37695-0.6914c-1.4901-1.5111-3.0955-2.6244-4.8164-3.3379-1.6999-0.71353-3.6621-1.0703-5.8867-1.0703zm-92.672 0.50586v27.639c0 2.3925 0.37923 4.6396 1.1348 6.7383 0.75553 2.0777 1.836 3.8923 3.2422 5.4453 1.4061 1.5531 3.1161 2.7812 5.1309 3.6836 2.0148 0.88147 4.2824 1.3223 6.8008 1.3223 2.5185 0 4.7738-0.4408 6.7676-1.3223 2.0147-0.9024 3.7247-2.1305 5.1309-3.6836 1.4271-1.553 2.5179-3.3676 3.2734-5.4453 0.75553-2.0987 1.1348-4.3457 1.1348-6.7383v-27.639h-1.7637v27.639c0 2.1827-0.33621 4.2289-1.0078 6.1387-0.6506 1.8888-1.6041 3.5372-2.8633 4.9434-1.2382 1.4061-2.7596 2.5175-4.5645 3.3359-1.7839 0.79754-3.8198 1.1973-6.1074 1.1973s-4.3338-0.39973-6.1387-1.1973c-1.8049-0.81846-3.3384-1.9298-4.5976-3.3359-1.2382-1.4271-2.1917-3.0961-2.8633-5.0059-0.65059-1.9098-0.97656-3.956-0.97656-6.1387v-27.576h-1.7324zm56.207 0.00195v44.262h1.7305v-44.262h-1.7305zm-95.16 0.00196v44.262h23.674v-1.5117h-21.943v-42.75h-1.7305z" />
  <path
     id="home-logo-alejandro"
     d="m292.53 827.76c-2.8236 0-5.0042 0.72248-6.543 2.166-1.5229 1.4277-2.2832 3.5287-2.2832 6.3047s0.76034 4.8865 2.2832 6.3301c1.5387 1.4277 3.7194 2.1406 6.543 2.1406s5.0062-0.72053 6.5449-2.1641 2.3066-3.5464 2.3066-6.3066-0.76791-4.8612-2.3066-6.3047-3.7213-2.166-6.5449-2.166zm-80.857 0.28711v10.66c0 0.74554-0.14221 1.2765-0.42774 1.5938-0.26967 0.31726-0.69065 0.47461-1.2617 0.47461-0.57106 0-0.99962-0.15735-1.2852-0.47461-0.26968-0.31727-0.4043-0.84822-0.4043-1.5938v-0.19141h-4.9258v0.21485c0 0.64345 0.06519 1.2269 0.17969 1.7637h-8.8281v-2.498h7.6133v-3.7598h-7.6133v-2.2598h8.8984v-3.9258h-14.156v16.369h14.324v-3.0742c0.28937 0.77479 0.72738 1.4124 1.3184 1.9062 1.1739 0.96767 2.8558 1.4512 5.0449 1.4512 2.1891 0 3.8635-0.4835 5.0215-1.4512 1.1739-0.96766 1.7598-2.4752 1.7598-4.5215v-10.684h-5.2578zm-47.992 0.00195-5.9727 16.371h5.3789l0.68945-2.3086h5.7344l0.68945 2.3086h5.4512 0.11719 13.541v-4.1875h-8.4004v-12.182h-5.2578v16.049l-5.8555-16.051h-6.1152zm58.561 0-5.9726 16.371h5.377l0.69141-2.3086h5.7344l0.68946 2.3086h5.5684 4.7148v-7.9473l6.877 7.9473h4.5918v-16.371h-4.8301v8.0664l-6.877-8.0664h-4.5918v16.055l-5.8574-16.055h-6.1152zm29.738 0v16.371h7.0918c5.7265 0 8.5898-2.7287 8.5898-8.1855 0-5.4569-2.8633-8.1836-8.5898-8.1836l-7.0918-0.00195zm16.414 0v16.371h5.2578v-5.9726h1.9512l2.9024 5.9726h5.9023l-3.6406-6.8535c1.0311-0.38074 1.8161-0.97421 2.3555-1.7832 0.53935-0.809 0.8086-1.7135 0.8086-2.7129 0-0.90413-0.21427-1.7385-0.64258-2.5-0.41247-0.7773-1.0382-1.3879-1.8789-1.832-0.82486-0.46003-1.8242-0.68945-2.998-0.68945h-10.018zm24.137 3.6367c1.1263 0 1.9834 0.3413 2.5703 1.0234 0.60279 0.68214 0.9043 1.6018 0.9043 2.7598v1.5234c0 1.158-0.30151 2.0776-0.9043 2.7598-0.58693 0.68214-1.444 1.0234-2.5703 1.0234-1.1263 0-1.9814-0.3413-2.5684-1.0234-0.58693-0.68213-0.88086-1.6018-0.88086-2.7598v-1.5234c0-1.158 0.29393-2.0776 0.88086-2.7598 0.58693-0.68213 1.4421-1.0234 2.5684-1.0234zm-18.879 0.09961h3.4512c0.41247 0 0.76134 0.1422 1.0469 0.42773 0.28554 0.28557 0.42773 0.64201 0.42773 1.0703 0 0.42834-0.14219 0.79431-0.42773 1.0957-0.28556 0.28553-0.63444 0.42773-1.0469 0.42773h-3.4512v-3.0215zm-16.412 0.1914h1.7363c2.2049 0 3.3066 1.1813 3.3066 3.5449v1.4277c0 2.3636-1.1017 3.5449-3.3066 3.5449h-1.7363v-8.5176zm-90.631 0.64063h0.0957l1.7129 5.8301h-3.5469l1.7383-5.8301zm58.561 0h0.09375l1.7129 5.8301h-3.5449l1.7383-5.8301z" />
  <path
     style="fill:#333333;stroke-width:0.53083569"
     d="m 754.43838,733.84872 c -0.19552,-0.20579 -0.15733,-8.87187 0.0849,-19.25797 0.24236,-10.38608 0.29934,-18.52898 0.127,-18.09529 -0.17237,0.43367 -1.01941,1.45925 -1.88239,2.27909 -0.86295,0.81983 -1.73446,2.11182 -1.93673,2.87109 -0.5175,1.94279 -1.80405,4.22409 -3.17352,5.62737 -1.48817,1.52492 -3.29515,1.08884 -4.33044,-1.04509 -0.9682,-1.99552 -1.55965,-1.96993 -2.02613,0.0876 -0.55588,2.45228 -2.51335,5.17406 -3.69933,5.14377 -1.42281,-0.0363 -2.73635,-2.56708 -3.49561,-6.73505 -0.59914,-3.28903 -1.46015,-5.13575 -1.50867,-3.23591 -0.0118,0.46155 -1.03434,1.88325 -2.27239,3.15936 -2.24182,2.31081 -3.84385,2.81039 -6.06645,1.89174 -1.11455,-0.46068 -2.82712,-4.07152 -2.82648,-5.95939 8.8e-4,-2.37272 -0.54974,-3.26893 -2.7372,-4.45548 -1.13047,-0.61319 -2.10051,-1.05989 -2.15575,-0.99271 -0.0551,0.0671 -0.69275,2.38408 -1.41665,5.14864 -1.51253,5.77611 -2.42935,7.35755 -3.75343,6.47433 -0.5888,-0.39279 -1.1566,-2.34946 -1.74807,-6.02391 -0.72831,-4.52439 -1.00316,-5.34201 -1.63005,-4.84827 -0.41466,0.32665 -0.75873,0.78126 -0.76458,1.01028 -0.006,0.22899 -1.09769,1.98248 -2.42625,3.89663 -2.64389,3.80921 -5.36229,5.87577 -8.56278,6.50949 -2.54391,0.5037 -3.81165,-0.13017 -4.96224,-2.48156 -1.99909,-4.0852 -1.57121,-9.1849 1.03223,-12.30384 0.71609,-0.85787 1.84795,-2.21592 2.51525,-3.01789 1.0996,-1.32153 1.42308,-1.41892 3.45283,-1.03974 2.00012,0.37362 2.28961,0.6193 2.70724,2.29763 0.83928,3.37312 -2.35265,9.58916 -6.52099,12.69901 -1.61083,1.20181 -1.37249,1.73977 0.7681,1.73359 1.77679,-0.005 4.80242,-1.60816 6.17326,-3.27068 1.83607,-2.22679 4.92243,-6.79756 6.2217,-9.21408 1.93496,-3.59888 2.83466,-4.60785 3.49714,-3.92186 0.40032,0.41455 0.37742,1.05967 -0.081,2.2732 -0.60343,1.59842 -0.22675,8.21627 0.65361,11.49226 0.539,2.00532 2.57873,-3.90438 3.35343,-9.71613 0.81051,-6.08029 1.02334,-6.87698 1.8314,-6.85634 0.65843,0.0168 0.75318,0.55894 0.49956,2.85861 -0.33771,3.06226 0.28085,4.45136 2.52746,5.67558 1.31637,0.71731 1.16398,0.92484 2.3369,-3.18262 0.72336,-2.53322 2.30046,-4.62481 3.46474,-4.59508 1.30313,0.0333 2.84195,1.66113 3.12797,3.3089 0.39143,2.25511 -1.5228,5.44663 -3.89903,6.50076 -1.9664,0.87233 -2.27478,2.09194 -1.39074,5.50056 1.09675,4.22868 4.31356,3.37619 8.10757,-2.14864 1.35283,-1.96996 1.41498,-2.31201 1.10475,-6.07838 -0.60281,-7.31816 -0.16006,-15.63169 1.18032,-22.1644 1.31198,-6.39443 1.84047,-7.62652 3.05566,-7.12425 1.33604,0.55221 1.84033,3.68139 1.93034,11.97702 0.0945,8.71762 -0.47934,12.9072 -2.52273,18.41707 -0.5801,1.56419 -1.06827,3.70231 -1.08483,4.75138 -0.038,2.40648 1.53434,8.73447 2.23301,8.98735 0.46607,0.16872 1.17193,-1.11779 3.08129,-5.61594 0.30665,-0.72231 0.69005,-2.95571 0.85203,-4.96312 0.69224,-8.57716 7.24691,-11.25919 9.40479,-3.84822 0.30732,1.05542 0.7319,2.11856 0.94353,2.36252 0.71097,0.81948 3.73893,-5.07859 4.21029,-8.20107 0.25023,-1.65728 0.62004,-3.10956 0.82191,-3.22731 0.97647,-0.56956 2.23786,1.72678 4.7177,8.58863 1.84239,5.09804 1.80692,5.04871 1.90778,2.65025 0.12795,-3.03586 1.08691,-5.31991 3.52759,-8.39967 2.75559,-3.47722 4.25733,-4.13592 6.04713,-2.65255 0.73446,0.60872 1.32159,1.50727 1.30466,1.99672 -0.0444,1.28489 -1.42218,4.76487 -2.16662,5.47224 -0.34961,0.33214 -0.64301,0.89445 -0.65208,1.24955 -0.009,0.35509 -0.20547,0.72046 -0.43652,0.81192 -0.45575,0.18043 -2.96946,4.08373 -2.63541,4.09226 0.11195,0.003 1.26863,-0.41953 2.57048,-0.93863 2.73424,-1.09027 6.90151,-5.39498 6.95225,-7.18155 0.0214,-0.83907 0.34941,-1.18583 1.09525,-1.16678 0.90288,0.0231 1.0523,0.38087 1.00082,2.39641 -0.0439,1.71763 0.19148,2.50944 0.85574,2.87883 1.44799,0.80518 4.22241,0.19857 5.75573,-1.25832 1.20467,-1.1447 1.36685,-1.64393 1.13582,-3.49713 l -0.2695,-2.16178 1.04539,1.35422 c 1.59654,2.06832 1.32551,4.81477 -0.65293,6.61563 -1.42997,1.30162 -2.03387,1.4736 -5.02555,1.43126 l -3.40025,-0.0481 -0.45124,3.62708 c -0.54048,4.3445 -0.81477,5.10223 -1.83746,5.07611 -0.65596,-0.0168 -0.69973,-0.79389 -0.27688,-4.9189 l 0.50214,-4.89901 -1.29268,1.029 c -0.71103,0.56595 -1.41586,1.17171 -1.56635,1.34618 -0.67098,0.77787 -3.71695,1.89829 -5.90356,2.17157 -3.55898,0.44482 -4.67436,1.56746 -5.39873,5.43373 -0.9539,5.09135 -1.96992,5.54803 -5.28109,2.37374 l -1.16623,-1.11801 -0.13795,3.40785 c -0.90124,22.26555 -1.09339,24.18569 -2.2935,22.92267 z m 6.6777,-26.25902 c 0.0106,-0.41393 0.17701,-1.13443 0.36996,-1.60115 0.30547,-0.73903 0.16921,-0.77138 -1.05561,-0.25066 -1.57245,0.66852 -1.70313,0.98249 -0.80316,1.92967 0.83172,0.8753 1.46532,0.84216 1.48881,-0.0778 z m -12.62511,-4.66276 c 0.0115,-0.45164 -0.66479,-0.5769 -2.24616,-0.41599 -1.24447,0.12669 -2.30289,0.25609 -2.35202,0.28767 -0.0491,0.0316 0.23298,0.88198 0.62701,1.88982 l 0.71633,1.83238 1.61919,-1.47384 c 0.89048,-0.81061 1.62657,-1.76464 1.63565,-2.12004 z m -53.01686,-3.01504 c 3.83132,-4.63541 5.22387,-9.04249 2.87616,-9.10245 -3.12523,-0.0798 -5.65633,2.67213 -6.34618,6.89994 -0.40397,2.47538 -0.0847,5.14901 0.6166,5.16692 0.2172,0.006 1.50122,-1.32844 2.85342,-2.96441 z m 65.36495,2.93139 c 1.19033,-0.88846 1.19216,-1.40937 0.0192,-5.51541 -0.86624,-3.03202 -2.87408,-7.76367 -3.02279,-7.12317 -0.0334,0.14516 -0.22586,3.24303 -0.42704,6.88417 -0.4366,7.90111 -0.13144,8.41306 3.43065,5.75441 z m -13.09304,-2.63996 c 1.68916,-0.75321 1.90391,-1.07215 1.95052,-2.89709 0.0799,-3.12866 -1.50573,-5.75485 -3.50553,-5.80592 -0.61615,-0.0157 -1.6758,3.17447 -2.14248,6.45014 -0.40632,2.85182 -0.36359,3.04401 0.68294,3.07074 0.61402,0.0157 1.97054,-0.35238 3.01455,-0.81787 z m 21.13501,-5.56642 c 2.57935,-3.35009 4.02563,-6.68201 3.38056,-7.78796 -1.29813,-2.22553 -6.14358,3.5868 -6.8852,8.25918 -0.59144,3.72594 0.37295,3.59626 3.50464,-0.47122 z m -42.59492,-1.46547 c 0.84094,-1.04752 0.96602,-3.56633 0.20188,-4.06599 -0.90346,-0.59077 -2.5249,1.35993 -2.99155,3.599 -0.40988,1.96663 -0.38005,2.02546 0.84727,1.67015 0.69962,-0.20255 1.57368,-0.74397 1.94236,-1.20316 z m 10.41451,-5.58393 c 0.66025,-3.92768 0.83642,-14.99154 0.29003,-18.21092 -0.35241,-2.07615 -0.75487,-1.27715 -1.44133,2.86132 -0.78012,4.7034 -1.36018,20.13783 -0.77971,20.7487 0.63272,0.6659 1.15866,-0.80467 1.93101,-5.3991 z m -489.52137,22.62998 c 0.16991,-1.09087 0.72885,-4.24272 1.24208,-7.00414 1.33762,-7.19724 1.90947,-12.16658 1.39979,-12.16375 -0.24234,0.002 -1.30791,1.2157 -2.36799,2.69856 -4.15631,5.81414 -8.65699,8.53303 -10.65104,6.43445 -0.44723,-0.47069 -0.94662,-0.40673 -2.02135,0.25888 -3.72163,2.30487 -6.29026,-1.83992 -5.72866,-9.24387 0.18115,-2.38919 0.18542,-4.26 0.009,-4.15734 -0.17599,0.1027 -1.38772,2.14976 -2.69275,4.54912 -2.86406,5.26581 -6.26859,10.08829 -6.99145,9.90333 -0.80623,-0.20629 -0.39208,-4.73331 0.78303,-8.55934 1.11032,-3.61507 1.71184,-8.98343 1.00859,-9.00139 -0.75144,-0.0192 -1.50332,1.21747 -4.10218,6.74727 -2.81157,5.98235 -4.32724,7.90568 -6.19254,7.85804 -1.25007,-0.0319 -1.56344,-0.71507 -1.79598,-3.91534 -0.0961,-1.32361 -0.37517,-1.05096 -2.60004,2.54092 -2.69799,4.35569 -5.48958,6.71716 -8.518,7.20561 -3.99204,0.64387 -6.30878,-2.61476 -5.61906,-7.90362 0.7488,-5.74189 6.11911,-15.48607 11.59046,-21.03034 3.58587,-3.63364 7.15257,-3.92955 8.70855,-0.72248 0.43304,0.89256 1.00827,1.49396 1.27827,1.33646 0.27002,-0.15755 0.93588,0.11483 1.47971,0.60502 0.81915,0.73846 0.88232,1.10651 0.36824,2.14533 -0.34129,0.68968 -0.81577,1.25082 -1.0544,1.247 -0.23859,-0.005 -0.30502,0.43806 -0.14754,0.98194 0.15746,0.54389 -0.0927,1.67253 -0.55602,2.50809 -0.46325,0.83557 -0.85374,1.90979 -0.86772,2.38714 -0.0132,0.47737 -0.39964,1.5428 -0.85699,2.36765 -0.8458,1.52545 -1.32266,7.60756 -0.59552,7.59567 0.70687,-0.0117 2.18776,-2.30866 3.71823,-5.76764 3.27831,-7.40921 3.97266,-8.35647 6.08577,-8.3025 2.41536,0.0617 2.58957,2.23359 0.76016,9.47776 -1.79307,7.10025 -0.97588,6.44798 3.82509,-3.05326 4.82046,-9.53974 6.08498,-9.48057 4.97235,0.2327 -0.52621,4.59406 -0.18562,7.42422 1.11657,9.29658 0.72499,1.04189 0.77571,1.03281 2.3836,-0.4266 0.9036,-0.82014 2.27935,-2.75116 3.05725,-4.29117 0.77792,-1.54002 2.79928,-4.576 4.49193,-6.7466 2.63696,-3.38157 3.27714,-3.91803 4.47173,-3.74717 0.87558,0.12524 1.81263,0.85822 2.51918,1.9706 0.7279,1.14598 1.26458,1.55781 1.52035,1.16667 0.21743,-0.33252 0.79404,-7.19523 1.28132,-15.25048 0.48731,-8.05526 1.0961,-14.85743 1.35287,-15.11595 0.27736,-0.27924 0.77279,-0.20267 1.22049,0.18865 0.92559,0.80897 0.79867,14.24087 -0.20119,21.29422 -0.35065,2.47351 -1.11586,8.4125 -1.70049,13.19775 -0.58463,4.78528 -1.54017,11.028 -2.12343,13.87272 -0.70818,3.45399 -0.87749,5.23846 -0.50967,5.3716 0.80885,0.29276 -1.21188,2.99388 -2.22051,2.96812 -0.6622,-0.0169 -0.77424,-0.44031 -0.53055,-2.00483 z m -46.04536,-9.45212 c 1.42941,-0.88526 3.75139,-3.60479 3.77216,-4.418 0.007,-0.26795 0.38145,-0.77785 0.83246,-1.1331 0.45102,-0.35526 0.78539,-0.91362 0.74306,-1.24081 -0.0425,-0.32719 0.19405,-1.18534 0.52552,-1.90702 3.30936,-7.20725 4.64374,-11.15095 4.52816,-13.38275 -0.1237,-2.38866 -0.92428,-4.04849 -1.96551,-4.07509 -0.80945,-0.0207 -5.22471,2.12348 -5.23541,2.54244 -0.005,0.19999 -0.77184,1.27309 -1.70384,2.38465 -0.932,1.11156 -2.13116,2.84621 -2.66478,3.85476 -0.53364,1.00857 -1.6082,2.89275 -2.38793,4.18709 -3.10042,5.14668 -4.25727,11.7461 -2.40141,13.69926 1.12261,1.18146 3.56225,0.97202 5.95752,-0.51143 z m 40.14857,-3.02329 c 1.16124,-0.54281 1.87285,-1.00619 1.5814,-1.02975 -0.34412,-0.0278 -0.33633,-0.17466 0.0224,-0.41884 1.58103,-1.07675 4.63319,-5.13439 4.66029,-6.19555 0.0414,-1.61992 -2.13616,-3.16358 -3.49731,-2.47923 -1.13334,0.56983 -6.22381,8.86003 -6.25782,10.19134 -0.0296,1.15727 0.90927,1.13898 3.49123,-0.068 z m 5.85988,-12.61569 c 0.007,-0.29187 -0.23935,-0.53713 -0.54845,-0.54502 -0.30907,-0.008 -0.42047,0.22822 -0.24754,0.52469 0.17293,0.29647 0.41971,0.54173 0.54842,0.54502 0.1287,0.003 0.24011,-0.23283 0.24757,-0.52469 z m 49.47592,27.2703 c -0.19533,-0.33491 0.0411,-1.596 0.52532,-2.80242 0.73598,-1.83348 2.68544,-8.22966 2.70079,-8.86126 0.003,-0.10381 -1.72597,-0.25776 -3.84107,-0.34213 -4.63978,-0.18503 -7.48859,-1.21692 -12.56854,-4.55242 -2.11447,-1.38836 -4.48945,-2.94204 -5.27772,-3.45262 -1.28794,-0.83424 -1.83046,-2.19707 -1.13691,-2.85606 0.14302,-0.1359 1.99174,-0.0109 4.10822,0.27796 3.60474,0.49185 18.39967,-0.14487 21.51854,-0.9261 1.47646,-0.36982 2.06203,-2.0779 3.04741,-8.88928 0.67068,-4.63593 2.46185,-10.58792 3.41194,-11.33767 0.17924,-0.14145 0.76172,-1.08239 1.29444,-2.09098 0.5327,-1.00858 1.37298,-2.3611 1.86731,-3.0056 0.77473,-1.01013 0.7889,-1.17462 0.10277,-1.19215 -0.70014,-0.0179 -0.68982,-0.23953 0.0857,-1.84046 0.89192,-1.84128 2.80376,-2.86482 5.23506,-2.80272 1.79804,0.0459 2.98076,3.65498 2.4475,7.46848 -0.9462,6.76663 -4.02216,16.07987 -6.94136,21.01684 -1.54602,2.61463 -1.4226,3.21689 0.62229,3.03664 0.80034,-0.0705 1.74753,0.11915 2.10488,0.42141 0.44381,0.37547 0.65455,0.36091 0.66494,-0.0459 0.0253,-0.99126 1.00195,-0.64357 1.61448,0.57475 0.75068,1.49309 0.16697,1.82479 -4.45002,2.52875 -2.87254,0.43799 -3.74949,0.40811 -4.38748,-0.14957 -0.67561,-0.59048 -1.16835,-0.31296 -3.22702,1.81735 -2.83127,2.92983 -3.42623,4.14093 -6.00638,12.22621 -1.81943,5.70144 -2.70807,7.16242 -3.51503,5.77893 z m 2.7984,-15.1272 c 2.01985,-1.27168 2.69872,-2.28158 2.74473,-4.08305 0.0406,-1.59009 -0.0195,-1.63298 -2.08601,-1.48903 -1.1703,0.0815 -2.13157,0.30222 -2.13617,0.49048 -0.005,0.18824 -1.6207,0.31263 -3.59137,0.27639 -1.97067,-0.0354 -5.33089,-0.01 -7.4672,0.0591 -3.31568,0.10669 -3.75081,0.22784 -2.97295,0.8277 0.50119,0.3865 1.18678,0.70976 1.52357,0.71836 0.33677,0.009 1.00799,0.47593 1.49157,1.03852 0.77108,0.89706 2.75087,1.68571 6.3631,2.53477 2.408,0.56602 4.87771,0.41566 6.13073,-0.37325 z m -0.43881,-4.18157 c 0.37452,-0.42853 0.88302,-0.77397 1.12998,-0.76766 0.24698,0.006 0.30244,0.36615 0.12328,0.79967 -0.17918,0.4335 -0.68767,0.77894 -1.12998,0.76764 -0.65467,-0.0167 -0.67758,-0.16549 -0.12328,-0.79965 z m 10.53169,-5.14064 c 3.23484,-3.31642 7.82536,-15.20148 8.53692,-22.10242 0.62207,-6.03334 0.38223,-6.49214 -2.3291,-4.45518 -1.19088,0.89469 -2.17377,1.96049 -2.18419,2.36848 -0.0104,0.40797 -1.0406,2.81086 -2.28928,5.33975 -1.84444,3.73539 -2.43813,5.68946 -3.1647,10.41623 -0.49189,3.20003 -1.14053,6.57058 -1.44141,7.49009 -0.88716,2.71115 0.65362,3.21715 2.87176,0.94305 z m 177.85718,23.66993 c -0.49586,-0.52185 -0.29513,-5.50272 0.38784,-9.62355 0.32254,-1.94605 0.75895,-5.05006 0.96983,-6.89776 0.34734,-3.04351 0.28452,-3.38805 -0.66799,-3.66329 -1.22348,-0.35356 -1.26535,-0.64416 -0.2718,-1.88584 0.97466,-1.21808 2.24412,-1.11613 3.15197,0.25313 0.84476,1.27407 0.6181,4.57519 -0.77468,11.28294 -0.47415,2.28357 -0.88,4.85281 -0.90188,5.70943 l -0.0398,1.5575 1.36054,-1.29278 c 0.7483,-0.71102 1.36716,-1.5522 1.37525,-1.86926 0.008,-0.31707 0.52563,-2.04712 1.15007,-3.84457 0.62444,-1.79745 1.3673,-5.15441 1.6508,-7.45994 0.86365,-7.02325 1.95631,-5.63546 2.52545,3.2075 0.11298,1.75522 0.50259,3.55732 0.86584,4.00468 0.36324,0.44736 0.92563,1.71806 1.24976,2.82378 0.89357,3.04836 2.09612,3.43952 4.37957,1.42457 2.21808,-1.95727 3.20735,-3.68035 4.54167,-7.91054 0.8445,-2.67731 0.90381,-3.61794 0.43458,-6.89201 -0.90795,-6.33539 -0.4128,-15.84757 1.0752,-20.65503 2.12279,-6.85837 4.45625,-9.38662 5.27794,-5.71849 0.47326,2.1127 -1.57518,19.8782 -2.8606,24.8091 -1.07476,4.12284 -1.09845,5.90651 -0.12236,9.21539 0.89725,3.04165 2.15803,4.56254 3.41316,4.11732 0.7067,-0.25068 0.85974,-1.49573 0.99378,-8.08529 0.19525,-9.59906 1.37292,-15.94404 4.50945,-24.29584 1.27161,-3.38601 2.60011,-7.02134 2.95223,-8.07854 0.46132,-1.38516 1.15431,-2.15141 2.48039,-2.74271 2.82795,-1.26097 3.31186,-0.47951 3.1689,5.11763 -0.23588,9.23568 -2.13163,16.41952 -8.05939,30.54079 l -2.52571,6.01681 1.24556,4.25513 c 0.79793,2.72589 1.07405,4.54403 0.76832,5.05902 -0.38614,0.65044 -0.68094,0.44974 -1.5443,-1.05142 -0.58686,-1.02044 -1.06375,-2.0189 -1.05974,-2.21882 0.004,-0.19991 -0.22373,-1.02126 -0.50611,-1.82518 -0.3902,-1.11091 -0.66526,-1.31736 -1.14625,-0.86035 -1.69094,1.60673 -4.61018,-0.15596 -6.24957,-3.77355 l -0.71125,-1.56949 -1.62503,3.51361 c -1.79354,3.87798 -4.52438,6.89115 -6.20655,6.84818 -1.78291,-0.0455 -3.60112,-1.17812 -4.32056,-2.6913 -0.37099,-0.78037 -1.16246,-1.96056 -1.75878,-2.62264 l -1.08423,-1.20377 -0.96493,2.80887 c -1.38773,4.03962 -5.16048,7.6043 -6.52659,6.16658 z m 33.48861,-19.63276 c 1.22639,-2.96223 2.42987,-5.85869 2.67443,-6.43655 0.52675,-1.24474 0.42305,-0.94178 2.25234,-6.58008 1.06761,-3.29063 1.58661,-6.30177 1.95916,-11.36666 l 0.50681,-6.89016 -2.53319,2.59034 c -1.8369,1.87831 -2.46507,2.89639 -2.2853,3.70369 0.13636,0.61235 -0.0192,1.92263 -0.3457,2.91172 -1.81663,5.50375 -2.97411,10.09383 -3.31489,13.14555 -0.21147,1.89296 -0.53725,3.55732 -0.72415,3.69857 -0.28535,0.21565 -0.78636,10.60137 -0.5117,10.60742 0.0509,10e-4 1.09582,-2.42161 2.32219,-5.38384 z m -8.94445,-10.30382 c 0.20963,-2.11963 0.56202,-5.76089 0.78321,-8.09167 0.22115,-2.3308 0.51335,-4.71486 0.64933,-5.29792 0.13602,-0.58308 0.0527,-1.39362 -0.1851,-1.80122 -0.31298,-0.53659 -0.54505,-0.2836 -0.84104,0.91685 -0.22481,0.91184 -0.60842,1.52736 -0.85246,1.36778 -0.61561,-0.40255 -0.91301,0.17986 -1.34234,2.62882 l -0.37002,2.11055 0.85264,-1.83675 0.85263,-1.83675 -0.36269,1.84926 c -0.55881,2.84916 -1.07844,12.79325 -0.76062,14.55594 0.26607,1.47575 0.31177,1.50237 0.73951,0.43094 0.25076,-0.62808 0.62738,-2.8762 0.83695,-4.99583 z M 616.753,714.61207 c -0.65202,-1.89909 -0.95756,-5.87866 -0.68542,-8.92769 l 0.30596,-3.42796 -1.96899,1.92463 c -2.78236,2.71964 -5.17313,3.66544 -8.20344,3.24528 -1.88493,-0.26136 -2.81452,-0.73631 -3.86574,-1.97508 l -1.38402,-1.63097 -1.50505,1.49271 c -0.82778,0.82099 -2.32653,1.74073 -3.33054,2.04389 -1.61125,0.4865 -1.96608,0.4122 -3.02336,-0.63315 -0.65883,-0.6514 -1.32547,-1.91947 -1.48142,-2.81796 l -0.28355,-1.63362 -1.2288,1.49942 c -4.03556,4.92443 -5.87585,5.93286 -8.34691,4.57399 -0.84948,-0.46717 -2.05784,-0.72906 -2.68524,-0.582 -0.86085,0.20179 -1.24388,-0.0434 -1.56113,-0.99756 -0.34147,-1.02752 -1.68327,-8.06447 -2.70289,-14.17515 -0.17428,-1.04449 -0.58265,-0.79259 -3.68438,2.27282 -3.11354,3.07706 -3.56464,3.78894 -4.19822,6.62499 -1.24495,5.5727 -4.08474,9.75665 -6.57653,9.6894 -2.04424,-0.0562 -4.76077,-2.0086 -4.77111,-3.43088 -0.005,-0.66154 -0.0942,-1.7357 -0.19885,-2.38703 -0.23837,-1.48475 1.2776,-2.87447 5.11235,-4.68655 4.40713,-2.08259 5.43052,-3.26623 5.16273,-5.97138 -0.12215,-1.23374 -0.66918,-3.03118 -1.21569,-3.99431 -1.06298,-1.87334 -0.81194,-1.80556 -8.06477,-2.17702 -6.49453,-0.33262 -9.28164,-2.69762 -9.23087,-7.83288 0.0617,-6.24181 3.09546,-10.40397 8.64888,-11.8657 4.43886,-1.16836 8.07559,-1.05764 8.99802,0.27393 0.4714,0.68048 0.53092,1.15873 0.1704,1.36901 -0.34769,0.20282 -0.28772,0.45035 0.16105,0.66459 0.39331,0.18774 -0.35496,0.13779 -1.66286,-0.11099 -3.71836,-0.70729 -6.98847,-0.55912 -9.1873,0.41632 -2.22926,0.98894 -4.27044,3.34912 -4.52615,5.23357 -0.0912,0.67128 -0.34971,1.96717 -0.5747,2.87974 -0.93789,3.80387 1.87547,6.41567 7.07957,6.57241 3.92555,0.11816 7.36536,1.08945 8.76754,2.47551 0.64984,0.64239 1.52225,2.46248 1.9387,4.04461 l 0.75715,2.87662 1.36087,-1.2049 c 0.7485,-0.66273 2.28479,-2.25663 3.41403,-3.54204 l 2.0531,-2.3371 -0.15132,-6.64148 -0.15134,-6.64147 -1.85054,-0.31277 c -1.40994,-0.2383 -1.84409,-0.56545 -1.82344,-1.37409 0.0223,-0.87445 0.38088,-1.05229 2.03621,-1.01001 1.8855,0.0482 3.3226,-0.9152 2.77243,-1.85843 -0.12608,-0.21602 0.0177,-0.53656 0.31874,-0.71231 0.30131,-0.17576 0.56036,-0.006 0.5757,0.37627 0.0153,0.38269 0.25145,0.0134 0.52474,-0.82161 0.27327,-0.8346 0.37788,-2.20311 0.2325,-3.04118 -0.49201,-2.83446 2.75038,-5.77285 4.84398,-4.38984 0.88841,0.58687 2.00426,3.63223 2.60591,7.11206 0.33459,1.93505 1.556,2.48728 4.60028,2.07993 1.58706,-0.21236 1.99379,-0.0981 1.9771,0.5553 -0.0207,0.80985 -2.19476,1.69076 -4.80752,1.94795 -1.08733,0.10697 -1.52182,0.6989 -2.56087,3.48843 -0.68826,1.84774 -2.54198,5.14575 -4.11938,7.32892 -1.57739,2.18316 -2.8832,4.47081 -2.90177,5.08369 -0.0456,1.51078 1.94771,13.09003 2.41193,14.00957 0.24569,0.48669 1.1903,-0.81003 2.79312,-3.83425 1.91803,-3.61892 3.03618,-5.04446 5.37448,-6.8519 1.62392,-1.25524 3.32419,-2.20081 3.77838,-2.10126 0.45417,0.0995 1.15665,1.14381 1.56102,2.32057 0.40439,1.17676 0.94086,2.28943 1.19219,2.47262 0.25129,0.18318 0.24961,1.99959 -0.004,4.03644 -0.57444,4.61795 0.0143,6.21589 2.0294,5.50808 2.11798,-0.74394 3.68199,-2.49002 6.25885,-6.98749 2.3508,-4.10292 4.86123,-7.05624 5.97392,-7.02782 0.31038,0.008 0.88079,0.82966 1.26754,1.82607 0.38676,0.99642 0.9622,1.98104 1.27877,2.18804 0.83642,0.54695 0.6514,3.50168 -0.21797,3.47947 -0.81383,-0.0208 -2.11493,-1.46697 -2.56709,-2.85336 -0.16809,-0.51538 -0.50229,-0.94209 -0.74267,-0.94823 -0.53251,-0.0136 -4.53747,6.3586 -4.56039,7.25594 -0.0355,1.3898 2.49754,3.31155 4.42997,3.36091 2.60306,0.0665 4.43505,-0.92718 7.38231,-4.00412 2.24486,-2.34364 2.54463,-2.9482 2.94314,-5.9355 0.24404,-1.82933 0.84351,-5.70538 1.33217,-8.61344 0.48865,-2.90807 1.03745,-7.31471 1.21956,-9.79253 0.37182,-5.05875 0.88622,-7.02023 1.75671,-6.69847 0.3839,0.14189 0.54964,2.15153 0.4736,5.74217 -0.0643,3.03812 0.11286,6.84398 0.39377,8.45745 0.87915,5.04964 0.33498,8.99992 -1.7025,12.35911 -1.20477,1.98626 -1.91238,3.94202 -2.16842,5.99329 l -0.38006,3.04488 1.43961,-1.45087 c 0.79178,-0.79799 1.44246,-1.5627 1.44595,-1.6994 0.003,-0.13664 0.67305,-1.24232 1.48793,-2.45693 0.81489,-1.21461 3.08289,-5.15076 5.04002,-8.74697 1.95713,-3.59622 3.75585,-6.65668 3.99716,-6.80102 0.24133,-0.14434 0.57028,-0.737 0.73104,-1.31699 0.26758,-0.96548 0.29492,-0.95459 0.32364,0.1289 0.057,2.14788 -3.34612,9.52787 -6.89778,14.95881 -0.61026,0.93314 -0.17052,2.07641 2.37179,6.16711 1.35423,2.17897 3.61665,3.30901 4.78398,2.38954 0.4468,-0.35195 0.82115,-0.98297 0.83185,-1.40225 0.0107,-0.41928 0.2545,-0.60865 0.54175,-0.4208 0.73515,0.48069 0.56652,2.49431 -0.29953,3.57665 -1.87595,2.34447 -5.98185,0.19791 -8.22196,-4.29842 -0.67067,-1.34617 -1.33922,-2.45022 -1.48567,-2.45343 -0.79309,-0.0163 -3.36052,4.90083 -3.72073,7.1275 -0.2304,1.42421 -0.76112,3.35735 -1.17938,4.29585 -0.76252,1.71092 -2.1708,2.24986 -2.60145,0.99557 z m 2.77303,-4.97376 c 0.28959,-0.87697 0.1751,-1.19029 -0.44052,-1.20601 -0.58195,-0.0149 -0.84478,0.48875 -0.87512,1.67687 -0.0463,1.81303 0.64292,1.56637 1.31564,-0.47086 z M 561.54692,708.954 c 1.23901,-0.90789 3.1698,-4.62665 3.60772,-6.94855 0.36574,-1.93931 0.35351,-1.95698 -0.88171,-1.27364 -0.68891,0.38111 -2.6019,1.39018 -4.25108,2.24238 -1.64915,0.85219 -3.07804,1.91246 -3.1753,2.35613 -0.16078,0.73345 2.71694,4.23678 3.49653,4.25669 0.18068,0.005 0.72239,-0.28024 1.20384,-0.63301 z m 24.35155,-3.0951 c 2.3466,-2.71884 3.31641,-3.97045 3.32459,-4.2906 0.005,-0.20467 0.49326,-1.01609 1.08455,-1.80314 0.80599,-1.07285 0.98224,-1.81979 0.70423,-2.98452 -0.56223,-2.35557 -2.20983,-2.33712 -4.17907,0.0468 -2.0861,2.52538 -5.11914,7.68939 -5.14655,8.76241 -0.0262,1.0254 3.37212,1.24244 4.21225,0.26905 z m 35.33409,-13.62915 c 0.81685,-2.62052 0.96221,-6.52075 0.28432,-7.63075 -0.41112,-0.67329 -0.50683,-0.63116 -0.56993,0.25095 -0.0418,0.58304 -0.16743,1.48115 -0.27932,1.9958 -0.11188,0.51467 -0.40905,2.65767 -0.66026,4.76223 -0.4886,4.09326 0.0567,4.37003 1.22509,0.62177 z m -40.91958,-11.47093 c 0.39077,-0.79317 0.8512,-1.43852 1.02317,-1.43413 0.17197,0.004 0.36041,-0.28949 0.41877,-0.65307 0.0584,-0.36358 0.27946,-1.58998 0.49137,-2.72532 0.32369,-1.73425 0.25121,-2.01669 -0.45337,-1.76676 -0.46127,0.16362 -1.81547,0.53394 -3.00934,0.82294 l -2.17066,0.52546 -0.11243,4.40172 c -0.0618,2.42095 0.0487,4.57123 0.24549,4.7784 0.42689,0.44926 2.56776,-1.92103 3.567,-3.94924 z m 0.82236,-9.17734 c 1.7376,-0.26274 2.00423,-0.47659 1.79888,-1.44264 -0.13258,-0.6238 -0.37797,-2.01812 -0.54526,-3.09852 -0.1673,-1.08038 -0.70673,-2.34777 -1.19871,-2.81642 -0.82678,-0.78755 -0.98169,-0.68351 -2.04515,1.37332 -0.63283,1.22398 -1.3023,3.24638 -1.48768,4.49424 -0.28778,1.93707 -0.20724,2.23441 0.55044,2.03365 0.48813,-0.12942 1.80551,-0.37396 2.92748,-0.54363 z m -115.27467,37.51376 c -0.30469,-0.86743 -0.24912,-3.34405 0.15281,-6.80961 0.34737,-2.99553 0.64534,-6.04343 0.66212,-6.77314 0.0293,-1.30554 0.0163,-1.30162 -0.85995,0.24355 -1.52101,2.68222 -4.09263,5.49288 -4.67643,5.11112 -0.30643,-0.20038 -0.41269,-0.11674 -0.23615,0.18598 0.45015,0.77177 -1.61468,2.4291 -2.39263,1.9204 -0.40976,-0.26794 -0.50445,-0.19049 -0.26629,0.21781 0.52551,0.90097 -3.13112,2.21031 -5.45115,1.95193 -1.44647,-0.16107 -1.91615,-0.47095 -2.02319,-1.33466 -0.10732,-0.8657 0.13206,-1.10973 1.03914,-1.05923 0.6482,0.0362 2.13811,-0.0813 3.31092,-0.26073 5.97721,-0.91477 12.03737,-11.48517 13.91846,-24.27717 l 0.40413,-2.74827 -3.86398,-1.23926 c -2.12517,-0.6816 -4.24772,-1.35244 -4.71676,-1.49076 -0.56882,-0.16768 -1.09387,0.29089 -1.57668,1.37719 -0.39812,0.89576 -1.48399,2.44429 -2.41305,3.44118 -3.28361,3.52339 -6.93913,4.79434 -10.34039,3.59511 -4.5442,-1.60221 -9.00549,-11.53699 -6.55674,-14.60112 0.62568,-0.78289 1.14845,-0.78146 5.97343,0.0163 7.30368,1.20758 15.62829,3.33417 20.83785,5.3232 1.78437,0.68127 2.38615,0.73327 2.71238,0.23439 0.23061,-0.35264 0.36899,-2.81538 0.30754,-5.47279 -0.0847,-3.65994 0.0797,-5.07754 0.67746,-5.84571 0.64978,-0.83491 0.90964,-0.88861 1.4706,-0.30389 0.50027,0.52142 0.60654,2.3237 0.39983,6.78057 l -0.28166,6.07037 1.71863,0.0359 c 2.1166,0.0441 8.22956,-1.1676 9.85853,-1.95463 1.22509,-0.59188 2.10819,-2.21564 1.89537,-3.48505 -0.0651,-0.38841 0.11099,-0.98129 0.39131,-1.31753 0.28036,-0.33624 0.69216,-1.49438 0.91513,-2.57364 0.38813,-1.87852 1.20351,-2.93485 1.78943,-2.31821 0.15174,0.15969 0.0814,0.58794 -0.1564,0.95162 -0.2378,0.36367 -0.48953,1.14974 -0.55939,1.74682 -0.60139,5.14032 -1.12952,7.53407 -1.82268,8.26177 -1.09234,1.14676 -7.09652,2.90423 -10.96215,3.20874 -3.42861,0.27006 -3.38742,0.22343 -4.05211,4.58755 l -0.40281,2.64475 4.14219,0.0806 c 3.36237,0.0655 4.17707,-0.0785 4.32744,-0.76449 0.11888,-0.54213 -0.15858,-0.82569 -0.7739,-0.79106 -0.533,0.0301 -0.95009,-0.29965 -0.93879,-0.74197 0.0126,-0.49174 0.51906,-0.78325 1.32511,-0.76267 1.14663,0.0293 1.31411,0.29102 1.38171,2.15934 0.10137,2.80202 -1.20743,10.82125 -1.82492,11.18141 -0.7523,0.43882 -0.85102,0.11915 -1.10033,-3.56237 -0.1282,-1.89319 -0.39833,-3.60459 -0.60031,-3.80308 -0.50245,-0.49378 -5.39665,-0.95345 -5.40803,-0.50792 -0.005,0.19669 0.28586,0.50232 0.64641,0.67921 0.36055,0.17687 0.14256,0.18179 -0.4845,0.0108 -1.48984,-0.40598 -1.69528,0.46309 -2.84999,12.05662 -0.66343,6.66107 -0.75181,9.22066 -0.32835,9.51151 0.41531,0.28531 0.41175,0.65205 -0.0127,1.2956 -0.93855,1.42346 -1.80744,1.39259 -2.32559,-0.0826 z M 452.5245,678.17346 c 1.31141,-0.59402 2.79496,-1.87591 3.70088,-3.19784 1.78186,-2.6001 1.92478,-3.57626 0.5288,-3.61192 -0.56014,-0.0143 -2.40519,-0.41928 -4.1001,-0.89992 -1.6949,-0.48065 -4.44947,-1.01309 -6.12124,-1.18321 -1.6718,-0.17015 -3.51246,-0.47277 -4.09038,-0.67258 -0.60212,-0.20816 -1.05694,-0.12142 -1.06523,0.20314 -0.008,0.31154 0.22433,0.57254 0.51619,0.57999 0.29187,0.007 0.51635,0.43135 0.49885,0.94201 -0.0273,0.79344 -0.10364,0.81079 -0.52595,0.11931 -0.85973,-1.40795 -0.66491,0.82546 0.26844,3.0772 0.45488,1.09745 0.77328,2.28887 0.70755,2.6476 -0.0706,0.3853 0.21826,0.53242 0.70582,0.35947 0.45392,-0.16102 0.83112,-0.52011 0.83822,-0.79798 0.007,-0.27785 0.25416,-0.34744 0.54904,-0.15462 0.29488,0.19282 0.46176,0.67579 0.37084,1.07325 -0.23876,1.04388 1.66147,2.38497 3.47273,2.45088 0.85617,0.0319 2.54167,-0.3895 3.74554,-0.93478 z m -70.32724,27.01256 c -1.92186,-1.63938 -2.16943,-3.27659 -1.07185,-7.0881 1.27886,-4.44096 3.97527,-8.36423 8.51351,-12.38717 7.19391,-6.37709 11.09276,-5.95668 13.13523,1.41634 0.42525,1.53505 0.4071,2.16822 -0.0751,2.62657 -0.90586,0.86075 -0.87912,4.40277 0.0477,6.313 0.43319,0.89284 1.51059,2.30332 2.39425,3.1344 1.62367,1.52707 1.59848,2.74575 -0.0557,2.7035 -1.05252,-0.0269 -3.77923,-2.67542 -3.75442,-3.64679 0.01,-0.38318 -0.20248,-0.70234 -0.47171,-0.70921 -0.26922,-0.007 -0.76073,-0.91078 -1.09224,-2.00865 -0.54007,-1.78866 -0.66583,-1.8947 -1.20988,-1.02018 -1.83841,2.9551 -4.49161,6.47266 -5.7488,7.62165 -3.77807,3.45288 -8.53265,4.81718 -10.6106,3.04464 z m 6.01294,-2.59882 c 1.18132,-0.51269 3.0314,-1.83419 4.1113,-2.93662 2.81877,-2.8776 6.05938,-8.24242 6.44944,-10.67703 0.18419,-1.14947 0.5422,-2.08465 0.79565,-2.07818 0.68349,0.0175 0.60453,-1.79869 -0.11095,-2.55167 -0.90841,-0.95604 -2.6075,-0.82552 -4.15003,0.3188 -0.74423,0.55212 -1.59228,1.01061 -1.88454,1.01887 -0.60447,0.0171 -2.84225,1.84855 -4.0676,3.32905 -0.64633,0.78095 -0.66023,0.90115 -0.0652,0.56286 0.51372,-0.29197 0.63015,-0.23647 0.3625,0.17288 -0.21685,0.33165 -0.70137,0.59515 -1.07671,0.58556 -0.9786,-0.025 -2.65784,1.88375 -2.25895,2.56764 0.18506,0.31725 -0.0183,0.70263 -0.45181,0.85642 -0.96932,0.34385 -3.12848,4.9027 -3.17445,6.70256 -0.0821,3.2158 1.55899,3.8486 5.52123,2.12891 z m 271.53847,8.65359 c -0.38727,-1.063 -0.38222,-3.30727 0.0265,-11.74233 0.32707,-6.75016 0.45041,-6.85006 5.593,-4.53004 0.66927,0.30191 1.1227,-0.51906 2.35039,-4.25548 0.83658,-2.54627 1.69529,-5.30154 1.90818,-6.12285 0.21294,-0.82129 0.71781,-1.61057 1.12195,-1.75393 1.15789,-0.41073 0.88055,-1.20475 -0.4348,-1.24468 -2.34805,-0.0716 -12.64277,-4.25826 -13.21931,-5.37646 -0.30519,-0.5919 -0.7648,-1.23666 -1.0214,-1.43278 -1.01362,-0.77473 0.3211,-1.95701 3.11297,-2.75742 2.21925,-0.63625 4.23485,-0.7577 8.26596,-0.49807 5.05618,0.32564 5.5526,0.46581 9.62795,2.71835 l 4.29687,2.37499 2.94088,-1.91664 c 1.61751,-1.05416 3.21976,-2.33882 3.56063,-2.85482 0.78675,-1.19097 1.74683,-1.17774 2.17521,0.0299 0.34242,0.96539 -0.38434,1.72899 -4.89844,5.14661 l -2.1549,1.63146 1.09899,1.08665 c 3.9752,3.93066 5.35248,15.22432 2.74182,22.48402 -2.09876,5.83647 -4.90898,8.39471 -7.88296,7.17622 -0.76115,-0.31184 -3.04178,-2.23686 -5.06808,-4.27781 -3.58515,-3.61105 -5.88106,-5.53309 -6.63231,-5.55228 -0.20294,-0.005 -1.03691,1.82541 -1.85321,4.06798 -2.45398,6.74154 -4.81339,9.91173 -5.65585,7.59934 z m 4.11614,-9.23755 c 1.60758,-4.4451 1.63423,-4.26859 -0.87309,-5.78559 -0.52801,-0.31941 -1.03827,-0.50366 -1.13404,-0.40942 -0.0958,0.0943 -0.39955,2.91353 -0.67509,6.26513 -0.45293,5.50876 -0.42106,5.99926 0.33219,5.10895 0.45828,-0.54167 1.51578,-2.87224 2.35003,-5.17907 z m 18.94384,3.5428 c 2.73317,-3.3997 3.30627,-5.3059 3.42124,-11.37903 0.1223,-6.45296 -0.42141,-8.77526 -2.89534,-12.36997 -1.59524,-2.31802 -3.2486,-3.38444 -3.28099,-2.11626 -0.007,0.26922 -0.9153,0.75214 -2.01869,1.07316 -3.23287,0.94052 -5.49492,2.03879 -5.51119,2.67575 -0.008,0.32593 -0.49739,1.77968 -1.08675,3.23054 -0.58941,1.45087 -1.37664,3.58597 -1.74932,4.74468 -0.37271,1.15869 -0.95749,2.64206 -1.2995,3.29641 -0.57192,1.09424 -0.175,1.64758 4.94756,6.89672 6.28885,6.44428 7.17066,6.8118 9.47298,3.948 z m -5.70023,-27.2086 2.08649,-0.83741 -1.51276,-0.83547 c -4.94446,-2.73061 -13.58764,-4.09448 -17.41915,-2.74866 l -1.43452,0.50386 1.32641,1.09929 c 1.77653,1.47238 10.08281,3.93764 12.73977,3.78111 1.16998,-0.0691 3.06617,-0.50215 4.21376,-0.96272 z m -329.16087,19.5855 c 0.26639,-2.54868 0.73444,-5.51062 1.0401,-6.58211 0.45365,-1.59021 0.40104,-5.05064 -0.0846,-5.56169 -0.72613,-0.76419 -3.71149,3.89677 -5.58742,8.72349 -1.92712,4.95847 -2.86128,6.34718 -3.96321,5.89171 -0.84916,-0.35099 -0.79741,-2.13553 0.19732,-6.8012 0.48064,-2.25458 0.55684,-2.96737 0.5079,-4.75136 l -0.0433,-1.57937 -1.16179,1.1039 c -0.63898,0.60716 -2.35493,3.30466 -3.81324,5.99446 -2.88804,5.32689 -4.76221,6.80922 -4.01453,3.17515 0.22925,-1.11421 0.88985,-3.0162 1.46801,-4.22666 0.57818,-1.21043 1.05947,-2.52433 1.06957,-2.91978 0.0101,-0.39542 0.27074,-0.95875 0.57918,-1.25184 0.3472,-0.32989 0.39821,-1.00947 0.1339,-1.78415 l -0.42688,-1.25129 -1.179,1.12026 c -1.5827,1.50388 -2.77945,1.41217 -2.73802,-0.20981 0.0458,-1.79509 4.16222,-3.80195 5.84091,-2.84764 0.61528,0.34978 1.1066,1.10894 1.09184,1.68699 -0.0231,0.90629 0.18,0.83112 1.47511,-0.54594 2.59596,-2.76017 4.28813,-0.50936 3.63965,4.84119 -0.28162,2.32358 0.29444,2.45433 0.85191,0.19334 0.57594,-2.33591 4.27283,-6.61946 5.83703,-6.7633 2.81245,-0.25865 3.14369,1.88967 1.78787,11.59582 -0.78278,5.60398 -1.37794,7.42506 -2.41789,7.3985 -0.39665,-0.0101 -0.42465,-1.45071 -0.0904,-4.64863 z m -19.66947,-20.89267 c 0.21951,-0.68096 0.9518,-3.18679 1.62729,-5.56848 0.67547,-2.3817 1.36927,-4.23808 1.54175,-4.1253 0.17248,0.11277 0.33129,-0.52614 0.35291,-1.41981 0.0458,-1.94962 1.08681,-2.45793 1.86427,-0.91155 0.42841,0.85212 0.33499,1.75724 -0.39971,3.87185 -2.40157,6.91221 -3.42795,9.06602 -4.39711,9.22711 -0.81217,0.13508 -0.91732,-0.0566 -0.5894,-1.07382 z m 237.81638,-5.48475 c 0.0167,-0.65182 0.37087,-1.09678 0.86313,-1.08421 0.49418,0.0126 0.75566,0.38057 0.64074,0.90162 -0.29221,1.32471 -1.5369,1.47585 -1.50387,0.18259 z M 308.41668,636.89971 c -0.93167,-1.10411 -1.27679,-2.22887 -1.35194,-4.40574 -0.0555,-1.60772 -0.32013,-3.6215 -0.58807,-4.47507 -0.6127,-1.95181 -0.4172,-10.24903 0.33465,-14.20328 0.61611,-3.24022 3.07572,-9.38193 4.59677,-11.47822 0.73998,-1.01981 0.8889,-1.93313 0.68457,-4.19812 l -0.26115,-2.89475 -1.34636,2.8537 c -4.54175,9.62649 -5.01572,10.4184 -6.42436,10.73395 -0.76749,0.17193 -1.54856,0.1514 -1.73575,-0.0451 -0.18719,-0.197 -0.21249,-3.56015 -0.0562,-7.47367 0.26907,-6.74001 0.22496,-7.15922 -0.83697,-7.94415 -0.61656,-0.45577 -1.32409,-0.71024 -1.57224,-0.56551 -1.04789,0.61124 -0.27519,-0.71088 1.2431,-2.12699 1.25826,-1.17354 1.83663,-1.40301 2.47046,-0.98021 0.69463,0.46336 0.78835,1.72114 0.58343,7.8285 -0.30062,8.95435 0.32669,9.46261 3.18986,2.58506 0.78199,-1.87838 1.98378,-5.01383 2.67068,-6.96766 0.93321,-2.65453 1.49165,-3.54621 2.20939,-3.52788 1.09346,0.0279 1.34767,0.90077 1.73597,5.96021 l 0.27118,3.53324 2.01119,-0.21766 c 1.10617,-0.11976 2.44086,0.0374 2.96598,0.34918 0.82173,0.48781 0.65019,0.64054 -1.23091,1.09589 -3.85635,0.93349 -3.69467,-0.038 -2.95552,17.75956 0.23818,5.73525 -0.78759,13.22933 -2.35296,17.19021 -0.62687,1.58615 -1.14137,2.947 -1.14333,3.0241 -0.002,0.0771 -0.42137,0.12514 -0.93199,0.10679 -0.51064,-0.018 -1.4914,-0.70049 -2.17946,-1.51594 z m 3.31277,-4.95036 c 0.88777,-3.66361 1.31944,-15.01271 0.84955,-22.3353 l -0.30216,-4.70867 -0.9787,1.52047 c -1.23959,1.92583 -2.88829,7.80851 -3.19449,11.39816 -0.59189,6.93932 0.84218,17.37305 2.39328,17.41267 0.2383,0.006 0.79292,-1.47321 1.23252,-3.28733 z m 338.13352,-0.922 c -0.66718,-1.2603 -0.66111,-3.44509 0.0557,-20.04416 0.39806,-9.21797 0.31047,-11.50558 -0.43411,-11.32245 -0.21337,0.0525 -1.10968,1.04005 -1.99183,2.19457 -2.33645,3.05787 -5.67523,3.38252 -8.29792,0.80681 l -1.11371,-1.09376 -1.44967,1.20041 c -1.73694,1.43828 -4.84342,2.51543 -5.94337,2.0608 -0.43588,-0.18018 -1.17742,-1.08505 -1.64787,-2.01085 -1.12401,-2.21208 -1.09423,-18.01131 0.0517,-27.42817 0.44193,-3.63163 0.98705,-9.1073 1.21138,-12.16814 0.27883,-3.80453 0.65948,-5.83531 1.20318,-6.41905 0.60297,-0.64733 0.63776,-0.91092 0.14383,-1.08969 -0.74257,-0.26878 -0.13385,-1.48742 0.73195,-1.46531 0.6521,0.0167 0.0133,11.52262 -1.07455,19.35437 -1.02351,7.36865 -1.5504,24.50146 -0.83623,27.19284 0.33159,1.2497 0.68392,2.27426 0.78296,2.27679 0.8429,0.0215 4.03503,-1.63464 4.89916,-2.54182 0.9068,-0.95197 1.09964,-1.89491 1.20125,-5.87363 0.0733,-2.86834 0.35569,-4.88321 0.71533,-5.10332 0.32685,-0.20003 1.11102,-1.90372 1.7426,-3.78594 0.98782,-2.94383 1.33867,-3.44018 2.50989,-3.55072 2.2452,-0.2119 3.62416,1.83874 3.38154,5.02872 -0.29698,3.90488 -1.64152,6.84141 -5.3771,11.74394 -0.9071,1.19044 -0.89728,1.27562 0.26085,2.26344 0.6619,0.56454 1.74178,1.04017 2.39976,1.05698 2.89677,0.074 6.12049,-4.59433 6.84635,-9.9143 0.28534,-2.0913 0.62111,-2.90469 1.19308,-2.89008 0.65281,0.0167 0.75145,0.78329 0.54835,4.26208 -0.13621,2.33296 -0.0814,5.05823 0.12163,6.05615 l 0.36929,1.8144 1.00354,-2.84134 c 0.55194,-1.56276 2.18708,-4.96137 3.63363,-7.55247 2.05064,-3.67313 2.96878,-4.81795 4.16728,-5.1961 1.36855,-0.43179 1.68563,-0.30238 2.89041,1.17972 0.74431,0.91557 1.79514,1.8384 2.33521,2.0507 0.88979,0.34979 0.93808,0.78409 0.5144,4.62947 -0.25719,2.3339 -0.32501,4.73586 -0.15123,5.33766 0.30756,1.06236 0.34897,1.06686 1.42224,0.15432 0.60798,-0.5169 1.92646,-2.61994 2.92988,-4.6734 1.00343,-2.05349 2.08463,-3.88538 2.40266,-4.07088 1.06374,-0.62046 2.07967,2.08622 2.27384,6.05822 0.10569,2.16355 0.27734,4.02325 0.38133,4.13267 0.10391,0.10952 0.66046,-1.40535 1.23663,-3.3662 1.5103,-5.14005 3.76965,-9.60226 4.84794,-9.57472 0.78614,0.0201 0.89109,0.91095 0.87654,7.43906 -0.0134,6.00277 0.14498,7.58592 0.8308,8.30645 0.7847,0.82438 0.90012,0.74028 1.56118,-1.13745 0.94046,-2.67124 2.41418,-5.33941 3.98302,-7.21117 3.19271,-3.8093 4.46235,-4.97368 5.39711,-4.9498 0.90461,0.0231 1.01735,-0.40578 1.11534,-4.24252 0.14697,-5.75443 1.92142,-18.5022 2.95072,-21.19809 0.45788,-1.19914 0.85268,-2.97271 0.87742,-3.94125 0.0288,-1.1284 0.53565,-2.28373 1.41089,-3.21601 1.30969,-1.39515 1.39623,-1.41357 2.10466,-0.4475 2.43051,3.31465 0.6325,23.49918 -2.99821,33.65706 -2.22121,6.21431 -2.25553,6.50644 -1.35362,11.50852 1.65631,9.18608 2.12435,12.01905 2.10579,12.74549 -0.0198,0.77704 -1.5843,1.10209 -1.64235,0.34121 -0.0489,-0.64229 -0.29578,-1.79817 -1.10689,-5.18443 -0.41954,-1.75137 -0.74646,-3.82314 -0.72652,-4.60391 0.0199,-0.78075 -0.27321,-2.21158 -0.65142,-3.1796 -0.62842,-1.60831 -0.72088,-1.66417 -1.07219,-0.64797 -0.21144,0.61161 -1.19837,1.98091 -2.19308,3.04288 -1.44996,1.54795 -2.16473,1.91114 -3.60438,1.83139 -0.98766,-0.0547 -2.82827,-0.14326 -4.09028,-0.1966 -1.26451,-0.0536 -2.6359,-0.45645 -3.05507,-0.89758 -1.18469,-1.24681 -2.07619,-5.57377 -1.8996,-9.21954 0.0886,-1.82313 0.0259,-3.3182 -0.13844,-3.32235 -0.16451,-0.004 -0.90813,1.9483 -1.6526,4.33873 -0.7444,2.39045 -1.54041,4.58045 -1.76883,4.86666 -0.22842,0.28622 -0.60369,1.40317 -0.83394,2.48207 -0.52856,2.47661 -1.60583,3.43717 -2.74153,2.44459 -0.63406,-0.55418 -0.72484,-1.35079 -0.41704,-3.65998 0.60657,-4.55064 0.7288,-8.78313 0.27606,-9.55926 -0.27425,-0.47015 -0.94832,0.4901 -2.03876,2.90429 -2.45356,5.43215 -5.37438,7.10422 -6.54467,3.74662 -0.67327,-1.9315 -1.24244,-2.05067 -1.91812,-0.4016 -0.70823,1.72855 -3.696,4.44396 -5.28018,4.79883 -1.568,0.35125 -2.34278,-0.32265 -3.09519,-2.69224 l -0.54494,-1.71631 -0.7533,3.16682 c -0.59074,2.48345 -0.6602,4.60152 -0.32182,9.81545 0.53706,8.27581 0.35419,16.21373 -0.40427,17.54786 -0.76836,1.35156 -1.947,1.24918 -2.73402,-0.23747 z m 1.51891,-9.25152 -0.38207,-4.65842 -0.18735,6.10181 c -0.14319,4.66627 -0.0534,5.76221 0.38207,4.65842 0.37332,-0.94629 0.43784,-3.04774 0.18736,-6.10181 z m 40.16565,-17.17331 c 2.59662,-1.30551 5.37912,-8.91737 4.03139,-11.02845 -0.44079,-0.69047 -0.71116,-0.65751 -1.98178,0.24154 -0.80923,0.5726 -1.67385,1.38236 -1.92133,1.79945 -0.75211,1.26764 -4.39033,8.81917 -4.39824,9.12913 -0.0128,0.5026 3.20051,0.396 4.26996,-0.14167 z m -32.0389,-2.8757 c 0.87959,-0.82243 2.33589,-2.78736 3.23622,-4.36652 1.5353,-2.69288 1.5993,-3.00968 1.03029,-5.10161 -0.52935,-1.94633 -0.75593,-2.18723 -1.77877,-1.89111 -2.26403,0.65544 -4.5705,4.61374 -5.30067,9.09689 -0.70256,4.31378 0.008,4.88512 2.81293,2.26235 z m -16.60685,-9.54307 c 1.28152,-2.52444 1.74696,-7.03642 0.79038,-7.66194 -0.30251,-0.19781 -1.0503,0.18715 -1.66175,0.85548 -2.14894,2.3488 -3.00125,5.37647 -2.91906,10.36962 l 0.0291,1.76726 1.27317,-1.4685 c 0.70023,-0.80768 1.81992,-2.54553 2.48818,-3.86192 z m 56.45768,-4.76248 c 2.19297,-6.74927 4.03223,-23.73331 2.90653,-26.8392 -0.49128,-1.3555 -1.11412,-0.42962 -1.48086,2.20133 -0.15077,1.08166 -0.53753,3.03522 -0.85949,4.34125 -1.48542,6.02601 -2.95104,23.82002 -1.96406,23.84522 0.13366,0.003 0.76261,-1.59346 1.39788,-3.5486 z m -37.29003,0.71806 c -0.17182,-0.18083 -0.62904,-0.21139 -1.01603,-0.0678 -0.42766,0.15859 -0.30512,0.28754 0.31242,0.32879 0.5588,0.0374 0.87544,-0.08 0.70361,-0.26093 z M 292.114,606.53529 c -0.89711,-1.78436 -0.32811,-11.68243 1.05838,-18.41081 1.36886,-6.64288 2.22103,-15.72392 1.51862,-16.18323 -1.24802,-0.81607 -7.73113,9.71122 -10.3609,16.82404 -0.67768,1.83297 -1.16278,2.53306 -1.44614,2.0871 -0.24635,-0.38772 -0.29897,-0.0514 -0.12472,0.79688 0.20223,0.98398 0.0888,1.46253 -0.34401,1.45148 -0.4238,-0.0108 -0.54293,0.44242 -0.34665,1.31867 0.16782,0.74916 0.0691,1.32929 -0.22503,1.32178 -0.28825,-0.007 -0.39935,0.33839 -0.24683,0.76832 0.41162,1.16039 -0.94243,4.51141 -1.81394,4.48915 -1.12302,-0.0287 -0.83462,-4.78157 0.5791,-9.54339 0.64539,-2.17393 1.21206,-4.25029 1.25927,-4.61416 0.0473,-0.36386 0.27936,-0.65662 0.51589,-0.65058 0.23652,0.006 0.4159,-0.88546 0.3986,-1.98111 -0.0173,-1.09565 0.2046,-3.599 0.49309,-5.563 l 0.52453,-3.57091 -1.79836,-0.029 c -0.98912,-0.0153 -2.22193,0.27583 -2.73961,0.64844 -1.8755,1.34995 -5.09317,9.88162 -6.40842,16.992 -0.39719,2.14728 -1.63421,3.81103 -2.30706,3.10293 -0.41095,-0.4325 0.939,-9.76844 2.22976,-15.42029 0.99208,-4.34407 1.32152,-11.33016 0.59898,-12.70232 -0.3304,-0.62747 -1.0199,-0.40774 -3.63859,1.15958 -1.777,1.06356 -4.43161,2.16499 -5.8991,2.44763 -13.45098,2.59065 -20.72813,2.90503 -18.52905,0.80044 0.60964,-0.58344 2.45701,-1.01901 5.48757,-1.29387 l 4.56853,-0.41432 0.0632,-2.08125 c 0.0342,-1.14469 0.3388,-2.16561 0.67664,-2.26873 0.65206,-0.199 1.48379,1.81124 1.22873,2.96976 -0.11863,0.53859 0.58328,0.62971 3.20407,0.41602 3.52199,-0.28721 7.33002,-1.83941 10.6163,-4.32736 1.03575,-0.78413 2.15453,-1.41877 2.48618,-1.4103 1.34461,0.0343 2.3548,4.78117 1.99567,9.37759 l -0.34647,4.4343 1.29263,-1.80152 c 1.54582,-2.15442 3.79592,-3.3451 6.18519,-3.27298 3.04957,0.0928 3.26599,0.5176 2.77347,5.45398 l -0.44111,4.42111 1.38663,-2.83123 c 1.75472,-3.58282 6.78173,-10.25955 8.30631,-11.03216 1.64424,-0.83328 2.16455,-0.26981 2.49638,2.70345 0.29119,2.60926 -0.34324,8.1764 -2.11809,18.58579 -0.52386,3.07247 -0.95917,8.264 -0.97484,11.62603 -0.029,6.23161 -0.56029,7.73962 -1.83405,5.20611 z m 228.0797,3.95262 c -0.14656,-0.53145 -0.17215,-3.78569 -0.0569,-7.23165 0.16034,-4.78955 0.40042,-6.44667 1.0196,-7.035 0.71713,-0.68143 0.91156,-0.67287 1.69638,0.0747 0.48752,0.46439 1.13036,0.85056 1.42854,0.85818 0.57501,0.0147 3.30295,-9.51484 4.00072,-13.97564 l 0.41459,-2.65057 -4.46167,-1.61073 c -4.09109,-1.47697 -9.23222,-4.51085 -10.06587,-5.94006 -0.73502,-1.26016 0.40195,-1.09456 3.5632,0.519 5.58848,2.85242 8.52649,4.09143 10.08077,4.2512 1.48995,0.15322 1.49226,0.14846 2.91461,-5.91698 1.5739,-6.71168 4.22829,-14.5206 6.39148,-18.8031 1.38338,-2.73866 2.9338,-4.49617 2.15153,-2.43891 -0.36968,0.97225 -0.35455,0.97204 0.44342,-0.006 0.45441,-0.55718 0.71029,-1.41343 0.56863,-1.90275 -0.47052,-1.62525 1.56845,-3.2925 4.09749,-3.35049 2.76255,-0.0634 3.48657,0.58711 4.08679,3.67139 0.50796,2.61017 0.53684,10.4586 0.048,13.04313 -0.73234,3.87194 -2.95857,8.55252 -5.72168,12.02964 -3.66912,4.6172 -7.3014,6.8944 -10.86621,6.81238 -0.94317,-0.0201 -1.23914,0.35747 -1.52647,1.95525 -0.69964,3.89082 -1.65824,7.84346 -2.73952,11.29641 -0.60386,1.92827 -1.10664,3.84845 -1.11733,4.26705 -0.0271,1.06019 1.68884,1.78576 6.30402,2.66562 2.17979,0.41558 5.74621,1.11624 7.92536,1.55703 3.82305,0.77332 3.9938,0.76299 4.86589,-0.29475 2.02229,-2.45277 2.64137,-6.47749 1.77667,-11.55018 -0.72097,-4.22951 -0.98393,-7.71969 -0.54733,-7.26426 0.71056,0.74118 2.21059,6.29481 2.56572,9.49914 0.56958,5.13905 -1.37237,11.63715 -3.72739,12.47252 -1.51886,0.53876 -13.60974,-1.86959 -19.30202,-3.84473 -0.6697,-0.23237 -1.19942,0.72698 -2.54936,4.61694 -1.68151,4.84539 -3.05413,6.42977 -3.66174,4.22668 z m 2.80994,-7.78411 c 0.8164,-2.38135 0.87337,-3.03698 0.32442,-3.7339 -0.53127,-0.67447 -0.75771,-0.70845 -1.12018,-0.168 -0.45247,0.67456 -0.8215,6.77453 -0.41049,6.78503 0.11875,0.003 0.66159,-1.29435 1.20625,-2.88306 z m 25.82834,-9.82824 c -0.11,-0.66336 -0.22934,-0.25102 -0.26506,0.91629 -0.0368,1.16727 0.0543,1.71003 0.20013,1.20608 0.14579,-0.50397 0.175,-1.45904 0.0642,-2.12239 z m -13.8026,-14.84625 c 1.80405,-0.44989 3.96875,-2.42953 6.75982,-6.18193 4.49922,-6.04892 5.55448,-9.48909 5.42619,-17.68947 -0.11615,-7.42347 -0.59659,-8.14861 -3.88219,-5.85929 -3.07911,2.14548 -6.72466,9.16193 -8.82787,16.99062 -0.85717,3.19071 -1.68812,6.15641 -1.84652,6.59044 -0.15844,0.43404 -0.38068,1.38418 -0.49393,2.11142 -0.11331,0.72725 -0.35704,1.86706 -0.54173,2.53289 -0.42594,1.53558 0.038,2.3458 1.17994,2.06073 0.48963,-0.12224 1.49147,-0.37217 2.22629,-0.55541 z m -184.63651,26.41885 c -0.5062,-0.86781 0.28792,-5.13328 1.5952,-8.56919 1.29257,-3.39706 1.6665,-8.64768 0.6902,-9.69147 -0.50752,-0.5426 -2.72421,0.64624 -4.77744,2.56222 -1.4116,1.31724 -3.28683,1.58231 -3.25817,0.46054 0.0283,-1.1066 7.06822,-6.55286 8.42556,-6.51819 0.40871,0.0104 1.11776,0.62395 1.57568,1.36333 1.06057,1.71249 0.89019,7.49943 -0.29892,10.15288 -1.75658,3.91958 -0.80854,3.46446 1.38355,-0.6642 2.59578,-4.88901 6.50694,-9.36487 7.7385,-8.85583 1.02264,0.42269 1.32072,2.92027 0.90527,7.58519 -0.36565,4.10565 -0.0244,8.23003 0.68244,8.24809 0.67099,0.0171 4.40459,-5.79951 4.43285,-6.90604 0.0133,-0.5199 0.48976,-1.3877 1.05885,-1.92843 0.56908,-0.54075 1.22419,-1.53957 1.45579,-2.2196 0.23158,-0.68006 0.57655,-1.35196 0.76658,-1.49314 0.19002,-0.14118 0.78015,-0.9027 1.3114,-1.69228 0.53126,-0.78959 1.28937,-1.42735 1.6847,-1.41725 0.39532,0.0101 1.02522,-0.33224 1.39974,-0.76076 1.1424,-1.30711 3.13829,-0.91955 3.49636,0.67888 0.48613,2.17017 0.19619,10.3591 -0.4394,12.40891 -0.31443,1.01416 -0.48912,2.28778 -0.38816,2.83027 0.16457,0.88443 0.34683,0.83768 1.76428,-0.45254 0.86941,-0.79139 1.58801,-1.72316 1.59688,-2.07061 0.009,-0.34745 0.37924,-0.91776 0.82303,-1.26732 0.44379,-0.34958 0.70217,-0.81513 0.57418,-1.03459 -0.44765,-0.76746 3.05488,-7.65024 4.48944,-8.82213 1.76052,-1.43818 2.41019,-1.27115 3.43992,0.88445 l 0.79205,1.65805 1.47749,-2.31064 c 1.6305,-2.54994 2.94249,-3.32099 3.68972,-2.16844 0.45799,0.70643 0.22203,4.69894 -0.63909,10.81398 l -0.37255,2.64553 1.47862,-3.1483 c 0.81324,-1.73155 2.06144,-4.32816 2.77378,-5.77025 0.71232,-1.44208 1.66653,-3.45828 2.12045,-4.48047 0.85285,-1.92058 2.34451,-3.63612 3.14387,-3.6157 0.94941,0.0242 0.96778,2.06367 0.0693,7.7014 -1.17661,7.38355 -1.37771,12.97527 -0.46733,12.9958 0.36485,0.009 1.41651,-0.4183 2.337,-0.94786 1.63438,-0.94022 1.68298,-1.07627 2.07392,-5.80456 0.28269,-3.41932 0.66056,-5.11502 1.28617,-5.77179 0.48724,-0.51151 0.89327,-1.21812 0.90226,-1.57024 0.0698,-2.73273 5.41548,-5.34239 6.9508,-3.39321 1.05309,1.33692 1.11807,3.95916 0.16366,6.60478 -0.87574,2.42757 -1.714,3.64848 -4.84599,7.05802 -1.9315,2.10268 -1.90797,2.72996 0.1529,4.07687 1.96847,1.28654 4.33459,1.15696 8.23607,-0.45103 2.66831,-1.09973 9.71473,-7.4671 11.02481,-9.96236 0.45393,-0.86457 1.13186,-1.87986 1.50655,-2.25623 1.37947,-1.38566 0.66412,1.04296 -1.39106,4.72265 -3.30419,5.91596 -9.89279,10.5818 -15.64903,11.08215 -3.01383,0.26197 -4.49308,-0.19588 -6.28733,-1.94597 -1.09203,-1.06515 -1.70194,-1.31781 -2.32357,-0.96257 -3.89759,2.22732 -5.47066,2.83358 -5.97497,2.30285 -1.29307,-1.36085 -0.71997,-13.96114 0.81684,-17.95959 1.0291,-2.67747 -0.92543,0.46248 -3.10334,4.98557 -3.18661,6.61794 -5.46441,9.94961 -6.77939,9.91602 -0.94768,-0.0242 -1.00121,-0.27297 -0.60117,-2.79319 0.24153,-1.52163 0.72669,-2.93931 1.07815,-3.15038 0.40165,-0.24123 0.42683,-0.3922 0.0678,-0.40651 -0.33455,-0.0135 -0.4553,-0.69298 -0.29141,-1.64047 0.19059,-1.10154 0.51081,-1.52229 1.00372,-1.31856 0.39815,0.16466 0.7298,0.0679 0.73703,-0.2148 0.007,-0.28268 -0.24176,-0.52051 -0.55329,-0.52846 -0.32302,-0.008 -0.41159,-0.46229 -0.20613,-1.05657 0.19815,-0.57316 0.14017,-1.45995 -0.12866,-1.97064 -0.40359,-0.76648 -0.79055,-0.3302 -2.21731,2.50011 -0.9506,1.88576 -2.45017,5.52382 -3.33234,8.08463 -1.58362,4.59686 -2.59496,5.90326 -3.21556,4.1537 -0.3254,-0.91733 1.15842,-7.14994 2.383,-10.00955 0.37457,-0.87468 0.57411,-2.41387 0.44342,-3.42041 -0.22641,-1.74379 -0.28247,-1.7873 -1.18927,-0.92251 -0.52339,0.49916 -1.12254,1.52167 -1.33144,2.27224 -0.50933,1.83012 -4.97668,10.01661 -6.12237,11.21939 -1.09399,1.14849 -3.3232,1.20971 -3.7161,0.10206 -0.15449,-0.43562 -0.29263,-1.75205 -0.30688,-2.92538 -0.0143,-1.17335 -0.20013,-2.13916 -0.41305,-2.14624 -0.21296,-0.006 -0.90415,0.93962 -1.53605,2.10383 -2.4074,4.43537 -5.04679,5.38645 -6.80202,2.45104 l -0.97232,-1.62611 -1.28816,1.30288 c -1.74724,1.76717 -3.6275,1.66497 -4.32015,-0.2348 -0.29558,-0.8107 -0.47139,-3.88208 -0.39069,-6.82529 0.0802,-2.94323 -0.0303,-5.65468 -0.24652,-6.02545 -0.50639,-0.86819 -2.68933,2.46499 -6.91309,10.55578 -2.91824,5.59004 -4.12156,6.9659 -4.91006,5.61406 z m 23.72538,-5.02269 c 1.01618,-0.99624 1.67794,-1.81567 1.47056,-1.82096 -0.20739,-0.005 0.40544,-1.46612 1.36186,-3.24626 1.58766,-2.95507 1.69059,-3.41435 1.18319,-5.27986 -0.30565,-1.12379 -0.78975,-2.04924 -1.0758,-2.05654 -0.84735,-0.0216 -6.00166,7.82703 -6.13167,9.33694 -0.24538,2.84962 0.12438,4.84688 0.90103,4.86672 0.24377,0.006 1.27464,-0.80378 2.29083,-1.80004 z m -20.83582,-0.39276 c 0.0941,-0.93133 0.009,-1.01878 -0.39944,-0.40846 -0.63824,0.95459 -0.69179,1.56866 -0.13796,1.58281 0.22974,0.006 0.47162,-0.5226 0.53749,-1.17435 z m 62.74089,-4.51086 c 2.7151,-3.7254 3.62228,-5.80044 3.4073,-7.79372 -0.33656,-3.12051 -3.31104,-1.97213 -5.27778,2.03759 -1.06126,2.16365 -1.63716,8.71984 -0.7679,8.74204 0.24958,0.006 1.43684,-1.33729 2.63838,-2.98591 z m 57.6203,11.61988 c -0.50698,-0.1613 -0.91679,-0.48861 -0.91069,-0.72744 0.0171,-0.66903 2.05626,-0.98193 7.92727,-1.21633 3.35039,-0.13377 5.38881,-0.43547 5.39591,-0.79864 0.007,-0.32097 -0.38884,-1.22341 -0.87805,-2.00535 -0.94571,-1.51166 -5.68316,-6.9768 -6.05609,-6.98632 -0.12189,-0.003 -1.62696,1.69086 -3.3448,3.76438 -4.71954,5.69671 -7.68257,7.88441 -10.12195,7.47333 -1.71143,-0.28841 -1.66534,-2.73098 0.16563,-8.77231 0.85922,-2.83512 1.91468,-6.57949 2.34549,-8.3208 1.26964,-5.13189 1.41578,-5.53944 1.98119,-5.525 0.36169,0.009 0.34974,0.34706 -0.0362,1.02619 -0.77022,1.35486 -0.73786,1.77752 0.11299,1.47569 0.90633,-0.32149 0.30787,3.42234 -1.5041,9.40936 -1.71477,5.66584 -2.2446,8.17332 -1.72973,8.18647 0.23544,0.006 0.58176,-0.22409 0.76959,-0.51134 0.18786,-0.28727 0.70104,-0.51313 1.14047,-0.50191 0.85898,0.0219 1.76958,-0.91719 6.10564,-6.29707 2.4241,-3.00767 2.75738,-3.69829 2.54331,-5.2704 -0.14233,-1.04513 0.10049,-2.58328 0.57512,-3.64222 0.67816,-1.51325 1.0828,-1.81492 2.3193,-1.7291 2.35604,0.16356 2.80754,1.97872 1.18715,4.77294 l -1.31178,2.26208 2.97325,3.44788 c 3.36263,3.89942 4.17271,5.32655 4.62887,8.15482 0.27454,1.70217 0.18032,1.98326 -0.66921,1.99648 -0.54382,0.009 -1.39255,0.0828 -1.88605,0.1651 -1.90872,0.31848 -10.84766,0.44775 -11.72233,0.16951 z m 6.82328,-18.40037 c -0.49586,-0.52185 -2.04447,0.82645 -1.6756,1.45889 0.18379,0.31508 0.65561,0.2003 1.16456,-0.28329 0.47058,-0.44714 0.70054,-0.97615 0.51104,-1.1756 z m 122.42082,20.62445 c -0.63457,-1.67035 0.27355,-21.16812 1.45333,-31.20383 0.61615,-5.24124 1.3146,-11.85438 1.55208,-14.69584 0.3356,-4.0149 0.60282,-5.16194 1.19903,-5.14671 0.57543,0.0147 0.67869,0.44877 0.41308,1.73632 -0.28535,1.38311 -0.2506,1.49394 0.17877,0.5703 1.10653,-2.38025 3.79686,-2.78495 7.27901,-1.09499 1.6704,0.81069 2.33625,1.55173 2.99811,3.3367 0.99348,2.67941 1.59895,6.08953 1.91059,10.76106 0.12265,1.83838 0.32182,3.88333 0.4426,4.54434 0.12084,0.66102 0.16487,3.75626 0.098,6.87833 -0.0664,3.12209 -0.0187,5.85301 0.10719,6.06877 0.12575,0.21574 0.9472,0.20595 1.82523,-0.0217 2.21635,-0.57482 2.01951,0.35918 -0.35383,1.67898 l -1.92411,1.07001 0.20427,3.77999 c 0.45838,8.48166 0.3337,11.21743 -0.51022,11.19588 -1.00812,-0.0258 -1.42119,-3.11657 -1.30439,-9.76003 0.0783,-4.44869 -0.007,-4.9207 -0.8486,-4.6996 -2.84581,0.74766 -5.58546,1.19635 -8.68277,1.42202 l -3.47558,0.25323 0.0719,5.14925 c 0.0748,5.35954 -0.51438,8.62772 -1.61614,8.96397 -0.35426,0.10811 -0.81214,-0.24575 -1.01752,-0.78637 z m 12.44706,-16.98061 3.39843,-0.53595 -0.20649,-7.72712 c -0.11357,-4.24993 -0.23696,-8.56425 -0.27421,-9.5874 -0.12118,-3.3291 -1.52391,-10.03765 -2.39187,-11.43911 -0.73909,-1.19339 -3.45075,-2.50434 -5.29628,-2.56051 -1.81284,-0.0543 -4.02681,11.09909 -4.91416,24.75788 l -0.5292,8.14605 3.40767,-0.25894 c 1.87421,-0.1424 4.93696,-0.50011 6.80611,-0.7949 z m -42.97496,15.06041 c -0.47303,-0.5503 -0.84681,-1.51904 -0.83062,-2.15275 0.0366,-1.4328 -0.15749,-1.43778 -2.1319,-0.0546 -2.03202,1.42355 -3.69896,0.73168 -5.28054,-2.19175 l -1.10621,-2.04476 -2.27193,2.16186 c -4.31651,4.10739 -7.07105,3.31551 -6.44747,-1.85354 0.17557,-1.45579 0.77,-4.53374 1.32085,-6.83991 0.91545,-3.83265 0.93018,-4.24804 0.17136,-4.83325 -1.66347,-1.28281 -0.52462,-2.84621 1.31254,-1.80179 0.88817,0.50491 1.04322,1.12968 0.96766,3.89907 -0.0493,1.81381 -0.47553,4.46099 -0.94676,5.88263 -1.04976,3.16701 -1.16715,5.60085 -0.26992,5.59796 2.12607,-0.007 6.3804,-6.20099 6.47494,-9.42719 0.0613,-2.08746 1.19658,-4.69502 2.03505,-4.67361 0.91192,0.0233 0.9129,2.31484 0.003,6.61997 -0.54341,2.5706 -0.51505,3.46751 0.1712,5.412 0.97459,2.76152 2.26597,3.0794 3.85027,0.94778 1.4162,-1.90545 1.74828,-2.99939 2.11329,-6.96192 0.31462,-3.41502 0.92318,-4.64825 1.95946,-3.97063 0.40001,0.26157 0.44122,1.7478 0.1306,4.7096 -0.24961,2.38009 -0.53404,4.45722 -0.63209,4.61586 -0.098,0.15862 0.0756,1.58726 0.38579,3.17473 l 0.56402,2.88632 2.34374,-2.01115 c 1.28904,-1.10613 3.0516,-3.3287 3.91678,-4.93904 1.46219,-2.72157 1.56126,-3.24852 1.4057,-7.47738 -0.15638,-4.2507 -0.0853,-4.62212 1.08227,-5.65548 1.00603,-0.89037 1.3976,-0.97667 2.00861,-0.44265 0.60011,0.52449 0.66997,1.52853 0.33378,4.79695 -0.4111,3.99692 -0.38392,4.15051 0.82196,4.64458 2.07838,0.85155 4.08709,4.13488 4.07184,6.6556 -0.0131,2.16896 -0.0671,2.23533 -2.37027,2.90156 -2.1231,0.61424 -2.52891,0.58344 -4.09212,-0.31062 -2.13329,-1.22012 -1.72563,-2.11913 0.72313,-1.59469 4.13272,0.88509 5.14695,-1.12535 2.1558,-4.27331 -1.89145,-1.99059 -3.00717,-2.15555 -3.37238,-0.49859 -0.32943,1.49449 -5.04303,8.05273 -6.34255,8.82468 -2.10748,1.25186 -3.32248,1.33157 -4.22859,0.27745 z m 11.0906,-18.53318 c -0.13794,-0.36859 -0.26597,-0.0732 -0.28461,0.65649 -0.0186,0.72966 0.0941,1.03124 0.25073,0.67017 0.15657,-0.36107 0.17182,-0.95807 0.0339,-1.32666 z m 120.4399,19.04618 c -0.20317,-0.34837 -0.35752,-4.29505 -0.34299,-8.77039 0.0222,-6.8158 0.15063,-8.13385 0.79132,-8.11749 0.42071,0.0107 0.90664,0.50917 1.07987,1.10758 0.48869,1.688 2.35235,3.22815 3.95574,3.2691 1.62822,0.0416 5.32189,-2.90306 5.35682,-4.27053 0.0283,-1.10848 2.83984,-2.95423 4.43786,-2.91342 2.12717,0.0543 4.97683,4.05212 5.13497,7.20382 0.0708,1.41113 0.18428,1.48139 1.93692,1.19872 3.27996,-0.52903 8.62295,-3.70233 8.65975,-5.14323 0.025,-0.97989 0.89372,-0.91397 1.2516,0.0951 0.45864,1.29299 -0.20013,2.25466 -2.98558,4.35857 -1.85268,1.39936 -3.56091,2.15307 -5.83805,2.57586 -1.7705,0.32872 -3.10903,0.78633 -2.97451,1.01692 0.4406,0.75542 -2.04077,5.46331 -3.7857,7.18264 -3.3663,3.3168 -6.34298,1.38137 -7.01319,-4.55995 -0.16523,-1.46449 -0.27062,-3.31908 -0.23426,-4.12131 0.0655,-1.43901 -0.96286,-2.04026 -1.66162,-0.9717 -0.44528,0.68094 -3.78114,0.58765 -5.06392,-0.14094 -0.75429,-0.42877 -0.95072,-0.4011 -0.79784,0.11238 0.31143,1.04631 0.44178,10.15848 0.15592,10.90196 -0.3192,0.83011 -1.57594,0.82226 -2.06313,-0.0129 z m 15.93902,-3.08426 c 1.51473,-1.50269 3.48144,-5.31795 2.7954,-5.42289 -0.96438,-0.14743 -4.77692,-0.008 -6.13499,0.2251 -1.38406,0.23717 -1.46203,0.38339 -1.1768,2.20749 0.73798,4.71998 1.95831,5.52797 4.51639,2.9903 z m 2.02874,-7.51506 c 1.18179,0.0302 1.26678,-0.11816 0.97408,-1.7009 -0.52088,-2.81641 -2.16009,-5.23251 -3.57457,-5.26863 -1.45858,-0.0373 -3.18864,2.02851 -3.7991,4.53635 -0.60198,2.47323 -0.091,2.9775 2.70439,2.66689 1.32027,-0.14673 2.98311,-0.2519 3.6952,-0.23371 z M 572.00407,580.50234 c -1.51163,-0.46733 -1.07987,-3.09864 0.85128,-5.18797 0.93216,-1.00855 2.1107,-1.82312 2.61897,-1.81014 2.38909,0.061 3.50591,4.38828 1.5635,6.05794 -1.07551,0.92448 -3.57469,1.39126 -5.03375,0.94017 z m 3.23786,-2.02864 c 0.75681,-0.18224 1.21259,-0.69729 1.23029,-1.39034 0.0269,-1.05353 -0.004,-1.05957 -0.71238,-0.14065 -0.40727,0.52812 -0.98653,0.79932 -1.28727,0.60266 -0.30074,-0.19665 -0.69282,-0.004 -0.87132,0.42763 -0.35702,0.86374 -0.1409,0.9297 1.64068,0.50068 z m 71.64043,0.96966 c -0.83029,-0.65452 -0.85648,-1.31697 -0.25722,-6.51143 0.0336,-0.29119 0.66284,-1.19405 1.39836,-2.00636 0.7355,-0.81231 1.4411,-1.7501 1.56801,-2.08399 0.15921,-0.41884 0.53606,-0.33826 1.21546,0.2599 0.54158,0.47681 1.7324,1.18475 2.64625,1.57315 2.19171,0.93152 2.56422,2.68929 1.12994,5.3318 -1.98967,3.66572 -5.45093,5.21051 -7.7008,3.43693 z m 4.87939,-2.21188 c 1.09507,-1.04052 2.31539,-3.18859 2.33911,-4.11735 0.0266,-1.04129 -2.87381,-1.97901 -3.83982,-1.24144 -0.86163,0.6579 -2.06163,3.60466 -2.10136,5.16024 -0.0324,1.26855 2.33846,1.39922 3.60207,0.19853 z m -410.40714,-8.54382 c -0.17292,-0.29648 -0.0615,-0.53259 0.24756,-0.5247 0.3091,0.008 0.5559,0.25316 0.54844,0.54503 -0.007,0.29185 -0.11887,0.52797 -0.24756,0.52469 -0.12868,-0.003 -0.3755,-0.24856 -0.54844,-0.54502 z m 223.81696,5.0654 c -1.43242,-0.73621 -2.18419,-3.41324 -1.46735,-5.22519 1.50883,-3.81375 5.5767,-6.79 7.80064,-5.70729 0.6812,0.33162 1.23201,0.85729 1.22407,1.16815 -0.008,0.31085 0.56614,1.22429 1.27571,2.02983 1.7072,1.93814 1.58657,3.44049 -0.45345,5.64764 -2.31251,2.50196 -5.85527,3.38425 -8.37962,2.08686 z m 6.69555,-2.99919 c 0.98628,-0.90825 1.7952,-2.02262 1.79762,-2.47638 0.008,-1.47326 -3.79649,-3.7206 -4.96158,-2.93097 -1.38108,0.93599 -3.47311,3.85483 -3.27193,4.56502 0.12268,0.43331 0.32597,1.14887 0.45155,1.59016 0.14954,0.52519 0.9128,0.81983 2.20973,0.85295 1.50976,0.0386 2.40819,-0.34244 3.77461,-1.60078 z m 41.03456,0.75396 c 0.0118,-0.65683 0.26119,-1.1881 0.55306,-1.18065 0.66487,0.017 0.65049,0.58015 -0.0407,1.59199 -0.43242,0.63306 -0.53047,0.55435 -0.5124,-0.41134 z m 76.16354,-71.66719 c 0.003,-0.11028 0.43139,-0.51742 0.95238,-0.90494 0.85852,-0.63858 0.8768,-0.61934 0.19524,0.20547 -0.71582,0.86626 -1.15877,1.13623 -1.14762,0.69947 z m 1.71799,-3.25145 c 0.0414,-0.61753 0.17023,-0.74007 0.32878,-0.31241 0.14345,0.38698 0.11303,0.8442 -0.0678,1.01604 -0.18084,0.17182 -0.29825,-0.14486 -0.26092,-0.70363 z"
     id="path12"
     inkscape:connector-curvature="0" />
</svg>
