<svg enable-background="new 0 0 4253.661 1017.313" version="1.1" viewBox="0 0 1e3 1e3" xmlns="http://www.w3.org/2000/svg">
 <path d="m961.6 290.13s-12.769-19.034-8.9673-28.901c3.8004-9.867 9.3799-7.406 9.3799-7.406l1.729-151.79-207.65 8.1907-294.29-0.14476-438.58-6.9649 5.7094 201.48 6.9203 25.903h-6.1856l5.156 181.93 0.68594 291.81-3.7165 89.65 773.58-7.5399 158.37 1.8251-3.3201-51.328-4.2198-72.488 5.3942-474.16z" fill="#fff" stroke="#808184" stroke-linejoin="round" stroke-miterlimit="10" stroke-width="2"/>
 <path d="m64.189 862.12 1.8941-70.08-5.9528-282.21v-375.02l464.72 0.81174 415.34-3.1117-7.1704 631.67 5.5469 96.732-157.21 2.9764z" fill="none" stroke="#808184" stroke-miterlimit="10" stroke-width="1.3529"/>
 <path d="m66.228 755.84c293.58 2.0427 573.25 0.61289 866.84 0.61289" fill="none" stroke="#808184" stroke-miterlimit="10" stroke-width="1.3529"/>
 <path d="m316.7 863.3-4.8162-107.33" fill="none" stroke="#808184" stroke-miterlimit="10" stroke-width="1.3529"/>
 <path d="m349.73 792.79v11.76h-1.1v-28.12h6.72q4.76 0 7.22 2.04 2.48 2.04 2.48 6.12 0 1.78-0.7 3.3-0.68 1.5-1.96 2.6-1.28 1.08-3.08 1.7-1.78 0.6-3.96 0.6zm0-0.9h5.62q1.98 0 3.56-0.56 1.6-0.56 2.7-1.54 1.12-0.98 1.72-2.32t0.6-2.88q0-3.56-2.14-5.42t-6.44-1.86h-5.62z"/>
 <path d="m369.88 804.55v-19.72h0.48q0.4 0 0.42 0.44l0.12 4.86q0.86-2.68 2.4-4.14 1.56-1.48 4.08-1.48 0.58 0 1.18 0.1 0.62 0.08 1.1 0.36l-0.12 0.62q-0.08 0.22-0.28 0.22-0.22 0-0.68-0.14-0.44-0.16-1.32-0.16-1.26 0-2.22 0.4-0.96 0.38-1.72 1.16-0.76 0.76-1.34 1.9-0.56 1.14-1.04 2.66v12.92z"/>
 <path d="m390.07 784.51q2.1 0 3.72 0.74 1.64 0.72 2.76 2.06 1.12 1.32 1.7 3.2t0.58 4.18-0.58 4.18q-0.58 1.86-1.7 3.18t-2.76 2.04q-1.62 0.7-3.72 0.7t-3.74-0.7q-1.62-0.72-2.74-2.04t-1.7-3.18q-0.58-1.88-0.58-4.18t0.58-4.18 1.7-3.2q1.12-1.34 2.74-2.06 1.64-0.74 3.74-0.74zm0 19.44q1.92 0 3.36-0.66t2.4-1.88q0.98-1.22 1.46-2.92t0.48-3.8-0.48-3.82-1.46-2.94q-0.96-1.24-2.4-1.9-1.44-0.68-3.36-0.68t-3.36 0.68q-1.44 0.66-2.42 1.9-0.96 1.22-1.44 2.94t-0.48 3.82 0.48 3.8 1.44 2.92q0.98 1.22 2.42 1.88t3.36 0.66z"/>
 <path d="m405.92 784.83v22.8q0 0.94-0.28 1.74t-0.84 1.38q-0.54 0.58-1.34 0.9-0.78 0.34-1.8 0.34-0.56 0-0.96-0.12-0.42-0.1-0.82-0.3l0.1-0.5q0.06-0.16 0.16-0.18 0.1 0 0.28 0.06t0.46 0.14q0.26 0.08 0.66 0.08 1.66 0 2.5-0.96t0.84-2.58v-22.8zm0.84-7.12q0 0.28-0.12 0.52t-0.32 0.44q-0.18 0.18-0.44 0.3-0.24 0.1-0.5 0.1-0.56 0-0.98-0.4-0.4-0.42-0.4-0.96 0-0.56 0.4-0.96 0.42-0.42 0.98-0.42 0.26 0 0.5 0.12 0.26 0.1 0.44 0.3 0.2 0.18 0.32 0.44 0.12 0.24 0.12 0.52z"/>
 <path d="m420.74 784.51q1.6 0 2.98 0.56 1.4 0.56 2.44 1.66 1.04 1.08 1.62 2.68 0.6 1.6 0.6 3.66 0 0.42-0.36 0.42h-14.94q-0.02 0.2-0.02 0.4t0 0.4q0 2.36 0.56 4.16t1.58 3.02 2.46 1.86q1.46 0.62 3.24 0.62 1.58 0 2.74-0.34 1.16-0.36 1.94-0.78t1.2-0.76q0.44-0.36 0.56-0.36 0.16 0 0.26 0.12l0.26 0.3q-0.4 0.5-1.12 0.98t-1.66 0.86q-0.92 0.36-2.02 0.58-1.08 0.24-2.22 0.24-2.02 0-3.66-0.7-1.62-0.72-2.78-2.06-1.14-1.34-1.76-3.28-0.62-1.96-0.62-4.46 0-2.16 0.58-3.94 0.6-1.8 1.72-3.1t2.74-2.02 3.68-0.72zm0.02 0.8q-1.68 0-3.02 0.54-1.32 0.54-2.28 1.52t-1.56 2.36q-0.58 1.38-0.76 3.06h14.28q0-1.78-0.52-3.16-0.5-1.4-1.4-2.36-0.88-0.96-2.1-1.46t-2.64-0.5z"/>
 <path d="m446.96 786.99q-0.06 0.06-0.12 0.12-0.06 0.04-0.16 0.04-0.16 0-0.5-0.28t-0.94-0.62-1.52-0.62-2.22-0.28q-1.84 0-3.28 0.66-1.42 0.64-2.42 1.86-0.98 1.22-1.5 2.94t-0.52 3.88q0 2.22 0.52 3.96 0.54 1.72 1.5 2.9 0.98 1.18 2.34 1.8 1.38 0.62 3.06 0.62 1.52 0 2.54-0.34 1.04-0.36 1.72-0.78 0.68-0.44 1.04-0.78 0.36-0.36 0.52-0.36t0.26 0.12l0.24 0.3q-0.36 0.5-1 0.98-0.62 0.48-1.46 0.86-0.82 0.36-1.84 0.58-1 0.24-2.14 0.24-1.9 0-3.44-0.68t-2.64-1.98q-1.08-1.3-1.68-3.18t-0.6-4.26q0-2.28 0.58-4.16 0.6-1.88 1.72-3.2 1.12-1.34 2.74-2.08t3.7-0.74q1.84 0 3.28 0.6 1.44 0.58 2.48 1.54z"/>
 <path d="m457.73 804.87q-1.84 0-2.88-1-1.04-1.02-1.04-3.26v-14.22h-3.08q-0.38 0-0.38-0.3v-0.36l3.46-0.14 0.3-7.6q0.02-0.12 0.1-0.22 0.08-0.12 0.22-0.12h0.44v7.94h6.52v0.8h-6.52v14.18q0 0.92 0.24 1.58 0.24 0.64 0.64 1.06t0.94 0.62q0.56 0.18 1.2 0.18 0.78 0 1.36-0.24 0.6-0.24 1.02-0.52t0.68-0.52 0.38-0.24q0.1 0 0.22 0.12l0.26 0.38q-0.34 0.42-0.8 0.76-0.44 0.34-0.98 0.6-0.54 0.24-1.12 0.38t-1.18 0.14z"/>
 <path d="m477.22 804.55v-19.72h0.5q0.38 0 0.4 0.4l0.12 3.42q1.38-1.9 3.28-3.02t4.18-1.12q1.64 0 2.86 0.52 1.24 0.5 2.04 1.46 0.82 0.94 1.22 2.32 0.42 1.38 0.42 3.12v12.62h-1.06v-12.62q0-1.54-0.34-2.76t-1.06-2.06q-0.7-0.86-1.76-1.3-1.06-0.46-2.5-0.46-2.16 0-4 1.14-1.84 1.12-3.24 3.12v14.94z"/>
 <path d="m511 804.55q-0.4 0-0.46-0.42l-0.2-2.9q-0.82 0.84-1.66 1.52-0.82 0.66-1.74 1.14-0.9 0.46-1.96 0.72t-2.34 0.26q-0.94 0-1.86-0.28t-1.66-0.88-1.2-1.54q-0.44-0.96-0.44-2.3 0-1.3 0.74-2.36 0.76-1.06 2.34-1.82 1.58-0.78 4-1.22 2.42-0.46 5.76-0.54v-2.34q0-2.96-1.28-4.6t-3.8-1.64q-1.5 0-2.58 0.44-1.08 0.42-1.8 0.96-0.72 0.52-1.16 0.96-0.42 0.42-0.64 0.42-0.2 0-0.36-0.22l-0.18-0.28q1.48-1.52 3.1-2.32t3.7-0.8q1.54 0 2.68 0.5 1.14 0.48 1.88 1.4 0.76 0.92 1.12 2.24 0.36 1.3 0.36 2.94v12.96zm-8.16-0.46q1.28 0 2.34-0.28 1.06-0.3 1.96-0.8t1.68-1.16q0.78-0.68 1.5-1.44v-5.72q-6.04 0.2-8.94 1.5-2.88 1.3-2.88 3.64 0 1.1 0.36 1.9 0.38 0.8 0.98 1.34 0.62 0.52 1.4 0.78 0.78 0.24 1.6 0.24z"/>
 <path d="m518.16 804.55v-19.72h0.5q0.38 0 0.4 0.4l0.12 3.32q1.16-1.84 2.72-2.94 1.58-1.1 3.48-1.1 2.26 0 3.58 1.36t1.72 3.82q0.3-1.32 0.92-2.28 0.64-0.98 1.48-1.62 0.84-0.66 1.84-0.96 1-0.32 2.06-0.32 1.42 0 2.56 0.5 1.16 0.48 1.96 1.42t1.22 2.32q0.44 1.38 0.44 3.18v12.62h-1.06v-12.62q0-3.2-1.38-4.88-1.36-1.7-3.9-1.7-1.12 0-2.16 0.42-1.02 0.4-1.82 1.24-0.78 0.82-1.26 2.06-0.48 1.22-0.48 2.86v12.62h-1.06v-12.62q0-3.14-1.24-4.86t-3.64-1.72q-1.8 0-3.3 1.12t-2.64 3.08v15z"/>
 <path d="m557.45 784.51q1.6 0 2.98 0.56 1.4 0.56 2.44 1.66 1.04 1.08 1.62 2.68 0.6 1.6 0.6 3.66 0 0.42-0.36 0.42h-14.94q-0.02 0.2-0.02 0.4t0 0.4q0 2.36 0.56 4.16t1.58 3.02 2.46 1.86q1.46 0.62 3.24 0.62 1.58 0 2.74-0.34 1.16-0.36 1.94-0.78t1.2-0.76q0.44-0.36 0.56-0.36 0.16 0 0.26 0.12l0.26 0.3q-0.4 0.5-1.12 0.98t-1.66 0.86q-0.92 0.36-2.02 0.58-1.08 0.24-2.22 0.24-2.02 0-3.66-0.7-1.62-0.72-2.78-2.06-1.14-1.34-1.76-3.28-0.62-1.96-0.62-4.46 0-2.16 0.58-3.94 0.6-1.8 1.72-3.1t2.74-2.02 3.68-0.72zm0.02 0.8q-1.68 0-3.02 0.54-1.32 0.54-2.28 1.52t-1.56 2.36q-0.58 1.38-0.76 3.06h14.28q0-1.78-0.52-3.16-0.5-1.4-1.4-2.36-0.88-0.96-2.1-1.46t-2.64-0.5z"/>
 <path d="m570.34 804.55m0-1.18q0-0.64 0.42-1.08 0.44-0.46 1.08-0.46t1.08 0.46q0.46 0.44 0.46 1.08t-0.46 1.08q-0.44 0.42-1.08 0.42t-1.08-0.42q-0.42-0.44-0.42-1.08zm0-16.44q0-0.64 0.42-1.08 0.44-0.46 1.08-0.46t1.08 0.46q0.46 0.44 0.46 1.08t-0.46 1.08q-0.44 0.42-1.08 0.42t-1.08-0.42q-0.42-0.44-0.42-1.08z"/>
 <path d="m608.82 776.43v0.94h-15.5v12.46h13.06v0.92h-13.06v12.86h15.54l-0.04 0.94h-16.6v-28.12z"/>
 <path d="m626 804.55q-0.4 0-0.46-0.42l-0.2-2.9q-0.82 0.84-1.66 1.52-0.82 0.66-1.74 1.14-0.9 0.46-1.96 0.72t-2.34 0.26q-0.94 0-1.86-0.28t-1.66-0.88-1.2-1.54q-0.44-0.96-0.44-2.3 0-1.3 0.74-2.36 0.76-1.06 2.34-1.82 1.58-0.78 4-1.22 2.42-0.46 5.76-0.54v-2.34q0-2.96-1.28-4.6t-3.8-1.64q-1.5 0-2.58 0.44-1.08 0.42-1.8 0.96-0.72 0.52-1.16 0.96-0.42 0.42-0.64 0.42-0.2 0-0.36-0.22l-0.18-0.28q1.48-1.52 3.1-2.32t3.7-0.8q1.54 0 2.68 0.5 1.14 0.48 1.88 1.4 0.76 0.92 1.12 2.24 0.36 1.3 0.36 2.94v12.96zm-8.16-0.46q1.28 0 2.34-0.28 1.06-0.3 1.96-0.8t1.68-1.16q0.78-0.68 1.5-1.44v-5.72q-6.04 0.2-8.94 1.5-2.88 1.3-2.88 3.64 0 1.1 0.36 1.9 0.38 0.8 0.98 1.34 0.62 0.52 1.4 0.78 0.78 0.24 1.6 0.24z"/>
 <path d="m643.64 786.85q-0.1 0.18-0.3 0.18-0.18 0-0.52-0.26-0.32-0.28-0.9-0.58-0.58-0.32-1.46-0.58-0.86-0.28-2.14-0.28-1.18 0-2.16 0.36-0.96 0.34-1.66 0.92t-1.08 1.36-0.38 1.62q0 1 0.48 1.68 0.5 0.68 1.3 1.16 0.8 0.46 1.82 0.8 1.02 0.32 2.08 0.66 1.06 0.32 2.08 0.7t1.82 0.94 1.28 1.38q0.5 0.82 0.5 2.02 0 1.24-0.44 2.32t-1.3 1.9q-0.84 0.8-2.08 1.26-1.22 0.46-2.8 0.46-1.06 0-1.92-0.18-0.86-0.16-1.6-0.46-0.74-0.32-1.38-0.76t-1.24-0.98l0.26-0.34q0.08-0.1 0.14-0.14 0.08-0.06 0.24-0.06 0.2 0 0.56 0.34 0.38 0.32 1 0.72 0.64 0.4 1.6 0.74 0.96 0.32 2.36 0.32 1.38 0 2.42-0.38 1.06-0.4 1.76-1.08 0.72-0.68 1.08-1.58 0.36-0.92 0.36-1.94 0-1.08-0.5-1.8-0.48-0.72-1.28-1.2-0.8-0.5-1.82-0.84t-2.08-0.66-2.08-0.68q-1.02-0.38-1.82-0.92-0.8-0.56-1.3-1.36-0.48-0.8-0.48-2 0-1 0.44-1.92 0.46-0.94 1.28-1.64 0.82-0.72 1.96-1.14 1.16-0.42 2.58-0.42 1.72 0 3.04 0.48t2.5 1.52z"/>
 <path d="m655.07 804.87q-1.84 0-2.88-1-1.04-1.02-1.04-3.26v-14.22h-3.08q-0.38 0-0.38-0.3v-0.36l3.46-0.14 0.3-7.6q0.02-0.12 0.1-0.22 0.08-0.12 0.22-0.12h0.44v7.94h6.52v0.8h-6.52v14.18q0 0.92 0.24 1.58 0.24 0.64 0.64 1.06t0.94 0.62q0.56 0.18 1.2 0.18 0.78 0 1.36-0.24 0.6-0.24 1.02-0.52t0.68-0.52 0.38-0.24q0.1 0 0.22 0.12l0.26 0.38q-0.34 0.42-0.8 0.76-0.44 0.34-0.98 0.6-0.54 0.24-1.12 0.38t-1.18 0.14z"/>
 <path d="m670.89 784.51q1.6 0 2.98 0.56 1.4 0.56 2.44 1.66 1.04 1.08 1.62 2.68 0.6 1.6 0.6 3.66 0 0.42-0.36 0.42h-14.94q-0.02 0.2-0.02 0.4t0 0.4q0 2.36 0.56 4.16t1.58 3.02 2.46 1.86q1.46 0.62 3.24 0.62 1.58 0 2.74-0.34 1.16-0.36 1.94-0.78t1.2-0.76q0.44-0.36 0.56-0.36 0.16 0 0.26 0.12l0.26 0.3q-0.4 0.5-1.12 0.98t-1.66 0.86q-0.92 0.36-2.02 0.58-1.08 0.24-2.22 0.24-2.02 0-3.66-0.7-1.62-0.72-2.78-2.06-1.14-1.34-1.76-3.28-0.62-1.96-0.62-4.46 0-2.16 0.58-3.94 0.6-1.8 1.72-3.1t2.74-2.02 3.68-0.72zm0.02 0.8q-1.68 0-3.02 0.54-1.32 0.54-2.28 1.52t-1.56 2.36q-0.58 1.38-0.76 3.06h14.28q0-1.78-0.52-3.16-0.5-1.4-1.4-2.36-0.88-0.96-2.1-1.46t-2.64-0.5z"/>
 <path d="m684.1 804.55v-19.72h0.48q0.4 0 0.42 0.44l0.12 4.86q0.86-2.68 2.4-4.14 1.56-1.48 4.08-1.48 0.58 0 1.18 0.1 0.62 0.08 1.1 0.36l-0.12 0.62q-0.08 0.22-0.28 0.22-0.22 0-0.68-0.14-0.44-0.16-1.32-0.16-1.26 0-2.22 0.4-0.96 0.38-1.72 1.16-0.76 0.76-1.34 1.9-0.56 1.14-1.04 2.66v12.92z"/>
 <text x="345.6557" y="839.05487" fill="#000000" font-family="sans-serif" font-size="40px" letter-spacing="0px" word-spacing="0px" style="line-height:1.25" xml:space="preserve"><tspan class="deployment-date" x="345.6557" y="839.05487" font-family="Roboto" font-size="26.667px" font-weight="200"></tspan></text>
 <path d="m87.322 775.65c2.2152 0.0435 21.711-1.763 28.398 1.173 6.6869 2.9359 5.7092 3.2238 9.7702 6.4673-0.64745-1.9182-0.0847-0.29843-1.3661-2.1148 4.6678 2.1825 11.377 5.2862 12.864 13.21 3.9432 3.2417 5.2744 4.9981 7.7808 11.357l-1.5562 26.034-3.5288-18.134s-4.4-3.8592-5.3069-7.638c-3.7688 0.30949-13.947-3.9209-17.059-2.2591-3.1122 1.6618-4.7925 3.0186-9.2888 1.12s-5.4585-1.45-10.408 1.0028c-3.4509 0.95377-11.848 5.185-11.848 5.185l-4.7468 20.435-1.246-26.601-6.0865-6.4459s0.84272-2.1452 4.1539-4.3333c3.3112-2.1881 5.3859-2.6351 5.3859-2.6351-3.4637-1.842-3.8391-2.9263-7.2065-4.5757 5.4874-6.0883 11.273-6.9188 14.063-6.7606-1.9248-1.0212-2.0887-2.3833-2.7688-4.4864z" fill="#231f20" stroke-width=".73135"/>
 <path d="m102.27 824.7c3.8141 1.0797 3.8802 0.56288 4.9638 0.6853-0.0153 0.85057-0.0698 2.0295-1.5683 2.2544-1.4985 0.22491-19.25-2.5674-21.71-1.0984 2.9844-6.0876 14.5-2.921 18.314-1.8413z" fill="#3e3734" stroke-width=".73135"/>
 <path d="m122.18 823.7c-3.6095 1.6327-4.3973 1.2553-5.481 1.3574 0.0153 0.70937 0.45769 1.8355 1.9562 2.0231 1.4985 0.18758 12.993-6.7832 21.322-1.059-1.4922-2.5385-4.6001-5.8624-8.3288-5.7242-3.7288 0.13817-7.3673 2.4524-9.4682 3.4027z" fill="#3e3734" stroke-width=".73135"/>
 <path d="m130.84 825.58c-5.2406 0.0341-10.291 1.6316-15.435 2.2703-2.1469 0.26661-4.3595 0.33201-6.51 0.0841-2.8593-0.32971-5.6276-1.2052-8.485-1.5977-2.5537-0.35055-5.1392-0.71678-7.7088-0.73134-4.4906-0.026-8.8337 1.345-13.236 2.0853 0 1.2556-0.26169 2.8674 0.39652 3.7501 0.67893 0.91027 1.8242 1.7427 2.1212 2.9764 0.7044 2.9256 1.7046 5.7934 2.9834 8.5428 0.62148 1.3361 1.7943 2.2676 3.1042 2.9092 3.1541 1.5452 6.8871 1.7724 10.347 1.2865 4.9276-0.69197 7.601-4.2973 9.6405-8.4167 0.76341-1.6745 0.84851-3.6072 1.8539-5.1375 0.59709-0.9089 1.9838-0.52631 2.9746-0.52969 0.99113-4e-3 1.8312 1.604 2.1386 2.6739 1.0884 3.7863 2.9033 7.8033 6.5102 9.7871 5.3861 2.9627 13.872 2.4085 17.366-2.9344 1.3678-2.0912 1.7453-4.6282 2.4315-6.9956 0.41775-1.4413 0.79109-3.1597 2.2765-3.9519 0.59945-0.31989 0.17883-1.5958 0.26721-2.3376 0.0964-0.80801 0.28249-1.523-0.8967-1.6815-2.0567-0.27702-4.0517-1.1191-6.1567-1.4042-1.9947-0.27021-3.949-0.66069-5.9843-0.64758zm-34.646 1.3453c1.4877-9e-3 2.969 0.097 4.415 0.39523 8.6151 1.7769 8.7892 5.2382 5.2427 12.394-2.89 5.8307-8.8765 7.2917-14.909 5.8941-2.7809-0.64421-4.6822-2.537-5.5791-5.1289-0.9465-2.7358-1.6625-5.6423-1.5003-8.5178 0.21717-3.8503 4.6833-4.3914 7.8812-4.7422 1.4675-0.16093 2.9617-0.28508 4.4493-0.29431zm31.456 0c1.4877 8e-3 2.982 0.13338 4.4495 0.29431 3.1978 0.35078 7.6643 0.89191 7.8812 4.7422 0.16207 2.8755-0.55386 5.782-1.5005 8.5178-0.89669 2.5919-2.7982 4.4847-5.5789 5.1289-6.032 1.3976-12.019-0.0634-14.909-5.8941-3.5465-7.1558-3.3721-10.617 5.243-12.394 1.4459-0.2982 2.9271-0.40431 4.4147-0.39523z" fill="#3d3e40"/>
 <path d="m289.33 776.57c-1.9727 0-3.7238 0.30349-5.2559 0.91211-1.5111 0.60867-2.7925 1.4287-3.8418 2.457-1.0283 1.0073-1.8157 2.1719-2.3613 3.4941s-0.81836 2.7062-0.81836 4.1543c0 1.8469 0.32597 3.3907 0.97656 4.6289 0.6506 1.2173 1.4995 2.2445 2.5488 3.084 1.0703 0.81847 2.2882 1.5012 3.6524 2.0469 1.3641 0.52469 2.7501 1.0168 4.1562 1.4785 1.4271 0.44072 2.8214 0.91428 4.1856 1.418 1.3641 0.48273 2.5718 1.0916 3.6211 1.8262 1.0703 0.73454 1.9314 1.647 2.582 2.7383 0.65059 1.0913 0.97461 2.4754 0.97461 4.1543 0 1.574-0.2727 3.0543-0.81836 4.4394-0.54567 1.3851-1.3432 2.603-2.3926 3.6524-1.0283 1.0284-2.2975 1.8465-3.8086 2.4551-1.5111 0.58762-3.2211 0.88086-5.1309 0.88085-1.3431 1e-5 -2.5508-0.12511-3.6211-0.37695-1.0494-0.27283-1.9823-0.5988-2.8008-0.97656-0.7975-0.39874-1.4905-0.81904-2.0781-1.2598-0.5876-0.4617-1.092-0.88005-1.5117-1.2578-0.41977-0.39875-0.76623-0.72471-1.0391-0.97656-0.25184-0.27283-0.45074-0.4082-0.59765-0.4082-0.1469 0-0.26175 0.03081-0.3457 0.09375-0.06297 0.04197-0.14702 0.11577-0.25196 0.2207l-0.41015 0.6289c0.77653 0.90247 1.5844 1.7103 2.4238 2.4238 0.86047 0.71358 1.7953 1.3225 2.8027 1.8262 1.0283 0.48269 2.1397 0.84972 3.3359 1.1016 1.2173 0.27282 2.5724 0.41015 4.0625 0.41015 2.1827 0 4.1243-0.33621 5.8242-1.0078 1.7209-0.6926 3.1685-1.6275 4.3438-2.8027 1.1962-1.1963 2.0984-2.5906 2.707-4.1856 0.6296-1.616 0.94335-3.3382 0.94335-5.1641 1e-5 -1.7839-0.32401-3.2725-0.9746-4.4688-0.6506-1.2173-1.5117-2.2362-2.582-3.0547-1.0703-0.81846-2.2882-1.489-3.6523-2.0137-1.3431-0.54569-2.7272-1.05-4.1543-1.5117-1.4271-0.48271-2.8234-0.97678-4.1875-1.4805-1.3431-0.50367-2.5488-1.1229-3.6191-1.8574s-1.9314-1.6367-2.582-2.707c-0.6506-1.0913-0.97656-2.4446-0.97656-4.0606 0-1.2593 0.23164-2.4546 0.69336-3.5879 0.46167-1.1543 1.1444-2.1732 2.0469-3.0547 0.9024-0.88144 2.0137-1.5744 3.3359-2.0781 1.3431-0.52467 2.8748-0.78711 4.5957-0.78711 1.6999 0 3.127 0.21112 4.2812 0.63086 1.1543 0.39872 2.0995 0.84983 2.834 1.3535 0.73452 0.50367 1.3005 0.96504 1.6992 1.3848 0.41974 0.39875 0.74571 0.59765 0.97656 0.59766 0.23086 0 0.40924-0.10459 0.53516-0.31446l0.37695-0.6914c-1.4901-1.5111-3.0955-2.6244-4.8164-3.3379-1.6999-0.71353-3.6621-1.0703-5.8867-1.0703zm-92.672 0.50586v27.639c0 2.3925 0.37923 4.6396 1.1348 6.7383 0.75553 2.0777 1.836 3.8923 3.2422 5.4453 1.4061 1.5531 3.1161 2.7812 5.1309 3.6836 2.0148 0.88147 4.2824 1.3223 6.8008 1.3223 2.5185 0 4.7738-0.4408 6.7676-1.3223 2.0147-0.9024 3.7247-2.1305 5.1309-3.6836 1.4271-1.553 2.5179-3.3676 3.2734-5.4453 0.75553-2.0987 1.1348-4.3457 1.1348-6.7383v-27.639h-1.7637v27.639c0 2.1827-0.33621 4.2289-1.0078 6.1387-0.6506 1.8888-1.6041 3.5372-2.8633 4.9434-1.2382 1.4061-2.7596 2.5175-4.5645 3.3359-1.7839 0.79754-3.8198 1.1973-6.1074 1.1973s-4.3338-0.39973-6.1387-1.1973c-1.8049-0.81846-3.3384-1.9298-4.5976-3.3359-1.2382-1.4271-2.1917-3.0961-2.8633-5.0059-0.65059-1.9098-0.97656-3.956-0.97656-6.1387v-27.576h-1.7324zm56.207 0.00195v44.262h1.7305v-44.262h-1.7305zm-95.16 0.00196v44.262h23.674v-1.5117h-21.943v-42.75h-1.7305z"/>
 <path d="m292.53 827.76c-2.8236 0-5.0042 0.72248-6.543 2.166-1.5229 1.4277-2.2832 3.5287-2.2832 6.3047s0.76034 4.8865 2.2832 6.3301c1.5387 1.4277 3.7194 2.1406 6.543 2.1406s5.0062-0.72053 6.5449-2.1641 2.3066-3.5464 2.3066-6.3066-0.76791-4.8612-2.3066-6.3047-3.7213-2.166-6.5449-2.166zm-80.857 0.28711v10.66c0 0.74554-0.14221 1.2765-0.42774 1.5938-0.26967 0.31726-0.69065 0.47461-1.2617 0.47461-0.57106 0-0.99962-0.15735-1.2852-0.47461-0.26968-0.31727-0.4043-0.84822-0.4043-1.5938v-0.19141h-4.9258v0.21485c0 0.64345 0.06519 1.2269 0.17969 1.7637h-8.8281v-2.498h7.6133v-3.7598h-7.6133v-2.2598h8.8984v-3.9258h-14.156v16.369h14.324v-3.0742c0.28937 0.77479 0.72738 1.4124 1.3184 1.9062 1.1739 0.96767 2.8558 1.4512 5.0449 1.4512s3.8635-0.4835 5.0215-1.4512c1.1739-0.96766 1.7598-2.4752 1.7598-4.5215v-10.684h-5.2578zm-47.992 0.00195-5.9727 16.371h5.3789l0.68945-2.3086h5.7344l0.68945 2.3086h19.109v-4.1875h-8.4004v-12.182h-5.2578v16.049l-5.8555-16.051h-6.1152zm58.561 0-5.9726 16.371h5.377l0.69141-2.3086h5.7344l0.68946 2.3086h10.283v-7.9473l6.877 7.9473h4.5918v-16.371h-4.8301v8.0664l-6.877-8.0664h-4.5918v16.055l-5.8574-16.055h-6.1152zm29.738 0v16.371h7.0918c5.7265 0 8.5898-2.7287 8.5898-8.1855 0-5.4569-2.8633-8.1836-8.5898-8.1836l-7.0918-0.00195zm16.414 0v16.371h5.2578v-5.9726h1.9512l2.9024 5.9726h5.9023l-3.6406-6.8535c1.0311-0.38074 1.8161-0.97421 2.3555-1.7832 0.53935-0.809 0.8086-1.7135 0.8086-2.7129 0-0.90413-0.21427-1.7385-0.64258-2.5-0.41247-0.7773-1.0382-1.3879-1.8789-1.832-0.82486-0.46003-1.8242-0.68945-2.998-0.68945h-10.018zm24.137 3.6367c1.1263 0 1.9834 0.3413 2.5703 1.0234 0.60279 0.68214 0.9043 1.6018 0.9043 2.7598v1.5234c0 1.158-0.30151 2.0776-0.9043 2.7598-0.58693 0.68214-1.444 1.0234-2.5703 1.0234s-1.9814-0.3413-2.5684-1.0234c-0.58693-0.68213-0.88086-1.6018-0.88086-2.7598v-1.5234c0-1.158 0.29393-2.0776 0.88086-2.7598 0.58693-0.68213 1.4421-1.0234 2.5684-1.0234zm-18.879 0.09961h3.4512c0.41247 0 0.76134 0.1422 1.0469 0.42773 0.28554 0.28557 0.42773 0.64201 0.42773 1.0703 0 0.42834-0.14219 0.79431-0.42773 1.0957-0.28556 0.28553-0.63444 0.42773-1.0469 0.42773h-3.4512v-3.0215zm-16.412 0.1914h1.7363c2.2049 0 3.3066 1.1813 3.3066 3.5449v1.4277c0 2.3636-1.1017 3.5449-3.3066 3.5449h-1.7363v-8.5176zm-90.631 0.64063h0.0957l1.7129 5.8301h-3.5469l1.7383-5.8301zm58.561 0h0.09375l1.7129 5.8301h-3.5449l1.7383-5.8301z"/>
 <path d="m488.62 712.91c-3.9644-1.2517-10.56-8.3733-12.577-13.58-2.3468-6.0583-0.33983-19.329 3.9147-25.864 2.9337-4.5077 4.6069-5.7425 10.05-7.4176 3.5924-1.1053 10.395-2.289 15.118-2.6304 10.263-0.74186 11.694 0.0617 16.604 9.322 4.9141 9.2671 4.5031 18.392-1.1913 26.427-5.569 7.8578-14.359 12.933-22.401 12.933-3.0187 0-5.7095 0.3989-5.9786 0.88646-0.27098 0.48755-1.8623 0.45318-3.5395-0.0764zm8.8242-6.8271c0.44089-0.498-0.67608-1.1289-2.4851-1.402-1.8094-0.27316-4.6124-0.82429-6.229-1.2248-2.5535-0.63262-2.4841-0.44867 0.53046 1.402 3.6673 2.2518 6.8482 2.7278 8.1836 1.2248zm14.084-6.7689c4.9738-1.7891 7.7542-7.3611 7.526-15.081-0.17452-5.9578-3.129-9.2715-11.189-12.557-8.1974-3.3417-12.539-3.1897-18.301 0.64087-4.6069 3.0627-5.3518 5.5875-0.88826 3.0105 2.8797-1.6625 6.044-0.77885 7.08 1.9771 0.64071 1.7055 0.22497 2.1147-1.8973 1.8756-1.4943-0.16836-4.7473 1.0453-7.2291 2.6968-3.6282 2.4142-4.5127 3.8398-4.5127 7.274 0 4.6431 3.9817 9.1818 9.3882 10.701 5.0018 1.4057 15.396 1.1263 20.023-0.53839zm2.1015-31.602c-1.5679-0.79745-3.1629-1.2325-3.545-0.96674-0.80876 0.56263 2.981 2.378 5.0124 2.401 0.76045 0.01 0.10062-0.63682-1.4674-1.4343zm-15.972-15.078c-2.605-5.6673-4.2271-26.584-2.6399-34.037 0.99017-4.6487 1.4669-5.1262 5.726-5.7321 2.5554-0.36353 7.7928-1.9919 11.639-3.6186 3.8458-1.6267 8.6948-3.663 10.775-4.525 22.118-9.1635 29.392-16.679 35.033-36.194 2.0222-6.9967 2.0965-9.6709 0.53879-19.424-2.4309-15.22-3.844-18.951-11.251-29.712-7.3105-10.621-14.74-17.096-22.971-20.016-6.9758-2.4756-31.128-3.7591-40.187-2.1356-22.071 3.9554-43.354 12.338-43.354 17.076 0 1.9034-2.0703 1.925-4.3133 0.0447-1.8311-1.5348-2.053-1.2432 6.2849-8.2588 3.9708-3.3412 10.872-6.0008 26.563-10.236 15.517-4.1884 26.794-5.1757 41.051-3.5938 14.915 1.655 20.642 3.6658 28.27 9.9256 16.578 13.606 25.655 33.343 25.569 55.601-0.0503 12.709-7.7501 30.26-16.746 38.167-4.3056 3.7841-26.227 14.455-39.025 18.997l-5.9277 2.1037-0.36729 6.8799c-0.20212 3.784-0.36744 11.898-0.36744 18.031 0 8.0043-0.51809 11.274-1.8362 11.586-1.0099 0.23961-2.1185-0.17795-2.4629-0.92751z" stroke-width="1.2257"/>
</svg>
