<svg enable-background="new 0 0 4253.661 1017.313" version="1.1" viewBox="0 0 1e3 1e3" xmlns="http://www.w3.org/2000/svg">
 <path d="m961.6 290.13s-12.769-19.034-8.9673-28.901c3.8004-9.867 9.3799-7.406 9.3799-7.406l1.729-151.79-207.65 8.1907-294.29-0.14476-438.58-6.9649 5.7094 201.48 6.9203 25.903h-6.1856l5.156 181.93 0.68594 291.81-3.7165 89.65 773.58-7.5399 158.37 1.8251-3.3201-51.328-4.2198-72.488 5.3942-474.16z" fill="#fffffc" stroke="#808184" stroke-linejoin="round" stroke-miterlimit="10" stroke-width="2"/>
 <path d="m64.189 862.12 1.8941-70.08-5.9528-282.21v-375.02l464.72 0.81174 415.34-3.1117-7.1704 631.67 5.5469 96.732-157.21 2.9764z" fill="none" stroke="#808184" stroke-miterlimit="10" stroke-width="1.3529"/>
 <path d="m66.228 755.84c293.58 2.0427 573.25 0.61289 866.84 0.61289" fill="none" stroke="#808184" stroke-miterlimit="10" stroke-width="1.3529"/>
 <path d="m316.7 863.3-4.8162-107.33" fill="none" stroke="#808184" stroke-miterlimit="10" stroke-width="1.3529"/>
 <path d="m349.73 792.79v11.76h-1.1v-28.12h6.72q4.76 0 7.22 2.04 2.48 2.04 2.48 6.12 0 1.78-0.7 3.3-0.68 1.5-1.96 2.6-1.28 1.08-3.08 1.7-1.78 0.6-3.96 0.6zm0-0.9h5.62q1.98 0 3.56-0.56 1.6-0.56 2.7-1.54 1.12-0.98 1.72-2.32t0.6-2.88q0-3.56-2.14-5.42t-6.44-1.86h-5.62z"/>
 <path d="m369.88 804.55v-19.72h0.48q0.4 0 0.42 0.44l0.12 4.86q0.86-2.68 2.4-4.14 1.56-1.48 4.08-1.48 0.58 0 1.18 0.1 0.62 0.08 1.1 0.36l-0.12 0.62q-0.08 0.22-0.28 0.22-0.22 0-0.68-0.14-0.44-0.16-1.32-0.16-1.26 0-2.22 0.4-0.96 0.38-1.72 1.16-0.76 0.76-1.34 1.9-0.56 1.14-1.04 2.66v12.92z"/>
 <path d="m390.07 784.51q2.1 0 3.72 0.74 1.64 0.72 2.76 2.06 1.12 1.32 1.7 3.2t0.58 4.18-0.58 4.18q-0.58 1.86-1.7 3.18t-2.76 2.04q-1.62 0.7-3.72 0.7t-3.74-0.7q-1.62-0.72-2.74-2.04t-1.7-3.18q-0.58-1.88-0.58-4.18t0.58-4.18 1.7-3.2q1.12-1.34 2.74-2.06 1.64-0.74 3.74-0.74zm0 19.44q1.92 0 3.36-0.66t2.4-1.88q0.98-1.22 1.46-2.92t0.48-3.8-0.48-3.82-1.46-2.94q-0.96-1.24-2.4-1.9-1.44-0.68-3.36-0.68t-3.36 0.68q-1.44 0.66-2.42 1.9-0.96 1.22-1.44 2.94t-0.48 3.82 0.48 3.8 1.44 2.92q0.98 1.22 2.42 1.88t3.36 0.66z"/>
 <path d="m405.92 784.83v22.8q0 0.94-0.28 1.74t-0.84 1.38q-0.54 0.58-1.34 0.9-0.78 0.34-1.8 0.34-0.56 0-0.96-0.12-0.42-0.1-0.82-0.3l0.1-0.5q0.06-0.16 0.16-0.18 0.1 0 0.28 0.06t0.46 0.14q0.26 0.08 0.66 0.08 1.66 0 2.5-0.96t0.84-2.58v-22.8zm0.84-7.12q0 0.28-0.12 0.52t-0.32 0.44q-0.18 0.18-0.44 0.3-0.24 0.1-0.5 0.1-0.56 0-0.98-0.4-0.4-0.42-0.4-0.96 0-0.56 0.4-0.96 0.42-0.42 0.98-0.42 0.26 0 0.5 0.12 0.26 0.1 0.44 0.3 0.2 0.18 0.32 0.44 0.12 0.24 0.12 0.52z"/>
 <path d="m420.74 784.51q1.6 0 2.98 0.56 1.4 0.56 2.44 1.66 1.04 1.08 1.62 2.68 0.6 1.6 0.6 3.66 0 0.42-0.36 0.42h-14.94q-0.02 0.2-0.02 0.4t0 0.4q0 2.36 0.56 4.16t1.58 3.02 2.46 1.86q1.46 0.62 3.24 0.62 1.58 0 2.74-0.34 1.16-0.36 1.94-0.78t1.2-0.76q0.44-0.36 0.56-0.36 0.16 0 0.26 0.12l0.26 0.3q-0.4 0.5-1.12 0.98t-1.66 0.86q-0.92 0.36-2.02 0.58-1.08 0.24-2.22 0.24-2.02 0-3.66-0.7-1.62-0.72-2.78-2.06-1.14-1.34-1.76-3.28-0.62-1.96-0.62-4.46 0-2.16 0.58-3.94 0.6-1.8 1.72-3.1t2.74-2.02 3.68-0.72zm0.02 0.8q-1.68 0-3.02 0.54-1.32 0.54-2.28 1.52t-1.56 2.36q-0.58 1.38-0.76 3.06h14.28q0-1.78-0.52-3.16-0.5-1.4-1.4-2.36-0.88-0.96-2.1-1.46t-2.64-0.5z"/>
 <path d="m446.96 786.99q-0.06 0.06-0.12 0.12-0.06 0.04-0.16 0.04-0.16 0-0.5-0.28t-0.94-0.62-1.52-0.62-2.22-0.28q-1.84 0-3.28 0.66-1.42 0.64-2.42 1.86-0.98 1.22-1.5 2.94t-0.52 3.88q0 2.22 0.52 3.96 0.54 1.72 1.5 2.9 0.98 1.18 2.34 1.8 1.38 0.62 3.06 0.62 1.52 0 2.54-0.34 1.04-0.36 1.72-0.78 0.68-0.44 1.04-0.78 0.36-0.36 0.52-0.36t0.26 0.12l0.24 0.3q-0.36 0.5-1 0.98-0.62 0.48-1.46 0.86-0.82 0.36-1.84 0.58-1 0.24-2.14 0.24-1.9 0-3.44-0.68t-2.64-1.98q-1.08-1.3-1.68-3.18t-0.6-4.26q0-2.28 0.58-4.16 0.6-1.88 1.72-3.2 1.12-1.34 2.74-2.08t3.7-0.74q1.84 0 3.28 0.6 1.44 0.58 2.48 1.54z"/>
 <path d="m457.73 804.87q-1.84 0-2.88-1-1.04-1.02-1.04-3.26v-14.22h-3.08q-0.38 0-0.38-0.3v-0.36l3.46-0.14 0.3-7.6q0.02-0.12 0.1-0.22 0.08-0.12 0.22-0.12h0.44v7.94h6.52v0.8h-6.52v14.18q0 0.92 0.24 1.58 0.24 0.64 0.64 1.06t0.94 0.62q0.56 0.18 1.2 0.18 0.78 0 1.36-0.24 0.6-0.24 1.02-0.52t0.68-0.52 0.38-0.24q0.1 0 0.22 0.12l0.26 0.38q-0.34 0.42-0.8 0.76-0.44 0.34-0.98 0.6-0.54 0.24-1.12 0.38t-1.18 0.14z"/>
 <path d="m477.22 804.55v-19.72h0.5q0.38 0 0.4 0.4l0.12 3.42q1.38-1.9 3.28-3.02t4.18-1.12q1.64 0 2.86 0.52 1.24 0.5 2.04 1.46 0.82 0.94 1.22 2.32 0.42 1.38 0.42 3.12v12.62h-1.06v-12.62q0-1.54-0.34-2.76t-1.06-2.06q-0.7-0.86-1.76-1.3-1.06-0.46-2.5-0.46-2.16 0-4 1.14-1.84 1.12-3.24 3.12v14.94z"/>
 <path d="m511 804.55q-0.4 0-0.46-0.42l-0.2-2.9q-0.82 0.84-1.66 1.52-0.82 0.66-1.74 1.14-0.9 0.46-1.96 0.72t-2.34 0.26q-0.94 0-1.86-0.28t-1.66-0.88-1.2-1.54q-0.44-0.96-0.44-2.3 0-1.3 0.74-2.36 0.76-1.06 2.34-1.82 1.58-0.78 4-1.22 2.42-0.46 5.76-0.54v-2.34q0-2.96-1.28-4.6t-3.8-1.64q-1.5 0-2.58 0.44-1.08 0.42-1.8 0.96-0.72 0.52-1.16 0.96-0.42 0.42-0.64 0.42-0.2 0-0.36-0.22l-0.18-0.28q1.48-1.52 3.1-2.32t3.7-0.8q1.54 0 2.68 0.5 1.14 0.48 1.88 1.4 0.76 0.92 1.12 2.24 0.36 1.3 0.36 2.94v12.96zm-8.16-0.46q1.28 0 2.34-0.28 1.06-0.3 1.96-0.8t1.68-1.16q0.78-0.68 1.5-1.44v-5.72q-6.04 0.2-8.94 1.5-2.88 1.3-2.88 3.64 0 1.1 0.36 1.9 0.38 0.8 0.98 1.34 0.62 0.52 1.4 0.78 0.78 0.24 1.6 0.24z"/>
 <path d="m518.16 804.55v-19.72h0.5q0.38 0 0.4 0.4l0.12 3.32q1.16-1.84 2.72-2.94 1.58-1.1 3.48-1.1 2.26 0 3.58 1.36t1.72 3.82q0.3-1.32 0.92-2.28 0.64-0.98 1.48-1.62 0.84-0.66 1.84-0.96 1-0.32 2.06-0.32 1.42 0 2.56 0.5 1.16 0.48 1.96 1.42t1.22 2.32q0.44 1.38 0.44 3.18v12.62h-1.06v-12.62q0-3.2-1.38-4.88-1.36-1.7-3.9-1.7-1.12 0-2.16 0.42-1.02 0.4-1.82 1.24-0.78 0.82-1.26 2.06-0.48 1.22-0.48 2.86v12.62h-1.06v-12.62q0-3.14-1.24-4.86t-3.64-1.72q-1.8 0-3.3 1.12t-2.64 3.08v15z"/>
 <path d="m557.45 784.51q1.6 0 2.98 0.56 1.4 0.56 2.44 1.66 1.04 1.08 1.62 2.68 0.6 1.6 0.6 3.66 0 0.42-0.36 0.42h-14.94q-0.02 0.2-0.02 0.4t0 0.4q0 2.36 0.56 4.16t1.58 3.02 2.46 1.86q1.46 0.62 3.24 0.62 1.58 0 2.74-0.34 1.16-0.36 1.94-0.78t1.2-0.76q0.44-0.36 0.56-0.36 0.16 0 0.26 0.12l0.26 0.3q-0.4 0.5-1.12 0.98t-1.66 0.86q-0.92 0.36-2.02 0.58-1.08 0.24-2.22 0.24-2.02 0-3.66-0.7-1.62-0.72-2.78-2.06-1.14-1.34-1.76-3.28-0.62-1.96-0.62-4.46 0-2.16 0.58-3.94 0.6-1.8 1.72-3.1t2.74-2.02 3.68-0.72zm0.02 0.8q-1.68 0-3.02 0.54-1.32 0.54-2.28 1.52t-1.56 2.36q-0.58 1.38-0.76 3.06h14.28q0-1.78-0.52-3.16-0.5-1.4-1.4-2.36-0.88-0.96-2.1-1.46t-2.64-0.5z"/>
 <path d="m570.34 804.55m0-1.18q0-0.64 0.42-1.08 0.44-0.46 1.08-0.46t1.08 0.46q0.46 0.44 0.46 1.08t-0.46 1.08q-0.44 0.42-1.08 0.42t-1.08-0.42q-0.42-0.44-0.42-1.08zm0-16.44q0-0.64 0.42-1.08 0.44-0.46 1.08-0.46t1.08 0.46q0.46 0.44 0.46 1.08t-0.46 1.08q-0.44 0.42-1.08 0.42t-1.08-0.42q-0.42-0.44-0.42-1.08z"/>
 <path d="m613.34 804.55h-1.12v-13.82h-18.9v13.82h-1.1v-28.12h1.1v13.42h18.9v-13.42h1.12z"/>
 <path d="m628.28 784.51q2.1 0 3.72 0.74 1.64 0.72 2.76 2.06 1.12 1.32 1.7 3.2t0.58 4.18-0.58 4.18q-0.58 1.86-1.7 3.18t-2.76 2.04q-1.62 0.7-3.72 0.7t-3.74-0.7q-1.62-0.72-2.74-2.04t-1.7-3.18q-0.58-1.88-0.58-4.18t0.58-4.18 1.7-3.2q1.12-1.34 2.74-2.06 1.64-0.74 3.74-0.74zm0 19.44q1.92 0 3.36-0.66t2.4-1.88q0.98-1.22 1.46-2.92t0.48-3.8-0.48-3.82-1.46-2.94q-0.96-1.24-2.4-1.9-1.44-0.68-3.36-0.68t-3.36 0.68q-1.44 0.66-2.42 1.9-0.96 1.22-1.44 2.94t-0.48 3.82 0.48 3.8 1.44 2.92q0.98 1.22 2.42 1.88t3.36 0.66z"/>
 <path d="m642.85 804.55v-19.72h0.5q0.38 0 0.4 0.4l0.12 3.32q1.16-1.84 2.72-2.94 1.58-1.1 3.48-1.1 2.26 0 3.58 1.36t1.72 3.82q0.3-1.32 0.92-2.28 0.64-0.98 1.48-1.62 0.84-0.66 1.84-0.96 1-0.32 2.06-0.32 1.42 0 2.56 0.5 1.16 0.48 1.96 1.42t1.22 2.32q0.44 1.38 0.44 3.18v12.62h-1.06v-12.62q0-3.2-1.38-4.88-1.36-1.7-3.9-1.7-1.12 0-2.16 0.42-1.02 0.4-1.82 1.24-0.78 0.82-1.26 2.06-0.48 1.22-0.48 2.86v12.62h-1.06v-12.62q0-3.14-1.24-4.86t-3.64-1.72q-1.8 0-3.3 1.12t-2.64 3.08v15z"/>
 <path d="m682.14 784.51q1.6 0 2.98 0.56 1.4 0.56 2.44 1.66 1.04 1.08 1.62 2.68 0.6 1.6 0.6 3.66 0 0.42-0.36 0.42h-14.94q-0.02 0.2-0.02 0.4t0 0.4q0 2.36 0.56 4.16t1.58 3.02 2.46 1.86q1.46 0.62 3.24 0.62 1.58 0 2.74-0.34 1.16-0.36 1.94-0.78t1.2-0.76q0.44-0.36 0.56-0.36 0.16 0 0.26 0.12l0.26 0.3q-0.4 0.5-1.12 0.98t-1.66 0.86q-0.92 0.36-2.02 0.58-1.08 0.24-2.22 0.24-2.02 0-3.66-0.7-1.62-0.72-2.78-2.06-1.14-1.34-1.76-3.28-0.62-1.96-0.62-4.46 0-2.16 0.58-3.94 0.6-1.8 1.72-3.1t2.74-2.02 3.68-0.72zm0.02 0.8q-1.68 0-3.02 0.54-1.32 0.54-2.28 1.52t-1.56 2.36q-0.58 1.38-0.76 3.06h14.28q0-1.78-0.52-3.16-0.5-1.4-1.4-2.36-0.88-0.96-2.1-1.46t-2.64-0.5z"/>
 <text x="345.6557" y="839.05487" fill="#000000" font-family="sans-serif" font-size="40px" letter-spacing="0px" word-spacing="0px" style="line-height:1.25" xml:space="preserve"><tspan class="deployment-date" x="345.6557" y="839.05487" font-family="Roboto" font-size="26.667px" font-weight="200"></tspan></text>
 <path d="m87.322 775.65c2.2152 0.0435 21.711-1.763 28.398 1.173 6.6869 2.9359 5.7092 3.2238 9.7702 6.4673-0.64745-1.9182-0.0847-0.29843-1.3661-2.1148 4.6678 2.1825 11.377 5.2862 12.864 13.21 3.9432 3.2417 5.2744 4.9981 7.7808 11.357l-1.5562 26.034-3.5288-18.134s-4.4-3.8592-5.3069-7.638c-3.7688 0.30949-13.947-3.9209-17.059-2.2591-3.1122 1.6618-4.7925 3.0186-9.2888 1.12s-5.4585-1.45-10.408 1.0028c-3.4509 0.95377-11.848 5.185-11.848 5.185l-4.7468 20.435-1.246-26.601-6.0865-6.4459s0.84272-2.1452 4.1539-4.3333c3.3112-2.1881 5.3859-2.6351 5.3859-2.6351-3.4637-1.842-3.8391-2.9263-7.2065-4.5757 5.4874-6.0883 11.273-6.9188 14.063-6.7606-1.9248-1.0212-2.0887-2.3833-2.7688-4.4864z" fill="#231f20" stroke-width=".73135"/>
 <path d="m102.27 824.7c3.8141 1.0797 3.8802 0.56288 4.9638 0.6853-0.0153 0.85057-0.0698 2.0295-1.5683 2.2544-1.4985 0.22491-19.25-2.5674-21.71-1.0984 2.9844-6.0876 14.5-2.921 18.314-1.8413z" fill="#3e3734" stroke-width=".73135"/>
 <path d="m122.18 823.7c-3.6095 1.6327-4.3973 1.2553-5.481 1.3574 0.0153 0.70937 0.45769 1.8355 1.9562 2.0231 1.4985 0.18758 12.993-6.7832 21.322-1.059-1.4922-2.5385-4.6001-5.8624-8.3288-5.7242-3.7288 0.13817-7.3673 2.4524-9.4682 3.4027z" fill="#3e3734" stroke-width=".73135"/>
 <path d="m130.84 825.58c-5.2406 0.0341-10.291 1.6316-15.435 2.2703-2.1469 0.26661-4.3595 0.33201-6.51 0.0841-2.8593-0.32971-5.6276-1.2052-8.485-1.5977-2.5537-0.35055-5.1392-0.71678-7.7088-0.73134-4.4906-0.026-8.8337 1.345-13.236 2.0853 0 1.2556-0.26169 2.8674 0.39652 3.7501 0.67893 0.91027 1.8242 1.7427 2.1212 2.9764 0.7044 2.9256 1.7046 5.7934 2.9834 8.5428 0.62148 1.3361 1.7943 2.2676 3.1042 2.9092 3.1541 1.5452 6.8871 1.7724 10.347 1.2865 4.9276-0.69197 7.601-4.2973 9.6405-8.4167 0.76341-1.6745 0.84851-3.6072 1.8539-5.1375 0.59709-0.9089 1.9838-0.52631 2.9746-0.52969 0.99113-4e-3 1.8312 1.604 2.1386 2.6739 1.0884 3.7863 2.9033 7.8033 6.5102 9.7871 5.3861 2.9627 13.872 2.4085 17.366-2.9344 1.3678-2.0912 1.7453-4.6282 2.4315-6.9956 0.41775-1.4413 0.79109-3.1597 2.2765-3.9519 0.59945-0.31989 0.17883-1.5958 0.26721-2.3376 0.0964-0.80801 0.28249-1.523-0.8967-1.6815-2.0567-0.27702-4.0517-1.1191-6.1567-1.4042-1.9947-0.27021-3.949-0.66069-5.9843-0.64758zm-34.646 1.3453c1.4877-9e-3 2.969 0.097 4.415 0.39523 8.6151 1.7769 8.7892 5.2382 5.2427 12.394-2.89 5.8307-8.8765 7.2917-14.909 5.8941-2.7809-0.64421-4.6822-2.537-5.5791-5.1289-0.9465-2.7358-1.6625-5.6423-1.5003-8.5178 0.21717-3.8503 4.6833-4.3914 7.8812-4.7422 1.4675-0.16093 2.9617-0.28508 4.4493-0.29431zm31.456 0c1.4877 8e-3 2.982 0.13338 4.4495 0.29431 3.1978 0.35078 7.6643 0.89191 7.8812 4.7422 0.16207 2.8755-0.55386 5.782-1.5005 8.5178-0.89669 2.5919-2.7982 4.4847-5.5789 5.1289-6.032 1.3976-12.019-0.0634-14.909-5.8941-3.5465-7.1558-3.3721-10.617 5.243-12.394 1.4459-0.2982 2.9271-0.40431 4.4147-0.39523z" fill="#3d3e40"/>
 <path d="m289.33 776.57c-1.9727 0-3.7238 0.30349-5.2559 0.91211-1.5111 0.60867-2.7925 1.4287-3.8418 2.457-1.0283 1.0073-1.8157 2.1719-2.3613 3.4941s-0.81836 2.7062-0.81836 4.1543c0 1.8469 0.32597 3.3907 0.97656 4.6289 0.6506 1.2173 1.4995 2.2445 2.5488 3.084 1.0703 0.81847 2.2882 1.5012 3.6524 2.0469 1.3641 0.52469 2.7501 1.0168 4.1562 1.4785 1.4271 0.44072 2.8214 0.91428 4.1856 1.418 1.3641 0.48273 2.5718 1.0916 3.6211 1.8262 1.0703 0.73454 1.9314 1.647 2.582 2.7383 0.65059 1.0913 0.97461 2.4754 0.97461 4.1543 0 1.574-0.2727 3.0543-0.81836 4.4394-0.54567 1.3851-1.3432 2.603-2.3926 3.6524-1.0283 1.0284-2.2975 1.8465-3.8086 2.4551-1.5111 0.58762-3.2211 0.88086-5.1309 0.88085-1.3431 1e-5 -2.5508-0.12511-3.6211-0.37695-1.0494-0.27283-1.9823-0.5988-2.8008-0.97656-0.7975-0.39874-1.4905-0.81904-2.0781-1.2598-0.5876-0.4617-1.092-0.88005-1.5117-1.2578-0.41977-0.39875-0.76623-0.72471-1.0391-0.97656-0.25184-0.27283-0.45074-0.4082-0.59765-0.4082-0.1469 0-0.26175 0.03081-0.3457 0.09375-0.06297 0.04197-0.14702 0.11577-0.25196 0.2207l-0.41015 0.6289c0.77653 0.90247 1.5844 1.7103 2.4238 2.4238 0.86047 0.71358 1.7953 1.3225 2.8027 1.8262 1.0283 0.48269 2.1397 0.84972 3.3359 1.1016 1.2173 0.27282 2.5724 0.41015 4.0625 0.41015 2.1827 0 4.1243-0.33621 5.8242-1.0078 1.7209-0.6926 3.1685-1.6275 4.3438-2.8027 1.1962-1.1963 2.0984-2.5906 2.707-4.1856 0.6296-1.616 0.94335-3.3382 0.94335-5.1641 1e-5 -1.7839-0.32401-3.2725-0.9746-4.4688-0.6506-1.2173-1.5117-2.2362-2.582-3.0547-1.0703-0.81846-2.2882-1.489-3.6523-2.0137-1.3431-0.54569-2.7272-1.05-4.1543-1.5117-1.4271-0.48271-2.8234-0.97678-4.1875-1.4805-1.3431-0.50367-2.5488-1.1229-3.6191-1.8574s-1.9314-1.6367-2.582-2.707c-0.6506-1.0913-0.97656-2.4446-0.97656-4.0606 0-1.2593 0.23164-2.4546 0.69336-3.5879 0.46167-1.1543 1.1444-2.1732 2.0469-3.0547 0.9024-0.88144 2.0137-1.5744 3.3359-2.0781 1.3431-0.52467 2.8748-0.78711 4.5957-0.78711 1.6999 0 3.127 0.21112 4.2812 0.63086 1.1543 0.39872 2.0995 0.84983 2.834 1.3535 0.73452 0.50367 1.3005 0.96504 1.6992 1.3848 0.41974 0.39875 0.74571 0.59765 0.97656 0.59766 0.23086 0 0.40924-0.10459 0.53516-0.31446l0.37695-0.6914c-1.4901-1.5111-3.0955-2.6244-4.8164-3.3379-1.6999-0.71353-3.6621-1.0703-5.8867-1.0703zm-92.672 0.50586v27.639c0 2.3925 0.37923 4.6396 1.1348 6.7383 0.75553 2.0777 1.836 3.8923 3.2422 5.4453 1.4061 1.5531 3.1161 2.7812 5.1309 3.6836 2.0148 0.88147 4.2824 1.3223 6.8008 1.3223 2.5185 0 4.7738-0.4408 6.7676-1.3223 2.0147-0.9024 3.7247-2.1305 5.1309-3.6836 1.4271-1.553 2.5179-3.3676 3.2734-5.4453 0.75553-2.0987 1.1348-4.3457 1.1348-6.7383v-27.639h-1.7637v27.639c0 2.1827-0.33621 4.2289-1.0078 6.1387-0.6506 1.8888-1.6041 3.5372-2.8633 4.9434-1.2382 1.4061-2.7596 2.5175-4.5645 3.3359-1.7839 0.79754-3.8198 1.1973-6.1074 1.1973s-4.3338-0.39973-6.1387-1.1973c-1.8049-0.81846-3.3384-1.9298-4.5976-3.3359-1.2382-1.4271-2.1917-3.0961-2.8633-5.0059-0.65059-1.9098-0.97656-3.956-0.97656-6.1387v-27.576h-1.7324zm56.207 0.00195v44.262h1.7305v-44.262h-1.7305zm-95.16 0.00196v44.262h23.674v-1.5117h-21.943v-42.75h-1.7305z"/>
 <path d="m292.53 827.76c-2.8236 0-5.0042 0.72248-6.543 2.166-1.5229 1.4277-2.2832 3.5287-2.2832 6.3047s0.76034 4.8865 2.2832 6.3301c1.5387 1.4277 3.7194 2.1406 6.543 2.1406s5.0062-0.72053 6.5449-2.1641 2.3066-3.5464 2.3066-6.3066-0.76791-4.8612-2.3066-6.3047-3.7213-2.166-6.5449-2.166zm-80.857 0.28711v10.66c0 0.74554-0.14221 1.2765-0.42774 1.5938-0.26967 0.31726-0.69065 0.47461-1.2617 0.47461-0.57106 0-0.99962-0.15735-1.2852-0.47461-0.26968-0.31727-0.4043-0.84822-0.4043-1.5938v-0.19141h-4.9258v0.21485c0 0.64345 0.06519 1.2269 0.17969 1.7637h-8.8281v-2.498h7.6133v-3.7598h-7.6133v-2.2598h8.8984v-3.9258h-14.156v16.369h14.324v-3.0742c0.28937 0.77479 0.72738 1.4124 1.3184 1.9062 1.1739 0.96767 2.8558 1.4512 5.0449 1.4512s3.8635-0.4835 5.0215-1.4512c1.1739-0.96766 1.7598-2.4752 1.7598-4.5215v-10.684h-5.2578zm-47.992 0.00195-5.9727 16.371h5.3789l0.68945-2.3086h5.7344l0.68945 2.3086h19.109v-4.1875h-8.4004v-12.182h-5.2578v16.049l-5.8555-16.051h-6.1152zm58.561 0-5.9726 16.371h5.377l0.69141-2.3086h5.7344l0.68946 2.3086h10.283v-7.9473l6.877 7.9473h4.5918v-16.371h-4.8301v8.0664l-6.877-8.0664h-4.5918v16.055l-5.8574-16.055h-6.1152zm29.738 0v16.371h7.0918c5.7265 0 8.5898-2.7287 8.5898-8.1855 0-5.4569-2.8633-8.1836-8.5898-8.1836l-7.0918-0.00195zm16.414 0v16.371h5.2578v-5.9726h1.9512l2.9024 5.9726h5.9023l-3.6406-6.8535c1.0311-0.38074 1.8161-0.97421 2.3555-1.7832 0.53935-0.809 0.8086-1.7135 0.8086-2.7129 0-0.90413-0.21427-1.7385-0.64258-2.5-0.41247-0.7773-1.0382-1.3879-1.8789-1.832-0.82486-0.46003-1.8242-0.68945-2.998-0.68945h-10.018zm24.137 3.6367c1.1263 0 1.9834 0.3413 2.5703 1.0234 0.60279 0.68214 0.9043 1.6018 0.9043 2.7598v1.5234c0 1.158-0.30151 2.0776-0.9043 2.7598-0.58693 0.68214-1.444 1.0234-2.5703 1.0234s-1.9814-0.3413-2.5684-1.0234c-0.58693-0.68213-0.88086-1.6018-0.88086-2.7598v-1.5234c0-1.158 0.29393-2.0776 0.88086-2.7598 0.58693-0.68213 1.4421-1.0234 2.5684-1.0234zm-18.879 0.09961h3.4512c0.41247 0 0.76134 0.1422 1.0469 0.42773 0.28554 0.28557 0.42773 0.64201 0.42773 1.0703 0 0.42834-0.14219 0.79431-0.42773 1.0957-0.28556 0.28553-0.63444 0.42773-1.0469 0.42773h-3.4512v-3.0215zm-16.412 0.1914h1.7363c2.2049 0 3.3066 1.1813 3.3066 3.5449v1.4277c0 2.3636-1.1017 3.5449-3.3066 3.5449h-1.7363v-8.5176zm-90.631 0.64063h0.0957l1.7129 5.8301h-3.5469l1.7383-5.8301zm58.561 0h0.09375l1.7129 5.8301h-3.5449l1.7383-5.8301z"/>
 <path d="m824.84 733.78c-0.24104-0.25369-0.19396-10.937 0.10466-23.741 0.29878-12.804 0.36902-22.842 0.15656-22.308-0.21249 0.53462-1.2567 1.7989-2.3206 2.8096-1.0638 1.0107-2.1382 2.6034-2.3876 3.5394-0.63796 2.395-2.224 5.2074-3.9122 6.9373-1.8346 1.8799-4.0622 1.3423-5.3385-1.2884-1.1936-2.46-1.9227-2.4285-2.4978 0.10799-0.68528 3.0231-3.0984 6.3785-4.5605 6.3412-1.754-0.0447-3.3733-3.1646-4.3093-8.3028-0.73861-4.0547-1.8-6.3313-1.8599-3.9892-0.0145 0.56899-1.2751 2.3216-2.8014 3.8948-2.7637 2.8487-4.7386 3.4646-7.4786 2.3321-1.374-0.56792-3.4852-5.0193-3.4844-7.3466 1e-3 -2.925-0.67771-4.0299-3.3744-5.4926-1.3936-0.75593-2.5895-1.3066-2.6576-1.2238-0.0679 0.0827-0.854 2.939-1.7464 6.3472-1.8646 7.1207-2.9949 9.0702-4.6272 7.9814-0.72586-0.48423-1.4258-2.8964-2.155-7.4262-0.89784-5.5776-1.2367-6.5855-2.0095-5.9768-0.51119 0.40269-0.93535 0.96312-0.94256 1.2454-7e-3 0.2823-1.3532 2.444-2.991 4.8037-3.2593 4.6959-6.6105 7.2435-10.556 8.0248-3.1361 0.62095-4.6989-0.16047-6.1174-3.0592-2.4644-5.0362-1.937-11.323 1.2725-15.168 0.88279-1.0576 2.2781-2.7317 3.1008-3.7204 1.3556-1.6292 1.7543-1.7492 4.2566-1.2818 2.4657 0.4606 2.8226 0.76347 3.3374 2.8325 1.0346 4.1583-2.9003 11.821-8.039 15.655-1.9858 1.4816-1.692 2.1448 0.9469 2.1371 2.1904-6e-3 5.9203-1.9825 7.6103-4.032 2.2635-2.7452 6.0683-8.3799 7.67-11.359 2.3854-4.4366 3.4945-5.6805 4.3112-4.8348 0.49351 0.51105 0.46528 1.3064-0.0999 2.8024-0.7439 1.9705-0.27953 10.129 0.80576 14.167 0.66446 2.4721 3.179-4.8132 4.134-11.978 0.99918-7.4957 1.2616-8.4778 2.2577-8.4524 0.8117 0.0207 0.92851 0.68905 0.61585 3.524-0.41632 3.7751 0.34623 5.4876 3.1158 6.9967 1.6228 0.88429 1.4349 1.1401 2.8809-3.9235 0.89175-3.1229 2.836-5.7014 4.2713-5.6647 1.6065 0.0411 3.5035 2.0478 3.8561 4.0792 0.48255 2.7801-1.8773 6.7145-4.8066 8.014-2.4241 1.0754-2.8043 2.5789-1.7145 6.781 1.352 5.213 5.3177 4.1621 9.9949-2.6488 1.6677-2.4285 1.7444-2.8502 1.3619-7.4933-0.74313-9.0217-0.19732-19.27 1.4551-27.324 1.6174-7.8829 2.2689-9.4018 3.767-8.7826 1.647 0.68076 2.2687 4.5384 2.3797 14.765 0.1165 10.747-0.59092 15.912-3.11 22.704-0.71514 1.9283-1.3169 4.5641-1.3374 5.8574-0.0468 2.9667 1.8915 10.768 2.7528 11.079 0.57457 0.208 1.4447-1.378 3.7986-6.9232 0.37803-0.89045 0.85068-3.6437 1.0504-6.1184 0.85339-10.574 8.9339-13.88 11.594-4.744 0.37886 1.3011 0.90227 2.6117 1.1632 2.9125 0.87647 1.0102 4.6093-6.2608 5.1904-10.11 0.30848-2.0431 0.76437-3.8334 1.0132-3.9786 1.2038-0.70214 2.7588 2.1287 5.8159 10.588 2.2713 6.2848 2.2275 6.224 2.3519 3.2672 0.15773-3.7426 1.3399-6.5583 4.3487-10.355 3.397-4.2866 5.2484-5.0987 7.4548-3.27 0.90543 0.75042 1.6292 1.8581 1.6084 2.4615-0.0547 1.584-1.7532 5.874-2.671 6.7461-0.43099 0.40946-0.79269 1.1027-0.80387 1.5404-0.0111 0.43775-0.2533 0.88817-0.53813 1.0009-0.56184 0.22243-3.6607 5.0344-3.2489 5.0449 0.13801 4e-3 1.564-0.51719 3.1688-1.1571 3.3707-1.3441 8.508-6.6508 8.5706-8.8533 0.0264-1.0344 0.43075-1.4619 1.3502-1.4384 1.1131 0.0285 1.2973 0.46953 1.2338 2.9542-0.0541 2.1175 0.23605 3.0936 1.0549 3.549 1.785 0.99261 5.2053 0.24479 7.0956-1.5512 1.4851-1.4112 1.685-2.0266 1.4002-4.3112l-0.33224-2.665 1.2887 1.6695c1.9682 2.5498 1.6341 5.9356-0.80492 8.1556-1.7628 1.6046-2.5073 1.8166-6.1954 1.7644l-4.1918-0.0593-0.55628 4.4714c-0.66629 5.3558-1.0044 6.2899-2.2652 6.2577-0.80866-0.0207-0.86261-0.97869-0.34133-6.0639l0.61903-6.0394-1.5936 1.2685c-0.87654 0.69769-1.7454 1.4445-1.931 1.6596-0.82717 0.95894-4.5822 2.3402-7.2778 2.6771-4.3874 0.54837-5.7625 1.9323-6.6554 6.6986-1.176 6.2765-2.4285 6.8395-6.5104 2.9263l-1.4377-1.3783-0.17006 4.2011c-1.111 27.449-1.3479 29.816-2.8274 28.259zm8.2321-32.372c0.0131-0.51029 0.21821-1.3985 0.45608-1.9739 0.37657-0.91106 0.20859-0.95094-1.3013-0.30901-1.9385 0.82414-2.0996 1.2112-0.99012 2.3789 1.0253 1.0791 1.8064 1.0382 1.8354-0.0959zm-15.564-5.7482c0.0142-0.55677-0.81954-0.71119-2.769-0.51283-1.5342 0.15618-2.839 0.31571-2.8995 0.35464-0.0605 0.0389 0.28721 1.0873 0.77296 2.3297l0.88308 2.2589 1.9961-1.8169c1.0978-0.9993 2.0052-2.1754 2.0164-2.6135zm-65.358-3.7169c4.7232-5.7144 6.4399-11.147 3.5457-11.221-3.8527-0.0984-6.973 3.2942-7.8234 8.5061-0.49801 3.0516-0.10442 6.3476 0.76013 6.3697 0.26776 7e-3 1.8507-1.6377 3.5176-3.6545zm80.581 3.6138c1.4674-1.0953 1.4697-1.7374 0.0237-6.7993-1.0679-3.7378-3.5431-9.5709-3.7264-8.7813-0.0412 0.17895-0.27843 3.9979-0.52644 8.4867-0.53824 9.7403-0.16204 10.371 4.2292 7.0939zm-16.141-3.2545c2.0824-0.92854 2.3471-1.3217 2.4046-3.5715 0.0985-3.857-1.8562-7.0945-4.3216-7.1574-0.75958-0.0194-2.0659 3.9134-2.6412 7.9516-0.5009 3.5157-0.44823 3.7526 0.84191 3.7856 0.75696 0.0193 2.4292-0.43441 3.7163-1.0083zm26.055-6.8622c3.1798-4.1299 4.9627-8.2374 4.1675-9.6008-1.6003-2.7436-7.5737 4.4217-8.488 10.182-0.72911 4.5933 0.45977 4.4334 4.3205-0.58091zm-52.51-1.8066c1.0367-1.2914 1.1909-4.3965 0.24887-5.0125-1.1138-0.72829-3.1126 1.6765-3.6879 4.4368-0.50529 2.4244-0.46852 2.497 1.0445 2.0589 0.86247-0.2497 1.94-0.91715 2.3945-1.4832zm12.839-6.8838c0.81394-4.842 1.0311-18.481 0.35754-22.45-0.43444-2.5594-0.93059-1.5744-1.7768 3.5274-0.96172 5.7983-1.6768 24.826-0.96122 25.579 0.78001 0.82091 1.4284-0.99198 2.3805-6.6559zm-603.47 27.898c0.20946-1.3448 0.89851-5.2304 1.5312-8.6346 1.649-8.8726 2.354-14.999 1.7256-14.995-0.29876 2e-3 -1.6124 1.4987-2.9192 3.3267-5.1238 7.1676-10.672 10.519-13.13 7.9323-0.55134-0.58026-1.167-0.50141-2.4919 0.31914-4.588 2.8414-7.7545-2.2682-7.0622-11.396 0.22332-2.9454 0.22859-5.2516 0.0111-5.1251-0.21696 0.12661-1.7108 2.6502-3.3196 5.6081-3.5308 6.4916-7.7278 12.437-8.6189 12.209-0.9939-0.25431-0.48335-5.8351 0.96531-10.552 1.3688-4.4566 2.1103-11.075 1.2434-11.097-0.92636-0.0237-1.8533 1.5009-5.0571 8.3179-3.466 7.3749-5.3345 9.746-7.634 9.6872-1.5411-0.0393-1.9274-0.88153-2.214-4.8268-0.11847-1.6317-0.46251-1.2956-3.2053 3.1324-3.326 5.3696-6.7674 8.2808-10.501 8.8829-4.9213 0.79375-7.7773-3.2234-6.9271-9.7434 0.92311-7.0785 7.5435-19.091 14.288-25.926 4.4206-4.4795 8.8176-4.8443 10.736-0.89066 0.53384 1.1003 1.243 1.8417 1.5758 1.6476 0.33287-0.19422 1.1537 0.14156 1.8242 0.74586 1.0098 0.91036 1.0877 1.3641 0.45396 2.6447-0.42073 0.85022-1.0057 1.542-1.2998 1.5373-0.29413-6e-3 -0.37602 0.54003-0.18188 1.2105 0.19411 0.6705-0.11428 2.0619-0.68546 3.0919-0.57108 1.0301-1.0525 2.3544-1.0697 2.9428-0.0163 0.58849-0.49267 1.9019-1.0565 2.9188-1.0427 1.8806-1.6306 9.3784-0.73415 9.3638 0.87142-0.0144 2.697-2.8461 4.5838-7.1102 4.0414-9.1339 4.8974-10.302 7.5024-10.235 2.9776 0.0761 3.1924 2.7535 0.93711 11.684-2.2105 8.753-1.203 7.9489 4.7155-3.764 5.9426-11.76 7.5014-11.687 6.1298 0.28687-0.6487 5.6635-0.22883 9.1524 1.3765 11.461 0.89376 1.2844 0.95628 1.2732 2.9385-0.5259 1.1139-1.0111 2.8099-3.3916 3.7689-5.2901 0.959-1.8985 3.4509-5.6412 5.5376-8.3171 3.2508-4.1687 4.04-4.8301 5.5127-4.6194 1.0794 0.15439 2.2346 1.058 3.1056 2.4293 0.89734 1.4127 1.559 1.9204 1.8743 1.4382 0.26804-0.40992 0.97888-8.8701 1.5796-18.8 0.60074-9.9304 1.3512-18.316 1.6678-18.635 0.34192-0.34424 0.95268-0.24984 1.5046 0.23257 1.141 0.99728 0.98458 17.556-0.24803 26.251-0.43227 3.0493-1.3756 10.371-2.0963 16.27-0.72072 5.8992-1.8987 13.595-2.6177 17.102-0.87303 4.258-1.0818 6.4579-0.62831 6.622 0.99713 0.36091-1.494 3.6908-2.7374 3.659-0.81634-0.0208-0.95446-0.5428-0.65405-2.4715zm-56.764-11.652c1.7622-1.0913 4.6246-4.4439 4.6502-5.4464 9e-3 -0.33032 0.47025-0.95892 1.0262-1.3969 0.55601-0.43796 0.96822-1.1263 0.91603-1.5296-0.0524-0.40335 0.23922-1.4613 0.64785-2.3509 4.0797-8.885 5.7247-13.747 5.5822-16.498-0.15249-2.9447-1.1394-4.9909-2.423-5.0237-0.99787-0.0255-6.4409 2.6178-6.4541 3.1343-6e-3 0.24654-0.95151 1.5694-2.1005 2.9398-1.149 1.3703-2.6273 3.5088-3.2851 4.7521-0.65786 1.2434-1.9826 3.5661-2.9438 5.1618-3.8221 6.3447-5.2483 14.48-2.9604 16.888 1.3839 1.4565 4.3915 1.1983 7.3443-0.63048zm49.494-3.7271c1.4316-0.66916 2.3088-1.2404 1.9495-1.2694-0.42422-0.0343-0.41462-0.21532 0.0276-0.51634 1.9491-1.3274 5.7117-6.3296 5.7451-7.6378 0.051-1.997-2.6334-3.9-4.3114-3.0563-1.3972 0.70247-7.6726 10.922-7.7145 12.564-0.0365 1.4267 1.1209 1.4041 4.3039-0.0838zm7.224-15.552c9e-3 -0.35981-0.29507-0.66216-0.67612-0.67189-0.38102-0.01-0.51835 0.28135-0.30516 0.64683 0.21318 0.36548 0.51741 0.66783 0.67608 0.67189 0.15866 4e-3 0.296-0.28703 0.3052-0.64683zm60.993 33.618c-0.2408-0.41287 0.0507-1.9675 0.6476-3.4548 0.90731-2.2603 3.3106-10.145 3.3295-10.924 4e-3 -0.12797-2.1278-0.31776-4.7352-0.42177-5.7198-0.2281-9.2318-1.5002-15.494-5.6121-2.6067-1.7116-5.5345-3.6269-6.5063-4.2563-1.5878-1.0284-2.2566-2.7085-1.4016-3.5209 0.17631-0.16754 2.4554-0.0134 5.0645 0.34266 4.4438 0.60634 22.683-0.17859 26.528-1.1417 1.8202-0.4559 2.542-2.5616 3.7568-10.959 0.8268-5.7151 3.0349-13.053 4.2062-13.977 0.22096-0.17438 0.93903-1.3344 1.5958-2.5777 0.6567-1.2434 1.6926-2.9107 2.302-3.7052 0.95508-1.2453 0.97255-1.448 0.1267-1.4697-0.86312-0.0221-0.8504-0.29528 0.10565-2.2689 1.0995-2.2699 3.4564-3.5317 6.4537-3.4551 2.2166 0.0566 3.6746 4.5058 3.0172 9.207-1.1665 8.3418-4.9584 19.823-8.5572 25.909-1.9059 3.2233-1.7538 3.9657 0.76715 3.7435 0.98664-0.0869 2.1543 0.14688 2.5949 0.5195 0.54712 0.46287 0.80691 0.44492 0.81972-0.0566 0.0312-1.222 1.2352-0.79338 1.9903 0.70854 0.92543 1.8406 0.20584 2.2496-5.4859 3.1174-3.5412 0.53995-4.6223 0.50311-5.4088-0.18438-0.83288-0.72794-1.4403-0.38582-3.9782 2.2404-3.4903 3.6118-4.2238 5.1049-7.4046 15.072-2.243 7.0286-3.3384 8.8297-4.3333 7.1242zm3.4498-18.649c2.49-1.5677 3.3269-2.8127 3.3836-5.0335 0.05-1.9602-0.024-2.0131-2.5716-1.8356-1.4427 0.10047-2.6278 0.37257-2.6334 0.60465-6e-3 0.23206-1.998 0.38541-4.4274 0.34073-2.4294-0.0436-6.5718-0.0123-9.2054 0.0729-4.0875 0.13153-4.6239 0.28088-3.665 1.0204 0.61786 0.47647 1.463 0.87498 1.8782 0.88558 0.41516 0.0111 1.2426 0.58672 1.8388 1.2803 0.95057 1.1059 3.3912 2.0781 7.8443 3.1248 2.9685 0.69777 6.0131 0.51241 7.5578-0.46014zm-0.54095-5.155c0.4617-0.52828 1.0886-0.95413 1.393-0.94635 0.30448 7e-3 0.37285 0.45138 0.15198 0.98582-0.22089 0.53441-0.84775 0.96026-1.393 0.94633-0.80706-0.0206-0.8353-0.20402-0.15197-0.9858zm12.983-6.3373c3.9878-4.0884 9.647-18.74 10.524-27.247 0.76688-7.4378 0.47121-8.0034-2.8713-5.4923-1.4681 1.103-2.6798 2.4169-2.6926 2.9198-0.0128 0.50294-1.2828 3.4652-2.8222 6.5827-2.2738 4.6049-3.0057 7.0139-3.9014 12.841-0.60639 3.9449-1.406 8.1001-1.7769 9.2336-1.0937 3.3422 0.80577 3.966 3.5402 1.1626zm219.26 29.18c-0.61129-0.64333-0.36383-6.7836 0.47812-11.864 0.39762-2.399 0.93562-6.2256 1.1956-8.5034 0.42819-3.752 0.35075-4.1767-0.82349-4.516-1.5083-0.43586-1.5599-0.79411-0.33507-2.3248 1.2015-1.5016 2.7665-1.3759 3.8857 0.31206 1.0414 1.5706 0.76198 5.6402-0.95501 13.909-0.58452 2.8151-1.0848 5.9824-1.1118 7.0385l-0.0491 1.9201 1.6772-1.5937c0.92249-0.87653 1.6854-1.9135 1.6954-2.3044 0.01-0.39088 0.64799-2.5236 1.4178-4.7395 0.76979-2.2159 1.6856-6.3542 2.0351-9.1965 1.0647-8.6581 2.4117-6.9473 3.1133 3.9542 0.13928 2.1638 0.61958 4.3854 1.0674 4.9369 0.44779 0.5515 1.1411 2.118 1.5407 3.4811 1.1016 3.758 2.584 4.2402 5.399 1.7562 2.7344-2.4129 3.954-4.5371 5.5989-9.752 1.0411-3.3005 1.1142-4.4601 0.53574-8.4963-1.1193-7.8102-0.50889-19.537 1.3255-25.463 2.6169-8.4549 5.4936-11.572 6.5065-7.0496 0.58343 2.6045-1.9418 24.505-3.5265 30.584-1.3249 5.0826-1.3542 7.2814-0.15084 11.361 1.1061 3.7497 2.6604 5.6246 4.2077 5.0758 0.87121-0.30904 1.0599-1.8439 1.2251-9.9674 0.2407-11.834 1.6925-19.656 5.5592-29.951 1.5676-4.1742 3.2054-8.6558 3.6394-9.9591 0.56871-1.7076 1.423-2.6522 3.0578-3.3812 3.4862-1.5545 4.0828-0.59113 3.9066 6.3089-0.29079 11.386-2.6278 20.242-9.9355 37.65l-3.1136 7.4174 1.5355 5.2456c0.98368 3.3604 1.3241 5.6018 0.94717 6.2367-0.47602 0.80185-0.83945 0.55443-1.9038-1.2962-0.72347-1.258-1.3114-2.4889-1.3064-2.7353 5e-3 -0.24644-0.27581-1.259-0.62392-2.25-0.48103-1.3695-0.82012-1.624-1.4131-1.0606-2.0846 1.9808-5.6834-0.19226-7.7044-4.652l-0.87682-1.9348-2.0033 4.3315c-2.211 4.7807-5.5776 8.4953-7.6513 8.4423-2.1979-0.0561-4.4394-1.4524-5.3263-3.3178-0.45735-0.96203-1.4331-2.4169-2.1682-3.2331l-1.3366-1.484-1.1896 3.4627c-1.7108 4.98-6.3617 9.3744-8.0458 7.602zm41.284-24.203c1.5119-3.6518 2.9955-7.2225 3.297-7.9349 0.64936-1.5345 0.52152-1.161 2.7766-8.1118 1.3161-4.0566 1.9559-7.7687 2.4152-14.013l0.62479-8.4941-3.1229 3.1933c-2.2645 2.3156-3.0389 3.5706-2.8173 4.5658 0.1681 0.75489-0.0237 2.3702-0.42618 3.5895-2.2395 6.7849-3.6664 12.443-4.0865 16.206-0.26069 2.3336-0.66231 4.3854-0.89272 4.5595-0.35177 0.26585-0.96941 13.069-0.63081 13.077 0.0628 1e-3 1.3509-2.9853 2.8628-6.6371zm-11.027-12.702c0.25843-2.613 0.69285-7.1019 0.96553-9.9753 0.27263-2.8734 0.63285-5.8124 0.80048-6.5312 0.16769-0.71881 0.065-1.718-0.22819-2.2205-0.38583-0.6615-0.67192-0.34962-1.0368 1.1303-0.27714 1.1241-0.75005 1.8829-1.0509 1.6862-0.75891-0.49626-1.1255 0.22172-1.6548 3.2408l-0.45615 2.6018 2.1022-4.5286-0.44712 2.2797c-0.68889 3.5124-1.3295 15.771-0.93767 17.944 0.328 1.8193 0.38434 1.8521 0.91165 0.53126 0.30913-0.77429 0.77342-3.5457 1.0318-6.1588zm129.25 40.597c-0.8038-2.3412-1.1805-7.2471-0.84497-11.006l0.37718-4.2259-2.4273 2.3726c-3.43 3.3527-6.3773 4.5187-10.113 4.0007-2.3237-0.3222-3.4697-0.90771-4.7656-2.4348l-1.7062-2.0106-1.8554 1.8402c-1.0205 1.0121-2.8681 2.1459-4.1058 2.5197-1.9863 0.59975-2.4238 0.50816-3.7271-0.78053-0.81219-0.80304-1.634-2.3663-1.8263-3.4739l-0.34955-2.0139-1.5148 1.8484c-4.975 6.0707-7.2436 7.3139-10.29 5.6387-1.0472-0.57592-2.5369-0.89877-3.3103-0.71748-1.0612 0.24876-1.5334-0.0535-1.9245-1.2298-0.42095-1.2667-2.0751-9.9417-3.3321-17.475-0.21485-1.2876-0.71828-0.97709-4.542 2.8019-3.8383 3.7933-4.3944 4.6709-5.1755 8.1672-1.5348 6.8699-5.0356 12.028-8.1074 11.945-2.5201-0.0693-5.869-2.4762-5.8817-4.2295-6e-3 -0.81554-0.11612-2.1397-0.24513-2.9427-0.29386-1.8304 1.575-3.5436 6.3024-5.7775 5.433-2.5674 6.6946-4.0265 6.3645-7.3614-0.15059-1.5209-0.82496-3.7368-1.4987-4.9241-1.3104-2.3094-1.001-2.2259-9.9421-2.6838-8.0063-0.41005-11.442-3.3256-11.38-9.6562 0.0761-7.6948 3.816-12.826 10.662-14.628 5.4721-1.4403 9.9554-1.3038 11.093 0.33769 0.58114 0.83888 0.65451 1.4285 0.21007 1.6877-0.42863 0.25003-0.3547 0.55518 0.19854 0.81929 0.48486 0.23145-0.43759 0.16987-2.0499-0.13682-4.5839-0.87194-8.6152-0.68928-11.326 0.51323-2.7482 1.2191-5.2645 4.1287-5.5798 6.4518-0.11243 0.82754-0.43112 2.4251-0.70848 3.5501-1.1562 4.6893 2.312 7.9091 8.7276 8.1023 4.8393 0.14567 9.0799 1.343 10.808 3.0518 0.80111 0.79193 1.8766 3.0357 2.39 4.9861l0.9334 3.5462 1.6777-1.4854c0.92274-0.817 2.8166-2.7819 4.2088-4.3666l2.531-2.8811-0.18654-8.1875-0.18657-8.1875-2.2813-0.38558c-1.7382-0.29377-2.2734-0.69707-2.2479-1.694 0.0275-1.078 0.46954-1.2972 2.5102-1.2451 2.3244 0.0594 4.096-1.1282 3.4178-2.291-0.15543-0.2663 0.0218-0.66146 0.39293-0.87812 0.37145-0.21667 0.6908-7e-3 0.70971 0.46386 0.0189 0.47177 0.30999 0.0165 0.64689-1.0129 0.33688-1.0289 0.46585-2.716 0.28662-3.7491-0.60654-3.4943 3.3906-7.1167 5.9716-5.4117 1.0952 0.72348 2.4708 4.4777 3.2125 8.7676 0.41247 2.3855 1.9182 3.0663 5.6711 2.5641 1.9565-0.26179 2.4579-0.12093 2.4373 0.68457-0.0255 0.99836-2.7057 2.0843-5.9266 2.4014-1.3404 0.13187-1.8761 0.86159-3.157 4.3005-0.84847 2.2779-3.1337 6.3436-5.0783 9.035-1.9446 2.6914-3.5544 5.5115-3.5772 6.2671-0.0562 1.8625 2.4011 16.137 2.9734 17.271 0.30288 0.59998 1.4674-0.99859 3.4433-4.7268 2.3645-4.4613 3.7429-6.2187 6.6256-8.4469 2.0019-1.5474 4.098-2.7131 4.6579-2.5904 0.55989 0.12266 1.4259 1.4101 1.9244 2.8608 0.49852 1.4507 1.1599 2.8224 1.4697 3.0482 0.30979 0.22582 0.30772 2.465-5e-3 4.976-0.70816 5.6929 0.0176 7.6628 2.5018 6.7903 2.611-0.91712 4.5391-3.0696 7.7158-8.614 2.898-5.058 5.9928-8.6988 7.3645-8.6638 0.38263 0.01 1.0858 1.0228 1.5626 2.2512 0.47679 1.2284 1.1862 2.4422 1.5764 2.6974 1.0311 0.67427 0.80304 4.3168-0.26871 4.2894-1.0033-0.0256-2.6072-1.8084-3.1646-3.5176-0.20722-0.63536-0.61922-1.1614-0.91555-1.169-0.65647-0.0168-5.5937 7.8388-5.622 8.945-0.0438 1.7133 3.0789 4.0824 5.4612 4.1433 3.209 0.082 5.4674-1.143 9.1008-4.9362 2.7674-2.8892 3.137-3.6345 3.6282-7.3172 0.30085-2.2552 1.0399-7.0335 1.6423-10.618 0.60239-3.585 1.2789-9.0174 1.5034-12.072 0.45837-6.2363 1.0925-8.6544 2.1656-8.2578 0.47327 0.17492 0.67759 2.6524 0.58385 7.0788-0.0793 3.7453 0.13913 8.4371 0.48543 10.426 1.0838 6.2251 0.41296 11.095-2.0988 15.236-1.4852 2.4486-2.3575 4.8596-2.6732 7.3884l-0.46854 3.7537 1.7747-1.7886c0.97609-0.98375 1.7782-1.9265 1.7825-2.095 4e-3 -0.16844 0.82972-1.5315 1.8343-3.0288 1.0046-1.4974 3.8005-6.3498 6.2132-10.783 2.4127-4.4334 4.6301-8.2062 4.9276-8.3842 0.29751-0.17794 0.70303-0.90856 0.90121-1.6236 0.32987-1.1902 0.36357-1.1768 0.39898 0.15891 0.0703 2.6479-4.125 11.746-8.5034 18.441-0.75232 1.1504-0.21021 2.5598 2.9239 7.6027 1.6695 2.6862 4.4585 4.0793 5.8976 2.9458 0.55081-0.43388 1.0123-1.2118 1.0255-1.7287 0.0132-0.51688 0.31375-0.75033 0.66786-0.51876 0.90628 0.59259 0.6984 3.0749-0.36925 4.4092-2.3126 2.8902-7.3743 0.24398-10.136-5.299-0.82679-1.6595-1.651-3.0206-1.8315-3.0245-0.97771-0.0201-4.1428 6.0416-4.5868 8.7866-0.28403 1.7557-0.93829 4.1389-1.4539 5.2958-0.94002 2.1092-2.6761 2.7736-3.207 1.2273zm3.4185-6.1316c0.357-1.0811 0.21586-1.4674-0.54307-1.4868-0.71741-0.0184-1.0414 0.60252-1.0788 2.0672-0.0571 2.2351 0.79258 1.931 1.6219-0.58046zm-71.476-0.84361c1.5274-1.1192 3.9077-5.7036 4.4475-8.566 0.45087-2.3907 0.4358-2.4125-1.087-1.5701-0.84927 0.46983-3.2076 1.7138-5.2406 2.7644-2.033 1.0506-3.7946 2.3576-3.9144 2.9046-0.1982 0.90418 3.3494 5.223 4.3105 5.2476 0.22274 6e-3 0.89055-0.34547 1.4841-0.78036zm30.02-3.8156c2.8928-3.3517 4.0884-4.8947 4.0985-5.2894 6e-3 -0.25231 0.60808-1.2526 1.337-2.2229 0.99361-1.3226 1.2109-2.2434 0.86816-3.6793-0.6931-2.9039-2.7242-2.8812-5.1519 0.0577-2.5717 3.1132-6.3108 9.4793-6.3446 10.802-0.0323 1.2641 4.1571 1.5317 5.1928 0.33168zm43.559-16.802c1.007-3.2305 1.1862-8.0387 0.3505-9.407-0.50682-0.83002-0.62481-0.77809-0.7026 0.30936-0.0515 0.71876-0.2064 1.8259-0.34434 2.4604-0.13792 0.63447-0.50427 3.2763-0.81395 5.8708-0.60234 5.0461 0.0699 5.3873 1.5103 0.76651zm-50.445-14.141c0.48173-0.97781 1.0493-1.7734 1.2613-1.768 0.212 5e-3 0.44431-0.35688 0.51625-0.80509 0.072-0.44822 0.34451-1.9601 0.60575-3.3597 0.39904-2.138 0.30969-2.4861-0.5589-2.178-0.56865 0.2017-2.2381 0.65823-3.7099 1.0145l-2.676 0.64778-0.1386 5.4264c-0.0762 2.9845 0.06 5.6353 0.30264 5.8907 0.52626 0.55384 3.1655-2.3682 4.3973-4.8685zm1.0138-11.314c2.1421-0.3239 2.4708-0.58753 2.2176-1.7785-0.16344-0.76901-0.46595-2.4879-0.67219-3.8198-0.20624-1.3319-0.87124-2.8943-1.4777-3.472-1.0192-0.97088-1.2102-0.84262-2.5212 1.693-0.78014 1.5089-1.6054 4.0021-1.834 5.5404-0.35477 2.388-0.25548 2.7545 0.67857 2.507 0.60176-0.15955 2.2258-0.46102 3.609-0.67018zm-142.11 46.246c-0.37561-1.0694-0.30711-4.1225 0.18838-8.3948 0.42823-3.6928 0.79557-7.4502 0.81625-8.3498 0.0361-1.6094 0.0201-1.6046-1.0601 0.30024-1.8751 3.3066-5.0453 6.7715-5.765 6.3009-0.37776-0.24702-0.50876-0.14391-0.29112 0.22927 0.55494 0.95143-1.9906 2.9946-2.9496 2.3674-0.50514-0.33032-0.62188-0.23484-0.32828 0.26851 0.64784 1.1107-3.86 2.7248-6.7201 2.4063-1.7832-0.19856-2.3622-0.58058-2.4942-1.6453-0.1323-1.0672 0.1628-1.3681 1.281-1.3058 0.79909 0.0446 2.6358-0.10023 4.0816-0.32142 7.3686-1.1277 14.839-14.159 17.158-29.928l0.4982-3.388-4.7634-1.5277c-2.6199-0.84027-5.2365-1.6673-5.8147-1.8378-0.70123-0.20672-1.3485 0.3586-1.9437 1.6978-0.49079 1.1043-1.8294 3.0133-2.9748 4.2422-4.048 4.3436-8.5544 5.9104-12.747 4.432-5.602-1.9752-11.102-14.223-8.083-18 0.77133-0.96513 1.4158-0.96337 7.3639 0.0201 9.0038 1.4887 19.266 4.1103 25.688 6.5623 2.1997 0.83985 2.9416 0.90396 3.3438 0.28895 0.2843-0.43473 0.45489-3.4708 0.37913-6.7468-0.10441-4.5119 0.0983-6.2595 0.83516-7.2065 0.80104-1.0293 1.1214-1.0955 1.8129-0.37463 0.61672 0.6428 0.74773 2.8646 0.4929 8.359l-0.34722 7.4834 2.1187 0.0443c2.6093 0.0544 10.145-1.4394 12.153-2.4096 1.5103-0.72966 2.5989-2.7314 2.3366-4.2963-0.0802-0.47882 0.13683-1.2097 0.4824-1.6242 0.34563-0.41451 0.85328-1.8422 1.1282-3.1727 0.47848-2.3158 1.4837-3.618 2.206-2.8578 0.18706 0.19686 0.10035 0.7248-0.1928 1.1731-0.29316 0.44832-0.60349 1.4174-0.68961 2.1534-0.74138 6.3369-1.3924 9.2878-2.247 10.185-1.3466 1.4137-8.7485 3.5803-13.514 3.9557-4.2267 0.33292-4.176 0.27544-4.9954 5.6554l-0.49658 3.2604 5.1064 0.0994c4.1451 0.0807 5.1494-0.0968 5.3348-0.94245 0.14655-0.66832-0.1955-1.0179-0.95405-0.9752-0.65708 0.0371-1.1713-0.3694-1.1573-0.91469 0.0155-0.6062 0.63989-0.96557 1.6336-0.9402 1.4136 0.0361 1.62 0.35876 1.7034 2.662 0.12497 3.4543-1.4885 13.34-2.2497 13.784-0.92742 0.54097-1.0491 0.14688-1.3565-4.3916-0.15804-2.3339-0.49106-4.4437-0.74005-4.6884-0.61941-0.60872-6.6529-1.1754-6.6669-0.62615-6e-3 0.24247 0.3524 0.61925 0.79688 0.83732 0.44448 0.21804 0.17575 0.2241-0.59728 0.0133-1.8366-0.50048-2.0899 0.57089-3.5134 14.863-0.81787 8.2116-0.92682 11.367-0.40478 11.726 0.51198 0.35172 0.50759 0.80383-0.0157 1.5972-1.157 1.7548-2.2282 1.7168-2.8669-0.10183zm-16.441-38.12c1.6167-0.73229 3.4456-2.3126 4.5624-3.9422 2.1966-3.2054 2.3728-4.4088 0.6519-4.4527-0.69053-0.0176-2.9651-0.51688-5.0545-1.1094-2.0894-0.59254-5.4852-1.2489-7.5461-1.4586-2.061-0.20976-4.3301-0.58282-5.0426-0.82914-0.74228-0.25662-1.303-0.14969-1.3132 0.25042-0.01 0.38407 0.27655 0.70582 0.63635 0.71501 0.35981 9e-3 0.63654 0.53176 0.61497 1.1613-0.0336 0.97813-0.12776 0.99952-0.64838 0.14708-1.0599-1.7357-0.81969 1.0176 0.33093 3.7935 0.56076 1.3529 0.95328 2.8217 0.87225 3.2639-0.087 0.47499 0.26907 0.65636 0.87012 0.44315 0.55959-0.1985 1.0246-0.64118 1.0333-0.98373 9e-3 -0.34253 0.31333-0.42832 0.67685-0.19062 0.36352 0.23771 0.56925 0.8331 0.45716 1.3231-0.29433 1.2869 2.0482 2.9401 4.2811 3.0214 1.0555 0.0393 3.1333-0.48016 4.6174-1.1524zm-86.698 33.301c-2.3692-2.021-2.6744-4.0393-1.3214-8.7381 1.5766-5.4747 4.9006-10.311 10.495-15.271 8.8685-7.8616 13.675-7.3433 16.193 1.746 0.52424 1.8924 0.50186 2.6729-0.0926 3.238-1.1167 1.0611-1.0838 5.4276 0.0588 7.7826 0.53403 1.1007 1.8622 2.8395 2.9516 3.864 2.0016 1.8825 1.9706 3.3849-0.0687 3.3328-1.2975-0.0332-4.659-3.2982-4.6284-4.4957 0.0123-0.47238-0.24961-0.86584-0.58151-0.8743-0.33189-9e-3 -0.93782-1.1228-1.3465-2.4762-0.66579-2.205-0.82082-2.3358-1.4915-1.2577-2.2664 3.643-5.5372 7.9794-7.087 9.3958-4.6575 4.2566-10.519 5.9385-13.081 3.7534zm7.4126-3.2038c1.4563-0.63203 3.737-2.2612 5.0683-3.6202 3.4749-3.5474 7.4699-10.161 7.9508-13.162 0.22706-1.417 0.66841-2.5699 0.98086-2.5619 0.84259 0.0216 0.74525-2.2174-0.13678-3.1456-1.1199-1.1786-3.2145-1.0177-5.1161 0.39301-0.91747 0.68064-1.9629 1.2459-2.3232 1.256-0.74518 0.0211-3.5039 2.2789-5.0145 4.104-0.79678 0.96274-0.81392 1.1109-0.0804 0.69388 0.63331-0.35993 0.77684-0.29151 0.44689 0.21313-0.26733 0.40885-0.86464 0.73369-1.3274 0.72186-1.2064-0.0308-3.2765 2.3222-2.7848 3.1653 0.22814 0.3911-0.0226 0.86619-0.55698 1.0558-1.195 0.42389-3.8567 6.044-3.9134 8.2628-0.10121 3.9644 1.9219 4.7445 6.8065 2.6245zm334.75 10.668c-0.47741-1.3104-0.47119-4.0771 0.0327-14.476 0.40321-8.3215 0.55526-8.4446 6.895-5.5845 0.82506 0.37219 1.384-0.63989 2.8975-5.2461 1.0313-3.139 2.0899-6.5356 2.3524-7.5481 0.26251-1.0125 0.8849-1.9855 1.3831-2.1622 1.4274-0.50634 1.0855-1.4852-0.53602-1.5344-2.8946-0.0883-15.586-5.2495-16.297-6.628-0.37623-0.72969-0.94283-1.5245-1.2592-1.7663-1.2496-0.95507 0.39585-2.4126 3.8376-3.3993 2.7358-0.78436 5.2206-0.93408 10.19-0.61401 6.2332 0.40144 6.8451 0.57424 11.869 3.3511l5.2971 2.9278 3.6255-2.3628c1.994-1.2995 3.9693-2.8832 4.3895-3.5194 0.96989-1.4682 2.1535-1.4519 2.6816 0.0369 0.42213 1.1901-0.47381 2.1315-6.0387 6.3446l-2.6565 2.0112 1.3548 1.3396c4.9006 4.8456 6.5984 18.768 3.3801 27.718-2.5873 7.1951-6.0517 10.349-9.718 8.8467-0.93833-0.38443-3.7498-2.7576-6.2478-5.2736-4.4197-4.4516-7.25-6.8211-8.1762-6.8447-0.25018-6e-3 -1.2783 2.2503-2.2846 5.0149-3.0252 8.3108-5.9339 12.219-6.9724 9.3683zm5.0743-11.388c1.9818-5.4798 2.0146-5.2622-1.0763-7.1324-0.65092-0.39376-1.28-0.6209-1.398-0.50472-0.1181 0.11625-0.49256 3.5917-0.83224 7.7235-0.55836 6.7911-0.51907 7.3958 0.40952 6.2982 0.56496-0.66776 1.8686-3.5408 2.8971-6.3847zm23.354 4.3675c3.3694-4.1911 4.0759-6.541 4.2176-14.028 0.15077-7.9551-0.5195-10.818-3.5693-15.249-1.9666-2.8576-4.0048-4.1723-4.0447-2.6089-9e-3 0.33189-1.1284 0.92722-2.4886 1.323-3.9854 1.1595-6.774 2.5134-6.7941 3.2986-0.01 0.4018-0.61317 2.194-1.3397 3.9826-0.72662 1.7886-1.6971 4.4207-2.1565 5.8492-0.45947 1.4284-1.1804 3.2571-1.602 4.0638-0.70505 1.349-0.21574 2.0311 6.0993 8.5022 7.7528 7.9444 8.8398 8.3974 11.678 4.867zm-7.0271-33.542 2.5722-1.0324-1.8649-1.03c-6.0954-3.3662-16.751-5.0476-21.474-3.3885l-1.7684 0.62115 1.6352 1.3552c2.1901 1.8151 12.43 4.8542 15.705 4.6613 1.4423-0.0852 3.7799-0.61904 5.1946-1.1868zm-405.78 24.145c0.3284-3.142 0.9054-6.7934 1.2822-8.1143 0.55926-1.9604 0.4944-6.2263-0.10429-6.8564-0.89516-0.94208-4.5754 4.8039-6.8881 10.754-2.3757 6.1127-3.5273 7.8247-4.8858 7.2632-1.0468-0.4327-0.98303-2.6326 0.24325-8.3844 0.59252-2.7794 0.68646-3.6581 0.62613-5.8574l-0.0534-1.947-1.4322 1.3609c-0.78772 0.7485-2.9031 4.0739-4.7009 7.3899-3.5603 6.5669-5.8708 8.3943-4.949 3.9143 0.28262-1.3736 1.097-3.7183 1.8097-5.2105 0.71277-1.4922 1.3061-3.112 1.3185-3.5994 0.0125-0.48747 0.33377-1.1819 0.71401-1.5432 0.42802-0.40668 0.4909-1.2444 0.16507-2.1995l-0.52625-1.5426-1.4534 1.381c-1.9511 1.854-3.4265 1.7409-3.3754-0.25865 0.0565-2.213 5.1311-4.687 7.2006-3.5105 0.75851 0.4312 1.3642 1.3671 1.346 2.0797-0.0285 1.1173 0.2219 1.0246 1.8185-0.67302 3.2002-3.4027 5.2863-0.62793 4.4869 5.9681-0.34718 2.8645 0.36298 3.0256 1.0502 0.23835 0.71-2.8797 5.2675-8.1603 7.1958-8.3377 3.4671-0.31886 3.8755 2.3296 2.2041 14.295-0.965 6.9085-1.6987 9.1535-2.9807 9.1207-0.48899-0.0125-0.5235-1.7884-0.11145-5.7307zm-24.248-25.756c0.2706-0.83947 1.1734-3.9286 2.0061-6.8647 0.8327-2.9361 1.688-5.2246 1.9006-5.0856 0.21263 0.13902 0.4084-0.64862 0.43506-1.7503 0.0565-2.4034 1.3398-3.0301 2.2982-1.1237 0.52814 1.0505 0.41297 2.1663-0.49275 4.7731-2.9606 8.5212-4.2259 11.176-5.4207 11.375-1.0012 0.16652-1.1309-0.0698-0.7266-1.3238zm293.18-6.7615c0.0206-0.80355 0.4572-1.3521 1.064-1.3366 0.60921 0.0155 0.93156 0.46916 0.78989 1.1115-0.36023 1.6331-1.8947 1.8194-1.8539 0.2251zm-317.66-42.711c-1.1485-1.3611-1.574-2.7477-1.6666-5.4313-0.0684-1.982-0.39465-4.4645-0.72496-5.5168-0.75533-2.4062-0.51432-12.635 0.41255-17.51 0.75953-3.9945 3.7917-11.566 5.6668-14.15 0.91223-1.2572 1.0958-2.3831 0.84392-5.1754l-0.32194-3.5686-1.6598 3.518c-5.599 11.867-6.1833 12.844-7.9198 13.233-0.94615 0.21195-1.909 0.18664-2.1398-0.0556-0.23077-0.24286-0.26196-4.3889-0.0693-9.2134 0.3317-8.309 0.27732-8.8258-1.0318-9.7934-0.76008-0.56186-1.6323-0.87557-1.9382-0.69715-1.2918 0.75353-0.33925-0.87636 1.5325-2.6221 1.5512-1.4467 2.2642-1.7296 3.0455-1.2084 0.85633 0.57123 0.97187 2.1218 0.71924 9.6508-0.37059 11.039 0.40274 11.665 3.9324 3.1868 0.96402-2.3156 2.4456-6.181 3.2924-8.5896 1.1504-3.2724 1.8389-4.3717 2.7237-4.3491 1.348 0.0344 1.6614 1.1104 2.1401 7.3476l0.3343 4.3557 2.4794-0.26832c1.3637-0.14764 3.009 0.0461 3.6564 0.43046 1.013 0.60136 0.80155 0.78964-1.5174 1.351-4.754 1.1508-4.5547-0.0468-3.6435 21.894 0.29363 7.0703-0.97092 16.309-2.9007 21.192-0.77279 1.9554-1.4071 3.633-1.4095 3.7281-2e-3 0.095-0.51945 0.15427-1.1489 0.13164-0.6295-0.0222-1.8386-0.86355-2.6868-1.8688zm4.0839-6.1027c1.0944-4.5164 1.6266-18.507 1.0473-27.535l-0.3725-5.8048-1.2065 1.8744c-1.5281 2.3741-3.5606 9.6262-3.9381 14.051-0.72967 8.5547 1.0382 21.417 2.9504 21.466 0.29377 7e-3 0.97749-1.8162 1.5194-4.0526zm416.84-1.1366c-0.82248-1.5537-0.815-4.247 0.0687-24.71 0.49072-11.364 0.38274-14.184-0.53516-13.958-0.26304 0.0647-1.368 1.2822-2.4555 2.7054-2.8803 3.7697-6.9963 4.1699-10.23 0.99462l-1.373-1.3484-1.7871 1.4798c-2.1413 1.7731-5.9709 3.101-7.3269 2.5405-0.53734-0.22212-1.4515-1.3376-2.0315-2.4789-1.3857-2.727-1.3489-22.204 0.0637-33.813 0.5448-4.477 1.2168-11.227 1.4934-15.001 0.34374-4.6902 0.813-7.1936 1.4833-7.9133 0.74333-0.79801 0.78622-1.123 0.17731-1.3434-0.91543-0.33134-0.16501-1.8337 0.90233-1.8064 0.8039 0.0206 0.0164 14.205-1.3247 23.86-1.2618 9.0839-1.9113 30.205-1.0309 33.523 0.40878 1.5406 0.84313 2.8037 0.96522 2.8068 1.0391 0.0265 4.9743-2.0152 6.0396-3.1335 1.1179-1.1736 1.3556-2.336 1.4809-7.2409 0.0904-3.536 0.43849-6.0199 0.88184-6.2913 0.40294-0.2466 1.3696-2.3469 2.1482-4.6672 1.2178-3.6291 1.6503-4.241 3.0941-4.3773 2.7678-0.26122 4.4678 2.2668 4.1687 6.1993-0.36611 4.8139-2.0236 8.434-6.6288 14.478-1.1182 1.4676-1.1062 1.5726 0.32157 2.7903 0.81598 0.69595 2.1472 1.2823 2.9584 1.303 3.5711 0.0912 7.5452-5.6638 8.44-12.222 0.35176-2.5781 0.76569-3.5808 1.4708-3.5628 0.80477 0.0206 0.92637 0.96563 0.67599 5.2542-0.16792 2.876-0.10035 6.2357 0.14994 7.4659l0.45526 2.2368 1.2371-3.5027c0.68042-1.9266 2.6962-6.1163 4.4795-9.3105 2.528-4.5282 3.6599-5.9395 5.1373-6.4057 1.6871-0.5323 2.078-0.37276 3.5632 1.4543 0.91757 1.1287 2.213 2.2663 2.8788 2.5281 1.0969 0.43122 1.1564 0.96661 0.63414 5.7071-0.31706 2.8772-0.40067 5.8383-0.18643 6.5802 0.37915 1.3097 0.4302 1.3152 1.7533 0.19024 0.7495-0.63722 2.3749-3.2298 3.6119-5.7613 1.237-2.5315 2.5699-4.7898 2.962-5.0185 1.3114-0.76489 2.5638 2.5718 2.8032 7.4685 0.13029 2.6672 0.3419 4.9598 0.47009 5.0947 0.1281 0.13502 0.8142-1.7325 1.5245-4.1498 1.8619-6.3366 4.6472-11.837 5.9764-11.804 0.96914 0.0248 1.0985 1.123 1.0806 9.1707-0.0165 7.4001 0.17873 9.3518 1.0242 10.24 0.96736 1.0163 1.1096 0.9126 1.9246-1.4022 1.1594-3.293 2.9762-6.5823 4.9102-8.8898 3.9359-4.696 5.5011-6.1315 6.6535-6.102 1.1152 0.0285 1.2542-0.50023 1.375-5.2301 0.18119-7.094 2.3687-22.809 3.6376-26.133 0.56446-1.4783 1.0512-3.6647 1.0817-4.8587 0.0355-1.3911 0.66034-2.8153 1.7393-3.9646 1.6146-1.7199 1.7212-1.7426 2.5946-0.55167 2.9963 4.0862 0.77974 28.969-3.6961 41.492-2.7383 7.6609-2.7806 8.021-1.6687 14.187 2.0419 11.324 2.6189 14.817 2.596 15.712-0.0244 0.95792-1.9531 1.3586-2.0247 0.42064-0.0603-0.79181-0.36463-2.2168-1.3646-6.3913-0.5172-2.159-0.92022-4.7131-0.89564-5.6756 0.0245-0.96249-0.33681-2.7264-0.80306-3.9198-0.7747-1.9827-0.88869-2.0516-1.3218-0.79881-0.26066 0.75399-1.4773 2.442-2.7036 3.7512-1.7875 1.9083-2.6686 2.356-4.4434 2.2577-1.2176-0.0674-3.4866-0.17661-5.0424-0.24236-1.5589-0.0661-3.2495-0.56271-3.7662-1.1065-1.4605-1.537-2.5595-6.8712-2.3418-11.366 0.10922-2.2475 0.0319-4.0906-0.17067-4.0957-0.2028-5e-3 -1.1195 2.4018-2.0373 5.3487-0.91768 2.9469-1.899 5.6467-2.1806 5.9995-0.28159 0.35285-0.74422 1.7298-1.0281 3.0598-0.65159 3.0531-1.9796 4.2373-3.3797 3.0136-0.78166-0.68319-0.89357-1.6652-0.51412-4.512 0.74777-5.6099 0.89845-10.828 0.34032-11.784-0.33809-0.57959-1.1691 0.60419-2.5133 3.5804-3.0247 6.6966-6.6254 8.758-8.0682 4.6188-0.82999-2.3811-1.5316-2.528-2.3646-0.49508-0.87309 2.1309-4.5564 5.4784-6.5093 5.9159-1.933 0.43301-2.8881-0.39776-3.8157-3.319l-0.67179-2.1158-0.92866 3.904c-0.72825 3.0616-0.81388 5.6727-0.39673 12.1 0.66208 10.202 0.43664 19.988-0.49838 21.633-0.94722 1.6662-2.4002 1.54-3.3704-0.29275zm1.8725-11.405-0.47101-5.7428-0.23096 7.5222c-0.17652 5.7525-0.0658 7.1035 0.47101 5.7428 0.46022-1.1666 0.53976-3.7572 0.23097-7.5222zm49.515-21.171c3.2011-1.6094 6.6313-10.993 4.9698-13.596-0.5434-0.8512-0.87671-0.81057-2.4431 0.29776-0.99761 0.70589-2.0635 1.7042-2.3686 2.2183-0.92719 1.5627-5.4123 10.872-5.4221 11.254-0.0158 0.6196 3.9455 0.48819 5.2639-0.17464zm-39.497-3.5451c1.0843-1.0139 2.8796-3.4362 3.9896-5.383 1.8927-3.3197 1.9716-3.7103 1.2701-6.2892-0.65257-2.3994-0.9319-2.6964-2.1928-2.3313-2.7911 0.80801-5.6344 5.6877-6.5346 11.214-0.8661 5.3179 0.01 6.0223 3.4677 2.789zm-20.473-11.765c1.5798-3.1121 2.1536-8.6744 0.97437-9.4455-0.37293-0.24385-1.2948 0.23072-2.0486 1.0546-2.6492 2.8956-3.6999 6.628-3.5986 12.783l0.0359 2.1786 1.5695-1.8103c0.86323-0.9957 2.2436-3.1381 3.0674-4.7609zm69.6-5.8711c2.7035-8.3204 4.9709-29.258 3.5831-33.087-0.60564-1.671-1.3735-0.52962-1.8256 2.7138-0.18586 1.3334-0.66265 3.7418-1.0596 5.3518-1.8312 7.4288-3.638 29.365-2.4213 29.396 0.16478 4e-3 0.94014-1.9644 1.7233-4.3746zm-45.97 0.88521c-0.21181-0.22292-0.77547-0.26059-1.2525-0.0836-0.52721 0.19551-0.37615 0.35447 0.38515 0.40533 0.68887 0.0461 1.0792-0.0986 0.86739-0.32167zm-456.07 22.678c-1.1059-2.1997-0.40448-14.402 1.3048-22.696 1.6875-8.1892 2.738-19.384 1.8721-19.95-1.5385-1.006-9.5308 11.972-12.773 20.74-0.83543 2.2596-1.4334 3.1227-1.7828 2.5729-0.3037-0.47797-0.36857-0.0634-0.15375 0.98238 0.2493 1.213 0.10947 1.803-0.42409 1.7894-0.52246-0.0133-0.66932 0.5454-0.42735 1.6256 0.20689 0.92355 0.0852 1.6387-0.27741 1.6295-0.35535-9e-3 -0.49231 0.41716-0.30429 0.94717 0.50744 1.4305-1.1618 5.5616-2.2362 5.5341-1.3844-0.0354-1.0289-5.8946 0.71391-11.765 0.79562-2.68 1.4942-5.2397 1.5524-5.6882 0.0583-0.44856 0.34439-0.80947 0.63598-0.80203 0.29158 7e-3 0.51271-1.0916 0.49139-2.4423-0.0213-1.3507 0.25222-4.4368 0.60787-6.858l0.64663-4.4022-2.217-0.0358c-1.2194-0.0189-2.7392 0.34004-3.3773 0.79938-2.3121 1.6642-6.2788 12.182-7.9002 20.947-0.48965 2.6471-2.0146 4.6982-2.8441 3.8252-0.50661-0.53318 1.1576-12.042 2.7488-19.01 1.223-5.3553 1.6291-13.968 0.73841-15.659-0.40731-0.77353-1.2573-0.50265-4.4856 1.4295-2.1906 1.3111-5.4632 2.669-7.2723 3.0174-16.582 3.1937-25.553 3.5813-22.842 0.98677 0.75155-0.71925 3.029-1.2562 6.765-1.5951l5.632-0.51076 0.0779-2.5657c0.0422-1.4112 0.41766-2.6697 0.83415-2.7968 0.80384-0.24533 1.8292 2.2329 1.5148 3.6611-0.14624 0.66396 0.71906 0.77629 3.9499 0.51286 4.3418-0.35407 9.0363-2.2676 13.088-5.3347 1.2768-0.96666 2.6561-1.749 3.0649-1.7386 1.6576 0.0423 2.903 5.8941 2.4602 11.561l-0.42713 5.4665 1.5935-2.2209c1.9057-2.6559 4.6795-4.1238 7.625-4.0349 3.7594 0.1144 4.0262 0.63809 3.4191 6.7236l-0.54379 5.4503 1.7094-3.4903c2.1632-4.4168 8.3604-12.648 10.24-13.6 2.027-1.0272 2.6684-0.33262 3.0775 3.3328 0.35898 3.2166-0.42314 10.08-2.6111 22.912-0.6458 3.7877-1.1824 10.188-1.2018 14.332-0.0358 7.6822-0.69071 9.5412-2.261 6.418zm281.17 4.8727c-0.18068-0.65516-0.21223-4.6669-0.0702-8.915 0.19766-5.9045 0.49363-7.9473 1.2569-8.6726 0.88407-0.84005 1.1238-0.8295 2.0913 0.0921 0.601 0.57249 1.3935 1.0486 1.7611 1.058 0.70887 0.0181 4.0718-11.73 4.932-17.229l0.51109-3.2676-5.5003-1.9857c-5.0434-1.8208-11.381-5.5609-12.409-7.3228-0.90612-1.5535 0.49552-1.3494 4.3926 0.63981 6.8894 3.5164 10.511 5.0438 12.427 5.2408 1.8368 0.18888 1.8396 0.18302 3.5931-7.2943 1.9403-8.274 5.2126-17.901 7.8793-23.18 1.7054-3.3762 3.6167-5.5428 2.6524-3.0066-0.45574 1.1986-0.43708 1.1983 0.54664-7e-3 0.56019-0.68688 0.87563-1.7424 0.70099-2.3457-0.58004-2.0036 1.9336-4.0589 5.0513-4.1304 3.4056-0.0782 4.2982 0.72378 5.0381 4.526 0.6262 3.2178 0.6618 12.893 0.0592 16.079-0.90281 4.7732-3.6473 10.543-7.0536 14.83-4.5232 5.692-9.001 8.4993-13.396 8.3982-1.1627-0.0248-1.5276 0.44068-1.8818 2.4104-0.86251 4.7965-2.0442 9.6693-3.3772 13.926-0.74443 2.3771-1.3642 4.7443-1.3774 5.2603-0.0334 1.307 2.082 2.2015 7.7715 3.2861 2.6872 0.51232 7.0838 1.3761 9.7702 1.9195 4.713 0.95333 4.9235 0.9406 5.9986-0.36337 2.493-3.0237 3.2562-7.9853 2.1902-14.239-0.8888-5.214-1.213-9.5167-0.67474-8.9552 0.87597 0.91372 2.7252 7.7601 3.163 11.71 0.70217 6.3353-1.6918 14.346-4.595 15.376-1.8724 0.66418-16.778-2.3048-23.795-4.7397-0.82559-0.28647-1.4786 0.8962-3.1428 5.6917-2.0729 5.9733-3.7651 7.9265-4.5141 5.2106zm3.464-9.5961c1.0064-2.9357 1.0767-3.7439 0.39993-4.6031-0.65494-0.83147-0.93409-0.87336-1.3809-0.20711-0.5578 0.83159-1.0127 8.3515-0.50605 8.3645 0.1464 4e-3 0.8156-1.5956 1.487-3.5542zm31.841-12.116c-0.13561-0.81778-0.28273-0.30946-0.32677 1.1296-0.0454 1.439 0.0669 2.1081 0.24672 1.4868 0.17973-0.62128 0.21574-1.7987 0.0791-2.6164zm-17.016-18.302c2.224-0.55462 4.8926-2.9951 8.3334-7.621 5.5466-7.457 6.8475-11.698 6.6893-21.807-0.14318-9.1515-0.73546-10.045-4.7859-7.2232-3.7959 2.6449-8.29 11.295-10.883 20.946-1.0567 3.9334-2.0811 7.5895-2.2764 8.1246-0.19532 0.53508-0.46929 1.7064-0.6089 2.6029-0.13969 0.89654-0.44016 2.3017-0.66784 3.1225-0.52509 1.893 0.0468 2.8918 1.4546 2.5404 0.60361-0.15069 1.8386-0.4588 2.7445-0.68469zm-227.62 32.569c-0.62403-1.0698 0.35494-6.3282 1.9665-10.564 1.5935-4.1878 2.0544-10.661 0.85087-11.947-0.62566-0.6689-3.3584 0.79668-5.8895 3.1587-1.7402 1.6239-4.0519 1.9506-4.0166 0.56775 0.0349-1.3642 8.7136-8.0782 10.387-8.0355 0.50385 0.0128 1.378 0.76919 1.9425 1.6807 1.3074 2.1111 1.0974 9.2452-0.3685 12.516-2.1655 4.832-0.99675 4.2709 1.7056-0.81881 3.2-6.0271 8.0216-11.545 9.5399-10.917 1.2607 0.52108 1.6282 3.6 1.116 9.3509-0.45076 5.0614-0.0301 10.146 0.8413 10.168 0.82719 0.0211 5.4299-7.1495 5.4647-8.5136 0.0164-0.64092 0.60376-1.7107 1.3053-2.3773 0.70155-0.66663 1.5092-1.898 1.7947-2.7363 0.28548-0.83837 0.71076-1.6667 0.94502-1.8407 0.23425-0.17404 0.96175-1.1128 1.6167-2.0862 0.65493-0.97339 1.5895-1.7596 2.0769-1.7472 0.48735 0.0125 1.2639-0.40958 1.7256-0.93785 1.4083-1.6114 3.8688-1.1336 4.3102 0.83691 0.59929 2.6754 0.24186 12.77-0.54168 15.297-0.38762 1.2502-0.60298 2.8203-0.47852 3.4891 0.20288 1.0903 0.42757 1.0327 2.175-0.55788 1.0718-0.97561 1.9577-2.1243 1.9686-2.5526 0.0111-0.42833 0.46752-1.1314 1.0146-1.5623 0.5471-0.43095 0.86562-1.0049 0.70784-1.2754-0.55185-0.94611 3.766-9.4311 5.5345-10.876 2.1703-1.773 2.9712-1.567 4.2407 1.0903l0.97643 2.044 1.8214-2.8485c2.01-3.1435 3.6274-4.094 4.5486-2.6732 0.5646 0.87087 0.27372 5.7928-0.78786 13.331l-0.45927 3.2614 1.8228-3.8812c1.0025-2.1346 2.5413-5.3357 3.4195-7.1134 0.87813-1.7778 2.0545-4.2633 2.614-5.5234 1.0514-2.3676 2.8903-4.4825 3.8757-4.4574 1.1704 0.0298 1.1931 2.544 0.0854 9.4941-1.4505 9.1023-1.6984 15.996-0.57611 16.021 0.44978 0.0111 1.7462-0.51567 2.881-1.1685 2.0148-1.1591 2.0747-1.3268 2.5567-7.1558 0.34849-4.2153 0.81432-6.3057 1.5856-7.1154 0.60066-0.63058 1.1012-1.5017 1.1123-1.9358 0.0861-3.3689 6.6761-6.586 8.5688-4.1831 1.2982 1.6481 1.3783 4.8808 0.20176 8.1422-1.0796 2.9927-2.113 4.4978-5.974 8.701-2.3811 2.5921-2.3521 3.3654 0.18849 5.0259 2.4267 1.586 5.3436 1.4263 10.153-0.55602 3.2894-1.3557 11.976-9.2053 13.591-12.281 0.5596-1.0658 1.3953-2.3174 1.8572-2.7814 1.7006-1.7082 0.81871 1.2858-1.7149 5.822-4.0733 7.2931-12.196 13.045-19.292 13.662-3.7154 0.32295-5.539-0.24148-7.7509-2.399-1.3462-1.3131-2.0981-1.6246-2.8644-1.1866-4.8049 2.7458-6.7441 3.4932-7.3658 2.8389-1.5941-1.6776-0.88756-17.211 1.007-22.14 1.2686-3.3007-1.1409 0.57013-3.8257 6.1461-3.9284 8.1585-6.7364 12.266-8.3575 12.224-1.1683-0.0298-1.2343-0.33651-0.74111-3.4434 0.29775-1.8758 0.89585-3.6235 1.3291-3.8837 0.49514-0.29738 0.52619-0.48349 0.0836-0.50114-0.41243-0.0166-0.56128-0.85429-0.35924-2.0223 0.23495-1.358 0.62971-1.8766 1.2374-1.6255 0.49083 0.20299 0.89969 0.0837 0.9086-0.2648 9e-3 -0.34848-0.29804-0.64168-0.68209-0.65148-0.39821-0.01-0.5074-0.5699-0.25411-1.3025 0.24428-0.70658 0.1728-1.7998-0.15861-2.4294-0.49754-0.94491-0.97457-0.40707-2.7335 3.0821-1.1719 2.3247-3.0205 6.8097-4.108 9.9666-1.9523 5.6669-3.199 7.2774-3.9641 5.1206-0.40115-1.1309 1.4281-8.8143 2.9377-12.34 0.46176-1.0783 0.70775-2.9758 0.54664-4.2166-0.27912-2.1497-0.34823-2.2034-1.4661-1.1373-0.64523 0.61536-1.3838 1.8759-1.6414 2.8012-0.62789 2.2561-6.1352 12.348-7.5475 13.831-1.3486 1.4158-4.0968 1.4913-4.5811 0.12582-0.19046-0.53702-0.36075-2.1599-0.37832-3.6064-0.0176-1.4465-0.24672-2.6371-0.5092-2.6458-0.26253-7e-3 -1.1146 1.1583-1.8936 2.5936-2.9678 5.4678-6.2216 6.6403-8.3854 3.0216l-1.1987-2.0046-1.588 1.6062c-2.154 2.1785-4.4719 2.0525-5.3258-0.28946-0.36438-0.99941-0.58112-4.7858-0.48163-8.4141 0.0989-3.6284-0.0374-6.971-0.30391-7.4281-0.62426-1.0703-3.3154 3.0388-8.5223 13.013-3.5976 6.8913-5.081 8.5874-6.053 6.9209zm29.248-6.1919c1.2527-1.2282 2.0685-2.2383 1.8129-2.2448-0.25566-6e-3 0.49982-1.8074 1.6789-4.0019 1.9572-3.643 2.0841-4.2092 1.4586-6.5089-0.3768-1.3854-0.97359-2.5263-1.3262-2.5353-1.0446-0.0266-7.3987 9.649-7.559 11.51-0.3025 3.513 0.15333 5.9751 1.1108 5.9996 0.30052 7e-3 1.5714-0.99088 2.8241-2.219zm-25.686-0.48419c0.116-1.1481 0.0111-1.2559-0.49243-0.50354-0.78681 1.1768-0.85282 1.9338-0.17007 1.9513 0.28322 7e-3 0.5814-0.64425 0.66261-1.4477zm77.346-5.5609c3.3471-4.5926 4.4655-7.1507 4.2004-9.608-0.4149-3.8469-4.0818-2.4312-6.5063 2.5119-1.3083 2.6673-2.0183 10.75-0.94666 10.777 0.30768 7e-3 1.7713-1.6486 3.2526-3.681zm71.033 14.325c-0.62499-0.19885-1.1302-0.60235-1.1227-0.89678 0.0211-0.82477 2.5349-1.2105 9.7726-1.4995 4.1303-0.16491 6.6432-0.53684 6.652-0.98454 9e-3 -0.39569-0.47935-1.5082-1.0824-2.4722-1.1658-1.8636-7.0061-8.6009-7.4658-8.6126-0.15027-4e-3 -2.0057 2.0845-4.1234 4.6406-5.8182 7.0228-9.4709 9.7198-12.478 9.213-2.1098-0.35555-2.053-3.3667 0.20418-10.814 1.0592-3.4951 2.3604-8.1111 2.8915-10.258 1.5652-6.3265 1.7453-6.8289 2.4424-6.8111 0.44589 0.0111 0.43115 0.42785-0.0446 1.2651-0.94951 1.6702-0.90962 2.1913 0.1393 1.8192 1.1173-0.39633 0.37953 4.219-1.8542 11.6-2.1139 6.9847-2.7671 10.076-2.1324 10.092 0.29025 7e-3 0.71719-0.27625 0.94874-0.63037 0.23159-0.35414 0.86423-0.63258 1.406-0.61875 1.0589 0.027 2.1815-1.1307 7.5269-7.7629 2.9884-3.7078 3.3992-4.5592 3.1354-6.4972-0.17546-1.2884 0.12388-3.1846 0.70899-4.4901 0.83603-1.8655 1.3349-2.2374 2.8592-2.1316 2.9045 0.20163 3.4611 2.4393 1.4635 5.884l-1.6171 2.7886 3.6654 4.2505c4.1454 4.8071 5.144 6.5665 5.7064 10.053 0.33845 2.0984 0.22229 2.4449-0.82499 2.4612-0.67041 0.0111-1.7167 0.10208-2.3251 0.20354-2.353 0.39261-13.373 0.55197-14.451 0.20897zm8.4116-22.684c-0.61129-0.64332-2.5204 1.0188-2.0656 1.7985 0.22658 0.38842 0.80823 0.24692 1.4356-0.34924 0.58012-0.55122 0.86361-1.2034 0.63-1.4493zm150.92 25.425c-0.78228-2.0592 0.33723-26.096 1.7916-38.467 0.75958-6.4613 1.6206-14.614 1.9134-18.117 0.41372-4.9495 0.74315-6.3635 1.4781-6.3448 0.70938 0.0181 0.83668 0.55324 0.50924 2.1405-0.35177 1.7051-0.30893 1.8417 0.22038 0.70305 1.3641-2.9343 4.6807-3.4332 8.9734-1.3499 2.0592 0.9994 2.8801 1.9129 3.696 4.1134 1.2247 3.3031 1.9712 7.507 2.3553 13.266 0.1512 2.2663 0.39673 4.7873 0.54563 5.6022 0.14897 0.81489 0.20325 4.6306 0.12081 8.4795-0.0819 3.8489-0.0231 7.2155 0.13214 7.4815 0.15502 0.26596 1.1677 0.25389 2.2501-0.0268 2.7323-0.70862 2.4896 0.44279-0.43619 2.0698l-2.372 1.3191 0.25182 4.6599c0.56508 10.456 0.41138 13.829-0.62899 13.802-1.2428-0.0318-1.752-3.842-1.608-12.032 0.0965-5.4843-9e-3 -6.0661-1.0461-5.7936-3.5083 0.9217-6.8856 1.4748-10.704 1.753l-4.2846 0.31217 0.0886 6.3479c0.0922 6.6071-0.63411 10.636-1.9923 11.051-0.43673 0.13327-1.0012-0.30296-1.2544-0.96942zm15.344-20.933 4.1895-0.66071-0.25456-9.5258c-0.14001-5.2392-0.29212-10.558-0.33804-11.819-0.14939-4.104-1.8786-12.374-2.9486-14.102-0.91114-1.4712-4.254-3.0873-6.5292-3.1566-2.2348-0.0669-4.9642 13.683-6.0581 30.521l-0.65238 10.042 4.2009-0.31921c2.3105-0.17555 6.0862-0.61653 8.3904-0.97994zm-52.979 18.566c-0.58314-0.6784-1.0439-1.8726-1.024-2.6539 0.0451-1.7663-0.19415-1.7725-2.6282-0.0673-2.505 1.7549-4.56 0.90201-6.5098-2.7019l-1.3637-2.5207-2.8008 2.6651c-5.3213 5.0635-8.717 4.0873-7.9483-2.285 0.21643-1.7947 0.94924-5.5891 1.6283-8.4321 1.1286-4.7248 1.1467-5.2369 0.21125-5.9583-2.0507-1.5814-0.64674-3.5088 1.6181-2.2212 1.0949 0.62244 1.2861 1.3926 1.1929 4.8067-0.0608 2.236-0.58622 5.4994-1.1672 7.252-1.2941 3.9042-1.4388 6.9046-0.33275 6.9011 2.621-9e-3 7.8656-7.6445 7.9822-11.622 0.0756-2.5734 1.4751-5.7879 2.5088-5.7615 1.1242 0.0287 1.1254 2.8537 4e-3 8.161-0.66991 3.169-0.63494 4.2747 0.21105 6.6718 1.2015 3.4044 2.7934 3.7962 4.7465 1.1684 1.7459-2.349 2.1552-3.6976 2.6052-8.5825 0.38786-4.21 1.1381-5.7303 2.4156-4.8949 0.49312 0.32246 0.54393 2.1547 0.161 5.8059-0.30771 2.9341-0.65835 5.4948-0.77923 5.6903-0.12081 0.19554 0.0932 1.9567 0.4756 3.9137l0.69531 3.5582 2.8893-2.4793c1.5891-1.3636 3.762-4.1036 4.8285-6.0888 1.8026-3.3551 1.9247-4.0047 1.7329-9.218-0.19278-5.2402-0.10516-5.6981 1.3342-6.972 1.2402-1.0976 1.7229-1.204 2.4762-0.54569 0.73981 0.64658 0.82593 1.8843 0.41148 5.9136-0.50679 4.9273-0.47329 5.1167 1.0133 5.7258 2.5622 1.0498 5.0385 5.0974 5.0197 8.2049-0.0161 2.6738-0.0827 2.7557-2.922 3.577-2.6173 0.75722-3.1176 0.71925-5.0447-0.38293-2.6299-1.5041-2.1273-2.6124 0.89147-1.9659 5.0947 1.0911 6.3451-1.3873 2.6576-5.2681-2.3317-2.454-3.7072-2.6573-4.1574-0.61465-0.40612 1.8424-6.217 9.9272-7.819 10.879-2.5981 1.5433-4.0959 1.6415-5.2129 0.34203zm13.672-22.847c-0.17005-0.4544-0.32788-0.0902-0.35086 0.8093-0.0229 0.89951 0.116 1.2713 0.3091 0.82618 0.19301-0.44512 0.21181-1.1811 0.0418-1.6355zm148.48 23.48c-0.25046-0.42946-0.44074-5.2949-0.42283-10.812 0.0274-8.4024 0.18569-10.027 0.97552-10.007 0.51865 0.0132 1.1177 0.62769 1.3312 1.3654 0.60244 2.0809 2.8999 3.9796 4.8766 4.0301 2.0072 0.0513 6.5607-3.5788 6.6038-5.2646 0.0349-1.3665 3.5009-3.6419 5.4709-3.5916 2.6223 0.0669 6.1353 4.9954 6.3303 8.8807 0.0873 1.7396 0.22718 1.8262 2.3878 1.4778 4.0435-0.65218 10.63-4.5642 10.676-6.3405 0.0308-1.208 1.1018-1.1267 1.543 0.11724 0.5654 1.594-0.24672 2.7795-3.6806 5.3732-2.284 1.7251-4.3898 2.6543-7.197 3.1755-2.1826 0.40524-3.8328 0.96937-3.6669 1.2536 0.54316 0.93127-2.5158 6.7351-4.6669 8.8546-4.1499 4.0889-7.8195 1.7029-8.6457-5.6214-0.2037-1.8054-0.33362-4.0917-0.28879-5.0807 0.0807-1.774-1.187-2.5152-2.0484-1.1979-0.54893 0.83945-4.6613 0.72444-6.2427-0.17375-0.92987-0.52858-1.172-0.49447-0.98356 0.13854 0.38392 1.2899 0.54462 12.523 0.19221 13.44-0.3935 1.0233-1.9428 1.0137-2.5434-0.0159zm19.649-3.8022c1.8673-1.8525 4.2918-6.5559 3.4461-6.6852-1.1889-0.18175-5.8889-0.01-7.5631 0.2775-1.7062 0.29238-1.8024 0.47263-1.4507 2.7214 0.90977 5.8187 2.4142 6.8148 5.5677 3.6864zm2.501-9.2644c1.4569 0.0372 1.5617-0.14566 1.2008-2.0968-0.64213-3.472-2.6629-6.4505-4.4067-6.4951-1.7981-0.046-3.9309 2.5007-4.6835 5.5923-0.74211 3.049-0.11218 3.6706 3.3339 3.2877 1.6276-0.18088 3.6775-0.31053 4.5554-0.28811zm-184.74-19.548c-1.8635-0.57612-1.3312-3.8199 1.0494-6.3956 1.1492-1.2433 2.602-2.2475 3.2286-2.2315 2.9452 0.0752 4.322 5.4098 1.9274 7.4681-1.3259 1.1397-4.4068 1.7151-6.2055 1.159zm3.9916-2.5009c0.93298-0.22466 1.4949-0.8596 1.5167-1.714 0.0332-1.2988-5e-3 -1.3062-0.87821-0.17339-0.50207 0.65105-1.2162 0.98538-1.5869 0.74294-0.37075-0.24242-0.85409-5e-3 -1.0742 0.52718-0.44012 1.0648-0.17369 1.1461 2.0226 0.61723zm88.317 1.1954c-1.0236-0.80688-1.0559-1.6235-0.3171-8.0272 0.0414-0.35897 0.81714-1.472 1.7239-2.4734 0.90671-1.0014 1.7766-2.1575 1.933-2.5691 0.19627-0.51634 0.66085-0.417 1.4984 0.3204 0.66765 0.5878 2.1357 1.4605 3.2622 1.9394 2.7019 1.1484 3.1611 3.3153 1.393 6.5729-2.4528 4.519-6.7198 6.4234-9.4934 4.237zm6.0152-2.7268c1.35-1.2827 2.8544-3.9308 2.8836-5.0758 0.0328-1.2837-3.5428-2.4397-4.7336-1.5304-1.0622 0.81105-2.5415 4.4438-2.5905 6.3614-0.0399 1.5638 2.8828 1.7249 4.4406 0.24474zm-505.94-10.533c-0.21318-0.3655-0.0758-0.65657 0.30518-0.64684 0.38106 0.01 0.68531 0.31209 0.67611 0.6719-9e-3 0.35979-0.14654 0.65087-0.30519 0.64683-0.15863-4e-3 -0.46291-0.30642-0.6761-0.67189zm275.92 6.2445c-1.7659-0.90759-2.6926-4.2078-1.8089-6.4415 1.8601-4.7015 6.8748-8.3706 9.6165-7.0358 0.83977 0.40881 1.5188 1.0568 1.509 1.4401-0.01 0.38321 0.69793 1.5093 1.5727 2.5023 2.1046 2.3893 1.9559 4.2414-0.559 6.9623-2.8508 3.0844-7.2183 4.172-10.33 2.5726zm8.2542-3.6974c1.2159-1.1197 2.2131-2.4934 2.2161-3.0528 0.01-1.8162-4.6802-4.5867-6.1165-3.6132-1.7026 1.1539-4.2816 4.7522-4.0336 5.6277 0.15123 0.53418 0.40185 1.4163 0.55666 1.9603 0.18435 0.64745 1.1253 1.0107 2.7241 1.0515 1.8612 0.0476 2.9688-0.42215 4.6533-1.9734zm50.587 0.92947c0.0145-0.80973 0.32199-1.4647 0.68181-1.4555 0.81963 0.021 0.80191 0.7152-0.0502 1.9626-0.53308 0.78043-0.65395 0.68339-0.63168-0.50709zm93.893-88.35c4e-3 -0.13595 0.53181-0.63787 1.1741-1.1156 1.0584-0.78723 1.0809-0.76351 0.24069 0.2533-0.88245 1.0679-1.4285 1.4007-1.4148 0.86229zm2.1179-4.0083c0.051-0.76128 0.20986-0.91234 0.40532-0.38513 0.17684 0.47706 0.13934 1.0407-0.0836 1.2526-0.22294 0.21181-0.36768-0.17859-0.32166-0.86743z" stroke-width=".6544"/>
</svg>
