<?xml version="1.0" encoding="UTF-8" standalone="no"?>
<svg
   xmlns:dc="http://purl.org/dc/elements/1.1/"
   xmlns:cc="http://creativecommons.org/ns#"
   xmlns:rdf="http://www.w3.org/1999/02/22-rdf-syntax-ns#"
   xmlns:svg="http://www.w3.org/2000/svg"
   xmlns="http://www.w3.org/2000/svg"
   xmlns:sodipodi="http://sodipodi.sourceforge.net/DTD/sodipodi-0.dtd"
   xmlns:inkscape="http://www.inkscape.org/namespaces/inkscape"
   enable-background="new 0 0 4253.661 1017.313"
   version="1.1"
   viewBox="0 0 1e3 1e3"
   id="svg16"
   sodipodi:docname="page-donations.svg"
   inkscape:version="0.92.4 (5da689c313, 2019-01-14)">
  <metadata
     id="metadata22">
    <rdf:RDF>
      <cc:Work
         rdf:about="">
        <dc:format>image/svg+xml</dc:format>
        <dc:type
           rdf:resource="http://purl.org/dc/dcmitype/StillImage" />
      </cc:Work>
    </rdf:RDF>
  </metadata>
  <defs
     id="defs20" />
  <sodipodi:namedview
     pagecolor="#ffffff"
     bordercolor="#666666"
     borderopacity="1"
     objecttolerance="10"
     gridtolerance="10"
     guidetolerance="10"
     inkscape:pageopacity="0"
     inkscape:pageshadow="2"
     inkscape:window-width="1600"
     inkscape:window-height="872"
     id="namedview18"
     showgrid="false"
     inkscape:zoom="0.6675088"
     inkscape:cx="267.31417"
     inkscape:cy="614.25491"
     inkscape:window-x="1920"
     inkscape:window-y="0"
     inkscape:window-maximized="1"
     inkscape:current-layer="svg16" />
  <path
     id="home-sheet"
     d="m961.6 290.13s-12.769-19.034-8.9673-28.901c3.8004-9.867 9.3799-7.406 9.3799-7.406l1.729-151.79-207.65 8.1907-294.29-0.14476-438.58-6.9649 5.7094 201.48 6.9203 25.903h-6.1856l5.156 181.93 0.68594 291.81-3.7165 89.65 773.58-7.5399 158.37 1.8251-3.3201-51.328-4.2198-72.488 5.3942-474.16z"
     fill="#fff"
     stroke="#808184"
     stroke-linejoin="round"
     stroke-miterlimit="10"
     stroke-width="2" />
  <path
     id="home-sheet-frame"
     d="m64.189 862.12 1.8941-70.08-5.9528-282.21v-375.02l464.72 0.81174 415.34-3.1117-7.1704 631.67 5.5469 96.732-157.21 2.9764z"
     fill="none"
     stroke="#808184"
     stroke-miterlimit="10"
     stroke-width="1.3529" />
  <path
     id="home-sheet-frame-line1"
     d="m66.228 755.84c293.58 2.0427 573.25 0.61289 866.84 0.61289"
     fill="none"
     stroke="#808184"
     stroke-miterlimit="10"
     stroke-width="1.3529" />
  <path
     id="home-sheet-frame-line2"
     d="m316.7 863.3-4.8162-107.33"
     fill="none"
     stroke="#808184"
     stroke-miterlimit="10"
     stroke-width="1.3529" />
  <text
     id="home-project-name"
     x="344.16904"
     y="804.54724"
     fill="#000000"
     font-family="sans-serif"
     font-size="40px"
     letter-spacing="0px"
     word-spacing="0px"
     style="line-height:1.25"
     xml:space="preserve"><tspan
       id="tspan10"
       x="344.16904"
       y="804.54724"
       font-family="Lato"
       font-weight="200">Project name: Home</tspan></text>
  <text
     id="home-deployment-date"
     x="345.6557"
     y="839.05487"
     fill="#000000"
     font-family="sans-serif"
     font-size="40px"
     letter-spacing="0px"
     word-spacing="0px"
     style="line-height:1.25"
     xml:space="preserve"><tspan
       id="tspan13"
       x="345.6557"
       y="839.05487"
       font-family="Lato"
       font-size="26.667px"
       font-weight="200">Deployment date: ##date##</tspan></text>
  <path
     id="home-logo-hair"
     d="m87.322 775.65c2.2152 0.0435 21.711-1.763 28.398 1.173 6.6869 2.9359 5.7092 3.2238 9.7702 6.4673-0.64745-1.9182-0.0847-0.29843-1.3661-2.1148 4.6678 2.1825 11.377 5.2862 12.864 13.21 3.9432 3.2417 5.2744 4.9981 7.7808 11.357l-1.5562 26.034-3.5288-18.134s-4.4-3.8592-5.3069-7.638c-3.7688 0.30949-13.947-3.9209-17.059-2.2591-3.1122 1.6618-4.7925 3.0186-9.2888 1.12s-5.4585-1.45-10.408 1.0028c-3.4509 0.95377-11.848 5.185-11.848 5.185l-4.7468 20.435-1.246-26.601-6.0865-6.4459s0.84272-2.1452 4.1539-4.3333c3.3112-2.1881 5.3859-2.6351 5.3859-2.6351-3.4637-1.842-3.8391-2.9263-7.2065-4.5757 5.4874-6.0883 11.273-6.9188 14.063-6.7606-1.9248-1.0212-2.0887-2.3833-2.7688-4.4864z"
     fill="#231f20"
     stroke-width=".73135" />
  <path
     id="home-logo-left-eyebrow"
     d="m102.27 824.7c3.8141 1.0797 3.8802 0.56288 4.9638 0.6853-0.0153 0.85057-0.0698 2.0295-1.5683 2.2544-1.4985 0.22491-19.25-2.5674-21.71-1.0984 2.9844-6.0876 14.5-2.921 18.314-1.8413z"
     fill="#3e3734"
     stroke-width=".73135" />
  <path
     id="home-logo-right-eyebrow"
     d="m122.18 823.7c-3.6095 1.6327-4.3973 1.2553-5.481 1.3574 0.0153 0.70937 0.45769 1.8355 1.9562 2.0231 1.4985 0.18758 12.993-6.7832 21.322-1.059-1.4922-2.5385-4.6001-5.8624-8.3288-5.7242-3.7288 0.13817-7.3673 2.4524-9.4682 3.4027z"
     fill="#3e3734"
     stroke-width=".73135" />
  <path
     id="home-logo-glasses"
     d="m130.84 825.58c-5.2406 0.0341-10.291 1.6316-15.435 2.2703-2.1469 0.26661-4.3595 0.33201-6.51 0.0841-2.8593-0.32971-5.6276-1.2052-8.485-1.5977-2.5537-0.35055-5.1392-0.71678-7.7088-0.73134-4.4906-0.026-8.8337 1.345-13.236 2.0853 0 1.2556-0.26169 2.8674 0.39652 3.7501 0.67893 0.91027 1.8242 1.7427 2.1212 2.9764 0.7044 2.9256 1.7046 5.7934 2.9834 8.5428 0.62148 1.3361 1.7943 2.2676 3.1042 2.9092 3.1541 1.5452 6.8871 1.7724 10.347 1.2865 4.9276-0.69197 7.601-4.2973 9.6405-8.4167 0.76341-1.6745 0.84851-3.6072 1.8539-5.1375 0.59709-0.9089 1.9838-0.52631 2.9746-0.52969 0.99113-4e-3 1.8312 1.604 2.1386 2.6739 1.0884 3.7863 2.9033 7.8033 6.5102 9.7871 5.3861 2.9627 13.872 2.4085 17.366-2.9344 1.3678-2.0912 1.7453-4.6282 2.4315-6.9956 0.41775-1.4413 0.79109-3.1597 2.2765-3.9519 0.59945-0.31989 0.17883-1.5958 0.26721-2.3376 0.0964-0.80801 0.28249-1.523-0.8967-1.6815-2.0567-0.27702-4.0517-1.1191-6.1567-1.4042-1.9947-0.27021-3.949-0.66069-5.9843-0.64758zm-34.646 1.3453c1.4877-9e-3 2.969 0.097 4.415 0.39523 8.6151 1.7769 8.7892 5.2382 5.2427 12.394-2.89 5.8307-8.8765 7.2917-14.909 5.8941-2.7809-0.64421-4.6822-2.537-5.5791-5.1289-0.9465-2.7358-1.6625-5.6423-1.5003-8.5178 0.21717-3.8503 4.6833-4.3914 7.8812-4.7422 1.4675-0.16093 2.9617-0.28508 4.4493-0.29431zm31.456 0c1.4877 8e-3 2.982 0.13338 4.4495 0.29431 3.1978 0.35078 7.6643 0.89191 7.8812 4.7422 0.16207 2.8755-0.55386 5.782-1.5005 8.5178-0.89669 2.5919-2.7982 4.4847-5.5789 5.1289-6.032 1.3976-12.019-0.0634-14.909-5.8941-3.5465-7.1558-3.3721-10.617 5.243-12.394 1.4459-0.2982 2.9271-0.40431 4.4147-0.39523z"
     fill="#3d3e40" />
  <path
     id="home-logo-luis"
     d="m289.33 776.57c-1.9727 0-3.7238 0.30349-5.2559 0.91211-1.5111 0.60867-2.7925 1.4287-3.8418 2.457-1.0283 1.0073-1.8157 2.1719-2.3613 3.4941s-0.81836 2.7062-0.81836 4.1543c0 1.8469 0.32597 3.3907 0.97656 4.6289 0.6506 1.2173 1.4995 2.2445 2.5488 3.084 1.0703 0.81847 2.2882 1.5012 3.6524 2.0469 1.3641 0.52469 2.7501 1.0168 4.1562 1.4785 1.4271 0.44072 2.8214 0.91428 4.1856 1.418 1.3641 0.48273 2.5718 1.0916 3.6211 1.8262 1.0703 0.73454 1.9314 1.647 2.582 2.7383 0.65059 1.0913 0.97461 2.4754 0.97461 4.1543 0 1.574-0.2727 3.0543-0.81836 4.4394-0.54567 1.3851-1.3432 2.603-2.3926 3.6524-1.0283 1.0284-2.2975 1.8465-3.8086 2.4551-1.5111 0.58762-3.2211 0.88086-5.1309 0.88085-1.3431 1e-5 -2.5508-0.12511-3.6211-0.37695-1.0494-0.27283-1.9823-0.5988-2.8008-0.97656-0.7975-0.39874-1.4905-0.81904-2.0781-1.2598-0.5876-0.4617-1.092-0.88005-1.5117-1.2578-0.41977-0.39875-0.76623-0.72471-1.0391-0.97656-0.25184-0.27283-0.45074-0.4082-0.59765-0.4082-0.1469 0-0.26175 0.03081-0.3457 0.09375-0.06297 0.04197-0.14702 0.11577-0.25196 0.2207l-0.41015 0.6289c0.77653 0.90247 1.5844 1.7103 2.4238 2.4238 0.86047 0.71358 1.7953 1.3225 2.8027 1.8262 1.0283 0.48269 2.1397 0.84972 3.3359 1.1016 1.2173 0.27282 2.5724 0.41015 4.0625 0.41015 2.1827 0 4.1243-0.33621 5.8242-1.0078 1.7209-0.6926 3.1685-1.6275 4.3438-2.8027 1.1962-1.1963 2.0984-2.5906 2.707-4.1856 0.6296-1.616 0.94335-3.3382 0.94335-5.1641 1e-5 -1.7839-0.32401-3.2725-0.9746-4.4688-0.6506-1.2173-1.5117-2.2362-2.582-3.0547-1.0703-0.81846-2.2882-1.489-3.6523-2.0137-1.3431-0.54569-2.7272-1.05-4.1543-1.5117-1.4271-0.48271-2.8234-0.97678-4.1875-1.4805-1.3431-0.50367-2.5488-1.1229-3.6191-1.8574s-1.9314-1.6367-2.582-2.707c-0.6506-1.0913-0.97656-2.4446-0.97656-4.0606 0-1.2593 0.23164-2.4546 0.69336-3.5879 0.46167-1.1543 1.1444-2.1732 2.0469-3.0547 0.9024-0.88144 2.0137-1.5744 3.3359-2.0781 1.3431-0.52467 2.8748-0.78711 4.5957-0.78711 1.6999 0 3.127 0.21112 4.2812 0.63086 1.1543 0.39872 2.0995 0.84983 2.834 1.3535 0.73452 0.50367 1.3005 0.96504 1.6992 1.3848 0.41974 0.39875 0.74571 0.59765 0.97656 0.59766 0.23086 0 0.40924-0.10459 0.53516-0.31446l0.37695-0.6914c-1.4901-1.5111-3.0955-2.6244-4.8164-3.3379-1.6999-0.71353-3.6621-1.0703-5.8867-1.0703zm-92.672 0.50586v27.639c0 2.3925 0.37923 4.6396 1.1348 6.7383 0.75553 2.0777 1.836 3.8923 3.2422 5.4453 1.4061 1.5531 3.1161 2.7812 5.1309 3.6836 2.0148 0.88147 4.2824 1.3223 6.8008 1.3223 2.5185 0 4.7738-0.4408 6.7676-1.3223 2.0147-0.9024 3.7247-2.1305 5.1309-3.6836 1.4271-1.553 2.5179-3.3676 3.2734-5.4453 0.75553-2.0987 1.1348-4.3457 1.1348-6.7383v-27.639h-1.7637v27.639c0 2.1827-0.33621 4.2289-1.0078 6.1387-0.6506 1.8888-1.6041 3.5372-2.8633 4.9434-1.2382 1.4061-2.7596 2.5175-4.5645 3.3359-1.7839 0.79754-3.8198 1.1973-6.1074 1.1973s-4.3338-0.39973-6.1387-1.1973c-1.8049-0.81846-3.3384-1.9298-4.5976-3.3359-1.2382-1.4271-2.1917-3.0961-2.8633-5.0059-0.65059-1.9098-0.97656-3.956-0.97656-6.1387v-27.576h-1.7324zm56.207 0.00195v44.262h1.7305v-44.262h-1.7305zm-95.16 0.00196v44.262h23.674v-1.5117h-21.943v-42.75h-1.7305z" />
  <path
     id="home-logo-alejandro"
     d="m292.53 827.76c-2.8236 0-5.0042 0.72248-6.543 2.166-1.5229 1.4277-2.2832 3.5287-2.2832 6.3047s0.76034 4.8865 2.2832 6.3301c1.5387 1.4277 3.7194 2.1406 6.543 2.1406s5.0062-0.72053 6.5449-2.1641 2.3066-3.5464 2.3066-6.3066-0.76791-4.8612-2.3066-6.3047-3.7213-2.166-6.5449-2.166zm-80.857 0.28711v10.66c0 0.74554-0.14221 1.2765-0.42774 1.5938-0.26967 0.31726-0.69065 0.47461-1.2617 0.47461-0.57106 0-0.99962-0.15735-1.2852-0.47461-0.26968-0.31727-0.4043-0.84822-0.4043-1.5938v-0.19141h-4.9258v0.21485c0 0.64345 0.06519 1.2269 0.17969 1.7637h-8.8281v-2.498h7.6133v-3.7598h-7.6133v-2.2598h8.8984v-3.9258h-14.156v16.369h14.324v-3.0742c0.28937 0.77479 0.72738 1.4124 1.3184 1.9062 1.1739 0.96767 2.8558 1.4512 5.0449 1.4512 2.1891 0 3.8635-0.4835 5.0215-1.4512 1.1739-0.96766 1.7598-2.4752 1.7598-4.5215v-10.684h-5.2578zm-47.992 0.00195-5.9727 16.371h5.3789l0.68945-2.3086h5.7344l0.68945 2.3086h5.4512 0.11719 13.541v-4.1875h-8.4004v-12.182h-5.2578v16.049l-5.8555-16.051h-6.1152zm58.561 0-5.9726 16.371h5.377l0.69141-2.3086h5.7344l0.68946 2.3086h5.5684 4.7148v-7.9473l6.877 7.9473h4.5918v-16.371h-4.8301v8.0664l-6.877-8.0664h-4.5918v16.055l-5.8574-16.055h-6.1152zm29.738 0v16.371h7.0918c5.7265 0 8.5898-2.7287 8.5898-8.1855 0-5.4569-2.8633-8.1836-8.5898-8.1836l-7.0918-0.00195zm16.414 0v16.371h5.2578v-5.9726h1.9512l2.9024 5.9726h5.9023l-3.6406-6.8535c1.0311-0.38074 1.8161-0.97421 2.3555-1.7832 0.53935-0.809 0.8086-1.7135 0.8086-2.7129 0-0.90413-0.21427-1.7385-0.64258-2.5-0.41247-0.7773-1.0382-1.3879-1.8789-1.832-0.82486-0.46003-1.8242-0.68945-2.998-0.68945h-10.018zm24.137 3.6367c1.1263 0 1.9834 0.3413 2.5703 1.0234 0.60279 0.68214 0.9043 1.6018 0.9043 2.7598v1.5234c0 1.158-0.30151 2.0776-0.9043 2.7598-0.58693 0.68214-1.444 1.0234-2.5703 1.0234-1.1263 0-1.9814-0.3413-2.5684-1.0234-0.58693-0.68213-0.88086-1.6018-0.88086-2.7598v-1.5234c0-1.158 0.29393-2.0776 0.88086-2.7598 0.58693-0.68213 1.4421-1.0234 2.5684-1.0234zm-18.879 0.09961h3.4512c0.41247 0 0.76134 0.1422 1.0469 0.42773 0.28554 0.28557 0.42773 0.64201 0.42773 1.0703 0 0.42834-0.14219 0.79431-0.42773 1.0957-0.28556 0.28553-0.63444 0.42773-1.0469 0.42773h-3.4512v-3.0215zm-16.412 0.1914h1.7363c2.2049 0 3.3066 1.1813 3.3066 3.5449v1.4277c0 2.3636-1.1017 3.5449-3.3066 3.5449h-1.7363v-8.5176zm-90.631 0.64063h0.0957l1.7129 5.8301h-3.5469l1.7383-5.8301zm58.561 0h0.09375l1.7129 5.8301h-3.5449l1.7383-5.8301z" />
  <path
     style="fill:#000000;stroke-width:0.80166543"
     d="m 319.3945,729.7319 c -1.58341,-1.90789 -1.91317,-9.25403 -0.58807,-13.10019 0.92878,-2.69575 0.9633,-3.52325 0.1666,-3.99142 -1.91676,-1.12634 0.80818,-26.20193 2.9985,-27.59307 1.58497,-1.00664 1.7417,-0.90002 6.18733,4.21122 2.32791,2.67654 4.52468,4.57047 4.88169,4.20875 1.39172,-1.40973 9.56445,-33.3936 9.56445,-37.43023 0,-1.47452 0.20267,-1.40748 -5.2231,-1.72799 -5.70085,-0.3367 -19.40547,-4.12111 -23.42654,-6.46912 -3.54823,-2.07183 -7.42528,-6.9231 -7.42528,-9.29115 0,-1.84037 6.31296,-4.69019 24.45079,-11.03763 8.33201,-2.91583 19.41108,-4.41296 28.11245,-3.79889 5.54272,0.39114 7.54372,0.90831 10.53799,2.72356 5.2078,3.15713 11.0445,9.39441 12.27225,13.11449 0.57274,1.73543 1.25415,3.15398 1.51427,3.15238 0.26011,0 1.66706,-0.73102 3.12654,-1.62087 1.45949,-0.88985 2.95487,-1.4317 3.32308,-1.2041 0.36822,0.22747 0.87008,-0.10898 1.11524,-0.74796 0.24526,-0.63892 1.87167,-1.88905 3.61444,-2.77817 5.13975,-2.62212 11.00611,-8.85366 11.67094,-12.39745 0.53131,-2.83209 0.65694,-2.9484 1.69896,-1.57294 1.7684,2.33434 1.3749,5.3091 -1.15648,8.74281 -2.6002,3.527 -5.24419,5.59194 -15.54519,12.14057 -5.32249,3.38368 -6.92965,4.80117 -6.54347,5.77111 0.98319,2.46938 4.27483,17.80684 4.79754,22.35419 0.28985,2.52174 0.89386,5.66715 1.34221,6.9899 1.2877,3.79901 -0.34258,14.31428 -3.17124,20.45431 -4.19371,9.10316 -10.84104,14.08464 -20.43176,15.31141 -10.84325,1.38706 -22.68811,-2.01281 -29.87178,-8.57411 l -2.7043,-2.46993 -1.76992,4.87492 c -2.95344,8.13473 -8.47631,19.19508 -10.55378,21.13541 -1.72145,1.60784 -2.082,1.68327 -2.96428,0.62019 z m 3.84988,-9.07062 c 0.59503,-1.20906 1.96257,-4.36281 3.03896,-7.00831 1.07641,-2.64549 2.27798,-5.53149 2.67017,-6.41332 0.39222,-0.88183 1.13273,-2.9737 1.64565,-4.64853 0.85319,-2.78612 0.77268,-3.19897 -0.94625,-4.85241 -1.03332,-0.99399 -2.64847,-2.87036 -3.58923,-4.16979 -0.94075,-1.29942 -1.96768,-2.11727 -2.28209,-1.81745 -1.10144,1.05041 -3.16284,31.12699 -2.13253,31.11439 0.28239,0 1.00028,-0.99549 1.59532,-2.20458 z m 50.06605,-12.60539 c 4.19399,-1.75236 9.83193,-7.45243 11.90832,-12.03956 1.52456,-3.36812 1.81845,-5.41685 1.83989,-12.82664 0.0333,-11.51713 -0.76862,-18.52401 -2.64391,-23.10006 -0.50869,-1.24123 -0.92488,-2.9107 -0.92488,-3.71004 0,-0.79926 -0.54829,-2.76542 -1.2184,-4.36932 -1.18612,-2.8387 -1.27648,-2.88655 -3.40708,-1.80327 -3.74237,1.90285 -20.2791,5.46487 -24.56518,5.29139 -2.24314,-0.0907 -4.69528,-0.12025 -5.44917,-0.0656 -1.52339,0.11048 -1.43165,-0.17311 -6.25429,19.33948 -1.79806,7.27511 -4.01274,15.50844 -4.92148,18.2963 l -1.65225,5.06893 1.76596,1.87976 c 2.84158,3.02476 11.23156,7.84294 15.60655,8.96247 4.94036,1.26422 15.89547,0.75612 19.91592,-0.92377 z m -3.58467,-59.68701 c 8.70877,-2.24564 9.97577,-3.03681 9.42057,-5.88215 -1.49633,-7.66865 -13.12226,-15.81445 -22.57086,-15.81445 -2.79989,0 -3.04588,0.4466 -4.63651,8.41749 -0.0879,0.44091 -0.37876,1.16241 -0.64619,1.60333 -1.00536,1.65752 -2.37829,12.41098 -1.72048,13.47534 0.73676,1.19215 12.69132,0.12476 20.15347,-1.79956 z M 345.387,643.70767 c 0.70845,-3.4171 1.63492,-7.51739 2.05883,-9.11175 1.4314,-5.38356 1.62207,-5.31129 -9.25004,-3.50614 l -2.405,0.39931 2.405,-1.16973 c 1.32272,-0.64339 3.73648,-1.18604 5.36391,-1.20593 1.62741,-0.02 3.19216,-0.41351 3.4772,-0.87475 0.92402,-1.49508 -7.27584,0.10297 -16.70485,3.25569 -6.00192,2.00677 -9.05701,3.42985 -9.23042,4.29958 -0.14255,0.71499 -0.61478,1.29998 -1.04938,1.29998 -0.43461,0 -0.56981,-0.35659 -0.30043,-0.79245 0.5406,-0.87474 -0.93384,-0.48683 -5.00472,1.31674 -1.43298,0.63484 -2.60541,1.68292 -2.60541,2.32906 0,2.00522 8.03499,6.35064 14.42997,7.80399 7.38139,1.67741 9.01473,1.92167 13.77402,2.0601 l 3.75322,0.10923 z m 196.7623,70.54655 c -0.0388,-0.7716 -0.01,-7.08472 0.0629,-14.02914 0.0734,-6.94443 -0.0944,-12.62623 -0.37283,-12.62623 -0.27837,0 -2.48857,2.14125 -4.91155,4.75836 -9.45892,10.21682 -20.68635,9.2088 -24.44997,-2.19504 l -0.88799,-2.69071 -2.07749,3.0574 c -2.81204,4.13827 -10.05905,11.12125 -13.13341,12.65491 -4.35665,2.17339 -7.75371,1.30296 -9.74472,-2.49701 l -1.10209,-2.10349 -2.72085,3.69567 c -3.01674,4.09764 -4.39844,4.52763 -6.93972,2.16009 -2.13744,-1.99134 -3.38666,-6.34744 -3.39247,-11.82977 -0.002,-2.31481 -0.31082,-4.20875 -0.68525,-4.20875 -0.3744,0 -0.90941,-3.48115 -1.18889,-7.73584 -0.27948,-4.25467 -0.69607,-7.92374 -0.92575,-8.15342 -1.02673,-1.02675 -4.86824,4.03879 -7.79419,10.2776 -3.32922,7.09875 -3.69811,7.95107 -5.72434,13.22748 -1.58287,4.12184 -6.3753,14.92997 -7.19816,16.23373 -0.34787,0.55114 -1.33269,1.00208 -2.18852,1.00208 -2.41822,0 -1.98755,-3.37068 1.96348,-15.3676 1.99625,-6.06139 3.76628,-13.202 4.0897,-16.4986 0.5662,-5.77126 0.55658,-5.81207 -1.37027,-5.81207 -1.06725,0 -4.62118,1.38287 -7.89758,3.07311 l -5.95716,3.073 -0.45825,7.94989 c -0.51852,8.99524 -2.45738,14.99691 -6.3819,19.75487 -6.16574,7.47513 -15.64122,4.99998 -20.04464,-5.236 -1.54048,-3.58094 -1.69152,-4.97762 -1.26851,-11.73037 1.10582,-17.6529 1.90247,-20.41464 6.76197,-23.44165 2.06459,-1.28602 3.49679,-1.56157 6.41011,-1.23321 3.33295,0.37568 4.26519,0.96939 8.35566,5.3213 3.7534,3.99325 4.86501,4.75596 6.0157,4.12763 5.52638,-3.01765 10.74266,-5.04899 13.9369,-5.42728 3.38719,-0.40116 3.86831,-0.24501 5.11746,1.66153 1.36636,2.08528 1.36062,3.36291 -0.0544,12.12799 -0.30137,1.86691 -0.0506,1.59787 1.12101,-1.20249 4.27743,-10.22422 8.18801,-15.43392 12.35917,-16.46493 1.97733,-0.48877 2.3343,-0.24551 3.40708,2.3221 0.66055,1.58088 1.20107,5.30807 1.2044,8.30502 0.01,9.651 2.54181,21.87111 4.52999,21.87111 0.5916,0 1.07561,-0.28043 1.07561,-0.62322 0,-0.75644 4.52096,-6.20864 7.01457,-8.4595 0.99206,-0.89546 1.80374,-1.95942 1.80374,-2.36443 0,-0.7441 0.62503,-2.29347 4.06625,-10.07957 2.13358,-4.82747 5.0762,-9.14692 5.76322,-8.4599 0.25027,0.25027 1.06066,-0.82075 1.80072,-2.38029 1.57688,-3.323 6.59325,-6.11302 10.99113,-6.11302 2.43075,0 2.99653,0.34824 3.66056,2.25308 0.43199,1.2392 1.3386,2.80623 2.01471,3.48236 1.74462,1.74457 2.72634,8.69453 1.22815,8.69453 -0.61633,0 -1.70231,1.56959 -2.41331,3.48787 -1.20413,3.24893 -1.19504,3.7765 0.13277,7.69897 1.79606,5.30542 3.84133,7.38822 7.32607,7.4607 3.98528,0.0829 10.56845,-3.05963 12.20162,-5.82442 0.76128,-1.28868 1.83594,-2.80719 2.38814,-3.37436 3.29306,-3.38248 4.72446,-7.30077 5.43486,-14.87723 0.75873,-8.09227 2.01822,-62.7197 1.44568,-62.70442 -0.17862,0.005 -2.10567,0.54887 -4.28217,1.20912 -2.17652,0.66024 -4.65675,0.97843 -5.51165,0.70709 -0.9406,-0.29854 -1.35825,-0.17612 -1.05772,0.31022 0.27314,0.44197 -0.13253,1.06318 -0.90167,1.38052 -1.23214,0.5084 -2.52039,0.73553 -7.41082,1.30654 -0.66138,0.0772 -2.55531,0.0837 -4.20875,0.015 -2.56467,-0.10773 -3.00624,-0.39675 -3.00624,-1.96761 0,-1.6349 0.56805,-1.93863 5.06677,-2.70923 2.78674,-0.47734 8.88368,-2.03989 13.5488,-3.47229 l 8.48199,-2.60439 0.56147,-4.50678 c 0.30882,-2.47873 0.89391,-5.12968 1.30023,-5.89099 0.40632,-0.76133 0.76872,-3.51177 0.80532,-6.1121 0.0541,-3.84286 0.4319,-5.12189 2.01839,-6.83284 2.13298,-2.30033 3.86528,-2.65457 5.39333,-1.10292 1.90208,1.93144 3.74265,7.97687 4.2477,13.95153 0.47288,5.5941 0.63099,6.00167 2.1899,5.64551 10.2752,-2.34766 23.84726,-4.54848 31.64333,-5.13124 4.80261,-0.35897 5.84555,-0.23448 5.55312,0.66298 -0.54474,1.6716 -5.34631,2.93888 -28.7021,7.57529 -10.28013,2.04074 -10.4214,2.12388 -10.42313,6.13604 -8e-4,1.88482 -0.53807,8.47741 -1.19391,14.65024 -0.65583,6.17282 -1.19631,11.53932 -1.20102,11.92555 -0.005,0.3862 1.80435,-1.0568 4.02015,-3.20667 4.99836,-4.84967 7.22111,-5.53943 11.24136,-3.48844 5.22405,2.66511 8.05303,5.81408 8.54966,9.51669 0.42145,3.1422 0.243,3.52515 -3.06825,6.58856 -4.15629,3.84512 -7.78806,5.5201 -11.96861,5.5201 -2.58397,0 -3.48161,-0.50856 -5.91459,-3.35096 -1.57755,-1.84303 -2.86831,-3.82716 -2.86831,-4.40916 0,-0.58201 -0.29832,-1.0582 -0.66295,-1.0582 -0.36463,0 -1.11765,2.97618 -1.67338,6.61374 -1.50252,9.83475 -5.4907,24.82477 -7.51847,28.2587 -0.62149,1.05251 -1.08806,8.15457 -1.35804,20.67239 -0.34001,15.76373 -0.61974,19.20087 -1.61381,19.82897 -1.76336,1.11432 -2.39637,0.95614 -2.47531,-0.61848 z m -116.29486,-6.28834 c 5.02604,-3.01837 8.85672,-12.79548 7.79286,-19.88982 l -0.56625,-3.77614 -2.88722,1.70354 c -3.58856,2.11727 -9.64366,2.89737 -13.11001,1.68901 -3.57683,-1.24689 -3.97779,-0.37869 -3.69065,7.99157 0.19666,5.73439 0.54185,7.27246 2.06873,9.21915 3.38227,4.31224 6.68917,5.28681 10.39254,3.06269 z m 71.05468,-10.1458 c 2.31521,-1.51803 5.87691,-5.1406 8.53408,-8.67988 l 4.56049,-6.07437 0.15758,-6.35144 c 0.0867,-3.49326 0.12025,-6.79915 0.0747,-7.34647 -0.13328,-1.59874 -13.7402,14.05448 -15.41786,17.73652 -0.52566,1.15378 -1.21945,2.09774 -1.54172,2.09774 -0.83895,0 -3.165,6.09994 -3.165,8.30012 0,3.72759 1.49099,3.79733 6.79774,0.31778 z m -68.80807,-15.53332 c 3.32168,-1.38791 3.35715,-2.4426 0.2152,-6.39631 -2.99971,-3.77464 -3.76903,-4.29685 -6.35322,-4.31266 -1.68368,-0.01 -2.3688,0.77113 -4.20875,4.80007 -1.20876,2.64678 -2.19774,5.18365 -2.19774,5.63754 0,2.4321 7.01024,2.58377 12.54459,0.27136 z m 74.78829,-11.7233 c 1.06231,-1.21252 1.70281,-2.20458 1.42336,-2.20458 -0.77581,0 -4.58134,4.28833 -4.58134,5.16255 0,0.48478 0.22697,0.48781 0.61324,0.008 0.3373,-0.41887 1.48243,-1.75364 2.54474,-2.96616 z m 46.55033,-11.95549 c 2.85841,-11.35742 7.20993,-41.554 7.20993,-50.03188 v -3.75989 l -3.30374,0.44312 c -1.81705,0.24376 -3.5873,0.74217 -3.93387,1.10763 -0.34657,0.36548 -0.8136,13.11038 -1.03779,28.32198 -0.22421,15.2116 -0.67595,28.37896 -1.00386,29.26079 -0.3279,0.88183 -0.32951,1.36403 -0.002,1.07158 0.32595,-0.29244 1.25874,-3.17843 2.07288,-6.41333 z m 22.96368,-15.84546 c 6.45681,-3.93716 7.30605,-6.08402 3.68663,-9.31959 -2.99114,-2.67388 -7.43637,-4.80147 -8.09138,-3.87269 -0.28961,0.41062 -1.51109,1.37295 -2.71442,2.13851 -1.20335,0.76557 -2.755,2.48857 -3.44809,3.82886 -1.18055,2.28296 -1.15437,2.60811 0.41452,5.14659 2.5054,4.05384 5.80516,4.72925 10.15274,2.07832 z m -17.95833,-42.99487 c 2.07328,-0.4945 2.20458,-0.78779 2.20458,-4.92508 0,-4.51846 -1.95404,-12.69021 -3.22185,-13.47374 -1.12754,-0.69687 -3.94271,10.84929 -3.97355,16.2971 -0.0175,2.92525 0.19766,3.39658 1.38332,3.04433 0.7716,-0.22923 2.39498,-0.65341 3.6075,-0.94261 z m 27.25469,100.92102 c -1.9373,-0.40258 -5.27917,-4.33821 -6.16729,-7.26298 l -0.54323,-1.78902 -1.75439,1.6828 c -4.3206,4.14436 -9.13565,4.48659 -12.35993,0.87845 -2.44483,-2.73584 -2.83439,-5.76501 -1.82804,-14.21488 1.54949,-13.01056 1.88018,-14.38366 3.5412,-14.70302 1.45678,-0.28011 1.49759,0.0804 0.86097,7.6053 -1.15272,13.6247 -0.59827,19.52666 1.83375,19.51945 2.1902,-0.008 7.1481,-3.35114 9.30879,-6.27977 1.08538,-1.47114 2.41156,-4.53721 2.94707,-6.81343 1.18599,-5.04128 3.64377,-10.1087 4.98098,-10.26974 0.54217,-0.0649 1.5904,-0.15532 2.32936,-0.20041 0.73899,-0.0448 2.19008,-1.33503 3.2247,-2.86693 2.37052,-3.50977 5.36587,-5.23591 7.91309,-4.5601 3.36118,0.89175 4.11517,1.82787 4.54516,5.64282 0.22973,2.03863 0.73709,3.70667 1.12735,3.70667 0.39026,0 2.59802,-1.05491 4.90614,-2.34424 5.77131,-3.2239 12.80332,-4.51368 17.02326,-3.12224 2.54762,0.84 3.54579,1.76352 4.85682,4.49341 l 1.65015,3.43619 6.16608,-11.20761 c 3.39135,-6.16415 6.16609,-11.54991 6.16609,-11.96831 0,-1.02059 1.94777,-1.71596 2.96488,-1.05842 0.48103,0.31097 0.82845,4.8006 0.84729,10.94874 0.0256,8.37154 0.36979,11.48609 1.74956,15.83289 1.0504,3.3092 2.15668,5.41124 2.84776,5.41124 3.49146,0 10.986,-7.50719 15.08156,-15.10698 1.34602,-2.49766 1.35529,-2.81913 0.13503,-4.68132 -4.6918,-7.16065 0.005,-20.34868 6.89783,-19.36431 4.02338,0.57462 4.27307,6.58431 0.5775,13.90016 -3.12948,6.19527 -2.91756,6.79804 4.36875,12.42581 7.53122,5.81696 9.41606,11.50462 5.96241,17.99225 -2.29452,4.31023 -4.30226,5.98852 -8.22193,6.87253 -3.33638,0.75251 -5.69305,-1.10575 -2.43834,-1.92265 2.78303,-0.6985 8.50993,-7.44987 8.50622,-10.02795 -0.005,-3.15599 -2.62012,-6.82112 -7.73031,-10.83186 l -4.599,-3.60967 -2.15919,3.76993 c -1.18754,2.07341 -4.27495,6.04391 -6.8609,8.82321 -3.62749,3.89865 -5.5716,5.30943 -8.50898,6.17435 -3.79859,1.11855 -3.80976,1.11614 -4.91007,-1.04497 -2.09105,-4.10711 -3.70871,-11.24627 -3.7884,-16.71939 -0.0438,-3.01859 -0.35504,-6.39015 -0.69131,-7.49244 -0.56966,-1.86732 -0.65639,-1.89739 -1.27009,-0.44044 -0.36225,0.86012 -2.03528,3.82971 -3.71785,6.59931 -1.68254,2.76951 -3.05915,5.20168 -3.05915,5.40491 0,0.20317 -1.99146,3.18589 -4.42547,6.62824 -2.43401,3.44235 -4.94931,7.34103 -5.58954,8.66377 -1.98409,4.09924 -4.09648,6.30623 -5.5149,5.76197 -2.06697,-0.79317 -1.53239,-3.6342 1.44781,-7.69398 2.72193,-3.70803 5.22951,-9.57935 5.25211,-12.29755 0.008,-0.7716 -0.7314,-2.14598 -1.63961,-3.05419 -1.40637,-1.40635 -2.26831,-1.57542 -5.81207,-1.14012 -2.28843,0.28106 -5.2083,1.02413 -6.48856,1.65118 -1.28026,0.62715 -2.65824,1.14022 -3.06221,1.14022 -0.40396,0 -2.24248,1.04512 -4.08559,2.32257 -2.93083,2.03127 -3.63978,3.16235 -5.65309,9.01874 -4.98445,14.49909 -9.64932,19.33857 -17.14031,17.78181 z m 7.29951,-6.70335 c 2.8891,-1.97457 5.69366,-7.04623 6.96725,-12.59937 0.67202,-2.93016 -0.0351,-3.23617 -3.24193,-1.40291 -2.32331,1.32811 -6.68219,1.54408 -8.75664,0.43385 -1.21623,-0.65095 -1.76895,-0.11098 -3.60818,3.52404 -1.95005,3.85426 -2.08215,4.62609 -1.29311,7.55625 1.42679,5.29871 4.642,6.10413 9.93261,2.48814 z m 5.52906,-19.11596 c 2.85275,-1.21186 3.00625,-1.46519 3.00625,-4.96263 0,-2.02709 -0.21044,-3.89609 -0.46775,-4.15333 -0.87138,-0.87141 -7.95916,3.28553 -9.76371,5.72637 -4.02766,5.44764 -0.98246,6.87629 7.22521,3.38959 z m 76.68586,-21.89781 c 2.76266,-8.18067 1.72481,-10.36561 -2.18336,-4.59658 -1.44879,2.13852 -1.74072,3.3552 -1.33014,5.54367 1.01145,5.39153 1.40913,5.28435 3.5135,-0.94709 z m -279.92473,18.91128 c -0.32152,-0.32146 -0.5736,-1.33605 -0.56017,-2.25468 0.0226,-1.54208 0.0882,-1.56019 0.85839,-0.23699 0.89676,1.54087 0.66738,3.45725 -0.29822,2.49165 z m 170.70461,-9.67008 c -0.29393,-0.29389 -0.53443,-0.90716 -0.53443,-1.36284 0,-0.50231 0.37337,-0.45494 0.94862,0.12025 0.52176,0.52181 0.76226,1.13509 0.53446,1.36284 -0.22772,0.22797 -0.65471,0.17361 -0.94865,-0.12025 z"
     id="path817"
     inkscape:connector-curvature="0"
     sodipodi:nodetypes="ccccccsccssccccscccccccccccccccccccccccscccccccscccccccccccccscccccccccccccsccsccccccsccccccccccssccccsssscccscscccccccccccsscscscsccscccccccccccccsccccccccscccscscccccssssccscccccccccccccccccssccccccscccssccccsccccsccccccccccsscccscccccsccccccccccscccccsscsscccccccccccccccccccsssccccccsccccccccccccscccccccccccccsccc" />
</svg>
