<svg enable-background="new 0 0 4253.661 1017.313" version="1.1" viewBox="0 0 1e3 1e3" xmlns="http://www.w3.org/2000/svg">
 <path d="m961.6 290.13s-12.769-19.034-8.9673-28.901c3.8004-9.867 9.3799-7.406 9.3799-7.406l1.729-151.79-207.65 8.1907-294.29-0.14476-438.58-6.9649 5.7094 201.48 6.9203 25.903h-6.1856l5.156 181.93 0.68594 291.81-3.7165 89.65 773.58-7.5399 158.37 1.8251-3.3201-51.328-4.2198-72.488 5.3942-474.16z" fill="#fff" stroke="#808184" stroke-linejoin="round" stroke-miterlimit="10" stroke-width="2"/>
 <path d="m64.189 862.12 1.8941-70.08-5.9528-282.21v-375.02l464.72 0.81174 415.34-3.1117-7.1704 631.67 5.5469 96.732-157.21 2.9764z" fill="none" stroke="#808184" stroke-miterlimit="10" stroke-width="1.3529"/>
 <path d="m66.228 755.84c293.58 2.0427 573.25 0.61289 866.84 0.61289" fill="none" stroke="#808184" stroke-miterlimit="10" stroke-width="1.3529"/>
 <path d="m316.7 863.3-4.8162-107.33" fill="none" stroke="#808184" stroke-miterlimit="10" stroke-width="1.3529"/>
 <path d="m349.73 792.79v11.76h-1.1v-28.12h6.72q4.76 0 7.22 2.04 2.48 2.04 2.48 6.12 0 1.78-0.7 3.3-0.68 1.5-1.96 2.6-1.28 1.08-3.08 1.7-1.78 0.6-3.96 0.6zm0-0.9h5.62q1.98 0 3.56-0.56 1.6-0.56 2.7-1.54 1.12-0.98 1.72-2.32t0.6-2.88q0-3.56-2.14-5.42t-6.44-1.86h-5.62z"/>
 <path d="m369.88 804.55v-19.72h0.48q0.4 0 0.42 0.44l0.12 4.86q0.86-2.68 2.4-4.14 1.56-1.48 4.08-1.48 0.58 0 1.18 0.1 0.62 0.08 1.1 0.36l-0.12 0.62q-0.08 0.22-0.28 0.22-0.22 0-0.68-0.14-0.44-0.16-1.32-0.16-1.26 0-2.22 0.4-0.96 0.38-1.72 1.16-0.76 0.76-1.34 1.9-0.56 1.14-1.04 2.66v12.92z"/>
 <path d="m390.07 784.51q2.1 0 3.72 0.74 1.64 0.72 2.76 2.06 1.12 1.32 1.7 3.2t0.58 4.18-0.58 4.18q-0.58 1.86-1.7 3.18t-2.76 2.04q-1.62 0.7-3.72 0.7t-3.74-0.7q-1.62-0.72-2.74-2.04t-1.7-3.18q-0.58-1.88-0.58-4.18t0.58-4.18 1.7-3.2q1.12-1.34 2.74-2.06 1.64-0.74 3.74-0.74zm0 19.44q1.92 0 3.36-0.66t2.4-1.88q0.98-1.22 1.46-2.92t0.48-3.8-0.48-3.82-1.46-2.94q-0.96-1.24-2.4-1.9-1.44-0.68-3.36-0.68t-3.36 0.68q-1.44 0.66-2.42 1.9-0.96 1.22-1.44 2.94t-0.48 3.82 0.48 3.8 1.44 2.92q0.98 1.22 2.42 1.88t3.36 0.66z"/>
 <path d="m405.92 784.83v22.8q0 0.94-0.28 1.74t-0.84 1.38q-0.54 0.58-1.34 0.9-0.78 0.34-1.8 0.34-0.56 0-0.96-0.12-0.42-0.1-0.82-0.3l0.1-0.5q0.06-0.16 0.16-0.18 0.1 0 0.28 0.06t0.46 0.14q0.26 0.08 0.66 0.08 1.66 0 2.5-0.96t0.84-2.58v-22.8zm0.84-7.12q0 0.28-0.12 0.52t-0.32 0.44q-0.18 0.18-0.44 0.3-0.24 0.1-0.5 0.1-0.56 0-0.98-0.4-0.4-0.42-0.4-0.96 0-0.56 0.4-0.96 0.42-0.42 0.98-0.42 0.26 0 0.5 0.12 0.26 0.1 0.44 0.3 0.2 0.18 0.32 0.44 0.12 0.24 0.12 0.52z"/>
 <path d="m420.74 784.51q1.6 0 2.98 0.56 1.4 0.56 2.44 1.66 1.04 1.08 1.62 2.68 0.6 1.6 0.6 3.66 0 0.42-0.36 0.42h-14.94q-0.02 0.2-0.02 0.4t0 0.4q0 2.36 0.56 4.16t1.58 3.02 2.46 1.86q1.46 0.62 3.24 0.62 1.58 0 2.74-0.34 1.16-0.36 1.94-0.78t1.2-0.76q0.44-0.36 0.56-0.36 0.16 0 0.26 0.12l0.26 0.3q-0.4 0.5-1.12 0.98t-1.66 0.86q-0.92 0.36-2.02 0.58-1.08 0.24-2.22 0.24-2.02 0-3.66-0.7-1.62-0.72-2.78-2.06-1.14-1.34-1.76-3.28-0.62-1.96-0.62-4.46 0-2.16 0.58-3.94 0.6-1.8 1.72-3.1t2.74-2.02 3.68-0.72zm0.02 0.8q-1.68 0-3.02 0.54-1.32 0.54-2.28 1.52t-1.56 2.36q-0.58 1.38-0.76 3.06h14.28q0-1.78-0.52-3.16-0.5-1.4-1.4-2.36-0.88-0.96-2.1-1.46t-2.64-0.5z"/>
 <path d="m446.96 786.99q-0.06 0.06-0.12 0.12-0.06 0.04-0.16 0.04-0.16 0-0.5-0.28t-0.94-0.62-1.52-0.62-2.22-0.28q-1.84 0-3.28 0.66-1.42 0.64-2.42 1.86-0.98 1.22-1.5 2.94t-0.52 3.88q0 2.22 0.52 3.96 0.54 1.72 1.5 2.9 0.98 1.18 2.34 1.8 1.38 0.62 3.06 0.62 1.52 0 2.54-0.34 1.04-0.36 1.72-0.78 0.68-0.44 1.04-0.78 0.36-0.36 0.52-0.36t0.26 0.12l0.24 0.3q-0.36 0.5-1 0.98-0.62 0.48-1.46 0.86-0.82 0.36-1.84 0.58-1 0.24-2.14 0.24-1.9 0-3.44-0.68t-2.64-1.98q-1.08-1.3-1.68-3.18t-0.6-4.26q0-2.28 0.58-4.16 0.6-1.88 1.72-3.2 1.12-1.34 2.74-2.08t3.7-0.74q1.84 0 3.28 0.6 1.44 0.58 2.48 1.54z"/>
 <path d="m457.73 804.87q-1.84 0-2.88-1-1.04-1.02-1.04-3.26v-14.22h-3.08q-0.38 0-0.38-0.3v-0.36l3.46-0.14 0.3-7.6q0.02-0.12 0.1-0.22 0.08-0.12 0.22-0.12h0.44v7.94h6.52v0.8h-6.52v14.18q0 0.92 0.24 1.58 0.24 0.64 0.64 1.06t0.94 0.62q0.56 0.18 1.2 0.18 0.78 0 1.36-0.24 0.6-0.24 1.02-0.52t0.68-0.52 0.38-0.24q0.1 0 0.22 0.12l0.26 0.38q-0.34 0.42-0.8 0.76-0.44 0.34-0.98 0.6-0.54 0.24-1.12 0.38t-1.18 0.14z"/>
 <path d="m477.22 804.55v-19.72h0.5q0.38 0 0.4 0.4l0.12 3.42q1.38-1.9 3.28-3.02t4.18-1.12q1.64 0 2.86 0.52 1.24 0.5 2.04 1.46 0.82 0.94 1.22 2.32 0.42 1.38 0.42 3.12v12.62h-1.06v-12.62q0-1.54-0.34-2.76t-1.06-2.06q-0.7-0.86-1.76-1.3-1.06-0.46-2.5-0.46-2.16 0-4 1.14-1.84 1.12-3.24 3.12v14.94z"/>
 <path d="m511 804.55q-0.4 0-0.46-0.42l-0.2-2.9q-0.82 0.84-1.66 1.52-0.82 0.66-1.74 1.14-0.9 0.46-1.96 0.72t-2.34 0.26q-0.94 0-1.86-0.28t-1.66-0.88-1.2-1.54q-0.44-0.96-0.44-2.3 0-1.3 0.74-2.36 0.76-1.06 2.34-1.82 1.58-0.78 4-1.22 2.42-0.46 5.76-0.54v-2.34q0-2.96-1.28-4.6t-3.8-1.64q-1.5 0-2.58 0.44-1.08 0.42-1.8 0.96-0.72 0.52-1.16 0.96-0.42 0.42-0.64 0.42-0.2 0-0.36-0.22l-0.18-0.28q1.48-1.52 3.1-2.32t3.7-0.8q1.54 0 2.68 0.5 1.14 0.48 1.88 1.4 0.76 0.92 1.12 2.24 0.36 1.3 0.36 2.94v12.96zm-8.16-0.46q1.28 0 2.34-0.28 1.06-0.3 1.96-0.8t1.68-1.16q0.78-0.68 1.5-1.44v-5.72q-6.04 0.2-8.94 1.5-2.88 1.3-2.88 3.64 0 1.1 0.36 1.9 0.38 0.8 0.98 1.34 0.62 0.52 1.4 0.78 0.78 0.24 1.6 0.24z"/>
 <path d="m518.16 804.55v-19.72h0.5q0.38 0 0.4 0.4l0.12 3.32q1.16-1.84 2.72-2.94 1.58-1.1 3.48-1.1 2.26 0 3.58 1.36t1.72 3.82q0.3-1.32 0.92-2.28 0.64-0.98 1.48-1.62 0.84-0.66 1.84-0.96 1-0.32 2.06-0.32 1.42 0 2.56 0.5 1.16 0.48 1.96 1.42t1.22 2.32q0.44 1.38 0.44 3.18v12.62h-1.06v-12.62q0-3.2-1.38-4.88-1.36-1.7-3.9-1.7-1.12 0-2.16 0.42-1.02 0.4-1.82 1.24-0.78 0.82-1.26 2.06-0.48 1.22-0.48 2.86v12.62h-1.06v-12.62q0-3.14-1.24-4.86t-3.64-1.72q-1.8 0-3.3 1.12t-2.64 3.08v15z"/>
 <path d="m557.45 784.51q1.6 0 2.98 0.56 1.4 0.56 2.44 1.66 1.04 1.08 1.62 2.68 0.6 1.6 0.6 3.66 0 0.42-0.36 0.42h-14.94q-0.02 0.2-0.02 0.4t0 0.4q0 2.36 0.56 4.16t1.58 3.02 2.46 1.86q1.46 0.62 3.24 0.62 1.58 0 2.74-0.34 1.16-0.36 1.94-0.78t1.2-0.76q0.44-0.36 0.56-0.36 0.16 0 0.26 0.12l0.26 0.3q-0.4 0.5-1.12 0.98t-1.66 0.86q-0.92 0.36-2.02 0.58-1.08 0.24-2.22 0.24-2.02 0-3.66-0.7-1.62-0.72-2.78-2.06-1.14-1.34-1.76-3.28-0.62-1.96-0.62-4.46 0-2.16 0.58-3.94 0.6-1.8 1.72-3.1t2.74-2.02 3.68-0.72zm0.02 0.8q-1.68 0-3.02 0.54-1.32 0.54-2.28 1.52t-1.56 2.36q-0.58 1.38-0.76 3.06h14.28q0-1.78-0.52-3.16-0.5-1.4-1.4-2.36-0.88-0.96-2.1-1.46t-2.64-0.5z"/>
 <path d="m570.34 804.55m0-1.18q0-0.64 0.42-1.08 0.44-0.46 1.08-0.46t1.08 0.46q0.46 0.44 0.46 1.08t-0.46 1.08q-0.44 0.42-1.08 0.42t-1.08-0.42q-0.42-0.44-0.42-1.08zm0-16.44q0-0.64 0.42-1.08 0.44-0.46 1.08-0.46t1.08 0.46q0.46 0.44 0.46 1.08t-0.46 1.08q-0.44 0.42-1.08 0.42t-1.08-0.42q-0.42-0.44-0.42-1.08z"/>
 <path d="m615.52 790.49q0 3.3-0.96 5.92-0.96 2.6-2.7 4.42-1.74 1.8-4.16 2.76t-5.34 0.96h-10.14v-28.12h10.14q2.92 0 5.34 0.96t4.16 2.78q1.74 1.8 2.7 4.42 0.96 2.6 0.96 5.9zm-1.16 0q0-3.14-0.88-5.58-0.86-2.46-2.46-4.14-1.58-1.68-3.8-2.56-2.2-0.88-4.86-0.88h-9.04v26.32h9.04q2.66 0 4.86-0.88 2.22-0.88 3.8-2.56 1.6-1.68 2.46-4.12 0.88-2.46 0.88-5.6z"/>
 <path d="m628.9 784.51q2.1 0 3.72 0.74 1.64 0.72 2.76 2.06 1.12 1.32 1.7 3.2t0.58 4.18-0.58 4.18q-0.58 1.86-1.7 3.18t-2.76 2.04q-1.62 0.7-3.72 0.7t-3.74-0.7q-1.62-0.72-2.74-2.04t-1.7-3.18q-0.58-1.88-0.58-4.18t0.58-4.18 1.7-3.2q1.12-1.34 2.74-2.06 1.64-0.74 3.74-0.74zm0 19.44q1.92 0 3.36-0.66t2.4-1.88q0.98-1.22 1.46-2.92t0.48-3.8-0.48-3.82-1.46-2.94q-0.96-1.24-2.4-1.9-1.44-0.68-3.36-0.68t-3.36 0.68q-1.44 0.66-2.42 1.9-0.96 1.22-1.44 2.94t-0.48 3.82 0.48 3.8 1.44 2.92q0.98 1.22 2.42 1.88t3.36 0.66z"/>
 <path d="m643.47 804.55v-19.72h0.5q0.38 0 0.4 0.4l0.12 3.42q1.38-1.9 3.28-3.02t4.18-1.12q1.64 0 2.86 0.52 1.24 0.5 2.04 1.46 0.82 0.94 1.22 2.32 0.42 1.38 0.42 3.12v12.62h-1.06v-12.62q0-1.54-0.34-2.76t-1.06-2.06q-0.7-0.86-1.76-1.3-1.06-0.46-2.5-0.46-2.16 0-4 1.14-1.84 1.12-3.24 3.12v14.94z"/>
 <path d="m677.25 804.55q-0.4 0-0.46-0.42l-0.2-2.9q-0.82 0.84-1.66 1.52-0.82 0.66-1.74 1.14-0.9 0.46-1.96 0.72t-2.34 0.26q-0.94 0-1.86-0.28t-1.66-0.88-1.2-1.54q-0.44-0.96-0.44-2.3 0-1.3 0.74-2.36 0.76-1.06 2.34-1.82 1.58-0.78 4-1.22 2.42-0.46 5.76-0.54v-2.34q0-2.96-1.28-4.6t-3.8-1.64q-1.5 0-2.58 0.44-1.08 0.42-1.8 0.96-0.72 0.52-1.16 0.96-0.42 0.42-0.64 0.42-0.2 0-0.36-0.22l-0.18-0.28q1.48-1.52 3.1-2.32t3.7-0.8q1.54 0 2.68 0.5 1.14 0.48 1.88 1.4 0.76 0.92 1.12 2.24 0.36 1.3 0.36 2.94v12.96zm-8.16-0.46q1.28 0 2.34-0.28 1.06-0.3 1.96-0.8t1.68-1.16q0.78-0.68 1.5-1.44v-5.72q-6.04 0.2-8.94 1.5-2.88 1.3-2.88 3.64 0 1.1 0.36 1.9 0.38 0.8 0.98 1.34 0.62 0.52 1.4 0.78 0.78 0.24 1.6 0.24z"/>
 <path d="m681.83 804.55m17.66-18.96v18.96h-1.04v-18.16h-12.1v14.18q0 0.92 0.24 1.58 0.24 0.64 0.64 1.06t0.94 0.62q0.56 0.18 1.2 0.18 0.78 0 1.36-0.24 0.6-0.24 1.02-0.52t0.68-0.52 0.38-0.24q0.1 0 0.22 0.12l0.26 0.38q-0.34 0.42-0.8 0.76-0.44 0.34-0.98 0.6-0.54 0.24-1.12 0.38t-1.18 0.14q-1.84 0-2.88-1-1.04-1.02-1.04-3.26v-14.22h-3.08q-0.38 0-0.38-0.3v-0.36l3.46-0.14 0.3-7.6q0.02-0.12 0.1-0.22 0.08-0.12 0.22-0.12h0.44v7.94zm0.9-8.16q0 0.26-0.12 0.5t-0.32 0.44q-0.18 0.18-0.44 0.3-0.24 0.1-0.5 0.1-0.28 0-0.54-0.1-0.24-0.12-0.44-0.3-0.18-0.2-0.3-0.44-0.1-0.24-0.1-0.5 0-0.56 0.4-0.96 0.42-0.42 0.98-0.42 0.26 0 0.5 0.12 0.26 0.1 0.44 0.3 0.2 0.18 0.32 0.44 0.12 0.24 0.12 0.52z"/>
 <path d="m714.37 784.51q2.1 0 3.72 0.74 1.64 0.72 2.76 2.06 1.12 1.32 1.7 3.2t0.58 4.18-0.58 4.18q-0.58 1.86-1.7 3.18t-2.76 2.04q-1.62 0.7-3.72 0.7t-3.74-0.7q-1.62-0.72-2.74-2.04t-1.7-3.18q-0.58-1.88-0.58-4.18t0.58-4.18 1.7-3.2q1.12-1.34 2.74-2.06 1.64-0.74 3.74-0.74zm0 19.44q1.92 0 3.36-0.66t2.4-1.88q0.98-1.22 1.46-2.92t0.48-3.8-0.48-3.82-1.46-2.94q-0.96-1.24-2.4-1.9-1.44-0.68-3.36-0.68t-3.36 0.68q-1.44 0.66-2.42 1.9-0.96 1.22-1.44 2.94t-0.48 3.82 0.48 3.8 1.44 2.92q0.98 1.22 2.42 1.88t3.36 0.66z"/>
 <path d="m728.94 804.55v-19.72h0.5q0.38 0 0.4 0.4l0.12 3.42q1.38-1.9 3.28-3.02t4.18-1.12q1.64 0 2.86 0.52 1.24 0.5 2.04 1.46 0.82 0.94 1.22 2.32 0.42 1.38 0.42 3.12v12.62h-1.06v-12.62q0-1.54-0.34-2.76t-1.06-2.06q-0.7-0.86-1.76-1.3-1.06-0.46-2.5-0.46-2.16 0-4 1.14-1.84 1.12-3.24 3.12v14.94z"/>
 <path d="m761.29 786.85q-0.1 0.18-0.3 0.18-0.18 0-0.52-0.26-0.32-0.28-0.9-0.58-0.58-0.32-1.46-0.58-0.86-0.28-2.14-0.28-1.18 0-2.16 0.36-0.96 0.34-1.66 0.92t-1.08 1.36-0.38 1.62q0 1 0.48 1.68 0.5 0.68 1.3 1.16 0.8 0.46 1.82 0.8 1.02 0.32 2.08 0.66 1.06 0.32 2.08 0.7t1.82 0.94 1.28 1.38q0.5 0.82 0.5 2.02 0 1.24-0.44 2.32t-1.3 1.9q-0.84 0.8-2.08 1.26-1.22 0.46-2.8 0.46-1.06 0-1.92-0.18-0.86-0.16-1.6-0.46-0.74-0.32-1.38-0.76t-1.24-0.98l0.26-0.34q0.08-0.1 0.14-0.14 0.08-0.06 0.24-0.06 0.2 0 0.56 0.34 0.38 0.32 1 0.72 0.64 0.4 1.6 0.74 0.96 0.32 2.36 0.32 1.38 0 2.42-0.38 1.06-0.4 1.76-1.08 0.72-0.68 1.08-1.58 0.36-0.92 0.36-1.94 0-1.08-0.5-1.8-0.48-0.72-1.28-1.2-0.8-0.5-1.82-0.84t-2.08-0.66-2.08-0.68q-1.02-0.38-1.82-0.92-0.8-0.56-1.3-1.36-0.48-0.8-0.48-2 0-1 0.44-1.92 0.46-0.94 1.28-1.64 0.82-0.72 1.96-1.14 1.16-0.42 2.58-0.42 1.72 0 3.04 0.48t2.5 1.52z"/>
 <text x="345.6557" y="839.05487" fill="#000000" font-family="sans-serif" font-size="40px" letter-spacing="0px" word-spacing="0px" style="line-height:1.25" xml:space="preserve"><tspan class="deployment-date" x="345.6557" y="839.05487" font-family="Roboto" font-size="26.667px" font-weight="200"></tspan></text>
 <path d="m87.322 775.65c2.2152 0.0435 21.711-1.763 28.398 1.173 6.6869 2.9359 5.7092 3.2238 9.7702 6.4673-0.64745-1.9182-0.0847-0.29843-1.3661-2.1148 4.6678 2.1825 11.377 5.2862 12.864 13.21 3.9432 3.2417 5.2744 4.9981 7.7808 11.357l-1.5562 26.034-3.5288-18.134s-4.4-3.8592-5.3069-7.638c-3.7688 0.30949-13.947-3.9209-17.059-2.2591-3.1122 1.6618-4.7925 3.0186-9.2888 1.12s-5.4585-1.45-10.408 1.0028c-3.4509 0.95377-11.848 5.185-11.848 5.185l-4.7468 20.435-1.246-26.601-6.0865-6.4459s0.84272-2.1452 4.1539-4.3333c3.3112-2.1881 5.3859-2.6351 5.3859-2.6351-3.4637-1.842-3.8391-2.9263-7.2065-4.5757 5.4874-6.0883 11.273-6.9188 14.063-6.7606-1.9248-1.0212-2.0887-2.3833-2.7688-4.4864z" fill="#231f20" stroke-width=".73135"/>
 <path d="m102.27 824.7c3.8141 1.0797 3.8802 0.56288 4.9638 0.6853-0.0153 0.85057-0.0698 2.0295-1.5683 2.2544-1.4985 0.22491-19.25-2.5674-21.71-1.0984 2.9844-6.0876 14.5-2.921 18.314-1.8413z" fill="#3e3734" stroke-width=".73135"/>
 <path d="m122.18 823.7c-3.6095 1.6327-4.3973 1.2553-5.481 1.3574 0.0153 0.70937 0.45769 1.8355 1.9562 2.0231 1.4985 0.18758 12.993-6.7832 21.322-1.059-1.4922-2.5385-4.6001-5.8624-8.3288-5.7242-3.7288 0.13817-7.3673 2.4524-9.4682 3.4027z" fill="#3e3734" stroke-width=".73135"/>
 <path d="m130.84 825.58c-5.2406 0.0341-10.291 1.6316-15.435 2.2703-2.1469 0.26661-4.3595 0.33201-6.51 0.0841-2.8593-0.32971-5.6276-1.2052-8.485-1.5977-2.5537-0.35055-5.1392-0.71678-7.7088-0.73134-4.4906-0.026-8.8337 1.345-13.236 2.0853 0 1.2556-0.26169 2.8674 0.39652 3.7501 0.67893 0.91027 1.8242 1.7427 2.1212 2.9764 0.7044 2.9256 1.7046 5.7934 2.9834 8.5428 0.62148 1.3361 1.7943 2.2676 3.1042 2.9092 3.1541 1.5452 6.8871 1.7724 10.347 1.2865 4.9276-0.69197 7.601-4.2973 9.6405-8.4167 0.76341-1.6745 0.84851-3.6072 1.8539-5.1375 0.59709-0.9089 1.9838-0.52631 2.9746-0.52969 0.99113-4e-3 1.8312 1.604 2.1386 2.6739 1.0884 3.7863 2.9033 7.8033 6.5102 9.7871 5.3861 2.9627 13.872 2.4085 17.366-2.9344 1.3678-2.0912 1.7453-4.6282 2.4315-6.9956 0.41775-1.4413 0.79109-3.1597 2.2765-3.9519 0.59945-0.31989 0.17883-1.5958 0.26721-2.3376 0.0964-0.80801 0.28249-1.523-0.8967-1.6815-2.0567-0.27702-4.0517-1.1191-6.1567-1.4042-1.9947-0.27021-3.949-0.66069-5.9843-0.64758zm-34.646 1.3453c1.4877-9e-3 2.969 0.097 4.415 0.39523 8.6151 1.7769 8.7892 5.2382 5.2427 12.394-2.89 5.8307-8.8765 7.2917-14.909 5.8941-2.7809-0.64421-4.6822-2.537-5.5791-5.1289-0.9465-2.7358-1.6625-5.6423-1.5003-8.5178 0.21717-3.8503 4.6833-4.3914 7.8812-4.7422 1.4675-0.16093 2.9617-0.28508 4.4493-0.29431zm31.456 0c1.4877 8e-3 2.982 0.13338 4.4495 0.29431 3.1978 0.35078 7.6643 0.89191 7.8812 4.7422 0.16207 2.8755-0.55386 5.782-1.5005 8.5178-0.89669 2.5919-2.7982 4.4847-5.5789 5.1289-6.032 1.3976-12.019-0.0634-14.909-5.8941-3.5465-7.1558-3.3721-10.617 5.243-12.394 1.4459-0.2982 2.9271-0.40431 4.4147-0.39523z" fill="#3d3e40"/>
 <path d="m289.33 776.57c-1.9727 0-3.7238 0.30349-5.2559 0.91211-1.5111 0.60867-2.7925 1.4287-3.8418 2.457-1.0283 1.0073-1.8157 2.1719-2.3613 3.4941s-0.81836 2.7062-0.81836 4.1543c0 1.8469 0.32597 3.3907 0.97656 4.6289 0.6506 1.2173 1.4995 2.2445 2.5488 3.084 1.0703 0.81847 2.2882 1.5012 3.6524 2.0469 1.3641 0.52469 2.7501 1.0168 4.1562 1.4785 1.4271 0.44072 2.8214 0.91428 4.1856 1.418 1.3641 0.48273 2.5718 1.0916 3.6211 1.8262 1.0703 0.73454 1.9314 1.647 2.582 2.7383 0.65059 1.0913 0.97461 2.4754 0.97461 4.1543 0 1.574-0.2727 3.0543-0.81836 4.4394-0.54567 1.3851-1.3432 2.603-2.3926 3.6524-1.0283 1.0284-2.2975 1.8465-3.8086 2.4551-1.5111 0.58762-3.2211 0.88086-5.1309 0.88085-1.3431 1e-5 -2.5508-0.12511-3.6211-0.37695-1.0494-0.27283-1.9823-0.5988-2.8008-0.97656-0.7975-0.39874-1.4905-0.81904-2.0781-1.2598-0.5876-0.4617-1.092-0.88005-1.5117-1.2578-0.41977-0.39875-0.76623-0.72471-1.0391-0.97656-0.25184-0.27283-0.45074-0.4082-0.59765-0.4082-0.1469 0-0.26175 0.03081-0.3457 0.09375-0.06297 0.04197-0.14702 0.11577-0.25196 0.2207l-0.41015 0.6289c0.77653 0.90247 1.5844 1.7103 2.4238 2.4238 0.86047 0.71358 1.7953 1.3225 2.8027 1.8262 1.0283 0.48269 2.1397 0.84972 3.3359 1.1016 1.2173 0.27282 2.5724 0.41015 4.0625 0.41015 2.1827 0 4.1243-0.33621 5.8242-1.0078 1.7209-0.6926 3.1685-1.6275 4.3438-2.8027 1.1962-1.1963 2.0984-2.5906 2.707-4.1856 0.6296-1.616 0.94335-3.3382 0.94335-5.1641 1e-5 -1.7839-0.32401-3.2725-0.9746-4.4688-0.6506-1.2173-1.5117-2.2362-2.582-3.0547-1.0703-0.81846-2.2882-1.489-3.6523-2.0137-1.3431-0.54569-2.7272-1.05-4.1543-1.5117-1.4271-0.48271-2.8234-0.97678-4.1875-1.4805-1.3431-0.50367-2.5488-1.1229-3.6191-1.8574s-1.9314-1.6367-2.582-2.707c-0.6506-1.0913-0.97656-2.4446-0.97656-4.0606 0-1.2593 0.23164-2.4546 0.69336-3.5879 0.46167-1.1543 1.1444-2.1732 2.0469-3.0547 0.9024-0.88144 2.0137-1.5744 3.3359-2.0781 1.3431-0.52467 2.8748-0.78711 4.5957-0.78711 1.6999 0 3.127 0.21112 4.2812 0.63086 1.1543 0.39872 2.0995 0.84983 2.834 1.3535 0.73452 0.50367 1.3005 0.96504 1.6992 1.3848 0.41974 0.39875 0.74571 0.59765 0.97656 0.59766 0.23086 0 0.40924-0.10459 0.53516-0.31446l0.37695-0.6914c-1.4901-1.5111-3.0955-2.6244-4.8164-3.3379-1.6999-0.71353-3.6621-1.0703-5.8867-1.0703zm-92.672 0.50586v27.639c0 2.3925 0.37923 4.6396 1.1348 6.7383 0.75553 2.0777 1.836 3.8923 3.2422 5.4453 1.4061 1.5531 3.1161 2.7812 5.1309 3.6836 2.0148 0.88147 4.2824 1.3223 6.8008 1.3223 2.5185 0 4.7738-0.4408 6.7676-1.3223 2.0147-0.9024 3.7247-2.1305 5.1309-3.6836 1.4271-1.553 2.5179-3.3676 3.2734-5.4453 0.75553-2.0987 1.1348-4.3457 1.1348-6.7383v-27.639h-1.7637v27.639c0 2.1827-0.33621 4.2289-1.0078 6.1387-0.6506 1.8888-1.6041 3.5372-2.8633 4.9434-1.2382 1.4061-2.7596 2.5175-4.5645 3.3359-1.7839 0.79754-3.8198 1.1973-6.1074 1.1973s-4.3338-0.39973-6.1387-1.1973c-1.8049-0.81846-3.3384-1.9298-4.5976-3.3359-1.2382-1.4271-2.1917-3.0961-2.8633-5.0059-0.65059-1.9098-0.97656-3.956-0.97656-6.1387v-27.576h-1.7324zm56.207 0.00195v44.262h1.7305v-44.262h-1.7305zm-95.16 0.00196v44.262h23.674v-1.5117h-21.943v-42.75h-1.7305z"/>
 <path d="m292.53 827.76c-2.8236 0-5.0042 0.72248-6.543 2.166-1.5229 1.4277-2.2832 3.5287-2.2832 6.3047s0.76034 4.8865 2.2832 6.3301c1.5387 1.4277 3.7194 2.1406 6.543 2.1406s5.0062-0.72053 6.5449-2.1641 2.3066-3.5464 2.3066-6.3066-0.76791-4.8612-2.3066-6.3047-3.7213-2.166-6.5449-2.166zm-80.857 0.28711v10.66c0 0.74554-0.14221 1.2765-0.42774 1.5938-0.26967 0.31726-0.69065 0.47461-1.2617 0.47461-0.57106 0-0.99962-0.15735-1.2852-0.47461-0.26968-0.31727-0.4043-0.84822-0.4043-1.5938v-0.19141h-4.9258v0.21485c0 0.64345 0.06519 1.2269 0.17969 1.7637h-8.8281v-2.498h7.6133v-3.7598h-7.6133v-2.2598h8.8984v-3.9258h-14.156v16.369h14.324v-3.0742c0.28937 0.77479 0.72738 1.4124 1.3184 1.9062 1.1739 0.96767 2.8558 1.4512 5.0449 1.4512s3.8635-0.4835 5.0215-1.4512c1.1739-0.96766 1.7598-2.4752 1.7598-4.5215v-10.684h-5.2578zm-47.992 0.00195-5.9727 16.371h5.3789l0.68945-2.3086h5.7344l0.68945 2.3086h19.109v-4.1875h-8.4004v-12.182h-5.2578v16.049l-5.8555-16.051h-6.1152zm58.561 0-5.9726 16.371h5.377l0.69141-2.3086h5.7344l0.68946 2.3086h10.283v-7.9473l6.877 7.9473h4.5918v-16.371h-4.8301v8.0664l-6.877-8.0664h-4.5918v16.055l-5.8574-16.055h-6.1152zm29.738 0v16.371h7.0918c5.7265 0 8.5898-2.7287 8.5898-8.1855 0-5.4569-2.8633-8.1836-8.5898-8.1836l-7.0918-0.00195zm16.414 0v16.371h5.2578v-5.9726h1.9512l2.9024 5.9726h5.9023l-3.6406-6.8535c1.0311-0.38074 1.8161-0.97421 2.3555-1.7832 0.53935-0.809 0.8086-1.7135 0.8086-2.7129 0-0.90413-0.21427-1.7385-0.64258-2.5-0.41247-0.7773-1.0382-1.3879-1.8789-1.832-0.82486-0.46003-1.8242-0.68945-2.998-0.68945h-10.018zm24.137 3.6367c1.1263 0 1.9834 0.3413 2.5703 1.0234 0.60279 0.68214 0.9043 1.6018 0.9043 2.7598v1.5234c0 1.158-0.30151 2.0776-0.9043 2.7598-0.58693 0.68214-1.444 1.0234-2.5703 1.0234s-1.9814-0.3413-2.5684-1.0234c-0.58693-0.68213-0.88086-1.6018-0.88086-2.7598v-1.5234c0-1.158 0.29393-2.0776 0.88086-2.7598 0.58693-0.68213 1.4421-1.0234 2.5684-1.0234zm-18.879 0.09961h3.4512c0.41247 0 0.76134 0.1422 1.0469 0.42773 0.28554 0.28557 0.42773 0.64201 0.42773 1.0703 0 0.42834-0.14219 0.79431-0.42773 1.0957-0.28556 0.28553-0.63444 0.42773-1.0469 0.42773h-3.4512v-3.0215zm-16.412 0.1914h1.7363c2.2049 0 3.3066 1.1813 3.3066 3.5449v1.4277c0 2.3636-1.1017 3.5449-3.3066 3.5449h-1.7363v-8.5176zm-90.631 0.64063h0.0957l1.7129 5.8301h-3.5469l1.7383-5.8301zm58.561 0h0.09375l1.7129 5.8301h-3.5449l1.7383-5.8301z"/>
 <path d="m308.17 704.47c-2.247-6.9552 2.8749-44.486 6.6432-46.732 1.7543-0.91831 1.9096-0.79246 6.1314 4.9704 2.2107 3.0178 4.3525 5.2016 4.7596 4.8529 1.5867-1.3589 12.992-34.251 13.347-38.493 0.12985-1.5496 0.33693-1.4613-5.3368-2.2759-5.9614-0.85586-20.03-6.0398-24.049-8.8614-3.5464-2.4898-7.1936-7.9294-6.9851-10.418 0.16207-1.9341 7.0473-4.373 26.667-9.4463 9.0129-2.3305 20.788-2.9282 29.878-1.5167 5.7904 0.89916 7.8477 1.6189 10.835 3.7902 5.1949 3.7764 10.779 10.845 11.742 14.863 0.44906 1.8742 1.0402 3.425 1.3138 3.4462 5.0164-0.64048 8.1959-3.9744 12.308-5.6899 5.6323-2.303 12.346-8.3351 13.357-12.001 0.80775-2.9295 0.95001-3.0406 1.924-1.5034 1.6529 2.6089 0.97737 5.7004-1.9852 9.086-3.0432 3.4776-6.0036 5.4148-17.406 11.39-5.8914 3.0872-7.7052 4.4353-7.3848 5.4887 3.8172 18.006 7.7185 36.137-1.2656 52.595-5.2088 9.1972-12.633 13.847-22.82 14.292-11.517 0.5028-23.666-4.1132-30.637-11.641l-2.6244-2.8338-2.2893 4.9672c-3.8201 8.2887-10.598 19.426-12.952 21.282-1.9507 1.5381-2.3362 1.5856-3.1698 0.39073zm4.8446-9.1933c0.73178-1.2182 2.4467-4.4121 3.8108-7.0974 1.3642-2.6854 2.881-5.6125 3.3708-6.5046 0.48983-0.89218 1.4522-3.0253 2.1388-4.7402 1.142-2.8528 1.0937-3.2938-0.56711-5.1828-0.99839-1.1356-2.5305-3.2497-3.4047-4.6981-0.87421-1.4484-1.8814-2.3983-2.2382-2.1109-1.25 1.0069-6.0649 32.433-4.981 32.51 0.29677 0.0249 1.1389-0.95807 1.8707-2.1763zm53.725-8.8382c4.5618-1.4722 10.989-6.966 13.575-11.604 4.8462-13.205 4.0506-27.769 1.6735-41.807 0.0704-0.83995-0.33268-2.9545-0.89566-4.699-0.99652-3.0876-1.0873-3.1459-3.4217-2.1951-4.1004 1.6702-21.793 3.9573-26.282 3.3975-2.3493-0.29285-4.9237-0.53985-5.7208-0.5488-1.6107-0.018-1.4893-0.30799-8.2757 19.773-2.5302 7.4871-5.5827 15.945-6.7832 18.794l-2.1827 5.1815 1.6903 2.131c2.7199 3.429 11.113 9.2312 15.612 10.793 5.0805 1.7636 16.638 2.1944 21.011 0.78301zm1.4889-63.041c9.3498-1.593 10.751-2.3129 10.418-5.352-0.89719-8.1908-12.398-17.775-22.327-18.607-2.9424-0.24657-3.2402 0.20111-5.6138 8.4377-1.4364 4.4281-3.1382 10.321-3.815 15.638 0.66928 1.3177 13.326 1.2487 21.338-0.11644zm-25.167-7.0418c1.0454-3.5287 2.3801-7.7561 2.966-9.3943 2.5346-11.055-0.81202-7.2986-17.712-4.7665-9.7925 3.174-12.987 3.711-16.918 5.0632-1.5618 0.54096-2.8862 1.5392-2.9431 2.2182-0.17658 2.1073 7.8848 7.3815 14.477 9.472 7.6094 2.4128 9.3044 2.8133 14.294 3.3779l3.9347 0.4453zm200.57 91.465c0.0272-0.81429 0.61337-7.4462 1.3015-14.738 0.68867-7.2915 1.0127-13.277 0.72006-13.302-0.29253-0.0245-2.8038 2.0311-5.5806 4.5681-10.84 9.9039-22.55 7.8559-25.501-4.4598l-0.69625-2.9059-2.4525 3.0301c-3.3196 4.1013-11.55 10.802-14.916 12.143-4.7698 1.9004-8.2631 0.68649-10.021-3.4822l-0.97295-2.3076-3.1848 3.6442c-3.5311 4.0406-5.021 4.3708-7.4832 1.6589-2.9758-7.587-3.5582-17.803-3.4411-25.448 0.081-4.4959-0.0337-8.3884-0.25487-8.65-0.98858-1.1694-5.4717 3.8157-9.096 10.114-4.1238 7.1669-4.5865 8.0302-7.1806 13.397-2.0264 4.1923-8.0146 15.129-8.9941 16.426-0.41412 0.54855-1.4888 0.93572-2.3882 0.86036-2.5413-0.21295-1.7919-3.7173 3.4167-15.977 2.6316-6.1942 5.1206-13.542 5.7508-16.978 1.1032-6.0152 1.0967-6.0589-0.92821-6.2286-1.1216-0.094-4.9782 1.0463-8.5702 2.5341l-6.531 2.7048-1.1816 8.3142c-1.337 9.4075-3.9031 15.544-8.4464 20.198-7.1379 7.3127-16.878 3.8771-20.604-7.2677-1.3036-3.8989-1.3393-5.38-0.3001-12.439 2.7166-18.454 3.797-21.286 9.1705-24.039 2.2829-1.1697 3.8123-1.3331 6.845-0.73151 3.4695 0.6883 4.3969 1.3943 8.3124 6.328 3.5928 4.5271 4.6938 5.4265 5.9584 4.8675 6.0734-2.6846 11.734-4.36 15.124-4.4763 3.5949-0.1233 4.0868 0.0832 5.2316 2.1968 1.2523 2.3118 1.1338 3.6539-1.1252 12.741-0.48111 1.9354-0.19388 1.6748 1.284-1.165 5.3955-10.368 9.9639-15.499 14.438-16.215 2.121-0.33952 2.4748-0.0524 3.376 2.7403 0.55497 1.7195 0.79478 5.684 0.53437 8.8338-0.83937 10.143 0.74521 23.208 2.8346 23.383 0.62171 0.0521 1.1551-0.19998 1.1852-0.56021 9.1127-9.3476 12.034-14.698 15.381-20.833 4.509-6.8903 12.297-16.706 20.992-16.182 2.5545 0.21405 3.1184 0.62984 3.6485 2.6901 0.34486 1.3403 1.1596 3.067 1.8106 3.837 1.6798 1.987 2.0995 9.3772 0.52502 9.2453-0.6477-0.0543-1.9272 1.4996-2.8433 3.4529-1.5515 3.3083-1.5884 3.8635-0.53844 8.1026 1.4203 5.7336 3.3863 8.1026 7.042 8.4856 4.1808 0.43806 11.376-2.2847 13.336-5.0464 0.91351-1.2872 2.1766-2.7884 2.8068-3.3358 3.7586-3.2647 5.6079-7.2564 7.0216-15.156 1.51-8.4374 7.6441-65.735 7.0411-65.769-0.18816-0.0105-2.2612 0.39138-4.6066 0.89357-9.1691 1.7949-8.993 2.3502-15.966 2.5824-0.70185 0.0229-2.6928-0.13706-4.4243-0.35487-2.6857-0.33906-3.1243-0.68167-2.986-2.3325 0.14397-1.7181 0.76768-1.9873 5.5633-2.401 2.9706-0.25624 9.5155-1.3614 14.544-2.4559l9.1431-1.99 0.98693-4.6868c1.1579-7.496 2.8568-14.463 5.9926-19.432 2.4441-2.2296 4.2958-2.4493 5.765-0.68412 1.8288 2.1972 3.2307 8.7125 3.2354 15.036 4e-3 5.9205 0.1346 6.3627 1.8042 6.1257 11.005-1.5623 25.462-2.68 33.706-2.6059 5.0787 0.0457 6.1638 0.26834 5.7774 1.1857-0.71967 1.7087-5.8772 2.6177-30.83 5.4334-10.983 1.2394-11.139 1.3143-11.494 5.5305-0.16683 1.9807-1.312 8.8616-2.5448 15.291-1.2328 6.4293-2.2734 12.021-2.3123 12.427-0.0392 0.40542 1.9893-0.9517 4.5072-3.0159 5.6798-4.6564 8.0765-5.1855 12.121-2.6761 5.2553 3.2608 7.951 6.8192 8.1468 10.754 0.1662 3.3393-0.0551 3.726-3.8046 6.6538-4.7065 3.6748-8.6706 5.1153-13.064 4.7471-2.7155-0.22754-3.614-0.84103-5.9206-4.0424-1.4956-2.0758-2.6773-4.2746-2.626-4.8862 0.0512-0.61163-0.22032-1.1383-0.60351-1.1704-0.38319-0.0321-1.4366 3.0293-2.341 6.803-2.4451 10.203-7.9563 25.605-10.39 29.035-0.74582 1.0514-1.8615 8.4739-3.2476 21.605-1.7455 16.536-2.3421 20.124-3.4421 20.696-1.9512 1.0158-2.6026 0.79378-2.5468-0.86795zm-121.66-16.849c5.5477-2.7294 10.434-12.667 9.9411-20.216l-0.26255-4.0182-3.1842 1.536c-3.9577 1.909-10.39 2.1956-13.926 0.62052-3.6491-1.6253-4.1469-0.74826-4.5823 8.0734-0.2983 6.0436-0.071 7.6904 1.3622 9.8706 3.1747 4.8296 6.5641 6.145 10.652 4.1338zm75.565-4.4052c2.5668-1.3914 6.6288-4.8848 9.7329-8.3702l5.3275-5.982 0.72491-6.6609c0.39874-3.6634 0.72511-7.1347 0.72544-7.7139-9.148 6.1354-22.428 17.815-23.627 27.794-0.32825 3.9173 1.2325 4.1219 7.1158 0.93256zm-70.943-22.383c3.613-1.166 3.7431-2.2713 0.78941-6.703-2.82-4.2309-3.5825-4.8475-6.2968-5.0917-1.7685-0.15877-2.5573 0.60179-4.8457 4.6738-1.5034 2.6751-2.7661 5.254-2.8061 5.731-0.21417 2.5559 7.1396 3.3326 13.159 1.3899zm79.628-5.7342c1.2232-1.1807 1.9836-2.1669 1.69-2.1915-0.8153-0.0683-5.1922 4.1032-5.2692 5.0219-0.0427 0.50945 0.19556 0.53263 0.64375 0.0624 0.39136-0.41049 1.7123-1.7124 2.9355-2.8931zm49.973-8.4648c4.004-11.684 11.236-43.034 11.983-51.944l0.3311-3.9513-3.5109 0.17475c-1.931 0.0962-3.8353 0.46405-4.2316 0.8176-0.3964 0.35356-2.0095 13.706-3.5847 29.672-1.5752 15.966-3.2094 29.764-3.6317 30.662-0.42225 0.89784-0.4664 1.4044-0.0965 1.126 0.3683-0.27863 1.6027-3.2294 2.7432-6.5572zm25.528-14.63c7.1322-3.569 8.2137-5.7504 4.695-9.4694-2.9079-3.0734-7.3921-5.7007-8.1622-4.7824-0.34051 0.40602-1.7089 1.3098-3.0409 2.0083-1.332 0.69857-3.1144 2.3726-3.9608 3.7201-1.4417 2.2952-1.4428 2.6392-0.0176 5.4451 2.276 4.4808 5.6842 5.4812 10.487 3.0782zm-15.086-46.765c2.2224-0.3371 2.3862-0.63375 2.7505-4.9816 0.39791-4.7485-0.936-13.508-2.1994-14.443-1.1236-0.83163-5.0988 11.054-5.6109 16.777-0.27599 3.0726-0.0914 3.5869 1.1856 3.3211 0.83106-0.17295 2.5744-0.47576 3.8741-0.67292zm19.755 108.46c-2.0005-0.59367-5.1659-5.0239-5.8416-8.1758l-0.41334-1.9279-1.9919 1.614c-4.9055 3.9748-9.9958 3.9105-13.066-0.16526-2.3284-3.0904-2.471-6.3081-0.66933-15.099 2.7741-13.536 3.2425-14.95 5.0162-15.14 1.5556-0.16608 1.5667 0.21637 0.23508 8.0683-2.4112 14.217-2.3482 20.468 0.20819 20.675 2.3024 0.18447 7.8071-2.8922 10.336-5.7797 1.2702-1.4504 2.9339-4.5558 3.6971-6.9007 1.6903-5.1935 4.7194-10.302 6.1389-10.354 0.57548-0.0205 1.685-0.0232 2.4656-5e-3 0.78055 0.018 2.4191-1.2101 3.6413-2.7289 2.8002-3.4797 6.1001-5.0299 8.7175-4.0954 3.4538 1.2331 4.1637 2.2833 4.2796 6.3303 0.0619 2.1626 0.4482 3.9603 0.85833 3.9946 0.41012 0.0344 2.8232-0.87982 5.3623-2.0315 6.349-2.8798 13.853-3.616 18.165-1.7821 2.6033 1.1071 3.571 2.1655 4.7084 5.1498l1.4316 3.7564 7.4669-11.235c4.1068-6.1793 7.497-11.595 7.5339-12.035 0.0899-1.0726 2.198-1.6318 3.209-0.85121 0.47813 0.36916 0.44788 5.1179-0.0737 11.581-0.7103 8.7999-0.62285 12.103 0.44437 16.793 0.81246 3.5702 1.79 5.8766 2.5162 5.9375 3.6692 0.30747 12.206-6.9219 17.18-14.548 1.6345-2.5063 1.6725-2.8433 0.55414-4.9077-4.3001-7.9383 1.7972-21.384 8.9542-19.743 4.1776 0.95817 3.9108 7.2958-0.61717 14.659-3.8343 6.235-3.6647 6.8872 3.4969 13.443 7.4023 6.7763 8.8823 12.919 4.6815 19.433-2.7909 4.3276-5.0486 5.9145-9.2456 6.4983-3.5725 0.49702-5.8855-1.6634-2.3932-2.2352 2.9862-0.48898 9.5992-7.0797 9.8223-9.7894 0.27267-3.3171-2.1528-7.3991-7.17-12.064l-4.5152-4.1984-2.6011 3.7717c-1.4306 2.0744-5.0248 5.9751-7.9871 8.6682-4.1554 3.7777-6.3228 5.0891-9.4858 5.7393-4.0905 0.84098-4.102 0.83747-5.068-1.5305-1.8358-4.5003-2.9071-12.145-2.5089-17.904 0.21978-3.1761 0.1896-6.7467-0.0668-7.9347-0.43421-2.0125-0.52271-2.0518-1.296-0.5747-0.45643 0.872-2.4761 3.8454-4.4882 6.6078-2.0121 2.7623-3.6729 5.1971-3.6908 5.4106-0.0179 0.21352-2.3734 3.1727-5.2344 6.5759-2.861 3.4032-5.8477 7.2789-6.637 8.6126-2.4461 4.1332-4.8603 6.2665-6.303 5.5696-2.1023-1.0156-1.2904-3.9541 2.199-7.9581 3.187-3.6571 6.3393-9.6065 6.6024-12.461 0.0764-0.81017-0.57965-2.3196-1.4541-3.354-1.3541-1.6018-2.245-1.8554-6.0075-1.71-2.4297 0.0939-5.5636 0.61761-6.9642 1.1638-1.4007 0.54633-2.894 0.96417-3.3185 0.9286-0.42452-0.0355-2.4487 0.90084-4.4981 2.081-3.2589 1.8766-4.1035 3.0028-6.735 8.98-6.515 14.798-11.843 19.473-19.579 17.178zm8.2614-6.4018c3.21-1.8207 6.604-6.9035 8.4314-12.627 0.96426-3.0201 0.24809-3.404-3.2834-1.7598-2.5585 1.1911-7.1583 1.0342-9.2406-0.31518-1.2208-0.79118-1.8492-0.2724-4.1022 3.3857-2.3887 3.8787-2.5955 4.6782-2.0243 7.827 1.0328 5.6941 4.3408 6.8236 10.219 3.4895zm7.4939-19.602c3.1047-1.0223 3.2883-1.275 3.5963-4.9505 0.1785-2.1303 0.12193-4.1129-0.12582-4.4059-0.839-0.9925-8.6536 2.7519-10.765 5.1581-4.7124 5.3703-1.638 7.1398 7.2945 4.1984zm82.518-16.26c3.6237-8.3538 2.7254-10.741-1.8897-5.0228-1.7109 2.1198-2.1248 3.3727-1.886 5.7087 0.58816 5.755 1.0155 5.6774 3.7758-0.6859z" stroke-width=".84543"/>
</svg>
