<?xml version="1.0" encoding="UTF-8" standalone="no"?>
<svg
   xmlns:dc="http://purl.org/dc/elements/1.1/"
   xmlns:cc="http://creativecommons.org/ns#"
   xmlns:rdf="http://www.w3.org/1999/02/22-rdf-syntax-ns#"
   xmlns:svg="http://www.w3.org/2000/svg"
   xmlns="http://www.w3.org/2000/svg"
   xmlns:sodipodi="http://sodipodi.sourceforge.net/DTD/sodipodi-0.dtd"
   xmlns:inkscape="http://www.inkscape.org/namespaces/inkscape"
   enable-background="new 0 0 4253.661 1017.313"
   version="1.1"
   viewBox="0 0 1e3 1e3"
   id="svg16"
   sodipodi:docname="page-blog.svg"
   inkscape:version="0.92.4 (5da689c313, 2019-01-14)">
  <metadata
     id="metadata22">
    <rdf:RDF>
      <cc:Work
         rdf:about="">
        <dc:format>image/svg+xml</dc:format>
        <dc:type
           rdf:resource="http://purl.org/dc/dcmitype/StillImage" />
      </cc:Work>
    </rdf:RDF>
  </metadata>
  <defs
     id="defs20" />
  <sodipodi:namedview
     pagecolor="#ffffff"
     bordercolor="#666666"
     borderopacity="1"
     objecttolerance="10"
     gridtolerance="10"
     guidetolerance="10"
     inkscape:pageopacity="0"
     inkscape:pageshadow="2"
     inkscape:window-width="1920"
     inkscape:window-height="1004"
     id="namedview18"
     showgrid="false"
     inkscape:zoom="0.944"
     inkscape:cx="308.94876"
     inkscape:cy="362.38299"
     inkscape:window-x="0"
     inkscape:window-y="48"
     inkscape:window-maximized="1"
     inkscape:current-layer="svg16" />
  <path
     id="home-sheet"
     d="m961.6 290.13s-12.769-19.034-8.9673-28.901c3.8004-9.867 9.3799-7.406 9.3799-7.406l1.729-151.79-207.65 8.1907-294.29-0.14476-438.58-6.9649 5.7094 201.48 6.9203 25.903h-6.1856l5.156 181.93 0.68594 291.81-3.7165 89.65 773.58-7.5399 158.37 1.8251-3.3201-51.328-4.2198-72.488 5.3942-474.16z"
     fill="#fff"
     stroke="#808184"
     stroke-linejoin="round"
     stroke-miterlimit="10"
     stroke-width="2" />
  <path
     id="home-sheet-frame"
     d="m64.189 862.12 1.8941-70.08-5.9528-282.21v-375.02l464.72 0.81174 415.34-3.1117-7.1704 631.67 5.5469 96.732-157.21 2.9764z"
     fill="none"
     stroke="#808184"
     stroke-miterlimit="10"
     stroke-width="1.3529" />
  <path
     id="home-sheet-frame-line1"
     d="m66.228 755.84c293.58 2.0427 573.25 0.61289 866.84 0.61289"
     fill="none"
     stroke="#808184"
     stroke-miterlimit="10"
     stroke-width="1.3529" />
  <path
     id="home-sheet-frame-line2"
     d="m316.7 863.3-4.8162-107.33"
     fill="none"
     stroke="#808184"
     stroke-miterlimit="10"
     stroke-width="1.3529" />
  <text
     id="home-project-name"
     x="344.16904"
     y="804.54724"
     fill="#000000"
     font-family="sans-serif"
     font-size="40px"
     letter-spacing="0px"
     word-spacing="0px"
     style="line-height:1.25"
     xml:space="preserve"><tspan
       id="tspan10"
       x="344.16904"
       y="804.54724"
       font-family="Lato"
       font-weight="200">Project name: Home</tspan></text>
  <text
     id="home-deployment-date"
     x="345.6557"
     y="839.05487"
     fill="#000000"
     font-family="sans-serif"
     font-size="40px"
     letter-spacing="0px"
     word-spacing="0px"
     style="line-height:1.25"
     xml:space="preserve"><tspan
       id="tspan13"
       x="345.6557"
       y="839.05487"
       font-family="Lato"
       font-size="26.667px"
       font-weight="200">Deployment date: ##date##</tspan></text>
  <path
     id="home-logo-hair"
     d="m87.322 775.65c2.2152 0.0435 21.711-1.763 28.398 1.173 6.6869 2.9359 5.7092 3.2238 9.7702 6.4673-0.64745-1.9182-0.0847-0.29843-1.3661-2.1148 4.6678 2.1825 11.377 5.2862 12.864 13.21 3.9432 3.2417 5.2744 4.9981 7.7808 11.357l-1.5562 26.034-3.5288-18.134s-4.4-3.8592-5.3069-7.638c-3.7688 0.30949-13.947-3.9209-17.059-2.2591-3.1122 1.6618-4.7925 3.0186-9.2888 1.12s-5.4585-1.45-10.408 1.0028c-3.4509 0.95377-11.848 5.185-11.848 5.185l-4.7468 20.435-1.246-26.601-6.0865-6.4459s0.84272-2.1452 4.1539-4.3333c3.3112-2.1881 5.3859-2.6351 5.3859-2.6351-3.4637-1.842-3.8391-2.9263-7.2065-4.5757 5.4874-6.0883 11.273-6.9188 14.063-6.7606-1.9248-1.0212-2.0887-2.3833-2.7688-4.4864z"
     fill="#231f20"
     stroke-width=".73135" />
  <path
     id="home-logo-left-eyebrow"
     d="m102.27 824.7c3.8141 1.0797 3.8802 0.56288 4.9638 0.6853-0.0153 0.85057-0.0698 2.0295-1.5683 2.2544-1.4985 0.22491-19.25-2.5674-21.71-1.0984 2.9844-6.0876 14.5-2.921 18.314-1.8413z"
     fill="#3e3734"
     stroke-width=".73135" />
  <path
     id="home-logo-right-eyebrow"
     d="m122.18 823.7c-3.6095 1.6327-4.3973 1.2553-5.481 1.3574 0.0153 0.70937 0.45769 1.8355 1.9562 2.0231 1.4985 0.18758 12.993-6.7832 21.322-1.059-1.4922-2.5385-4.6001-5.8624-8.3288-5.7242-3.7288 0.13817-7.3673 2.4524-9.4682 3.4027z"
     fill="#3e3734"
     stroke-width=".73135" />
  <path
     id="home-logo-glasses"
     d="m130.84 825.58c-5.2406 0.0341-10.291 1.6316-15.435 2.2703-2.1469 0.26661-4.3595 0.33201-6.51 0.0841-2.8593-0.32971-5.6276-1.2052-8.485-1.5977-2.5537-0.35055-5.1392-0.71678-7.7088-0.73134-4.4906-0.026-8.8337 1.345-13.236 2.0853 0 1.2556-0.26169 2.8674 0.39652 3.7501 0.67893 0.91027 1.8242 1.7427 2.1212 2.9764 0.7044 2.9256 1.7046 5.7934 2.9834 8.5428 0.62148 1.3361 1.7943 2.2676 3.1042 2.9092 3.1541 1.5452 6.8871 1.7724 10.347 1.2865 4.9276-0.69197 7.601-4.2973 9.6405-8.4167 0.76341-1.6745 0.84851-3.6072 1.8539-5.1375 0.59709-0.9089 1.9838-0.52631 2.9746-0.52969 0.99113-4e-3 1.8312 1.604 2.1386 2.6739 1.0884 3.7863 2.9033 7.8033 6.5102 9.7871 5.3861 2.9627 13.872 2.4085 17.366-2.9344 1.3678-2.0912 1.7453-4.6282 2.4315-6.9956 0.41775-1.4413 0.79109-3.1597 2.2765-3.9519 0.59945-0.31989 0.17883-1.5958 0.26721-2.3376 0.0964-0.80801 0.28249-1.523-0.8967-1.6815-2.0567-0.27702-4.0517-1.1191-6.1567-1.4042-1.9947-0.27021-3.949-0.66069-5.9843-0.64758zm-34.646 1.3453c1.4877-9e-3 2.969 0.097 4.415 0.39523 8.6151 1.7769 8.7892 5.2382 5.2427 12.394-2.89 5.8307-8.8765 7.2917-14.909 5.8941-2.7809-0.64421-4.6822-2.537-5.5791-5.1289-0.9465-2.7358-1.6625-5.6423-1.5003-8.5178 0.21717-3.8503 4.6833-4.3914 7.8812-4.7422 1.4675-0.16093 2.9617-0.28508 4.4493-0.29431zm31.456 0c1.4877 8e-3 2.982 0.13338 4.4495 0.29431 3.1978 0.35078 7.6643 0.89191 7.8812 4.7422 0.16207 2.8755-0.55386 5.782-1.5005 8.5178-0.89669 2.5919-2.7982 4.4847-5.5789 5.1289-6.032 1.3976-12.019-0.0634-14.909-5.8941-3.5465-7.1558-3.3721-10.617 5.243-12.394 1.4459-0.2982 2.9271-0.40431 4.4147-0.39523z"
     fill="#3d3e40" />
  <path
     id="home-logo-luis"
     d="m289.33 776.57c-1.9727 0-3.7238 0.30349-5.2559 0.91211-1.5111 0.60867-2.7925 1.4287-3.8418 2.457-1.0283 1.0073-1.8157 2.1719-2.3613 3.4941s-0.81836 2.7062-0.81836 4.1543c0 1.8469 0.32597 3.3907 0.97656 4.6289 0.6506 1.2173 1.4995 2.2445 2.5488 3.084 1.0703 0.81847 2.2882 1.5012 3.6524 2.0469 1.3641 0.52469 2.7501 1.0168 4.1562 1.4785 1.4271 0.44072 2.8214 0.91428 4.1856 1.418 1.3641 0.48273 2.5718 1.0916 3.6211 1.8262 1.0703 0.73454 1.9314 1.647 2.582 2.7383 0.65059 1.0913 0.97461 2.4754 0.97461 4.1543 0 1.574-0.2727 3.0543-0.81836 4.4394-0.54567 1.3851-1.3432 2.603-2.3926 3.6524-1.0283 1.0284-2.2975 1.8465-3.8086 2.4551-1.5111 0.58762-3.2211 0.88086-5.1309 0.88085-1.3431 1e-5 -2.5508-0.12511-3.6211-0.37695-1.0494-0.27283-1.9823-0.5988-2.8008-0.97656-0.7975-0.39874-1.4905-0.81904-2.0781-1.2598-0.5876-0.4617-1.092-0.88005-1.5117-1.2578-0.41977-0.39875-0.76623-0.72471-1.0391-0.97656-0.25184-0.27283-0.45074-0.4082-0.59765-0.4082-0.1469 0-0.26175 0.03081-0.3457 0.09375-0.06297 0.04197-0.14702 0.11577-0.25196 0.2207l-0.41015 0.6289c0.77653 0.90247 1.5844 1.7103 2.4238 2.4238 0.86047 0.71358 1.7953 1.3225 2.8027 1.8262 1.0283 0.48269 2.1397 0.84972 3.3359 1.1016 1.2173 0.27282 2.5724 0.41015 4.0625 0.41015 2.1827 0 4.1243-0.33621 5.8242-1.0078 1.7209-0.6926 3.1685-1.6275 4.3438-2.8027 1.1962-1.1963 2.0984-2.5906 2.707-4.1856 0.6296-1.616 0.94335-3.3382 0.94335-5.1641 1e-5 -1.7839-0.32401-3.2725-0.9746-4.4688-0.6506-1.2173-1.5117-2.2362-2.582-3.0547-1.0703-0.81846-2.2882-1.489-3.6523-2.0137-1.3431-0.54569-2.7272-1.05-4.1543-1.5117-1.4271-0.48271-2.8234-0.97678-4.1875-1.4805-1.3431-0.50367-2.5488-1.1229-3.6191-1.8574s-1.9314-1.6367-2.582-2.707c-0.6506-1.0913-0.97656-2.4446-0.97656-4.0606 0-1.2593 0.23164-2.4546 0.69336-3.5879 0.46167-1.1543 1.1444-2.1732 2.0469-3.0547 0.9024-0.88144 2.0137-1.5744 3.3359-2.0781 1.3431-0.52467 2.8748-0.78711 4.5957-0.78711 1.6999 0 3.127 0.21112 4.2812 0.63086 1.1543 0.39872 2.0995 0.84983 2.834 1.3535 0.73452 0.50367 1.3005 0.96504 1.6992 1.3848 0.41974 0.39875 0.74571 0.59765 0.97656 0.59766 0.23086 0 0.40924-0.10459 0.53516-0.31446l0.37695-0.6914c-1.4901-1.5111-3.0955-2.6244-4.8164-3.3379-1.6999-0.71353-3.6621-1.0703-5.8867-1.0703zm-92.672 0.50586v27.639c0 2.3925 0.37923 4.6396 1.1348 6.7383 0.75553 2.0777 1.836 3.8923 3.2422 5.4453 1.4061 1.5531 3.1161 2.7812 5.1309 3.6836 2.0148 0.88147 4.2824 1.3223 6.8008 1.3223 2.5185 0 4.7738-0.4408 6.7676-1.3223 2.0147-0.9024 3.7247-2.1305 5.1309-3.6836 1.4271-1.553 2.5179-3.3676 3.2734-5.4453 0.75553-2.0987 1.1348-4.3457 1.1348-6.7383v-27.639h-1.7637v27.639c0 2.1827-0.33621 4.2289-1.0078 6.1387-0.6506 1.8888-1.6041 3.5372-2.8633 4.9434-1.2382 1.4061-2.7596 2.5175-4.5645 3.3359-1.7839 0.79754-3.8198 1.1973-6.1074 1.1973s-4.3338-0.39973-6.1387-1.1973c-1.8049-0.81846-3.3384-1.9298-4.5976-3.3359-1.2382-1.4271-2.1917-3.0961-2.8633-5.0059-0.65059-1.9098-0.97656-3.956-0.97656-6.1387v-27.576h-1.7324zm56.207 0.00195v44.262h1.7305v-44.262h-1.7305zm-95.16 0.00196v44.262h23.674v-1.5117h-21.943v-42.75h-1.7305z" />
  <path
     id="home-logo-alejandro"
     d="m292.53 827.76c-2.8236 0-5.0042 0.72248-6.543 2.166-1.5229 1.4277-2.2832 3.5287-2.2832 6.3047s0.76034 4.8865 2.2832 6.3301c1.5387 1.4277 3.7194 2.1406 6.543 2.1406s5.0062-0.72053 6.5449-2.1641 2.3066-3.5464 2.3066-6.3066-0.76791-4.8612-2.3066-6.3047-3.7213-2.166-6.5449-2.166zm-80.857 0.28711v10.66c0 0.74554-0.14221 1.2765-0.42774 1.5938-0.26967 0.31726-0.69065 0.47461-1.2617 0.47461-0.57106 0-0.99962-0.15735-1.2852-0.47461-0.26968-0.31727-0.4043-0.84822-0.4043-1.5938v-0.19141h-4.9258v0.21485c0 0.64345 0.06519 1.2269 0.17969 1.7637h-8.8281v-2.498h7.6133v-3.7598h-7.6133v-2.2598h8.8984v-3.9258h-14.156v16.369h14.324v-3.0742c0.28937 0.77479 0.72738 1.4124 1.3184 1.9062 1.1739 0.96767 2.8558 1.4512 5.0449 1.4512 2.1891 0 3.8635-0.4835 5.0215-1.4512 1.1739-0.96766 1.7598-2.4752 1.7598-4.5215v-10.684h-5.2578zm-47.992 0.00195-5.9727 16.371h5.3789l0.68945-2.3086h5.7344l0.68945 2.3086h5.4512 0.11719 13.541v-4.1875h-8.4004v-12.182h-5.2578v16.049l-5.8555-16.051h-6.1152zm58.561 0-5.9726 16.371h5.377l0.69141-2.3086h5.7344l0.68946 2.3086h5.5684 4.7148v-7.9473l6.877 7.9473h4.5918v-16.371h-4.8301v8.0664l-6.877-8.0664h-4.5918v16.055l-5.8574-16.055h-6.1152zm29.738 0v16.371h7.0918c5.7265 0 8.5898-2.7287 8.5898-8.1855 0-5.4569-2.8633-8.1836-8.5898-8.1836l-7.0918-0.00195zm16.414 0v16.371h5.2578v-5.9726h1.9512l2.9024 5.9726h5.9023l-3.6406-6.8535c1.0311-0.38074 1.8161-0.97421 2.3555-1.7832 0.53935-0.809 0.8086-1.7135 0.8086-2.7129 0-0.90413-0.21427-1.7385-0.64258-2.5-0.41247-0.7773-1.0382-1.3879-1.8789-1.832-0.82486-0.46003-1.8242-0.68945-2.998-0.68945h-10.018zm24.137 3.6367c1.1263 0 1.9834 0.3413 2.5703 1.0234 0.60279 0.68214 0.9043 1.6018 0.9043 2.7598v1.5234c0 1.158-0.30151 2.0776-0.9043 2.7598-0.58693 0.68214-1.444 1.0234-2.5703 1.0234-1.1263 0-1.9814-0.3413-2.5684-1.0234-0.58693-0.68213-0.88086-1.6018-0.88086-2.7598v-1.5234c0-1.158 0.29393-2.0776 0.88086-2.7598 0.58693-0.68213 1.4421-1.0234 2.5684-1.0234zm-18.879 0.09961h3.4512c0.41247 0 0.76134 0.1422 1.0469 0.42773 0.28554 0.28557 0.42773 0.64201 0.42773 1.0703 0 0.42834-0.14219 0.79431-0.42773 1.0957-0.28556 0.28553-0.63444 0.42773-1.0469 0.42773h-3.4512v-3.0215zm-16.412 0.1914h1.7363c2.2049 0 3.3066 1.1813 3.3066 3.5449v1.4277c0 2.3636-1.1017 3.5449-3.3066 3.5449h-1.7363v-8.5176zm-90.631 0.64063h0.0957l1.7129 5.8301h-3.5469l1.7383-5.8301zm58.561 0h0.09375l1.7129 5.8301h-3.5449l1.7383-5.8301z" />
  <path
     style="fill:#000000;stroke-width:0.88619769"
     d="m 576.37818,735.67942 c -1.34486,-1.12177 -2.41239,-2.34329 -2.37223,-2.7145 0.0399,-0.37123 -0.75551,-2.5744 -1.76816,-4.89602 -1.01263,-2.32161 -2.11276,-6.25839 -2.44474,-8.74841 -1.90578,-14.29432 6.11273,-37.38512 18.58617,-53.52234 1.34551,-1.74077 1.25774,-2.08519 -1.19156,-4.67591 -1.66927,-1.76564 -4.13927,-3.18544 -6.69979,-3.85115 -7.12677,-1.85296 -9.59158,-4.07174 -10.84137,-9.75937 -2.01477,-9.16899 -1.22487,-16.39598 2.84049,-25.98825 0.39678,-0.93621 -1.09534,0.0993 -3.31582,2.30109 -2.22047,2.20181 -5.84614,5.38547 -8.05708,7.07478 -2.2109,1.6893 -4.06604,3.48069 -4.12251,3.98087 -0.0565,0.50015 -1.3521,2.81288 -2.87913,5.1394 -5.71107,8.70112 -14.41163,8.54699 -15.16239,-0.26859 -0.25068,-2.94344 -1.66109,-4.14128 -1.94242,-1.6497 -0.30073,2.66337 -7.2249,9.86696 -10.60692,11.03498 -6.56313,2.26664 -9.57361,0.6836 -11.4398,-6.01556 -1.34295,-4.82081 2.24916,-34.38688 5.87869,-48.38685 5.84008,-22.52626 7.58112,-31.33108 7.19892,-36.40609 -0.17762,-2.35816 0.0377,-5.25015 0.47844,-6.42665 0.44075,-1.1765 1.0967,-3.10906 1.45761,-4.29457 0.8819,-2.89661 1.96756,-3.63439 4.00813,-2.72371 1.26391,0.5641 1.55861,1.36939 1.14022,3.11579 -0.3104,1.29531 -1.29465,6.68717 -2.18743,11.98194 -1.7307,10.26431 -3.85059,19.95078 -7.42834,33.94258 -1.21905,4.7674 -2.47277,9.84305 -2.7861,11.27918 -0.31321,1.43616 -1.00026,2.85741 -1.52653,3.15837 -0.58675,0.33554 -0.51159,0.60272 0.19429,0.69081 0.63311,0.0795 0.85244,0.52386 0.48727,0.98854 -1.08139,1.37623 -3.58796,27.09887 -3.0111,30.90036 0.62304,4.10584 1.4296,4.92888 4.43473,4.52539 2.58943,-0.34768 11.20368,-7.13107 10.89134,-8.57651 -0.11716,-0.54206 0.66197,-2.20327 1.73135,-3.69158 1.26326,-1.75818 2.1459,-4.49136 2.51982,-7.80303 0.87392,-7.7398 4.84822,-16.15715 6.15692,-13.03995 0.16207,0.38618 0.1648,0.0855 0.006,-0.6682 -0.67093,-3.18333 0.46079,-5.80873 3.40367,-7.89533 3.09429,-2.19401 6.50757,-2.28521 8.74264,-0.23361 1.95156,1.7914 4.57714,10.48479 4.36493,14.4524 -0.11731,2.19403 -0.24316,4.68809 -0.27958,5.54237 -0.10686,2.50637 1.03122,1.97894 6.09139,-2.82323 8.74475,-8.2989 18.94688,-13.29369 23.59639,-11.55242 2.49458,0.93426 3.89673,5.66123 4.57246,15.41509 0.6685,9.64954 0.31317,13.00774 -1.42404,13.45869 -2.35369,0.61097 -2.65271,-0.71687 -3.01905,-13.40623 -0.13927,-4.82302 -0.44319,-9.17156 -0.67543,-9.66343 -0.80274,-1.70011 -3.06089,-1.18025 -6.53066,1.50347 -1.91579,1.48179 -3.88967,2.56321 -4.38641,2.40317 -1.29968,-0.41876 -5.10475,8.7039 -6.26195,15.01308 -0.75626,4.12309 -0.66254,6.67257 0.40007,10.89092 l 1.38747,5.50764 7.00645,2.67198 c 3.92315,1.49616 7.79182,3.5966 8.79111,4.773 l 1.78468,2.101 4.20514,-6.42698 c 5.35249,-8.18055 12.8324,-16.41276 18.5195,-20.3821 4.73101,-3.30201 6.9212,-3.6419 8.44919,-1.31118 0.7841,1.19605 0.66275,1.41772 -0.70508,1.28782 -0.90875,-0.0859 -2.52156,0.43407 -3.58412,1.15632 -3.51029,2.3861 -10.1352,9.23957 -12.60419,13.0391 -1.33627,2.0564 -2.99521,4.27702 -3.68655,4.93471 -0.69133,0.65771 -2.80794,3.46183 -4.70354,6.23144 l -3.44655,5.03562 1.69434,4.57665 c 2.45633,6.63489 2.69975,16.03449 0.85514,33.02042 -2.0731,19.09113 -3.62111,25.76425 -7.35787,31.72097 -3.73103,5.94758 -8.56159,7.00945 -13.42651,2.95152 z m 8.03803,-2.44516 c 2.06614,-1.90693 4.23571,-6.53299 5.26318,-11.22246 0.47202,-2.15398 1.40148,-5.96945 2.06559,-8.47882 3.7253,-14.07585 3.54734,-46.18724 -0.24604,-44.39612 -2.26317,1.06863 -10.65596,15.34567 -14.26642,24.26877 -2.50948,6.20206 -4.12021,13.69357 -4.74838,22.08462 -0.49918,6.66958 -0.34029,8.5481 0.8169,9.65105 1.81518,1.73004 2.72928,1.88614 2.57871,0.44027 -0.0646,-0.62042 0.29551,0.17439 0.80035,1.76609 0.5048,1.59181 1.81527,3.51321 2.91213,4.2698 1.09685,0.7566 1.95714,1.70493 1.91169,2.10743 -0.13833,1.2251 1.31928,0.9795 2.9123,-0.49074 z m -34.59767,-94.1898 3.82179,-3.12141 -3.11881,0.5253 c -1.71537,0.28893 -4.25361,0.3972 -5.64053,0.2406 -1.93766,-0.21878 -2.43431,0.0519 -2.14444,1.16854 0.20748,0.79929 0.31379,2.01527 0.23623,2.70216 -0.26414,2.33935 3.01497,1.6136 6.84576,-1.51519 z m 2.39851,-7.28873 c 1.92144,-0.5595 3.53307,-1.72809 3.99079,-2.89375 1.36883,-3.48603 1.93184,-11.7645 1.05774,-15.55313 -0.46888,-2.0323 -0.59214,-3.90261 -0.2739,-4.15628 0.31823,-0.25368 0.0931,-0.51605 -0.50073,-0.5831 -0.59364,-0.067 -0.82262,-0.44856 -0.50884,-0.84786 0.7942,-1.01071 -2.93144,-2.32245 -4.21196,-1.48299 -0.57471,0.37675 -1.2908,1.97401 -1.59131,3.54944 -0.30051,1.57546 -1.9389,6.42835 -3.64085,10.78426 -4.18195,10.70304 -4.21125,11.36905 -0.51852,11.786 1.63599,0.18472 4.4249,-0.0865 6.19758,-0.60259 z m -34.29831,68.77603 c -0.24466,-0.51814 -0.0252,-0.89468 0.48775,-0.83676 0.51292,0.0579 0.88784,0.50157 0.83315,0.9859 -0.0547,0.48433 -0.27418,0.86087 -0.48778,0.83676 -0.21354,-0.0241 -0.58849,-0.46778 -0.83312,-0.9859 z m -91.87347,-39.35879 c -5.52545,-1.85336 -13.33615,-6.18657 -15.94589,-8.84646 -0.87976,-0.89669 -2.89939,-2.87533 -4.48804,-4.39696 -8.31106,-7.96049 -12.66901,-12.66123 -12.24188,-13.20478 0.26234,-0.33394 1.45817,-0.68232 2.65727,-0.77417 1.55807,-0.11933 2.01353,0.15409 1.59614,0.95806 -0.75702,1.45819 2.04227,2.92902 3.0745,1.61539 0.57135,-0.72713 1.4144,-0.31406 3.08373,1.51099 2.28426,2.49738 2.28516,2.50721 0.15729,1.71925 -2.07816,-0.76951 -2.07078,-0.72064 0.25509,1.69007 1.31735,1.36539 3.67521,3.58603 5.2397,4.93474 1.56448,1.3487 3.01327,2.73474 3.21954,3.08009 0.86887,1.45466 11.71999,8.39676 12.52833,8.01507 0.48567,-0.22931 0.83563,0.003 0.77771,0.51565 -0.0579,0.51292 0.46026,0.99644 1.15148,1.07449 0.86313,0.0974 1.24014,-0.62818 1.20365,-2.31662 -0.0293,-1.35221 -0.1786,-6.76618 -0.33198,-12.03106 -0.15339,-5.26489 0.0748,-16.8775 0.50704,-25.80578 0.5372,-11.09632 0.45723,-16.71593 -0.25273,-17.75851 -1.23443,-1.81285 -1.09369,-4.51243 0.22735,-4.36327 1.02158,0.11535 1.62427,-9.62134 1.69944,-27.45481 0.0238,-5.63814 0.58162,-13.88381 1.23967,-18.32378 1.57049,-10.59605 3.49805,-13.40452 6.7902,-9.89337 0.69117,0.7371 5.34209,2.47759 10.33544,3.86774 21.19502,5.90061 29.15121,12.35418 26.54136,21.52872 -1.15145,4.04776 -3.37147,7.88724 -5.87952,10.16853 -0.86252,0.78455 -1.71693,1.98959 -1.89869,2.67793 -0.42644,1.6145 -6.46664,7.70557 -7.52312,7.58628 -0.4436,-0.0501 -0.85217,0.31252 -0.90787,0.80579 -0.066,0.58425 3.2944,1.10621 9.64104,1.49755 5.35824,0.33049 9.70569,0.92477 9.66098,1.32076 -0.0447,0.39611 1.48,0.74733 3.38826,0.78044 4.45849,0.0774 9.2436,3.02299 11.06908,6.81381 2.96644,6.16029 -2.00935,21.28398 -12.30089,37.38789 -8.48507,13.27725 -24.05143,24.72421 -36.21484,26.63122 -7.43962,1.16639 -12.39426,0.889 -18.05897,-1.01104 z m 16.85534,-2.9298 c 3.32148,-0.76427 5.148,-0.81826 5.4582,-0.16129 0.25641,0.54307 0.98279,0.74347 1.61417,0.44535 0.88306,-0.41694 0.89196,-0.74787 0.0387,-1.43398 -0.88233,-0.70944 -0.81573,-0.86159 0.32531,-0.74362 0.78917,0.0811 1.99108,-0.38639 2.67101,-1.03997 0.67994,-0.65358 1.62005,-0.88674 2.08917,-0.51815 0.46909,0.36862 0.64371,0.22708 0.38799,-0.31437 -0.25568,-0.54151 0.70018,-1.55904 2.12415,-2.26118 3.64743,-1.79851 13.65749,-10.17766 15.56581,-13.02969 1.67446,-2.50258 3.1111,-3.21561 1.94218,-0.96394 -0.40384,0.77784 -0.2861,1.12198 0.29085,0.84959 0.53325,-0.25179 0.82035,-1.21373 0.63798,-2.13767 -0.1824,-0.92391 0.218,-1.94855 0.88968,-2.27699 0.67171,-0.32846 1.35059,-1.18455 1.50866,-1.90246 0.15795,-0.71793 2.34973,-5.28635 4.87039,-10.15205 4.90903,-9.47591 7.33139,-17.78871 6.31438,-21.66892 -1.04023,-3.96886 -5.2299,-5.85705 -15.54776,-7.00715 -5.01318,-0.55799 -11.64977,-0.71255 -14.74819,-0.34171 -5.61842,0.67247 -22.73173,6.1612 -23.91837,7.67133 -0.34394,0.43771 -0.82327,6.47219 -1.06547,13.40994 -0.24206,6.93774 -0.55123,15.41082 -0.68702,18.82903 -0.13569,3.41822 -0.0412,10.33404 0.21031,15.36856 0.39419,7.89204 0.70102,9.23129 2.22624,9.71706 0.97293,0.30996 1.77813,0.61913 1.78928,0.68719 0.0118,0.0682 2.26667,-0.39315 5.01223,-1.02492 z m 2.24003,-66.11962 c 8.93746,-3.83719 13.90702,-7.93869 22.01163,-18.16676 2.18555,-2.75816 2.57743,-3.62687 3.75828,-8.33068 1.03927,-4.13986 -0.75285,-6.83241 -6.90695,-10.37724 -4.35772,-2.51008 -6.13035,-3.20502 -15.50192,-6.07755 -2.84458,-0.87189 -6.04155,-1.88109 -7.10436,-2.24264 -1.57617,-0.5362 -1.97551,-0.27549 -2.16629,1.41412 -0.12864,1.13933 -0.49454,2.27936 -0.81328,2.53338 -0.67384,0.53708 -3.60963,27.58295 -3.79085,34.92362 -0.26367,10.67527 0.004,10.83611 10.51385,6.32376 z m 230.19583,41.52039 c -0.22774,-0.48233 0.0169,-1.08037 0.54337,-1.32903 0.52657,-0.24864 0.88766,0.16574 0.8024,0.92081 -0.17465,1.5468 -0.72878,1.71489 -1.34577,0.40822 z"
     id="path817-3"
     inkscape:connector-curvature="0"
     sodipodi:nodetypes="cccscscccscsccsccccccccccccccccccsccccccscsccscccccccccccccscscsccccccccsccccsscccccscscccccscscssccsssccccccccccssccsscsccssscccccsscscccscccccccscccccccccccccccccccccccssccsccccccsc" />
</svg>
