<svg enable-background="new 0 0 4253.661 1017.313" version="1.1" viewBox="0 0 1e3 1e3" xmlns="http://www.w3.org/2000/svg">
 <path d="m961.6 290.13s-12.769-19.034-8.9673-28.901c3.8004-9.867 9.3799-7.406 9.3799-7.406l1.729-151.79-207.65 8.1907-294.29-0.14476-438.58-6.9649 5.7094 201.48 6.9203 25.903h-6.1856l5.156 181.93 0.68594 291.81-3.7165 89.65 773.58-7.5399 158.37 1.8251-3.3201-51.328-4.2198-72.488 5.3942-474.16z" fill="#fff" stroke="#808184" stroke-linejoin="round" stroke-miterlimit="10" stroke-width="2"/>
 <path d="m64.189 862.12 1.8941-70.08-5.9528-282.21v-375.02l464.72 0.81174 415.34-3.1117-7.1704 631.67 5.5469 96.732-157.21 2.9764z" fill="none" stroke="#808184" stroke-miterlimit="10" stroke-width="1.3529"/>
 <path d="m66.228 755.84c293.58 2.0427 573.25 0.61289 866.84 0.61289" fill="none" stroke="#808184" stroke-miterlimit="10" stroke-width="1.3529"/>
 <path d="m316.7 863.3-4.8162-107.33" fill="none" stroke="#808184" stroke-miterlimit="10" stroke-width="1.3529"/>
 <path d="m349.73 792.79v11.76h-1.1v-28.12h6.72q4.76 0 7.22 2.04 2.48 2.04 2.48 6.12 0 1.78-0.7 3.3-0.68 1.5-1.96 2.6-1.28 1.08-3.08 1.7-1.78 0.6-3.96 0.6zm0-0.9h5.62q1.98 0 3.56-0.56 1.6-0.56 2.7-1.54 1.12-0.98 1.72-2.32t0.6-2.88q0-3.56-2.14-5.42t-6.44-1.86h-5.62z"/>
 <path d="m369.88 804.55v-19.72h0.48q0.4 0 0.42 0.44l0.12 4.86q0.86-2.68 2.4-4.14 1.56-1.48 4.08-1.48 0.58 0 1.18 0.1 0.62 0.08 1.1 0.36l-0.12 0.62q-0.08 0.22-0.28 0.22-0.22 0-0.68-0.14-0.44-0.16-1.32-0.16-1.26 0-2.22 0.4-0.96 0.38-1.72 1.16-0.76 0.76-1.34 1.9-0.56 1.14-1.04 2.66v12.92z"/>
 <path d="m390.07 784.51q2.1 0 3.72 0.74 1.64 0.72 2.76 2.06 1.12 1.32 1.7 3.2t0.58 4.18-0.58 4.18q-0.58 1.86-1.7 3.18t-2.76 2.04q-1.62 0.7-3.72 0.7t-3.74-0.7q-1.62-0.72-2.74-2.04t-1.7-3.18q-0.58-1.88-0.58-4.18t0.58-4.18 1.7-3.2q1.12-1.34 2.74-2.06 1.64-0.74 3.74-0.74zm0 19.44q1.92 0 3.36-0.66t2.4-1.88q0.98-1.22 1.46-2.92t0.48-3.8-0.48-3.82-1.46-2.94q-0.96-1.24-2.4-1.9-1.44-0.68-3.36-0.68t-3.36 0.68q-1.44 0.66-2.42 1.9-0.96 1.22-1.44 2.94t-0.48 3.82 0.48 3.8 1.44 2.92q0.98 1.22 2.42 1.88t3.36 0.66z"/>
 <path d="m405.92 784.83v22.8q0 0.94-0.28 1.74t-0.84 1.38q-0.54 0.58-1.34 0.9-0.78 0.34-1.8 0.34-0.56 0-0.96-0.12-0.42-0.1-0.82-0.3l0.1-0.5q0.06-0.16 0.16-0.18 0.1 0 0.28 0.06t0.46 0.14q0.26 0.08 0.66 0.08 1.66 0 2.5-0.96t0.84-2.58v-22.8zm0.84-7.12q0 0.28-0.12 0.52t-0.32 0.44q-0.18 0.18-0.44 0.3-0.24 0.1-0.5 0.1-0.56 0-0.98-0.4-0.4-0.42-0.4-0.96 0-0.56 0.4-0.96 0.42-0.42 0.98-0.42 0.26 0 0.5 0.12 0.26 0.1 0.44 0.3 0.2 0.18 0.32 0.44 0.12 0.24 0.12 0.52z"/>
 <path d="m420.74 784.51q1.6 0 2.98 0.56 1.4 0.56 2.44 1.66 1.04 1.08 1.62 2.68 0.6 1.6 0.6 3.66 0 0.42-0.36 0.42h-14.94q-0.02 0.2-0.02 0.4t0 0.4q0 2.36 0.56 4.16t1.58 3.02 2.46 1.86q1.46 0.62 3.24 0.62 1.58 0 2.74-0.34 1.16-0.36 1.94-0.78t1.2-0.76q0.44-0.36 0.56-0.36 0.16 0 0.26 0.12l0.26 0.3q-0.4 0.5-1.12 0.98t-1.66 0.86q-0.92 0.36-2.02 0.58-1.08 0.24-2.22 0.24-2.02 0-3.66-0.7-1.62-0.72-2.78-2.06-1.14-1.34-1.76-3.28-0.62-1.96-0.62-4.46 0-2.16 0.58-3.94 0.6-1.8 1.72-3.1t2.74-2.02 3.68-0.72zm0.02 0.8q-1.68 0-3.02 0.54-1.32 0.54-2.28 1.52t-1.56 2.36q-0.58 1.38-0.76 3.06h14.28q0-1.78-0.52-3.16-0.5-1.4-1.4-2.36-0.88-0.96-2.1-1.46t-2.64-0.5z"/>
 <path d="m446.96 786.99q-0.06 0.06-0.12 0.12-0.06 0.04-0.16 0.04-0.16 0-0.5-0.28t-0.94-0.62-1.52-0.62-2.22-0.28q-1.84 0-3.28 0.66-1.42 0.64-2.42 1.86-0.98 1.22-1.5 2.94t-0.52 3.88q0 2.22 0.52 3.96 0.54 1.72 1.5 2.9 0.98 1.18 2.34 1.8 1.38 0.62 3.06 0.62 1.52 0 2.54-0.34 1.04-0.36 1.72-0.78 0.68-0.44 1.04-0.78 0.36-0.36 0.52-0.36t0.26 0.12l0.24 0.3q-0.36 0.5-1 0.98-0.62 0.48-1.46 0.86-0.82 0.36-1.84 0.58-1 0.24-2.14 0.24-1.9 0-3.44-0.68t-2.64-1.98q-1.08-1.3-1.68-3.18t-0.6-4.26q0-2.28 0.58-4.16 0.6-1.88 1.72-3.2 1.12-1.34 2.74-2.08t3.7-0.74q1.84 0 3.28 0.6 1.44 0.58 2.48 1.54z"/>
 <path d="m457.73 804.87q-1.84 0-2.88-1-1.04-1.02-1.04-3.26v-14.22h-3.08q-0.38 0-0.38-0.3v-0.36l3.46-0.14 0.3-7.6q0.02-0.12 0.1-0.22 0.08-0.12 0.22-0.12h0.44v7.94h6.52v0.8h-6.52v14.18q0 0.92 0.24 1.58 0.24 0.64 0.64 1.06t0.94 0.62q0.56 0.18 1.2 0.18 0.78 0 1.36-0.24 0.6-0.24 1.02-0.52t0.68-0.52 0.38-0.24q0.1 0 0.22 0.12l0.26 0.38q-0.34 0.42-0.8 0.76-0.44 0.34-0.98 0.6-0.54 0.24-1.12 0.38t-1.18 0.14z"/>
 <path d="m477.22 804.55v-19.72h0.5q0.38 0 0.4 0.4l0.12 3.42q1.38-1.9 3.28-3.02t4.18-1.12q1.64 0 2.86 0.52 1.24 0.5 2.04 1.46 0.82 0.94 1.22 2.32 0.42 1.38 0.42 3.12v12.62h-1.06v-12.62q0-1.54-0.34-2.76t-1.06-2.06q-0.7-0.86-1.76-1.3-1.06-0.46-2.5-0.46-2.16 0-4 1.14-1.84 1.12-3.24 3.12v14.94z"/>
 <path d="m511 804.55q-0.4 0-0.46-0.42l-0.2-2.9q-0.82 0.84-1.66 1.52-0.82 0.66-1.74 1.14-0.9 0.46-1.96 0.72t-2.34 0.26q-0.94 0-1.86-0.28t-1.66-0.88-1.2-1.54q-0.44-0.96-0.44-2.3 0-1.3 0.74-2.36 0.76-1.06 2.34-1.82 1.58-0.78 4-1.22 2.42-0.46 5.76-0.54v-2.34q0-2.96-1.28-4.6t-3.8-1.64q-1.5 0-2.58 0.44-1.08 0.42-1.8 0.96-0.72 0.52-1.16 0.96-0.42 0.42-0.64 0.42-0.2 0-0.36-0.22l-0.18-0.28q1.48-1.52 3.1-2.32t3.7-0.8q1.54 0 2.68 0.5 1.14 0.48 1.88 1.4 0.76 0.92 1.12 2.24 0.36 1.3 0.36 2.94v12.96zm-8.16-0.46q1.28 0 2.34-0.28 1.06-0.3 1.96-0.8t1.68-1.16q0.78-0.68 1.5-1.44v-5.72q-6.04 0.2-8.94 1.5-2.88 1.3-2.88 3.64 0 1.1 0.36 1.9 0.38 0.8 0.98 1.34 0.62 0.52 1.4 0.78 0.78 0.24 1.6 0.24z"/>
 <path d="m518.16 804.55v-19.72h0.5q0.38 0 0.4 0.4l0.12 3.32q1.16-1.84 2.72-2.94 1.58-1.1 3.48-1.1 2.26 0 3.58 1.36t1.72 3.82q0.3-1.32 0.92-2.28 0.64-0.98 1.48-1.62 0.84-0.66 1.84-0.96 1-0.32 2.06-0.32 1.42 0 2.56 0.5 1.16 0.48 1.96 1.42t1.22 2.32q0.44 1.38 0.44 3.18v12.62h-1.06v-12.62q0-3.2-1.38-4.88-1.36-1.7-3.9-1.7-1.12 0-2.16 0.42-1.02 0.4-1.82 1.24-0.78 0.82-1.26 2.06-0.48 1.22-0.48 2.86v12.62h-1.06v-12.62q0-3.14-1.24-4.86t-3.64-1.72q-1.8 0-3.3 1.12t-2.64 3.08v15z"/>
 <path d="m557.45 784.51q1.6 0 2.98 0.56 1.4 0.56 2.44 1.66 1.04 1.08 1.62 2.68 0.6 1.6 0.6 3.66 0 0.42-0.36 0.42h-14.94q-0.02 0.2-0.02 0.4t0 0.4q0 2.36 0.56 4.16t1.58 3.02 2.46 1.86q1.46 0.62 3.24 0.62 1.58 0 2.74-0.34 1.16-0.36 1.94-0.78t1.2-0.76q0.44-0.36 0.56-0.36 0.16 0 0.26 0.12l0.26 0.3q-0.4 0.5-1.12 0.98t-1.66 0.86q-0.92 0.36-2.02 0.58-1.08 0.24-2.22 0.24-2.02 0-3.66-0.7-1.62-0.72-2.78-2.06-1.14-1.34-1.76-3.28-0.62-1.96-0.62-4.46 0-2.16 0.58-3.94 0.6-1.8 1.72-3.1t2.74-2.02 3.68-0.72zm0.02 0.8q-1.68 0-3.02 0.54-1.32 0.54-2.28 1.52t-1.56 2.36q-0.58 1.38-0.76 3.06h14.28q0-1.78-0.52-3.16-0.5-1.4-1.4-2.36-0.88-0.96-2.1-1.46t-2.64-0.5z"/>
 <path d="m570.34 804.55m0-1.18q0-0.64 0.42-1.08 0.44-0.46 1.08-0.46t1.08 0.46q0.46 0.44 0.46 1.08t-0.46 1.08q-0.44 0.42-1.08 0.42t-1.08-0.42q-0.42-0.44-0.42-1.08zm0-16.44q0-0.64 0.42-1.08 0.44-0.46 1.08-0.46t1.08 0.46q0.46 0.44 0.46 1.08t-0.46 1.08q-0.44 0.42-1.08 0.42t-1.08-0.42q-0.42-0.44-0.42-1.08z"/>
 <path d="m612.8 800.37q0.08 0 0.22 0.1l0.42 0.44q-0.88 0.88-1.9 1.62-1.02 0.72-2.24 1.24t-2.68 0.8q-1.44 0.3-3.18 0.3-2.86 0-5.28-1-2.4-1.02-4.14-2.88-1.74-1.88-2.72-4.54t-0.98-5.96q0-3.22 0.98-5.86 0.98-2.66 2.76-4.54 1.8-1.9 4.28-2.94 2.5-1.04 5.5-1.04 2.82 0 5 0.86t4.06 2.48l-0.3 0.44q-0.08 0.14-0.32 0.14-0.12 0-0.42-0.22-0.28-0.22-0.76-0.54-0.46-0.34-1.14-0.72-0.66-0.4-1.56-0.72-0.9-0.34-2.04-0.56t-2.52-0.22q-2.72 0-5 0.94t-3.92 2.68-2.56 4.24q-0.9 2.48-0.9 5.58 0 3.16 0.9 5.66 0.92 2.48 2.54 4.22 1.62 1.72 3.82 2.64t4.78 0.92q1.62 0 2.9-0.22t2.34-0.66q1.08-0.44 1.98-1.08 0.92-0.64 1.82-1.46 0.14-0.14 0.26-0.14z"/>
 <path d="m619.73 775.63v28.92h-1.04v-28.92z"/>
 <path d="m628.27 784.83v19.72h-1.04v-19.72zm0.86-7.12q0 0.28-0.12 0.52t-0.32 0.44q-0.18 0.18-0.44 0.3-0.24 0.1-0.5 0.1-0.56 0-0.98-0.4-0.4-0.42-0.4-0.96 0-0.56 0.4-0.96 0.42-0.42 0.98-0.42 0.26 0 0.5 0.12 0.26 0.1 0.44 0.3 0.2 0.18 0.32 0.44 0.12 0.24 0.12 0.52z"/>
 <path d="m643.08 784.51q1.6 0 2.98 0.56 1.4 0.56 2.44 1.66 1.04 1.08 1.62 2.68 0.6 1.6 0.6 3.66 0 0.42-0.36 0.42h-14.94q-0.02 0.2-0.02 0.4t0 0.4q0 2.36 0.56 4.16t1.58 3.02 2.46 1.86q1.46 0.62 3.24 0.62 1.58 0 2.74-0.34 1.16-0.36 1.94-0.78t1.2-0.76q0.44-0.36 0.56-0.36 0.16 0 0.26 0.12l0.26 0.3q-0.4 0.5-1.12 0.98t-1.66 0.86q-0.92 0.36-2.02 0.58-1.08 0.24-2.22 0.24-2.02 0-3.66-0.7-1.62-0.72-2.78-2.06-1.14-1.34-1.76-3.28-0.62-1.96-0.62-4.46 0-2.16 0.58-3.94 0.6-1.8 1.72-3.1t2.74-2.02 3.68-0.72zm0.02 0.8q-1.68 0-3.02 0.54-1.32 0.54-2.28 1.52t-1.56 2.36q-0.58 1.38-0.76 3.06h14.28q0-1.78-0.52-3.16-0.5-1.4-1.4-2.36-0.88-0.96-2.1-1.46t-2.64-0.5z"/>
 <path d="m656.28 804.55v-19.72h0.5q0.38 0 0.4 0.4l0.12 3.42q1.38-1.9 3.28-3.02t4.18-1.12q1.64 0 2.86 0.52 1.24 0.5 2.04 1.46 0.82 0.94 1.22 2.32 0.42 1.38 0.42 3.12v12.62h-1.06v-12.62q0-1.54-0.34-2.76t-1.06-2.06q-0.7-0.86-1.76-1.3-1.06-0.46-2.5-0.46-2.16 0-4 1.14-1.84 1.12-3.24 3.12v14.94z"/>
 <path d="m682.96 804.87q-1.84 0-2.88-1-1.04-1.02-1.04-3.26v-14.22h-3.08q-0.38 0-0.38-0.3v-0.36l3.46-0.14 0.3-7.6q0.02-0.12 0.1-0.22 0.08-0.12 0.22-0.12h0.44v7.94h6.52v0.8h-6.52v14.18q0 0.92 0.24 1.58 0.24 0.64 0.64 1.06t0.94 0.62q0.56 0.18 1.2 0.18 0.78 0 1.36-0.24 0.6-0.24 1.02-0.52t0.68-0.52 0.38-0.24q0.1 0 0.22 0.12l0.26 0.38q-0.34 0.42-0.8 0.76-0.44 0.34-0.98 0.6-0.54 0.24-1.12 0.38t-1.18 0.14z"/>
 <path d="m701.76 786.85q-0.1 0.18-0.3 0.18-0.18 0-0.52-0.26-0.32-0.28-0.9-0.58-0.58-0.32-1.46-0.58-0.86-0.28-2.14-0.28-1.18 0-2.16 0.36-0.96 0.34-1.66 0.92t-1.08 1.36-0.38 1.62q0 1 0.48 1.68 0.5 0.68 1.3 1.16 0.8 0.46 1.82 0.8 1.02 0.32 2.08 0.66 1.06 0.32 2.08 0.7t1.82 0.94 1.28 1.38q0.5 0.82 0.5 2.02 0 1.24-0.44 2.32t-1.3 1.9q-0.84 0.8-2.08 1.26-1.22 0.46-2.8 0.46-1.06 0-1.92-0.18-0.86-0.16-1.6-0.46-0.74-0.32-1.38-0.76t-1.24-0.98l0.26-0.34q0.08-0.1 0.14-0.14 0.08-0.06 0.24-0.06 0.2 0 0.56 0.34 0.38 0.32 1 0.72 0.64 0.4 1.6 0.74 0.96 0.32 2.36 0.32 1.38 0 2.42-0.38 1.06-0.4 1.76-1.08 0.72-0.68 1.08-1.58 0.36-0.92 0.36-1.94 0-1.08-0.5-1.8-0.48-0.72-1.28-1.2-0.8-0.5-1.82-0.84t-2.08-0.66-2.08-0.68q-1.02-0.38-1.82-0.92-0.8-0.56-1.3-1.36-0.48-0.8-0.48-2 0-1 0.44-1.92 0.46-0.94 1.28-1.64 0.82-0.72 1.96-1.14 1.16-0.42 2.58-0.42 1.72 0 3.04 0.48t2.5 1.52z"/>
 <text x="345.6557" y="839.05487" fill="#000000" font-family="sans-serif" font-size="40px" letter-spacing="0px" word-spacing="0px" style="line-height:1.25" xml:space="preserve"><tspan class="deployment-date" x="345.6557" y="839.05487" font-family="Roboto" font-size="26.667px" font-weight="200"></tspan></text>
 <path d="m87.322 775.65c2.2152 0.0435 21.711-1.763 28.398 1.173 6.6869 2.9359 5.7092 3.2238 9.7702 6.4673-0.64745-1.9182-0.0847-0.29843-1.3661-2.1148 4.6678 2.1825 11.377 5.2862 12.864 13.21 3.9432 3.2417 5.2744 4.9981 7.7808 11.357l-1.5562 26.034-3.5288-18.134s-4.4-3.8592-5.3069-7.638c-3.7688 0.30949-13.947-3.9209-17.059-2.2591-3.1122 1.6618-4.7925 3.0186-9.2888 1.12s-5.4585-1.45-10.408 1.0028c-3.4509 0.95377-11.848 5.185-11.848 5.185l-4.7468 20.435-1.246-26.601-6.0865-6.4459s0.84272-2.1452 4.1539-4.3333c3.3112-2.1881 5.3859-2.6351 5.3859-2.6351-3.4637-1.842-3.8391-2.9263-7.2065-4.5757 5.4874-6.0883 11.273-6.9188 14.063-6.7606-1.9248-1.0212-2.0887-2.3833-2.7688-4.4864z" fill="#231f20" stroke-width=".73135"/>
 <path d="m102.27 824.7c3.8141 1.0797 3.8802 0.56288 4.9638 0.6853-0.0153 0.85057-0.0698 2.0295-1.5683 2.2544-1.4985 0.22491-19.25-2.5674-21.71-1.0984 2.9844-6.0876 14.5-2.921 18.314-1.8413z" fill="#3e3734" stroke-width=".73135"/>
 <path d="m122.18 823.7c-3.6095 1.6327-4.3973 1.2553-5.481 1.3574 0.0153 0.70937 0.45769 1.8355 1.9562 2.0231 1.4985 0.18758 12.993-6.7832 21.322-1.059-1.4922-2.5385-4.6001-5.8624-8.3288-5.7242-3.7288 0.13817-7.3673 2.4524-9.4682 3.4027z" fill="#3e3734" stroke-width=".73135"/>
 <path d="m130.84 825.58c-5.2406 0.0341-10.291 1.6316-15.435 2.2703-2.1469 0.26661-4.3595 0.33201-6.51 0.0841-2.8593-0.32971-5.6276-1.2052-8.485-1.5977-2.5537-0.35055-5.1392-0.71678-7.7088-0.73134-4.4906-0.026-8.8337 1.345-13.236 2.0853 0 1.2556-0.26169 2.8674 0.39652 3.7501 0.67893 0.91027 1.8242 1.7427 2.1212 2.9764 0.7044 2.9256 1.7046 5.7934 2.9834 8.5428 0.62148 1.3361 1.7943 2.2676 3.1042 2.9092 3.1541 1.5452 6.8871 1.7724 10.347 1.2865 4.9276-0.69197 7.601-4.2973 9.6405-8.4167 0.76341-1.6745 0.84851-3.6072 1.8539-5.1375 0.59709-0.9089 1.9838-0.52631 2.9746-0.52969 0.99113-4e-3 1.8312 1.604 2.1386 2.6739 1.0884 3.7863 2.9033 7.8033 6.5102 9.7871 5.3861 2.9627 13.872 2.4085 17.366-2.9344 1.3678-2.0912 1.7453-4.6282 2.4315-6.9956 0.41775-1.4413 0.79109-3.1597 2.2765-3.9519 0.59945-0.31989 0.17883-1.5958 0.26721-2.3376 0.0964-0.80801 0.28249-1.523-0.8967-1.6815-2.0567-0.27702-4.0517-1.1191-6.1567-1.4042-1.9947-0.27021-3.949-0.66069-5.9843-0.64758zm-34.646 1.3453c1.4877-9e-3 2.969 0.097 4.415 0.39523 8.6151 1.7769 8.7892 5.2382 5.2427 12.394-2.89 5.8307-8.8765 7.2917-14.909 5.8941-2.7809-0.64421-4.6822-2.537-5.5791-5.1289-0.9465-2.7358-1.6625-5.6423-1.5003-8.5178 0.21717-3.8503 4.6833-4.3914 7.8812-4.7422 1.4675-0.16093 2.9617-0.28508 4.4493-0.29431zm31.456 0c1.4877 8e-3 2.982 0.13338 4.4495 0.29431 3.1978 0.35078 7.6643 0.89191 7.8812 4.7422 0.16207 2.8755-0.55386 5.782-1.5005 8.5178-0.89669 2.5919-2.7982 4.4847-5.5789 5.1289-6.032 1.3976-12.019-0.0634-14.909-5.8941-3.5465-7.1558-3.3721-10.617 5.243-12.394 1.4459-0.2982 2.9271-0.40431 4.4147-0.39523z" fill="#3d3e40"/>
 <path d="m289.33 776.57c-1.9727 0-3.7238 0.30349-5.2559 0.91211-1.5111 0.60867-2.7925 1.4287-3.8418 2.457-1.0283 1.0073-1.8157 2.1719-2.3613 3.4941s-0.81836 2.7062-0.81836 4.1543c0 1.8469 0.32597 3.3907 0.97656 4.6289 0.6506 1.2173 1.4995 2.2445 2.5488 3.084 1.0703 0.81847 2.2882 1.5012 3.6524 2.0469 1.3641 0.52469 2.7501 1.0168 4.1562 1.4785 1.4271 0.44072 2.8214 0.91428 4.1856 1.418 1.3641 0.48273 2.5718 1.0916 3.6211 1.8262 1.0703 0.73454 1.9314 1.647 2.582 2.7383 0.65059 1.0913 0.97461 2.4754 0.97461 4.1543 0 1.574-0.2727 3.0543-0.81836 4.4394-0.54567 1.3851-1.3432 2.603-2.3926 3.6524-1.0283 1.0284-2.2975 1.8465-3.8086 2.4551-1.5111 0.58762-3.2211 0.88086-5.1309 0.88085-1.3431 1e-5 -2.5508-0.12511-3.6211-0.37695-1.0494-0.27283-1.9823-0.5988-2.8008-0.97656-0.7975-0.39874-1.4905-0.81904-2.0781-1.2598-0.5876-0.4617-1.092-0.88005-1.5117-1.2578-0.41977-0.39875-0.76623-0.72471-1.0391-0.97656-0.25184-0.27283-0.45074-0.4082-0.59765-0.4082-0.1469 0-0.26175 0.03081-0.3457 0.09375-0.06297 0.04197-0.14702 0.11577-0.25196 0.2207l-0.41015 0.6289c0.77653 0.90247 1.5844 1.7103 2.4238 2.4238 0.86047 0.71358 1.7953 1.3225 2.8027 1.8262 1.0283 0.48269 2.1397 0.84972 3.3359 1.1016 1.2173 0.27282 2.5724 0.41015 4.0625 0.41015 2.1827 0 4.1243-0.33621 5.8242-1.0078 1.7209-0.6926 3.1685-1.6275 4.3438-2.8027 1.1962-1.1963 2.0984-2.5906 2.707-4.1856 0.6296-1.616 0.94335-3.3382 0.94335-5.1641 1e-5 -1.7839-0.32401-3.2725-0.9746-4.4688-0.6506-1.2173-1.5117-2.2362-2.582-3.0547-1.0703-0.81846-2.2882-1.489-3.6523-2.0137-1.3431-0.54569-2.7272-1.05-4.1543-1.5117-1.4271-0.48271-2.8234-0.97678-4.1875-1.4805-1.3431-0.50367-2.5488-1.1229-3.6191-1.8574s-1.9314-1.6367-2.582-2.707c-0.6506-1.0913-0.97656-2.4446-0.97656-4.0606 0-1.2593 0.23164-2.4546 0.69336-3.5879 0.46167-1.1543 1.1444-2.1732 2.0469-3.0547 0.9024-0.88144 2.0137-1.5744 3.3359-2.0781 1.3431-0.52467 2.8748-0.78711 4.5957-0.78711 1.6999 0 3.127 0.21112 4.2812 0.63086 1.1543 0.39872 2.0995 0.84983 2.834 1.3535 0.73452 0.50367 1.3005 0.96504 1.6992 1.3848 0.41974 0.39875 0.74571 0.59765 0.97656 0.59766 0.23086 0 0.40924-0.10459 0.53516-0.31446l0.37695-0.6914c-1.4901-1.5111-3.0955-2.6244-4.8164-3.3379-1.6999-0.71353-3.6621-1.0703-5.8867-1.0703zm-92.672 0.50586v27.639c0 2.3925 0.37923 4.6396 1.1348 6.7383 0.75553 2.0777 1.836 3.8923 3.2422 5.4453 1.4061 1.5531 3.1161 2.7812 5.1309 3.6836 2.0148 0.88147 4.2824 1.3223 6.8008 1.3223 2.5185 0 4.7738-0.4408 6.7676-1.3223 2.0147-0.9024 3.7247-2.1305 5.1309-3.6836 1.4271-1.553 2.5179-3.3676 3.2734-5.4453 0.75553-2.0987 1.1348-4.3457 1.1348-6.7383v-27.639h-1.7637v27.639c0 2.1827-0.33621 4.2289-1.0078 6.1387-0.6506 1.8888-1.6041 3.5372-2.8633 4.9434-1.2382 1.4061-2.7596 2.5175-4.5645 3.3359-1.7839 0.79754-3.8198 1.1973-6.1074 1.1973s-4.3338-0.39973-6.1387-1.1973c-1.8049-0.81846-3.3384-1.9298-4.5976-3.3359-1.2382-1.4271-2.1917-3.0961-2.8633-5.0059-0.65059-1.9098-0.97656-3.956-0.97656-6.1387v-27.576h-1.7324zm56.207 0.00195v44.262h1.7305v-44.262h-1.7305zm-95.16 0.00196v44.262h23.674v-1.5117h-21.943v-42.75h-1.7305z"/>
 <path d="m292.53 827.76c-2.8236 0-5.0042 0.72248-6.543 2.166-1.5229 1.4277-2.2832 3.5287-2.2832 6.3047s0.76034 4.8865 2.2832 6.3301c1.5387 1.4277 3.7194 2.1406 6.543 2.1406s5.0062-0.72053 6.5449-2.1641 2.3066-3.5464 2.3066-6.3066-0.76791-4.8612-2.3066-6.3047-3.7213-2.166-6.5449-2.166zm-80.857 0.28711v10.66c0 0.74554-0.14221 1.2765-0.42774 1.5938-0.26967 0.31726-0.69065 0.47461-1.2617 0.47461-0.57106 0-0.99962-0.15735-1.2852-0.47461-0.26968-0.31727-0.4043-0.84822-0.4043-1.5938v-0.19141h-4.9258v0.21485c0 0.64345 0.06519 1.2269 0.17969 1.7637h-8.8281v-2.498h7.6133v-3.7598h-7.6133v-2.2598h8.8984v-3.9258h-14.156v16.369h14.324v-3.0742c0.28937 0.77479 0.72738 1.4124 1.3184 1.9062 1.1739 0.96767 2.8558 1.4512 5.0449 1.4512s3.8635-0.4835 5.0215-1.4512c1.1739-0.96766 1.7598-2.4752 1.7598-4.5215v-10.684h-5.2578zm-47.992 0.00195-5.9727 16.371h5.3789l0.68945-2.3086h5.7344l0.68945 2.3086h19.109v-4.1875h-8.4004v-12.182h-5.2578v16.049l-5.8555-16.051h-6.1152zm58.561 0-5.9726 16.371h5.377l0.69141-2.3086h5.7344l0.68946 2.3086h10.283v-7.9473l6.877 7.9473h4.5918v-16.371h-4.8301v8.0664l-6.877-8.0664h-4.5918v16.055l-5.8574-16.055h-6.1152zm29.738 0v16.371h7.0918c5.7265 0 8.5898-2.7287 8.5898-8.1855 0-5.4569-2.8633-8.1836-8.5898-8.1836l-7.0918-0.00195zm16.414 0v16.371h5.2578v-5.9726h1.9512l2.9024 5.9726h5.9023l-3.6406-6.8535c1.0311-0.38074 1.8161-0.97421 2.3555-1.7832 0.53935-0.809 0.8086-1.7135 0.8086-2.7129 0-0.90413-0.21427-1.7385-0.64258-2.5-0.41247-0.7773-1.0382-1.3879-1.8789-1.832-0.82486-0.46003-1.8242-0.68945-2.998-0.68945h-10.018zm24.137 3.6367c1.1263 0 1.9834 0.3413 2.5703 1.0234 0.60279 0.68214 0.9043 1.6018 0.9043 2.7598v1.5234c0 1.158-0.30151 2.0776-0.9043 2.7598-0.58693 0.68214-1.444 1.0234-2.5703 1.0234s-1.9814-0.3413-2.5684-1.0234c-0.58693-0.68213-0.88086-1.6018-0.88086-2.7598v-1.5234c0-1.158 0.29393-2.0776 0.88086-2.7598 0.58693-0.68213 1.4421-1.0234 2.5684-1.0234zm-18.879 0.09961h3.4512c0.41247 0 0.76134 0.1422 1.0469 0.42773 0.28554 0.28557 0.42773 0.64201 0.42773 1.0703 0 0.42834-0.14219 0.79431-0.42773 1.0957-0.28556 0.28553-0.63444 0.42773-1.0469 0.42773h-3.4512v-3.0215zm-16.412 0.1914h1.7363c2.2049 0 3.3066 1.1813 3.3066 3.5449v1.4277c0 2.3636-1.1017 3.5449-3.3066 3.5449h-1.7363v-8.5176zm-90.631 0.64063h0.0957l1.7129 5.8301h-3.5469l1.7383-5.8301zm58.561 0h0.09375l1.7129 5.8301h-3.5449l1.7383-5.8301z"/>
 <path d="m616.68 544.2c-5.3697-1.2069-7.6636 4.7705-8.3288 7.6696-3.3488 8.5857-3.9938 16.099-6.1732 24.584-0.87569 3.399-2.9564 17.151-3.5917 22.788-5.1074 1.1927-8.9132 2.6675-16.652 3.2324-5.1514 0.37606-6.385 0.33014-6.5294 2.3876-0.12607 1.7955 1.6379 2.1981 7.1113 2.1641 6.9037-0.16544 7.5665-0.35679 14.602-0.74024l-0.51562 4.0957c-0.54583 4.3288-4.2936 28.96-6.8164 44.797-1.8098 11.361-5.5397 19.843-12.043 27.387-4.4824 5.1998-7.4225 6.9693-9.9316 5.9746-2.3079-0.91494-4.0532-13.621-3.5684-25.975 0.4159-10.596-0.94617-18.921-3.2715-20.006-1.8406-0.85866-5.2924 2.7756-8.082 8.5078-1.4664 3.0133-2.7832 5.8545-2.9258 6.3145-1.0083 2.5724-2.3137 4.8019-3.2148 7.5117-2.2157 5.4607-1.7436 5.781-2.3125-2.3633-0.26034-5.7247-1.883-7.7674-5.0469-6.3496-6.0067 4.5043-12.61 12.748-16.1 18.6-4.3275 7.3305-14.718 15.177-17.977 13.127-1.7868-1.1239-1.6949-4.5486 0.15821-5.8789 4.0013-4.0353 6.3301-8.4077 8.959-12.736 3.298-6.7569 7.2157-16.547 6.5156-23.133-0.46177-4.0779-0.47329-4.0924-3.8867-4.332-3.9492-0.27729-5.6187 2.0678-8.2402 6.1035-1.5383 3.1412-2.0674 3.8078-4.5352 9.4863-2.8365 5.1855-5.4037 15.058-5.7969 20.658-0.28718 4.0899-0.41412 4.2944-2.6484 4.2558-13.227-0.2287-17.416-4.3158-14.105-13.766 4.4586-12.729 5.701-16.962 5.334-18.164-1.016-3.3279-4.38-0.33265-5.7812 5.1484-0.64921 2.5393-2.2455 7.426-3.5469 10.859-2.084 5.4983-2.9896 6.7568-7.5957 10.547-4.3894 3.576-10.325 6.0944-16.592 8.4844-2.7187 1.0369-3.6509 0.75143-4.7129-0.92969-0.66306-1.0496-0.95699-3.7711-0.74023-6.8867 0.30853-4.4457 1.0098-6.2781 5.1133-13.363 6.532-11.278 9.4128-16.684 10.975-20.592 0.73082-1.8286 2.1269-5.1912 3.1016-7.4727 2.4832-5.8125 6.1883-19.438 7.8672-28.928 2.3501-13.284 2.1733-31.797-0.36133-37.824-1.2728-3.0267-4.2275-5.1876-6.4473-3.4453-6.9472 5.5008-12.378 15.912-15.322 24.512-2.925 10.163-6.3742 36.207-8.6641 65.414l-1.332 16.975c-2.6584 5.9894-3.2134 6.4946-8.9629 16.1-0.14058 4.7841-1.5131 6.7032 6.0039-2.6934 1.7017-1.4684 2.3299-1.9236 3.3867-0.38867 1.8405 2.3918 2.8258 5.6285 5.627 6.6797 2.7427 1.0293 23.087-12.242 24.539-13.312 2.4003-1.7695 2.7266-1.8914 3.3379 0.11914 1.9545 5.9271 12.816 9.2408 19.178 7.9453 1.179-0.52834 2.1774 0.0759 4.4394 2.6797 7.0452 8.1093 16.436 2.6244 27.691-16.174 2.6701-3.8264 5.27-6.9978 7.959-9.9805 3.391-3.7722 4.3025-3.2096 4.2266 2.6094-0.0668 5.1186-0.30508 6.2836-3.2774 16.033-0.75917 4.6074-2.9686 9.1054 0.79493 10.205 5.1275-9.7526 9.4411-20.258 13.17-29.561 0.9705-2.4391 3.2163-7.0374 4.9902-10.219 3.958-7.0983 4.2944-6.4534 4.0137 7.6777-0.58205 9.6669 0.37614 21.077 1.7188 29.314 0.74784 2.203 1.861 2.9935 5.7969 3.4199 3.3801 0.36616 4.3041 0.0509 7.5859-2.584 3.7602-3.0464 5.7254-6.4719 7.8613-9.3828l3.0684-5.0527 0.37305 3.7461c1.0497 7.9374 10.233 10.481 19.109 5.6895 6.509-5.0006 12.381-9.6569 16.459-16.029 0.9846-1.4997 2.1115-0.35752 4.7031 2.0273 1.3614 1.2528 3.5522 3.0883 5.7676 5.3047 5.3611 4.6591 10.605 8.9411 10.473 10.828-0.12417 1.7684-2.3792 2.7511-6.7012 2.9219-6.7917 0.26834-13.231 1.3783-12.797 2.2051 5.0473 1.1401 12.04 3.4112 17.627 1.9824 2.5728-0.7768 6.8-3.3259 6.9102-5.8809 0.15306-3.5504-3.0543-7.3032-4.2715-8.627-0.50794-0.55242-3.1504-3.1928-6.2774-5.623-3.127-2.4303-6.8407-5.7917-8.2539-7.4707l-2.5703-3.0527 3.7305-6.084c4.8258-7.871 7.0755-13.35 7.4043-18.033-0.14721-3.3763-2.4783-6.3212-5.0449-6.0508-3.7677 0.90395-4.4136 3.5351-6.3828 6.6172-2.1883 3.4642-3.131 7.6036-4.4004 16.51-0.31398 9.0308-2.923 12.512-8.1719 17.746-4.6797 3.4512-15.888 12.859-21.947 4.873-1.5564-2.7495 0.51171-9.4062 0.51171-9.4062 2.7858-9.4802 5.7787-17.848 8.75-27.148 3.639-11.419 6.5755-20.799 9.4121-30.512 1.2054-4.1273 2.2336-7.5204 2.7631-9.7115 4.5533-1.3782 11.067-2.8827 27.379-5.9409 3.3555-0.65287 21.069-3.6735 21.932-5.9473 0.0986-1.4044-2.2681-1.4786-11.51-0.35742-14.527 1.7623-21.411 3.2676-27.586 4.4609-3.6164 0.69891-6.0862 0.98348-8.8809 1.4387 1.142-6.978 2.2319-15.176 3.0169-20.27 0.71286-6.4205 1.5796-13.228 1.9909-18.69 0.0591-4.1842 1.8077-13.015-3.0137-13.65zm0.66496 4.3546c0.65259 1.7011 0.77821 2.878-0.0907 10.903-1.308 12.08-1.3053 14.245-4.6822 33.774-0.37408 4.1587-0.58464 4.2626-3.851 4.5521-6.4579 1.3345-5.8216 1.2893-4.6113-5.5991 5.0822-26.686 6.7122-39.325 9.877-44.523 1.1078-1.8197 3.0007-0.0384 3.3583 0.89374zm-146.88 19.952c2.3573 6.1463 3.0242 20.896 2.1797 26.785-1.9732 13.76-5.3422 31.409-10.182 41.848-3.695 8.0454-6.1939 14.176-11.346 22.488-3.9239 6.0977-2.827 3.154-1.8301-9.9551 1.9405-25.518 6.0834-54.014 9.0078-61.951 0.36088-1.0069 0.72527-1.989 1.041-2.8691 2.4713-6.9363 6.1405-11.227 8.4824-14.053 1.0826-1.3062 2.317-2.3052 2.6465-2.293zm-68.396 2.0195c-0.66687 4e-3 -1.4402 0.0171-2.3359 0.0117-4.0336-0.0242-7.6789 0.53997-10.316 1.5957-6.3115 2.5263-18.912 12.62-21.73 17.371-12.614 21.261-16.623 33.605-18.756 45.656-3.7198 16.906-13.739 45.076 7.1445 58.135 9.9758 2.7586 23.723-4.4726 34.379-9.9941 8.9022-5.7308 19.119-14.446 23.781-20.283 2.9234-3.6607 2.5364-4.7313-0.63281-1.752-1.0466 0.98394-3.0585 2.635-4.4707 3.6699-22.649 16.597-33.959 22.252-44.604 22.305-8.9602 0.0441-11.597-1.4078-14.197-7.8203-3.23-8.0928-0.86222-18.309 0.90235-27.834 0.57537-3.9321 1.2302-7.4063 1.4551-7.7188 0.22483-0.3125 1.0216-3.9272 1.7715-8.0332 2.6084-14.195 7.5482-30.285 17.635-44.414 2.9054-3.1978 13.606-16.908 26.445-17.365l2.8613 0.26368-1.1289 16.156c-1.9546 27.949-1.9552 27.86-0.36133 30.266 1.2421 1.8747 1.6661 2.047 2.8906 1.168 0.78906-0.56642 1.4852-1.7489 1.5469-2.627 3.6775-17.33 2.3501-19.078 2.6875-37.518-0.78122-10.803-0.29866-11.263-4.9668-11.238zm204.47 45.967c-2.7021 8.416-4.6785 15.346-8.1738 24.713-6.1935 16.58-1.8369 1.5362 0.41211-15.232 0.53434-2.4213 1.3879-7.7804 1.8965-11.908 1.4796-10.456 0.0142-8.644 6.1797-9.8086 4.5826-0.43256 3.2406-2.1395-0.31445 12.236zm-113.87-7.4023c-1.9573 0.0504-4.2139 2.4801-7.5215 7.7676-2.4507 3.9177-4.7908 8.7203-5.1992 10.672-0.73469 3.5104-0.70505 3.568 2.7676 5.4648 4.7873 1.999 14.743 0.49691 17.68-2.7988 1.3635-1.6111 2.4041-3.8698 2.4785-5.3789 0.11134-2.2535 0.0171-2.3738-0.70703-0.89257-1.454 2.9745-9.034 6.5802-13.172 6.2656-7.8952-2.5166-2.5243-7.0226 2.6953-12.799 1.2148-1.3443 4.6742 0.35969 5.0703 2.5898 0.33487 1.8852 0.58845 2.0091 2.5644 1.2559 3.0799-1.174 3.0195-3.9975-0.14648-6.9102-1.4347-1.3199-3.2155-3.0635-3.957-3.875-0.83654-0.91554-1.6631-1.3842-2.5527-1.3613zm140.57 28.65c0.17904 0.0214 0.34828 0.12067 0.50195 0.31641 1.6419 2.9797-0.58351 10.79-4.7148 16.545-1.044 1.4541-3.3359 3.8066-3.3359 3.8066-1.1418-4.9258 1.4482-12.986 3.8496-16.506 1.0503-1.428 2.445-3.9931 3.5176-4.1582 0.0619-0.01 0.12196-0.011 0.18164-4e-3zm-115.13 6.5098c0.25774 9e-3 0.46256 0.27001 0.0762 3.209-0.61327 4.6652-4.329 16.581-6.1133 19.607-0.41311 0.70065-1.5658 2.7546-2.5625 4.5645s-2.613 4.0992-3.5918 5.0879c-2.8715 2.9007-3.429 2.0886-2.4668-3.5918 0.95723-6.6553 6.398-21.1 10.689-25.664 1.6203-1.6346 2.5824-2.6309 3.9688-3.2129z" stroke-width=".85239"/>
</svg>
