<svg enable-background="new 0 0 4253.661 1017.313" version="1.1" viewBox="0 0 1e3 1e3" xmlns="http://www.w3.org/2000/svg">
 <path d="m961.6 290.13s-12.769-19.034-8.9673-28.901c3.8004-9.867 9.3799-7.406 9.3799-7.406l1.729-151.79-207.65 8.1907-294.29-0.14476-438.58-6.9649 5.7094 201.48 6.9203 25.903h-6.1856l5.156 181.93 0.68594 291.81-3.7165 89.65 773.58-7.5399 158.37 1.8251-3.3201-51.328-4.2198-72.488 5.3942-474.16z" fill="#fff" stroke="#808184" stroke-linejoin="round" stroke-miterlimit="10" stroke-width="2"/>
 <path d="m64.189 862.12 1.8941-70.08-5.9528-282.21v-375.02l464.72 0.81174 415.34-3.1117-7.1704 631.67 5.5469 96.732-157.21 2.9764z" fill="none" stroke="#808184" stroke-miterlimit="10" stroke-width="1.3529"/>
 <path d="m66.228 755.84c293.58 2.0427 573.25 0.61289 866.84 0.61289" fill="none" stroke="#808184" stroke-miterlimit="10" stroke-width="1.3529"/>
 <path d="m316.7 863.3-4.8162-107.33" fill="none" stroke="#808184" stroke-miterlimit="10" stroke-width="1.3529"/>
 <path d="m349.73 792.79v11.76h-1.1v-28.12h6.72q4.76 0 7.22 2.04 2.48 2.04 2.48 6.12 0 1.78-0.7 3.3-0.68 1.5-1.96 2.6-1.28 1.08-3.08 1.7-1.78 0.6-3.96 0.6zm0-0.9h5.62q1.98 0 3.56-0.56 1.6-0.56 2.7-1.54 1.12-0.98 1.72-2.32t0.6-2.88q0-3.56-2.14-5.42t-6.44-1.86h-5.62z"/>
 <path d="m369.88 804.55v-19.72h0.48q0.4 0 0.42 0.44l0.12 4.86q0.86-2.68 2.4-4.14 1.56-1.48 4.08-1.48 0.58 0 1.18 0.1 0.62 0.08 1.1 0.36l-0.12 0.62q-0.08 0.22-0.28 0.22-0.22 0-0.68-0.14-0.44-0.16-1.32-0.16-1.26 0-2.22 0.4-0.96 0.38-1.72 1.16-0.76 0.76-1.34 1.9-0.56 1.14-1.04 2.66v12.92z"/>
 <path d="m390.07 784.51q2.1 0 3.72 0.74 1.64 0.72 2.76 2.06 1.12 1.32 1.7 3.2t0.58 4.18-0.58 4.18q-0.58 1.86-1.7 3.18t-2.76 2.04q-1.62 0.7-3.72 0.7t-3.74-0.7q-1.62-0.72-2.74-2.04t-1.7-3.18q-0.58-1.88-0.58-4.18t0.58-4.18 1.7-3.2q1.12-1.34 2.74-2.06 1.64-0.74 3.74-0.74zm0 19.44q1.92 0 3.36-0.66t2.4-1.88q0.98-1.22 1.46-2.92t0.48-3.8-0.48-3.82-1.46-2.94q-0.96-1.24-2.4-1.9-1.44-0.68-3.36-0.68t-3.36 0.68q-1.44 0.66-2.42 1.9-0.96 1.22-1.44 2.94t-0.48 3.82 0.48 3.8 1.44 2.92q0.98 1.22 2.42 1.88t3.36 0.66z"/>
 <path d="m405.92 784.83v22.8q0 0.94-0.28 1.74t-0.84 1.38q-0.54 0.58-1.34 0.9-0.78 0.34-1.8 0.34-0.56 0-0.96-0.12-0.42-0.1-0.82-0.3l0.1-0.5q0.06-0.16 0.16-0.18 0.1 0 0.28 0.06t0.46 0.14q0.26 0.08 0.66 0.08 1.66 0 2.5-0.96t0.84-2.58v-22.8zm0.84-7.12q0 0.28-0.12 0.52t-0.32 0.44q-0.18 0.18-0.44 0.3-0.24 0.1-0.5 0.1-0.56 0-0.98-0.4-0.4-0.42-0.4-0.96 0-0.56 0.4-0.96 0.42-0.42 0.98-0.42 0.26 0 0.5 0.12 0.26 0.1 0.44 0.3 0.2 0.18 0.32 0.44 0.12 0.24 0.12 0.52z"/>
 <path d="m420.74 784.51q1.6 0 2.98 0.56 1.4 0.56 2.44 1.66 1.04 1.08 1.62 2.68 0.6 1.6 0.6 3.66 0 0.42-0.36 0.42h-14.94q-0.02 0.2-0.02 0.4t0 0.4q0 2.36 0.56 4.16t1.58 3.02 2.46 1.86q1.46 0.62 3.24 0.62 1.58 0 2.74-0.34 1.16-0.36 1.94-0.78t1.2-0.76q0.44-0.36 0.56-0.36 0.16 0 0.26 0.12l0.26 0.3q-0.4 0.5-1.12 0.98t-1.66 0.86q-0.92 0.36-2.02 0.58-1.08 0.24-2.22 0.24-2.02 0-3.66-0.7-1.62-0.72-2.78-2.06-1.14-1.34-1.76-3.28-0.62-1.96-0.62-4.46 0-2.16 0.58-3.94 0.6-1.8 1.72-3.1t2.74-2.02 3.68-0.72zm0.02 0.8q-1.68 0-3.02 0.54-1.32 0.54-2.28 1.52t-1.56 2.36q-0.58 1.38-0.76 3.06h14.28q0-1.78-0.52-3.16-0.5-1.4-1.4-2.36-0.88-0.96-2.1-1.46t-2.64-0.5z"/>
 <path d="m446.96 786.99q-0.06 0.06-0.12 0.12-0.06 0.04-0.16 0.04-0.16 0-0.5-0.28t-0.94-0.62-1.52-0.62-2.22-0.28q-1.84 0-3.28 0.66-1.42 0.64-2.42 1.86-0.98 1.22-1.5 2.94t-0.52 3.88q0 2.22 0.52 3.96 0.54 1.72 1.5 2.9 0.98 1.18 2.34 1.8 1.38 0.62 3.06 0.62 1.52 0 2.54-0.34 1.04-0.36 1.72-0.78 0.68-0.44 1.04-0.78 0.36-0.36 0.52-0.36t0.26 0.12l0.24 0.3q-0.36 0.5-1 0.98-0.62 0.48-1.46 0.86-0.82 0.36-1.84 0.58-1 0.24-2.14 0.24-1.9 0-3.44-0.68t-2.64-1.98q-1.08-1.3-1.68-3.18t-0.6-4.26q0-2.28 0.58-4.16 0.6-1.88 1.72-3.2 1.12-1.34 2.74-2.08t3.7-0.74q1.84 0 3.28 0.6 1.44 0.58 2.48 1.54z"/>
 <path d="m457.73 804.87q-1.84 0-2.88-1-1.04-1.02-1.04-3.26v-14.22h-3.08q-0.38 0-0.38-0.3v-0.36l3.46-0.14 0.3-7.6q0.02-0.12 0.1-0.22 0.08-0.12 0.22-0.12h0.44v7.94h6.52v0.8h-6.52v14.18q0 0.92 0.24 1.58 0.24 0.64 0.64 1.06t0.94 0.62q0.56 0.18 1.2 0.18 0.78 0 1.36-0.24 0.6-0.24 1.02-0.52t0.68-0.52 0.38-0.24q0.1 0 0.22 0.12l0.26 0.38q-0.34 0.42-0.8 0.76-0.44 0.34-0.98 0.6-0.54 0.24-1.12 0.38t-1.18 0.14z"/>
 <path d="m477.22 804.55v-19.72h0.5q0.38 0 0.4 0.4l0.12 3.42q1.38-1.9 3.28-3.02t4.18-1.12q1.64 0 2.86 0.52 1.24 0.5 2.04 1.46 0.82 0.94 1.22 2.32 0.42 1.38 0.42 3.12v12.62h-1.06v-12.62q0-1.54-0.34-2.76t-1.06-2.06q-0.7-0.86-1.76-1.3-1.06-0.46-2.5-0.46-2.16 0-4 1.14-1.84 1.12-3.24 3.12v14.94z"/>
 <path d="m511 804.55q-0.4 0-0.46-0.42l-0.2-2.9q-0.82 0.84-1.66 1.52-0.82 0.66-1.74 1.14-0.9 0.46-1.96 0.72t-2.34 0.26q-0.94 0-1.86-0.28t-1.66-0.88-1.2-1.54q-0.44-0.96-0.44-2.3 0-1.3 0.74-2.36 0.76-1.06 2.34-1.82 1.58-0.78 4-1.22 2.42-0.46 5.76-0.54v-2.34q0-2.96-1.28-4.6t-3.8-1.64q-1.5 0-2.58 0.44-1.08 0.42-1.8 0.96-0.72 0.52-1.16 0.96-0.42 0.42-0.64 0.42-0.2 0-0.36-0.22l-0.18-0.28q1.48-1.52 3.1-2.32t3.7-0.8q1.54 0 2.68 0.5 1.14 0.48 1.88 1.4 0.76 0.92 1.12 2.24 0.36 1.3 0.36 2.94v12.96zm-8.16-0.46q1.28 0 2.34-0.28 1.06-0.3 1.96-0.8t1.68-1.16q0.78-0.68 1.5-1.44v-5.72q-6.04 0.2-8.94 1.5-2.88 1.3-2.88 3.64 0 1.1 0.36 1.9 0.38 0.8 0.98 1.34 0.62 0.52 1.4 0.78 0.78 0.24 1.6 0.24z"/>
 <path d="m518.16 804.55v-19.72h0.5q0.38 0 0.4 0.4l0.12 3.32q1.16-1.84 2.72-2.94 1.58-1.1 3.48-1.1 2.26 0 3.58 1.36t1.72 3.82q0.3-1.32 0.92-2.28 0.64-0.98 1.48-1.62 0.84-0.66 1.84-0.96 1-0.32 2.06-0.32 1.42 0 2.56 0.5 1.16 0.48 1.96 1.42t1.22 2.32q0.44 1.38 0.44 3.18v12.62h-1.06v-12.62q0-3.2-1.38-4.88-1.36-1.7-3.9-1.7-1.12 0-2.16 0.42-1.02 0.4-1.82 1.24-0.78 0.82-1.26 2.06-0.48 1.22-0.48 2.86v12.62h-1.06v-12.62q0-3.14-1.24-4.86t-3.64-1.72q-1.8 0-3.3 1.12t-2.64 3.08v15z"/>
 <path d="m557.45 784.51q1.6 0 2.98 0.56 1.4 0.56 2.44 1.66 1.04 1.08 1.62 2.68 0.6 1.6 0.6 3.66 0 0.42-0.36 0.42h-14.94q-0.02 0.2-0.02 0.4t0 0.4q0 2.36 0.56 4.16t1.58 3.02 2.46 1.86q1.46 0.62 3.24 0.62 1.58 0 2.74-0.34 1.16-0.36 1.94-0.78t1.2-0.76q0.44-0.36 0.56-0.36 0.16 0 0.26 0.12l0.26 0.3q-0.4 0.5-1.12 0.98t-1.66 0.86q-0.92 0.36-2.02 0.58-1.08 0.24-2.22 0.24-2.02 0-3.66-0.7-1.62-0.72-2.78-2.06-1.14-1.34-1.76-3.28-0.62-1.96-0.62-4.46 0-2.16 0.58-3.94 0.6-1.8 1.72-3.1t2.74-2.02 3.68-0.72zm0.02 0.8q-1.68 0-3.02 0.54-1.32 0.54-2.28 1.52t-1.56 2.36q-0.58 1.38-0.76 3.06h14.28q0-1.78-0.52-3.16-0.5-1.4-1.4-2.36-0.88-0.96-2.1-1.46t-2.64-0.5z"/>
 <path d="m570.34 804.55m0-1.18q0-0.64 0.42-1.08 0.44-0.46 1.08-0.46t1.08 0.46q0.46 0.44 0.46 1.08t-0.46 1.08q-0.44 0.42-1.08 0.42t-1.08-0.42q-0.42-0.44-0.42-1.08zm0-16.44q0-0.64 0.42-1.08 0.44-0.46 1.08-0.46t1.08 0.46q0.46 0.44 0.46 1.08t-0.46 1.08q-0.44 0.42-1.08 0.42t-1.08-0.42q-0.42-0.44-0.42-1.08z"/>
 <path d="m593.32 792.79v11.76h-1.1v-28.12h6.72q4.76 0 7.22 2.04 2.48 2.04 2.48 6.12 0 1.78-0.7 3.3-0.68 1.5-1.96 2.6-1.28 1.08-3.08 1.7-1.78 0.6-3.96 0.6zm0-0.9h5.62q1.98 0 3.56-0.56 1.6-0.56 2.7-1.54 1.12-0.98 1.72-2.32t0.6-2.88q0-3.56-2.14-5.42t-6.44-1.86h-5.62z"/>
 <path d="m620.23 784.51q2.1 0 3.72 0.74 1.64 0.72 2.76 2.06 1.12 1.32 1.7 3.2t0.58 4.18-0.58 4.18q-0.58 1.86-1.7 3.18t-2.76 2.04q-1.62 0.7-3.72 0.7t-3.74-0.7q-1.62-0.72-2.74-2.04t-1.7-3.18q-0.58-1.88-0.58-4.18t0.58-4.18 1.7-3.2q1.12-1.34 2.74-2.06 1.64-0.74 3.74-0.74zm0 19.44q1.92 0 3.36-0.66t2.4-1.88q0.98-1.22 1.46-2.92t0.48-3.8-0.48-3.82-1.46-2.94q-0.96-1.24-2.4-1.9-1.44-0.68-3.36-0.68t-3.36 0.68q-1.44 0.66-2.42 1.9-0.96 1.22-1.44 2.94t-0.48 3.82 0.48 3.8 1.44 2.92q0.98 1.22 2.42 1.88t3.36 0.66z"/>
 <path d="m634.8 804.55v-19.72h0.48q0.4 0 0.42 0.44l0.12 4.86q0.86-2.68 2.4-4.14 1.56-1.48 4.08-1.48 0.58 0 1.18 0.1 0.62 0.08 1.1 0.36l-0.12 0.62q-0.08 0.22-0.28 0.22-0.22 0-0.68-0.14-0.44-0.16-1.32-0.16-1.26 0-2.22 0.4-0.96 0.38-1.72 1.16-0.76 0.76-1.34 1.9-0.56 1.14-1.04 2.66v12.92z"/>
 <path d="m653.74 804.87q-1.84 0-2.88-1-1.04-1.02-1.04-3.26v-14.22h-3.08q-0.38 0-0.38-0.3v-0.36l3.46-0.14 0.3-7.6q0.02-0.12 0.1-0.22 0.08-0.12 0.22-0.12h0.44v7.94h6.52v0.8h-6.52v14.18q0 0.92 0.24 1.58 0.24 0.64 0.64 1.06t0.94 0.62q0.56 0.18 1.2 0.18 0.78 0 1.36-0.24 0.6-0.24 1.02-0.52t0.68-0.52 0.38-0.24q0.1 0 0.22 0.12l0.26 0.38q-0.34 0.42-0.8 0.76-0.44 0.34-0.98 0.6-0.54 0.24-1.12 0.38t-1.18 0.14z"/>
 <path d="m673.96 804.55q-0.4 0-0.46-0.42l-0.2-2.9q-0.82 0.84-1.66 1.52-0.82 0.66-1.74 1.14-0.9 0.46-1.96 0.72t-2.34 0.26q-0.94 0-1.86-0.28t-1.66-0.88-1.2-1.54q-0.44-0.96-0.44-2.3 0-1.3 0.74-2.36 0.76-1.06 2.34-1.82 1.58-0.78 4-1.22 2.42-0.46 5.76-0.54v-2.34q0-2.96-1.28-4.6t-3.8-1.64q-1.5 0-2.58 0.44-1.08 0.42-1.8 0.96-0.72 0.52-1.16 0.96-0.42 0.42-0.64 0.42-0.2 0-0.36-0.22l-0.18-0.28q1.48-1.52 3.1-2.32t3.7-0.8q1.54 0 2.68 0.5 1.14 0.48 1.88 1.4 0.76 0.92 1.12 2.24 0.36 1.3 0.36 2.94v12.96zm-8.16-0.46q1.28 0 2.34-0.28 1.06-0.3 1.96-0.8t1.68-1.16q0.78-0.68 1.5-1.44v-5.72q-6.04 0.2-8.94 1.5-2.88 1.3-2.88 3.64 0 1.1 0.36 1.9 0.38 0.8 0.98 1.34 0.62 0.52 1.4 0.78 0.78 0.24 1.6 0.24z"/>
 <path d="m682.07 804.55v-18.14l-3.08-0.12q-0.38-0.04-0.38-0.3v-0.4h3.46v-2.82q0-1.68 0.4-2.92 0.42-1.26 1.16-2.08 0.76-0.84 1.8-1.24t2.28-0.4q0.6 0 1.22 0.1t1.08 0.32l-0.06 0.46q-0.02 0.16-0.14 0.18-0.12 0-0.38-0.04-0.26-0.06-0.66-0.12-0.38-0.08-0.94-0.08-1.02 0-1.88 0.32-0.86 0.3-1.5 1-0.62 0.7-0.98 1.82-0.36 1.1-0.36 2.7v2.8h6.76v0.8h-6.74v18.16z"/>
 <path d="m701.09 784.51q2.1 0 3.72 0.74 1.64 0.72 2.76 2.06 1.12 1.32 1.7 3.2t0.58 4.18-0.58 4.18q-0.58 1.86-1.7 3.18t-2.76 2.04q-1.62 0.7-3.72 0.7t-3.74-0.7q-1.62-0.72-2.74-2.04t-1.7-3.18q-0.58-1.88-0.58-4.18t0.58-4.18 1.7-3.2q1.12-1.34 2.74-2.06 1.64-0.74 3.74-0.74zm0 19.44q1.92 0 3.36-0.66t2.4-1.88q0.98-1.22 1.46-2.92t0.48-3.8-0.48-3.82-1.46-2.94q-0.96-1.24-2.4-1.9-1.44-0.68-3.36-0.68t-3.36 0.68q-1.44 0.66-2.42 1.9-0.96 1.22-1.44 2.94t-0.48 3.82 0.48 3.8 1.44 2.92q0.98 1.22 2.42 1.88t3.36 0.66z"/>
 <path d="m716.92 775.63v28.92h-1.04v-28.92z"/>
 <path d="m725.45 784.83v19.72h-1.04v-19.72zm0.86-7.12q0 0.28-0.12 0.52t-0.32 0.44q-0.18 0.18-0.44 0.3-0.24 0.1-0.5 0.1-0.56 0-0.98-0.4-0.4-0.42-0.4-0.96 0-0.56 0.4-0.96 0.42-0.42 0.98-0.42 0.26 0 0.5 0.12 0.26 0.1 0.44 0.3 0.2 0.18 0.32 0.44 0.12 0.24 0.12 0.52z"/>
 <path d="m740.31 784.51q2.1 0 3.72 0.74 1.64 0.72 2.76 2.06 1.12 1.32 1.7 3.2t0.58 4.18-0.58 4.18q-0.58 1.86-1.7 3.18t-2.76 2.04q-1.62 0.7-3.72 0.7t-3.74-0.7q-1.62-0.72-2.74-2.04t-1.7-3.18q-0.58-1.88-0.58-4.18t0.58-4.18 1.7-3.2q1.12-1.34 2.74-2.06 1.64-0.74 3.74-0.74zm0 19.44q1.92 0 3.36-0.66t2.4-1.88q0.98-1.22 1.46-2.92t0.48-3.8-0.48-3.82-1.46-2.94q-0.96-1.24-2.4-1.9-1.44-0.68-3.36-0.68t-3.36 0.68q-1.44 0.66-2.42 1.9-0.96 1.22-1.44 2.94t-0.48 3.82 0.48 3.8 1.44 2.92q0.98 1.22 2.42 1.88t3.36 0.66z"/>
 <text x="345.6557" y="839.05487" fill="#000000" font-family="sans-serif" font-size="40px" letter-spacing="0px" word-spacing="0px" style="line-height:1.25" xml:space="preserve"><tspan class="deployment-date" x="345.6557" y="839.05487" font-family="Roboto" font-size="26.667px" font-weight="200"></tspan></text>
 <path d="m87.322 775.65c2.2152 0.0435 21.711-1.763 28.398 1.173 6.6869 2.9359 5.7092 3.2238 9.7702 6.4673-0.64745-1.9182-0.0847-0.29843-1.3661-2.1148 4.6678 2.1825 11.377 5.2862 12.864 13.21 3.9432 3.2417 5.2744 4.9981 7.7808 11.357l-1.5562 26.034-3.5288-18.134s-4.4-3.8592-5.3069-7.638c-3.7688 0.30949-13.947-3.9209-17.059-2.2591-3.1122 1.6618-4.7925 3.0186-9.2888 1.12s-5.4585-1.45-10.408 1.0028c-3.4509 0.95377-11.848 5.185-11.848 5.185l-4.7468 20.435-1.246-26.601-6.0865-6.4459s0.84272-2.1452 4.1539-4.3333c3.3112-2.1881 5.3859-2.6351 5.3859-2.6351-3.4637-1.842-3.8391-2.9263-7.2065-4.5757 5.4874-6.0883 11.273-6.9188 14.063-6.7606-1.9248-1.0212-2.0887-2.3833-2.7688-4.4864z" fill="#231f20" stroke-width=".73135"/>
 <path d="m102.27 824.7c3.8141 1.0797 3.8802 0.56288 4.9638 0.6853-0.0153 0.85057-0.0698 2.0295-1.5683 2.2544-1.4985 0.22491-19.25-2.5674-21.71-1.0984 2.9844-6.0876 14.5-2.921 18.314-1.8413z" fill="#3e3734" stroke-width=".73135"/>
 <path d="m122.18 823.7c-3.6095 1.6327-4.3973 1.2553-5.481 1.3574 0.0153 0.70937 0.45769 1.8355 1.9562 2.0231 1.4985 0.18758 12.993-6.7832 21.322-1.059-1.4922-2.5385-4.6001-5.8624-8.3288-5.7242-3.7288 0.13817-7.3673 2.4524-9.4682 3.4027z" fill="#3e3734" stroke-width=".73135"/>
 <path d="m130.84 825.58c-5.2406 0.0341-10.291 1.6316-15.435 2.2703-2.1469 0.26661-4.3595 0.33201-6.51 0.0841-2.8593-0.32971-5.6276-1.2052-8.485-1.5977-2.5537-0.35055-5.1392-0.71678-7.7088-0.73134-4.4906-0.026-8.8337 1.345-13.236 2.0853 0 1.2556-0.26169 2.8674 0.39652 3.7501 0.67893 0.91027 1.8242 1.7427 2.1212 2.9764 0.7044 2.9256 1.7046 5.7934 2.9834 8.5428 0.62148 1.3361 1.7943 2.2676 3.1042 2.9092 3.1541 1.5452 6.8871 1.7724 10.347 1.2865 4.9276-0.69197 7.601-4.2973 9.6405-8.4167 0.76341-1.6745 0.84851-3.6072 1.8539-5.1375 0.59709-0.9089 1.9838-0.52631 2.9746-0.52969 0.99113-4e-3 1.8312 1.604 2.1386 2.6739 1.0884 3.7863 2.9033 7.8033 6.5102 9.7871 5.3861 2.9627 13.872 2.4085 17.366-2.9344 1.3678-2.0912 1.7453-4.6282 2.4315-6.9956 0.41775-1.4413 0.79109-3.1597 2.2765-3.9519 0.59945-0.31989 0.17883-1.5958 0.26721-2.3376 0.0964-0.80801 0.28249-1.523-0.8967-1.6815-2.0567-0.27702-4.0517-1.1191-6.1567-1.4042-1.9947-0.27021-3.949-0.66069-5.9843-0.64758zm-34.646 1.3453c1.4877-9e-3 2.969 0.097 4.415 0.39523 8.6151 1.7769 8.7892 5.2382 5.2427 12.394-2.89 5.8307-8.8765 7.2917-14.909 5.8941-2.7809-0.64421-4.6822-2.537-5.5791-5.1289-0.9465-2.7358-1.6625-5.6423-1.5003-8.5178 0.21717-3.8503 4.6833-4.3914 7.8812-4.7422 1.4675-0.16093 2.9617-0.28508 4.4493-0.29431zm31.456 0c1.4877 8e-3 2.982 0.13338 4.4495 0.29431 3.1978 0.35078 7.6643 0.89191 7.8812 4.7422 0.16207 2.8755-0.55386 5.782-1.5005 8.5178-0.89669 2.5919-2.7982 4.4847-5.5789 5.1289-6.032 1.3976-12.019-0.0634-14.909-5.8941-3.5465-7.1558-3.3721-10.617 5.243-12.394 1.4459-0.2982 2.9271-0.40431 4.4147-0.39523z" fill="#3d3e40"/>
 <path d="m289.33 776.57c-1.9727 0-3.7238 0.30349-5.2559 0.91211-1.5111 0.60867-2.7925 1.4287-3.8418 2.457-1.0283 1.0073-1.8157 2.1719-2.3613 3.4941s-0.81836 2.7062-0.81836 4.1543c0 1.8469 0.32597 3.3907 0.97656 4.6289 0.6506 1.2173 1.4995 2.2445 2.5488 3.084 1.0703 0.81847 2.2882 1.5012 3.6524 2.0469 1.3641 0.52469 2.7501 1.0168 4.1562 1.4785 1.4271 0.44072 2.8214 0.91428 4.1856 1.418 1.3641 0.48273 2.5718 1.0916 3.6211 1.8262 1.0703 0.73454 1.9314 1.647 2.582 2.7383 0.65059 1.0913 0.97461 2.4754 0.97461 4.1543 0 1.574-0.2727 3.0543-0.81836 4.4394-0.54567 1.3851-1.3432 2.603-2.3926 3.6524-1.0283 1.0284-2.2975 1.8465-3.8086 2.4551-1.5111 0.58762-3.2211 0.88086-5.1309 0.88085-1.3431 1e-5 -2.5508-0.12511-3.6211-0.37695-1.0494-0.27283-1.9823-0.5988-2.8008-0.97656-0.7975-0.39874-1.4905-0.81904-2.0781-1.2598-0.5876-0.4617-1.092-0.88005-1.5117-1.2578-0.41977-0.39875-0.76623-0.72471-1.0391-0.97656-0.25184-0.27283-0.45074-0.4082-0.59765-0.4082-0.1469 0-0.26175 0.03081-0.3457 0.09375-0.06297 0.04197-0.14702 0.11577-0.25196 0.2207l-0.41015 0.6289c0.77653 0.90247 1.5844 1.7103 2.4238 2.4238 0.86047 0.71358 1.7953 1.3225 2.8027 1.8262 1.0283 0.48269 2.1397 0.84972 3.3359 1.1016 1.2173 0.27282 2.5724 0.41015 4.0625 0.41015 2.1827 0 4.1243-0.33621 5.8242-1.0078 1.7209-0.6926 3.1685-1.6275 4.3438-2.8027 1.1962-1.1963 2.0984-2.5906 2.707-4.1856 0.6296-1.616 0.94335-3.3382 0.94335-5.1641 1e-5 -1.7839-0.32401-3.2725-0.9746-4.4688-0.6506-1.2173-1.5117-2.2362-2.582-3.0547-1.0703-0.81846-2.2882-1.489-3.6523-2.0137-1.3431-0.54569-2.7272-1.05-4.1543-1.5117-1.4271-0.48271-2.8234-0.97678-4.1875-1.4805-1.3431-0.50367-2.5488-1.1229-3.6191-1.8574s-1.9314-1.6367-2.582-2.707c-0.6506-1.0913-0.97656-2.4446-0.97656-4.0606 0-1.2593 0.23164-2.4546 0.69336-3.5879 0.46167-1.1543 1.1444-2.1732 2.0469-3.0547 0.9024-0.88144 2.0137-1.5744 3.3359-2.0781 1.3431-0.52467 2.8748-0.78711 4.5957-0.78711 1.6999 0 3.127 0.21112 4.2812 0.63086 1.1543 0.39872 2.0995 0.84983 2.834 1.3535 0.73452 0.50367 1.3005 0.96504 1.6992 1.3848 0.41974 0.39875 0.74571 0.59765 0.97656 0.59766 0.23086 0 0.40924-0.10459 0.53516-0.31446l0.37695-0.6914c-1.4901-1.5111-3.0955-2.6244-4.8164-3.3379-1.6999-0.71353-3.6621-1.0703-5.8867-1.0703zm-92.672 0.50586v27.639c0 2.3925 0.37923 4.6396 1.1348 6.7383 0.75553 2.0777 1.836 3.8923 3.2422 5.4453 1.4061 1.5531 3.1161 2.7812 5.1309 3.6836 2.0148 0.88147 4.2824 1.3223 6.8008 1.3223 2.5185 0 4.7738-0.4408 6.7676-1.3223 2.0147-0.9024 3.7247-2.1305 5.1309-3.6836 1.4271-1.553 2.5179-3.3676 3.2734-5.4453 0.75553-2.0987 1.1348-4.3457 1.1348-6.7383v-27.639h-1.7637v27.639c0 2.1827-0.33621 4.2289-1.0078 6.1387-0.6506 1.8888-1.6041 3.5372-2.8633 4.9434-1.2382 1.4061-2.7596 2.5175-4.5645 3.3359-1.7839 0.79754-3.8198 1.1973-6.1074 1.1973s-4.3338-0.39973-6.1387-1.1973c-1.8049-0.81846-3.3384-1.9298-4.5976-3.3359-1.2382-1.4271-2.1917-3.0961-2.8633-5.0059-0.65059-1.9098-0.97656-3.956-0.97656-6.1387v-27.576h-1.7324zm56.207 0.00195v44.262h1.7305v-44.262h-1.7305zm-95.16 0.00196v44.262h23.674v-1.5117h-21.943v-42.75h-1.7305z"/>
 <path d="m292.53 827.76c-2.8236 0-5.0042 0.72248-6.543 2.166-1.5229 1.4277-2.2832 3.5287-2.2832 6.3047s0.76034 4.8865 2.2832 6.3301c1.5387 1.4277 3.7194 2.1406 6.543 2.1406s5.0062-0.72053 6.5449-2.1641 2.3066-3.5464 2.3066-6.3066-0.76791-4.8612-2.3066-6.3047-3.7213-2.166-6.5449-2.166zm-80.857 0.28711v10.66c0 0.74554-0.14221 1.2765-0.42774 1.5938-0.26967 0.31726-0.69065 0.47461-1.2617 0.47461-0.57106 0-0.99962-0.15735-1.2852-0.47461-0.26968-0.31727-0.4043-0.84822-0.4043-1.5938v-0.19141h-4.9258v0.21485c0 0.64345 0.06519 1.2269 0.17969 1.7637h-8.8281v-2.498h7.6133v-3.7598h-7.6133v-2.2598h8.8984v-3.9258h-14.156v16.369h14.324v-3.0742c0.28937 0.77479 0.72738 1.4124 1.3184 1.9062 1.1739 0.96767 2.8558 1.4512 5.0449 1.4512s3.8635-0.4835 5.0215-1.4512c1.1739-0.96766 1.7598-2.4752 1.7598-4.5215v-10.684h-5.2578zm-47.992 0.00195-5.9727 16.371h5.3789l0.68945-2.3086h5.7344l0.68945 2.3086h19.109v-4.1875h-8.4004v-12.182h-5.2578v16.049l-5.8555-16.051h-6.1152zm58.561 0-5.9726 16.371h5.377l0.69141-2.3086h5.7344l0.68946 2.3086h10.283v-7.9473l6.877 7.9473h4.5918v-16.371h-4.8301v8.0664l-6.877-8.0664h-4.5918v16.055l-5.8574-16.055h-6.1152zm29.738 0v16.371h7.0918c5.7265 0 8.5898-2.7287 8.5898-8.1855 0-5.4569-2.8633-8.1836-8.5898-8.1836l-7.0918-0.00195zm16.414 0v16.371h5.2578v-5.9726h1.9512l2.9024 5.9726h5.9023l-3.6406-6.8535c1.0311-0.38074 1.8161-0.97421 2.3555-1.7832 0.53935-0.809 0.8086-1.7135 0.8086-2.7129 0-0.90413-0.21427-1.7385-0.64258-2.5-0.41247-0.7773-1.0382-1.3879-1.8789-1.832-0.82486-0.46003-1.8242-0.68945-2.998-0.68945h-10.018zm24.137 3.6367c1.1263 0 1.9834 0.3413 2.5703 1.0234 0.60279 0.68214 0.9043 1.6018 0.9043 2.7598v1.5234c0 1.158-0.30151 2.0776-0.9043 2.7598-0.58693 0.68214-1.444 1.0234-2.5703 1.0234s-1.9814-0.3413-2.5684-1.0234c-0.58693-0.68213-0.88086-1.6018-0.88086-2.7598v-1.5234c0-1.158 0.29393-2.0776 0.88086-2.7598 0.58693-0.68213 1.4421-1.0234 2.5684-1.0234zm-18.879 0.09961h3.4512c0.41247 0 0.76134 0.1422 1.0469 0.42773 0.28554 0.28557 0.42773 0.64201 0.42773 1.0703 0 0.42834-0.14219 0.79431-0.42773 1.0957-0.28556 0.28553-0.63444 0.42773-1.0469 0.42773h-3.4512v-3.0215zm-16.412 0.1914h1.7363c2.2049 0 3.3066 1.1813 3.3066 3.5449v1.4277c0 2.3636-1.1017 3.5449-3.3066 3.5449h-1.7363v-8.5176zm-90.631 0.64063h0.0957l1.7129 5.8301h-3.5469l1.7383-5.8301zm58.561 0h0.09375l1.7129 5.8301h-3.5449l1.7383-5.8301z"/>
 <path d="m530.89 725.14c-0.46602-1.3491-0.49975-5.7886-0.0748-9.8654 1.2164-11.668 1.2646-13.309 1.0141-34.432-0.16437-13.853-0.61409-20.286-1.4709-21.043-0.91077-0.8043-2.4414 0.0452-5.8395 3.2411-4.9696 4.6738-9.5599 6.0818-15.544 4.768-3.6713-0.80603-10.285-5.6496-10.715-7.8474-0.14704-0.75067-1.7772 0.64787-3.6228 3.1078-4.3007 5.7322-7.6107 7.7124-13.526 8.0921-3.7956 0.24364-5.305-0.15677-7.4689-1.974-2.4432-2.0534-2.6927-2.9082-2.5173-8.6237 0.23485-7.6539 4.1921-15.378 12.31-24.027 7.9244-8.443 14.002-10.319 19.234-5.9374 1.3792 1.1551 2.9557 2.1139 3.5034 2.1307 1.6104 0.0494 2.139 2.8292 1.9023 10.004-0.25696 7.7582-1.2037 9.7622-4.1998 8.8797-1.7779-0.52368-2.1215-0.17005-2.1961 2.2601-0.21678 7.0649 8.809 11.46 16.565 8.0672 5.4993-2.4058 8.7579-6.2097 8.1822-9.5514-0.7023-4.0764 2.0632-15.127 4.3918-17.549 1.7901-1.862 2.2259-4.4634 3.54-21.135 1.5645-19.848 4.656-43.86 6.6535-51.679 2.2278-8.7202 5.9165-11.053 7.9768-5.0449 1.4489 4.2253 2.6164 23.638 2.0741 34.483-0.72236 14.443-3.4233 30.313-6.8383 40.18-3.9382 11.379-3.8075 10.899-4.6462 17.031-0.43927 3.212-0.32827 5.3008 0.28258 5.3196 1.5328 0.047 11.247-10.448 16.617-17.952 2.6297-3.6749 5.2012-6.6687 5.7144-6.653 1.2574 0.0386 1.0777 3.7991-0.21701 4.5455-0.56641 0.32648-1.0554 1.3626-1.0866 2.3025-0.0288 0.93993-1.2603 3.9114-2.7316 6.6033-1.927 3.5258-2.7246 6.513-2.8525 10.682-0.16399 5.3444 0.0848 6.0331 3.2488 8.9877 3.3834 3.1597 3.4748 3.1817 7.2801 1.7571 7.056-2.6415 7.1526-3.5055 0.78196-6.9927-3.302-1.8074-6.3535-4.3398-7.1839-5.9618-1.336-2.6094-1.2614-3.1396 1.0002-7.1067 2.5159-4.4134 6.8739-7.5793 10.289-7.4745 1.8714 0.0574 6.2186 4.045 6.1691 5.6587-0.0133 0.43238 0.85001 1.9704 1.9183 3.4178 1.0684 1.4474 1.9025 3.9347 1.8537 5.5273-0.16583 5.4044 5.0741 3.3182 18.718-7.4521l7.7707-6.1342 1.4846-31.011c1.5755-32.908 3.6454-48.261 6.9729-51.719 0.96914-1.0069 3.0559-1.7911 4.6373-1.7426 7.2848 0.22353 9.2258 8.3028 8.3242 34.65-0.49766 14.543-1.0787 20.126-2.6162 25.138-2.2481 7.328-6.1571 14.924-9.5657 18.588-1.2766 1.3722-2.6179 3.4805-2.9806 4.6851-0.84022 2.7907-0.62542 16.552 0.38186 24.477 1.4701 11.566 0.59844 17.721-2.4959 17.626-1.4708-0.0451-1.8162-2.2898-2.5419-16.517-0.46184-9.0554-0.84307-17.033-0.84735-17.729-4e-3 -0.6956-0.28614-1.2733-0.62643-1.2837-0.3403-0.0104-4.7588 3.2547-9.8189 7.2558-5.65 4.4676-11.015 7.8164-13.904 8.6786-2.7719 0.82719-7.0017 3.4106-10.298 6.2894-4.4401 3.8783-6.3035 4.8638-9.0378 4.7799-7.4183-0.22763-12.884-5.5617-13.787-13.455l-0.61564-5.3809-10.152 10.09 0.79766 10.849c1.0595 14.41 0.7014 23.48-1.3292 33.666-0.92404 4.6347-2.0462 10.692-2.4939 13.46-0.44767 2.7682-1.0704 5.8218-1.3841 6.7858-0.82383 2.5328-3.3748 2.0706-4.3634-0.79058zm6.3878-42.425c-0.63105-4.6462-0.70401-4.7529-0.91813-1.3434-0.219 3.4884 0.52038 7.4091 1.2652 6.7086 0.18624-0.17511 0.0298-2.5894-0.34712-5.3652zm-49.44-18.673c2.4549-1.503 7.0007-7.5414 8.7908-11.677 2.1405-4.9453 4.7566-17.002 3.8894-17.924-7.8121-0.6165-15.187 6.8261-19.572 13.093-1.6062 2.4117-4.1084 6.3137-5.4327 13.651-0.55014 3.0481-0.30025 3.7478 1.6831 4.7101 2.5816 1.2526 6.7562 0.52585 10.641-1.8527zm88.557-11.727c0.36204-2.0208-1.6278-6.2984-4.3252-9.299-2.1276-2.3666-6.4684-0.30121-8.0404 3.8257-1.3623 3.576-1.3582 3.5855 2.285 5.2764 7.0962 3.2936 9.5177 3.3409 10.081 0.19677zm-44.107-7.4633c0.0727-2.7809-0.16235-3.3524-0.92728-2.2448-1.3653 1.977-1.5297 7.3348-0.20157 6.5692 0.56641-0.32648 1.0744-2.2724 1.1288-4.3244zm8.4397-11.821c4.2001-13.252 4.9972-19.077 5.686-41.554 0.39714-12.961 0.28921-24.057-0.25104-25.804l-0.9478-3.0639-0.7393 3.5179c-1.4412 6.8584-6.2965 52.077-6.5785 61.269-0.30098 9.809 0.80796 12.016 2.8307 5.6343zm76.729-7.5711c4.1687-6.6378 5.6991-12.246 7.3969-27.105 1.1515-10.079 1.3144-15.737 0.64451-22.387-1.7199-17.069-3.6173-21.102-7.0121-14.904-1.6753 3.0586-4.1909 20.896-5.0073 35.505-0.98142 17.561-0.89044 34.52 0.18179 33.902 0.55972-0.32259 2.2681-2.5777 3.7964-5.0113zm-156.16 65.733c-0.95683-0.64842-1.1909-6.8423-0.94667-25.05 0.17839-13.304 0.31071-24.546 0.29386-24.983-0.0182-0.43719-1.5158 0.79555-3.331 2.7393-1.8152 1.9438-5.0579 4.3638-7.2059 5.3779-4.7127 2.2248-13.006 2.1889-17.071-0.0739-1.5829-0.88109-3.0873-1.2687-3.343-0.86127-0.62481 0.99517-4.0572 18.424-5.0351 25.567-0.78898 5.763-2.6959 8.6168-4.8194 7.2126-1.2918-0.85422-0.812-5.3428 1.9892-18.609 0.99214-4.6988 2.2043-12.348 2.6937-16.998l0.88982-8.4551-3.2034 0.53907c-5.2624 0.88556-11.097 5.8906-11.893 10.203-2.0887 11.305-8.9479 24.996-14.692 29.326-5.3334 4.0196-10.425 4.8445-13.582 2.2005-3.4798-2.9144-5.5928-11.836-4.7013-19.851 0.66179-5.9495 0.5291-6.5449-2.1138-9.486-5.2367-5.8275-2.513-15.432 6.5041-22.934 5.7624-4.7946 7.271-5.281 13.406-4.3227 4.5724 0.71435 6.2807 1.598 9.8472 5.0938 3.1431 3.0808 4.4488 5.2696 4.8075 8.059l0.49243 3.8294 4.5785-3.2776c4.9739-3.5606 11.576-5.7789 14.077-4.7299 1.1114 0.46609 1.5319 2.0038 1.4326 5.2393-0.18688 6.0903 1.9115 8.2207 9.2225 9.3628 5.0334 0.78635 6.2291 0.60361 10.19-1.5575 5.23-2.8532 9.6361-7.4514 10.687-11.153 0.40694-1.4336 0.41507-9.4784 0.0182-17.877-0.39692-8.399-0.51885-20.428-0.27091-26.731 0.24784-6.3032 0.30759-11.599 0.13256-11.769-0.17498-0.16975-4.1947-0.0794-8.9325 0.20077-9.1404 0.54045-13.14-0.35507-13.061-2.925 0.0585-1.9068 1.125-2.2851 7.6705-2.7214 14.895-0.99292 15.469-1.1479 16.219-4.3812 1.0328-6.7336 5.2176-25.395 10.825-25.714 2.3025 0.0707 2.6367 2.3736 2.2365 15.414l-0.37232 12.134 3.8073-0.4492c2.094-0.24713 10.872-0.75048 19.508-1.1187 18.086-0.77115 15.767-0.72581 20.244-0.39581 3.139 0.2313 3.3336 0.40198 1.7469 1.5321-1.7961 1.2792-11.507 2.7991-33.568 5.2534l-11.927 1.3269-0.22109 6.6902c-0.55807 16.867-3.4398 35.284-7.1594 45.753-1.4316 4.0291-1.8017 9.6958-2.2362 34.24-0.33751 19.056-0.8804 29.514-1.5413 29.703-0.56129 0.16013-1.5926-0.0963-2.2917-0.57017zm-61.16-26.205c1.3114-2.4047 3.028-6.5732 3.8146-9.2633 1.3961-4.7745 1.3789-4.877-0.72181-4.3001-1.1836 0.32504-3.4546 1.2044-5.0467 1.954-1.5921 0.74971-5.7095 1.4167-9.1499 1.4822l-6.2553 0.11913-0.27624 9.0029c-0.20166 6.5721 0.11897 9.4751 1.1875 10.752 5.7133 5.8767 13.839-5.1738 16.448-9.7466zm-3.8943-16.022c7.4958-2.8586 9.6306-4.8804 9.7646-9.2478 0.17147-5.5884-3.7737-10.132-9.4313-10.863-3.8557-0.49785-4.2428-0.32713-4.9302 2.1741-0.41027 1.4929-1.9428 5.4866-3.4056 8.8749-3.7379 8.6581-3.6376 10.338 0.62524 10.468 1.8776 0.0576 5.1974-0.57541 7.3773-1.4068zm-15.354-3.6431c0.34804-0.96299 1.5898-4.08 2.7595-6.9267 1.7665-4.2991 1.8897-5.2752 0.72732-5.7626-2.7781 0.84171-7.5016 10.23-7.2357 11.896 0.62684 2.8673 2.8307 3.3336 3.7488 0.79334zm87.683-36.509c0.75646-4.9842 1.5406-14.406 1.7426-20.937 0.33864-10.938 0.21784-11.88-1.5277-11.933-1.3138-0.0403-2.1184 0.90442-2.6235 3.0808-1.5988 6.8881-1.3897 41.243 0.24112 39.634 0.43573-0.43002 1.4111-4.8599 2.1676-9.8441zm2.52-47.721 0.22397-8.8446-2.1283 4.9927c-1.1705 2.746-2.181 6.6982-2.2454 8.7826-0.0963 3.1164 0.24208 3.8009 1.9042 3.8519 1.8709 0.0574 2.038-0.59611 2.2454-8.7826zm-154.96 117.14c-0.42056-0.70839-0.62296-11.456-0.44974-23.885l0.31491-22.597-3.3822-1.5366c-2.271-1.0318-3.3614-2.2112-3.3191-3.5901 0.0548-1.7858 0.50601-1.9563 3.4605-1.3076l3.3975 0.74592 1.9609-39.735c1.9026-38.554 1.9046-40.151 0.0683-53.722-1.4331-10.591-1.6-14.262-0.68721-15.121 0.91273-0.85841 1.6472-0.70834 3.0255 0.61805 1.0011 0.96341 2.5109 1.7729 3.3552 1.7988 0.84429 0.0259 6.8663 2.8814 13.382 6.3454 6.5159 3.4641 12.973 6.6812 14.35 7.1492 4.0414 1.3738 13.073 8.0441 17.505 12.928 5.416 5.9686 8.0691 13.844 8.3514 24.79-0.15084 20.861-0.56322 40.947-22.951 58.283-4.342 1.9759-9.698 4.9251-21.046 4.3153l-12.513-0.67225-0.10883 19.533c-0.0706 12.661 0.30466 20.366 1.0664 21.901 1.0003 2.0152 0.89361 2.568-0.71625 3.7121-2.3752 1.688-4.0817 1.7038-5.0655 0.0466zm56.136-93.87c2.0986-17.178-0.99219-30.127-8.8323-37.004-1.8707-1.6409-8.1426-5.4378-13.938-8.4375-5.7949-2.9997-14.453-7.6251-19.24-10.279-5.3577-2.97-8.7115-4.3276-8.7245-3.5317 4.9161 32.547 1.8086 57.779 0.82755 87.811l-0.44966 14.654 5.5231 1.3258c31.985 2.27 42.295-24.011 44.833-44.54zm264.77 86.045c-4.4011-2.3634-5.5629-6.0613-4.5-14.323 0.4819-3.7459 1.1761-8.1218 1.5425-9.7241 0.54696-2.3914 0.3711-2.8102-0.98243-2.338-2.2512 0.78558-2.0499-1.6061 0.37166-4.4158 2.1603-2.5066 4.9631-3.2396 5.5164-1.4426 0.19927 0.6467-0.17788 6.6219-0.83826 13.278-1.0689 10.779-1.018 12.246 0.4651 13.418 2.611 2.0627 5.6927 1.6754 9.7048-1.2196 4.3927-3.1696 9.145-9.6492 9.2353-12.592 0.0663-2.1597 2.8025-6.5241 4.0489-6.4583 2.8999 0.15311 3.1007 1.9197 0.89245 7.8518-3.0534 8.2026-2.6944 10.996 1.768 13.76 3.2363 2.0043 3.8835 2.0883 6.9985 0.90868 4.3756-1.6571 9.9516-6.2461 11.948-9.8334 2.9946-5.3797 1.9507-13.502-2.4348-18.942-3.7602-4.6652-10.561-2.5273-20.098 6.3178-4.0717 3.7764-7.5498 6.7102-7.7289 6.5196-0.62819-0.66796 3.6785-8.2934 6.103-10.806 7.4188-7.6886 16.633-11.004 22.109-7.9561 3.5209 1.9599 8.4057 11.74 8.6674 17.353 0.51511 11.053-15.503 25.604-25.166 22.861-2.7052-0.76789-8.5845-6.4191-8.5298-8.1991 0.0204-0.66381-1.7192 0.3977-3.8659 2.359-3.7059 3.386-8.2374 5.6535-10.854 5.4316-0.65761-0.0559-2.6254-0.8692-4.3728-1.8076zm0.99096-42.432c-2.582-1.0131-3.9326-3.7113-3.8127-7.6168 0.0638-2.0792-0.43492-3.9676-1.1137-4.2173-2.8555-1.0502 6.4291-11.239 11.117-12.2 4.191-0.85885 5.487-0.49022 8.1204 2.3099 5.1784 5.5063 5.4607 8.8503 1.2432 14.732-4.7655 6.6459-10.205 9.0912-15.554 6.9923zm9.0065-6.1584c1.2459-0.726 3.1091-2.7776 4.1401-4.5591 1.8706-3.2318 1.8684-3.2461-0.96224-6.3882-1.5604-1.732-3.2141-3.1607-3.675-3.1748-0.46079-0.0141-1.6458 1.5428-2.6332 3.4598s-2.1107 3.4758-2.4962 3.464c-1.1796-0.0362-3.4166 5.8317-2.8463 7.4661 0.63854 1.8298 5.1156 1.6882 8.4728-0.26787z" stroke-width="1.0111"/>
</svg>
