<?xml version="1.0" encoding="UTF-8" standalone="no"?>
<svg
   xmlns:dc="http://purl.org/dc/elements/1.1/"
   xmlns:cc="http://creativecommons.org/ns#"
   xmlns:rdf="http://www.w3.org/1999/02/22-rdf-syntax-ns#"
   xmlns:svg="http://www.w3.org/2000/svg"
   xmlns="http://www.w3.org/2000/svg"
   xmlns:sodipodi="http://sodipodi.sourceforge.net/DTD/sodipodi-0.dtd"
   xmlns:inkscape="http://www.inkscape.org/namespaces/inkscape"
   enable-background="new 0 0 4253.661 1017.313"
   version="1.1"
   viewBox="0 0 1e3 1e3"
   id="svg16"
   sodipodi:docname="page-easter.svg"
   inkscape:version="0.92.4 (5da689c313, 2019-01-14)">
  <metadata
     id="metadata22">
    <rdf:RDF>
      <cc:Work
         rdf:about="">
        <dc:format>image/svg+xml</dc:format>
        <dc:type
           rdf:resource="http://purl.org/dc/dcmitype/StillImage" />
      </cc:Work>
    </rdf:RDF>
  </metadata>
  <defs
     id="defs20" />
  <sodipodi:namedview
     pagecolor="#ffffff"
     bordercolor="#666666"
     borderopacity="1"
     objecttolerance="10"
     gridtolerance="10"
     guidetolerance="10"
     inkscape:pageopacity="0"
     inkscape:pageshadow="2"
     inkscape:window-width="1600"
     inkscape:window-height="872"
     id="namedview18"
     showgrid="false"
     inkscape:zoom="0.236"
     inkscape:cx="500"
     inkscape:cy="500"
     inkscape:window-x="1920"
     inkscape:window-y="0"
     inkscape:window-maximized="1"
     inkscape:current-layer="svg16" />
  <path
     id="home-sheet"
     d="m961.6 290.13s-12.769-19.034-8.9673-28.901c3.8004-9.867 9.3799-7.406 9.3799-7.406l1.729-151.79-207.65 8.1907-294.29-0.14476-438.58-6.9649 5.7094 201.48 6.9203 25.903h-6.1856l5.156 181.93 0.68594 291.81-3.7165 89.65 773.58-7.5399 158.37 1.8251-3.3201-51.328-4.2198-72.488 5.3942-474.16z"
     fill="#fff"
     stroke="#808184"
     stroke-linejoin="round"
     stroke-miterlimit="10"
     stroke-width="2" />
  <path
     id="home-sheet-frame"
     d="m64.189 862.12 1.8941-70.08-5.9528-282.21v-375.02l464.72 0.81174 415.34-3.1117-7.1704 631.67 5.5469 96.732-157.21 2.9764z"
     fill="none"
     stroke="#808184"
     stroke-miterlimit="10"
     stroke-width="1.3529" />
  <path
     id="home-sheet-frame-line1"
     d="m66.228 755.84c293.58 2.0427 573.25 0.61289 866.84 0.61289"
     fill="none"
     stroke="#808184"
     stroke-miterlimit="10"
     stroke-width="1.3529" />
  <path
     id="home-sheet-frame-line2"
     d="m316.7 863.3-4.8162-107.33"
     fill="none"
     stroke="#808184"
     stroke-miterlimit="10"
     stroke-width="1.3529" />
  <text
     id="home-project-name"
     x="344.16904"
     y="804.54724"
     fill="#000000"
     font-family="sans-serif"
     font-size="40px"
     letter-spacing="0px"
     word-spacing="0px"
     style="line-height:1.25"
     xml:space="preserve"><tspan
       id="tspan10"
       x="344.16904"
       y="804.54724"
       font-family="Lato"
       font-weight="200">Project name: Home</tspan></text>
  <text
     id="home-deployment-date"
     x="345.6557"
     y="839.05487"
     fill="#000000"
     font-family="sans-serif"
     font-size="40px"
     letter-spacing="0px"
     word-spacing="0px"
     style="line-height:1.25"
     xml:space="preserve"><tspan
       id="tspan13"
       x="345.6557"
       y="839.05487"
       font-family="Lato"
       font-size="26.667px"
       font-weight="200">Deployment date: ##date##</tspan></text>
  <path
     id="home-logo-hair"
     d="m87.322 775.65c2.2152 0.0435 21.711-1.763 28.398 1.173 6.6869 2.9359 5.7092 3.2238 9.7702 6.4673-0.64745-1.9182-0.0847-0.29843-1.3661-2.1148 4.6678 2.1825 11.377 5.2862 12.864 13.21 3.9432 3.2417 5.2744 4.9981 7.7808 11.357l-1.5562 26.034-3.5288-18.134s-4.4-3.8592-5.3069-7.638c-3.7688 0.30949-13.947-3.9209-17.059-2.2591-3.1122 1.6618-4.7925 3.0186-9.2888 1.12s-5.4585-1.45-10.408 1.0028c-3.4509 0.95377-11.848 5.185-11.848 5.185l-4.7468 20.435-1.246-26.601-6.0865-6.4459s0.84272-2.1452 4.1539-4.3333c3.3112-2.1881 5.3859-2.6351 5.3859-2.6351-3.4637-1.842-3.8391-2.9263-7.2065-4.5757 5.4874-6.0883 11.273-6.9188 14.063-6.7606-1.9248-1.0212-2.0887-2.3833-2.7688-4.4864z"
     fill="#231f20"
     stroke-width=".73135" />
  <path
     id="home-logo-left-eyebrow"
     d="m102.27 824.7c3.8141 1.0797 3.8802 0.56288 4.9638 0.6853-0.0153 0.85057-0.0698 2.0295-1.5683 2.2544-1.4985 0.22491-19.25-2.5674-21.71-1.0984 2.9844-6.0876 14.5-2.921 18.314-1.8413z"
     fill="#3e3734"
     stroke-width=".73135" />
  <path
     id="home-logo-right-eyebrow"
     d="m122.18 823.7c-3.6095 1.6327-4.3973 1.2553-5.481 1.3574 0.0153 0.70937 0.45769 1.8355 1.9562 2.0231 1.4985 0.18758 12.993-6.7832 21.322-1.059-1.4922-2.5385-4.6001-5.8624-8.3288-5.7242-3.7288 0.13817-7.3673 2.4524-9.4682 3.4027z"
     fill="#3e3734"
     stroke-width=".73135" />
  <path
     id="home-logo-glasses"
     d="m130.84 825.58c-5.2406 0.0341-10.291 1.6316-15.435 2.2703-2.1469 0.26661-4.3595 0.33201-6.51 0.0841-2.8593-0.32971-5.6276-1.2052-8.485-1.5977-2.5537-0.35055-5.1392-0.71678-7.7088-0.73134-4.4906-0.026-8.8337 1.345-13.236 2.0853 0 1.2556-0.26169 2.8674 0.39652 3.7501 0.67893 0.91027 1.8242 1.7427 2.1212 2.9764 0.7044 2.9256 1.7046 5.7934 2.9834 8.5428 0.62148 1.3361 1.7943 2.2676 3.1042 2.9092 3.1541 1.5452 6.8871 1.7724 10.347 1.2865 4.9276-0.69197 7.601-4.2973 9.6405-8.4167 0.76341-1.6745 0.84851-3.6072 1.8539-5.1375 0.59709-0.9089 1.9838-0.52631 2.9746-0.52969 0.99113-4e-3 1.8312 1.604 2.1386 2.6739 1.0884 3.7863 2.9033 7.8033 6.5102 9.7871 5.3861 2.9627 13.872 2.4085 17.366-2.9344 1.3678-2.0912 1.7453-4.6282 2.4315-6.9956 0.41775-1.4413 0.79109-3.1597 2.2765-3.9519 0.59945-0.31989 0.17883-1.5958 0.26721-2.3376 0.0964-0.80801 0.28249-1.523-0.8967-1.6815-2.0567-0.27702-4.0517-1.1191-6.1567-1.4042-1.9947-0.27021-3.949-0.66069-5.9843-0.64758zm-34.646 1.3453c1.4877-9e-3 2.969 0.097 4.415 0.39523 8.6151 1.7769 8.7892 5.2382 5.2427 12.394-2.89 5.8307-8.8765 7.2917-14.909 5.8941-2.7809-0.64421-4.6822-2.537-5.5791-5.1289-0.9465-2.7358-1.6625-5.6423-1.5003-8.5178 0.21717-3.8503 4.6833-4.3914 7.8812-4.7422 1.4675-0.16093 2.9617-0.28508 4.4493-0.29431zm31.456 0c1.4877 8e-3 2.982 0.13338 4.4495 0.29431 3.1978 0.35078 7.6643 0.89191 7.8812 4.7422 0.16207 2.8755-0.55386 5.782-1.5005 8.5178-0.89669 2.5919-2.7982 4.4847-5.5789 5.1289-6.032 1.3976-12.019-0.0634-14.909-5.8941-3.5465-7.1558-3.3721-10.617 5.243-12.394 1.4459-0.2982 2.9271-0.40431 4.4147-0.39523z"
     fill="#3d3e40" />
  <path
     id="home-logo-luis"
     d="m289.33 776.57c-1.9727 0-3.7238 0.30349-5.2559 0.91211-1.5111 0.60867-2.7925 1.4287-3.8418 2.457-1.0283 1.0073-1.8157 2.1719-2.3613 3.4941s-0.81836 2.7062-0.81836 4.1543c0 1.8469 0.32597 3.3907 0.97656 4.6289 0.6506 1.2173 1.4995 2.2445 2.5488 3.084 1.0703 0.81847 2.2882 1.5012 3.6524 2.0469 1.3641 0.52469 2.7501 1.0168 4.1562 1.4785 1.4271 0.44072 2.8214 0.91428 4.1856 1.418 1.3641 0.48273 2.5718 1.0916 3.6211 1.8262 1.0703 0.73454 1.9314 1.647 2.582 2.7383 0.65059 1.0913 0.97461 2.4754 0.97461 4.1543 0 1.574-0.2727 3.0543-0.81836 4.4394-0.54567 1.3851-1.3432 2.603-2.3926 3.6524-1.0283 1.0284-2.2975 1.8465-3.8086 2.4551-1.5111 0.58762-3.2211 0.88086-5.1309 0.88085-1.3431 1e-5 -2.5508-0.12511-3.6211-0.37695-1.0494-0.27283-1.9823-0.5988-2.8008-0.97656-0.7975-0.39874-1.4905-0.81904-2.0781-1.2598-0.5876-0.4617-1.092-0.88005-1.5117-1.2578-0.41977-0.39875-0.76623-0.72471-1.0391-0.97656-0.25184-0.27283-0.45074-0.4082-0.59765-0.4082-0.1469 0-0.26175 0.03081-0.3457 0.09375-0.06297 0.04197-0.14702 0.11577-0.25196 0.2207l-0.41015 0.6289c0.77653 0.90247 1.5844 1.7103 2.4238 2.4238 0.86047 0.71358 1.7953 1.3225 2.8027 1.8262 1.0283 0.48269 2.1397 0.84972 3.3359 1.1016 1.2173 0.27282 2.5724 0.41015 4.0625 0.41015 2.1827 0 4.1243-0.33621 5.8242-1.0078 1.7209-0.6926 3.1685-1.6275 4.3438-2.8027 1.1962-1.1963 2.0984-2.5906 2.707-4.1856 0.6296-1.616 0.94335-3.3382 0.94335-5.1641 1e-5 -1.7839-0.32401-3.2725-0.9746-4.4688-0.6506-1.2173-1.5117-2.2362-2.582-3.0547-1.0703-0.81846-2.2882-1.489-3.6523-2.0137-1.3431-0.54569-2.7272-1.05-4.1543-1.5117-1.4271-0.48271-2.8234-0.97678-4.1875-1.4805-1.3431-0.50367-2.5488-1.1229-3.6191-1.8574s-1.9314-1.6367-2.582-2.707c-0.6506-1.0913-0.97656-2.4446-0.97656-4.0606 0-1.2593 0.23164-2.4546 0.69336-3.5879 0.46167-1.1543 1.1444-2.1732 2.0469-3.0547 0.9024-0.88144 2.0137-1.5744 3.3359-2.0781 1.3431-0.52467 2.8748-0.78711 4.5957-0.78711 1.6999 0 3.127 0.21112 4.2812 0.63086 1.1543 0.39872 2.0995 0.84983 2.834 1.3535 0.73452 0.50367 1.3005 0.96504 1.6992 1.3848 0.41974 0.39875 0.74571 0.59765 0.97656 0.59766 0.23086 0 0.40924-0.10459 0.53516-0.31446l0.37695-0.6914c-1.4901-1.5111-3.0955-2.6244-4.8164-3.3379-1.6999-0.71353-3.6621-1.0703-5.8867-1.0703zm-92.672 0.50586v27.639c0 2.3925 0.37923 4.6396 1.1348 6.7383 0.75553 2.0777 1.836 3.8923 3.2422 5.4453 1.4061 1.5531 3.1161 2.7812 5.1309 3.6836 2.0148 0.88147 4.2824 1.3223 6.8008 1.3223 2.5185 0 4.7738-0.4408 6.7676-1.3223 2.0147-0.9024 3.7247-2.1305 5.1309-3.6836 1.4271-1.553 2.5179-3.3676 3.2734-5.4453 0.75553-2.0987 1.1348-4.3457 1.1348-6.7383v-27.639h-1.7637v27.639c0 2.1827-0.33621 4.2289-1.0078 6.1387-0.6506 1.8888-1.6041 3.5372-2.8633 4.9434-1.2382 1.4061-2.7596 2.5175-4.5645 3.3359-1.7839 0.79754-3.8198 1.1973-6.1074 1.1973s-4.3338-0.39973-6.1387-1.1973c-1.8049-0.81846-3.3384-1.9298-4.5976-3.3359-1.2382-1.4271-2.1917-3.0961-2.8633-5.0059-0.65059-1.9098-0.97656-3.956-0.97656-6.1387v-27.576h-1.7324zm56.207 0.00195v44.262h1.7305v-44.262h-1.7305zm-95.16 0.00196v44.262h23.674v-1.5117h-21.943v-42.75h-1.7305z" />
  <path
     id="home-logo-alejandro"
     d="m292.53 827.76c-2.8236 0-5.0042 0.72248-6.543 2.166-1.5229 1.4277-2.2832 3.5287-2.2832 6.3047s0.76034 4.8865 2.2832 6.3301c1.5387 1.4277 3.7194 2.1406 6.543 2.1406s5.0062-0.72053 6.5449-2.1641 2.3066-3.5464 2.3066-6.3066-0.76791-4.8612-2.3066-6.3047-3.7213-2.166-6.5449-2.166zm-80.857 0.28711v10.66c0 0.74554-0.14221 1.2765-0.42774 1.5938-0.26967 0.31726-0.69065 0.47461-1.2617 0.47461-0.57106 0-0.99962-0.15735-1.2852-0.47461-0.26968-0.31727-0.4043-0.84822-0.4043-1.5938v-0.19141h-4.9258v0.21485c0 0.64345 0.06519 1.2269 0.17969 1.7637h-8.8281v-2.498h7.6133v-3.7598h-7.6133v-2.2598h8.8984v-3.9258h-14.156v16.369h14.324v-3.0742c0.28937 0.77479 0.72738 1.4124 1.3184 1.9062 1.1739 0.96767 2.8558 1.4512 5.0449 1.4512 2.1891 0 3.8635-0.4835 5.0215-1.4512 1.1739-0.96766 1.7598-2.4752 1.7598-4.5215v-10.684h-5.2578zm-47.992 0.00195-5.9727 16.371h5.3789l0.68945-2.3086h5.7344l0.68945 2.3086h5.4512 0.11719 13.541v-4.1875h-8.4004v-12.182h-5.2578v16.049l-5.8555-16.051h-6.1152zm58.561 0-5.9726 16.371h5.377l0.69141-2.3086h5.7344l0.68946 2.3086h5.5684 4.7148v-7.9473l6.877 7.9473h4.5918v-16.371h-4.8301v8.0664l-6.877-8.0664h-4.5918v16.055l-5.8574-16.055h-6.1152zm29.738 0v16.371h7.0918c5.7265 0 8.5898-2.7287 8.5898-8.1855 0-5.4569-2.8633-8.1836-8.5898-8.1836l-7.0918-0.00195zm16.414 0v16.371h5.2578v-5.9726h1.9512l2.9024 5.9726h5.9023l-3.6406-6.8535c1.0311-0.38074 1.8161-0.97421 2.3555-1.7832 0.53935-0.809 0.8086-1.7135 0.8086-2.7129 0-0.90413-0.21427-1.7385-0.64258-2.5-0.41247-0.7773-1.0382-1.3879-1.8789-1.832-0.82486-0.46003-1.8242-0.68945-2.998-0.68945h-10.018zm24.137 3.6367c1.1263 0 1.9834 0.3413 2.5703 1.0234 0.60279 0.68214 0.9043 1.6018 0.9043 2.7598v1.5234c0 1.158-0.30151 2.0776-0.9043 2.7598-0.58693 0.68214-1.444 1.0234-2.5703 1.0234-1.1263 0-1.9814-0.3413-2.5684-1.0234-0.58693-0.68213-0.88086-1.6018-0.88086-2.7598v-1.5234c0-1.158 0.29393-2.0776 0.88086-2.7598 0.58693-0.68213 1.4421-1.0234 2.5684-1.0234zm-18.879 0.09961h3.4512c0.41247 0 0.76134 0.1422 1.0469 0.42773 0.28554 0.28557 0.42773 0.64201 0.42773 1.0703 0 0.42834-0.14219 0.79431-0.42773 1.0957-0.28556 0.28553-0.63444 0.42773-1.0469 0.42773h-3.4512v-3.0215zm-16.412 0.1914h1.7363c2.2049 0 3.3066 1.1813 3.3066 3.5449v1.4277c0 2.3636-1.1017 3.5449-3.3066 3.5449h-1.7363v-8.5176zm-90.631 0.64063h0.0957l1.7129 5.8301h-3.5469l1.7383-5.8301zm58.561 0h0.09375l1.7129 5.8301h-3.5449l1.7383-5.8301z" />
  <path
     style="fill:#000000;stroke-width:1.02232683"
     d="m 483.67795,712.9096 c -2.7578,-1.25174 -7.3461,-8.37334 -8.7489,-13.5796 -1.6325,-6.05828 -0.2364,-19.3292 2.7232,-25.86397 2.0408,-4.50773 3.2047,-5.74247 6.9914,-7.41762 2.499,-1.1053 7.2314,-2.28899 10.5169,-2.63038 7.139,-0.74186 8.1345,0.0617 11.5504,9.32195 3.4184,9.26708 3.1325,18.39214 -0.8287,26.42677 -3.874,7.85782 -9.9888,12.93281 -15.5832,12.93281 -2.0999,0 -3.9717,0.3989 -4.1589,0.88646 -0.1885,0.48755 -1.2955,0.45318 -2.4622,-0.0764 z m 6.1384,-6.8271 c 0.3067,-0.498 -0.4703,-1.1289 -1.7287,-1.40202 -1.2587,-0.27316 -3.2085,-0.82429 -4.3331,-1.22482 -1.7763,-0.63262 -1.728,-0.44867 0.369,1.40203 2.5511,2.2518 4.7638,2.72785 5.6928,1.22481 z m 9.7974,-6.76886 c 3.4599,-1.78907 5.3941,-7.36107 5.2353,-15.08066 -0.1214,-5.95777 -2.1766,-9.27148 -7.7834,-12.55724 -5.7024,-3.3417 -8.7224,-3.18966 -12.7309,0.64087 -3.2047,3.06267 -3.7229,5.5875 -0.6179,3.0105 2.0032,-1.66246 4.2044,-0.77885 4.9251,1.97708 0.4457,1.7055 0.1565,2.11472 -1.3198,1.87562 -1.0395,-0.16836 -3.3024,1.04533 -5.0288,2.6968 -2.5239,2.4142 -3.1392,3.83977 -3.1392,7.27399 0,4.64312 2.7698,9.18183 6.5307,10.70143 3.4794,1.40573 10.7099,1.12628 13.9289,-0.53839 z m 1.4619,-31.60171 c -1.0907,-0.79745 -2.2002,-1.23248 -2.466,-0.96674 -0.5626,0.56263 2.0737,2.37799 3.4868,2.401 0.529,0.01 0.07,-0.63682 -1.0208,-1.43426 z m -11.1107,-15.07789 c -1.8121,-5.66726 -2.9405,-26.58378 -1.8364,-34.03686 0.6888,-4.64868 1.0204,-5.1262 3.9832,-5.73213 1.7776,-0.36353 5.4209,-1.99193 8.0962,-3.61865 2.6753,-1.62671 6.0484,-3.66296 7.4956,-4.52498 15.3857,-9.16349 20.4459,-16.67865 24.37,-36.19391 1.4067,-6.99668 1.4584,-9.67086 0.3748,-19.42421 -1.691,-15.21966 -2.674,-18.95106 -7.8263,-29.71239 -5.0854,-10.62105 -10.2539,-17.09551 -15.9792,-20.01639 -4.8526,-2.47563 -21.6536,-3.75913 -27.9552,-2.13564 -15.3532,3.95538 -30.1587,12.33824 -30.1587,17.07563 0,1.90345 -1.4402,1.92501 -3.0005,0.0447 -1.2738,-1.5348 -1.4281,-1.24315 4.372,-8.2588 2.7622,-3.34125 7.563,-6.00077 18.4783,-10.23634 10.7938,-4.18844 18.6386,-5.17572 28.5561,-3.59376 10.3757,1.65505 14.3596,3.66584 19.6654,9.92564 11.5325,13.60576 17.8467,33.34344 17.7863,55.60119 -0.035,12.70941 -5.3912,30.25978 -11.6494,38.16665 -2.9951,3.78411 -18.2444,14.45529 -27.147,18.99704 l -4.1235,2.10366 -0.2555,6.87994 c -0.1406,3.78395 -0.2556,11.89777 -0.2556,18.03071 0,8.00428 -0.3604,11.27368 -1.2773,11.58619 -0.7025,0.23961 -1.4737,-0.17795 -1.7133,-0.92751 z"
     id="path827-3"
     inkscape:connector-curvature="0"
     sodipodi:nodetypes="cccccccsccccccccccccccccsccccccccccccccccscccsccccccsccc" />
</svg>
