<?xml version="1.0" encoding="UTF-8" standalone="no"?>
<svg
   xmlns:dc="http://purl.org/dc/elements/1.1/"
   xmlns:cc="http://creativecommons.org/ns#"
   xmlns:rdf="http://www.w3.org/1999/02/22-rdf-syntax-ns#"
   xmlns:svg="http://www.w3.org/2000/svg"
   xmlns="http://www.w3.org/2000/svg"
   xmlns:sodipodi="http://sodipodi.sourceforge.net/DTD/sodipodi-0.dtd"
   xmlns:inkscape="http://www.inkscape.org/namespaces/inkscape"
   enable-background="new 0 0 4253.661 1017.313"
   version="1.1"
   viewBox="0 0 1e3 1e3"
   id="svg16"
   sodipodi:docname="page-about.svg"
   inkscape:version="0.92.4 (5da689c313, 2019-01-14)">
  <metadata
     id="metadata22">
    <rdf:RDF>
      <cc:Work
         rdf:about="">
        <dc:format>image/svg+xml</dc:format>
        <dc:type
           rdf:resource="http://purl.org/dc/dcmitype/StillImage" />
      </cc:Work>
    </rdf:RDF>
  </metadata>
  <defs
     id="defs20" />
  <sodipodi:namedview
     pagecolor="#ffffff"
     bordercolor="#666666"
     borderopacity="1"
     objecttolerance="10"
     gridtolerance="10"
     guidetolerance="10"
     inkscape:pageopacity="0"
     inkscape:pageshadow="2"
     inkscape:window-width="1920"
     inkscape:window-height="1004"
     id="namedview18"
     showgrid="false"
     inkscape:zoom="1.3350176"
     inkscape:cx="575.58477"
     inkscape:cy="473.99111"
     inkscape:window-x="0"
     inkscape:window-y="48"
     inkscape:window-maximized="1"
     inkscape:current-layer="svg16" />
  <path
     id="home-sheet"
     d="m961.6 290.13s-12.769-19.034-8.9673-28.901c3.8004-9.867 9.3799-7.406 9.3799-7.406l1.729-151.79-207.65 8.1907-294.29-0.14476-438.58-6.9649 5.7094 201.48 6.9203 25.903h-6.1856l5.156 181.93 0.68594 291.81-3.7165 89.65 773.58-7.5399 158.37 1.8251-3.3201-51.328-4.2198-72.488 5.3942-474.16z"
     fill="#fff"
     stroke="#808184"
     stroke-linejoin="round"
     stroke-miterlimit="10"
     stroke-width="2" />
  <path
     id="home-sheet-frame"
     d="m64.189 862.12 1.8941-70.08-5.9528-282.21v-375.02l464.72 0.81174 415.34-3.1117-7.1704 631.67 5.5469 96.732-157.21 2.9764z"
     fill="none"
     stroke="#808184"
     stroke-miterlimit="10"
     stroke-width="1.3529" />
  <path
     id="home-sheet-frame-line1"
     d="m66.228 755.84c293.58 2.0427 573.25 0.61289 866.84 0.61289"
     fill="none"
     stroke="#808184"
     stroke-miterlimit="10"
     stroke-width="1.3529" />
  <path
     id="home-sheet-frame-line2"
     d="m316.7 863.3-4.8162-107.33"
     fill="none"
     stroke="#808184"
     stroke-miterlimit="10"
     stroke-width="1.3529" />
  <text
     id="home-project-name"
     x="344.16904"
     y="804.54724"
     font-size="40px"
     letter-spacing="0px"
     word-spacing="0px"
     style="font-size:40px;line-height:1.25;font-family:sans-serif;letter-spacing:0px;word-spacing:0px;fill:#000000"
     xml:space="preserve"><tspan
       id="tspan10"
       x="344.16904"
       y="804.54724"
       font-weight="200"
       style="font-weight:200;font-family:Lato">Project name: About</tspan></text>
  <text
     id="home-deployment-date"
     x="345.6557"
     y="839.05487"
     fill="#000000"
     font-family="sans-serif"
     font-size="40px"
     letter-spacing="0px"
     word-spacing="0px"
     style="line-height:1.25"
     xml:space="preserve"><tspan
       id="tspan13"
       x="345.6557"
       y="839.05487"
       font-family="Lato"
       font-size="26.667px"
       font-weight="200">Deployment date: ##date##</tspan></text>
  <path
     id="home-logo-hair"
     d="m87.322 775.65c2.2152 0.0435 21.711-1.763 28.398 1.173 6.6869 2.9359 5.7092 3.2238 9.7702 6.4673-0.64745-1.9182-0.0847-0.29843-1.3661-2.1148 4.6678 2.1825 11.377 5.2862 12.864 13.21 3.9432 3.2417 5.2744 4.9981 7.7808 11.357l-1.5562 26.034-3.5288-18.134s-4.4-3.8592-5.3069-7.638c-3.7688 0.30949-13.947-3.9209-17.059-2.2591-3.1122 1.6618-4.7925 3.0186-9.2888 1.12s-5.4585-1.45-10.408 1.0028c-3.4509 0.95377-11.848 5.185-11.848 5.185l-4.7468 20.435-1.246-26.601-6.0865-6.4459s0.84272-2.1452 4.1539-4.3333c3.3112-2.1881 5.3859-2.6351 5.3859-2.6351-3.4637-1.842-3.8391-2.9263-7.2065-4.5757 5.4874-6.0883 11.273-6.9188 14.063-6.7606-1.9248-1.0212-2.0887-2.3833-2.7688-4.4864z"
     fill="#231f20"
     stroke-width=".73135" />
  <path
     id="home-logo-left-eyebrow"
     d="m102.27 824.7c3.8141 1.0797 3.8802 0.56288 4.9638 0.6853-0.0153 0.85057-0.0698 2.0295-1.5683 2.2544-1.4985 0.22491-19.25-2.5674-21.71-1.0984 2.9844-6.0876 14.5-2.921 18.314-1.8413z"
     fill="#3e3734"
     stroke-width=".73135" />
  <path
     id="home-logo-right-eyebrow"
     d="m122.18 823.7c-3.6095 1.6327-4.3973 1.2553-5.481 1.3574 0.0153 0.70937 0.45769 1.8355 1.9562 2.0231 1.4985 0.18758 12.993-6.7832 21.322-1.059-1.4922-2.5385-4.6001-5.8624-8.3288-5.7242-3.7288 0.13817-7.3673 2.4524-9.4682 3.4027z"
     fill="#3e3734"
     stroke-width=".73135" />
  <path
     id="home-logo-glasses"
     d="m130.84 825.58c-5.2406 0.0341-10.291 1.6316-15.435 2.2703-2.1469 0.26661-4.3595 0.33201-6.51 0.0841-2.8593-0.32971-5.6276-1.2052-8.485-1.5977-2.5537-0.35055-5.1392-0.71678-7.7088-0.73134-4.4906-0.026-8.8337 1.345-13.236 2.0853 0 1.2556-0.26169 2.8674 0.39652 3.7501 0.67893 0.91027 1.8242 1.7427 2.1212 2.9764 0.7044 2.9256 1.7046 5.7934 2.9834 8.5428 0.62148 1.3361 1.7943 2.2676 3.1042 2.9092 3.1541 1.5452 6.8871 1.7724 10.347 1.2865 4.9276-0.69197 7.601-4.2973 9.6405-8.4167 0.76341-1.6745 0.84851-3.6072 1.8539-5.1375 0.59709-0.9089 1.9838-0.52631 2.9746-0.52969 0.99113-4e-3 1.8312 1.604 2.1386 2.6739 1.0884 3.7863 2.9033 7.8033 6.5102 9.7871 5.3861 2.9627 13.872 2.4085 17.366-2.9344 1.3678-2.0912 1.7453-4.6282 2.4315-6.9956 0.41775-1.4413 0.79109-3.1597 2.2765-3.9519 0.59945-0.31989 0.17883-1.5958 0.26721-2.3376 0.0964-0.80801 0.28249-1.523-0.8967-1.6815-2.0567-0.27702-4.0517-1.1191-6.1567-1.4042-1.9947-0.27021-3.949-0.66069-5.9843-0.64758zm-34.646 1.3453c1.4877-9e-3 2.969 0.097 4.415 0.39523 8.6151 1.7769 8.7892 5.2382 5.2427 12.394-2.89 5.8307-8.8765 7.2917-14.909 5.8941-2.7809-0.64421-4.6822-2.537-5.5791-5.1289-0.9465-2.7358-1.6625-5.6423-1.5003-8.5178 0.21717-3.8503 4.6833-4.3914 7.8812-4.7422 1.4675-0.16093 2.9617-0.28508 4.4493-0.29431zm31.456 0c1.4877 8e-3 2.982 0.13338 4.4495 0.29431 3.1978 0.35078 7.6643 0.89191 7.8812 4.7422 0.16207 2.8755-0.55386 5.782-1.5005 8.5178-0.89669 2.5919-2.7982 4.4847-5.5789 5.1289-6.032 1.3976-12.019-0.0634-14.909-5.8941-3.5465-7.1558-3.3721-10.617 5.243-12.394 1.4459-0.2982 2.9271-0.40431 4.4147-0.39523z"
     fill="#3d3e40" />
  <path
     id="home-logo-luis"
     d="m289.33 776.57c-1.9727 0-3.7238 0.30349-5.2559 0.91211-1.5111 0.60867-2.7925 1.4287-3.8418 2.457-1.0283 1.0073-1.8157 2.1719-2.3613 3.4941s-0.81836 2.7062-0.81836 4.1543c0 1.8469 0.32597 3.3907 0.97656 4.6289 0.6506 1.2173 1.4995 2.2445 2.5488 3.084 1.0703 0.81847 2.2882 1.5012 3.6524 2.0469 1.3641 0.52469 2.7501 1.0168 4.1562 1.4785 1.4271 0.44072 2.8214 0.91428 4.1856 1.418 1.3641 0.48273 2.5718 1.0916 3.6211 1.8262 1.0703 0.73454 1.9314 1.647 2.582 2.7383 0.65059 1.0913 0.97461 2.4754 0.97461 4.1543 0 1.574-0.2727 3.0543-0.81836 4.4394-0.54567 1.3851-1.3432 2.603-2.3926 3.6524-1.0283 1.0284-2.2975 1.8465-3.8086 2.4551-1.5111 0.58762-3.2211 0.88086-5.1309 0.88085-1.3431 1e-5 -2.5508-0.12511-3.6211-0.37695-1.0494-0.27283-1.9823-0.5988-2.8008-0.97656-0.7975-0.39874-1.4905-0.81904-2.0781-1.2598-0.5876-0.4617-1.092-0.88005-1.5117-1.2578-0.41977-0.39875-0.76623-0.72471-1.0391-0.97656-0.25184-0.27283-0.45074-0.4082-0.59765-0.4082-0.1469 0-0.26175 0.03081-0.3457 0.09375-0.06297 0.04197-0.14702 0.11577-0.25196 0.2207l-0.41015 0.6289c0.77653 0.90247 1.5844 1.7103 2.4238 2.4238 0.86047 0.71358 1.7953 1.3225 2.8027 1.8262 1.0283 0.48269 2.1397 0.84972 3.3359 1.1016 1.2173 0.27282 2.5724 0.41015 4.0625 0.41015 2.1827 0 4.1243-0.33621 5.8242-1.0078 1.7209-0.6926 3.1685-1.6275 4.3438-2.8027 1.1962-1.1963 2.0984-2.5906 2.707-4.1856 0.6296-1.616 0.94335-3.3382 0.94335-5.1641 1e-5 -1.7839-0.32401-3.2725-0.9746-4.4688-0.6506-1.2173-1.5117-2.2362-2.582-3.0547-1.0703-0.81846-2.2882-1.489-3.6523-2.0137-1.3431-0.54569-2.7272-1.05-4.1543-1.5117-1.4271-0.48271-2.8234-0.97678-4.1875-1.4805-1.3431-0.50367-2.5488-1.1229-3.6191-1.8574s-1.9314-1.6367-2.582-2.707c-0.6506-1.0913-0.97656-2.4446-0.97656-4.0606 0-1.2593 0.23164-2.4546 0.69336-3.5879 0.46167-1.1543 1.1444-2.1732 2.0469-3.0547 0.9024-0.88144 2.0137-1.5744 3.3359-2.0781 1.3431-0.52467 2.8748-0.78711 4.5957-0.78711 1.6999 0 3.127 0.21112 4.2812 0.63086 1.1543 0.39872 2.0995 0.84983 2.834 1.3535 0.73452 0.50367 1.3005 0.96504 1.6992 1.3848 0.41974 0.39875 0.74571 0.59765 0.97656 0.59766 0.23086 0 0.40924-0.10459 0.53516-0.31446l0.37695-0.6914c-1.4901-1.5111-3.0955-2.6244-4.8164-3.3379-1.6999-0.71353-3.6621-1.0703-5.8867-1.0703zm-92.672 0.50586v27.639c0 2.3925 0.37923 4.6396 1.1348 6.7383 0.75553 2.0777 1.836 3.8923 3.2422 5.4453 1.4061 1.5531 3.1161 2.7812 5.1309 3.6836 2.0148 0.88147 4.2824 1.3223 6.8008 1.3223 2.5185 0 4.7738-0.4408 6.7676-1.3223 2.0147-0.9024 3.7247-2.1305 5.1309-3.6836 1.4271-1.553 2.5179-3.3676 3.2734-5.4453 0.75553-2.0987 1.1348-4.3457 1.1348-6.7383v-27.639h-1.7637v27.639c0 2.1827-0.33621 4.2289-1.0078 6.1387-0.6506 1.8888-1.6041 3.5372-2.8633 4.9434-1.2382 1.4061-2.7596 2.5175-4.5645 3.3359-1.7839 0.79754-3.8198 1.1973-6.1074 1.1973s-4.3338-0.39973-6.1387-1.1973c-1.8049-0.81846-3.3384-1.9298-4.5976-3.3359-1.2382-1.4271-2.1917-3.0961-2.8633-5.0059-0.65059-1.9098-0.97656-3.956-0.97656-6.1387v-27.576h-1.7324zm56.207 0.00195v44.262h1.7305v-44.262h-1.7305zm-95.16 0.00196v44.262h23.674v-1.5117h-21.943v-42.75h-1.7305z" />
  <path
     id="home-logo-alejandro"
     d="m292.53 827.76c-2.8236 0-5.0042 0.72248-6.543 2.166-1.5229 1.4277-2.2832 3.5287-2.2832 6.3047s0.76034 4.8865 2.2832 6.3301c1.5387 1.4277 3.7194 2.1406 6.543 2.1406s5.0062-0.72053 6.5449-2.1641 2.3066-3.5464 2.3066-6.3066-0.76791-4.8612-2.3066-6.3047-3.7213-2.166-6.5449-2.166zm-80.857 0.28711v10.66c0 0.74554-0.14221 1.2765-0.42774 1.5938-0.26967 0.31726-0.69065 0.47461-1.2617 0.47461-0.57106 0-0.99962-0.15735-1.2852-0.47461-0.26968-0.31727-0.4043-0.84822-0.4043-1.5938v-0.19141h-4.9258v0.21485c0 0.64345 0.06519 1.2269 0.17969 1.7637h-8.8281v-2.498h7.6133v-3.7598h-7.6133v-2.2598h8.8984v-3.9258h-14.156v16.369h14.324v-3.0742c0.28937 0.77479 0.72738 1.4124 1.3184 1.9062 1.1739 0.96767 2.8558 1.4512 5.0449 1.4512 2.1891 0 3.8635-0.4835 5.0215-1.4512 1.1739-0.96766 1.7598-2.4752 1.7598-4.5215v-10.684h-5.2578zm-47.992 0.00195-5.9727 16.371h5.3789l0.68945-2.3086h5.7344l0.68945 2.3086h5.4512 0.11719 13.541v-4.1875h-8.4004v-12.182h-5.2578v16.049l-5.8555-16.051h-6.1152zm58.561 0-5.9726 16.371h5.377l0.69141-2.3086h5.7344l0.68946 2.3086h5.5684 4.7148v-7.9473l6.877 7.9473h4.5918v-16.371h-4.8301v8.0664l-6.877-8.0664h-4.5918v16.055l-5.8574-16.055h-6.1152zm29.738 0v16.371h7.0918c5.7265 0 8.5898-2.7287 8.5898-8.1855 0-5.4569-2.8633-8.1836-8.5898-8.1836l-7.0918-0.00195zm16.414 0v16.371h5.2578v-5.9726h1.9512l2.9024 5.9726h5.9023l-3.6406-6.8535c1.0311-0.38074 1.8161-0.97421 2.3555-1.7832 0.53935-0.809 0.8086-1.7135 0.8086-2.7129 0-0.90413-0.21427-1.7385-0.64258-2.5-0.41247-0.7773-1.0382-1.3879-1.8789-1.832-0.82486-0.46003-1.8242-0.68945-2.998-0.68945h-10.018zm24.137 3.6367c1.1263 0 1.9834 0.3413 2.5703 1.0234 0.60279 0.68214 0.9043 1.6018 0.9043 2.7598v1.5234c0 1.158-0.30151 2.0776-0.9043 2.7598-0.58693 0.68214-1.444 1.0234-2.5703 1.0234-1.1263 0-1.9814-0.3413-2.5684-1.0234-0.58693-0.68213-0.88086-1.6018-0.88086-2.7598v-1.5234c0-1.158 0.29393-2.0776 0.88086-2.7598 0.58693-0.68213 1.4421-1.0234 2.5684-1.0234zm-18.879 0.09961h3.4512c0.41247 0 0.76134 0.1422 1.0469 0.42773 0.28554 0.28557 0.42773 0.64201 0.42773 1.0703 0 0.42834-0.14219 0.79431-0.42773 1.0957-0.28556 0.28553-0.63444 0.42773-1.0469 0.42773h-3.4512v-3.0215zm-16.412 0.1914h1.7363c2.2049 0 3.3066 1.1813 3.3066 3.5449v1.4277c0 2.3636-1.1017 3.5449-3.3066 3.5449h-1.7363v-8.5176zm-90.631 0.64063h0.0957l1.7129 5.8301h-3.5469l1.7383-5.8301zm58.561 0h0.09375l1.7129 5.8301h-3.5449l1.7383-5.8301z" />
  <path
     style="fill:#000000;stroke-width:1.17152512"
     d="m 408.41351,709.88873 c -0.50061,-3.06061 -1.02227,-6.09193 -1.15923,-6.73627 -2.1924,-10.31414 -3.36015,-16.72824 -5.22756,-28.71437 -1.22776,-7.88034 -2.38863,-14.46698 -2.57959,-14.637 -0.32839,-0.29215 -22.03723,2.56165 -27.50118,3.61551 -2.13061,0.41095 -2.68701,1.57457 -3.37114,7.05024 -0.45067,3.6069 -0.51811,9.10183 -0.14974,12.21091 0.4975,4.20062 0.22223,6.0241 -1.07172,7.09795 -3.47518,2.88414 -4.58165,-0.62326 -4.39201,-13.92252 0.11349,-7.95462 -0.28703,-12.82088 -1.09622,-13.32192 -0.91412,-0.56596 -0.91657,-1.22901 -0.007,-2.34305 1.49852,-1.83944 5.02606,-37.75141 5.02606,-51.17313 0,-15.23294 3.43326,-36.48766 5.89387,-36.48766 1.82355,0 6.93905,4.901 11.00527,10.54372 7.1027,9.85688 12.04328,26.02078 16.31499,53.37867 2.04936,13.12456 3.14474,17.47235 4.38209,17.39353 0.90745,-0.0579 3.97077,-0.47227 6.80751,-0.92108 4.36345,-0.69032 4.94629,-0.56134 3.7852,0.83775 -0.75483,0.90951 -3.73483,2.31508 -6.62205,3.12347 -2.88733,0.80839 -5.2488,1.53305 -5.24785,1.61041 0,0.15083 6.35351,36.88495 8.22821,47.58738 1.48549,8.48067 1.43969,9.3722 -0.48208,9.3722 -1.02897,0 -1.95788,-2.03955 -2.53449,-5.56474 z m -20.44322,-53.68067 c 4.83254,-0.44137 9.37267,-1.26634 10.08917,-1.83325 0.89435,-0.70757 0.99027,-2.95646 0.30606,-7.17197 -0.54827,-3.37765 -1.59551,-9.83151 -2.32712,-14.34188 -0.73148,-4.51037 -3.13383,-15.02602 -5.33839,-23.36808 -3.06119,-11.5836 -5.05806,-16.70467 -8.45079,-21.67322 -2.44333,-3.5782 -5.28959,-6.67062 -6.32492,-6.87205 -2.30622,-0.44877 -3.94442,5.15167 -4.82683,16.50155 -0.48062,6.18203 -0.98811,46.2588 -0.7433,58.69915 0.037,1.87547 0.6912,2.10128 4.43653,1.53108 2.41627,-0.36786 8.34712,-1.02996 13.17966,-1.47133 z m 57.32821,24.9317 c -4.23038,-1.44215 -9.12358,-3.56045 -10.87399,-4.70733 -4.07958,-2.67309 -2.93313,-4.901 1.37552,-2.67295 3.2423,1.67671 14.88598,4.37232 20.0497,4.64177 4.02829,0.21014 8.27704,-6.29076 8.24647,-12.61795 -0.041,-8.38365 -2.25822,-20.99585 -4.8105,-27.3576 -3.22898,-8.04841 -6.38188,-8.31376 -13.27726,-1.11738 -3.70059,3.86212 -5.63818,7.47144 -8.328,15.51345 -2.20225,6.58419 -4.18421,10.61105 -5.33139,10.83199 -1.60708,0.30936 -1.91087,-3.7599 -2.53518,-33.96496 -0.39001,-18.87415 -0.32181,-36.1618 0.15193,-38.41698 1.61916,-7.70948 3.10816,-2.93899 3.10816,9.95796 0,7.08773 0.17463,21.05816 0.38767,31.04541 0.38353,17.96351 0.40871,18.11405 2.34305,14.0083 1.07546,-2.28268 3.91791,-6.87678 6.31661,-10.20908 6.86385,-9.53537 15.05669,-10.33241 19.07887,-1.85613 5.01295,10.5639 6.99543,35.22607 3.40961,42.41415 -1.78317,3.57429 -6.9284,7.2226 -10.09726,7.15963 -0.83753,-0.0183 -4.98378,-1.21015 -9.21405,-2.6523 z m 134.59593,0.0465 c -1.99862,-1.60338 -4.4909,-5.94051 -7.57366,-13.17966 -1.67857,-3.94171 -2.0681,-4.27867 -2.452,-2.1213 -0.53352,2.9983 -8.86647,10.90774 -11.4916,10.90774 -0.9903,0 -3.89243,-1.06712 -6.44891,-2.37139 -3.75123,-1.91372 -5.2823,-3.77901 -7.9331,-9.66508 l -3.28473,-7.2937 -3.0817,6.7291 c -3.55884,7.77127 -8.2255,12.60107 -12.17529,12.60107 -2.06071,0 -2.77326,-0.6662 -2.81895,-2.63593 -0.033,-1.44977 -0.16548,-8.54818 -0.29288,-15.7743 -0.18342,-10.4098 -0.63178,-13.53832 -2.15806,-15.06412 -1.78716,-1.78662 -2.35817,-1.64292 -7.90779,1.99012 -5.75102,3.76503 -5.98144,4.12216 -5.98144,9.27189 0,7.27634 -4.09086,18.86547 -7.95737,22.54285 -4.80406,4.56902 -8.64032,5.08201 -12.59118,1.6836 -3.23235,-2.78025 -3.32724,-3.21225 -4.28848,-19.50066 -0.77427,-13.12068 -0.65056,-17.32342 0.58283,-19.79424 0.86118,-1.72525 2.17069,-3.01133 2.90993,-2.858 0.75318,0.15632 1.0484,-0.49139 0.67165,-1.47345 -1.24146,-3.23491 2.78039,-7.59182 7.00795,-7.59182 5.08735,0 9.55836,4.71752 11.38052,12.00814 0.7649,3.06061 1.64215,5.56474 1.94942,5.56474 0.30716,0 2.12002,-1.1117 4.02818,-2.47045 1.9083,-1.35875 5.10821,-2.54492 7.11116,-2.63593 2.97567,-0.1351 4.06998,0.55753 5.98367,3.78783 1.9738,3.33152 2.32899,5.95731 2.25859,16.69423 -0.0458,7.00752 0.16548,12.74092 0.46978,12.74092 5.39077,0 14.86292,-18.37035 17.36354,-33.67519 0.71628,-4.38363 2.35392,-7.18453 3.49722,-5.98108 0.21417,0.22552 -0.10909,3.30971 -0.71906,6.85357 -2.36556,13.74602 -2.3358,14.78721 0.61245,21.45381 1.57325,3.5573 4.22452,7.36157 5.89171,8.45394 4.23602,2.77557 10.4313,1.46675 13.50758,-2.85365 5.21786,-7.32767 5.17477,-5.82464 1.67682,-58.43823 l -0.64562,-9.71092 -6.85332,0.77537 c -7.83457,0.88637 -12.8446,-0.011 -12.8446,-2.30406 0,-1.52342 6.86034,-3.0422 13.92896,-3.08368 4.2735,-0.0256 5.97255,-1.38463 6.6845,-5.34881 0.97061,-5.40439 2.81705,-6.26367 2.81705,-1.31094 0,3.71948 0.37408,4.33212 2.63593,4.3167 5.39135,-0.0366 6.00348,-1.38412 4.86194,-10.70356 -0.76794,-6.26938 -1.51772,-8.60866 -2.75895,-8.60866 -0.93744,0 -1.99181,1.21729 -2.34305,2.70509 -0.95666,4.05267 -2.93163,3.67134 -3.34811,-0.6465 -0.30459,-3.15854 0.16292,-4.04023 2.77348,-5.22973 2.76842,-1.26133 3.3823,-1.13151 5.18671,1.09677 2.17365,2.68437 4.22675,15.82419 2.82641,18.08989 -0.60871,0.98507 0.85357,1.10064 5.50489,0.43503 26.888,-3.84761 29.87565,-2.49139 7.54835,3.42661 l -12.00776,3.1827 -0.69834,16.58667 c -0.77474,18.40089 -0.87864,19.19566 -4.46563,34.15955 -2.202,9.18629 -2.35184,11.37712 -1.16439,17.01677 1.79781,8.53847 5.17862,14.03622 8.61097,14.00294 3.51442,-0.0329 12.52979,-4.1796 15.83279,-7.28037 2.24677,-2.10918 2.63593,-2.1869 2.63593,-0.52641 0,3.14569 -3.68269,6.73908 -9.95796,9.71648 -6.59463,3.12889 -9.84151,3.47617 -12.50698,1.3377 z m -84.3888,-6.2279 c 4.49397,-3.14775 9.91261,-17.10295 7.90322,-20.35419 -0.36098,-0.5839 -3.00602,0.25188 -5.87813,1.85701 -3.36531,1.88092 -6.58854,2.78611 -9.06573,2.54591 l -3.84389,-0.37269 0.10178,5.89665 c 0.16767,9.68493 1.20422,12.26199 4.93128,12.26199 1.77746,0 4.41035,-0.8256 5.85107,-1.83468 z m 4.35207,-24.23176 c 4.01156,-3.7503 4.05278,-3.8866 2.74748,-9.07931 -1.61344,-6.41835 -5.11641,-10.54373 -8.95268,-10.54373 -2.26104,0 -2.73588,0.4797 -2.26328,2.28689 0.32913,1.25778 0.0798,2.45965 -0.55376,2.67082 -1.28857,0.42951 -4.45707,11.66118 -4.45707,15.7993 0,2.33968 0.58726,2.67349 4.70331,2.67349 3.68983,0 5.58092,-0.82043 8.776,-3.80746 z m 77.22287,-15.18043 c 1.11002,-5.42314 1.8483,-14.94896 1.8483,-23.84874 0,-13.03146 -0.22369,-14.73303 -1.85313,-14.10769 -1.01923,0.39115 -2.93863,0.71112 -4.26553,0.71112 -2.3537,0 -2.39327,0.37763 -1.62607,15.52271 1.17658,23.22262 2.11896,32.75031 3.13526,31.69784 0.5021,-0.5199 1.74462,-5.00878 2.76117,-9.97524 z"
     id="path827"
     inkscape:connector-curvature="0"
     sodipodi:nodetypes="cccccccccccssccccccccsccccccsccccccccccccccccccscccccccccccsccccsccccsccccccscsccccsccccccsccsccscssccccccccccsccsccccccccsccccsccssccscsccc" />
</svg>
