<?xml version="1.0" encoding="UTF-8" standalone="no"?>
<svg
   xmlns:dc="http://purl.org/dc/elements/1.1/"
   xmlns:cc="http://creativecommons.org/ns#"
   xmlns:rdf="http://www.w3.org/1999/02/22-rdf-syntax-ns#"
   xmlns:svg="http://www.w3.org/2000/svg"
   xmlns="http://www.w3.org/2000/svg"
   xmlns:sodipodi="http://sodipodi.sourceforge.net/DTD/sodipodi-0.dtd"
   xmlns:inkscape="http://www.inkscape.org/namespaces/inkscape"
   enable-background="new 0 0 4253.661 1017.313"
   version="1.1"
   viewBox="0 0 1e3 1e3"
   id="svg16"
   sodipodi:docname="page-clients.svg"
   inkscape:version="0.92.4 (5da689c313, 2019-01-14)">
  <metadata
     id="metadata22">
    <rdf:RDF>
      <cc:Work
         rdf:about="">
        <dc:format>image/svg+xml</dc:format>
        <dc:type
           rdf:resource="http://purl.org/dc/dcmitype/StillImage" />
      </cc:Work>
    </rdf:RDF>
  </metadata>
  <defs
     id="defs20" />
  <sodipodi:namedview
     pagecolor="#ffffff"
     bordercolor="#666666"
     borderopacity="1"
     objecttolerance="10"
     gridtolerance="10"
     guidetolerance="10"
     inkscape:pageopacity="0"
     inkscape:pageshadow="2"
     inkscape:window-width="1600"
     inkscape:window-height="872"
     id="namedview18"
     showgrid="false"
     inkscape:zoom="0.236"
     inkscape:cx="500"
     inkscape:cy="500"
     inkscape:window-x="1920"
     inkscape:window-y="0"
     inkscape:window-maximized="1"
     inkscape:current-layer="svg16" />
  <path
     id="home-sheet"
     d="m961.6 290.13s-12.769-19.034-8.9673-28.901c3.8004-9.867 9.3799-7.406 9.3799-7.406l1.729-151.79-207.65 8.1907-294.29-0.14476-438.58-6.9649 5.7094 201.48 6.9203 25.903h-6.1856l5.156 181.93 0.68594 291.81-3.7165 89.65 773.58-7.5399 158.37 1.8251-3.3201-51.328-4.2198-72.488 5.3942-474.16z"
     fill="#fff"
     stroke="#808184"
     stroke-linejoin="round"
     stroke-miterlimit="10"
     stroke-width="2" />
  <path
     id="home-sheet-frame"
     d="m64.189 862.12 1.8941-70.08-5.9528-282.21v-375.02l464.72 0.81174 415.34-3.1117-7.1704 631.67 5.5469 96.732-157.21 2.9764z"
     fill="none"
     stroke="#808184"
     stroke-miterlimit="10"
     stroke-width="1.3529" />
  <path
     id="home-sheet-frame-line1"
     d="m66.228 755.84c293.58 2.0427 573.25 0.61289 866.84 0.61289"
     fill="none"
     stroke="#808184"
     stroke-miterlimit="10"
     stroke-width="1.3529" />
  <path
     id="home-sheet-frame-line2"
     d="m316.7 863.3-4.8162-107.33"
     fill="none"
     stroke="#808184"
     stroke-miterlimit="10"
     stroke-width="1.3529" />
  <text
     id="home-project-name"
     x="344.16904"
     y="804.54724"
     fill="#000000"
     font-family="sans-serif"
     font-size="40px"
     letter-spacing="0px"
     word-spacing="0px"
     style="line-height:1.25"
     xml:space="preserve"><tspan
       id="tspan10"
       x="344.16904"
       y="804.54724"
       font-family="Lato"
       font-weight="200">Project name: Home</tspan></text>
  <text
     id="home-deployment-date"
     x="345.6557"
     y="839.05487"
     fill="#000000"
     font-family="sans-serif"
     font-size="40px"
     letter-spacing="0px"
     word-spacing="0px"
     style="line-height:1.25"
     xml:space="preserve"><tspan
       id="tspan13"
       x="345.6557"
       y="839.05487"
       font-family="Lato"
       font-size="26.667px"
       font-weight="200">Deployment date: ##date##</tspan></text>
  <path
     id="home-logo-hair"
     d="m87.322 775.65c2.2152 0.0435 21.711-1.763 28.398 1.173 6.6869 2.9359 5.7092 3.2238 9.7702 6.4673-0.64745-1.9182-0.0847-0.29843-1.3661-2.1148 4.6678 2.1825 11.377 5.2862 12.864 13.21 3.9432 3.2417 5.2744 4.9981 7.7808 11.357l-1.5562 26.034-3.5288-18.134s-4.4-3.8592-5.3069-7.638c-3.7688 0.30949-13.947-3.9209-17.059-2.2591-3.1122 1.6618-4.7925 3.0186-9.2888 1.12s-5.4585-1.45-10.408 1.0028c-3.4509 0.95377-11.848 5.185-11.848 5.185l-4.7468 20.435-1.246-26.601-6.0865-6.4459s0.84272-2.1452 4.1539-4.3333c3.3112-2.1881 5.3859-2.6351 5.3859-2.6351-3.4637-1.842-3.8391-2.9263-7.2065-4.5757 5.4874-6.0883 11.273-6.9188 14.063-6.7606-1.9248-1.0212-2.0887-2.3833-2.7688-4.4864z"
     fill="#231f20"
     stroke-width=".73135" />
  <path
     id="home-logo-left-eyebrow"
     d="m102.27 824.7c3.8141 1.0797 3.8802 0.56288 4.9638 0.6853-0.0153 0.85057-0.0698 2.0295-1.5683 2.2544-1.4985 0.22491-19.25-2.5674-21.71-1.0984 2.9844-6.0876 14.5-2.921 18.314-1.8413z"
     fill="#3e3734"
     stroke-width=".73135" />
  <path
     id="home-logo-right-eyebrow"
     d="m122.18 823.7c-3.6095 1.6327-4.3973 1.2553-5.481 1.3574 0.0153 0.70937 0.45769 1.8355 1.9562 2.0231 1.4985 0.18758 12.993-6.7832 21.322-1.059-1.4922-2.5385-4.6001-5.8624-8.3288-5.7242-3.7288 0.13817-7.3673 2.4524-9.4682 3.4027z"
     fill="#3e3734"
     stroke-width=".73135" />
  <path
     id="home-logo-glasses"
     d="m130.84 825.58c-5.2406 0.0341-10.291 1.6316-15.435 2.2703-2.1469 0.26661-4.3595 0.33201-6.51 0.0841-2.8593-0.32971-5.6276-1.2052-8.485-1.5977-2.5537-0.35055-5.1392-0.71678-7.7088-0.73134-4.4906-0.026-8.8337 1.345-13.236 2.0853 0 1.2556-0.26169 2.8674 0.39652 3.7501 0.67893 0.91027 1.8242 1.7427 2.1212 2.9764 0.7044 2.9256 1.7046 5.7934 2.9834 8.5428 0.62148 1.3361 1.7943 2.2676 3.1042 2.9092 3.1541 1.5452 6.8871 1.7724 10.347 1.2865 4.9276-0.69197 7.601-4.2973 9.6405-8.4167 0.76341-1.6745 0.84851-3.6072 1.8539-5.1375 0.59709-0.9089 1.9838-0.52631 2.9746-0.52969 0.99113-4e-3 1.8312 1.604 2.1386 2.6739 1.0884 3.7863 2.9033 7.8033 6.5102 9.7871 5.3861 2.9627 13.872 2.4085 17.366-2.9344 1.3678-2.0912 1.7453-4.6282 2.4315-6.9956 0.41775-1.4413 0.79109-3.1597 2.2765-3.9519 0.59945-0.31989 0.17883-1.5958 0.26721-2.3376 0.0964-0.80801 0.28249-1.523-0.8967-1.6815-2.0567-0.27702-4.0517-1.1191-6.1567-1.4042-1.9947-0.27021-3.949-0.66069-5.9843-0.64758zm-34.646 1.3453c1.4877-9e-3 2.969 0.097 4.415 0.39523 8.6151 1.7769 8.7892 5.2382 5.2427 12.394-2.89 5.8307-8.8765 7.2917-14.909 5.8941-2.7809-0.64421-4.6822-2.537-5.5791-5.1289-0.9465-2.7358-1.6625-5.6423-1.5003-8.5178 0.21717-3.8503 4.6833-4.3914 7.8812-4.7422 1.4675-0.16093 2.9617-0.28508 4.4493-0.29431zm31.456 0c1.4877 8e-3 2.982 0.13338 4.4495 0.29431 3.1978 0.35078 7.6643 0.89191 7.8812 4.7422 0.16207 2.8755-0.55386 5.782-1.5005 8.5178-0.89669 2.5919-2.7982 4.4847-5.5789 5.1289-6.032 1.3976-12.019-0.0634-14.909-5.8941-3.5465-7.1558-3.3721-10.617 5.243-12.394 1.4459-0.2982 2.9271-0.40431 4.4147-0.39523z"
     fill="#3d3e40" />
  <path
     id="home-logo-luis"
     d="m289.33 776.57c-1.9727 0-3.7238 0.30349-5.2559 0.91211-1.5111 0.60867-2.7925 1.4287-3.8418 2.457-1.0283 1.0073-1.8157 2.1719-2.3613 3.4941s-0.81836 2.7062-0.81836 4.1543c0 1.8469 0.32597 3.3907 0.97656 4.6289 0.6506 1.2173 1.4995 2.2445 2.5488 3.084 1.0703 0.81847 2.2882 1.5012 3.6524 2.0469 1.3641 0.52469 2.7501 1.0168 4.1562 1.4785 1.4271 0.44072 2.8214 0.91428 4.1856 1.418 1.3641 0.48273 2.5718 1.0916 3.6211 1.8262 1.0703 0.73454 1.9314 1.647 2.582 2.7383 0.65059 1.0913 0.97461 2.4754 0.97461 4.1543 0 1.574-0.2727 3.0543-0.81836 4.4394-0.54567 1.3851-1.3432 2.603-2.3926 3.6524-1.0283 1.0284-2.2975 1.8465-3.8086 2.4551-1.5111 0.58762-3.2211 0.88086-5.1309 0.88085-1.3431 1e-5 -2.5508-0.12511-3.6211-0.37695-1.0494-0.27283-1.9823-0.5988-2.8008-0.97656-0.7975-0.39874-1.4905-0.81904-2.0781-1.2598-0.5876-0.4617-1.092-0.88005-1.5117-1.2578-0.41977-0.39875-0.76623-0.72471-1.0391-0.97656-0.25184-0.27283-0.45074-0.4082-0.59765-0.4082-0.1469 0-0.26175 0.03081-0.3457 0.09375-0.06297 0.04197-0.14702 0.11577-0.25196 0.2207l-0.41015 0.6289c0.77653 0.90247 1.5844 1.7103 2.4238 2.4238 0.86047 0.71358 1.7953 1.3225 2.8027 1.8262 1.0283 0.48269 2.1397 0.84972 3.3359 1.1016 1.2173 0.27282 2.5724 0.41015 4.0625 0.41015 2.1827 0 4.1243-0.33621 5.8242-1.0078 1.7209-0.6926 3.1685-1.6275 4.3438-2.8027 1.1962-1.1963 2.0984-2.5906 2.707-4.1856 0.6296-1.616 0.94335-3.3382 0.94335-5.1641 1e-5 -1.7839-0.32401-3.2725-0.9746-4.4688-0.6506-1.2173-1.5117-2.2362-2.582-3.0547-1.0703-0.81846-2.2882-1.489-3.6523-2.0137-1.3431-0.54569-2.7272-1.05-4.1543-1.5117-1.4271-0.48271-2.8234-0.97678-4.1875-1.4805-1.3431-0.50367-2.5488-1.1229-3.6191-1.8574s-1.9314-1.6367-2.582-2.707c-0.6506-1.0913-0.97656-2.4446-0.97656-4.0606 0-1.2593 0.23164-2.4546 0.69336-3.5879 0.46167-1.1543 1.1444-2.1732 2.0469-3.0547 0.9024-0.88144 2.0137-1.5744 3.3359-2.0781 1.3431-0.52467 2.8748-0.78711 4.5957-0.78711 1.6999 0 3.127 0.21112 4.2812 0.63086 1.1543 0.39872 2.0995 0.84983 2.834 1.3535 0.73452 0.50367 1.3005 0.96504 1.6992 1.3848 0.41974 0.39875 0.74571 0.59765 0.97656 0.59766 0.23086 0 0.40924-0.10459 0.53516-0.31446l0.37695-0.6914c-1.4901-1.5111-3.0955-2.6244-4.8164-3.3379-1.6999-0.71353-3.6621-1.0703-5.8867-1.0703zm-92.672 0.50586v27.639c0 2.3925 0.37923 4.6396 1.1348 6.7383 0.75553 2.0777 1.836 3.8923 3.2422 5.4453 1.4061 1.5531 3.1161 2.7812 5.1309 3.6836 2.0148 0.88147 4.2824 1.3223 6.8008 1.3223 2.5185 0 4.7738-0.4408 6.7676-1.3223 2.0147-0.9024 3.7247-2.1305 5.1309-3.6836 1.4271-1.553 2.5179-3.3676 3.2734-5.4453 0.75553-2.0987 1.1348-4.3457 1.1348-6.7383v-27.639h-1.7637v27.639c0 2.1827-0.33621 4.2289-1.0078 6.1387-0.6506 1.8888-1.6041 3.5372-2.8633 4.9434-1.2382 1.4061-2.7596 2.5175-4.5645 3.3359-1.7839 0.79754-3.8198 1.1973-6.1074 1.1973s-4.3338-0.39973-6.1387-1.1973c-1.8049-0.81846-3.3384-1.9298-4.5976-3.3359-1.2382-1.4271-2.1917-3.0961-2.8633-5.0059-0.65059-1.9098-0.97656-3.956-0.97656-6.1387v-27.576h-1.7324zm56.207 0.00195v44.262h1.7305v-44.262h-1.7305zm-95.16 0.00196v44.262h23.674v-1.5117h-21.943v-42.75h-1.7305z" />
  <path
     id="home-logo-alejandro"
     d="m292.53 827.76c-2.8236 0-5.0042 0.72248-6.543 2.166-1.5229 1.4277-2.2832 3.5287-2.2832 6.3047s0.76034 4.8865 2.2832 6.3301c1.5387 1.4277 3.7194 2.1406 6.543 2.1406s5.0062-0.72053 6.5449-2.1641 2.3066-3.5464 2.3066-6.3066-0.76791-4.8612-2.3066-6.3047-3.7213-2.166-6.5449-2.166zm-80.857 0.28711v10.66c0 0.74554-0.14221 1.2765-0.42774 1.5938-0.26967 0.31726-0.69065 0.47461-1.2617 0.47461-0.57106 0-0.99962-0.15735-1.2852-0.47461-0.26968-0.31727-0.4043-0.84822-0.4043-1.5938v-0.19141h-4.9258v0.21485c0 0.64345 0.06519 1.2269 0.17969 1.7637h-8.8281v-2.498h7.6133v-3.7598h-7.6133v-2.2598h8.8984v-3.9258h-14.156v16.369h14.324v-3.0742c0.28937 0.77479 0.72738 1.4124 1.3184 1.9062 1.1739 0.96767 2.8558 1.4512 5.0449 1.4512 2.1891 0 3.8635-0.4835 5.0215-1.4512 1.1739-0.96766 1.7598-2.4752 1.7598-4.5215v-10.684h-5.2578zm-47.992 0.00195-5.9727 16.371h5.3789l0.68945-2.3086h5.7344l0.68945 2.3086h5.4512 0.11719 13.541v-4.1875h-8.4004v-12.182h-5.2578v16.049l-5.8555-16.051h-6.1152zm58.561 0-5.9726 16.371h5.377l0.69141-2.3086h5.7344l0.68946 2.3086h5.5684 4.7148v-7.9473l6.877 7.9473h4.5918v-16.371h-4.8301v8.0664l-6.877-8.0664h-4.5918v16.055l-5.8574-16.055h-6.1152zm29.738 0v16.371h7.0918c5.7265 0 8.5898-2.7287 8.5898-8.1855 0-5.4569-2.8633-8.1836-8.5898-8.1836l-7.0918-0.00195zm16.414 0v16.371h5.2578v-5.9726h1.9512l2.9024 5.9726h5.9023l-3.6406-6.8535c1.0311-0.38074 1.8161-0.97421 2.3555-1.7832 0.53935-0.809 0.8086-1.7135 0.8086-2.7129 0-0.90413-0.21427-1.7385-0.64258-2.5-0.41247-0.7773-1.0382-1.3879-1.8789-1.832-0.82486-0.46003-1.8242-0.68945-2.998-0.68945h-10.018zm24.137 3.6367c1.1263 0 1.9834 0.3413 2.5703 1.0234 0.60279 0.68214 0.9043 1.6018 0.9043 2.7598v1.5234c0 1.158-0.30151 2.0776-0.9043 2.7598-0.58693 0.68214-1.444 1.0234-2.5703 1.0234-1.1263 0-1.9814-0.3413-2.5684-1.0234-0.58693-0.68213-0.88086-1.6018-0.88086-2.7598v-1.5234c0-1.158 0.29393-2.0776 0.88086-2.7598 0.58693-0.68213 1.4421-1.0234 2.5684-1.0234zm-18.879 0.09961h3.4512c0.41247 0 0.76134 0.1422 1.0469 0.42773 0.28554 0.28557 0.42773 0.64201 0.42773 1.0703 0 0.42834-0.14219 0.79431-0.42773 1.0957-0.28556 0.28553-0.63444 0.42773-1.0469 0.42773h-3.4512v-3.0215zm-16.412 0.1914h1.7363c2.2049 0 3.3066 1.1813 3.3066 3.5449v1.4277c0 2.3636-1.1017 3.5449-3.3066 3.5449h-1.7363v-8.5176zm-90.631 0.64063h0.0957l1.7129 5.8301h-3.5469l1.7383-5.8301zm58.561 0h0.09375l1.7129 5.8301h-3.5449l1.7383-5.8301z" />
  <path
     style="fill:#000000;stroke-width:0.85239339"
     d="m 363.21363,702.62431 c -8.05547,-1.81544 -12.92277,-5.82984 -13.63774,-11.24803 -0.17022,-1.28913 -0.36424,-2.34392 -0.43137,-2.34392 -1.5152,0 -1.09809,-26.90175 0.49806,-32.12364 0.24161,-0.79062 1.01992,-5.39354 1.72944,-10.22872 2.43957,-16.62532 2.70171,-18.18672 4.18802,-24.94463 1.64284,-7.46962 3.29854,-11.98025 4.72007,-12.85881 0.51046,-0.31546 0.12493,1.00085 -0.85681,2.92511 -0.9817,1.92427 -1.4776,3.4987 -1.10204,3.4987 0.9673,0 3.08672,-5.22512 2.89851,-7.14588 -0.0865,-0.8829 0.31174,-2.17044 0.88499,-2.86116 1.05146,-1.26693 2.65185,-3.86356 3.7914,-6.15149 2.46296,-4.94509 14.34152,-15.88963 20.46059,-18.85183 2.55712,-1.23789 6.15501,-2.05568 10.18034,-2.31403 7.15147,-0.45894 6.31557,-1.5658 8.07094,10.6871 0.55411,3.86773 1.34414,7.03224 1.75564,7.03224 0.41151,0 0.74818,0.43717 0.74818,0.97151 0,0.53432 0.67126,1.48108 1.49169,2.10387 0.911,0.69156 1.07692,1.1429 0.42619,1.15947 -0.58602,0.016 -1.06549,0.84123 -1.06549,1.83627 0,1.52357 0.20485,1.63909 1.29813,0.73183 1.37929,-1.14474 1.37791,-1.0022 -0.0293,2.99957 l -0.59945,1.70479 -0.65623,-1.70479 c -0.92016,-2.39046 -2.09617,4.94596 -2.0837,12.999 0.005,3.39892 -0.29389,6.17986 -0.66476,6.17986 -0.37087,0 -0.6743,0.72016 -0.6743,1.60042 0,0.8802 -0.61154,2.10794 -1.35899,2.72824 -1.15993,0.96267 -1.59405,0.82194 -2.9644,-0.96113 -1.75844,-2.28801 -1.75337,-2.20099 -1.76118,-30.21793 l -0.005,-16.19548 -2.8718,-0.0618 c -1.57949,-0.0341 -2.79856,0.29767 -2.7091,0.73713 0.18967,0.93103 -10.43355,5.00213 -11.43599,4.38261 -0.74846,-0.46259 -2.64314,2.57837 -2.0044,3.21711 0.22081,0.22083 -0.3915,1.11904 -1.36061,1.99607 -1.51423,1.37033 -1.88249,1.41955 -2.61826,0.34993 -0.67281,-0.97812 -0.75943,-0.87958 -0.40436,0.46011 0.32034,1.20867 -1.02769,3.54567 -4.63233,8.03064 -2.79628,3.47925 -5.08416,6.83555 -5.08416,7.45844 0,0.62292 -0.29655,1.13259 -0.65903,1.13259 -0.36244,0 -1.5573,2.78094 -2.65518,6.17985 -1.09788,3.39892 -2.32104,7.1388 -2.71809,8.31083 -0.79919,2.35901 -2.08475,10.94511 -3.36274,22.45956 -0.46045,4.14847 -1.00276,7.81062 -1.20515,8.1381 -0.20244,0.32744 -0.61226,3.83763 -0.91081,7.80038 -0.29856,3.96274 -0.76391,7.97214 -1.03414,8.90978 -0.27024,0.93762 -0.43825,4.50316 -0.37333,7.92342 0.093,4.89137 0.61719,7.23809 2.45695,10.99534 3.04299,6.21464 5.77555,7.47916 14.71061,6.80759 10.61517,-0.7979 21.50039,-7.23157 42.93113,-25.37431 1.33626,-1.13126 3.22745,-2.91988 4.2026,-3.97471 2.95271,-3.194 3.41351,-2.15169 0.75367,1.70478 -4.24156,6.14975 -13.82378,15.55833 -22.30272,21.89862 -13.69665,10.24193 -22.89663,13.55513 -31.96474,11.51147 z m 88.37022,-8.80874 c -1.25318,-1.35418 -2.76085,-3.06716 -3.35036,-3.80658 -1.1617,-1.45717 -3.94522,-0.93797 -3.3511,0.62508 0.51146,1.34563 -0.88551,4.79124 -1.94255,4.79124 -0.48392,0 -0.91014,-0.67126 -0.94715,-1.49168 -0.037,-0.82043 -0.25359,-1.03377 -0.48125,-0.47407 -0.22775,0.55968 -0.95423,0.81029 -1.61451,0.5569 -1.02383,-0.39286 -1.01087,-0.91464 0.0882,-3.54491 0.70876,-1.69632 1.70652,-3.34244 2.2172,-3.65808 0.5107,-0.31562 0.69966,-0.94423 0.41991,-1.39688 -0.27976,-0.45264 0.56727,-2.51954 1.88227,-4.5931 l 2.39094,-3.7701 0.13851,-17.02512 c 0.23841,-29.29562 1.85551,-55.51788 4.06147,-65.86105 1.13174,-5.30636 1.55019,-6.14507 2.85866,-5.72977 1.06433,0.33779 1.67109,-0.0418 1.98496,-1.24217 0.24853,-0.95077 0.10441,-1.72868 -0.32052,-1.72868 -0.42495,0 -0.77261,-0.38358 -0.77261,-0.8524 0,-0.46881 0.34254,-0.85239 0.76121,-0.85239 1.57367,0 1.79908,2.96263 0.55182,7.25307 -2.36127,8.12245 -4.49886,36.83836 -4.64722,62.43008 -0.0762,13.14676 0.60285,15.78463 2.52348,9.80253 0.56441,-1.75806 1.52322,-3.77184 2.13066,-4.47506 0.60744,-0.70323 1.38202,-2.42932 1.72133,-3.83577 0.3393,-1.40645 1.30261,-3.53954 2.1407,-4.74016 0.83809,-1.20066 1.76893,-3.31033 2.0685,-4.68817 0.29958,-1.37787 1.05619,-3.8477 1.68136,-5.48856 4.09645,-10.75172 7.1266,-28.55698 7.2254,-42.45689 0.024,-3.35939 0.35817,-5.18004 0.89062,-4.85094 0.46881,0.28973 0.85239,-0.0937 0.85239,-0.8524 0,-0.75856 -0.31627,-1.18373 -0.70285,-0.9448 -0.38658,0.23895 -1.14047,-2.71116 -1.67532,-6.55575 -1.0879,-7.8198 -2.51227,-13.39291 -3.41554,-13.36374 -0.32956,0.0109 -1.22711,1.25727 -1.9945,2.77027 -0.7674,1.51303 -1.85073,2.64554 -2.40745,2.51673 -0.55667,-0.12893 -0.77887,0.1433 -0.49372,0.60461 0.28512,0.46136 0.0498,1.5891 -0.52279,2.50609 -1.01296,1.62202 -1.06964,1.61241 -2.0899,-0.35414 -0.57681,-1.11179 -0.96558,-2.5177 -0.86395,-3.12427 0.28288,-1.6884 2.54417,-4.93863 3.43593,-4.93863 0.43635,0 1.47936,-0.62084 2.3178,-1.37962 2.09227,-1.89346 5.52154,-0.89883 7.00326,2.03125 2.95053,5.83465 4.42365,24.28988 3.00977,37.70607 -1.01008,9.58429 -3.75252,23.43544 -5.82251,29.40757 -0.81249,2.34409 -1.96894,5.79628 -2.56988,7.67154 -1.28427,4.00745 -3.77957,9.60152 -9.50552,21.3098 -3.59708,7.35521 -4.16808,9.23207 -4.16445,13.68848 0.002,3.12313 0.48458,5.81858 1.21949,6.81916 1.17712,1.6026 1.29669,1.60679 3.80539,0.13265 1.42454,-0.83708 4.70818,-2.19273 7.29695,-3.01263 3.38668,-1.07257 6.08547,-2.79736 9.62221,-6.14959 4.32933,-4.10344 5.1447,-5.42116 6.83851,-11.05189 1.05774,-3.51613 2.30746,-8.50259 2.77721,-11.08109 1.01392,-5.56576 4.15888,-8.78948 5.40547,-5.54092 0.45034,1.17357 -0.49308,5.482 -4.04919,18.49176 -2.64004,9.65844 1.82485,13.44317 15.0353,12.74485 2.23154,-0.118 2.34407,-0.33068 2.34407,-4.43068 0,-5.61366 2.21226,-15.46734 4.67855,-20.83881 2.60627,-5.67636 3.1614,-7.24766 3.51767,-9.95704 0.50171,-3.81543 3.83276,-6.66463 7.79167,-6.66463 3.42183,0 3.4351,0.0133 4.18137,4.04887 0.61114,3.30513 0.39321,5.1394 -1.18637,9.98568 -1.06427,3.26525 -1.93501,6.40946 -1.93501,6.98714 0,0.57766 -0.95895,2.85385 -2.13099,5.05814 -1.17204,2.20431 -2.13099,4.55167 -2.13099,5.21635 0,0.66468 -0.95894,2.46573 -2.13097,4.00236 -1.17205,1.53662 -2.13099,3.19016 -2.13099,3.67453 0,0.48437 -0.57536,1.35816 -1.27859,1.94179 -1.75542,1.45686 -1.60807,4.87805 0.25305,5.87407 3.3941,1.81646 13.48974,-6.3178 17.29318,-13.93343 1.06415,-2.13077 2.25045,-3.87415 2.63615,-3.87415 0.38571,0 0.70131,-0.69482 0.70131,-1.54406 0,-0.84923 0.76715,-2.3675 1.70479,-3.37394 0.93763,-1.00641 1.70478,-2.09406 1.70478,-2.41701 0,-1.04432 6.03173,-7.98287 7.7294,-8.89142 3.05674,-1.63593 4.82002,0.28819 5.4807,5.9806 0.60372,5.20165 1.51385,6.00948 2.47154,2.19374 0.29009,-1.15579 0.96688,-3.17319 1.504,-4.48311 0.53712,-1.30991 1.06666,-2.76523 1.17678,-3.23406 0.11001,-0.46881 1.22439,-3.3958 2.47615,-6.5044 2.38124,-5.9135 5.57055,-9.78014 7.46672,-9.05251 2.39558,0.91924 4.33627,9.12891 4.66359,19.72819 0.38163,12.35732 3.01267,24.90831 5.37897,25.65935 2.57263,0.81652 5.38219,-1.1538 9.48932,-6.65474 5.9589,-7.98112 9.08511,-16.70279 10.09468,-28.16249 1.4073,-15.97492 3.42097,-40.8082 3.66226,-45.16459 l 0.22828,-4.12197 -4.41534,0.55166 c -3.58917,0.44844 -4.56159,0.29038 -5.19681,-0.84467 -0.60711,-1.08489 -1.47707,-1.26586 -3.89996,-0.81132 -3.28569,0.61639 -3.48672,2.03237 -0.31288,2.20376 1.39065,0.0751 1.21452,0.24373 -0.68959,0.66063 -4.01719,0.87938 -7.24535,0.13958 -7.24535,-1.66033 0,-2.06247 1.28059,-2.76346 6.39295,-3.49942 7.68052,-1.10566 16.19228,-3.74555 16.24678,-5.03889 0.23894,-5.66744 1.4426,-18.22319 2.07806,-21.67519 0.43149,-2.34409 0.94727,-5.41271 1.14617,-6.81916 0.38276,-2.70648 2.20323,-9.80252 2.5148,-9.80252 0.46522,0 -0.0583,26.67712 -0.6313,32.17785 -0.7248,6.95631 -0.50299,7.17473 4.9656,4.88981 2.72511,-1.13864 3.08746,-1.64464 3.08746,-4.31175 0,-3.11262 1.53967,-18.05436 2.21149,-21.46169 0.20804,-1.05485 0.80397,-1.91789 1.32437,-1.91789 0.66381,0 0.77302,2.09894 0.36592,7.03224 -0.89424,10.83629 -1.483,16.36359 -1.79759,16.87547 -0.15769,0.25679 0.045,1.00386 0.45054,1.66015 0.61924,1.00194 1.73782,0.88784 6.97602,-0.71156 6.01468,-1.83648 14.88574,-3.84376 29.25315,-6.61921 9.1404,-1.76571 11.50732,-1.85838 11.50732,-0.45049 0,0.8777 -8.13159,4.37563 -10.1719,4.37563 -0.78139,0 -1.78506,0.3295 -2.23043,0.73223 -0.44538,0.40273 -4.83733,1.78393 -9.7599,3.06934 -16.05859,4.19326 -26.56692,7.6583 -27.28301,8.99628 -0.3863,0.7218 -1.12516,4.35233 -1.64195,8.06783 -0.51676,3.71553 -1.22036,6.96565 -1.56351,7.22249 -0.34313,0.25678 -0.76116,2.38489 -0.92894,4.72897 -0.16782,2.34408 -0.839,5.29774 -1.49169,6.5637 -0.65264,1.26599 -1.19473,3.18387 -1.20462,4.26196 -0.0109,1.07813 -0.95335,4.61108 -2.09654,7.851 -1.14321,3.23992 -1.8999,6.17988 -1.68151,6.53325 0.21843,0.35336 0.0919,0.77112 -0.28099,0.92836 -1.46204,0.61647 -3.69555,11.65962 -4.17724,20.6536 l -0.50696,9.46607 2.89441,1.04559 c 5.70536,2.06103 13.38639,-1.02612 19.2942,-7.75476 1.3857,-1.57822 3.24665,-3.27638 4.13546,-3.77371 1.81672,-1.0165 1.8633,-1.25387 2.79278,-14.2365 0.64244,-8.9732 1.39612,-12.64481 3.33638,-16.25378 0.48684,-0.90557 1.33205,-2.8563 1.87822,-4.33496 0.77267,-2.0919 1.64278,-2.81034 3.92136,-3.23782 3.58918,-0.67333 5.09358,0.0475 3.67256,1.75972 -0.8232,0.99189 -0.75069,1.12103 0.38483,0.68529 1.16746,-0.44799 1.39915,0.0882 1.39915,3.23822 0,4.69443 -1.8604,10.31761 -6.12306,18.50735 l -3.29511,6.33081 2.77701,2.86513 c 1.52736,1.57584 5.46846,4.66949 8.75798,6.87479 3.28948,2.2053 6.42712,4.43141 6.97252,4.94687 1.30692,1.23528 4.54896,7.31323 4.54896,8.52814 0,1.50599 -3.97059,5.39595 -6.4827,6.35105 -2.79728,1.06352 -13.16069,0.91011 -14.57672,-0.21576 -0.56546,-0.44964 -1.40203,-0.58645 -1.85896,-0.30404 -0.45697,0.28244 -1.03587,0.18167 -1.28648,-0.22375 -0.49093,-0.79433 5.8553,-2.35191 12.61153,-3.09531 4.29936,-0.47306 6.47896,-1.61156 6.47896,-3.38427 0,-1.8917 -5.18486,-6.55114 -11.20437,-10.06895 -2.17748,-1.27252 -4.93364,-3.47193 -6.12483,-4.88757 -2.11037,-2.50804 -4.83303,-3.46164 -4.83303,-1.69277 0,0.48461 -1.12494,1.9808 -2.49988,3.32481 -1.37491,1.34404 -2.29203,2.65153 -2.03801,2.90555 0.75562,0.75561 -6.67139,8.28909 -10.75897,10.91319 -3.64512,2.34003 -9.42254,3.35118 -9.42254,1.64909 0,-0.46338 -1.26719,-0.43379 -3.10042,0.0725 -3.95199,1.0912 -6.02728,-0.72105 -6.93857,-6.05915 l -0.63343,-3.71053 -3.18774,5.02286 c -1.75323,2.76258 -3.18771,5.44275 -3.18771,5.95597 0,0.51319 -1.58284,2.3976 -3.5174,4.18752 -3.0892,2.85823 -3.98834,3.23661 -7.38581,3.10811 -3.95613,-0.1497 -6.28104,-1.31023 -6.02148,-3.0059 0.0801,-0.52351 -0.0727,-1.52718 -0.33987,-2.2304 -2.71695,-7.15427 -2.9268,-10.02191 -0.8488,-11.59932 1.05239,-0.79887 1.15068,-1.14034 0.33377,-1.15947 -0.79625,-0.0186 -0.99616,-0.67152 -0.64004,-2.09036 0.2848,-1.13478 0.25944,-2.73693 -0.0567,-3.56034 -0.53526,-1.39486 -0.61302,-1.38727 -1.1387,0.11135 -0.31032,0.88462 -0.79502,-2.98224 -1.07713,-8.59309 -0.70976,-14.11614 -1.09165,-14.73641 -4.54273,-7.37831 -1.54672,3.2978 -3.46458,8.04233 -4.26185,10.54338 -0.79729,2.50103 -1.77133,4.96621 -2.16455,5.47818 -0.39322,0.51193 -0.50984,1.13592 -0.25918,1.38657 0.75682,0.75682 -6.66607,20.98022 -8.64229,23.54564 -0.12332,0.16009 -0.9244,-0.11587 -1.77998,-0.61338 -0.88212,-0.51298 -1.08134,-0.91584 -0.46013,-0.93052 0.78647,-0.0186 0.86566,-0.45539 0.2807,-1.54837 -0.54636,-1.0209 -0.3978,-3.33747 0.45097,-7.03222 2.28207,-9.93387 2.43793,-11.11196 2.146,-16.2227 -0.33184,-5.81 -1.28088,-6.30771 -4.39935,-2.30721 -1.17205,1.50356 -2.70635,3.35246 -3.40958,4.1087 -0.70322,0.7562 -2.42666,3.63838 -3.82985,6.40479 -9.91148,19.54051 -18.89458,25.66932 -26.49053,18.07338 -2.43893,-2.43894 -3.47784,-2.97011 -4.61691,-2.36049 -0.80841,0.43264 -3.34711,0.65845 -5.64158,0.50177 -2.29449,-0.15663 -4.84304,-0.33235 -5.66346,-0.39042 -0.82043,-0.058 -1.39581,-0.58504 -1.2786,-1.17106 0.12307,-0.61455 -0.45353,-0.95135 -1.36207,-0.79584 -1.85374,0.31733 -4.71102,-2.03613 -5.74071,-4.72842 -0.75064,-1.96276 -3.33901,-1.87358 -3.33901,0.11508 0,2.81947 -13.24044,11.58909 -17.49735,11.58909 -0.6904,0 -1.25531,0.32201 -1.25531,0.71558 0,0.63985 -3.65524,2.69399 -4.79383,2.69399 -0.24825,0 -1.47699,-1.10796 -2.73016,-2.46214 z m 58.31492,-17.35601 c 0.90711,-1.05483 2.35903,-3.45219 3.22647,-5.32745 0.86744,-1.87527 1.8742,-4.00511 2.23722,-4.73298 1.56797,-3.14394 4.43838,-15.2897 4.72337,-19.98641 0.28728,-4.73411 0.22349,-4.95347 -0.85919,-2.95022 -0.64323,1.19029 -2.07181,2.64706 -3.17463,3.23727 -1.9047,1.01935 -5.80053,9.1661 -5.80053,12.12971 0,0.69761 -0.57385,2.08764 -1.27519,3.08895 -0.70133,1.00129 -1.27341,2.71683 -1.27129,3.81232 0.002,1.09549 -0.23121,4.38913 -0.5183,7.31924 -0.56202,5.73381 0.0508,6.50427 2.71207,3.40957 z m 121.25695,-30.68613 c 3.71812,-6.02973 5.39179,-13.97739 3.54519,-16.83477 -0.45447,-0.70322 -0.83218,-0.86817 -0.83934,-0.36653 -0.008,0.50164 -1.39415,2.52554 -3.08213,4.49758 -2.25127,2.6301 -2.8321,3.87103 -2.17976,4.65707 0.56136,0.67635 0.59777,1.53257 0.0989,2.32157 -1.02605,1.6223 -1.0534,8.49536 -0.0339,8.49536 0.43057,0 1.55157,-1.24663 2.49113,-2.77028 z m -32.25533,-7.45844 c 0,-0.46882 -0.38358,-0.8524 -0.85239,-0.8524 -0.46883,0 -0.8524,0.38358 -0.8524,0.8524 0,0.46881 0.38357,0.85239 0.8524,0.85239 0.46881,0 0.85239,-0.38358 0.85239,-0.85239 z m 0.57566,-2.26566 c -0.3085,-0.30849 -0.24001,-0.97975 0.15182,-1.4917 0.392,-0.51196 1.21496,-2.84869 1.82881,-5.19277 0.61383,-2.34409 1.31246,-4.61617 1.5525,-5.04906 0.24,-0.4329 0.53942,-1.77541 0.66532,-2.98336 0.126,-1.20799 1.19525,-6.60744 2.37632,-11.99883 2.8532,-13.02423 2.86047,-12.86091 -0.54441,-12.22985 -4.43344,0.82168 -5.04327,1.95947 -5.47722,10.2189 -0.21815,4.15331 -0.69411,9.55834 -1.05753,12.01115 -1.16388,7.85499 -1.15562,17.27639 0.016,17.27639 0.57757,0 0.79774,-0.25252 0.48925,-0.56087 z m 6.66968,-41.20641 c 0.28973,-0.46881 0.12066,-0.85239 -0.3759,-0.85239 -0.49647,0 -0.90269,0.38358 -0.90269,0.85239 0,0.46882 0.16915,0.8524 0.37588,0.8524 0.2067,0 0.61294,-0.38358 0.90271,-0.8524 z M 472.74614,580.77843 c 0,-0.70322 -0.38358,-1.27858 -0.85239,-1.27858 -0.46882,0 -0.8524,0.57536 -0.8524,1.27858 0,0.70323 0.38358,1.2786 0.8524,1.2786 0.46881,0 0.85239,-0.57537 0.85239,-1.2786 z m 90.35373,89.50128 c 0,-0.70323 0.15076,-1.27859 0.33499,-1.27859 0.18433,0 0.55578,0.57536 0.82564,1.27859 0.26984,0.70322 0.11907,1.27859 -0.33501,1.27859 -0.45409,0 -0.82562,-0.57537 -0.82562,-1.27859 z m -80.11041,-45.78759 c -3.59697,-1.64898 -3.63053,-1.70513 -3.14353,-5.25836 0.27077,-1.97537 2.26801,-6.92955 4.43829,-11.0093 4.26053,-8.00893 6.7266,-9.83145 9.60216,-7.09641 0.79651,0.75759 2.69484,2.3725 4.21849,3.58868 3.36224,2.68376 3.61928,5.49549 0.62914,6.88238 -1.91838,0.88983 -2.17869,0.78423 -2.64478,-1.07289 -0.55139,-2.19694 -4.66691,-3.94651 -5.2399,-2.22758 -0.17208,0.5165 -1.44764,2.36683 -2.83443,4.11184 -4.54807,5.72305 -4.184,8.81322 1.04198,8.84358 4.14974,0.024 11.45861,-4.10334 12.70074,-7.17235 0.61856,-1.52835 0.72149,-1.41583 0.76827,0.83995 0.0315,1.51058 -0.84939,3.83788 -2.09673,5.54056 -3.11571,4.25302 -10.51637,7.97049 -9.23862,4.64067 0.26987,-0.70322 0.0661,-1.27859 -0.45294,-1.27859 -0.51897,0 -0.94357,0.33883 -0.94357,0.75295 0,1.56281 -3.29996,1.5215 -6.80457,-0.0852 z m -24.73401,-42.48541 c 0,-0.49649 -0.38357,-0.66564 -0.85239,-0.37589 -0.46881,0.28974 -0.85239,0.12067 -0.85239,-0.3759 0,-1.37776 2.3087,-1.07489 2.86545,0.3759 0.26983,0.70323 0.11907,1.2786 -0.33502,1.2786 -0.45408,0 -0.82565,-0.40623 -0.82565,-0.90271 z m 154.4927,-30.31913 c -0.0655,-8.07184 -0.3462,-10.1361 -1.56017,-11.4775 -1.34851,-1.49012 -2.41976,-1.51658 -2.52698,-0.0624 -0.20003,2.71309 -3.71381,10.52088 -4.51257,10.02724 -0.34095,-0.2107 -0.25358,-2.81434 0.19446,-5.78581 0.74565,-4.94705 1.05843,-5.52827 3.70889,-6.89287 2.0632,-1.06222 3.30686,-1.24975 4.33006,-0.65289 1.09168,0.63685 1.1418,0.8436 0.20937,0.86329 -0.86664,0.0186 -0.67917,0.53559 0.63929,1.76392 1.6879,1.57253 1.86293,2.56661 1.8384,10.44182 -0.0186,5.78208 -0.39862,9.1928 -1.13384,10.16047 -0.92882,1.2225 -1.11959,-0.12546 -1.18674,-8.38525 z"
     id="path817"
     inkscape:connector-curvature="0" />
</svg>
