<?xml version="1.0" encoding="UTF-8" standalone="no"?>
<svg
   xmlns:dc="http://purl.org/dc/elements/1.1/"
   xmlns:cc="http://creativecommons.org/ns#"
   xmlns:rdf="http://www.w3.org/1999/02/22-rdf-syntax-ns#"
   xmlns:svg="http://www.w3.org/2000/svg"
   xmlns="http://www.w3.org/2000/svg"
   xmlns:sodipodi="http://sodipodi.sourceforge.net/DTD/sodipodi-0.dtd"
   xmlns:inkscape="http://www.inkscape.org/namespaces/inkscape"
   id="Layer_1"
   data-name="Layer 1"
   width="1000"
   height="1000"
   viewBox="0 0 1000 1000"
   version="1.1"
   sodipodi:docname="papers.svg"
   inkscape:version="0.92.3 (2405546, 2018-03-11)">
  <metadata
     id="metadata524">
    <rdf:RDF>
      <cc:Work
         rdf:about="">
        <dc:format>image/svg+xml</dc:format>
        <dc:type
           rdf:resource="http://purl.org/dc/dcmitype/StillImage" />
        <dc:title>records-request-california-law-personnel-file</dc:title>
      </cc:Work>
    </rdf:RDF>
  </metadata>
  <defs
     id="defs522" />
  <sodipodi:namedview
     pagecolor="#ffffff"
     bordercolor="#666666"
     borderopacity="1"
     objecttolerance="10"
     gridtolerance="10"
     guidetolerance="10"
     inkscape:pageopacity="0"
     inkscape:pageshadow="2"
     inkscape:window-width="1920"
     inkscape:window-height="1004"
     id="namedview520"
     showgrid="false"
     inkscape:zoom="0.5918582"
     inkscape:cx="469.34758"
     inkscape:cy="459.2471"
     inkscape:window-x="0"
     inkscape:window-y="48"
     inkscape:window-maximized="1"
     inkscape:current-layer="Layer_1" />
  <title
     id="title2">records-request-california-law-personnel-file</title>
  <g
     id="g1437"
     transform="matrix(3.1401246,-0.76128444,0.76128444,3.1401246,-2070.5143,137.90973)">
    <g
       data-name="Ôèãóðà 1 (êîïèÿ) 95"
       id="Ôèãóðà_1_êîïèÿ_95">
      <path
         id="path149"
         style="fill:#e2e2e2"
         d="m 751.8,172.7 -77.1,-21.2 a 0.5,0.5 0 0 0 -0.6,0.4 l -23.9,86.9 a 0.5,0.5 0 0 0 0.4,0.6 l 77.1,21.2 a 0.5,0.5 0 0 0 0.6,-0.4 l 23.9,-86.9 a 0.5,0.5 0 0 0 -0.4,-0.6 z"
         inkscape:connector-curvature="0" />
    </g>
    <g
       data-name="Ôèãóðà 3 (êîïèÿ) 8"
       id="Ôèãóðà_3_êîïèÿ_8">
      <path
         id="path152"
         style="fill:#ebebeb;fill-rule:evenodd"
         d="m 751.8,173 -77.2,-21.2 a 0.2,0.2 0 0 0 -0.3,0.2 l -23.9,86.9 a 0.2,0.2 0 0 0 0.2,0.3 l 77.2,21.2 a 0.2,0.2 0 0 0 0.3,-0.2 L 752,173.3 a 0.2,0.2 0 0 0 -0.2,-0.3 z m -5.6,4 -15.9,57.6 a 0.7,0.7 0 0 1 -0.9,0.5 L 662,216.6 a 0.8,0.8 0 0 1 -0.5,-0.9 L 677.4,158 a 0.7,0.7 0 0 1 0.9,-0.5 l 67.4,18.5 a 0.7,0.7 0 0 1 0.5,1 z"
         inkscape:connector-curvature="0" />
    </g>
    <g
       data-name="Ôèãóðà 4 (êîïèÿ) 40"
       id="Ôèãóðà_4_êîïèÿ_40">
      <path
         id="path155"
         style="fill:#f8f8f8;fill-rule:evenodd"
         d="m 674.6,152 -23.9,86.9 77.1,21.2 23.9,-86.9 z m 56,82.7 a 1,1 0 0 1 -1.2,0.7 L 662,216.8 a 1,1 0 0 1 -0.7,-1.2 L 677.2,158 a 1,1 0 0 1 1.2,-0.7 l 67.4,18.6 a 1,1 0 0 1 0.7,1.2 z"
         inkscape:connector-curvature="0" />
    </g>
    <g
       data-name="Ôèãóðà 2 (êîïèÿ) 8"
       id="Ôèãóðà_2_êîïèÿ_8">
      <path
         id="path158"
         style="fill:#282828"
         d="m 745.6,176.3 -67.4,-18.6 a 0.5,0.5 0 0 0 -0.6,0.4 l -15.9,57.6 a 0.5,0.5 0 0 0 0.4,0.6 l 67.4,18.6 a 0.5,0.5 0 0 0 0.6,-0.4 L 746,176.9 a 0.5,0.5 0 0 0 -0.4,-0.6 z"
         inkscape:connector-curvature="0" />
    </g>
    <g
       data-name="Ôèãóðà 10 (êîïèÿ) 7"
       id="Ôèãóðà_10_êîïèÿ_7">
      <path
         id="path161"
         style="fill:#303030"
         d="M 745.5,176.5 678.2,158 a 0.3,0.3 0 0 0 -0.3,0.2 L 662,215.8 a 0.3,0.3 0 0 0 0.2,0.3 l 67.4,18.6 a 0.3,0.3 0 0 0 0.3,-0.2 l 15.9,-57.6 a 0.3,0.3 0 0 0 -0.3,-0.4 z"
         inkscape:connector-curvature="0" />
    </g>
    <g
       data-name="Ôèãóðà 1 (êîïèÿ) 96"
       id="Ôèãóðà_1_êîïèÿ_96">
      <path
         id="path164"
         style="fill:#e2e2e2"
         d="m 776.5,186.8 -79.2,-11.2 a 0.5,0.5 0 0 0 -0.6,0.4 L 684,265.3 a 0.5,0.5 0 0 0 0.4,0.6 l 79.2,11.2 a 0.5,0.5 0 0 0 0.6,-0.4 l 12.6,-89.3 a 0.5,0.5 0 0 0 -0.3,-0.6 z"
         inkscape:connector-curvature="0" />
    </g>
    <g
       data-name="Ôèãóðà 3 (êîïèÿ) 13"
       id="Ôèãóðà_3_êîïèÿ_13">
      <path
         id="path167"
         style="fill:#ebebeb;fill-rule:evenodd"
         d="m 776.4,187.1 -79.2,-11.2 a 0.2,0.2 0 0 0 -0.3,0.2 l -12.6,89.3 a 0.2,0.2 0 0 0 0.2,0.3 l 79.2,11.2 a 0.2,0.2 0 0 0 0.3,-0.2 l 12.6,-89.3 a 0.2,0.2 0 0 0 -0.2,-0.3 z M 763,250.9 a 0.7,0.7 0 0 1 -0.8,0.6 L 693,241.8 a 0.7,0.7 0 0 1 -0.6,-0.8 l 8.4,-59.2 a 0.7,0.7 0 0 1 0.8,-0.6 l 69.2,9.8 a 0.7,0.7 0 0 1 0.6,0.8 z"
         inkscape:connector-curvature="0" />
    </g>
    <g
       data-name="Ôèãóðà 4 (êîïèÿ) 41"
       id="Ôèãóðà_4_êîïèÿ_41">
      <path
         id="path170"
         style="fill:#f8f8f8;fill-rule:evenodd"
         d="m 697.2,176.1 -12.6,89.3 79.2,11.2 12.6,-89.3 z m 66.1,74.8 a 1,1 0 0 1 -1.1,0.9 L 693,242 a 1,1 0 0 1 -0.9,-1.1 l 8.4,-59.2 a 1,1 0 0 1 1.1,-0.9 l 69.2,9.8 a 1,1 0 0 1 0.9,1.1 z"
         inkscape:connector-curvature="0" />
    </g>
    <g
       data-name="Ôèãóðà 2 (êîïèÿ) 10"
       id="Ôèãóðà_2_êîïèÿ_10">
      <path
         id="path173"
         style="fill:#282828"
         d="m 770.7,191.1 -69.2,-9.8 a 0.5,0.5 0 0 0 -0.6,0.4 l -8.4,59.2 a 0.5,0.5 0 0 0 0.4,0.6 l 69.2,9.8 a 0.5,0.5 0 0 0 0.6,-0.4 l 8.4,-59.2 a 0.5,0.5 0 0 0 -0.4,-0.6 z"
         inkscape:connector-curvature="0" />
    </g>
    <g
       data-name="Ôèãóðà 10 (êîïèÿ) 8"
       id="Ôèãóðà_10_êîïèÿ_8">
      <path
         id="path176"
         style="fill:#303030"
         d="m 770.7,191.4 -69.2,-9.8 a 0.3,0.3 0 0 0 -0.3,0.2 l -8.3,59.2 a 0.3,0.3 0 0 0 0.2,0.3 l 69.2,9.8 a 0.3,0.3 0 0 0 0.3,-0.2 l 8.4,-59.2 a 0.3,0.3 0 0 0 -0.3,-0.3 z"
         inkscape:connector-curvature="0" />
    </g>
    <g
       data-name="Ôèãóðà 2 (êîïèÿ) 42"
       id="Ôèãóðà_2_êîïèÿ_42">
      <path
         id="path179"
         style="fill:#7d5024"
         d="m 833.2,245.3 -124.1,-30 a 4.3,4.3 0 0 0 -5.2,3.2 l -43.4,179.9 a 4.3,4.3 0 0 0 3.2,5.2 l 124.1,29.9 a 4.3,4.3 0 0 0 5.2,-3.2 l 43.4,-179.9 a 4.3,4.3 0 0 0 -3.2,-5.1 z"
         inkscape:connector-curvature="0" />
    </g>
    <g
       data-name="Ôèãóðà 3 (êîïèÿ) 24"
       id="Ôèãóðà_3_êîïèÿ_24">
      <path
         id="path182"
         style="fill:#956939"
         d="M 832.9,247 708.6,217 a 2.4,2.4 0 0 0 -2.9,1.8 l -43.4,180 a 2.4,2.4 0 0 0 1.8,2.9 l 124.3,30 a 2.4,2.4 0 0 0 2.9,-1.8 l 43.4,-180 a 2.4,2.4 0 0 0 -1.8,-2.9 z"
         inkscape:connector-curvature="0" />
    </g>
    <g
       style="opacity:0.10196102"
       data-name="Ôèãóðà 2 (êîïèÿ) 59"
       id="Ôèãóðà_2_êîïèÿ_59">
      <path
         id="path185"
         style="fill-rule:evenodd"
         d="m 753.8,233.5 c -2.3,9.6 30.7,25.8 30.7,25.8 l 4.2,-17.4 a 17.9,17.9 0 0 0 0.2,-7.3 L 757,226.9 a 17.9,17.9 0 0 0 -3.2,6.6 z"
         inkscape:connector-curvature="0" />
    </g>
    <g
       data-name="Ôèãóðà 4 (êîïèÿ) 15"
       id="Ôèãóðà_4_êîïèÿ_15">
      <path
         id="path188"
         style="fill:#e6e6e6"
         d="M 773.7,219.8 A 17.9,17.9 0 0 0 752.1,233 l -3.4,14 34.9,8.4 3.4,-13.9 a 17.9,17.9 0 0 0 -13.3,-21.7 z"
         inkscape:connector-curvature="0" />
    </g>
    <g
       style="opacity:0.10196102"
       data-name="Ôèãóðà 1 (êîïèÿ) 33"
       id="Ôèãóðà_1_êîïèÿ_33">
      <rect
         id="rect191"
         transform="rotate(-76.4,748.62062,328.91071)"
         height="121.99"
         width="172.3"
         y="268"
         x="662" />
    </g>
    <g
       data-name="Ôèãóðà 1 (êîïèÿ) 35"
       id="Ôèãóðà_1_êîïèÿ_35">
      <rect
         id="rect194"
         style="fill:#ffffff"
         transform="rotate(-76.4,747.98108,327.89302)"
         height="121.99"
         width="172.3"
         y="267"
         x="661.40002" />
    </g>
    <g
       style="opacity:0.10196102"
       data-name="Ôèãóðà 1 (êîïèÿ) 37"
       id="Ôèãóðà_1_êîïèÿ_37">
      <polygon
         id="polygon197"
         points="789.8,425.7 825,257 705.8,230.8 668.8,400.5 " />
    </g>
    <g
       data-name="Ôèãóðà 1 (êîïèÿ) 38"
       id="Ôèãóðà_1_êîïèÿ_38">
      <rect
         id="rect200"
         style="fill:#ffffff"
         transform="rotate(-78.2,747.08939,327.84069)"
         height="121.99"
         width="172.3"
         y="266.89999"
         x="660.90002" />
    </g>
    <g
       style="opacity:0.10196102"
       data-name="Ôèãóðà 1 (êîïèÿ) 39"
       id="Ôèãóðà_1_êîïèÿ_39">
      <polygon
         id="polygon203"
         points="784.1,428 829.3,260.6 709.9,229.2 666.5,396 " />
    </g>
    <g
       data-name="Ôèãóðà 1 (êîïèÿ) 40"
       id="Ôèãóðà_1_êîïèÿ_40">
      <rect
         id="rect206"
         style="fill:#fafafa"
         transform="rotate(-74.9,746.76454,327.95234)"
         height="121.99"
         width="172.3"
         y="266.89999"
         x="660.90002" />
    </g>
    <g
       style="opacity:0.10196102"
       data-name="Ôèãóðà 5 (êîïèÿ) 12"
       id="Ôèãóðà_5_êîïèÿ_12">
      <path
         id="path209"
         style="fill-rule:evenodd"
         d="m 782.6,250.8 -3.5,-0.8 2.5,-10.5 a 10.8,10.8 0 0 0 -20.9,-5 l -2.5,10.5 -3.5,-0.8 a 1.8,1.8 0 0 0 -0.8,3.5 l 27.9,6.7 a 1.8,1.8 0 1 0 0.8,-3.5 z"
         inkscape:connector-curvature="0" />
    </g>
    <g
       style="opacity:0.05098003"
       data-name="Ôèãóðà 1 (êîïèÿ) 41"
       id="Ôèãóðà_1_êîïèÿ_41">
      <path
         id="path212"
         style="fill-rule:evenodd"
         d="m 794.4,256.7 -1.2,-0.7 v 0 a 0.2,0.2 0 0 0 -0.1,-0.2 l -6.8,-3.8 -44.5,-12 h -0.3 a 0.25495098,0.25495098 0 0 1 -0.5,-0.1 v 0 a 0.2,0.2 0 0 0 -0.1,-0.2 l -26.1,-7 a 0.5,0.5 0 0 1 -0.9,-0.3 l -1.7,-0.4 c -0.1,0 -0.3,0 -0.2,0.1 2.7,12.2 23.1,19.8 35.9,17.2 a 0.70710678,0.70710678 0 1 0 -0.2,-1.4 c -6.3,1.5 -20.7,-0.5 -29.1,-8.2 a 18.3,18.3 0 0 1 -2.3,-2.7 0.5,0.5 0 1 1 0.8,-0.5 c 0.8,1.2 2.7,3.5 4.8,4 l 17.7,4.7 h 0.3 a 0.25495098,0.25495098 0 1 1 0.5,0.1 v 0 a 0.2,0.2 0 0 0 0.1,0.2 l 44.5,11.9 h 9.5 a 0.4,0.4 0 0 0 0.2,-0.7 z"
         inkscape:connector-curvature="0" />
    </g>
    <g
       data-name="Ôèãóðà 8 (êîïèÿ) 11"
       id="Ôèãóðà_8_êîïèÿ_11">
      <path
         id="path215"
         style="fill:#484848;fill-rule:evenodd"
         d="m 795.5,256.2 a 0.3,0.3 0 0 0 -0.2,-0.4 h -0.1 l -1.4,-0.7 h -0.2 l -0.3,1 a 0.2,0.2 0 0 0 0.1,0.2 h 1.8 a 0.3,0.3 0 0 0 0.3,-0.1 z"
         inkscape:connector-curvature="0" />
    </g>
    <g
       data-name="Ôèãóðà 10 (êîïèÿ) 4"
       id="Ôèãóðà_10_êîïèÿ_4">
      <path
         id="path218"
         style="fill:#939393"
         d="m 795.1,255.9 -1.6,-0.7 -0.2,0.5 v 0.5 l 1.8,0.2 a 0.25495098,0.25495098 0 0 0 0.1,-0.5 z"
         inkscape:connector-curvature="0" />
    </g>
    <g
       data-name="Ôèãóðà 1 (êîïèÿ) 42"
       id="Ôèãóðà_1_êîïèÿ_42">
      <path
         id="path221"
         style="fill:#dadada;fill-rule:evenodd"
         d="m 794,254.8 -6.8,-3.8 -44.5,-11.9 h -0.3 a 0.25495098,0.25495098 0 1 1 -0.5,-0.1 v 0 a 0.2,0.2 0 0 0 -0.1,-0.2 l -26.1,-7 a 0.5,0.5 0 1 1 -0.9,-0.3 l -1.7,-0.4 c -0.1,0 -0.3,0 -0.2,0.1 2.7,12.2 23.1,19.8 35.9,17.2 a 0.70710678,0.70710678 0 1 0 -0.2,-1.4 c -6.3,1.5 -20.7,-0.5 -29.1,-8.2 a 18.2,18.2 0 0 1 -2.3,-2.7 0.5,0.5 0 1 1 0.8,-0.5 c 0.8,1.2 2.7,3.5 4.8,4 l 17.7,4.7 h 0.3 a 0.25495098,0.25495098 0 0 1 0.5,0.1 v 0 a 0.2,0.2 0 0 0 0.1,0.2 l 44.5,11.9 h 8.1 l 0.4,-1.5 a 0.2236068,0.2236068 0 0 0 -0.4,-0.2 z"
         inkscape:connector-curvature="0" />
    </g>
    <g
       data-name="Ôèãóðà 1 (êîïèÿ) 43"
       id="Ôèãóðà_1_êîïèÿ_43">
      <path
         id="path224"
         style="fill:#cbcbcb;fill-rule:evenodd"
         d="m 714.8,231.9 v 0 a 14.4,14.4 0 0 0 2.3,4.3 v 0 a 0.5,0.5 0 0 1 0.8,-0.5 25.7,25.7 0 0 1 -2.2,-3.8 0.5,0.5 0 0 1 -0.9,0 z"
         inkscape:connector-curvature="0" />
    </g>
    <g
       data-name="Ôèãóðà 3 (êîïèÿ) 25"
       id="Ôèãóðà_3_êîïèÿ_25">
      <path
         id="path227"
         style="fill:#dadada"
         d="m 742.4,239.3 a 0.25495098,0.25495098 0 0 1 -0.5,-0.1 h -0.2 l -1.4,5.2 h 0.2 a 0.25495098,0.25495098 0 1 1 0.5,0.1 h 0.2 l 1.4,-5.2 z"
         inkscape:connector-curvature="0" />
    </g>
    <g
       data-name="Ôèãóðà 3 (êîïèÿ) 26"
       id="Ôèãóðà_3_êîïèÿ_26">
      <path
         id="path230"
         style="fill:#dadada;fill-rule:evenodd"
         d="m 742.1,239.5 a 0.2,0.2 0 0 1 -0.2,-0.3 l -1.4,5.2 a 0.25495098,0.25495098 0 1 1 0.5,0.1 l 1.4,-5.2 a 0.2,0.2 0 0 1 -0.3,0.2 z"
         inkscape:connector-curvature="0" />
    </g>
    <g
       data-name="Ôèãóðà 4 (êîïèÿ) 19"
       id="Ôèãóðà_4_êîïèÿ_19">
      <path
         id="path233"
         style="fill:#dadada;fill-rule:evenodd"
         d="m 794,254.8 -6.8,-3.8 -44.5,-11.9 h -0.2 l -1.4,5.3 a 0.2,0.2 0 0 0 0.1,0.2 l 44.5,11.9 h 8.1 l 0.4,-1.5 a 0.2,0.2 0 0 0 -0.2,-0.2 z"
         inkscape:connector-curvature="0" />
    </g>
    <g
       data-name="Ôèãóðà 2 (êîïèÿ) 60"
       id="Ôèãóðà_2_êîïèÿ_60">
      <path
         id="path236"
         style="fill:#f9f9f9;fill-rule:evenodd"
         d="m 716.1,232.2 c 0,0 3,6.4 6.6,7.3 l 17.7,4.7 1.4,-5.2 z m 71,19 -44.4,-11.9 -1.4,5.2 44.4,11.9 h 7.8 l 0.4,-1.4 z"
         inkscape:connector-curvature="0" />
    </g>
    <g
       style="opacity:0.30196102"
       data-name="Ôèãóðà 2 (êîïèÿ) 61"
       id="Ôèãóðà_2_êîïèÿ_61">
      <path
         id="path239"
         style="fill:#ffffff;fill-rule:evenodd"
         d="m 786.9,251.9 -44.4,-11.9 -0.5,1.9 51.7,13.8 v -0.6 z m -68.9,-16.4 23,6.1 0.5,-1.9 -25,-6.7 a 26.1,26.1 0 0 0 1.5,2.5 z"
         inkscape:connector-curvature="0" />
    </g>
    <g
       style="opacity:0.70196096"
       data-name="Ôèãóðà 2 (êîïèÿ) 62"
       id="Ôèãóðà_2_êîïèÿ_62">
      <path
         id="path242"
         style="fill:#ffffff;fill-rule:evenodd"
         d="m 793.8,255 -7,-2.6 -44.4,-11.9 -0.3,0.9 51.7,13.8 z m -76.1,-20.1 23.5,6.3 0.3,-0.9 -24.5,-6.6 z"
         inkscape:connector-curvature="0" />
    </g>
    <g
       style="opacity:0.10196102"
       data-name="Ôèãóðà 5 (êîïèÿ) 13"
       id="Ôèãóðà_5_êîïèÿ_13">
      <polygon
         id="polygon245"
         style="fill:#b7b7b7"
         points="793.5,256.5 793.9,255 787.1,251.2 785.7,256.4 " />
    </g>
    <g
       data-name="Ôèãóðà 7 (êîïèÿ) 4"
       id="Ôèãóðà_7_êîïèÿ_4">
      <path
         id="path248"
         style="fill:#f6f6f6"
         d="m 748.6,247.4 c -5.3,1 -12.4,0.2 -18.5,-2 -6.1,-2.2 -13.3,-6.7 -15.5,-13.5 l -1.3,-0.3 c 1.3,6.1 7.8,11.5 16,14.6 8.2,3.1 14.3,3.3 19.5,2.3 a 0.5,0.5 0 0 0 0.4,-0.5 0.5,0.5 0 0 0 -0.6,-0.6 z"
         inkscape:connector-curvature="0" />
    </g>
    <g
       data-name="Ôèãóðà 5 (êîïèÿ) 14"
       id="Ôèãóðà_5_êîïèÿ_14">
      <path
         id="path251"
         style="fill:#dddddd;fill-rule:evenodd"
         d="m 779.6,257.1 -5.6,-1.3 c 1.7,-4.3 5.5,-13.5 6.1,-16.1 a 10.8,10.8 0 1 0 -20.9,-5 c -1,4.3 -1.7,12.9 -2,17.1 l -5.5,-1.3 a 1.8,1.8 0 1 0 -0.8,3.5 l 27.9,6.7 a 1.8,1.8 0 0 0 0.8,-3.5 z"
         inkscape:connector-curvature="0" />
    </g>
    <g
       data-name="Ôèãóðà 5 (êîïèÿ) 15"
       id="Ôèãóðà_5_êîïèÿ_15">
      <path
         id="path254"
         style="fill:#d6d6d6;fill-rule:evenodd"
         d="m 772.1,226.7 a 10.8,10.8 0 0 0 -12.9,8 c -1,4.3 -1.7,12.9 -2,17.1 l -5.5,-1.3 a 1.8,1.8 0 1 0 -0.8,3.5 l 13.9,3.3 z"
         inkscape:connector-curvature="0" />
    </g>
    <g
       data-name="Ôèãóðà 5 (êîïèÿ) 16"
       id="Ôèãóðà_5_êîïèÿ_16">
      <path
         id="path257"
         style="fill:#d6d6d6"
         d="m 779.6,257.1 -27.9,-6.7 a 1.8,1.8 0 1 0 -0.8,3.5 l 27.9,6.7 a 1.8,1.8 0 0 0 0.8,-3.5 z"
         inkscape:connector-curvature="0" />
    </g>
    <g
       data-name="Ôèãóðà 11 (êîïèÿ) 3"
       id="Ôèãóðà_11_êîïèÿ_3">
      <path
         id="path260"
         style="fill:#dddddd"
         d="m 778.9,258.3 -27.2,-6.6 a 0.6,0.6 0 1 0 -0.3,1.1 l 27.2,6.6 a 0.6,0.6 0 0 0 0.3,-1.1 z"
         inkscape:connector-curvature="0" />
    </g>
    <g
       data-name="Ôèãóðà 6 (êîïèÿ) 24"
       id="Ôèãóðà_6_êîïèÿ_24">
      <circle
         id="circle263"
         style="fill:#956939"
         transform="rotate(-76.4,770.23359,235.42019)"
         r="3.5999999"
         cy="235.5"
         cx="769.90002" />
    </g>
    <g
       data-name="Ôèãóðà 6 (êîïèÿ) 25"
       id="Ôèãóðà_6_êîïèÿ_25">
      <path
         id="path266"
         style="fill:#865e33;fill-rule:evenodd"
         d="m 768.8,235.6 a 4.1,4.1 0 0 1 3.1,-3 l -1.2,-0.5 a 3.6017357,3.6017357 0 0 0 -1.7,7 h 0.6 a 4.1,4.1 0 0 1 -0.8,-3.5 z"
         inkscape:connector-curvature="0" />
    </g>
    <g
       data-name="Ôèãóðà 14 (êîïèÿ) 5"
       id="Ôèãóðà_14_êîïèÿ_5">
      <path
         id="path269"
         style="fill:#e1e1e1;fill-rule:evenodd"
         d="M 807.4,299.5 709.7,275 a 1.1,1.1 0 1 0 -0.5,2.1 l 97.6,24.5 a 1.1,1.1 0 0 0 0.5,-2.1 z m -1.9,3.9 -96.8,-24.3 a 1.1,1.1 0 1 0 -0.5,2.1 l 96.8,24.3 a 1.1,1.1 0 0 0 0.5,-2.1 z m -0.2,4.4 -97.6,-24.5 a 1.1,1.1 0 0 0 -0.5,2.1 l 97.6,24.5 a 1.1,1.1 0 0 0 0.5,-2.1 z m -2,3.9 -96.7,-24.2 a 1.1,1.1 0 1 0 -0.5,2.1 l 96.7,24.2 a 1.1,1.1 0 1 0 0.5,-2.1 z m -0.1,4.4 -97.6,-24.5 a 1.1,1.1 0 1 0 -0.5,2.1 l 97.6,24.5 a 1.1,1.1 0 0 0 0.5,-2.1 z m -99.2,-18.2 94.2,23.6 a 1.1,1.1 0 0 0 0.5,-2.1 l -94.2,-23.6 a 1.1,1.1 0 1 0 -0.5,2.1 z m 97.1,26.6 -97.6,-24.5 a 1.1,1.1 0 0 0 -0.5,2.1 l 97.6,24.5 a 1.1,1.1 0 0 0 0.5,-2.1 z m -99.2,-18.3 35.6,8.9 A 1.1,1.1 0 1 0 738,313 l -35.6,-8.9 a 1.1,1.1 0 1 0 -0.5,2.1 z m 75.5,101.4 -36.4,-9.1 a 0.52201533,0.52201533 0 1 0 -0.3,1 l 36.4,9.1 a 0.52201533,0.52201533 0 0 0 0.3,-1 z m 17.9,-61.4 -97.6,-24.5 a 1.1,1.1 0 0 0 -0.5,2.1 l 97.6,24.5 a 1.1,1.1 0 0 0 0.5,-2.1 z m -1.9,3.9 -96.8,-24.3 a 1.1,1.1 0 1 0 -0.5,2.1 l 96.8,24.3 a 1.1,1.1 0 1 0 0.5,-2.1 z m -0.2,4.4 -97.6,-24.5 a 1.1,1.1 0 0 0 -0.5,2.1 l 97.6,24.5 a 1.1,1.1 0 0 0 0.5,-2.1 z m -2,3.9 -96.7,-24.2 a 1.1,1.1 0 0 0 -0.5,2.1 l 96.7,24.2 a 1.1,1.1 0 1 0 0.5,-2.1 z m -0.1,4.4 -97.6,-24.5 a 1.1,1.1 0 0 0 -0.5,2.1 l 97.6,24.5 a 1.1,1.1 0 0 0 0.5,-2.1 z m -99.2,-18.3 94.2,23.6 a 1.1,1.1 0 0 0 0.5,-2.1 l -94.2,-23.6 a 1.1,1.1 0 1 0 -0.5,2.1 z m 97.1,26.6 -97.6,-24.5 a 1.1,1.1 0 1 0 -0.5,2.1 l 97.6,24.5 a 1.1,1.1 0 0 0 0.5,-2.1 z m -63.1,-11.4 -35.6,-8.9 a 1.1,1.1 0 1 0 -0.5,2.1 l 35.6,8.9 a 1.1,1.1 0 0 0 0.5,-2.1 z"
         inkscape:connector-curvature="0" />
    </g>
    <g
       data-name="Ôèãóðà 14 (êîïèÿ) 6"
       id="Ôèãóðà_14_êîïèÿ_6">
      <path
         id="path275"
         style="fill:#c5c5c5;fill-rule:evenodd"
         d="m 793.2,273.9 -56.5,-14.2 a 2.1587033,2.1587033 0 0 0 -1,4.2 l 56.5,14.2 a 2.1587033,2.1587033 0 1 0 1,-4.2 z M 772,277.4 734.6,268 a 2.1587033,2.1587033 0 0 0 -1,4.2 l 37.4,9.4 a 2.1587033,2.1587033 0 0 0 1,-4.2 z m -41.2,43.5 -29.1,-7.3 a 2.1587033,2.1587033 0 1 0 -1,4.2 l 29.1,7.3 a 2.1587033,2.1587033 0 0 0 1,-4.2 z"
         inkscape:connector-curvature="0" />
    </g>
    <g
       data-name="Ôèãóðà 57 (êîïèÿ) 2"
       id="Ôèãóðà_57_êîïèÿ_2">
      <path
         id="path278"
         style="fill:#009ee0"
         d="m 728.8,257.7 -13.3,-3.3 a 1.7,1.7 0 0 0 -2.1,1.2 l -2.3,9.1 a 1.7,1.7 0 0 0 1.2,2.1 l 13.3,3.3 a 1.7,1.7 0 0 0 2.1,-1.2 l 2.3,-9.1 a 1.7,1.7 0 0 0 -1.2,-2.1 z"
         inkscape:connector-curvature="0" />
    </g>
    <g
       data-name="Ôèãóðà 1 (êîïèÿ) 3"
       id="Ôèãóðà_1_êîïèÿ_3">
      <path
         id="path405"
         style="fill:#262626"
         d="m 821,405.4 c -4.8,-10.6 -10.2,-33.5 -17.2,-38.6 l -66,-46.5 -4.5,5.8 c 0,0 62.1,36.6 68.2,43.9 6.1,7.3 5.8,15.2 13.2,35.5 1.4,3.7 4.2,2.8 5,2.6 a 2.1,2.1 0 0 0 1.3,-2.7 z"
         inkscape:connector-curvature="0" />
    </g>
    <g
       data-name="Ôèãóðà 1 (êîïèÿ) 4"
       id="Ôèãóðà_1_êîïèÿ_4">
      <path
         id="path408"
         style="fill:#484848"
         d="m 758.8,338.8 c -7.6,-4.1 -30.6,1.2 -42.2,1.5 a 2.1,2.1 0 0 0 -1.9,2.4 c 0.2,0.8 0.7,3.7 4.6,3.3 21.6,-2.3 26.9,-6.4 37.7,-3.8 9.2,2.2 69.5,41.8 69.5,41.8 l 3.2,-6.6 z"
         inkscape:connector-curvature="0" />
    </g>
    <g
       style="opacity:0.30196102"
       data-name="Ôèãóðà 2 (êîïèÿ) 16"
       id="Ôèãóðà_2_êîïèÿ_16">
      <path
         id="path411"
         style="fill:#8a8a8a;fill-rule:evenodd"
         d="m 815.1,365.4 c -11.3,-7 -28.3,-12.1 -31.6,-5.6 -1.6,3.2 -11.4,25.8 8.1,38.2 17.5,11 26.1,-0.3 34.7,-11.5 6.5,-8.5 2.9,-12.3 -11.2,-21.1 z m -60.2,-37.3 c -14,-8.7 -18.9,-10.2 -23.6,-0.8 -6.2,12.6 -12.6,25.2 4.8,35.9 19.5,12 35.5,-6.6 37.5,-9.5 4.3,-5.8 -7.5,-18.6 -18.7,-25.6 z"
         inkscape:connector-curvature="0" />
    </g>
    <g
       style="opacity:0.10196102"
       data-name="Ôèãóðà 2 (êîïèÿ) 17"
       id="Ôèãóðà_2_êîïèÿ_17">
      <path
         id="path414"
         style="fill:#ffffff;fill-rule:evenodd"
         d="m 767,337.9 -32.6,24.3 1.7,1.1 a 27.5,27.5 0 0 0 7.1,3.2 l 29.2,-21.8 a 39.3,39.3 0 0 0 -5.4,-6.8 z m -4.3,-4 -32.8,24.6 a 27.2,27.2 0 0 0 2.6,2.4 l 32.8,-24.6 z"
         inkscape:connector-curvature="0" />
    </g>
    <g
       style="opacity:0.10196102"
       data-name="Ôèãóðà 2 (êîïèÿ) 18"
       id="Ôèãóðà_2_êîïèÿ_18">
      <path
         id="path417"
         style="fill:#ffffff;fill-rule:evenodd"
         d="m 822.9,370.7 -34,25.4 2.6,1.9 a 35,35 0 0 0 5.5,2.9 L 828.9,377 c -0.9,-2 -2.9,-4 -6,-6.3 z m -5,-3.5 -33.1,24.8 a 24.9,24.9 0 0 0 2.4,2.6 L 821,369.3 Z"
         inkscape:connector-curvature="0" />
    </g>
    <g
       style="opacity:0.05098003"
       data-name="Ôèãóðà 2 (êîïèÿ) 19"
       id="Ôèãóðà_2_êîïèÿ_19">
      <path
         id="path420"
         style="fill:#ffffff;fill-rule:evenodd"
         d="m 754.1,330.2 -4.9,-3 c 11.5,8.5 20.2,17.7 20.4,22.2 0.2,4.5 -3.2,9.6 -12.4,14.1 a 34.5,34.5 0 0 0 14,-10.6 c 3.6,-4.9 -6.9,-16.4 -17.1,-22.7 z m 59.4,37 c -10.2,-6.4 -25.2,-10.7 -28.1,-5.3 -1,1.9 -4.6,10.4 -3.1,19.1 -0.5,-11.4 4.2,-17.8 7.2,-19.2 3,-1.4 16.2,2 28.9,8.5 z"
         inkscape:connector-curvature="0" />
    </g>
    <g
       style="opacity:0.05098003"
       data-name="Ôèãóðà 2 (êîïèÿ) 20"
       id="Ôèãóðà_2_êîïèÿ_20">
      <path
         id="path423"
         style="fill:#ffffff;fill-rule:evenodd"
         d="m 733.1,329.3 c -5.7,11.5 -11.3,22.6 4.2,32.2 h 0.1 c -5.2,-9.3 -5.2,-26.2 0.3,-37.5 -1.7,0.8 -3.2,2.4 -4.6,5.3 z m 59.7,66.7 c 15.4,9.6 22.9,-0.3 30.7,-10.4 1.9,-2.5 2.8,-4.5 2.7,-6.4 -7.8,9.9 -22.8,17.4 -33.4,16.8 z"
         inkscape:connector-curvature="0" />
    </g>
    <g
       data-name="Ôèãóðà 2 (êîïèÿ) 8"
       id="Ôèãóðà_2_êîïèÿ_8-2">
      <path
         id="path426"
         style="fill:#282828;fill-rule:evenodd"
         d="m 817.5,364.1 c -11.6,-7.2 -25.2,-9.8 -33.8,-15.2 -8.6,-5.4 -15.3,-15.3 -28.8,-23.7 -10.6,-6.6 -24.2,-9.3 -24.2,-9.3 l -3.9,6.1 c 3,4.3 -2.8,17.9 -3.2,20.7 -0.4,2.8 -2.8,13 11.4,21.8 20.2,12.6 35.1,-5.2 37.2,-6.9 2.1,-1.7 3.3,-1.7 6,-0.1 2.7,1.6 3.5,2.3 2.6,5.3 -3.5,11.7 -5.8,26.2 9.8,36.3 11,7 19,5 23,2.3 7.4,-5 11.5,-12.7 19.1,-13.5 l 3.8,-5.9 c 0,0 -9.9,-12.2 -19,-17.9 z m -45.6,-10.5 c -1.9,2.6 -16.9,20 -35.1,8.8 -16.4,-10.1 -10.2,-22.1 -4.5,-33.6 4.6,-9.4 10.2,-7 22.4,0.6 10,6.2 21.5,18.4 17.2,24.2 z m 52.5,32.5 c -7.8,10.2 -15.9,20.9 -32.2,10.6 -18.1,-11.4 -9.1,-32.4 -7.6,-35.3 3.3,-6.4 19.5,-1.3 29.4,4.9 12.2,7.6 16.7,11.5 10.3,19.8 z"
         inkscape:connector-curvature="0" />
    </g>
    <g
       data-name="Ôèãóðà 2 (êîïèÿ) 9"
       id="Ôèãóðà_2_êîïèÿ_9">
      <path
         id="path429"
         style="fill:#323232;fill-rule:evenodd"
         d="m 817.2,364.6 c -11.6,-7.2 -25.2,-9.8 -33.8,-15.2 -8.6,-5.4 -15.3,-15.3 -28.8,-23.7 -10.6,-6.6 -23.7,-9.1 -23.7,-9.1 l -3.5,5.5 c 2.8,4.4 -2.9,18 -3.3,20.8 -0.4,2.8 -2.8,12.5 11.2,21.2 20.2,12.6 34.5,-5.1 36.5,-6.8 2,-1.7 3.6,-2.1 6.6,-0.2 3,1.9 3.7,2.7 2.8,5.8 -2.8,9.8 -6.9,25.2 9.6,35.9 10.4,6.6 18.2,5.2 22.4,2.3 7.4,-5 11.5,-12.6 19.2,-13.6 l 3.5,-5.4 c 0,0 -9.5,-11.8 -18.7,-17.5 z m -44.9,-10.7 c -2,2.7 -17.1,20.4 -35.7,8.9 -6.1,-3.7 -9.2,-7.8 -10.3,-12.1 -1.8,-7.2 2,-14.9 5.5,-22.2 2.5,-5 5.4,-7 9.7,-6.2 4.3,0.8 7.4,2.9 13.3,6.6 10.7,6.6 22.1,18.8 17.5,25 z m 52.4,32.5 c -4.9,6.4 -10.2,13.2 -17.5,14.7 -4.3,0.9 -9.4,-0.1 -15.4,-3.9 -18.5,-11.7 -9.3,-33 -7.7,-36 3.5,-6.7 19.5,-1.9 30.1,4.7 5.8,3.6 9.7,6.3 11.8,9 2.1,2.7 2.2,7 -1.2,11.5 z"
         inkscape:connector-curvature="0" />
    </g>
  </g>
</svg>
