<?xml version="1.0" encoding="UTF-8" standalone="no"?>
<svg
   xmlns:dc="http://purl.org/dc/elements/1.1/"
   xmlns:cc="http://creativecommons.org/ns#"
   xmlns:rdf="http://www.w3.org/1999/02/22-rdf-syntax-ns#"
   xmlns:svg="http://www.w3.org/2000/svg"
   xmlns="http://www.w3.org/2000/svg"
   xmlns:xlink="http://www.w3.org/1999/xlink"
   xmlns:sodipodi="http://sodipodi.sourceforge.net/DTD/sodipodi-0.dtd"
   xmlns:inkscape="http://www.inkscape.org/namespaces/inkscape"
   version="1.1"
   viewBox="0 0 1000 1000"
   id="svg204"
   sodipodi:docname="pencils.svg"
   inkscape:version="0.92.3 (2405546, 2018-03-11)">
  <metadata
     id="metadata210">
    <rdf:RDF>
      <cc:Work
         rdf:about="">
        <dc:format>image/svg+xml</dc:format>
        <dc:type
           rdf:resource="http://purl.org/dc/dcmitype/StillImage" />
      </cc:Work>
    </rdf:RDF>
  </metadata>
  <defs
     id="defs208">
    <defs
       id="defs5">
      <rect
         height="190"
         width="163.2"
         y="13.4"
         x="-286.2"
         id="SVGID_1_" />
    </defs>
    <clipPath
       id="SVGID_2_">
      <use
         id="use7"
         xlink:href="#SVGID_1_"
         height="100%"
         width="100%" />
    </clipPath>
    <defs
       id="defs17">
      <rect
         height="207.2"
         width="179.1"
         y="-2"
         x="-287.8"
         id="SVGID_3_" />
    </defs>
    <clipPath
       id="SVGID_4_">
      <use
         id="use19"
         xlink:href="#SVGID_3_"
         height="100%"
         width="100%" />
    </clipPath>
    <defs
       id="defs29">
      <rect
         height="96.1"
         width="96.1"
         y="54.4"
         x="-237.9"
         id="SVGID_5_" />
    </defs>
    <clipPath
       id="SVGID_6_">
      <use
         id="use31"
         xlink:href="#SVGID_5_"
         height="100%"
         width="100%" />
    </clipPath>
    <defs
       id="defs41">
      <rect
         height="24.4"
         width="29.5"
         y="119.2"
         x="-172.8"
         id="SVGID_9_" />
    </defs>
    <clipPath
       id="SVGID_10_">
      <use
         id="use43"
         xlink:href="#SVGID_9_"
         height="100%"
         width="100%" />
    </clipPath>
    <defs
       id="defs53">
      <rect
         height="8.3"
         width="33.8"
         y="168"
         x="-163.6"
         id="SVGID_11_" />
    </defs>
    <clipPath
       id="SVGID_12_">
      <use
         id="use55"
         xlink:href="#SVGID_11_"
         height="100%"
         width="100%" />
    </clipPath>
    <defs
       id="defs65">
      <polygon
         points="-183.6 139.3 -174.3 139.3 -174.3 152.2 -183.6 152.2"
         id="SVGID_13_" />
    </defs>
    <clipPath
       id="SVGID_14_">
      <use
         id="use67"
         xlink:href="#SVGID_13_"
         height="100%"
         width="100%" />
    </clipPath>
    <defs
       id="defs77">
      <rect
         height="21.4"
         width="30.5"
         y="139.7"
         x="-157.8"
         id="SVGID_15_" />
    </defs>
    <clipPath
       id="SVGID_16_">
      <use
         id="use79"
         xlink:href="#SVGID_15_"
         height="100%"
         width="100%" />
    </clipPath>
    <defs
       id="defs89">
      <rect
         height="16.6"
         width="31"
         y="161.5"
         x="-177.7"
         id="SVGID_17_" />
    </defs>
    <clipPath
       id="SVGID_18_">
      <use
         id="use91"
         xlink:href="#SVGID_17_"
         height="100%"
         width="100%" />
    </clipPath>
  </defs>
  <sodipodi:namedview
     pagecolor="#ffffff"
     bordercolor="#666666"
     borderopacity="1"
     objecttolerance="10"
     gridtolerance="10"
     guidetolerance="10"
     inkscape:pageopacity="0"
     inkscape:pageshadow="2"
     inkscape:window-width="1600"
     inkscape:window-height="872"
     id="namedview206"
     showgrid="false"
     inkscape:zoom="0.472"
     inkscape:cx="1154.3768"
     inkscape:cy="441.33514"
     inkscape:window-x="1920"
     inkscape:window-y="0"
     inkscape:window-maximized="1"
     inkscape:current-layer="svg204" />
  <style
     type="text/css"
     id="style2">.st0{fill:#0095EC;fill-opacity:0.9922;}
	.st1{fill:#A88CD0;}
	.st2{opacity:0.6;clip-path:url(#SVGID_2_);}
	.st3{fill:#B395DD;}
	.st4{fill:#66666B;}
	.st5{fill:#3A3A3D;}
	.st6{fill:#872237;}
	.st7{opacity:0.3;clip-path:url(#SVGID_4_);}
	.st8{fill:#434147;}
	.st9{fill:#00687E;}
	.st10{fill:#0093B1;}
	.st11{opacity:0.5;clip-path:url(#SVGID_6_);}
	.st12{fill:#F0EEE2;}
	.st13{fill:#C2BFB7;}
	.st14{fill:#E6E3D9;}
	.st15{fill:#B0AD9F;}
	.st16{fill:#556873;}
	.st17{fill:#76909F;}
	.st18{fill:#A3A7A8;}
	.st19{fill:#DCE1E3;}
	.st20{fill:#EEC19C;}
	.st21{fill:#B52126;}
	.st22{fill:#FCCDA5;}
	.st23{fill:#2B1F0C;}
	.st24{opacity:0.5;clip-path:url(#SVGID_8_);}
	.st25{fill:#F7F5E9;}
	.st26{fill:none;stroke:#A6A6A6;stroke-width:0.3559;stroke-miterlimit:10;}
	.st27{fill:#A6A6A6;}
	.st28{fill:#D4D4D4;}
	.st29{fill:#806657;}
	.st30{fill:#593017;}
	.st31{fill:#381E0E;}
	.st32{fill:#CCAE7E;}
	.st33{opacity:0.5;clip-path:url(#SVGID_10_);}
	.st34{fill:#757575;}
	.st35{fill:#0B426E;}
	.st36{fill:#4E94CF;}
	.st37{fill:#386B95;}
	.st38{fill:#A0A96A;}
	.st39{fill:#8C8B8B;}
	.st40{fill:none;stroke:#666565;stroke-width:0.2148;stroke-linecap:round;stroke-linejoin:round;stroke-miterlimit:10;}
	.st41{fill:#E5952E;}
	.st42{fill:#D4CCC0;}
	.st43{fill:#FFBD69;}
	.st44{fill:#666565;}
	.st45{opacity:0.5;clip-path:url(#SVGID_12_);}
	.st46{fill:#E3C63B;}
	.st47{fill:#1498C3;}
	.st48{fill:#EBD467;}
	.st49{fill:#18B9ED;}
	.st50{opacity:0.5;clip-path:url(#SVGID_14_);}
	.st51{fill:#C9C4B8;}
	.st52{fill:#FFFFFF;}
	.st53{opacity:0.5;clip-path:url(#SVGID_16_);}
	.st54{fill:#FBF8EC;}
	.st55{fill:#C4C3B9;}
	.st56{fill:#E0DED3;}
	.st57{fill:#B5D1E8;}
	.st58{opacity:0.5;clip-path:url(#SVGID_18_);}
	.st59{fill:#00587E;}
	.st60{fill:#007BB0;}
	.st61{opacity:0.5;clip-path:url(#SVGID_20_);}
	.st62{fill:#DBD5C8;}
	.st63{opacity:0.5;clip-path:url(#SVGID_22_);}
	.st64{fill:#EDE6D8;}
	.st65{opacity:0.5;clip-path:url(#SVGID_24_);}
	.st66{fill:#804508;}
	.st67{fill:#24AFFF;}
	.st68{fill:#00E62E;}
	.st69{fill:#FFED24;}
	.st70{fill:#FF73A5;}
	.st71{fill:#D6750D;}
	.st72{fill:#BFBFBF;}
	.st73{fill:#997B42;}
	.st74{fill:#DDB260;}
	.st75{fill:#A18146;}
	.st76{fill:#C4BFB3;}
	.st77{clip-path:url(#SVGID_26_);}
	.st78{fill:#A6A298;}
	.st79{fill:#704831;}
	.st80{fill:#945F40;}
	.st81{fill:#523523;}
	.st82{fill:#704931;}
	.st83{fill:#2AB466;}
	.st84{fill:none;}
	.st85{opacity:0.5;clip-path:url(#SVGID_28_);}
	.st86{fill:#B38B4E;}
	.st87{fill:#DEC861;}
	.st88{fill:#CCC5B8;}
	.st89{fill:none;stroke:#B38B4E;stroke-width:0.424;stroke-miterlimit:10;}
	.st90{fill:#707070;}
	.st91{fill:#B5A450;}
	.st92{fill:#F9F9F9;}
	.st93{fill:#C47A5E;}
	.st94{fill:#9E614C;}
	.st95{opacity:0.2;clip-path:url(#SVGID_30_);}
	.st96{opacity:0.2;clip-path:url(#SVGID_32_);}
	.st97{opacity:0.2;clip-path:url(#SVGID_34_);}
	.st98{opacity:0.2;clip-path:url(#SVGID_36_);}
	.st99{fill:#8A623D;}
	.st100{clip-path:url(#SVGID_38_);}
	.st101{fill-opacity:0.1961;}
	.st102{fill:#FFD3A3;}
	.st103{clip-path:url(#SVGID_40_);}
	.st104{clip-path:url(#SVGID_42_);}
	.st105{fill:#F5C795;}
	.st106{clip-path:url(#SVGID_44_);}
	.st107{fill:#A18374;}
	.st108{fill:#A67649;}
	.st109{fill:#8AA6AB;}
	.st110{fill:#222625;}
	.st111{fill:#0E1210;}
	.st112{fill:#3C403F;}
	.st113{fill:#1D2421;}
	.st114{fill:#9E4E34;}
	.st115{fill:#CC6543;}
	.st116{fill:#FFFFFF;fill-opacity:0.1961;}
	.st117{fill:#241E1B;}
	.st118{fill:#DB854B;}
	.st119{fill:#9C5C2F;}
	.st120{fill:#7D3B24;}
	.st121{fill:#1A79A3;}
	.st122{fill:#AD5F42;}
	.st123{fill:#8F513B;}
	.st124{opacity:0.2;clip-path:url(#SVGID_46_);}
	.st125{opacity:0.2;clip-path:url(#SVGID_48_);}
	.st126{opacity:0.2;clip-path:url(#SVGID_50_);}
	.st127{opacity:0.2;clip-path:url(#SVGID_52_);}
	.st128{fill:#FED2A3;}
	.st129{clip-path:url(#SVGID_54_);}
	.st130{fill:#EDEDED;}
	.st131{fill:#F5CA9D;}
	.st132{opacity:0.4;clip-path:url(#SVGID_56_);}
	.st133{opacity:0.4;clip-path:url(#SVGID_58_);}
	.st134{fill:#8FACB5;}
	.st135{fill:#A87F68;}
	.st136{clip-path:url(#SVGID_60_);}
	.st137{fill:#B6CACF;}
	.st138{clip-path:url(#SVGID_62_);}
	.st139{fill:#FAFAFA;}
	.st140{fill:#91827A;}
	.st141{fill:#B15634;}
	.st142{fill:#943817;}
	.st143{fill:#D4AA00;}
	.st144{fill:#AA8800;}
	.st145{fill:#333333;}
	.st146{fill:#8E7300;}</style>
  <g
     style="opacity:0.6"
     id="g14"
     clip-path="url(#SVGID_2_)"
     transform="matrix(-2.00375,0,0,-2.00375,284.00375,999.995)"
     class="st2">
    <g
       id="g12"
       transform="translate(68.506,46.889)">
      <path
         style="fill:#b395dd"
         inkscape:connector-curvature="0"
         id="path10"
         d="M 0,0 -8.2,94.8 H 26.7 C 32.3,70.9 50.4,52.2 73.2,45.3 v -39 z"
         class="st3" />
    </g>
  </g>
  <g
     style="opacity:0.3"
     id="g26"
     clip-path="url(#SVGID_4_)"
     transform="matrix(-2.00375,0,0,-2.00375,284.00375,999.995)"
     class="st7">
    <g
       id="g24"
       transform="translate(61.316,38.334)">
      <path
         style="fill:#434147"
         inkscape:connector-curvature="0"
         id="path22"
         d="M 0,0 -9,103.4 H 26.8 C 32.7,75.6 53.8,54 80.4,46.8 V 7 Z"
         class="st8" />
    </g>
  </g>
  <g
     style="opacity:0.5"
     id="g38"
     clip-path="url(#SVGID_6_)"
     transform="matrix(-2.00375,0,0,-2.00375,284.00375,999.995)"
     class="st11">
    <g
       id="g36"
       transform="translate(93.854,67.469)">
      <path
         style="fill:#434147"
         inkscape:connector-curvature="0"
         id="path34"
         d="m 0,0 c -1.2,-1.2 -3.1,-1.2 -4.3,0 l -20.9,20.9 c -1.2,1.2 -1.2,3.1 0,4.3 l 21,21 c 1.2,1.2 3.1,1.2 4.3,0 L 21,25.3 c 1.2,-1.2 1.2,-3.1 0,-4.3 z"
         class="st8" />
    </g>
  </g>
  <g
     style="opacity:0.5"
     id="g50"
     clip-path="url(#SVGID_10_)"
     transform="matrix(-2.00375,0,0,-2.00375,284.00375,999.995)"
     class="st33">
    <g
       id="g48"
       transform="translate(64.601,109.66)">
      <path
         style="fill:#757575"
         inkscape:connector-curvature="0"
         id="path46"
         d="M 0,0 2.4,-6.5 C 2.5,-7 3.1,-7.3 3.5,-7.1 l 0.4,0.2 10.1,3.6 c 0.5,0.2 0.7,0.7 0.5,1.2 L 12.1,4.4 C 11.9,4.9 11.4,5.1 10.9,5 L 1,1.3 0.5,1.2 C 0.1,1 -0.2,0.5 0,0"
         class="st34" />
    </g>
  </g>
  <g
     style="opacity:0.5"
     id="g62"
     clip-path="url(#SVGID_12_)"
     transform="matrix(-2.00375,0,0,-2.00375,284.00375,999.995)"
     class="st45">
    <g
       id="g60"
       transform="translate(58.008,131.98)">
      <path
         style="fill:#434147"
         inkscape:connector-curvature="0"
         id="path58"
         d="M 0,0 15.3,3.2 15.2,3.5 V 3.7 L 15.1,4.2 -0.2,1 -1.1,0.5 -1.6,0.2 Z"
         class="st8" />
    </g>
  </g>
  <g
     style="opacity:0.5"
     id="g74"
     clip-path="url(#SVGID_14_)"
     transform="matrix(-2.00375,0,0,-2.00375,284.00375,999.995)"
     class="st50">
    <g
       id="g72"
       transform="translate(83.451,120.38)">
      <path
         style="fill:#434147"
         inkscape:connector-curvature="0"
         id="path70"
         d="M 0,0 C 0.5,0.9 1.3,1.5 2.3,1.2 L 3.2,0.9 C 4.2,0.6 4.5,-0.4 4.4,-1.4 4.2,-2.5 3.6,-4.6 3,-5.6 2.6,-6.4 1.7,-7.1 0.7,-6.7 l -0.9,0.3 c -1,0.3 -1.3,1.3 -1.2,2.3 0.2,1 0.9,3.1 1.4,4.1"
         class="st8" />
    </g>
  </g>
  <g
     style="opacity:0.5"
     id="g86"
     clip-path="url(#SVGID_16_)"
     transform="matrix(-2.00375,0,0,-2.00375,284.00375,999.995)"
     class="st53">
    <g
       id="g84"
       transform="translate(55.31,125.01)">
      <path
         style="fill:#434147"
         inkscape:connector-curvature="0"
         id="path82"
         d="m 0,0 c -0.1,0 -0.1,0 0,0 -0.1,0 -0.1,-0.1 -0.1,-0.1 v -0.1 -0.1 -0.5 h -0.4 c 0,0 -0.1,0 -0.1,-0.1 0,0 0,-0.1 0.1,-0.1 h 0.4 v -0.1 h -0.4 c 0,0 -0.1,0 -0.1,-0.1 0,0 0,-0.1 0.1,-0.1 h 0.4 v -0.8 h -0.4 c 0,0 -0.1,0 -0.1,-0.1 0,0 0,-0.1 0.1,-0.1 h 0.4 v -0.1 h -0.4 c 0,0 -0.1,0 -0.1,-0.1 0,0 0,-0.1 0.1,-0.1 h 0.4 L 0,-3 h -0.4 c 0,0 -0.1,0 -0.1,-0.1 0,0 0,-0.1 0.1,-0.1 H 0 v -0.1 h -0.4 c 0,0 -0.1,0 -0.1,-0.1 0,0 0,-0.1 0.1,-0.1 H 0 v -0.8 h -0.4 c 0,0 -0.1,0 -0.1,-0.1 0,0 0,-0.1 0.1,-0.1 H 0 v -0.1 h -0.4 c 0,0 -0.1,0 -0.1,-0.1 0,-0.1 0,-0.1 0.1,-0.1 H 0 v -0.8 h -0.4 c 0,0 -0.1,0 -0.1,-0.1 0,0 0,-0.1 0.1,-0.1 H 0 v -0.1 h -0.4 c 0,0 -0.1,0 -0.1,-0.1 0,0 0,-0.1 0.1,-0.1 H 0 v -0.8 h -0.4 c 0,0 -0.1,0 -0.1,-0.1 0,0 0,-0.1 0.1,-0.1 H 0 v -0.1 h -0.4 c 0,0 -0.1,0 -0.1,-0.1 0,0 0,-0.1 0.1,-0.1 H 0 v -0.8 h -0.4 c 0,0 -0.1,0 -0.1,-0.1 0,0 0,-0.1 0.1,-0.1 H 0 v -0.1 h -0.4 c 0,0 -0.1,0 -0.1,-0.1 0,0 0,-0.1 0.1,-0.1 H 0 v -0.8 h -0.4 c 0,0 -0.1,0 -0.1,-0.1 0,0 0,-0.1 0.1,-0.1 H 0 v -0.1 h -0.4 c 0,0 -0.1,0 -0.1,-0.1 0,0 0,-0.1 0.1,-0.1 H 0 v -0.5 -0.1 -0.1 l 13,0.7 h 0.8 c 0.1,0 0.2,0.1 0.2,0.2 l -0.5,9.5 c 0,0.1 -0.1,0.2 -0.2,0.2 H 12.5 L 0,0"
         class="st8" />
    </g>
  </g>
  <g
     style="opacity:0.5"
     id="g98"
     clip-path="url(#SVGID_18_)"
     transform="matrix(-2.00375,0,0,-2.00375,284.00375,999.995)"
     class="st58">
    <g
       id="g96"
       transform="translate(67.967,129.59)">
      <path
         style="fill:#434147"
         inkscape:connector-curvature="0"
         id="path94"
         d="M 0,0 -1.2,-1.2 0.4,-0.9 14.3,6.2 14.2,6.4 14,6.9 13.9,7.1 Z"
         class="st8" />
    </g>
  </g>
  <g
     style="stroke-width:14.1260004"
     id="g118"
     transform="matrix(1.25,0,0,-1.25,337.42,946.58)">
    <path
       style="fill:#e3c63b"
       inkscape:connector-curvature="0"
       id="path100"
       d="m -40.109,593.87 15.077,33.4 6.3177,-36.427 c 0,0 -1.0892,-5.7214 -12.532,-3.543 -9.9522,0.84843 -8.863,6.5698 -8.863,6.5698"
       class="st46" />
    <path
       style="fill:#1498c3"
       inkscape:connector-curvature="0"
       id="path102"
       d="m -92.449,245.67 21.395,-3.0269 52.26,349.61 -21.395,3.0269 z"
       class="st47" />
    <path
       style="fill:#1498c3"
       inkscape:connector-curvature="0"
       id="path104"
       d="m -28.621,615.74 5.0793,10.193 2.1327,-12.612 z"
       class="st47" />
    <path
       style="fill:#ebd467"
       inkscape:connector-curvature="0"
       id="path106"
       d="m -34.388,592.78 10.766,34.569 -0.81394,-35.418 c 0,0 -1.0892,-5.7214 -6.8106,-4.6322 -4.2308,-0.24079 -3.1416,5.4806 -3.1416,5.4806"
       class="st48" />
    <path
       style="fill:#1498c3"
       inkscape:connector-curvature="0"
       id="path108"
       d="m -28.621,615.74 5.0793,10.193 2.1327,-12.612 z"
       class="st47" />
    <path
       style="fill:#18b9ed"
       inkscape:connector-curvature="0"
       id="path110"
       d="m -86.728,244.58 10.033,-2.2587 52.26,349.61 -10.033,2.2587 z"
       class="st49" />
    <path
       style="fill:#fbf8ec"
       inkscape:connector-curvature="0"
       id="path112"
       d="m 131.56,660.23 -0.22826,-294.3 c 0.16053,-2.8206 1.6511,-4.1506 4.4716,-3.99 l 215.09,-0.49226 c 2.8206,0.16053 4.1506,1.6511 3.99,4.4716 l 0.22826,294.3 -0.0803,1.4103 -0.1606,2.8206 -1.4906,1.33 -1.4103,-0.0803 -215.09,0.49225 -1.4103,-0.0803 c 0,0 -1.4103,-0.0803 -1.33,-1.4906 l 0.0803,-1.4103 c -2.7403,-1.5708 -2.7403,-1.5708 -2.66,-2.9811 -0.0803,1.4103 0,0 0,0"
       class="st54" />
    <path
       style="fill:#c4c3b9"
       inkscape:connector-curvature="0"
       id="path114"
       d="m 130.48,355.98 0.48159,-8.4617 c 0.16053,-2.8206 1.6511,-4.1506 4.5519,-5.4003 l 215.09,-0.49225 c 2.8206,0.16053 4.1506,1.6511 3.99,4.4716 l -0.48159,8.4617 c 0.16053,-2.8206 -2.5798,-4.3914 -3.99,-4.4716 l -215.09,0.49225 c -1.4906,1.33 -4.4716,3.9901 -4.5519,5.4003"
       class="st55" />
    <path
       style="fill:#e0ded3"
       inkscape:connector-curvature="0"
       id="path116"
       d="m 131.33,365.93 0.48159,-8.4617 c 0.16053,-2.8206 1.6511,-4.1506 4.4716,-3.99 l 215.09,-0.49226 c 2.8206,0.16053 4.1506,1.6511 3.99,4.4716 l -0.48159,8.4617 c 0.16053,-2.8206 -2.5798,-4.3914 -3.99,-4.4716 l -215.09,0.49226 c -2.8206,-0.16053 -4.3111,1.1695 -4.4716,3.99"
       class="st56" />
  </g>
  <g
     style="fill:#c4c3b9;stroke-width:14.1260004"
     id="g136"
     transform="matrix(1.25,0,0,-1.25,337.42,946.58)">
    <path
       style="fill:#c4c3b9"
       inkscape:connector-curvature="0"
       id="path120"
       d="m 329.27,641.77 11.282,0.64212 -0.64212,11.282 -11.282,-0.64212 z"
       class="st55" />
    <path
       style="fill:#c4c3b9"
       inkscape:connector-curvature="0"
       id="path122"
       d="m 303.72,643.15 11.282,0.64212 -0.64212,11.282 -11.282,-0.64212 z"
       class="st55" />
    <path
       style="fill:#c4c3b9"
       inkscape:connector-curvature="0"
       id="path124"
       d="m 276.85,643.03 11.282,0.64212 -0.64212,11.282 -11.282,-0.64213 z"
       class="st55" />
    <path
       style="fill:#c4c3b9"
       inkscape:connector-curvature="0"
       id="path126"
       d="m 249.97,642.92 11.282,0.64212 -0.64212,11.282 -11.282,-0.64212 z"
       class="st55" />
    <path
       style="fill:#c4c3b9"
       inkscape:connector-curvature="0"
       id="path128"
       d="m 224.51,642.88 11.282,0.64212 -0.64212,11.282 -11.282,-0.64212 z"
       class="st55" />
    <path
       style="fill:#c4c3b9"
       inkscape:connector-curvature="0"
       id="path130"
       d="m 197.63,642.77 11.282,0.64212 -0.64212,11.282 -11.282,-0.64212 z"
       class="st55" />
    <path
       style="fill:#c4c3b9"
       inkscape:connector-curvature="0"
       id="path132"
       d="m 170.76,642.66 11.282,0.64212 -0.64212,11.282 -11.282,-0.64212 z"
       class="st55" />
    <path
       style="fill:#c4c3b9"
       inkscape:connector-curvature="0"
       id="path134"
       d="m 143.88,642.54 11.282,0.64212 -0.64212,11.282 -11.282,-0.64212 z"
       class="st55" />
  </g>
  <g
     style="fill:#8c8b8b;stroke-width:14.1260004"
     id="g170"
     transform="matrix(1.25,0,0,-1.25,337.42,946.58)">
    <path
       style="fill:#8c8b8b"
       inkscape:connector-curvature="0"
       id="path138"
       d="m 333.18,647.65 c 0,0 1.4103,0.0803 0,0 l 1.2955,26.956 c -0.0803,1.4103 -0.0803,1.4103 -1.4906,1.33 -1.4103,-0.0803 -1.4103,-0.0803 -1.33,-1.4906 l 1.525,-26.795 c -1.4103,-0.0803 -1.4103,-0.0803 0,0"
       class="st39" />
    <path
       style="fill:#8c8b8b"
       inkscape:connector-curvature="0"
       id="path140"
       d="m 338.82,647.98 c 0,0 1.4103,0.0803 0,0 l 1.2955,26.956 c -0.0803,1.4103 -0.0803,1.4103 -1.4905,1.33 0,0 -1.4103,-0.0803 -1.33,-1.4906 l 1.525,-26.795 c -1.4103,-0.0803 -1.4103,-0.0803 0,0"
       class="st39" />
    <path
       style="fill:#8c8b8b"
       inkscape:connector-curvature="0"
       id="path142"
       d="m 306.22,648.95 c 0,0 1.4103,0.0803 0,0 l 1.2955,26.956 c -0.0803,1.4103 -0.0803,1.4103 -1.4906,1.33 0,0 -1.4103,-0.0803 -1.33,-1.4906 l 1.525,-26.795 c -1.4103,-0.0803 -1.4103,-0.0803 0,0"
       class="st39" />
    <path
       style="fill:#8c8b8b"
       inkscape:connector-curvature="0"
       id="path144"
       d="m 311.95,647.86 c 1.4103,0.0803 1.33,1.4906 0,0 l 1.2955,26.956 c -0.0803,1.4103 -0.0803,1.4103 -1.4905,1.33 -1.4103,-0.0803 -1.4103,-0.0803 -1.33,-1.4905 l 1.525,-26.795 c -1.4905,1.33 -1.4103,-0.0803 0,0"
       class="st39" />
    <path
       style="fill:#8c8b8b"
       inkscape:connector-curvature="0"
       id="path146"
       d="m 279.35,648.84 c 1.4103,0.0803 1.4103,0.0803 0,0 l 1.2955,26.956 c -0.0803,1.4103 -0.0803,1.4103 -1.4906,1.33 -1.4103,-0.0803 -1.4103,-0.0803 -1.33,-1.4905 l 1.525,-26.795 c -1.4103,-0.0803 0,0 0,0"
       class="st39" />
    <path
       style="fill:#8c8b8b"
       inkscape:connector-curvature="0"
       id="path148"
       d="m 285.07,647.75 c 1.4103,0.0803 1.33,1.4906 0,0 l 1.2955,26.956 c 0,0 -0.0803,1.4103 -1.4905,1.33 -1.4103,-0.0803 -1.4103,-0.0803 -1.33,-1.4906 l 1.525,-26.795 c -1.4906,1.33 0,0 0,0"
       class="st39" />
    <path
       style="fill:#8c8b8b"
       inkscape:connector-curvature="0"
       id="path150"
       d="m 253.88,648.8 c 0,0 1.4103,0.0803 0,0 l 1.2955,26.956 c -0.0803,1.4103 -0.0803,1.4103 -1.4906,1.33 -1.4103,-0.0803 -1.4103,-0.0803 -1.33,-1.4906 l 1.525,-26.795 c -1.4103,-0.0803 -1.4103,-0.0803 0,0"
       class="st39" />
    <path
       style="fill:#8c8b8b"
       inkscape:connector-curvature="0"
       id="path152"
       d="m 259.6,647.71 c 0,0 1.33,1.4906 0,0 l 1.2955,26.956 c -0.0803,1.4103 -0.0803,1.4103 -1.4906,1.33 -1.4103,-0.0803 -1.4103,-0.0803 -1.33,-1.4906 l 1.525,-26.795 c -1.4906,1.33 -1.4103,-0.0803 0,0"
       class="st39" />
    <path
       style="fill:#8c8b8b"
       inkscape:connector-curvature="0"
       id="path154"
       d="m 227.01,648.69 c 0,0 1.4103,0.0803 0,0 l 1.2955,26.956 c -0.0803,1.4103 -0.0803,1.4103 -1.4906,1.33 -1.4103,-0.0803 -1.4103,-0.0803 -1.33,-1.4906 l 1.525,-26.795 c -1.4103,-0.0803 -1.4103,-0.0803 0,0"
       class="st39" />
    <path
       style="fill:#8c8b8b"
       inkscape:connector-curvature="0"
       id="path156"
       d="m 232.73,647.6 c 1.4103,0.0803 1.33,1.4905 0,0 l 1.2955,26.956 c 0,0 -0.0803,1.4103 -1.4906,1.33 0,0 -1.4103,-0.0803 -1.33,-1.4906 l 1.525,-26.795 c -1.4906,1.33 0,0 0,0"
       class="st39" />
    <path
       style="fill:#8c8b8b"
       inkscape:connector-curvature="0"
       id="path158"
       d="m 200.13,648.57 c 0,0 1.4103,0.0803 0,0 l 1.2955,26.956 c 0,0 -0.0803,1.4103 -1.4906,1.33 -1.4103,-0.0803 -1.4103,-0.0803 -1.33,-1.4906 l 1.525,-26.795 c -1.4103,-0.0803 -1.4103,-0.0803 0,0"
       class="st39" />
    <path
       style="fill:#8c8b8b"
       inkscape:connector-curvature="0"
       id="path160"
       d="m 205.77,648.89 c 1.4103,0.0803 1.4103,0.0803 0,0 l 1.2955,26.956 c -0.0803,1.4103 -0.0803,1.4103 -1.4905,1.33 -1.4103,-0.0803 -1.4103,-0.0803 -1.33,-1.4906 l 1.525,-26.795 c -1.4103,-0.0803 -1.4103,-0.0803 0,0"
       class="st39" />
    <path
       style="fill:#8c8b8b"
       inkscape:connector-curvature="0"
       id="path162"
       d="m 173.26,648.46 c 1.4103,0.0803 1.4103,0.0803 0,0 l 1.2955,26.956 c 0,0 -0.0803,1.4103 -1.4906,1.33 -1.4103,-0.0803 -1.4103,-0.0803 -1.33,-1.4906 l 1.525,-26.795 c -1.4103,-0.0803 0,0 0,0"
       class="st39" />
    <path
       style="fill:#8c8b8b"
       inkscape:connector-curvature="0"
       id="path164"
       d="m 178.9,648.78 c 1.4103,0.0803 1.4103,0.0803 0,0 l 1.2955,26.956 c -0.0803,1.4103 -0.0803,1.4103 -1.4905,1.33 0,0 -1.4103,-0.0803 -1.33,-1.4906 l 1.525,-26.795 c -1.4103,-0.0803 0,0 0,0"
       class="st39" />
    <path
       style="fill:#8c8b8b"
       inkscape:connector-curvature="0"
       id="path166"
       d="m 147.79,648.42 1.2955,26.956 c 0,0 -0.0803,1.4103 -1.4905,1.33 -1.4103,-0.0803 -1.4103,-0.0803 -1.33,-1.4906 l 1.525,-26.795 c -1.4103,-0.0803 -1.4103,-0.0803 0,0"
       class="st39" />
    <path
       style="fill:#8c8b8b"
       inkscape:connector-curvature="0"
       id="path168"
       d="m 153.43,648.74 c 0,0 1.4103,0.0803 0,0 l 1.2955,26.956 c -0.0803,1.4103 -0.0803,1.4103 -1.4906,1.33 0,0 -1.4103,-0.0803 -1.33,-1.4906 l 1.525,-26.795 c -1.4103,-0.0803 -1.4103,-0.0803 0,0"
       class="st39" />
  </g>
  <g
     style="stroke-width:14.1260004"
     id="g200"
     transform="matrix(1.25,0,0,-1.25,337.42,946.58)">
    <path
       style="fill:#e3c63b"
       inkscape:connector-curvature="0"
       id="path188"
       d="m 49.129,368.33 23.86,28.24 -3.5542,-36.988 c 0,0 -2.4995,-5.8017 -12.693,-0.72239 -10.193,5.0793 -7.6133,9.4707 -7.6133,9.4707"
       class="st46" />
    <path
       style="fill:#1498c3"
       inkscape:connector-curvature="0"
       id="path190"
       d="m 65.009,387.62 7.9801,8.9433 -0.76816,-11.363 z"
       class="st47" />
    <path
       style="fill:#ebd467"
       inkscape:connector-curvature="0"
       id="path192"
       d="m 53.521,365.75 19.469,30.82 -9.3559,-34.489 c 0,0 -2.4995,-5.8017 -6.8909,-3.2219 -4.3914,2.5798 -3.2219,6.8909 -3.2219,6.8909"
       class="st48" />
    <path
       style="fill:#00587e"
       inkscape:connector-curvature="0"
       id="path194"
       d="m -95.234,46.013 20.306,-8.7483 144.36,322.31 -20.306,8.7483 z"
       class="st59" />
    <path
       style="fill:#00587e"
       inkscape:connector-curvature="0"
       id="path196"
       d="m 65.009,387.62 7.9801,8.9433 -0.76816,-11.363 z"
       class="st59" />
    <path
       style="fill:#007bb0"
       inkscape:connector-curvature="0"
       id="path198"
       d="m -89.433,43.513 10.113,-3.669 144.36,322.31 -10.113,3.669 z"
       class="st60" />
  </g>
  <g
     id="g350"
     style="fill:#e8e5c3;fill-opacity:1;stroke:none"
     transform="translate(0,14)">
    <ellipse
       id="ellipse10-6"
       ry="28.43927"
       rx="79.730438"
       cy="-726.03284"
       cx="-30.65744"
       style="fill:#e8e5c3;fill-opacity:1;stroke:none;stroke-width:0.66226512"
       transform="matrix(0.20955475,-0.97779691,-0.94134323,-0.33745062,0,0)" />
    <ellipse
       id="ellipse10"
       ry="28.43927"
       rx="79.730438"
       cy="539.51453"
       cx="-467.41452"
       style="fill:#e8e5c3;fill-opacity:1;stroke:none;stroke-width:0.66226512"
       transform="matrix(-0.20955475,-0.97779691,0.94134323,-0.33745062,0,0)" />
    <ellipse
       ry="71.252716"
       rx="74.605789"
       cy="371.82199"
       cx="641.41949"
       id="path116-3"
       style="fill:#e8e5c3;fill-opacity:1;stroke:none;stroke-width:0.74980801" />
  </g>
</svg>
