<svg version="1.1" viewBox="0 0 1e3 1e3" xmlns="http://www.w3.org/2000/svg">
 <path d="m180.98 425.4h637.79c13.986 0 25.246 11.26 25.246 25.246v424.11c0 13.986-11.26 25.246-25.246 25.246h-637.79c-13.986 0-25.246-11.26-25.246-25.246v-424.11c0-13.986 11.26-25.246 25.246-25.246z" fill="#f3f3f3" stroke-width="2.5501"/>
 <path d="m818.77 425.4h-637.53a25.246 25.246 0 0 0-25.246 25.246v424.09a25.246 25.246 0 0 0 25.246 25.246h637.53a25.246 25.246 0 0 0 25.246-25.246v-424.09a25.246 25.246 0 0 0-25.246-25.246zm21.421 449.33a21.166 21.166 0 0 1-21.166 21.166h-638.04a21.166 21.166 0 0 1-21.166-21.166v-424.34a21.166 21.166 0 0 1 21.166-21.166h637.79a21.166 21.166 0 0 1 21.166 21.166z" fill="#e9e9e9" fill-rule="evenodd" stroke-width="2.5501"/>
 <path d="m218.98 425.4h557.71v23.742h-557.71z" fill="#5e5e5e" stroke-width="2.5501"/>
 <path d="m223.06 419.02h549.81v26.113h-549.81z" fill="#444" stroke-width="2.5501"/>
 <path d="m440.58 899.97h118.58a12.496 12.496 0 0 0-12.496-11.986h-93.335a12.496 12.496 0 0 0-12.751 11.986z" fill="#dadada" fill-rule="evenodd" stroke-width="2.5501"/>
 <path d="m405.9 741.61h187.94c7.0638 0 12.751 5.6868 12.751 12.751v101.06c0 7.0638-5.6868 12.751-12.751 12.751h-187.94c-7.0638 0-12.751-5.6868-12.751-12.751v-101.06c0-7.0638 5.6868-12.751 12.751-12.751z" fill="#dadada" stroke-width="2.5501"/>
 <path d="m237.85 476.65h519.97c10.454 0 18.871 8.4164 18.871 18.871v207.48c0 10.454-8.4164 18.871-18.871 18.871h-519.97c-10.454 0-18.871-8.4164-18.871-18.871v-207.48c0-10.454 8.4164-18.871 18.871-18.871z" fill="#dadada" stroke-width="2.5501"/>
 <path d="m238.1 547.8h25.246a3.0602 3.0602 0 0 0 3.0602-3.0602v-25.246a3.0602 3.0602 0 0 0-3.0602-3.0602h-25.246a3.0602 3.0602 0 0 0-3.0602 3.0602v25.246a3.0602 3.0602 0 0 0 3.0602 3.0602zm39.527 0h25.246a3.0602 3.0602 0 0 0 3.0602-3.0602v-25.246a3.0602 3.0602 0 0 0-3.0602-3.0602h-25.246a3.0602 3.0602 0 0 0-3.0602 3.0602v25.246a3.0602 3.0602 0 0 0 3.0602 3.0602zm39.527 0h25.246a3.0602 3.0602 0 0 0 3.0602-3.0602v-25.246a3.0602 3.0602 0 0 0-3.0602-3.0602h-25.246a3.0602 3.0602 0 0 0-3.0602 3.0602v25.246a3.0602 3.0602 0 0 0 3.0602 3.0602zm39.527 0h25.246a3.0602 3.0602 0 0 0 3.0602-3.0602v-25.246a3.0602 3.0602 0 0 0-3.0602-3.0602h-25.246a3.0602 3.0602 0 0 0-3.0602 3.0602v25.246a3.0602 3.0602 0 0 0 3.0602 3.0602zm39.527 0h25.246a3.0602 3.0602 0 0 0 3.0602-3.0602v-25.246a3.0602 3.0602 0 0 0-3.0602-3.0602h-25.246a3.0602 3.0602 0 0 0-3.0602 3.0602v25.246a3.0602 3.0602 0 0 0 3.0602 3.0602zm39.527 0h25.246a3.0602 3.0602 0 0 0 3.0602-3.0602v-25.246a3.0602 3.0602 0 0 0-3.0602-3.0602h-25.246a3.0602 3.0602 0 0 0-3.0602 3.0602v25.246a3.0602 3.0602 0 0 0 3.0602 3.0602zm36.467-3.0602a3.0602 3.0602 0 0 0 3.0602 3.0602h25.246a3.0602 3.0602 0 0 0 3.0602-3.0602v-25.246a3.0602 3.0602 0 0 0-3.0602-3.0602h-25.246a3.0602 3.0602 0 0 0-3.0602 3.0602zm39.527-25.246v25.246a3.0602 3.0602 0 0 0 3.0602 3.0602h25.246a3.0602 3.0602 0 0 0 3.0602-3.0602v-25.246a3.0602 3.0602 0 0 0-3.0602-3.0602h-25.246a3.0602 3.0602 0 0 0-3.0602 3.0602zm68.088-3.0602h-25.246a3.0602 3.0602 0 0 0-3.0602 3.0602v25.246a3.0602 3.0602 0 0 0 3.0602 3.0602h25.246a3.0602 3.0602 0 0 0 3.0602-3.0602v-25.246a3.0602 3.0602 0 0 0-3.0602-3.3152zm39.527 0h-25.246a3.0602 3.0602 0 0 0-3.0602 3.0602v25.246a3.0602 3.0602 0 0 0 3.0602 3.0602h25.246a3.0602 3.0602 0 0 0 3.0602-3.0602v-25.246a3.0602 3.0602 0 0 0-3.0602-3.3152zm39.527 0h-25.246a3.0602 3.0602 0 0 0-3.0602 3.0602v25.246a3.0602 3.0602 0 0 0 3.0602 3.0602h25.246a3.0602 3.0602 0 0 0 3.0602-3.0602v-25.246a3.0602 3.0602 0 0 0-3.0602-3.3152zm39.527 0h-25.246a3.0602 3.0602 0 0 0-3.0602 3.0602v25.246a3.0602 3.0602 0 0 0 3.0602 3.0602h25.246a3.0602 3.0602 0 0 0 3.0602-3.0602v-25.246a3.0602 3.0602 0 0 0-3.0602-3.3152zm-460.3 71.149h45.137a3.0602 3.0602 0 0 0 3.0602-3.0602v-25.246a3.0602 3.0602 0 0 0-3.0602-3.0602h-45.137a3.0602 3.0602 0 0 0-3.0602 3.0602v25.246a3.0602 3.0602 0 0 0 3.0602 3.0602zm87.724-3.0602v-25.246a3.0602 3.0602 0 0 0-3.0602-3.0602h-25.246a3.0602 3.0602 0 0 0-3.0602 3.0602v25.246a3.0602 3.0602 0 0 0 3.0602 3.0602h25.246a3.0602 3.0602 0 0 0 3.0602-3.3152zm39.527 0v-25.246a3.0602 3.0602 0 0 0-3.0602-3.0602h-25.246a3.0602 3.0602 0 0 0-3.0602 3.0602v25.246a3.0602 3.0602 0 0 0 3.0602 3.0602h25.246a3.0602 3.0602 0 0 0 3.0602-3.3152zm39.527 0v-25.246a3.0602 3.0602 0 0 0-3.0602-3.0602h-25.246a3.0602 3.0602 0 0 0-3.0602 3.0602v25.246a3.0602 3.0602 0 0 0 3.0602 3.0602h25.246a3.0602 3.0602 0 0 0 3.0602-3.3152zm36.467 3.0602a3.0602 3.0602 0 0 0 3.0602-3.0602v-25.246a3.0602 3.0602 0 0 0-3.0602-3.0602h-25.246a3.0602 3.0602 0 0 0-3.0602 3.0602v25.246a3.0602 3.0602 0 0 0 3.0602 3.0602zm39.527 0a3.0602 3.0602 0 0 0 3.0602-3.0602v-25.246a3.0602 3.0602 0 0 0-3.0602-3.0602h-25.246a3.0602 3.0602 0 0 0-3.0602 3.0602v25.246a3.0602 3.0602 0 0 0 3.0602 3.0602zm39.527 0a3.0602 3.0602 0 0 0 3.0602-3.0602v-25.246a3.0602 3.0602 0 0 0-3.0602-3.0602h-25.246a3.0602 3.0602 0 0 0-3.0602 3.0602v25.246a3.0602 3.0602 0 0 0 3.0602 3.0602zm10.966-28.561v25.246a3.0602 3.0602 0 0 0 3.0602 3.0602h25.246a3.0602 3.0602 0 0 0 3.0602-3.0602v-25.246a3.0602 3.0602 0 0 0-3.0602-3.0602h-24.991a3.0602 3.0602 0 0 0-3.0602 3.0602zm39.527 0v25.246a3.0602 3.0602 0 0 0 3.0602 3.0602h25.246a3.0602 3.0602 0 0 0 3.0602-3.0602v-25.246a3.0602 3.0602 0 0 0-3.0602-3.0602h-25.246a3.0602 3.0602 0 0 0-2.8051 3.0602zm39.527 0v25.246a3.0602 3.0602 0 0 0 3.0602 3.0602h25.246a3.0602 3.0602 0 0 0 3.0602-3.0602v-25.246a3.0602 3.0602 0 0 0-3.0602-3.0602h-24.991a3.0602 3.0602 0 0 0-3.0602 3.0602zm39.527 0v25.246a3.0602 3.0602 0 0 0 3.0602 3.0602h25.246a3.0602 3.0602 0 0 0 3.0602-3.0602v-25.246a3.0602 3.0602 0 0 0-3.0602-3.0602h-25.246a3.0602 3.0602 0 0 0-2.8051 3.0602zm39.527 0v25.246a3.0602 3.0602 0 0 0 3.0602 3.0602h25.756a3.0602 3.0602 0 0 0 3.0602-3.0602v-25.246a3.0602 3.0602 0 0 0-3.0602-3.0602h-25.501a3.0602 3.0602 0 0 0-3.0602 3.0602zm68.088-3.0602h-25.246a3.0602 3.0602 0 0 0-3.0602 3.0602v25.246a3.0602 3.0602 0 0 0 3.0602 3.0602h25.246a3.0602 3.0602 0 0 0 3.0602-3.0602v-25.246a3.0602 3.0602 0 0 0-2.8051-3.3152zm0-39.527h-44.882a3.0602 3.0602 0 0 0-3.0602 3.0602v25.246a3.0602 3.0602 0 0 0 3.0602 3.0602h45.137a3.0602 3.0602 0 0 0 3.0602-3.0602v-25.246a3.0602 3.0602 0 0 0-3.0602-3.3152zm-519.46 110.68h53.043a3.0602 3.0602 0 0 0 3.0602-3.0602v-25.246a3.0602 3.0602 0 0 0-3.0602-3.0602h-53.043a3.0602 3.0602 0 0 0-3.0602 3.0602v25.246a3.0602 3.0602 0 0 0 3.0602 3.0602zm67.323 0h25.246a3.0602 3.0602 0 0 0 3.0602-3.0602v-25.246a3.0602 3.0602 0 0 0-3.0602-3.0602h-25.501a3.0602 3.0602 0 0 0-3.0602 3.0602v25.246a3.0602 3.0602 0 0 0 3.0602 3.0602zm39.527 0h25.246a3.0602 3.0602 0 0 0 3.0602-3.0602v-25.246a3.0602 3.0602 0 0 0-3.0602-3.0602h-25.246a3.0602 3.0602 0 0 0-3.0602 3.0602v25.246a3.0602 3.0602 0 0 0 3.0602 3.0602zm39.527 0h25.246a3.0602 3.0602 0 0 0 3.0602-3.0602v-25.246a3.0602 3.0602 0 0 0-3.0602-3.0602h-25.246a3.0602 3.0602 0 0 0-3.0602 3.0602v25.246a3.0602 3.0602 0 0 0 3.0602 3.0602zm68.088-3.0602v-25.246a3.0602 3.0602 0 0 0-3.0602-3.0602h-25.246a3.0602 3.0602 0 0 0-3.0602 3.0602v25.246a3.0602 3.0602 0 0 0 3.0602 3.0602h25.246a3.0602 3.0602 0 0 0 2.8051-3.3152zm39.527 0v-25.246a3.0602 3.0602 0 0 0-3.0602-3.0602h-25.246a3.0602 3.0602 0 0 0-3.0602 3.0602v25.246a3.0602 3.0602 0 0 0 3.0602 3.0602h24.991a3.0602 3.0602 0 0 0 3.3152-3.3152zm39.527 0v-25.246a3.0602 3.0602 0 0 0-3.0602-3.0602h-25.246a3.0602 3.0602 0 0 0-3.0602 3.0602v25.246a3.0602 3.0602 0 0 0 3.0602 3.0602h25.246a3.0602 3.0602 0 0 0 3.0602-3.3152zm39.527 0v-25.246a3.0602 3.0602 0 0 0-3.0602-3.0602h-25.246a3.0602 3.0602 0 0 0-3.0602 3.0602v25.246a3.0602 3.0602 0 0 0 3.0602 3.0602h24.991a3.0602 3.0602 0 0 0 3.3152-3.3152zm39.527 0v-25.246a3.0602 3.0602 0 0 0-3.0602-3.0602h-25.246a3.0602 3.0602 0 0 0-3.0602 3.0602v25.246a3.0602 3.0602 0 0 0 3.0602 3.0602h25.246a3.0602 3.0602 0 0 0 3.0602-3.3152zm39.527 0v-25.246a3.0602 3.0602 0 0 0-3.0602-3.0602h-25.246a3.0602 3.0602 0 0 0-3.0602 3.0602v25.246a3.0602 3.0602 0 0 0 3.0602 3.0602h24.991a3.0602 3.0602 0 0 0 3.3152-3.3152zm39.527 0v-25.246a3.0602 3.0602 0 0 0-3.0602-3.0602h-25.246a3.0602 3.0602 0 0 0-3.0602 3.0602v25.246a3.0602 3.0602 0 0 0 3.0602 3.0602h25.246a3.0602 3.0602 0 0 0 3.0602-3.3152zm68.088-28.561h-57.123a3.0602 3.0602 0 0 0-3.0602 3.0602v25.246a3.0602 3.0602 0 0 0 3.0602 3.0602h56.868a3.0602 3.0602 0 0 0 3.0602-3.0602v-25.246a3.0602 3.0602 0 0 0-2.8051-3.0602zm0 39.527h-76.759a3.0602 3.0602 0 0 0-3.0602 3.0602v25.246a3.0602 3.0602 0 0 0 3.0602 3.0602h76.759a3.0602 3.0602 0 0 0 3.0602-3.0602v-25.246a3.0602 3.0602 0 0 0-3.0602-3.0602zm-116.29 31.622h25.246a3.0602 3.0602 0 0 0 3.0602-3.0602v-25.246a3.0602 3.0602 0 0 0-3.0602-3.0602h-25.246a3.0602 3.0602 0 0 0-3.0602 3.0602v25.246a3.0602 3.0602 0 0 0 3.0602 3.0602zm-39.527 0h25.246a3.0602 3.0602 0 0 0 3.0602-3.0602v-25.246a3.0602 3.0602 0 0 0-3.0602-3.0602h-25.246a3.0602 3.0602 0 0 0-3.0602 3.0602v25.246a3.0602 3.0602 0 0 0 3.0602 3.0602zm-39.527 0h25.246a3.0602 3.0602 0 0 0 3.0602-3.0602v-25.246a3.0602 3.0602 0 0 0-3.0602-3.0602h-25.246a3.0602 3.0602 0 0 0-3.0602 3.0602v25.246a3.0602 3.0602 0 0 0 3.0602 3.0602zm-39.527 0h25.246a3.0602 3.0602 0 0 0 3.0602-3.0602v-25.246a3.0602 3.0602 0 0 0-3.0602-3.0602h-25.246a3.0602 3.0602 0 0 0-3.0602 3.0602v25.246a3.0602 3.0602 0 0 0 2.8051 3.0602zm-39.527 0h25.246a3.0602 3.0602 0 0 0 3.0602-3.0602v-25.246a3.0602 3.0602 0 0 0-3.0602-3.0602h-25.246a3.0602 3.0602 0 0 0-3.0602 3.0602v25.246a3.0602 3.0602 0 0 0 2.8051 3.0602zm-39.527 0h25.246a3.0602 3.0602 0 0 0 3.0602-3.0602v-25.246a3.0602 3.0602 0 0 0-3.0602-3.0602h-25.246a3.0602 3.0602 0 0 0-3.0602 3.0602v25.246a3.0602 3.0602 0 0 0 2.8051 3.0602zm-39.527 0h25.246a3.0602 3.0602 0 0 0 3.0602-3.0602v-25.246a3.0602 3.0602 0 0 0-3.0602-3.0602h-25.246a3.0602 3.0602 0 0 0-3.0602 3.0602v25.246a3.0602 3.0602 0 0 0 2.8051 3.0602zm-14.281-31.622h-25.246a3.0602 3.0602 0 0 0-3.0602 3.0602v25.246a3.0602 3.0602 0 0 0 3.0602 3.0602h25.246a3.0602 3.0602 0 0 0 3.0602-3.0602v-25.246a3.0602 3.0602 0 0 0-3.3152-3.0602zm-36.467 3.0602a3.0602 3.0602 0 0 0-3.0602-3.0602h-25.246a3.0602 3.0602 0 0 0-3.0602 3.0602v25.246a3.0602 3.0602 0 0 0 3.0602 3.0602h25.246a3.0602 3.0602 0 0 0 3.0602-3.0602zm-39.527 0a3.0602 3.0602 0 0 0-3.0602-3.0602h-72.934a3.0602 3.0602 0 0 0-3.0602 3.0602v25.246a3.0602 3.0602 0 0 0 3.0602 3.0602h72.679a3.0602 3.0602 0 0 0 3.0602-3.0602zm-50.748 36.467h-25.246a3.0602 3.0602 0 0 0-3.0602 3.0602v25.246a3.0602 3.0602 0 0 0 3.0602 3.0602h25.246a3.0602 3.0602 0 0 0 3.0602-3.0602v-25.246a3.0602 3.0602 0 0 0-3.0602-3.0602zm39.527 0h-25.246a3.0602 3.0602 0 0 0-3.0602 3.0602v25.246a3.0602 3.0602 0 0 0 3.0602 3.0602h25.246a3.0602 3.0602 0 0 0 3.0602-3.0602v-25.246a3.0602 3.0602 0 0 0-3.0602-3.0602zm39.527 0h-25.246a3.0602 3.0602 0 0 0-3.0602 3.0602v25.246a3.0602 3.0602 0 0 0 3.0602 3.0602h25.246a3.0602 3.0602 0 0 0 3.0602-3.0602v-25.246a3.0602 3.0602 0 0 0-3.0602-3.0602zm47.432 0h-33.152a3.0602 3.0602 0 0 0-3.0602 3.0602v25.246a3.0602 3.0602 0 0 0 3.0602 3.0602h33.152a3.0602 3.0602 0 0 0 3.0602-3.0602v-25.246a3.0602 3.0602 0 0 0-3.0602-3.0602zm173.92 0h-159.64a3.0602 3.0602 0 0 0-3.0602 3.0602v25.246a3.0602 3.0602 0 0 0 3.0602 3.0602h159.89a3.0602 3.0602 0 0 0 3.0602-3.0602v-25.246a3.0602 3.0602 0 0 0-3.0602-3.0602zm47.432 0h-33.152a3.0602 3.0602 0 0 0-3.0602 3.0602v25.246a3.0602 3.0602 0 0 0 3.0602 3.0602h33.152a3.0602 3.0602 0 0 0 3.0602-3.0602v-25.246a3.0602 3.0602 0 0 0-2.8051-3.0602zm39.527 0h-25.246a3.0602 3.0602 0 0 0-3.0602 3.0602v25.246a3.0602 3.0602 0 0 0 3.0602 3.0602h25.246a3.0602 3.0602 0 0 0 3.0602-3.0602v-25.246a3.0602 3.0602 0 0 0-2.8051-3.0602zm35.702 19.891h-21.421a3.0602 3.0602 0 0 0-3.0602 3.0602v5.6103a3.0602 3.0602 0 0 0 3.0602 3.0602h21.421a3.0602 3.0602 0 0 0 3.0602-3.0602v-5.6103a3.0602 3.0602 0 0 0-2.8051-3.3152zm35.702 0h-21.421a3.0602 3.0602 0 0 0-3.0602 3.0602v5.6103a3.0602 3.0602 0 0 0 3.0602 3.0602h21.421a3.0602 3.0602 0 0 0 3.0602-3.0602v-5.6103a3.0602 3.0602 0 0 0-3.0602-3.3152zm35.702 0h-21.421a3.0602 3.0602 0 0 0-3.0602 3.0602v5.6103a3.0602 3.0602 0 0 0 3.0602 3.0602h21.421a3.0602 3.0602 0 0 0 3.0602-3.0602v-5.6103a3.0602 3.0602 0 0 0-3.0602-3.3152zm-35.702-15.811h-21.421a3.0602 3.0602 0 0 0-3.0602 3.0602v5.6103a3.0602 3.0602 0 0 0 3.0602 3.0602h21.421a3.0602 3.0602 0 0 0 3.0602-3.0602v-5.6103a3.0602 3.0602 0 0 0-3.0602-3.3152zm-484.01-170.35h25.246a3.0602 3.0602 0 0 0 3.0602-3.0602v-9.4355a3.0602 3.0602 0 0 0-3.0602-3.0602h-25.246a3.0602 3.0602 0 0 0-3.0602 3.0602v9.4355a3.0602 3.0602 0 0 0 3.0602 3.0602zm41.312 0h25.246a3.0602 3.0602 0 0 0 3.0602-3.0602v-9.4355a3.0602 3.0602 0 0 0-3.0602-3.0602h-25.246a3.0602 3.0602 0 0 0-3.0602 3.0602v9.4355a3.0602 3.0602 0 0 0 2.8051 3.0602zm41.312 0h25.246a3.0602 3.0602 0 0 0 3.0602-3.0602v-9.4355a3.0602 3.0602 0 0 0-3.0602-3.0602h-25.501a3.0602 3.0602 0 0 0-3.0602 3.0602v9.4355a3.0602 3.0602 0 0 0 3.0602 3.0602zm41.312 0h25.246a3.0602 3.0602 0 0 0 3.0602-3.0602v-9.4355a3.0602 3.0602 0 0 0-3.0602-3.0602h-25.246a3.0602 3.0602 0 0 0-3.0602 3.0602v9.4355a3.0602 3.0602 0 0 0 2.8051 3.0602zm41.312 0h25.246a3.0602 3.0602 0 0 0 3.0602-3.0602v-9.4355a3.0602 3.0602 0 0 0-3.0602-3.0602h-25.246a3.0602 3.0602 0 0 0-3.0602 3.0602v9.4355a3.0602 3.0602 0 0 0 2.5501 3.0602zm41.312 0h25.246a3.0602 3.0602 0 0 0 3.0602-3.0602v-9.4355a3.0602 3.0602 0 0 0-3.0602-3.0602h-25.246a3.0602 3.0602 0 0 0-3.0602 3.0602v9.4355a3.0602 3.0602 0 0 0 2.5501 3.0602zm41.312 0h25.246a3.0602 3.0602 0 0 0 3.0602-3.0602v-9.4355a3.0602 3.0602 0 0 0-3.0602-3.0602h-25.246a3.0602 3.0602 0 0 0-3.0602 3.0602v9.4355a3.0602 3.0602 0 0 0 2.2951 3.0602zm41.312 0h25.246a3.0602 3.0602 0 0 0 3.0602-3.0602v-9.4355a3.0602 3.0602 0 0 0-3.0602-3.0602h-25.246a3.0602 3.0602 0 0 0-3.0602 3.0602v9.4355a3.0602 3.0602 0 0 0 2.2951 3.0602zm41.312 0h25.246a3.0602 3.0602 0 0 0 3.0602-3.0602v-9.4355a3.0602 3.0602 0 0 0-3.0602-3.0602h-25.246a3.0602 3.0602 0 0 0-3.0602 3.0602v9.4355a3.0602 3.0602 0 0 0 2.0401 3.0602zm41.312 0h24.226a3.0602 3.0602 0 0 0 3.0602-3.0602v-9.4355a3.0602 3.0602 0 0 0-3.0602-3.0602h-25.246a3.0602 3.0602 0 0 0-3.0602 3.0602v9.4355a3.0602 3.0602 0 0 0 3.0602 3.0602zm41.312 0h25.246a3.0602 3.0602 0 0 0 3.0602-3.0602v-9.4355a3.0602 3.0602 0 0 0-3.0602-3.0602h-25.246a3.0602 3.0602 0 0 0-3.0602 3.0602v9.4355a3.0602 3.0602 0 0 0 2.0401 3.0602zm41.312 0h25.246a3.0602 3.0602 0 0 0 3.0602-3.0602v-9.4355a3.0602 3.0602 0 0 0-3.0602-3.0602h-25.246a3.0602 3.0602 0 0 0-3.0602 3.0602v9.4355a3.0602 3.0602 0 0 0 1.7851 3.0602zm66.558-15.811h-25.246a3.0602 3.0602 0 0 0-3.0602 3.0602v9.4355a3.0602 3.0602 0 0 0 3.0602 3.0602h25.246a3.0602 3.0602 0 0 0 3.0602-3.0602v-9.4355a3.0602 3.0602 0 0 0-4.3352-3.0602z" fill="#3d3d3d" fill-rule="evenodd" stroke-width="2.5501"/>
 <path d="m891.95 100h-783.91c-17.086 0-28.816 16.321-26.011 25.246l70.383 288.93c2.0401 6.1203 14.791 10.966 28.816 10.966h637.53c14.026 0 26.776-4.8452 28.816-10.966l70.383-288.93c2.8051-8.9254-8.9254-25.246-26.011-25.246z" fill="#dadada" stroke-width="2.5501"/>
 <path d="m891.95 108.93h-783.91c-17.086 0-28.816 7.3954-26.011 16.321l70.383 288.93c2.0401 6.1203 14.791 10.966 28.816 10.966h637.53c14.026 0 26.776-4.8452 28.816-10.966l70.383-288.93c2.8051-8.9254-8.9254-16.321-26.011-16.321z" fill="#3d3d3d" stroke-width="2.5501"/>
 <path d="m871.6 124.29h-743.22c-16.199 0-27.32 6.6772-24.661 14.736l66.73 260.87c1.9342 5.5259 14.023 9.901 27.32 9.901h604.44c13.298 0 25.386-4.3746 27.32-9.901l66.73-260.87c2.6595-8.0586-8.4621-14.736-24.661-14.736z" fill="#48709e" stroke-width="2.3594"/>
</svg>
