<?xml version="1.0" encoding="utf-8"?>
<!-- Generator: Adobe Illustrator 24.1.3, SVG Export Plug-In . SVG Version: 6.00 Build 0)  -->
<svg version="1.1"
	 id="svg2" xmlns:cc="http://creativecommons.org/ns#" xmlns:dc="http://purl.org/dc/elements/1.1/" xmlns:inkscape="http://www.inkscape.org/namespaces/inkscape" xmlns:rdf="http://www.w3.org/1999/02/22-rdf-syntax-ns#" xmlns:sodipodi="http://sodipodi.sourceforge.net/DTD/sodipodi-0.dtd" xmlns:svg="http://www.w3.org/2000/svg"
	 xmlns="http://www.w3.org/2000/svg" xmlns:xlink="http://www.w3.org/1999/xlink" x="0px" y="0px" viewBox="0 0 2048 800"
	 style="enable-background:new 0 0 2048 800;" xml:space="preserve">
<style type="text/css">
	.st0{fill:#A77660;}
	.st1{fill:#93BBD3;}
	.st2{fill:#669EC0;}
	.st3{fill:#846558;}
	.st4{fill:#231F20;}
	.st5{fill:#FFFFFF;}
	.st6{fill:#7FB860;}
	.st7{fill:#D1D3D4;}
	.st8{fill:#614A41;}
	.st9{fill:#191D2A;stroke:#191D2A;stroke-width:0.9928;stroke-miterlimit:4.7373;}
</style>
<sodipodi:namedview  bordercolor="#666666" borderopacity="1" fit-margin-left="-0.1" gridtolerance="10" guidetolerance="10" id="namedview182" inkscape:current-layer="svg2" inkscape:cx="88.373858" inkscape:cy="295.95145" inkscape:pageopacity="1" inkscape:pageshadow="2" inkscape:window-height="820" inkscape:window-maximized="1" inkscape:window-width="1600" inkscape:window-x="0" inkscape:window-y="48" inkscape:zoom="0.19955369" objecttolerance="10" pagecolor="#f8d983" showgrid="false" showguides="false">
	<sodipodi:guide  id="guide4818" inkscape:locked="false" orientation="1,0" position="-23.075212,206.66102"></sodipodi:guide>
</sodipodi:namedview>
<g id="BASEMENT" transform="translate(0,806)">
</g>
<g id="BG" transform="translate(0,806)">
</g>
<g id="LAYOUT" transform="translate(0,806)">
</g>
<g id="SPRITE_B" transform="translate(0,806)">
</g>
<g id="MENU" transform="translate(0,806)">
</g>
<path id="path118-3" inkscape:connector-curvature="0" sodipodi:nodetypes="sscccccccscccccccccscccccccss" class="st0" d="
	M1724.7,53.6c-39.6,0-71.7,41.5-71.7,57.3c0,8.7-1,33.8-1.2,57.8c-0.4-1.6-2.3-8.4-4.5-10.5c-2.4-2.4-5.7,2.2-5.7,2.2
	s-1.8,19.5-1,27c0.8,7.4,8.6,26.4,8.6,26.4l3.4-0.1l-0.1-3.4c0.2,2.2,0.4,4.6,0.6,6.2c2.2,12.3,9.4,34.5,16.8,53.8l0.5,54.5
	l17.7,20.6l17,127.1l19.4,37.4l26.5-110.2l5.5-54.7l16.7-22.6l0.9-43.1c8.4-21.4,16-49.1,18.8-62.2c0.5-2.1,0.8-5,1.1-8.5l-0.1,5
	l3.4,0.1c0,0,7.8-19,8.6-26.4c0.8-7.4-1-27-1-27s-3.3-4.5-5.7-2.2c-1.6,1.6-3,5.5-3.8,8.4c0.3-23.2,0.2-46.9,0.5-55.8
	C1797.1,93.8,1764.3,53.6,1724.7,53.6L1724.7,53.6z"/>
<path id="path88" inkscape:connector-curvature="0" sodipodi:nodetypes="cczcccscsccccsccczcccccccccc" class="st1" d="
	M1648.9,319.9l-127.2,41.3c-29.5,35.8-129,196.2-112.2,255c16.8,58.7,15.4,11.1,15.4,11.1l62.6-10.2c0,0-10.8,18.9-1-17
	c9.6,6,29.4-23,41.8-43.2c16.2-26.7,25.4-55,27.2-54.8c0.1-17.3-8.8,18.2,8.3,80.1c20.2,72.8,8.7,223.4,7.8,260.7
	c0,0,32.6,72.6,150.6,72.9v0.2c118.6,0,153.9-74.7,153.9-74.7c-5.6-46.1-27.4-181-10.3-251.6c1.1-4.7,0,0,6.6-20.2
	c-9.2,4.3,6,50.9,6,50.9l85.4,2.4c0,0,5.2-61.8,0.2-106.1s-11.4-117.7-38.2-155.4c-0.8,0.4-2.2,1-3,1.4l0.5-1.3L1794.3,321
	l-37.8,13.4l-14.7,73.5l-15.3,91.2l-29-86.2l-9.2-79.6L1648.9,319.9z"/>
<path id="polygon104" inkscape:connector-curvature="0" class="st2" d="M1855.6,572.3l-44.2,21.5l-44.2-21.5v-71.1h88.6
	L1855.6,572.3L1855.6,572.3z"/>
<path id="rect108" inkscape:connector-curvature="0" sodipodi:nodetypes="ccccccccccccccccc" class="st2" d="M1756.7,332.4l-7.8,57
	l-13,53v0.2c-1.2,4.2-2.6,9.8-4.7,19.1l-15.9,74l0.1-0.1l-0.1,0.2l-1.4,379.8l12-0.2l-1.4-387.7c9.2-44.3,12.7-57.6,13.9-63.2v0.2
	l0.2-1c0.1-0.4,0.2-1,0.2-1.4l17.3-99L1756.7,332.4z"/>
<path id="rect108-9" inkscape:connector-curvature="0" sodipodi:nodetypes="ccccccccc" class="st2" d="M1694.7,385.3l9.8,57.5v0.2
	c1.2,4.2,2.6,9.8,4.7,19.1l20.6,47.5c0,0-5-10.6-25.4-44.7c-6.2-34.9-13.8-71.2-15.9-101.3l-0.2-31.6
	C1694.1,363.1,1693.1,362.3,1694.7,385.3L1694.7,385.3z"/>
<path id="polygon104-1" inkscape:connector-curvature="0" sodipodi:nodetypes="czsccccc" class="st2" d="M1419.4,650.1
	c0,0-7.2-9.6-1.4-31.3c5.8-21.8,28.6-36.4,58-25c14.7,5.7,31.1,6.2,20.8,30.9c-0.1,8.6-3.8,15.9-3.8,15.9c-7.1-12-18-26.5-46.6-9.4
	c-10.6,6.3-15.6,29.8-15.6,29.8L1419.4,650.1z"/>
<path id="polygon104-1-2" inkscape:connector-curvature="0" sodipodi:nodetypes="czsccccc" class="st2" d="M1874,630.7
	c0,0-4.4-11,9.4-28.6c13.8-17.6,43-23,70.5-2.7c13.7,10.2,31,16.2,11.6,34.9c-3,7.8-9.5,13-9.5,13c-3.4-13.3-10.1-30-46.4-24.3
	c-13.4,2.1-27,21.5-27,21.5L1874,630.7z"/>
<path id="path124" inkscape:connector-curvature="0" sodipodi:nodetypes="cccczzc" class="st3" d="M1796.4,167.3
	c0,19.8-7,99-26.2,97.8c-19.1,50.6-70.2,51.2-88.6-0.9c-20.7-2.6-29.8-75.6-29.8-95.4c-5.5,54,14.5,110.3,41.4,130.7s36.2,21,65.3,0
	C1787.4,278.6,1797.7,219,1796.4,167.3L1796.4,167.3z"/>
<path id="path126" inkscape:connector-curvature="0" sodipodi:nodetypes="czccccccczzccccczcccc" class="st4" d="M1666.3,36.8
	c5.2,0.1,51-4.2,66.8,2.7c15.8,6.9,13.4,7.6,23,15.2c-1.5-4.5-0.2-0.7-3.2-5c11,5.1,26.7,12.4,30.2,31c9.3,7.6,12.4,11.8,18.3,26.7
	l-3.7,61.2l-8.3-42.6c0,0-10.3-9-12.5-18c-8.9,0.7-32.8-9.2-40.1-5.3c-7.3,3.9-11.3,7.1-21.8,2.6c-10.6-4.5-12.8-3.4-24.5,2.3
	c-8.1,2.2-27.8,12.2-27.8,12.2l-11.2,48.1l-3-62.6l-14.3-15c0,0,2-5,9.8-10.2c7.8-5.1,12.6-6.2,12.6-6.2c-8.2-4.3-9-6.9-17-10.8
	c12.9-14.3,26.5-16.2,33-15.9C1668.3,45,1667.9,41.8,1666.3,36.8z"/>
<g id="g4658" transform="matrix(4.4868924,0,0,5.829977,263.08594,-228.14786)">
	<path id="path124-3-6" inkscape:connector-curvature="0" sodipodi:nodetypes="ccccc" class="st3" d="M324.4,79.2h1.3l-0.3,2.6
		c-2.7-0.1-5.4-0.1-6.6,0.4C319.4,79.5,323.5,81,324.4,79.2z"/>
	<path id="path124-3-6-5" inkscape:connector-curvature="0" sodipodi:nodetypes="ccccc" class="st3" d="M327.8,79.2h-1.3l0.4,2.6
		c2.7-0.1,5.4-0.1,6.6,0.4C332.9,79.5,328.7,81,327.8,79.2z"/>
</g>
<path id="path138" inkscape:connector-curvature="0" sodipodi:nodetypes="cccccccccccccccccccccccccccccccccccccc" class="st0" d="
	M1432.4,643.8l-0.2,0.7c-2.2,6.7-2.2,14.2,0.3,21.3c1,3,2.6,5.8,3.8,8.8l4,8.7l8,17.4l15.9,34.9l8,17.4l4,8.7l2,4.4l1,2.2
	c0.2,0.4,0.3,0.6,0.5,1.2l0.4,1.1l6.9,19.4c1.3,4.2,2.7,8.2,4.2,11.8l1.7,4.8l0.1,0.2c0.9,2.5,2.2,4.6,3.8,6.6
	c21.3,37,55.7,33.8,80.2,32.1c0,0,9.2-6.5,6.4-14.4c0,0-16-7.5-31.6-30.6l-1.4-4.3c-0.2-1.8-0.1-3.4,0.2-5.1l10.7,15.8
	c3.4,5,10.1,6.2,15,2.9c4.9-3.4,6.2-10.1,2.8-15l-22.2-32.8c-2.4-3.6-6.7-5.2-10.7-4.6l-0.1-0.2l-20,5.8l-2.4-7.3
	c-1-2.9-1.7-6.1-2.6-9.1l-2.6-9.2l-5-18.4l-10.1-36.9l-5-18.4l-1.8-6.2C1493.8,643,1483.5,587,1432.4,643.8L1432.4,643.8z"/>
<g id="g4889" transform="matrix(6.592358,0,0,6.592358,68.668735,-296.87142)">
	<g id="g156">
		<path id="path158" inkscape:connector-curvature="0" class="st5" d="M254.3,141.3l0.8,17.1c0.1,0.6-1.5,1.3-3.6,1.6
			s-3.8,0.1-3.9-0.5l-4.4-16.6L254.3,141.3z"/>
		<path id="path160" inkscape:connector-curvature="0" class="st6" d="M245.8,151.2c-0.4-2.4,1.3-4.6,3.6-5c2.3-0.4,4.6,1.3,5,3.6
			c0.4,2.4-1.3,4.6-3.6,5C248.4,155.2,246.2,153.6,245.8,151.2z"/>
		<polygon id="polygon162" class="st7" points="243.3,143 243.5,143.9 254.3,141.7 254.3,141.3 		"/>
		<path id="path164" inkscape:connector-curvature="0" class="st5" d="M242.8,142.7l-0.2-0.8l0.8-0.2l-0.1-1.3c0-0.2,2.2-0.8,5-1.2
			c2.8-0.4,5-0.6,5.1-0.3l0.2,1.2l0.8-0.2l0.2,0.8l0.2,0.3l-12.2,1.9L242.8,142.7z"/>
	</g>
	
		<path id="path154" inkscape:connector-curvature="0" sodipodi:nodetypes="ccccccccccccccccccccccccccccccccccccccc" class="st0" d="
		M274.9,143.7l-17.8,7.2c-0.2-0.8-0.5-1.6-0.6-2.3l0,0c0-0.2-0.1-0.4-0.2-0.6l0,0l0,0c-0.2-0.3-0.5-0.6-0.9-0.7
		c-0.8-0.2-1.7,0.2-1.9,1v0.2c-2.8,0.5-4,0.2-5.3,0.4c0,0,0,0-0.1,0l-4.2-0.5c-0.6-0.1-1.2,0.4-1.3,1c-0.1,0.6,0.4,1.2,1,1.3
		l3.7,0.5c0,0.2,0,0.4,0.1,0.6l-2.5-0.2c-0.6-0.1-1.2,0.4-1.3,1c-0.1,0.6,0.4,1.2,1,1.3h0.2c-0.4,0.2-0.6,0.5-0.7,0.9
		c-0.1,0.6,0.4,1.2,1,1.3l2,0.2c0.1,0.2,0.2,0.4,0.2,0.6l-1.1,0.2c-0.6,0.2-1,0.8-0.8,1.4c0.2,0.6,0.8,1,1.4,0.8l1.8-0.4
		c0.5,0.3,1.2,0.3,2,0.1l2.8-0.5c1.5,0,3.4-0.2,4.8-0.8c2.5-0.3,25.2-3.4,25.8-3.6c2.5-2.3,2.6-9.7,2.5-11l0,0c0-0.1,0-0.1,0-0.2
		s0-0.3,0-0.3l0,0C287.3,139.5,276.3,136.5,274.9,143.7L274.9,143.7z"/>
</g>
<path id="polygon94" inkscape:connector-curvature="0" sodipodi:nodetypes="cccccc" class="st2" d="M1783.2,380.3l-27.4-47.7
	l17.8-30.5l0.1-13l31.4,29.4L1783.2,380.3z"/>
<path id="polygon94-2" inkscape:connector-curvature="0" sodipodi:nodetypes="cccccc" class="st2" d="M1661.1,380.3l27.4-47.7
	l-17.8-30.5l-0.1-13l-31.4,29.3L1661.1,380.3z"/>
<path id="path124-3-6-0" inkscape:connector-curvature="0" sodipodi:nodetypes="zczcz" class="st8" d="M1701.5,152.2
	c9,2.6,9.1,1.4,11.7,1.6c0,2-0.2,4.8-3.7,5.3c-3.5,0.6-45.3-6-51-2.6C1665.5,142.2,1692.5,149.6,1701.5,152.2z"/>
<path id="path124-3-6-5-9" inkscape:connector-curvature="0" sodipodi:nodetypes="cccc" class="st3" d="M1734.3,272l-13.7-0.2
	c0.3,8.3,2.1,5,6.8,9.8C1733.1,276.7,1734.3,279.6,1734.3,272z"/>
<path id="path124-3-6-0-3" inkscape:connector-curvature="0" sodipodi:nodetypes="sczcss" class="st8" d="M1748.3,149.8
	c-8.5,3.8-10.3,3-12.9,3.2c0,1.7,1,4.3,4.6,4.7c3.5,0.5,30.6-15.9,50.2-2.5c-3.5-6-10.8-13.8-19.6-13.4
	C1761.8,142.2,1753.2,147.6,1748.3,149.8z"/>
<path id="svg_7" inkscape:connector-curvature="0" class="st9" d="M1768.7,154.2c-12.3,0.1-24.2,3.8-36.3,5.4
	c-5,0.6-10.2,0.8-15.3,0.2c-6.7-0.8-13.2-2.8-19.9-3.8c-6-0.8-12.1-1.7-18.2-1.7c-10.6-0.1-20.8,3.2-31.1,4.9c0,3-0.6,6.7,1,8.8
	c1.6,2.2,4.3,4.1,5,7c1.7,6.9,4,13.6,7,20.1c1.4,3.1,4.2,5.4,7.3,6.9c7.4,3.6,16.2,4.2,24.3,3c11.6-1.6,17.8-10.1,22.6-19.8
	c1.8-3.9,2-8.5,4.3-12.1c1.4-2.2,4.6-1.2,7-1.3c2.3,0,4.3,3.8,5,6.3c2.6,8.9,6.8,18.3,15.3,23c12.6,7,32.6,5.7,40.9-6.9
	c3.2-4.9,4.1-10.9,5.7-16.5c1-3.4,1.8-7.4,5.4-9.3c1.4-0.7,0.4-3.8,0.6-5.5c0.2-1.9,0.6-3.6-2.1-3.9c-4.8-0.6-9.5-2.6-14.5-3.3
	C1778.1,155.1,1773.5,154.2,1768.7,154.2z M1687.2,157.4c3.5,0,7,0.2,10.4,1c20.2,4.2,20.6,12.3,12.3,29.1
	c-6.8,13.7-20.9,17.1-35,13.8c-6.6-1.5-11-6-13.1-12.1c-2.2-6.4-3.9-13.3-3.5-20c0.5-9,11-10.3,18.6-11.1
	C1680.2,157.7,1683.7,157.4,1687.2,157.4z M1761.1,157.4c3.5,0,7,0.3,10.5,0.7c7.5,0.8,18,2.1,18.6,11.1c0.4,6.8-1.3,13.6-3.5,20
	c-2.1,6.1-6.6,10.6-13.1,12.1c-14.2,3.3-28.2-0.2-35-13.8c-8.3-16.8-7.9-25,12.3-29.1C1754.2,157.6,1757.7,157.4,1761.1,157.4z"/>
</svg>
