<svg version="1.1" viewBox="0 0 350 350" xmlns="http://www.w3.org/2000/svg">
 <path d="m291.56 310.23c13.249 0 23.99-10.714 23.99-23.93 0-13.217-10.742-23.931-23.99-23.931s-23.99 10.714-23.99 23.931c0 13.216 10.742 23.93 23.99 23.93m0-57.283c18.466 0 33.436 14.931 33.436 33.353 0 18.419-14.97 33.352-33.436 33.352s-33.436-14.933-33.436-33.352c0-18.422 14.97-33.353 33.436-33.353" fill="#282828" fill-rule="evenodd"/>
 <path d="m277.85 295.22c0.69053-0.69007 5.4084-5.8239 6.3557-7.4427 0.96724-1.6537 0.55217-2.7565-0.27671-3.8594-0.82889-1.1029-7.46-10.061-9.3945-8.8204-1.9345 1.2396-4.0074 7.3047-4.0074 10.613 0 3.3073 0.41507 5.5118 2.0729 9.0951 1.6578 3.5834 4.5595 1.1029 5.25 0.41405m2.4306 7.9189c1.2427 1.9297 7.3229 3.9974 10.638 3.9974s5.5255-0.41403 9.119-2.0677c3.5923-1.6537 1.1044-4.547 0.41383-5.237-0.69054-0.69006-5.8371-5.3962-7.4613-6.3399-1.6578-0.96485-2.7621-0.55081-3.8677 0.27602s-10.086 7.4415-8.8423 9.3712m28.142-5.9445c1.9345-1.2409 4.0073-7.3047 4.0073-10.612s-0.41506-5.5143-2.0728-9.0976c-1.6578-3.5833-4.5595-1.1016-5.25-0.41278-0.69179 0.68882-5.4084 5.8239-6.3557 7.4427-0.96724 1.6537-0.55218 2.7553 0.27671 3.8581 0.82889 1.1029 7.4613 10.061 9.3945 8.8216m-5.7773-27.691c-1.2427-1.9284-7.3229-3.9962-10.638-3.9962-3.3168 0-5.5268 0.41404-9.119 2.0677-3.5923 1.6537-1.1056 4.547-0.41507 5.237 0.69178 0.68759 5.8384 5.3937 7.4613 6.3386 1.6578 0.96609 2.7634 0.55205 3.869-0.27601 1.1056-0.82685 10.086-7.4415 8.8423-9.3712m-11.078-7.1282c13.249 0 23.989 10.714 23.989 23.931 0 13.216-10.741 23.93-23.989 23.93-13.25 0-23.99-10.714-23.99-23.93 0-13.217 10.741-23.931 23.99-23.931" fill="#b9b497" fill-rule="evenodd"/>
 <path d="m271.12 257.77c1.5082-0.46626 3.4028-0.86413 5.4632-1.2073-6.8842 3.8619-11.111 9.2419-11.542 10.854-3.5923 1.5169-10.501 3.8581-10.501 3.8581s0.50231-2.4643 1.7924-5.7368c3.859-2.5514 9.9828-6.2876 14.788-7.7685" fill="#62745b" fill-rule="evenodd"/>
 <path d="m256.33 265.54c1.5269-3.8731 4.1619-8.8813 8.4322-12.317 7.0911-5.7082 16.027-9.9245 28.185-9.3724 12.159 0.55081 17.686 5.7891 17.686 5.7891l-8.4285 3.7201s-8.5656-2.8933-19.205 0.41404c-2.3383 0.72737-4.4772 1.7009-6.418 2.7901-2.0604 0.34318-3.955 0.74104-5.4632 1.2073-4.8051 1.4808-10.929 5.2171-14.788 7.7685" fill="#6c826b" fill-rule="evenodd"/>
 <path d="m58.436 309.48c13.25 0 23.99-10.714 23.99-23.93 0-13.217-10.741-23.931-23.99-23.931s-23.989 10.714-23.989 23.931c0 13.216 10.741 23.93 23.989 23.93m0-57.283c18.466 0 33.436 14.931 33.436 33.353 0 18.419-14.97 33.352-33.436 33.352s-33.436-14.933-33.436-33.352c0-18.422 14.97-33.353 33.436-33.353" fill="#282828" fill-rule="evenodd"/>
 <path d="m44.719 294.46c0.69178-0.69007 5.4084-5.8239 6.3557-7.4427 0.96725-1.6537 0.55218-2.7565-0.27671-3.8594s-7.46-10.061-9.3945-8.8204c-1.9345 1.2396-4.0073 7.3047-4.0073 10.613 0 3.3073 0.41507 5.5118 2.0729 9.0952s4.5595 1.1029 5.25 0.41404m2.4306 7.9189c1.2427 1.9297 7.3229 3.9974 10.638 3.9974 3.3156 0 5.5268-0.41403 9.119-2.0677 3.5923-1.6537 1.1044-4.547 0.41382-5.237-0.69053-0.69007-5.8371-5.3949-7.4613-6.3399-1.6578-0.96484-2.7621-0.5508-3.8677 0.27603s-10.086 7.4415-8.8423 9.3712m28.142-5.9445c1.9345-1.2409 4.0073-7.3047 4.0073-10.612s-0.41382-5.5143-2.0728-9.0976c-1.6578-3.5834-4.5595-1.1016-5.2501-0.41279-0.69054 0.68882-5.4084 5.8239-6.3557 7.4427-0.96725 1.6537-0.55218 2.7553 0.27671 3.8581 0.82889 1.1029 7.4613 10.061 9.3945 8.8216m-5.7773-27.691c-1.2427-1.9284-7.3229-3.9962-10.638-3.9962s-5.5268 0.41404-9.119 2.0677c-3.5923 1.6537-1.1056 4.547-0.41506 5.237 0.69177 0.68758 5.8384 5.3937 7.4613 6.3386 1.6578 0.96609 2.7634 0.55205 3.869-0.27602 1.1056-0.82684 10.086-7.4415 8.8423-9.3712m-11.078-7.1282c13.25 0 23.989 10.714 23.989 23.931 0 13.216-10.739 23.93-23.989 23.93s-23.989-10.714-23.989-23.93c0-13.217 10.739-23.931 23.989-23.931" fill="#b9b497" fill-rule="evenodd"/>
 <path d="m48.495 253.62c1.5768 0.0908 3.4901 0.37798 5.5417 0.77585-7.8028 1.216-13.65 4.782-14.62 6.1409-3.8964 0.16785-11.191-0.0473-11.191-0.0473s1.3349-2.1336 3.6907-4.7496c4.5097-1.0432 11.557-2.4071 16.578-2.1199" fill="#62745b" fill-rule="evenodd"/>
 <path d="m31.917 255.74c2.7883-3.096 7.0125-6.867 12.218-8.5978 8.6441-2.8746 17.111-4.3032 28.471 0.0547 14.818 5.6846 18.548 20.673 18.548 20.673l-6.1488 2.7217s-1.8273-4.5681-5.5255-8.6824c-4.0373-4.4885-12.018-7.812-17.824-8.1316-2.4468-0.13552-5.4208 0.27478-7.6196 0.61794-2.0517-0.39787-3.965-0.68509-5.5417-0.77585-5.022-0.28845-12.068 1.0768-16.578 2.1199" fill="#6c826b" fill-rule="evenodd"/>
 <path d="m245.28 258.46c-3.3156 7.168-5.3884 23.568-5.3884 23.568l-182.31 0.53837 4e-3 -0.12558 31.57-13.645 137.75-0.82683s7.3229-21.913 22.798-29.08c10.096-4.6763 16.027-7.0299 23.488-6.7539 0.43127 1.5791 0.68929 2.8548 0.85133 3.8743-13.311 3.0935-25.697 15.828-28.761 22.45" fill="#7b957c" fill-rule="evenodd"/>
 <path d="m239.89 282.03s2.0728-16.4 5.3884-23.568c3.0638-6.6221 15.45-19.357 28.761-22.45 0.30538 1.9197 0.25427 2.8796 0.25427 2.8796-10.225 3.4453-19.215 10.908-22.729 17.917-3.5225 7.0287-6.5626 17.511-6.9764 23.568-0.41507 6.0638-0.27672 11.853-0.27672 11.853l-186.94-0.69006 0.20442-8.9708z" fill="#6e826a" fill-rule="evenodd"/>
 <path d="m57.578 282.44 37.719-16.434 131.61 1.9633 12.746 14.368z" fill="#799074" fill-rule="evenodd" stroke-width=".99469"/>
 <path d="m286.45 290.92 12.711-4.0645-24.455-105.3-17.961 4.6862z" fill="#799074" fill-rule="evenodd" stroke-width=".99469"/>
 <path d="m286.45 290.99c0.55218-0.27603 12.573-4.1006 12.573-4.1006s-13.403-22.913-16.442-29.941c-3.0388-7.0287-19.481-48.513-19.481-48.513z" fill="#6c8568" fill-rule="evenodd"/>
 <path d="m260.89 185.48-34.992-139.11 9.2554-2.7123 35.063 139.35z" fill="#8eaa8c" fill-rule="evenodd" stroke-width=".99469"/>
 <path d="m246.23 35.252c-1.0914-4.0967-4.826-4.7361-5.737-4.9018-3.7388 0.86872-24.557 6.4714-24.557 6.4714l4.5223 12.249 22.988-7.416s4.0078-1.8076 2.7837-6.403" fill="#787e5c" fill-rule="evenodd"/>
 <path d="m212.38 44.634c-0.9854-3.3999 0.97921-6.9558 4.3876-7.9436 3.4072-0.9875 6.9688 0.96671 7.9542 4.3666 0.98539 3.3999-0.97921 6.9558-4.3864 7.9433-3.4084 0.98785-6.97-0.96637-7.9554-4.3663" fill="#789076" fill-rule="evenodd"/>
</svg>
