<?xml version="1.0" encoding="UTF-8" standalone="no"?>
<svg
   xmlns:dc="http://purl.org/dc/elements/1.1/"
   xmlns:cc="http://creativecommons.org/ns#"
   xmlns:rdf="http://www.w3.org/1999/02/22-rdf-syntax-ns#"
   xmlns:svg="http://www.w3.org/2000/svg"
   xmlns="http://www.w3.org/2000/svg"
   xmlns:sodipodi="http://sodipodi.sourceforge.net/DTD/sodipodi-0.dtd"
   xmlns:inkscape="http://www.inkscape.org/namespaces/inkscape"
   width="350"
   height="350"
   viewBox="0 0 350 350"
   version="1.1"
   id="svg218"
   sodipodi:docname="scooter.svg"
   inkscape:version="0.92.3 (2405546, 2018-03-11)">
  <metadata
     id="metadata222">
    <rdf:RDF>
      <cc:Work
         rdf:about="">
        <dc:format>image/svg+xml</dc:format>
        <dc:type
           rdf:resource="http://purl.org/dc/dcmitype/StillImage" />
        <dc:title>pic-intro</dc:title>
      </cc:Work>
    </rdf:RDF>
  </metadata>
  <sodipodi:namedview
     pagecolor="#ffffff"
     bordercolor="#666666"
     borderopacity="1"
     objecttolerance="10"
     gridtolerance="10"
     guidetolerance="10"
     inkscape:pageopacity="0"
     inkscape:pageshadow="2"
     inkscape:window-width="1920"
     inkscape:window-height="1032"
     id="namedview220"
     showgrid="false"
     inkscape:zoom="2.2820814"
     inkscape:cx="479.25625"
     inkscape:cy="233.32086"
     inkscape:window-x="0"
     inkscape:window-y="48"
     inkscape:window-maximized="1"
     inkscape:current-layer="svg218" />
  <!-- Generator: Sketch 52.3 (67297) - http://www.bohemiancoding.com/sketch -->
  <title
     id="title2">pic-intro</title>
  <desc
     id="desc4">Created with Sketch.</desc>
  <defs
     id="defs14" />
  <path
     d="m 291.56393,327.19141 c 13.24854,0 23.99046,-10.714 23.99046,-23.92963 0,-13.21688 -10.74192,-23.93088 -23.99046,-23.93088 -13.24854,0 -23.99046,10.714 -23.99046,23.93088 0,13.21563 10.74192,23.92963 23.99046,23.92963 m 0,-57.28267 c 18.46618,0 33.43607,14.93147 33.43607,33.35304 0,18.41908 -14.96989,33.35179 -33.43607,33.35179 -18.46618,0 -33.43607,-14.93271 -33.43607,-33.35179 0,-18.42157 14.96989,-33.35304 33.43607,-33.35304"
     id="path98"
     inkscape:connector-curvature="0"
     style="fill:#282828;fill-opacity:1;fill-rule:evenodd;stroke:none;stroke-width:0.99468505" />
  <path
     d="m 277.84685,312.17528 c 0.69053,-0.69007 5.40835,-5.82389 6.35566,-7.44274 0.96724,-1.65367 0.55217,-2.75652 -0.27671,-3.85937 -0.82889,-1.10287 -7.46002,-10.06125 -9.39451,-8.82038 -1.93449,1.23963 -4.00735,7.30472 -4.00735,10.6133 0,3.30733 0.41507,5.5118 2.07286,9.09514 1.65778,3.58335 4.55951,1.10287 5.25005,0.41405 m 2.43059,7.91892 c 1.24271,1.92969 7.3229,3.99739 10.63846,3.99739 3.31556,0 5.52552,-0.41403 9.11903,-2.0677 3.59228,-1.65366 1.10436,-4.54695 0.41383,-5.23701 -0.69054,-0.69006 -5.83714,-5.39617 -7.46126,-6.33987 -1.65778,-0.96485 -2.76214,-0.55081 -3.86774,0.27602 -1.1056,0.82683 -10.08629,7.44149 -8.84232,9.37117 m 28.14238,-5.94448 c 1.93449,-1.24087 4.00734,-7.30472 4.00734,-10.61205 0,-3.30733 -0.41506,-5.51428 -2.07285,-9.09764 -1.65778,-3.58334 -4.55951,-1.1016 -5.25005,-0.41278 -0.69179,0.68882 -5.40835,5.82387 -6.35566,7.44272 -0.96724,1.65366 -0.55218,2.75529 0.27671,3.85813 0.82889,1.10286 7.46126,10.06125 9.39451,8.82162 m -5.7773,-27.69079 c -1.24272,-1.92845 -7.32291,-3.99615 -10.63847,-3.99615 -3.31681,0 -5.52677,0.41404 -9.11904,2.0677 -3.59227,1.65367 -1.1056,4.54696 -0.41507,5.23702 0.69178,0.68759 5.83838,5.39368 7.46126,6.33863 1.65778,0.96609 2.76339,0.55205 3.86899,-0.27601 1.1056,-0.82685 10.08628,-7.4415 8.84232,-9.37119 m -11.07845,-7.12816 c 13.24853,0 23.9892,10.714 23.9892,23.93089 0,13.21563 -10.74067,23.92963 -23.9892,23.92963 -13.24979,0 -23.99046,-10.714 -23.99046,-23.92963 0,-13.21689 10.74067,-23.93089 23.99045,-23.93089"
     id="path100"
     inkscape:connector-curvature="0"
     style="fill:#b9b497;fill-rule:evenodd;stroke:none;stroke-width:0.99468505" />
  <path
     d="m 271.11551,274.73247 c 1.50821,-0.46626 3.40282,-0.86413 5.4632,-1.2073 -6.88416,3.86186 -11.11087,9.24187 -11.54215,10.8545 -3.59226,1.51689 -10.50134,3.85813 -10.50134,3.85813 0,0 0.50231,-2.46433 1.79239,-5.73684 3.85902,-2.55137 9.98283,-6.28765 14.7879,-7.76849"
     id="path102"
     inkscape:connector-curvature="0"
     style="fill:#62745b;fill-rule:evenodd;stroke:none;stroke-width:0.99468505" />
  <path
     d="m 256.32786,282.50108 c 1.5269,-3.87306 4.1619,-8.88129 8.43224,-12.31669 7.09107,-5.70825 16.02688,-9.92447 28.18477,-9.37242 12.15914,0.55081 17.68591,5.78907 17.68591,5.78907 l -8.42851,3.72012 c 0,0 -8.56562,-2.89329 -19.20533,0.41404 -2.33834,0.72737 -4.47725,1.70092 -6.41798,2.79009 -2.06038,0.34318 -3.95499,0.74104 -5.4632,1.2073 -4.80506,1.48084 -10.92888,5.21712 -14.7879,7.76849"
     id="path104"
     inkscape:connector-curvature="0"
     style="fill:#6c826b;fill-rule:evenodd;stroke:none;stroke-width:0.99468505" />
  <path
     d="m 58.436067,326.44104 c 13.249781,0 23.99045,-10.714 23.99045,-23.92963 0,-13.21688 -10.740669,-23.93088 -23.99045,-23.93088 -13.248538,0 -23.989217,10.714 -23.989217,23.93088 0,13.21563 10.740679,23.92963 23.989217,23.92963 m 0,-57.28267 c 18.466178,0 33.436068,14.93148 33.436068,33.35304 0,18.41908 -14.96989,33.35178 -33.436068,33.35178 -18.466189,0 -33.436069,-14.9327 -33.436069,-33.35178 0,-18.42156 14.96988,-33.35304 33.436069,-33.35304"
     id="path106"
     inkscape:connector-curvature="0"
     style="fill:#282828;fill-opacity:1;fill-rule:evenodd;stroke:none;stroke-width:0.99468505" />
  <path
     d="m 44.718982,311.42491 c 0.691784,-0.69007 5.408361,-5.82388 6.355659,-7.44273 0.967252,-1.65367 0.55218,-2.75652 -0.276711,-3.85938 -0.828891,-1.10286 -7.460008,-10.06124 -9.394502,-8.82037 -1.934493,1.23963 -4.007347,7.30472 -4.007347,10.61329 0,3.30733 0.415072,5.5118 2.072854,9.09515 1.657782,3.58335 4.559517,1.10286 5.250047,0.41404 m 2.430583,7.91893 c 1.242719,1.92969 7.322911,3.99739 10.638464,3.99739 3.315564,0 5.526769,-0.41403 9.119044,-2.0677 3.592275,-1.65366 1.104359,-4.54695 0.413819,-5.23701 -0.69053,-0.69007 -5.83713,-5.39493 -7.461252,-6.33988 -1.657782,-0.96484 -2.762141,-0.5508 -3.867743,0.27603 -1.105603,0.82683 -10.086285,7.44148 -8.842332,9.37117 m 28.142394,-5.94448 c 1.934494,-1.24087 4.007338,-7.30472 4.007338,-10.61205 0,-3.30733 -0.413819,-5.51428 -2.072844,-9.09764 -1.657782,-3.58335 -4.559527,-1.10161 -5.250057,-0.41279 -0.69054,0.68882 -5.408361,5.82388 -6.35566,7.44273 -0.967251,1.65366 -0.552179,2.75528 0.276712,3.85813 0.828891,1.10286 7.461261,10.06124 9.394511,8.82162 M 69.51465,285.70857 c -1.24271,-1.92845 -7.322901,-3.99615 -10.638465,-3.99615 -3.315564,0 -5.526768,0.41404 -9.119044,2.0677 -3.592275,1.65367 -1.105602,4.54696 -0.415062,5.23702 0.691774,0.68758 5.838374,5.39368 7.461262,6.33863 1.657772,0.96609 2.763374,0.55205 3.868977,-0.27602 1.105612,-0.82684 10.086295,-7.44149 8.842332,-9.37118 m -11.078464,-7.12816 c 13.249782,0 23.989217,10.714 23.989217,23.93088 0,13.21563 -10.739435,23.92963 -23.989217,23.92963 -13.249781,0 -23.989207,-10.714 -23.989207,-23.92963 0,-13.21688 10.739426,-23.93088 23.989207,-23.93088"
     id="path108"
     inkscape:connector-curvature="0"
     style="fill:#b9b497;fill-rule:evenodd;stroke:none;stroke-width:0.99468505" />
  <path
     d="m 48.494866,270.57742 c 1.576755,0.0908 3.490061,0.37798 5.541719,0.77585 -7.802787,1.21601 -13.649894,4.78195 -14.619632,6.14094 -3.89641,0.16785 -11.190644,-0.0473 -11.190644,-0.0473 0,0 1.334946,-2.1336 3.690749,-4.74962 4.509663,-1.04317 11.557096,-2.40713 16.577808,-2.11992"
     id="path110"
     inkscape:connector-curvature="0"
     style="fill:#62745b;fill-rule:evenodd;stroke:none;stroke-width:0.99468505" />
  <path
     d="m 31.917306,272.69746 c 2.788311,-3.09595 7.01254,-6.86705 12.217716,-8.59781 8.644142,-2.87464 17.111289,-4.30325 28.471457,0.0547 14.817813,5.68464 18.548449,20.67329 18.548449,20.67329 l -6.148755,2.7217 c 0,0 -1.827296,-4.56809 -5.525515,-8.68235 -4.037258,-4.48852 -12.018292,-7.81201 -17.824259,-8.13155 -2.446786,-0.13552 -5.420824,0.27478 -7.619566,0.61794 -2.051657,-0.39787 -3.964963,-0.68509 -5.541718,-0.77585 -5.021956,-0.28845 -12.068146,1.07676 -16.577809,2.11992"
     id="path112"
     inkscape:connector-curvature="0"
     style="fill:#6c826b;fill-rule:evenodd;stroke:none;stroke-width:0.99468505" />
  <path
     d="m 245.27844,275.42104 c -3.31556,7.16795 -5.38841,23.56782 -5.38841,23.56782 l -182.312277,0.53837 0.004,-0.12558 31.56989,-13.64459 137.750377,-0.82683 c 0,0 7.3229,-21.91291 22.7976,-29.07962 10.09626,-4.67626 16.02688,-7.02994 23.48814,-6.75391 0.43127,1.57906 0.68929,2.85475 0.85133,3.8743 -13.31087,3.09347 -25.69685,15.82792 -28.76063,22.45004"
     id="path114"
     inkscape:connector-curvature="0"
     style="fill:#7b957c;fill-rule:evenodd;stroke:none;stroke-width:0.99468505" />
  <path
     d="m 239.89028,298.98886 c 0,0 2.07284,-16.39987 5.38841,-23.56782 3.06378,-6.62212 15.44976,-19.35657 28.76063,-22.45004 0.30538,1.91974 0.25427,2.87961 0.25427,2.87961 -10.22465,3.44534 -19.2153,10.90797 -22.72905,17.91677 -3.52247,7.02869 -6.56256,17.51143 -6.97638,23.56781 -0.41507,6.06385 -0.27672,11.85292 -0.27672,11.85292 l -186.937856,-0.69006 0.204418,-8.97082 z"
     id="path116"
     inkscape:connector-curvature="0"
     style="fill:#6e826a;fill-rule:evenodd;stroke:none;stroke-width:0.99468505" />
  <polygon
     id="polygon118"
     points="268.8483,287.589 230.92787,271.0665 98.621797,273.04025 85.807473,287.48525 "
     style="fill:#799074;fill-rule:evenodd;stroke:none;stroke-width:1"
     transform="matrix(-0.99468503,0,0,0.99468503,325,13.341674)" />
  <polygon
     id="polygon120"
     points="38.754244,296.11025 25.975008,292.024 50.561066,186.164 68.61841,190.87525 "
     style="fill:#799074;fill-rule:evenodd;stroke:none;stroke-width:1"
     transform="matrix(-0.99468503,0,0,0.99468503,325,13.341674)" />
  <path
     d="m 286.4521,307.94736 c 0.55218,-0.27603 12.57296,-4.10059 12.57296,-4.10059 0,0 -13.40309,-22.91257 -16.44194,-29.94126 -3.03885,-7.0287 -19.4808,-48.51328 -19.4808,-48.51328 z"
     id="path122"
     inkscape:connector-curvature="0"
     style="fill:#6c8568;fill-rule:evenodd;stroke:none;stroke-width:0.99468505" />
  <path
     transform="matrix(-0.99468503,0,0,0.99468503,325,13.341674)"
     style="fill:#8eaa8c;fill-rule:evenodd;stroke:none;stroke-width:1"
     d="M 64.451311,190.11275 99.630354,50.260704 90.32558,47.533916 55.075527,187.619 Z"
     id="polygon124"
     inkscape:connector-curvature="0"
     sodipodi:nodetypes="ccccc" />
  <g
     id="g44"
     transform="rotate(-16.163144,229.24976,56.707017)">
    <path
       style="fill:#787e5c;fill-rule:evenodd;stroke:none;stroke-width:0.99468505"
       inkscape:connector-curvature="0"
       id="path126"
       d="m 246.81328,57.120433 c 0.0922,-4.238602 -3.3168,-5.892266 -4.14569,-6.30506 -3.83284,-0.206397 -25.38774,-0.620435 -25.38774,-0.620435 l 0.93359,13.024157 24.14378,-0.723633 c 0,0 4.35261,-0.620435 4.45606,-5.375029" />
    <path
       style="fill:#789076;fill-rule:evenodd;stroke:none;stroke-width:0.99468505"
       inkscape:connector-curvature="0"
       id="path128"
       d="m 211.68441,56.707017 c 0,-3.539836 2.87681,-6.408259 6.42546,-6.408259 3.5474,0 6.42421,2.868423 6.42421,6.408259 0,3.539835 -2.87681,6.408258 -6.42421,6.408258 -3.54865,0 -6.42546,-2.868423 -6.42546,-6.408258" />
  </g>
</svg>
