<svg enable-background="new 0 0 128 128" version="1.1" viewBox="0 0 400 200" xmlns="http://www.w3.org/2000/svg">
 <path d="m47.926 91.423c1.625 0.0262 3.4827 0.0571 5.627 0.0922 2.5033 0.0351 5.4631 0.0833 9.0166 0.14703 2.8352-7e-3 6.0944-0.0227 9.8799-0.0496 4.5342-0.0134 9.9258-0.0397 16.442-0.0832l1.3598-6.5e-4c-2.7617-0.0426-5.2257-0.0824-7.4343-0.11859-1.987-0.0343-3.7469-0.0571-5.3091-0.0699-10.321-0.1624-17.364-0.27408-22.476-0.35601-3.8565-0.0575-6.8425-0.11826-9.2222-0.18112-1.2237-0.0301-2.3403-0.0514-3.3628-0.0653-0.92171-0.0153-1.754-0.0322-2.5094-0.0506-0.69628-0.0142-1.3182-0.0404-1.8763-0.0784l-0.04526-5e-3c-0.03511 2e-3 -0.06946 3.3e-4 -0.10217-4e-3 0.83849 0.0113 1.7821 0.02 2.8519 0.0253 1.2227 6e-3 2.6213 0.0137 4.2364 0.0231 1.211 3e-3 2.556 8e-5 4.0584-8e-3 1.7038-0.01 3.6527-0.0288 5.9036-0.0596 3.0948-0.043 6.8825-0.10592 11.625-0.19612 6.0886-0.12405 14.291-0.30192 25.935-0.56722l3.9376-0.13697 2.4184-0.17838c0.84489-0.14116 0.49097-0.2483-1.0286-0.31692-2.2315-0.0739-4.6167-0.0668-6.892 0.013-20.324 0.55165-31.208 0.81822-37.988 0.96081-4.6364 0.0975-8.0065 0.15587-10.566 0.18918l-0.46298 6e-3c-0.14595 4e-3 -0.28949 5e-3 -0.43069 5e-3 -0.63116 0.01-1.2191 0.0172-1.7681 0.023-0.51393 5e-3 -0.99375 0.0102-1.4427 0.0145-0.22997 4e-3 -0.45061 5e-3 -0.66244 6e-3 -0.20558 3e-3 -0.40726 6e-3 -0.60509 9e-3 -0.31108 4e-3 -0.6096 5e-3 -0.89628 3e-3 -0.27107 1e-3 -0.52907 1e-3 -0.77489-2e-3 -0.02537-1e-3 -0.05101-2e-3 -0.07679-1e-3l-0.12997-2e-3c6e-3 -0.0124 0.02333-0.022 0.05141-0.0287 0.02531-3e-3 0.05208-4e-3 0.08034-5e-3 0.03145-2e-3 0.06294-2e-3 0.09411-6.7e-4 0.71764-0.0124 1.5334-0.0416 2.4687-0.0912 1.0722-0.0595 2.3279-0.13076 3.8183-0.21686 0.6549-0.035 1.3672-0.0748 2.1447-0.12005 0.84233-0.049 1.7524-0.10217 2.7387-0.15997 0.82884-0.0236 1.7203-0.055 2.6818-0.0954 1.0393-0.0394 2.1592-0.0911 3.3692-0.15665 0.19418-8e-3 0.38187-0.0164 0.56328-0.0242 0.21925-0.0152 0.42389-0.0268 0.61326-0.0348 0.71942-0.0444 1.4427-0.0861 2.1679-0.12474 0.73699-0.0391 1.5196-0.0807 2.3518-0.12512 0.40651-0.0152 0.82128-0.0338 1.2478-0.0562 0.43686-0.0229 0.89781-0.0439 1.3852-0.0633l0.13007 7.1e-4 0.35221-0.0132 0.96306-0.0628c0.33494-0.0216 0.67538-0.0506 1.0165-0.0866 0.12064-0.02 0.23831-0.0415 0.35229-0.0642 0.0957-0.0125 0.18346-0.029 0.25612-0.0483l0.10355-0.0381c-0.2444-0.0732-0.66086-0.1072-1.1377-0.0943-0.52315 8e-5 -1.0539 0.016-1.5782 0.0467l-0.57126 0.0235-0.21422 0.016c-2.0734 0.10153-3.9258 0.18096-5.5907 0.24164-1.4671 0.0517-2.8376 0.11146-4.1194 0.17799-0.0323 2e-3 -0.0639 3e-3 -0.0919 7e-4l-0.0693 6e-3c-0.50945-1e-3 -0.99254-8e-3 -1.4511-0.0194-0.44315-7e-3 -0.86467-0.0132-1.266-0.021-1.406-0.0278-2.6787-0.0311-3.836-0.0146-1.0475 0.0157-1.9857 0.0275-2.8307 0.0358-0.76812 8e-3 -1.461-3e-3 -2.0863-0.0333 0.75952-0.0383 1.5939-0.0801 2.5146-0.126 1.0252-0.0542 2.1736-0.11498 3.4688-0.1836 0.61923-0.0323 1.2693-0.0655 1.9526-0.0997 0.73865-0.0424 1.5183-0.0845 2.3424-0.1262 2.2455-0.11965 4.9779-0.27865 8.3726-0.49075 4.2342-0.26456 9.6859-0.62865 16.967-1.1422 10.17-0.73723 25.261-1.8829 49.977-3.8281l11.02-0.88451c6.6824-0.53169 13.709-1.1003 21.056-1.7056l10.832-0.96608 5.365-0.52109c0.99489-0.11373 1.5564-0.22165 1.4096-0.27158 0.52865-0.10538 0.78126-0.19376 0.73389-0.25693-3.4804-0.0288-8.9754 0.2293-14.883 0.6801-6.0308 0.43504-11.672 0.87257-16.909 1.3074l-5.1272 0.41254-2.026 0.18717c-14.715 1.1413-26.347 2.0942-35.76 2.9091-7.4609 0.64419-13.645 1.1843-18.854 1.6449-4.4168 0.39052-8.1293 0.70082-11.291 0.94789-8.1031 0.62566-13.788 1.0608-17.997 1.3796-3.2424 0.24503-5.8269 0.42655-7.935 0.56207-0.18754 9e-3 -0.37192 0.0198-0.55321 0.032l-0.52507 0.0357c-0.66636 0.0394-1.2929 0.0782-1.8831 0.11614-0.54707 0.035-1.0617 0.0693-1.5468 0.10303 0.78614-0.0941 1.6519-0.19899 2.6099-0.31657 1.0741-0.13583 2.2727-0.28706 3.6188-0.45653 0.28929-0.0248 0.59155-0.049 0.90754-0.0728l0.96449-0.0704 0.29973-0.0251c0.16632-0.0159 0.35472-0.0349 0.56616-0.0571 0.26916-0.0259 0.52336-0.0518 0.7615-0.0774l0.40985-0.059 0.0667-0.0231c0.0144-0.0104 0.0224-0.0208 0.0235-0.0303-0.0225-0.0186-0.0675-0.0308-0.12796-0.035-0.0625-0.01-0.13441-0.0152-0.21285-0.0155-0.19602-2e-3 -0.39878 5e-3 -0.60485 0.0185l-0.3205 0.0166c-0.81563 0.0292-1.5991 0.0779-2.3465 0.14356-0.74009 0.0601-1.4486 0.12616-2.1272 0.19769-0.6287 0.0659-1.2045 0.12665-1.7331 0.18276-0.17172 5e-3 -0.34408 0.0113-0.51697 0.0199-0.16239 4e-3 -0.32546 9e-3 -0.48912 0.0147-0.04801 2e-3 -0.09471 4e-3 -0.13988 3e-3l-0.13799 7e-3c-0.44049 0.0113-0.85655 0.0214-1.2501 0.0305-0.37557 9e-3 -0.72907 0.0131-1.0623 0.0138 0.09497-7e-3 0.18842-0.0134 0.28027-0.0193 0.09826-7e-3 0.19518-0.0151 0.29071-0.0238 0.27136-0.0229 0.55207-0.0465 0.84262-0.0706 0.29495-0.0242 0.60346-0.0497 0.92642-0.0764l0.24041-0.0237c0.08101-6e-3 0.16325-0.0129 0.24673-0.0197l0.05222-5e-3c0.14795-0.0125 0.2984-0.0269 0.4514-0.0431 0.15518-0.0101 0.31693-0.0243 0.48551-0.0427 0.37003-0.0321 0.75458-0.0671 1.1545-0.10529 0.42526-0.038 0.8592-0.0757 1.3018-0.11333 0.20838-0.0217 0.4156-0.0428 0.62148-0.0635 0.22031-0.0189 0.43984-0.0394 0.6584-0.0611 1.8054-0.16896 3.9726-0.38228 6.6198-0.65413 3.2245-0.33662 7.3055-0.77495 12.634-1.3611 2.5218-0.27895 5.412-0.59945 8.7563-0.97117 3.7832-0.42885 8.1373-0.92184 13.202-1.4946 8.2358-0.94332 18.753-2.1599 32.648-3.7814 81.384-13.812 156.94-10.062 227.27-11.422 24.92 22.197 25.707 33.953 1.7932 64.134-84.065-2.2226-165.26-12.966-248.37-26.549-13.068-2.1441-22.181-3.6251-28.893-4.7033-5.2247-0.83043-9.0746-1.4492-11.986-1.9242-4.9043-0.79754-8.6816-1.408-11.68-1.8891-2.4103-0.39008-4.4001-0.70121-6.0708-0.95241-0.17573-0.0281-0.34833-0.0558-0.5179-0.083l-1.2476-0.18209c-0.14518-0.0203-0.28789-0.0403-0.42819-0.0602-0.13801-0.0195-0.27101-0.0379-0.39919-0.0552-0.80694-0.11297-1.5345-0.20633-2.194-0.28276-0.59995-0.0688-1.1431-0.12157-1.637-0.16011 0.02016-9e-3 0.04511-0.0132 0.07289-0.0125 0.02449-3e-3 0.05098-4e-3 0.07872-9.2e-4 0.27633 5e-3 0.57801 0.0159 0.90777 0.0334 0.34163 0.0175 0.70481 0.0394 1.0916 0.0661 0.40306 0.0298 0.82069 0.0622 1.2535 0.097 0.18334 0.0124 0.37359 0.0273 0.57108 0.0446 0.20244 0.0147 0.40676 0.0307 0.61294 0.0479 0.04431 4e-3 0.32462 0.0372 0.86441 0.10217 0.5887 0.0724 1.0208 0.12732 1.2721 0.16178 0.5564 0.0791 1.141 0.16339 1.7558 0.25333 0.48365 0.0719 0.99005 0.1432 1.5208 0.21373 0.5566 0.0782 1.1411 0.16243 1.7556 0.25323 2.3815 0.33051 5.2771 0.73221 8.8736 1.231 4.5852 0.64283 10.695 1.5246 19.241 2.788 0.88789 0.13266 1.7775 0.26005 2.6674 0.3817 0.9374 0.13795 1.891 0.26357 2.8458 0.37411l0.53603 0.074c0.27251 0.0364 0.53482 0.0644 0.77521 0.0827 0.20203 0.0263 0.34298 0.0237 0.33784-6e-3 3e-3 -0.0621-0.0691-0.10529-0.21868-0.12976-3.6138-0.66913-6.8454-1.2303-9.7287-1.6962-2.927-0.48327-5.5306-0.88379-7.8487-1.2126l-18.267-2.6194c-1.4812-0.17782-2.7917-0.34461-3.9595-0.50211-0.40798-0.056-0.78418-0.10811-1.1313-0.15659-0.06609-9e-3 -0.13424-0.0183-0.20438-0.027 1.5912 0.16689 3.4831 0.3767 5.77 0.64293 3.5783 0.41813 8.4581 1.022 15.507 1.935 0.33014 0.037 0.67125 0.0823 1.0187 0.13546 0.35031 0.0393 0.70867 0.0833 1.0732 0.13156 1.6396 0.21212 3.3495 0.43213 5.1309 0.66002 1.9794 0.24562 4.0774 0.50463 6.3028 0.77794 0.23765 0.0256 0.5118 0.0566 0.81441 0.0913l0.74291 0.094c3.8546 0.47013 8.2916 0.98378 13.453 1.5515 6.2069 0.69859 13.727 1.5182 23.025 2.5019 0.88749 0.10127 2.334 0.26753 4.3866 0.50366 2.1112 0.24534 4.214 0.44954 6.1588 0.59548 2.0766 0.20946 3.6703 0.26724 4.1127 0.14384l-0.69446-0.19702-1.3692-0.22462c-2.9047-0.49334-6.0329-0.93914-8.9979-1.2892-2.8557-0.34908-5.5426-0.66166-8.059-0.93845l-3.4252-0.35463c-8.7626-1.0292-15.907-1.8335-21.842-2.4702-4.9066-0.52485-9.1156-0.97521-12.766-1.3659-3.1742-0.33973-5.9601-0.66112-8.4246-0.96733-0.57236-0.064-1.1282-0.12952-1.6681-0.19654-0.52522-0.0652-1.0372-0.12875-1.5364-0.19074-1.1483-0.14512-2.2141-0.2827-3.2058-0.41354-0.93669-0.12359-1.8129-0.23629-2.6342-0.33905-3.1179-0.39847-5.6625-0.70349-7.7789-0.93859-1.7923-0.19912-3.3304-0.36648-4.6648-0.5084-1.1674-0.12705-2.1943-0.25035-3.1047-0.37058 0.30592 0.0158 0.62396 0.0348 0.95487 0.0573 0.34441 0.0207 0.70331 0.0468 1.0777 0.0787 1.1888 0.10213 2.544 0.22188 4.1033 0.36326 1.8199 0.16904 3.972 0.37125 6.5564 0.61659 1.1266 0.10326 2.3556 0.2162 3.7014 0.34019 1.4224 0.13533 3.0039 0.28333 4.7719 0.44624l2.2243 0.20567c1.2249 0.10997 2.621 0.23394 4.2163 0.37427 1.7638 0.15672 3.4474 0.30066 5.0157 0.42814l1.9975 0.14577 1.0599 0.0371c0.0761-0.015 0.1603-0.0284 0.25278-0.0401 0.16456-6e-3 0.23172-0.0358 0.1725-0.0763-0.33167-0.1033-0.79399-0.19865-1.3034-0.2697-0.64938-0.0937-1.2947-0.17723-1.9289-0.25011l-4.8744-0.4992c-0.94011-0.10369-1.7486-0.18636-2.4382-0.2497-7.1163-0.71093-12.136-1.1845-15.867-1.5122-2.8816-0.25308-5.1743-0.45623-7.0418-0.62333-1.5446-0.13804-2.85-0.26956-3.9676-0.3959 0.22353 0.0114 0.45418 0.0227 0.69232 0.0347 0.25078 0.0129 0.50992 0.0289 0.77785 0.0482 1.65 0.11803 3.6812 0.26322 6.2428 0.44621 3.338 0.23845 7.8594 0.55602 14.329 1.0038 2.9773 0.20909 6.4868 0.45556 10.685 0.75045l19.302 1.3166c1.7088 0.12436 5.027 0.36343 10.441 0.75207 6.3028 0.45244 13.398 0.92858 21.421 1.4292l11.181 0.62277 6.3684 0.11017c0.63024-0.089 0.32064-0.25712-0.81665-0.44762-1.7866-0.2374-3.8077-0.46025-5.9262-0.65552-6.1905-0.54478-11.896-0.9851-17.048-1.326-5.5058-0.3754-10.184-0.6744-14.196-0.91096-3.6339-0.22708-5.9804-0.36751-7.2538-0.43499-8.134-0.48882-14.585-0.85714-19.826-1.1389-4.3873-0.22803-8.0762-0.41609-11.221-0.57301-4.7973-0.33577-8.5535-0.60402-11.574-0.82457-2.4822-0.18123-4.547-0.32802-6.2914-0.44833-1.485-0.0955-2.8007-0.1753-3.9738-0.24198-1.0352-0.0589-1.9476-0.12013-2.7577-0.18359 0.84258 0.0304 1.7892 0.0673 2.8604 0.11203 1.211 0.0473 2.5954 0.10152 4.1936 0.16418 0.21373 9e-3 0.56856 0.0257 1.0781 0.0516 0.54522 0.0237 1.0928 0.0429 1.6413 0.0575l0.72872 9e-3 0.43514-0.0293 0.0213 1e-3c0.0379-6e-3 0.0736-0.0129 0.10658-0.0211 0.057-6e-3 0.0723-0.0231 0.0451-0.0514-0.13339-0.0508-0.30802-0.0873-0.49486-0.10402-0.14771-0.0202-0.95998-0.0751-2.3153-0.15716-1.3234-0.0785-2.2142-0.12155-2.7607-0.13509-1.0426-0.0341-1.9844-0.0552-2.8395-0.0649l0.23627-5.1e-4c1.3449-9e-3 2.9367-0.0224 4.8491-0.0407 2.2858-0.0182 5.1011-0.0281 8.6544-0.0264l13.977 0.34691c7.863 0.20434 19.037 0.48356 36.17 0.89771 4.6683 0.1322 9.9093 0.21572 15.678 0.23858 4.34-0.022 6.777-0.11132 7.0145-0.267 0.45782-0.17213-1.7703-0.37049-6.3804-0.57622-6.1213-0.23805-11.712-0.3777-16.679-0.43117l-4.3013-0.0719c-1.3367-0.016-2.6262-0.038-3.8709-0.0653l-5.2659-0.0612c-12.751-0.18606-21.499-0.30557-27.875-0.38573-4.8265-0.0607-8.6092-0.0975-11.654-0.11752-0.27802-2e-3 -0.55892-3e-3 -0.8424-1e-3l-0.79341-8e-3c-2.0399-0.0758-3.7762-0.1487-5.272-0.21931-1.3102-0.0619-2.4518-0.1261-3.4551-0.19252 0.30724 7e-3 0.6289 0.0138 0.96599 0.021l1.0901 0.0133c0.43502 4e-3 0.88053 0.0112 1.3367 0.0205 0.31241 6e-3 1.1566 0.0129 2.6649 0.0203 0.15059 8e-3 0.30757 7e-4 0.45362-0.0199 0.0154-6e-3 0.0282-0.0119 0.0378-0.0189 0.0266-0.0104 0.0466-0.0227 0.0588-0.0358v3e-5m9.7032 1.9085c0.21969 0.0174 0.4446 0.0291 0.67074 0.0349l0.89361 0.0465c3.0355 0.15797 6.6748 0.32158 11.117 0.49306 5.4317 0.2093 12.263 0.41565 21.07 0.6161 0.52805 0.01 1.0752 0.0274 1.631 0.0533 0.57738 0.0263 1.1612 0.0391 1.7187 0.0378 0.42533-6e-3 0.59181-0.0489 0.48616-0.12749-1.2198-0.1293-2.5219-0.22971-3.8189-0.29639-1.4554-0.0792-2.86-0.14445-4.2082-0.19609l-2.4498-0.0937c-5.0391-0.21214-9.4531-0.37949-13.345-0.51054-3.3867-0.11427-6.3275-0.20629-8.9051-0.28028-2.2737-0.0587-4.1965-0.10097-5.8369-0.12964-0.13496 7.2e-4 -0.27123-2e-3 -0.40617-8e-3 -0.20287-2e-3 -0.40086 7.3e-4 -0.59203 8e-3 -0.17177 3e-3 -0.32765 0.0191-0.45122 0.0455 0.20748 0.0872 0.52743 0.15677 0.89823 0.19403 0.48777 0.0484 0.99911 0.0868 1.5284 0.11408v1e-5m-5.0178 3.2051-4.3e-4 8e-3 -0.0531-9e-3 0.0535 2e-3m-0.0331-8.9079c0.0719 6e-3 0.15111 7e-3 0.23571 6e-3 0.0568 2e-3 0.11968 2e-3 0.18622-3e-3 0.0571 2e-3 0.12071 2e-3 0.18809-3e-3 0.18317-6.6e-4 0.37837-8e-3 0.58219-0.0233 0.13728-0.0136 0.27193-0.0207 0.39868-0.0212 1.0826-0.0658 2.3349-0.15011 3.7887-0.25586 1.5885-0.12259 3.3918-0.27032 5.4532-0.4479 1.3614-0.12485 2.82-0.25894 4.3868-0.40328 1.6878-0.16299 3.461-0.33726 5.3243-0.52365 1.2584-0.12524 2.5521-0.26242 3.8814-0.41223 1.3961-0.13867 2.8422-0.29171 4.3279-0.45838l1.7041-0.19118c0.45261-0.0473 0.91276-0.10947 1.3472-0.18205 0.23183-0.0571 0.19786-0.11035-0.10784-0.15842-0.73588 0.0271-1.5181 0.0775-2.3123 0.14845-0.78439 0.0568-1.57 0.12528-2.3456 0.20397l-1.3285 0.11644-4.2936 0.41102c-1.285 0.123-2.483 0.24096-3.6018 0.35437-0.22204 0.0195-0.44612 0.0431-0.66886 0.0706-0.22027 0.0196-0.41509 0.0358-0.58901 0.0497l-0.12828 0.0159c-3.26 0.31918-6.0985 0.59377-8.592 0.83192-2.221 0.22534-4.1773 0.41502-5.9136 0.57495l-0.49686 0.0372c-0.30977 0.0274-0.61814 0.0625-0.92124 0.10479-0.23571 0.021-0.47589 0.0704-0.66412 0.13594 0.0435 0.011 0.0973 0.0185 0.1591 0.0219l-1e-5 1.5e-4m15.193 0.52739c-0.39704 0.0269-0.78643 0.0722-1.132 0.13119 0.32405 0.0422 0.72606 0.0655 1.183 0.0682 0.53497-3.4e-4 1.0616-3e-3 1.5776-8e-3 0.40377-0.0132 0.80835-0.0214 1.2109-0.0244 0.98893-0.0354 2.0689-0.0756 3.2494-0.12099 1.2415-0.0568 2.6028-0.12003 4.098-0.19043 2.7216-0.13875 5.7641-0.29431 9.1872-0.46978 3.9354-0.21412 8.0682-0.4245 12.378-0.62742 0.97728-0.0464 2.6772-0.1236 5.2004-0.23521 2.5481-0.11022 5.6557-0.25829 9.4322-0.45076 5.4432-0.25497 11.041-0.52877 16.728-0.82021l7.7295-0.4138 4.7465-0.33227c1.2199-0.11114 1.8176-0.19804 1.8204-0.26102 0.65187-0.10984 0.45721-0.19071-0.45793-0.19117-2.8732 0.0468-5.8972 0.14325-8.9151 0.28101-2.7663 0.10522-5.4531 0.22148-8.047 0.34717l-4.5201 0.24075c-16.284 0.78795-28.254 1.4037-37.415 1.9062-6.9436 0.37882-12.543 0.74835-17.117 1.1079-0.31382 0.0152-0.62766 0.0365-0.93666 0.0632l-1e-5 2.5e-4m54.767 18.283c-3.7949-0.52074-7.2037-0.987-10.298-1.409-2.1932-0.3202-4.2046-0.55654-5.8328-0.68945l-0.85805-0.0894c-0.42354-0.0374-0.66753-0.0265-0.64502 0.0281 2.6683 0.6388 6.3588 1.334 10.393 1.9405 6.6232 1.0753 14.28 2.2447 23.045 3.5032 7.53 1.134 15.54 2.1438 22.495 2.7999-0.093-0.0636-0.29215-0.14232-0.59692-0.23454-0.34529-0.10998-0.54377-0.20045-0.59021-0.26866-3.7804-0.66598-7.629-1.2877-11.284-1.8277-3.6628-0.56802-7.1362-1.0861-10.399-1.5528l-5.5336-0.7972c-2.2054-0.31201-5.5779-0.79016-9.895-1.4029v-2e-5" fill="#e1e4e5" fill-rule="evenodd" stroke-width=".9892"/>
 <path d="m91.161 101.1c-15.038-1.5339-25.18-2.456-32.482-3.0206-5.5977-0.42663-10.007-0.71425-13.572-0.90263-2.9439-0.1544-5.4376-0.26777-7.5773-0.34904-0.18773-8e-3 -0.44088-0.0185-0.75567-0.031-0.307-0.0149-0.6229-0.0279-0.94678-0.0374-0.29411-9e-3 -0.57721-9e-3 -0.84857 4e-3 -0.19074 2e-3 -0.3667 0.0272-0.52039 0.0738-0.01678 7e-3 -0.03955 0.0176-0.06775 0.0323-0.02793 0.0132-0.03293 0.0395-0.01221 0.0652 0.07389 0.0415 0.16259 0.0652 0.24495 0.0652 0.09379 8.4e-4 0.18517-6e-3 0.27268-0.0191l0.13851-0.0179c0.48736-0.0266 1.0115-0.0234 1.5696 0.0116 0.62155 0.0382 1.28 0.0894 1.9788 0.1548 0.72782 0.0674 1.453 0.13253 2.172 0.19502 0.62719 0.0467 1.281 0.0973 1.9631 0.15178 0.70182 0.0608 1.4353 0.12154 2.2025 0.18215 0.53124 0.0425 1.0731 0.0877 1.6258 0.13548l2.9787 0.26229c0.34108 0.0298 0.68668 0.0605 1.0368 0.0921 0.15378 0.0163 0.30167 0.0329 0.44357 0.05 0.75274 0.0895 1.5692 0.18599 2.4552 0.29017 2.5342 0.29206 5.3783 0.60177 8.5925 0.93244l39.636 4.8492c5.0288 0.60869 10.677 1.3488 17.027 2.2407 6.2546 0.86008 13.264 1.8946 21.103 3.1265 0.32927 0.0457 0.48147 0.12363 0.47485 0.23608 0.0102 0.0546-0.29422 0.0586-0.73233 0.01-0.52128-0.0345-1.0901-0.0869-1.6811-0.15424l-1.1626-0.13704c-2.0706-0.20561-4.1388-0.43851-6.172-0.69362-1.9301-0.22568-3.8595-0.46139-5.7855-0.70635-18.536-2.3362-31.791-3.9682-41.741-5.1589-7.8021-0.92393-14.086-1.6682-19.255-2.2806-1.3336-0.16816-2.602-0.32414-3.8099-0.46878-1.1523-0.13166-2.2512-0.26357-3.3005-0.39592-1.3344-0.16683-2.6031-0.32289-3.8107-0.46897-0.54494-0.064-1.4827-0.16587-2.7606-0.30041-1.1717-0.12101-1.78-0.1826-1.876-0.19012-0.4474-0.0326-0.89079-0.0627-1.3301-0.0903-0.42854-0.0328-0.84137-0.0608-1.2393-0.0842-0.93896-0.0658-1.8452-0.12675-2.7201-0.18321-0.83918-0.0508-1.6273-0.0926-2.3688-0.12609-0.71492-0.0339-1.3696-0.0555-1.9698-0.0659-0.06033-5e-3 -0.11769-3e-3 -0.17078 8.8e-4 -0.06026-1e-3 -0.11437 6e-3 -0.15806 0.0223-0.30108-0.0217-0.5921-0.0419-0.87353-0.0607-0.27615-0.01-0.54331-0.023-0.80188-0.0349-0.13693-9e-3 -0.26944-0.0142-0.39756-0.0178-0.1267-6e-3 -0.25216-0.0111-0.37655-0.0147-0.2328-7e-3 -0.45869-0.0109-0.67793-0.011-0.21494-4e-3 -0.42632-7e-3 -0.63426-8e-3 -0.13147-0.5077-0.33316-1.0141-0.59829-1.5072-0.26116-0.48237-0.57512-0.94497-0.93315-1.3792 0.25484-0.40989 0.46922-0.84394 0.63926-1.297 0.36348-0.9244 0.54079-1.8994 0.5203-2.8766-0.0083-0.50257-0.06829-0.99764-0.17885-1.4788-0.10193-0.46998-0.2614-0.91946-0.4743-1.3414 0.29817-0.34376 0.57693-0.70176 0.83321-1.0713 0.26587-0.37288 0.49609-0.75641 0.68627-1.1452 0.15267 6e-3 0.30454 9e-3 0.45548 0.0131l1.7597 7e-3c0.95633-0.0134 2.0133-0.045 3.1864-0.0973 1.2756-0.0568 2.6783-0.13219 4.2277-0.22875 0.72264 1e-3 1.4895-5e-3 2.3045-0.0187 0.85403-0.014 1.7566-0.0299 2.7119-0.0479l0.29931-0.0128c0.098 1e-3 0.19935 3.8e-4 0.30344-4e-3 0.355-9e-3 0.70877-0.0168 1.061-0.0237 0.37503-0.0148 0.74891-0.0259 1.1214-0.0329-0.17991 0.0143-0.35005 0.0273-0.51063 0.039-0.17533 0.0138-0.34868 0.0274-0.52106 0.0414-1.3559 0.10366-2.6785 0.21416-3.9656 0.33028-1.1898 0.10211-2.2715 0.20661-3.2577 0.31361-0.09455 0.0107-0.18331 0.0197-0.26628 0.0282-0.06712 4e-3 -0.13671 0.0183-0.20165 0.0388-0.052 0.022-0.06382 0.0493-0.03564 0.0818 0.10938 0.0171 0.23474 0.0213 0.36848 0.0116l0.28346-0.0155c1.8687-0.10135 3.9678-0.23449 6.3422-0.40554 2.6822-0.18589 5.7538-0.38924 9.3067-0.6142-2.9195 0.29969-5.5196 0.56646-7.8499 0.80542-2.0779 0.20759-3.956 0.39253-5.6615 0.55793-2.377 0.13086-4.454 0.23864-6.2844 0.32747-1.6187 0.0818-3.0651 0.13244-4.365 0.15671-0.0694-2e-3 -0.17366-2e-3 -0.31186 1e-3 -0.1146 3e-3 -0.23118 0.0157-0.34762 0.035-0.11173 0.0229-0.17442 0.0593-0.18867 0.10918 0.0373 0.0164 0.08067 0.028 0.12858 0.034 0.04698 9e-3 0.09677 0.014 0.14873 0.0162l0.09183 0.01c0.36182 0.0362 0.74728 0.0551 1.155 0.0559 0.45274 2e-3 0.93238-3e-3 1.441-0.015 0.5217-0.0155 1.0269-0.0303 1.5125-0.0445 0.78559-0.0254 1.6114-0.0493 2.4806-0.0719 0.93188-0.0343 1.9216-0.0684 2.9749-0.10227 1.357 0.0577 2.8606 0.0832 4.5272 0.0735 1.8337-0.0101 3.8694-0.026 6.1418-0.0482 2.5108-0.0233 5.2724-9e-3 8.3232 0.0491 0.87126 0.0156 1.7859 0.031 2.7468 0.0461 0.99566 0.0223 2.0439 0.0379 3.1485 0.0427-5.5088 0.22298-10.049 0.38848-13.856 0.51029-3.2534 0.092-6.0668 0.17168-8.5238 0.24137-2.1643 0.0614-4.0912 0.12327-5.8177 0.18556-0.46822 0.014-0.93456 0.0223-1.3986 0.0252-0.45775 5e-3 -0.89764 0.0114-1.3207 0.022-0.18478 5e-3 -0.47603 0.0219-0.86705 0.0505-0.19044 0.0105-0.3795 0.0259-0.56641 0.047-0.02731 0.0105-0.02853 0.0294-0.0042 0.0566 0.08148 4e-3 0.16206 0.01 0.24147 0.0184l0.17338 0.0212c0.58097 0.0387 1.1991 0.0602 1.8548 0.0633 0.72023-5e-5 1.482-5e-3 2.2889-0.0145 0.84236-0.0144 1.701-0.0265 2.5748-0.0361 1.8602-0.0135 3.9786-0.0264 6.4121-0.0387 2.7914-0.0214 6.0045-0.0656 9.7426-0.13856-2.142 0.0982-4.1164 0.18914-5.9421 0.27362-1.6852 0.078-3.2308 0.14588-4.6532 0.20482-3.2338 0.14758-5.9582 0.26914-8.2845 0.37031-2.0293 0.0844-3.7994 0.13252-5.3567 0.15072-0.06776-2e-3 -0.13594-2e-3 -0.20423 3e-4 -0.06096 2e-3 -0.11909 5e-3 -0.1743 9e-3 -0.06095 0.0127-0.09793 0.0293-0.11139 0.0519-0.25544-5.7e-4 -0.50259-5e-3 -0.74178-0.0127-0.24029-4e-3 -0.47587-8e-3 -0.70687-0.0115-0.03859-4e-3 -0.07854-5e-3 -0.11905-5e-3 -0.04288-5e-3 -0.09095 0.0122-0.11216 0.0396 0.0077 0.0391 0.06619 0.0676 0.17584 0.0857 0.1077 0.0176 0.22038 0.0288 0.33678 0.0335l0.18935 6e-3c0.90574 0.0577 1.9034 0.10365 3.0069 0.13656 1.1945 0.0404 2.5085 0.0714 3.9608 0.0917 0.071 8e-3 0.1456 0.0107 0.22174 8e-3l0.09826 8e-3c1.2112 0.0721 2.561 0.12388 4.0723 0.1531 1.6392 0.0376 3.4456 0.0733 5.4459 0.10662 2.2183 0.031 4.6416 0.0754 7.298 0.13822 5.164 0.12817 11.644 0.25553 20.014 0.38259 11.091 0.18098 26.376 0.42482 48.786 0.77809 3.3878 0.0323 7.2072 0.0842 11.523 0.15814 4.7938 0.0788 10.142 0.16479 16.136 0.25888l-2.9512-7e-3c-14.135 0.0399-25.838 0.0555-35.683 0.0529-8.2156 0.0262-15.289 0.0354-21.442 0.0311-7.7126-0.13841-14.136-0.24175-19.569-0.32012-4.654-0.0764-8.6858-0.14289-12.213-0.20155l1e-3 -0.0228c-0.17908-0.11079-0.55499-0.18248-0.97765-0.18796-2.8828-0.0522-4.4993-0.0877-5.0735-0.10958-0.88123-0.0333-1.7379-0.0474-2.5659-0.0436-1.9426 2e-3 -3.7203-0.0159-5.3531-0.0521-1.5192-0.0327-2.9236-0.0689-4.2256-0.1076-1.1998-0.0314-2.3253-0.0435-3.3831-0.0395-0.71532 2e-3 -1.3816 8e-3 -2.0032 0.0178l-2.0426 0.0338c-0.10643-2e-3 -0.21329 5e-3 -0.31722 0.0187-0.08887 0.0122-0.15334 0.0573-0.15125 0.10695 0.04791 0.0225 0.10865 0.0356 0.17368 0.0373 0.065 6e-3 0.13178 9e-3 0.19938 9e-3l0.13836-1e-3c0.26658-7.5e-4 1.1396 0.0263 2.7404 0.0843 1.1484 0.0226 2.3881 0.0504 3.7305 0.0849 1.447 0.0437 3.031 0.0834 4.7725 0.11846 2.1787 0.12586 4.6573 0.24811 7.501 0.36632 3.2464 0.13503 7.0159 0.27578 11.446 0.42418-3.0736-0.0181-5.8359-0.0272-8.332-0.0283-2.2645-8e-3 -4.321-2e-3 -6.197 0.0161-0.40527-1e-4 -1.0331 6e-3 -1.8638 0.0174-0.79832 5e-3 -1.5513 0.0158-2.2623 0.0317l-0.8551 0.0343-0.4764 0.048-0.12438 0.0541c0.15772 0.0665 0.37888 0.10421 0.60941 0.10348 0.28727 0.0131 0.58054 0.0137 0.87531 4e-3l0.50965-0.0136c1.4416-8e-3 3.0261 5e-3 4.7747 0.0424 1.8786 0.0403 3.9354 0.0908 6.1968 0.15396 2.4847 0.0771 5.1824 0.15286 8.1203 0.22724 1.3838 0.0319 2.8519 0.069 4.4118 0.11343 1.6038 0.037 3.29 0.0801 5.0654 0.13095-7.7064-0.0222-13.816-0.0189-18.779 3e-3 -4.1498 0.0232-7.6037 0.0389-10.522 0.0485l-0.5127-4.9e-4 -8.582-0.13681c-1.1034-0.0183-2.1207-0.0266-3.0615-0.0275-0.88481 3e-3 -1.69 0.0233-2.425 0.0596-0.0423-1e-3 -0.08431-2e-3 -0.12543 2e-3 -0.04336 5e-3 -0.08351 0.0168-0.11734 0.0337-0.03303 0.0118-0.04819 0.0357-0.0366 0.0593 0.0529 0.0382 0.12401 0.065 0.20192 0.076 0.08261 0.0124 0.16738 0.0189 0.25207 0.018 0.08542 2e-3 0.14845 3e-3 0.18883 3e-3 1.0213 0.0204 2.1417 0.0461 3.3762 0.0791 1.3386 0.0352 2.8216 0.0775 4.4735 0.12638 1.7575 0.11908 3.738 0.2348 5.9864 0.34683 2.5483 0.12695 5.4044 0.2783 8.6262 0.45891 3.7869 0.22701 8.2692 0.50358 13.658 0.84471 6.5578 0.41515 14.712 0.92052 25.127 1.5536-7.8151-0.33214-14.324-0.6029-19.83-0.82652-4.7164-0.20069-8.7703-0.38082-12.292-0.5444-6.2955-0.31037-11.285-0.54149-15.336-0.7158-3.3552-0.13963-6.151-0.22489-8.5169-0.268l-2.4319-6e-3c-0.63596 5e-3 -1.2434 0.0162-1.8243 0.0321-0.08743 2e-3 -0.1998 3e-3 -0.33627 7e-3 -0.14043 3e-3 -0.27661 9e-3 -0.40868 0.0188-0.10275 2e-3 -0.2013 0.0152-0.29279 0.036l-0.01777 8e-3c-0.01118 5e-3 -0.01993 0.0106-0.02731 0.018 0.07335 0.0495 0.1729 0.0808 0.27488 0.0861 0.13025 9e-3 0.2591 0.0127 0.38637 0.0134l2.8368 0.0639c0.99211 0.02 2.0614 0.0489 3.2172 0.0867 2.4263 0.2348 5.2602 0.47987 8.6131 0.73791 4.0535 0.31217 9.0302 0.69214 15.286 1.166 8.0994 0.61354 18.996 1.4977 34.442 2.8221 1.4969 0.11833 3.252 0.2723 5.2928 0.46503l5.8102 0.51051c-18.858-1.586-28.97-2.3895-34.471-2.7691-6.8288-0.47163-12.339-0.81191-16.88-1.0551-3.8535-0.20104-7.0711-0.36135-9.7959-0.48965-2.2735-0.10936-4.3003-0.19661-6.1185-0.26533-1.6501-0.0589-3.1274-0.0942-4.4577-0.10937-0.05662-2.1e-4 -0.13316-2e-3 -0.22914-8.8e-4 -0.09176 2e-3 -0.17984 0.0106-0.26278 0.0238-0.06461 0.01-0.10922 0.0382-0.12139 0.0751 0.07147 0.0285 0.15063 0.0489 0.23133 0.0597 0.0937 0.0139 0.18468 0.0259 0.27289 0.0351 0.08051 4e-3 0.13726 6e-3 0.16881 7e-3 0.73983 0.0639 1.5151 0.11482 2.3283 0.15199 0.86746 0.0505 1.7846 0.0961 2.7557 0.13653 1.977 0.2225 4.2067 0.45133 6.7405 0.6879 2.8956 0.26469 6.2346 0.57613 10.128 0.94596 4.5973 0.43675 10.123 1.0029 16.889 1.742 1.7804 0.19042 3.6828 0.39925 5.7196 0.62828 2.1565 0.2425 4.46 0.5026 6.9258 0.7822v-3e-5m-6.391-5.9943c-1.1516-0.0523-2.2644-0.12444-3.3262-0.21478-0.80471-0.0697-1.4993-0.1976-1.95-0.35679 0.26796-0.0471 0.60605-0.0747 0.97871-0.0797 0.41474-0.0113 0.84427-0.0147 1.2844-0.0102 0.29279 0.0132 0.58849 0.0197 0.8813 0.0181 3.5582 0.0612 7.73 0.14953 12.664 0.27074 5.5895 0.14966 11.97 0.33445 19.321 0.56223 8.4415 0.26109 18.017 0.59121 28.952 1.0063l5.3146 0.18471c2.9248 0.10184 5.9717 0.22855 9.1292 0.38085 2.8137 0.12861 5.6385 0.31841 8.2851 0.55996 0.22276 0.14264-0.13819 0.22021-1.0537 0.22775-1.209-1e-3 -2.4755-0.0282-3.728-0.079-1.2057-0.0503-2.3927-0.0862-3.5381-0.10648-19.105-0.41699-33.924-0.83259-45.709-1.2449-9.6362-0.33822-17.533-0.65677-24.121-0.96102l-1.9276-0.0892c-0.49157-0.0122-0.98024-0.0355-1.4574-0.0685l2e-5 -5.4e-4m-10.87 5.772-0.11603-3e-3 0.11524 0.0168 8.7e-4 -0.0137m-0.12645-16.128c-0.12943-8e-3 -0.24158-0.0221-0.33194-0.0428 0.40825-0.1175 0.9294-0.20546 1.441-0.24211 0.65782-0.0746 1.3271-0.13645 1.9995-0.18418l1.0785-0.0644c3.7659-0.27979 8.0122-0.61146 12.836-1.0054 5.413-0.41714 11.575-0.89733 18.652-1.4546l0.27847-0.028c0.37757-0.0241 0.80059-0.0524 1.2788-0.0865 0.48356-0.0484 0.97004-0.09 1.4521-0.1238 2.4271-0.19873 5.028-0.4051 7.8201-0.62005 2.9426-0.22651 6.0456-0.46568 9.3225-0.7185l2.8848-0.20287c1.684-0.1379 3.39-0.25711 5.0934-0.3553 1.7246-0.12373 3.4234-0.2104 5.0217-0.25493 0.66433 0.0889 0.74347 0.18501 0.23523 0.28757-0.94328 0.12885-1.9424 0.23842-2.9252 0.32163l-3.7003 0.33599c-3.2216 0.29253-6.3618 0.561-9.3972 0.80408-2.8911 0.26374-5.6997 0.50437-8.4272 0.72316-4.0475 0.32647-7.8971 0.63137-11.559 0.91615-3.4031 0.25156-6.5697 0.48558-9.5236 0.7038-4.4725 0.31026-8.3869 0.56673-11.837 0.77792-3.1552 0.18361-5.8738 0.32861-8.2248 0.44035-0.27522 6.1e-4 -0.56753 0.0123-0.86551 0.0361-0.44243 0.0259-0.86623 0.0388-1.2639 0.0386-0.14629 8e-3 -0.28444 9e-3 -0.40837 4e-3 -0.14442 7e-3 -0.28107 9e-3 -0.40431 4e-3 -0.18881 4e-3 -0.36582 5.7e-4 -0.52651-9e-3v1e-5m32.975 1.048c0.66959-0.0452 1.3485-0.0795 2.0265-0.10371 9.9246-0.62228 22.071-1.2563 37.136-1.8987 19.885-0.85456 45.854-1.8949 81.169-3.2168l9.8054-0.40755c5.6268-0.21122 11.455-0.40495 17.456-0.57812 22.91-7e-3 40.338-1.227 63.338-0.70981-19.091 0.41312-37.994 1.0798-57.247 1.6387l-16.767 0.70073c-12.336 0.492-24.48 0.95263-36.288 1.3802-8.1858 0.32499-14.925 0.57348-20.453 0.7566-5.4829 0.18666-9.1628 0.3147-11.283 0.39336-9.3464 0.33977-18.314 0.69487-26.856 1.0586-7.4334 0.29659-14.034 0.55918-19.933 0.7931-3.2418 0.118-6.1954 0.22398-8.8916 0.31919-2.5659 0.0751-4.909 0.14108-7.0507 0.19875-0.87354 3e-3 -1.7514 0.0152-2.6276 0.0366-1.1168 6e-3 -2.2624 8e-3 -3.4233 5e-3 -0.99155-7e-3 -1.8641-0.0524-2.5675-0.13085 0.74753-0.10623 1.5934-0.1875 2.4586-0.23552v-3e-5m118.96 33.437c9.3239 1.1302 16.642 2.0155 21.482 2.5986l12.014 1.4772c7.084 0.86504 14.625 1.8242 22.577 2.875 7.9361 0.99864 16.292 2.1493 24.5 3.3781 0.0973 0.12338 0.53279 0.28879 1.2825 0.49 0.6624 0.16895 1.0975 0.31301 1.2969 0.42831-15.097-1.2303-32.486-3.1076-48.834-5.2068-19.029-2.3321-35.653-4.496-50.033-6.4834-8.7586-1.1228-16.772-2.404-22.566-3.5769-0.0494-0.0991 0.48017-0.11723 1.3996-0.047l1.8626 0.16707c3.5341 0.25059 7.9007 0.69077 12.662 1.2839 6.7168 0.78563 14.105 1.6482 22.356 2.6158v4e-5" fill="#c8c8c8" fill-rule="evenodd" stroke-width="1.9608"/>
</svg>
