<?xml version="1.0" encoding="UTF-8" standalone="no"?>
<svg
   xmlns:dc="http://purl.org/dc/elements/1.1/"
   xmlns:cc="http://creativecommons.org/ns#"
   xmlns:rdf="http://www.w3.org/1999/02/22-rdf-syntax-ns#"
   xmlns:svg="http://www.w3.org/2000/svg"
   xmlns="http://www.w3.org/2000/svg"
   xmlns:sodipodi="http://sodipodi.sourceforge.net/DTD/sodipodi-0.dtd"
   xmlns:inkscape="http://www.inkscape.org/namespaces/inkscape"
   enable-background="new 0 0 128 128"
   id="Слой_1"
   version="1.1"
   viewBox="0 0 400 200"
   xml:space="preserve"
   sodipodi:docname="stream.svg"
   width="400"
   height="200"
   inkscape:version="0.92.3 (2405546, 2018-03-11)"><metadata
     id="metadata71"><rdf:RDF><cc:Work
         rdf:about=""><dc:format>image/svg+xml</dc:format><dc:type
           rdf:resource="http://purl.org/dc/dcmitype/StillImage" /><dc:title /></cc:Work></rdf:RDF></metadata><defs
     id="defs69" /><sodipodi:namedview
     pagecolor="#ffffff"
     bordercolor="#666666"
     borderopacity="1"
     objecttolerance="10"
     gridtolerance="10"
     guidetolerance="10"
     inkscape:pageopacity="0"
     inkscape:pageshadow="2"
     inkscape:window-width="1920"
     inkscape:window-height="1032"
     id="namedview67"
     showgrid="false"
     inkscape:zoom="1.4142136"
     inkscape:cx="268.2026"
     inkscape:cy="153.72285"
     inkscape:window-x="0"
     inkscape:window-y="48"
     inkscape:window-maximized="1"
     inkscape:current-layer="Слой_1" /><g
     id="stream"
     transform="translate(-55.079235,-29.737627)"><path
       inkscape:connector-curvature="0"
       id="path22"
       style="fill:#e1e4e5;fill-opacity:1;fill-rule:evenodd;stroke-width:0.98919994"
       d="m 103.00544,121.16083 c 1.62498,0.0262 3.48268,0.0571 5.627,0.0922 2.50334,0.0351 5.46307,0.0833 9.01664,0.14703 2.8352,-0.007 6.09435,-0.0227 9.87991,-0.0496 4.53416,-0.0134 9.92576,-0.0397 16.44162,-0.0832 l 1.35975,-6.5e-4 c -2.76168,-0.0426 -5.22569,-0.0824 -7.43434,-0.11859 -1.98704,-0.0343 -3.74691,-0.0571 -5.30913,-0.0699 -10.32099,-0.1624 -17.36388,-0.27408 -22.47604,-0.35601 -3.85648,-0.0575 -6.84246,-0.11826 -9.22222,-0.18112 -1.223698,-0.0301 -2.340337,-0.0514 -3.362845,-0.0653 -0.921706,-0.0153 -1.754045,-0.0322 -2.509371,-0.0506 -0.696279,-0.0142 -1.318204,-0.0404 -1.876327,-0.0784 l -0.04526,-0.005 c -0.03511,0.002 -0.06946,3.3e-4 -0.102173,-0.004 0.838489,0.0113 1.782118,0.02 2.851927,0.0253 1.222718,0.006 2.621272,0.0137 4.236359,0.0231 1.211,0.003 2.55603,8e-5 4.05842,-0.008 1.70381,-0.01 3.6527,-0.0288 5.90356,-0.0596 3.09483,-0.043 6.88249,-0.10592 11.62462,-0.19612 6.08863,-0.12405 14.29066,-0.30192 25.93458,-0.56722 l 3.93758,-0.13697 2.41844,-0.17838 c 0.84489,-0.14116 0.49097,-0.2483 -1.02862,-0.31692 -2.23151,-0.0739 -4.61669,-0.0668 -6.89203,0.013 -20.32431,0.55165 -31.20791,0.81822 -37.98808,0.96081 -4.63645,0.0975 -8.00646,0.15587 -10.566339,0.18918 l -0.462977,0.006 c -0.145949,0.004 -0.28949,0.005 -0.430693,0.005 -0.631163,0.01 -1.219107,0.0172 -1.768113,0.023 -0.513934,0.005 -0.993748,0.0102 -1.442732,0.0145 -0.229972,0.004 -0.45061,0.005 -0.662441,0.006 -0.205584,0.003 -0.407255,0.006 -0.605086,0.009 -0.311081,0.004 -0.609597,0.005 -0.896278,0.003 -0.271073,10e-4 -0.529072,10e-4 -0.774891,-0.002 -0.02537,-10e-4 -0.05101,-0.002 -0.07679,-10e-4 l -0.129967,-0.002 c 0.006,-0.0124 0.02333,-0.022 0.05141,-0.0287 0.02531,-0.003 0.05208,-0.004 0.08034,-0.005 0.03145,-0.002 0.06294,-0.002 0.09411,-6.7e-4 0.717643,-0.0124 1.533423,-0.0416 2.468696,-0.0912 1.072211,-0.0595 2.327857,-0.13076 3.818291,-0.21686 0.654895,-0.035 1.367203,-0.0748 2.144662,-0.12005 0.842334,-0.049 1.752418,-0.10217 2.738728,-0.15997 0.82884,-0.0236 1.72032,-0.055 2.68175,-0.0954 1.03932,-0.0394 2.15918,-0.0911 3.36916,-0.15665 0.19418,-0.008 0.38187,-0.0164 0.56328,-0.0242 0.21925,-0.0152 0.42389,-0.0268 0.61326,-0.0348 0.71942,-0.0444 1.44268,-0.0861 2.16788,-0.12474 0.73699,-0.0391 1.51957,-0.0807 2.35185,-0.12512 0.40651,-0.0152 0.82128,-0.0338 1.24777,-0.0562 0.43686,-0.0229 0.89781,-0.0439 1.38518,-0.0633 l 0.13007,7.1e-4 0.35221,-0.0132 0.96306,-0.0628 c 0.33494,-0.0216 0.67538,-0.0506 1.01646,-0.0866 0.12064,-0.02 0.23831,-0.0415 0.35229,-0.0642 0.0957,-0.0125 0.18346,-0.029 0.25612,-0.0483 l 0.10355,-0.0381 c -0.2444,-0.0732 -0.66086,-0.1072 -1.13768,-0.0943 -0.52315,8e-5 -1.05387,0.016 -1.5782,0.0467 l -0.57126,0.0235 -0.21422,0.016 c -2.07337,0.10153 -3.92578,0.18096 -5.59069,0.24164 -1.4671,0.0517 -2.83756,0.11146 -4.11941,0.17799 -0.0323,0.002 -0.0639,0.003 -0.0919,7e-4 l -0.0693,0.006 c -0.50945,-10e-4 -0.99254,-0.008 -1.45108,-0.0194 -0.44315,-0.007 -0.86467,-0.0132 -1.26595,-0.021 -1.406,-0.0278 -2.67874,-0.0311 -3.835983,-0.0146 -1.047511,0.0157 -1.985672,0.0275 -2.830665,0.0358 -0.768117,0.008 -1.461035,-0.003 -2.08633,-0.0333 0.75952,-0.0383 1.593855,-0.0801 2.514636,-0.126 1.025196,-0.0542 2.173601,-0.11498 3.468832,-0.1836 0.61923,-0.0323 1.26933,-0.0655 1.95257,-0.0997 0.73865,-0.0424 1.51829,-0.0845 2.34235,-0.1262 2.24546,-0.11965 4.97794,-0.27865 8.37259,-0.49075 4.23422,-0.26456 9.68589,-0.62865 16.96731,-1.14216 10.16984,-0.73723 25.26051,-1.88287 49.97747,-3.82809 l 11.02029,-0.88451 c 6.68238,-0.53169 13.70908,-1.10032 21.05595,-1.70565 l 10.83237,-0.96608 5.36497,-0.52109 c 0.99489,-0.11373 1.5564,-0.22165 1.40964,-0.27158 0.52865,-0.10538 0.78126,-0.19376 0.73389,-0.25693 -3.48035,-0.0288 -8.97544,0.2293 -14.88326,0.6801 -6.03078,0.43504 -11.67237,0.87257 -16.90906,1.30735 l -5.12717,0.41254 -2.026,0.18717 c -14.71505,1.14132 -26.34651,2.09418 -35.76048,2.90914 -7.46092,0.64419 -13.64515,1.18432 -18.85424,1.64489 -4.41677,0.39052 -8.12928,0.70082 -11.291,0.94789 -8.10314,0.62566 -13.78838,1.06079 -17.99723,1.37955 -3.24239,0.24503 -5.82687,0.42655 -7.935039,0.56207 -0.18754,0.009 -0.371921,0.0198 -0.553213,0.032 l -0.52507,0.0357 c -0.66636,0.0394 -1.292902,0.0782 -1.883065,0.11614 -0.547067,0.035 -1.061712,0.0693 -1.546752,0.10303 0.786136,-0.0941 1.651862,-0.19899 2.6099,-0.31657 1.074115,-0.13583 2.272731,-0.28706 3.618819,-0.45653 0.28929,-0.0248 0.59155,-0.049 0.90754,-0.0728 l 0.96449,-0.0704 0.29973,-0.0251 c 0.16632,-0.0159 0.35472,-0.0349 0.56616,-0.0571 0.26916,-0.0259 0.52336,-0.0518 0.7615,-0.0774 l 0.40985,-0.059 0.0667,-0.0231 c 0.0144,-0.0104 0.0224,-0.0208 0.0235,-0.0303 -0.0225,-0.0186 -0.0675,-0.0308 -0.12796,-0.035 -0.0625,-0.01 -0.13441,-0.0152 -0.21285,-0.0155 -0.19602,-0.002 -0.39878,0.005 -0.60485,0.0185 l -0.3205,0.0166 c -0.81563,0.0292 -1.59913,0.0779 -2.34652,0.14356 -0.74009,0.0601 -1.44863,0.12616 -2.127167,0.19769 -0.628699,0.0659 -1.204487,0.12665 -1.733144,0.18276 -0.171715,0.005 -0.34408,0.0113 -0.516971,0.0199 -0.162386,0.004 -0.325465,0.009 -0.48912,0.0147 -0.04801,0.002 -0.09471,0.004 -0.139877,0.003 l -0.137986,0.007 c -0.44049,0.0113 -0.856548,0.0214 -1.250104,0.0305 -0.375574,0.009 -0.729072,0.0131 -1.062259,0.0138 0.09497,-0.007 0.188415,-0.0134 0.280266,-0.0193 0.09826,-0.007 0.195184,-0.0151 0.290706,-0.0238 0.271356,-0.0229 0.552067,-0.0465 0.842625,-0.0706 0.294951,-0.0242 0.603463,-0.0497 0.926425,-0.0764 l 0.240408,-0.0237 c 0.08101,-0.006 0.163249,-0.0129 0.246734,-0.0197 l 0.05222,-0.005 c 0.147948,-0.0125 0.298397,-0.0269 0.451403,-0.0431 0.155179,-0.0101 0.31693,-0.0243 0.485513,-0.0427 0.370028,-0.0321 0.754579,-0.0671 1.154519,-0.10529 0.42526,-0.038 0.859199,-0.0757 1.301789,-0.11333 0.20838,-0.0217 0.4156,-0.0428 0.62148,-0.0635 0.22031,-0.0189 0.43984,-0.0394 0.6584,-0.0611 1.80538,-0.16896 3.97256,-0.38228 6.61984,-0.65413 3.22454,-0.33662 7.30553,-0.77495 12.634,-1.3611 2.52179,-0.27895 5.41198,-0.59945 8.7563,-0.97117 3.78319,-0.42885 8.13728,-0.92184 13.20158,-1.49464 8.23584,-0.94332 18.75298,-2.15992 32.64777,-3.78139 81.38379,-13.811592 156.93792,-10.062419 227.26684,-11.421856 24.92044,22.197196 25.70735,33.953096 1.79317,64.134486 -84.06482,-2.2226 -165.25901,-12.96643 -248.36971,-26.54926 -13.06815,-2.14406 -22.18101,-3.6251 -28.89318,-4.70327 -5.2247,-0.83043 -9.07463,-1.44921 -11.98625,-1.92424 -4.90434,-0.79754 -8.68162,-1.40797 -11.68017,-1.88914 -2.41032,-0.39008 -4.400133,-0.70121 -6.070812,-0.95241 -0.175734,-0.0281 -0.348333,-0.0558 -0.517895,-0.083 l -1.247586,-0.18209 c -0.145182,-0.0203 -0.287893,-0.0403 -0.428189,-0.0602 -0.138006,-0.0195 -0.27101,-0.0379 -0.399192,-0.0552 -0.806941,-0.11297 -1.534535,-0.20633 -2.193961,-0.28276 -0.599953,-0.0688 -1.143106,-0.12157 -1.637039,-0.16011 0.02016,-0.009 0.04511,-0.0132 0.07289,-0.0125 0.02449,-0.003 0.05098,-0.004 0.07872,-9.2e-4 0.276329,0.005 0.578007,0.0159 0.907768,0.0334 0.341626,0.0175 0.704814,0.0394 1.091621,0.0661 0.403056,0.0298 0.820691,0.0622 1.253488,0.097 0.183345,0.0124 0.373594,0.0273 0.571078,0.0446 0.202435,0.0147 0.406761,0.0307 0.612945,0.0479 0.04431,0.004 0.324622,0.0372 0.864411,0.10217 0.588695,0.0724 1.020798,0.12732 1.272051,0.16178 0.556396,0.0791 1.140963,0.16339 1.755845,0.25333 0.483647,0.0719 0.990047,0.1432 1.520837,0.21373 0.5566,0.0782 1.14108,0.16243 1.7556,0.25323 2.38148,0.33051 5.27713,0.73221 8.87362,1.23097 4.58519,0.64283 10.69484,1.52465 19.24066,2.78798 0.88789,0.13266 1.77747,0.26005 2.66736,0.3817 0.9374,0.13795 1.89104,0.26357 2.8458,0.37411 l 0.53603,0.074 c 0.27251,0.0364 0.53482,0.0644 0.77521,0.0827 0.20203,0.0263 0.34298,0.0237 0.33784,-0.006 0.003,-0.0621 -0.0691,-0.10529 -0.21868,-0.12976 -3.61378,-0.66913 -6.84538,-1.23029 -9.72874,-1.69621 -2.92699,-0.48327 -5.53064,-0.88379 -7.84872,-1.21257 l -18.26734,-2.61944 c -1.48117,-0.17782 -2.791734,-0.34461 -3.959455,-0.50211 -0.407984,-0.056 -0.784181,-0.10811 -1.1313,-0.15659 -0.06609,-0.009 -0.134236,-0.0183 -0.204381,-0.027 1.591193,0.16689 3.483066,0.3767 5.769966,0.64293 3.57834,0.41813 8.45806,1.02203 15.50727,1.93503 0.33014,0.037 0.67125,0.0823 1.01874,0.13546 0.35031,0.0393 0.70867,0.0833 1.07315,0.13156 1.63958,0.21212 3.34952,0.43213 5.13086,0.66002 1.97936,0.24562 4.07737,0.50463 6.30279,0.77794 0.23765,0.0256 0.5118,0.0566 0.81441,0.0913 l 0.74291,0.094 c 3.85459,0.47013 8.29164,0.98378 13.45348,1.55154 6.20686,0.69859 13.72698,1.51817 23.02464,2.50188 0.88749,0.10127 2.334,0.26753 4.38658,0.50366 2.11123,0.24534 4.21404,0.44954 6.15881,0.59548 2.07662,0.20946 3.67026,0.26724 4.11267,0.14384 l -0.69446,-0.19702 -1.36923,-0.22462 c -2.90471,-0.49334 -6.03287,-0.93914 -8.99786,-1.28921 -2.85573,-0.34908 -5.54261,-0.66166 -8.05895,-0.93845 l -3.42523,-0.35463 c -8.7626,-1.02919 -15.90652,-1.83346 -21.84236,-2.47018 -4.90655,-0.52485 -9.11563,-0.97521 -12.76584,-1.36588 -3.17422,-0.33973 -5.96013,-0.66112 -8.42465,-0.96733 -0.57236,-0.064 -1.12815,-0.12952 -1.66808,-0.19654 -0.52522,-0.0652 -1.03721,-0.12875 -1.53645,-0.19074 -1.14831,-0.14512 -2.21414,-0.2827 -3.20581,-0.41354 -0.93669,-0.12359 -1.81292,-0.23629 -2.63422,-0.33905 -3.11786,-0.39847 -5.66247,-0.70349 -7.77887,-0.93859 -1.79232,-0.19912 -3.330429,-0.36648 -4.664845,-0.5084 -1.16735,-0.12705 -2.194322,-0.25035 -3.104681,-0.37058 0.305915,0.0158 0.62396,0.0348 0.954867,0.0573 0.344412,0.0207 0.703308,0.0468 1.077651,0.0787 1.188797,0.10213 2.544029,0.22188 4.103308,0.36326 1.81993,0.16904 3.97204,0.37125 6.55644,0.61659 1.12665,0.10326 2.35562,0.2162 3.70141,0.34019 1.42243,0.13533 3.00389,0.28333 4.77187,0.44624 l 2.22427,0.20567 c 1.22489,0.10997 2.62095,0.23394 4.21628,0.37427 1.76381,0.15672 3.44736,0.30066 5.01571,0.42814 l 1.99747,0.14577 1.05994,0.0371 c 0.0761,-0.015 0.1603,-0.0284 0.25278,-0.0401 0.16456,-0.006 0.23172,-0.0358 0.1725,-0.0763 -0.33167,-0.1033 -0.79399,-0.19865 -1.30345,-0.2697 -0.64938,-0.0937 -1.29468,-0.17723 -1.92893,-0.25011 l -4.87438,-0.4992 c -0.94011,-0.10369 -1.74864,-0.18636 -2.43825,-0.2497 -7.1163,-0.71093 -12.13578,-1.18449 -15.86675,-1.51217 -2.88158,-0.25308 -5.174265,-0.45623 -7.041806,-0.62333 -1.544614,-0.13804 -2.850016,-0.26956 -3.967607,-0.3959 0.223527,0.0114 0.454185,0.0227 0.692318,0.0347 0.250781,0.0129 0.509917,0.0289 0.777854,0.0482 1.649999,0.11803 3.681161,0.26322 6.242811,0.44621 3.33798,0.23845 7.8594,0.55602 14.32894,1.00381 2.9773,0.20909 6.48684,0.45556 10.68535,0.75045 l 19.30187,1.3166 c 1.7088,0.12436 5.02703,0.36343 10.44092,0.75207 6.30275,0.45244 13.39807,0.92858 21.42085,1.42925 l 11.18065,0.62277 6.36837,0.11017 c 0.63024,-0.089 0.32064,-0.25712 -0.81665,-0.44762 -1.78662,-0.2374 -3.80773,-0.46025 -5.92625,-0.65552 -6.19049,-0.54478 -11.89646,-0.9851 -17.04807,-1.32603 -5.50581,-0.3754 -10.18398,-0.6744 -14.19618,-0.91096 -3.63387,-0.22708 -5.98043,-0.36751 -7.25384,-0.43499 -8.13399,-0.48882 -14.58465,-0.85714 -19.82581,-1.13886 -4.3873,-0.22803 -8.0762,-0.41609 -11.22121,-0.57301 -4.79731,-0.33577 -8.55351,-0.60402 -11.57426,-0.82457 -2.48221,-0.18123 -4.54698,-0.32802 -6.29142,-0.44833 -1.485027,-0.0955 -2.800655,-0.1753 -3.973845,-0.24198 -1.035183,-0.0589 -1.947613,-0.12013 -2.757726,-0.18359 0.842582,0.0304 1.789193,0.0673 2.86038,0.11203 1.210959,0.0473 2.595449,0.10152 4.193621,0.16418 0.21373,0.009 0.56856,0.0257 1.07813,0.0516 0.54522,0.0237 1.09284,0.0429 1.64132,0.0575 l 0.72872,0.009 0.43514,-0.0293 0.0213,0.001 c 0.0379,-0.006 0.0736,-0.0129 0.10658,-0.0211 0.057,-0.006 0.0723,-0.0231 0.0451,-0.0514 -0.13339,-0.0508 -0.30802,-0.0873 -0.49486,-0.10402 -0.14771,-0.0202 -0.95998,-0.0751 -2.31528,-0.15716 -1.32342,-0.0785 -2.214249,-0.12155 -2.760714,-0.13509 -1.0426,-0.0341 -1.98444,-0.0552 -2.839539,-0.0649 l 0.236267,-5.1e-4 c 1.344933,-0.009 2.936659,-0.0224 4.849146,-0.0407 2.28576,-0.0182 5.10111,-0.0281 8.65436,-0.0264 l 13.97727,0.34691 c 7.86298,0.20434 19.03685,0.48356 36.16984,0.89771 4.66834,0.1322 9.90931,0.21572 15.67834,0.23858 4.34005,-0.022 6.77701,-0.11132 7.0145,-0.267 0.45782,-0.17213 -1.77034,-0.37049 -6.38041,-0.57622 -6.12133,-0.23805 -11.7119,-0.3777 -16.67864,-0.43117 l -4.30126,-0.0719 c -1.33673,-0.016 -2.62621,-0.038 -3.87095,-0.0653 l -5.26587,-0.0612 c -12.75051,-0.18606 -21.49928,-0.30557 -27.87457,-0.38573 -4.82648,-0.0607 -8.60922,-0.0975 -11.65393,-0.11752 -0.27802,-0.002 -0.55892,-0.003 -0.8424,-10e-4 l -0.79341,-0.008 c -2.03986,-0.0758 -3.77625,-0.1487 -5.272012,-0.21931 -1.310194,-0.0619 -2.451842,-0.1261 -3.455107,-0.19252 0.307237,0.007 0.628905,0.0138 0.965992,0.021 l 1.090117,0.0133 c 0.435022,0.004 0.880533,0.0112 1.33666,0.0205 0.31241,0.006 1.15665,0.0129 2.66489,0.0203 0.15059,0.008 0.30757,7e-4 0.45362,-0.0199 0.0154,-0.006 0.0282,-0.0119 0.0378,-0.0189 0.0266,-0.0104 0.0466,-0.0227 0.0588,-0.0358 v 3e-5 m 9.70316,1.90854 c 0.21969,0.0174 0.4446,0.0291 0.67074,0.0349 l 0.89361,0.0465 c 3.03546,0.15797 6.67479,0.32158 11.1169,0.49306 5.43171,0.2093 12.26261,0.41565 21.06973,0.6161 0.52805,0.01 1.0752,0.0274 1.63103,0.0533 0.57738,0.0263 1.16123,0.0391 1.71867,0.0378 0.42533,-0.006 0.59181,-0.0489 0.48616,-0.12749 -1.21981,-0.1293 -2.52192,-0.22971 -3.8189,-0.29639 -1.45542,-0.0792 -2.85998,-0.14445 -4.20819,-0.19609 l -2.4498,-0.0937 c -5.0391,-0.21214 -9.45314,-0.37949 -13.34515,-0.51054 -3.38666,-0.11427 -6.32746,-0.20629 -8.90507,-0.28028 -2.27369,-0.0587 -4.19648,-0.10097 -5.8369,-0.12964 -0.13496,7.2e-4 -0.27123,-0.002 -0.40617,-0.008 -0.20287,-0.002 -0.40086,7.3e-4 -0.59203,0.008 -0.17177,0.003 -0.32765,0.0191 -0.45122,0.0455 0.20748,0.0872 0.52743,0.15677 0.89823,0.19403 0.48777,0.0484 0.99911,0.0868 1.52836,0.11408 v 10e-6 m -5.01776,3.20512 -4.3e-4,0.008 -0.0531,-0.009 0.0535,0.002 m -0.0331,-8.90787 c 0.0719,0.006 0.15111,0.007 0.23571,0.006 0.0568,0.002 0.11968,0.002 0.18622,-0.003 0.0571,0.002 0.12071,0.002 0.18809,-0.003 0.18317,-6.6e-4 0.37837,-0.008 0.58219,-0.0233 0.13728,-0.0136 0.27193,-0.0207 0.39868,-0.0212 1.08258,-0.0658 2.33486,-0.15011 3.78869,-0.25586 1.58851,-0.12259 3.39182,-0.27032 5.4532,-0.4479 1.36136,-0.12485 2.82002,-0.25894 4.3868,-0.40328 1.68779,-0.16299 3.46101,-0.33726 5.32431,-0.52365 1.25841,-0.12524 2.55208,-0.26242 3.88141,-0.41223 1.39612,-0.13867 2.8422,-0.29171 4.32789,-0.45838 l 1.70413,-0.19118 c 0.45261,-0.0473 0.91276,-0.10947 1.34723,-0.18205 0.23183,-0.0571 0.19786,-0.11035 -0.10784,-0.15842 -0.73588,0.0271 -1.51811,0.0775 -2.31233,0.14845 -0.78439,0.0568 -1.57003,0.12528 -2.34558,0.20397 l -1.32852,0.11644 -4.29358,0.41102 c -1.28499,0.123 -2.48297,0.24096 -3.60184,0.35437 -0.22204,0.0195 -0.44612,0.0431 -0.66886,0.0706 -0.22027,0.0196 -0.41509,0.0358 -0.58901,0.0497 l -0.12828,0.0159 c -3.26001,0.31918 -6.09846,0.59377 -8.59198,0.83192 -2.22096,0.22534 -4.17734,0.41502 -5.91359,0.57495 l -0.49686,0.0372 c -0.30977,0.0274 -0.61814,0.0625 -0.92124,0.10479 -0.23571,0.021 -0.47589,0.0704 -0.66412,0.13594 0.0435,0.011 0.0973,0.0185 0.1591,0.0219 l -1e-5,1.5e-4 m 15.19303,0.52739 c -0.39704,0.0269 -0.78643,0.0722 -1.13199,0.13119 0.32405,0.0422 0.72606,0.0655 1.18298,0.0682 0.53497,-3.4e-4 1.06162,-0.003 1.57755,-0.008 0.40377,-0.0132 0.80835,-0.0214 1.21092,-0.0244 0.98893,-0.0354 2.06889,-0.0756 3.24945,-0.12099 1.24151,-0.0568 2.60275,-0.12003 4.09801,-0.19043 2.72164,-0.13875 5.76413,-0.29431 9.18719,-0.46978 3.9354,-0.21412 8.0682,-0.4245 12.37815,-0.62742 0.97728,-0.0464 2.67721,-0.1236 5.20045,-0.23521 2.54809,-0.11022 5.65568,-0.25829 9.43216,-0.45076 5.44322,-0.25497 11.0411,-0.52877 16.72796,-0.82021 l 7.72952,-0.4138 4.74648,-0.33227 c 1.21991,-0.11114 1.81762,-0.19804 1.82042,-0.26102 0.65187,-0.10984 0.45721,-0.19071 -0.45793,-0.19117 -2.87317,0.0468 -5.8972,0.14325 -8.9151,0.28101 -2.76633,0.10522 -5.45312,0.22148 -8.04697,0.34717 l -4.52014,0.24075 c -16.28447,0.78795 -28.25373,1.40372 -37.41511,1.90615 -6.94363,0.37882 -12.54255,0.74835 -17.11733,1.10789 -0.31382,0.0152 -0.62766,0.0365 -0.93666,0.0632 l -1e-5,2.5e-4 m 54.76656,18.28253 c -3.79492,-0.52074 -7.20367,-0.987 -10.29764,-1.409 -2.1932,-0.3202 -4.20462,-0.55654 -5.83275,-0.68945 l -0.85805,-0.0894 c -0.42354,-0.0374 -0.66753,-0.0265 -0.64502,0.0281 2.66833,0.6388 6.35877,1.33405 10.39297,1.94054 6.62322,1.0753 14.2803,2.24469 23.04512,3.50316 7.52999,1.13405 15.53966,2.14384 22.49456,2.79987 -0.093,-0.0636 -0.29215,-0.14232 -0.59692,-0.23454 -0.34529,-0.10998 -0.54377,-0.20045 -0.59021,-0.26866 -3.7804,-0.66598 -7.62898,-1.28772 -11.28433,-1.82773 -3.66282,-0.56802 -7.1362,-1.08608 -10.39915,-1.55284 l -5.53358,-0.7972 c -2.20545,-0.31201 -5.57792,-0.79016 -9.895,-1.40287 v -2e-5"
       sodipodi:nodetypes="cccccccccccccccscscccccccscccsccccccccccccscccccccscccccccccccccccccccccccccscccccccccccccscccsccccccccccccccccccccccccsccccccccccccccccccccccccccccsccccccccccccccccccccccccccccccccccccccccccccccccscscscscccccccccccccccccccsccccscccsccccccccccscsccccccccccccccccccccccccccscccsccccccccccscccccccccccccccccccccccccccccccsccccccsccccccccccccccccccccccccccccccccccccccccccccccccccc" /><path
       inkscape:connector-curvature="0"
       id="path20"
       style="fill:#c8c8c8;fill-opacity:1;fill-rule:evenodd;stroke-width:1.9607625"
       d="m 146.23996,130.83496 c -15.03824,-1.53389 -25.1801,-2.45602 -32.48166,-3.02063 -5.5977,-0.42663 -10.00743,-0.71425 -13.57181,-0.90263 -2.943877,-0.1544 -5.437633,-0.26777 -7.577296,-0.34904 -0.187734,-0.008 -0.44088,-0.0185 -0.75567,-0.031 -0.307002,-0.0149 -0.622898,-0.0279 -0.946782,-0.0374 -0.294113,-0.009 -0.577212,-0.009 -0.848573,0.004 -0.190736,0.002 -0.366699,0.0272 -0.520391,0.0738 -0.01678,0.007 -0.03955,0.0176 -0.06775,0.0323 -0.02793,0.0132 -0.03293,0.0395 -0.01221,0.0652 0.07389,0.0415 0.16259,0.0652 0.244952,0.0652 0.09379,8.4e-4 0.185167,-0.006 0.272681,-0.0191 l 0.138511,-0.0179 c 0.487355,-0.0266 1.011537,-0.0234 1.569647,0.0116 0.62155,0.0382 1.280046,0.0894 1.978823,0.1548 0.72782,0.0674 1.452952,0.13253 2.172019,0.19502 0.627194,0.0467 1.281001,0.0973 1.963124,0.15178 0.701818,0.0608 1.435279,0.12154 2.202545,0.18215 0.53124,0.0425 1.0731,0.0877 1.62579,0.13548 l 2.97869,0.26229 c 0.34108,0.0298 0.68668,0.0605 1.03685,0.0921 0.15378,0.0163 0.30167,0.0329 0.44357,0.05 0.75274,0.0895 1.56915,0.18599 2.45524,0.29017 2.53424,0.29206 5.37833,0.60177 8.5925,0.93244 l 39.63642,4.84917 c 5.02882,0.60869 10.67711,1.34884 17.02675,2.24067 6.25459,0.86008 13.26443,1.89455 21.10306,3.12648 0.32926,0.0457 0.48146,0.12363 0.47485,0.23608 0.0102,0.0546 -0.29422,0.0586 -0.73234,0.01 -0.52128,-0.0345 -1.0901,-0.0869 -1.68109,-0.15424 l -1.16255,-0.13704 c -2.07056,-0.20561 -4.13885,-0.43851 -6.17202,-0.69362 -1.93007,-0.22568 -3.85953,-0.46139 -5.78546,-0.70635 -18.53608,-2.33619 -31.79135,-3.96817 -41.741,-5.1589 -7.8021,-0.92393 -14.08579,-1.66819 -19.25503,-2.28059 -1.3336,-0.16816 -2.602,-0.32414 -3.80992,-0.46878 -1.15229,-0.13166 -2.25125,-0.26357 -3.3005,-0.39592 -1.33443,-0.16683 -2.60311,-0.32289 -3.81069,-0.46897 -0.54494,-0.064 -1.48272,-0.16587 -2.76065,-0.30041 -1.17173,-0.12101 -1.78001,-0.1826 -1.87596,-0.19012 -0.4474,-0.0326 -0.89079,-0.0627 -1.33009,-0.0903 -0.42854,-0.0328 -0.84137,-0.0608 -1.23926,-0.0842 -0.938965,-0.0658 -1.84525,-0.12675 -2.720131,-0.18321 -0.839181,-0.0508 -1.627309,-0.0926 -2.368801,-0.12609 -0.714925,-0.0339 -1.369583,-0.0555 -1.969771,-0.0659 -0.06033,-0.005 -0.117694,-0.003 -0.170778,8.8e-4 -0.06026,-0.001 -0.114367,0.006 -0.158061,0.0223 -0.301075,-0.0217 -0.592102,-0.0419 -0.873533,-0.0607 -0.276149,-0.01 -0.543308,-0.023 -0.801885,-0.0349 -0.136933,-0.009 -0.26944,-0.0142 -0.397561,-0.0178 -0.126695,-0.006 -0.252159,-0.0111 -0.376554,-0.0147 -0.232804,-0.007 -0.458691,-0.0109 -0.677933,-0.011 -0.214943,-0.004 -0.426315,-0.007 -0.634265,-0.008 -0.131473,-0.5077 -0.333165,-1.01406 -0.598286,-1.50725 -0.261158,-0.48237 -0.575117,-0.94497 -0.933147,-1.37924 0.25484,-0.40989 0.469216,-0.84394 0.639264,-1.29701 0.36348,-0.9244 0.540786,-1.89944 0.520296,-2.87665 -0.0083,-0.50257 -0.06829,-0.99764 -0.178854,-1.47879 -0.10193,-0.46998 -0.261401,-0.91946 -0.474301,-1.34135 0.298166,-0.34376 0.576926,-0.70176 0.833207,-1.07133 0.265874,-0.37288 0.496088,-0.75641 0.686273,-1.14525 0.152672,0.006 0.304543,0.009 0.455485,0.0131 l 1.75972,0.007 c 0.956332,-0.0134 2.013322,-0.045 3.186445,-0.0973 1.275646,-0.0568 2.678322,-0.13219 4.227747,-0.22875 0.722644,0.001 1.489544,-0.005 2.304514,-0.0187 0.85403,-0.014 1.75658,-0.0299 2.71189,-0.0479 l 0.29931,-0.0128 c 0.098,0.001 0.19935,3.8e-4 0.30344,-0.004 0.355,-0.009 0.70877,-0.0168 1.06104,-0.0237 0.37503,-0.0148 0.74891,-0.0259 1.1214,-0.0329 -0.17991,0.0143 -0.35005,0.0273 -0.51063,0.039 -0.17533,0.0138 -0.34868,0.0274 -0.52106,0.0414 -1.35591,0.10366 -2.67853,0.21416 -3.96559,0.33028 -1.18984,0.10211 -2.27148,0.20661 -3.257702,0.31361 -0.09455,0.0107 -0.183309,0.0197 -0.266284,0.0282 -0.06712,0.004 -0.136709,0.0183 -0.20165,0.0388 -0.052,0.022 -0.06382,0.0493 -0.03564,0.0818 0.109382,0.0171 0.234735,0.0213 0.368481,0.0116 l 0.283465,-0.0155 c 1.86869,-0.10135 3.96775,-0.23449 6.34225,-0.40554 2.68215,-0.18589 5.75383,-0.38924 9.30667,-0.6142 -2.91953,0.29969 -5.51959,0.56646 -7.84986,0.80542 -2.07794,0.20759 -3.95595,0.39253 -5.66154,0.55793 -2.377026,0.13086 -4.454041,0.23864 -6.284393,0.32747 -1.618708,0.0818 -3.065057,0.13244 -4.36496,0.15671 -0.0694,-0.002 -0.173656,-0.002 -0.31186,10e-4 -0.114605,0.003 -0.231177,0.0157 -0.347619,0.035 -0.111731,0.0229 -0.174416,0.0593 -0.188671,0.10918 0.0373,0.0164 0.08067,0.028 0.128576,0.034 0.04698,0.009 0.09677,0.014 0.148727,0.0162 l 0.09183,0.01 c 0.361822,0.0362 0.747281,0.0551 1.154975,0.0559 0.452743,0.002 0.932383,-0.003 1.440996,-0.015 0.521705,-0.0155 1.02688,-0.0303 1.51249,-0.0445 0.785592,-0.0254 1.611401,-0.0493 2.480557,-0.0719 0.931876,-0.0343 1.921638,-0.0684 2.974884,-0.10227 1.356998,0.0577 2.860598,0.0832 4.527238,0.0735 1.83374,-0.0101 3.86935,-0.026 6.1418,-0.0482 2.51085,-0.0233 5.27239,-0.009 8.32321,0.0491 0.87126,0.0156 1.78588,0.031 2.74684,0.0461 0.99566,0.0223 2.04386,0.0379 3.14853,0.0427 -5.50879,0.22298 -10.04924,0.38848 -13.85558,0.51029 -3.25344,0.092 -6.06684,0.17168 -8.52385,0.24137 -2.16428,0.0614 -4.091173,0.12327 -5.817728,0.18556 -0.468221,0.014 -0.934563,0.0223 -1.398568,0.0252 -0.457749,0.005 -0.897638,0.0114 -1.320687,0.022 -0.184779,0.005 -0.476032,0.0219 -0.867054,0.0505 -0.190437,0.0105 -0.379496,0.0259 -0.566408,0.047 -0.02731,0.0105 -0.02853,0.0294 -0.0042,0.0566 0.08148,0.004 0.162064,0.01 0.241467,0.0184 l 0.173383,0.0212 c 0.580967,0.0387 1.199081,0.0602 1.854813,0.0633 0.72023,-5e-5 1.481984,-0.005 2.288885,-0.0145 0.842365,-0.0144 1.701023,-0.0265 2.574839,-0.0361 1.860178,-0.0135 3.978648,-0.0264 6.412058,-0.0387 2.79135,-0.0214 6.00453,-0.0656 9.74264,-0.13856 -2.14204,0.0982 -4.11643,0.18914 -5.94206,0.27362 -1.68518,0.078 -3.23078,0.14588 -4.65325,0.20482 -3.2338,0.14758 -5.958171,0.26914 -8.284542,0.37031 -2.029307,0.0844 -3.799441,0.13252 -5.356712,0.15072 -0.06776,-0.002 -0.13594,-0.002 -0.204231,3e-4 -0.06096,0.002 -0.119086,0.005 -0.174303,0.009 -0.06095,0.0127 -0.09793,0.0293 -0.111392,0.0519 -0.255436,-5.7e-4 -0.502589,-0.005 -0.741777,-0.0127 -0.240288,-0.004 -0.475873,-0.008 -0.706873,-0.0115 -0.03859,-0.004 -0.07854,-0.005 -0.119046,-0.005 -0.04288,-0.005 -0.09095,0.0122 -0.112158,0.0396 0.0077,0.0391 0.06619,0.0676 0.175843,0.0857 0.1077,0.0176 0.220376,0.0288 0.33678,0.0335 l 0.18935,0.006 c 0.905745,0.0577 1.903388,0.10365 3.006888,0.13656 1.194493,0.0404 2.508542,0.0714 3.960786,0.0917 0.071,0.008 0.145601,0.0107 0.221745,0.008 l 0.09826,0.008 c 1.211184,0.0721 2.560957,0.12388 4.072262,0.1531 1.63925,0.0376 3.44559,0.0733 5.44586,0.10662 2.2183,0.031 4.64155,0.0754 7.29799,0.13822 5.16403,0.12817 11.64393,0.25553 20.01357,0.38259 11.09133,0.18098 26.37631,0.42482 48.78573,0.77809 3.38779,0.0323 7.20723,0.0842 11.52293,0.15814 4.79377,0.0788 10.14175,0.16479 16.13584,0.25888 l -2.95116,-0.007 c -14.13514,0.0399 -25.83751,0.0555 -35.6832,0.0529 -8.21559,0.0262 -15.28883,0.0354 -21.44195,0.0311 -7.71255,-0.13841 -14.13626,-0.24175 -19.56943,-0.32012 -4.65397,-0.0764 -8.68585,-0.14289 -12.21254,-0.20155 l 10e-4,-0.0228 c -0.17908,-0.11079 -0.55499,-0.18248 -0.97765,-0.18796 -2.88275,-0.0522 -4.49934,-0.0877 -5.07351,-0.10958 -0.88123,-0.0333 -1.73787,-0.0474 -2.56594,-0.0436 -1.94259,0.002 -3.7203,-0.0159 -5.35313,-0.0521 -1.51924,-0.0327 -2.92359,-0.0689 -4.22558,-0.1076 -1.199807,-0.0314 -2.325255,-0.0435 -3.38307,-0.0395 -0.715322,0.002 -1.381622,0.008 -2.003186,0.0178 l -2.042624,0.0338 c -0.106433,-0.002 -0.213289,0.005 -0.317221,0.0187 -0.08887,0.0122 -0.153342,0.0573 -0.151252,0.10695 0.04791,0.0225 0.108649,0.0356 0.17368,0.0373 0.065,0.006 0.131785,0.009 0.199383,0.009 l 0.138364,-0.001 c 0.266585,-7.5e-4 1.139577,0.0263 2.740431,0.0843 1.14836,0.0226 2.388082,0.0504 3.730519,0.0849 1.446986,0.0437 3.031046,0.0834 4.772506,0.11846 2.17874,0.12586 4.65729,0.24811 7.50099,0.36632 3.24638,0.13503 7.01593,0.27578 11.44553,0.42418 -3.07358,-0.0181 -5.83589,-0.0272 -8.33199,-0.0283 -2.26453,-0.008 -4.32103,-0.002 -6.19696,0.0161 -0.40527,-1e-4 -1.03311,0.006 -1.86376,0.0174 -0.79832,0.005 -1.55132,0.0158 -2.26232,0.0317 l -0.8551,0.0343 -0.4764,0.048 -0.12438,0.0541 c 0.15772,0.0665 0.37888,0.10421 0.60941,0.10348 0.28727,0.0131 0.58054,0.0137 0.87531,0.004 l 0.50965,-0.0136 c 1.44164,-0.008 3.02609,0.005 4.77471,0.0424 1.87862,0.0403 3.93538,0.0908 6.19685,0.15396 2.4847,0.0771 5.18236,0.15286 8.1203,0.22724 1.38383,0.0319 2.85191,0.069 4.41182,0.11343 1.60377,0.037 3.29005,0.0801 5.06537,0.13095 -7.70638,-0.0222 -13.81592,-0.0189 -18.77854,0.003 -4.14984,0.0232 -7.60372,0.0389 -10.52213,0.0485 l -0.5127,-4.9e-4 -8.582044,-0.13681 c -1.103408,-0.0183 -2.12069,-0.0266 -3.061482,-0.0275 -0.884814,0.003 -1.689983,0.0233 -2.425005,0.0596 -0.0423,-0.001 -0.08431,-0.002 -0.125427,0.002 -0.04336,0.005 -0.08351,0.0168 -0.117342,0.0337 -0.03303,0.0118 -0.04819,0.0357 -0.0366,0.0593 0.0529,0.0382 0.124013,0.065 0.201916,0.076 0.08261,0.0124 0.167376,0.0189 0.252067,0.018 0.08542,0.002 0.148448,0.003 0.188833,0.003 1.021338,0.0204 2.141724,0.0461 3.376182,0.0791 1.338629,0.0352 2.821612,0.0775 4.473536,0.12638 1.757494,0.11908 3.738026,0.2348 5.986356,0.34683 2.54826,0.12695 5.4044,0.2783 8.62623,0.45891 3.78687,0.22701 8.26918,0.50358 13.65777,0.84471 6.55775,0.41515 14.71216,0.92052 25.12686,1.5536 -7.81514,-0.33214 -14.32429,-0.6029 -19.82968,-0.82652 -4.71637,-0.20069 -8.77027,-0.38082 -12.29167,-0.5444 -6.29553,-0.31037 -11.2848,-0.54149 -15.3363,-0.7158 -3.35519,-0.13963 -6.151028,-0.22489 -8.516923,-0.268 l -2.431896,-0.006 c -0.635964,0.005 -1.24344,0.0162 -1.824311,0.0321 -0.08743,0.002 -0.199801,0.003 -0.336272,0.007 -0.140428,0.003 -0.276608,0.009 -0.408682,0.0188 -0.10275,0.002 -0.201298,0.0152 -0.292786,0.036 l -0.01777,0.008 c -0.01118,0.005 -0.01993,0.0106 -0.02731,0.018 0.07335,0.0495 0.172899,0.0808 0.274876,0.0861 0.130253,0.009 0.259097,0.0127 0.386374,0.0134 l 2.836795,0.0639 c 0.99211,0.02 2.061369,0.0489 3.217178,0.0867 2.426305,0.2348 5.260177,0.47987 8.613087,0.73791 4.05354,0.31217 9.03017,0.69214 15.28562,1.16597 8.09945,0.61354 18.99556,1.49768 34.44202,2.82211 1.4969,0.11833 3.25198,0.2723 5.29276,0.46503 l 5.81017,0.51051 c -18.85826,-1.58601 -28.96964,-2.38947 -34.47133,-2.76914 -6.82883,-0.47163 -12.33938,-0.81191 -16.88003,-1.05509 -3.85351,-0.20104 -7.07114,-0.36135 -9.79589,-0.48965 -2.27352,-0.10936 -4.3003,-0.19661 -6.118509,-0.26533 -1.650059,-0.0589 -3.127403,-0.0942 -4.457697,-0.10937 -0.05662,-2.1e-4 -0.133164,-0.002 -0.229145,-8.8e-4 -0.09176,0.002 -0.179839,0.0106 -0.262777,0.0238 -0.06461,0.01 -0.109216,0.0382 -0.121389,0.0751 0.07147,0.0285 0.150626,0.0489 0.231334,0.0597 0.0937,0.0139 0.184679,0.0259 0.272886,0.0351 0.08051,0.004 0.13726,0.006 0.168809,0.007 0.739833,0.0639 1.515114,0.11482 2.328343,0.15199 0.867455,0.0505 1.784571,0.0961 2.755688,0.13653 1.977037,0.2225 4.206727,0.45133 6.740487,0.6879 2.89555,0.26469 6.23458,0.57613 10.12761,0.94596 4.59728,0.43675 10.12253,1.00289 16.88921,1.74195 1.78043,0.19042 3.68279,0.39925 5.71959,0.62828 2.15652,0.2425 4.46001,0.5026 6.92581,0.7822 v -3e-5 m -6.39095,-5.99433 c -1.15156,-0.0523 -2.26445,-0.12444 -3.32622,-0.21478 -0.80471,-0.0697 -1.49932,-0.1976 -1.95002,-0.35679 0.26796,-0.0471 0.60605,-0.0747 0.97871,-0.0797 0.41474,-0.0113 0.84427,-0.0147 1.28445,-0.0102 0.29279,0.0132 0.58849,0.0197 0.8813,0.0181 3.55821,0.0612 7.72998,0.14953 12.66437,0.27074 5.5895,0.14966 11.96954,0.33445 19.32085,0.56223 8.44151,0.26109 18.0174,0.59121 28.95238,1.00634 l 5.31455,0.18471 c 2.92478,0.10184 5.97174,0.22855 9.12915,0.38085 2.81367,0.12861 5.63854,0.31841 8.28509,0.55996 0.22276,0.14264 -0.13819,0.22021 -1.05372,0.22775 -1.20903,-10e-4 -2.47552,-0.0282 -3.72802,-0.079 -1.20573,-0.0503 -2.39269,-0.0862 -3.5381,-0.10648 -19.10499,-0.41699 -33.92421,-0.83259 -45.7088,-1.24492 -9.63625,-0.33822 -17.53305,-0.65677 -24.12102,-0.96102 l -1.92758,-0.0892 c -0.49157,-0.0122 -0.98024,-0.0355 -1.45738,-0.0685 l 2e-5,-5.4e-4 m -10.86968,5.77203 -0.11603,-0.003 0.11524,0.0168 8.7e-4,-0.0137 m -0.12645,-16.1277 c -0.12943,-0.008 -0.24158,-0.0221 -0.33194,-0.0428 0.40825,-0.1175 0.9294,-0.20546 1.44101,-0.24211 0.65782,-0.0746 1.32713,-0.13645 1.99949,-0.18418 l 1.07854,-0.0644 c 3.76594,-0.27979 8.01221,-0.61146 12.83641,-1.00537 5.41299,-0.41714 11.57496,-0.89733 18.65233,-1.45462 l 0.27847,-0.028 c 0.37757,-0.0241 0.80059,-0.0524 1.27879,-0.0865 0.48356,-0.0484 0.97004,-0.09 1.45212,-0.1238 2.42711,-0.19873 5.02795,-0.4051 7.82009,-0.62005 2.94259,-0.22651 6.04561,-0.46568 9.32253,-0.7185 l 2.88477,-0.20287 c 1.68398,-0.1379 3.39001,-0.25711 5.09338,-0.3553 1.72465,-0.12373 3.42343,-0.2104 5.02167,-0.25493 0.66433,0.0889 0.74347,0.18501 0.23523,0.28757 -0.94328,0.12885 -1.94237,0.23842 -2.9252,0.32163 l -3.7003,0.33599 c -3.22162,0.29253 -6.36177,0.561 -9.3972,0.80408 -2.89108,0.26374 -5.69966,0.50437 -8.42722,0.72316 -4.04748,0.32647 -7.89714,0.63137 -11.55947,0.91615 -3.40311,0.25156 -6.5697,0.48558 -9.52358,0.7038 -4.47254,0.31026 -8.38691,0.56673 -11.83654,0.77792 -3.1552,0.18361 -5.87383,0.32861 -8.2248,0.44035 -0.27522,6.1e-4 -0.56753,0.0123 -0.86551,0.0361 -0.44243,0.0259 -0.86623,0.0388 -1.26389,0.0386 -0.14629,0.008 -0.28444,0.009 -0.40837,0.004 -0.14442,0.007 -0.28107,0.009 -0.40431,0.004 -0.18881,0.004 -0.36582,5.7e-4 -0.52651,-0.009 v 1e-5 m 32.97458,1.04795 c 0.66959,-0.0452 1.34854,-0.0795 2.02653,-0.10371 9.92461,-0.62228 22.07132,-1.25631 37.13555,-1.89871 19.88459,-0.85456 45.85438,-1.89494 81.16864,-3.21675 l 9.80541,-0.40755 c 5.62685,-0.21122 11.45528,-0.40495 17.45642,-0.57812 22.90998,-0.007 40.33848,-1.22698 63.33823,-0.70981 -19.09148,0.41312 -37.99363,1.07984 -57.2472,1.63873 l -16.7671,0.70073 c -12.33632,0.492 -24.47994,0.95263 -36.28832,1.3802 -8.18578,0.32499 -14.92475,0.57348 -20.45323,0.7566 -5.48292,0.18666 -9.16281,0.3147 -11.28326,0.39336 -9.34645,0.33977 -18.31382,0.69487 -26.85634,1.05856 -7.4334,0.29659 -14.03402,0.55918 -19.93329,0.7931 -3.24176,0.118 -6.19542,0.22398 -8.89157,0.31919 -2.56588,0.0751 -4.909,0.14108 -7.05067,0.19875 -0.87354,0.003 -1.75144,0.0152 -2.62759,0.0366 -1.11678,0.006 -2.26235,0.008 -3.42328,0.005 -0.99155,-0.007 -1.86406,-0.0524 -2.5675,-0.13085 0.74753,-0.10623 1.59344,-0.1875 2.45857,-0.23552 v -3e-5 m 118.96454,33.43677 c 9.32392,1.13021 16.64235,2.01554 21.48247,2.59858 l 12.01366,1.47716 c 7.084,0.86504 14.62498,1.82423 22.57738,2.87503 7.9361,0.99864 16.29188,2.14931 24.50007,3.37814 0.0973,0.12338 0.53279,0.28879 1.28248,0.49 0.6624,0.16895 1.09751,0.31301 1.29688,0.42831 -15.09732,-1.23031 -32.4858,-3.10758 -48.83406,-5.20678 -19.02881,-2.33213 -35.65311,-4.496 -50.03317,-6.48344 -8.75861,-1.12279 -16.77171,-2.40398 -22.56636,-3.57691 -0.0494,-0.0991 0.48017,-0.11723 1.39965,-0.047 l 1.86264,0.16707 c 3.53412,0.25059 7.90069,0.69077 12.66227,1.2839 6.71685,0.78563 14.10493,1.64816 22.35609,2.61585 v 4e-5"
       sodipodi:nodetypes="cccccccccccccccccccccccccccccccccccccccccccccccccccccccccccccccscscccccccccccccccccccccccccccccccccccccscccccccccccccsccccccccccccccccccccccccccccccccccccccccccccccsccccccccccccccccccccccccccccccscscccccccccccccccccscccccccccccccccccscscccccccccccccccccccccccccccccccccccsccccccsccccccccccccccccccccccccccccccccccccccccccccccccc" /></g></svg>