<svg enable-background="new -57 59.7 383.3 383.3" version="1.1" viewBox="-57 59.7 383.3 383.3" xmlns="http://www.w3.org/2000/svg">
 <path d="m216.15 166.6c-27.2-44.9-57.4-83.7-73-102.8-2.1-2.6-5.2-4.1-8.5-4.1s-6.4 1.5-8.5 4.1c-15.6 19.2-45.8 58-73 102.9-35 57.8-52.8 105.6-52.8 142.1-0.1 73.9 60.2 134.2 134.3 134.2 74.1 0 134.3-60.3 134.3-134.3 0-36.5-17.8-84.3-52.8-142.1z" fill="#00a2df"/>
 <path d="m44.133 274.24c-2.4254-0.0998-4.6797 1.2461-5.5547 3.4336-5.8 14.7-8.7988 27.8-8.7988 39.1 0 46.7 40.8 84.602 91 84.602 8.2 0 16.399-1 24.199-3 2.6-0.6 4.4012-2.9016 4.2012-5.6016-0.2-2.5-2.3-4.4988-5-4.7988-54.2-5.6-95.102-48.101-95.102-98.801 0-2.9 0.2-5.9996 0.5-9.0996 0.2-2.7-1.5984-5.0992-4.3984-5.6992-0.35-0.075-0.70039-0.12051-1.0469-0.13476z" fill="#fff"/>
</svg>
