<?xml version="1.0" encoding="UTF-8" standalone="no"?>
<svg
   xmlns:dc="http://purl.org/dc/elements/1.1/"
   xmlns:cc="http://creativecommons.org/ns#"
   xmlns:rdf="http://www.w3.org/1999/02/22-rdf-syntax-ns#"
   xmlns:svg="http://www.w3.org/2000/svg"
   xmlns="http://www.w3.org/2000/svg"
   xmlns:sodipodi="http://sodipodi.sourceforge.net/DTD/sodipodi-0.dtd"
   xmlns:inkscape="http://www.inkscape.org/namespaces/inkscape"
   version="1.1"
   id="Capa_1"
   x="0px"
   y="0px"
   viewBox="-57 59.7 383.3 383.3"
   style="enable-background:new -57 59.7 383.3 383.3;"
   xml:space="preserve"
   sodipodi:docname="water-drop.svg"
   inkscape:version="0.92.3 (2405546, 2018-03-11)"><metadata
   id="metadata13"><rdf:RDF><cc:Work
       rdf:about=""><dc:format>image/svg+xml</dc:format><dc:type
         rdf:resource="http://purl.org/dc/dcmitype/StillImage" /></cc:Work></rdf:RDF></metadata><defs
   id="defs11" /><sodipodi:namedview
   pagecolor="#ffffff"
   bordercolor="#666666"
   borderopacity="1"
   objecttolerance="10"
   gridtolerance="10"
   guidetolerance="10"
   inkscape:pageopacity="0"
   inkscape:pageshadow="2"
   inkscape:window-width="1920"
   inkscape:window-height="1032"
   id="namedview9"
   showgrid="false"
   inkscape:zoom="0.61570573"
   inkscape:cx="-18.677756"
   inkscape:cy="188.40168"
   inkscape:window-x="0"
   inkscape:window-y="48"
   inkscape:window-maximized="1"
   inkscape:current-layer="Capa_1" />
   <path
      sodipodi:nodetypes="ccscccssc"
      style="fill:#00a2df"
      id="path4-6"
      d="m 216.15006,166.59999 c -27.2,-44.9 -57.4,-83.699996 -73,-102.799996 -2.1,-2.6 -5.2,-4.1 -8.5,-4.1 -3.3,0 -6.4,1.5 -8.5,4.1 -15.6,19.2 -45.800004,57.999996 -73.000004,102.899996 -35,57.8 -52.8,105.6 -52.8,142.1 -0.1,73.9 60.2,134.2 134.300004,134.2 74.1,0 134.3,-60.3 134.3,-134.3 0,-36.5 -17.8,-84.3 -52.8,-142.1 z"
      class="st0"
      inkscape:connector-curvature="0" />
   <path
      style="fill:#ffffff;fill-opacity:1"
      d="m 44.133152,274.23848 c -2.42539,-0.0998 -4.67969,1.24609 -5.55469,3.43359 -5.8,14.7 -8.79883,27.79961 -8.79883,39.09961 0,46.7 40.8,84.60156 90.999998,84.60156 8.2,0 16.39922,-1 24.19922,-3 2.6,-0.6 4.40117,-2.90156 4.20117,-5.60156 -0.2,-2.5 -2.3,-4.49883 -5,-4.79883 -54.2,-5.6 -95.101558,-48.10078 -95.101558,-98.80078 0,-2.9 0.2,-5.99961 0.5,-9.09961 0.2,-2.7 -1.59844,-5.09922 -4.39844,-5.69922 -0.35,-0.075 -0.70039,-0.12051 -1.04687,-0.13476 z"
      id="rect820"
      inkscape:connector-curvature="0"
      sodipodi:nodetypes="ccsscccscsc" />
</svg>