<svg xmlns="http://www.w3.org/2000/svg" width="720" height="1280"><path d="M358.85 158.05c-23.014 0-41.67 24.122-41.67 33.323 0 5.073-.54 19.623-.695 33.649-.244-.91-1.332-4.879-2.582-6.114-1.4-1.385-3.313 1.234-3.313 1.234s-1.011 11.354-.553 15.675c.453 4.326 5.022 15.364 5.022 15.364l2-.036-.028-1.965c.118 1.273.217 2.66.383 3.596 1.262 7.145 5.42 20.04 9.746 31.259l.263 31.689 10.268 12.023 9.91 73.917 11.295 21.708 15.378-64.069 3.211-31.796 9.721-13.1.527-25.08c4.875-12.447 9.302-28.57 10.937-36.153.263-1.22.481-2.941.667-4.944l-.043 2.915 2 .036s4.57-11.038 5.022-15.364c.459-4.321-.56-15.675-.56-15.675s-1.906-2.619-3.305-1.234c-.951.94-1.712 3.228-2.213 4.901.164-13.499.076-27.255.284-32.436.397-9.915-18.656-33.322-41.671-33.322z" fill="#a77660"/><path d="M246.333 1049.683c-3.82 10.437-2.949 30.443-2.949 30.443s-3.123 8.524-3.817 9.225c-.693.697-2.08 2.952 4.86 2.607 6.932-.341 38.68-1.91 47-2.088 8.33-.174 6.427-1.395 6.594-1.395.174 0-2.949-8.349-7.281-14.264-4.336-5.913-4.86-34.965-6.08-43.318-1.209-8.349-5.37-28.53-4.851-28.352.52.175-3.824-5.915-11.28-5.392-7.46.519-11.098 1.91-11.098 1.91l.17 3.304s-6.068.353-6.94-.867c-.707 11.283-.511 37.75-4.328 48.187z" fill="#242424"/><path d="M298.195 1089.09c-3.631-9.82-8.156-16.732-26.292-16.732-12.79 0-23.547 8.397-26.743 19.814 4.46 2.375 45.903.487 53.035-3.083z" fill="#353535"/><path d="M238.968 1090.741c-3.069 10.663 4.42 10.892 4.42 10.892h54.59s2.916-3.127.05-13.158c-.49.705-20.732 2.473-36.334 2.59-16.538.12-18.372 1.714-22.726-.324z" fill="#121212"/><path d="M243.87 1092.822c-2.033 0-3.5-.261-5.349-1.133l.894-1.906c2.415 1.136 3.973 1.042 8.574.74a222.27 222.27 0 0113.695-.511c15.6-.117 34.332-1.83 35.814-2.426-.007.003-.185.076-.334.287l1.721 1.205c-.312.44-.693.992-13.277 1.961-8.218.629-16.926 1.024-23.91 1.072-6.402.054-10.542.32-13.567.508-1.725.116-3.087.203-4.26.203z" fill="#7b7b7b"/><path d="M516.762 1051.996c3.835 10.492-1.068 10.23 3.664 28.134 0 0 3.112 8.523 3.817 9.224.693.697 2.073 2.953-4.86 2.608-6.94-.342-38.68-1.91-47.01-2.088-8.327-.175-6.417-1.395-6.591-1.395-.171 0 3.969-12.47 8.301-18.387 4.333-5.916 3.846-30.843 5.056-39.192 1.213-8.349 5.374-28.53 4.859-28.351-.516.174 3.82-5.916 11.272-5.393 7.46.52 11.11 1.91 11.11 1.91l-.179 3.305s.625 3.795 1.493 2.582c.719 11.276 5.251 36.606 9.068 47.043z" fill="#242424"/><path d="M465.607 1089.09c3.636-9.82 8.168-16.732 26.304-16.732 12.787 0 23.547 8.397 26.74 19.814-4.468 2.375-45.904.487-53.044-3.083z" fill="#353535"/><path d="M524.838 1090.741c3.065 10.663-4.412 10.892-4.412 10.892h-54.597s-2.913-3.127-.05-13.158c.497.705 20.728 2.473 36.333 2.59 16.542.12 18.38 1.714 22.726-.324z" fill="#121212"/><path d="M519.936 1092.822c-1.17 0-2.528-.087-4.256-.203-3.026-.189-7.176-.454-13.575-.508-6.98-.051-15.696-.443-23.903-1.072-12.595-.97-12.976-1.518-13.277-1.96l1.714-1.206c-.15-.215-.32-.284-.327-.287 1.478.595 20.202 2.31 35.814 2.426 6.457.05 10.637.315 13.692.512 4.612.301 6.159.395 8.574-.741l.893 1.906c-1.845.872-3.308 1.133-5.35 1.133z" fill="#7b7b7b"/><path d="M275.515 589.836s-3.633 13.91-4.944 19.442c-1.318 5.545-3.436 4.022-6.483 25.782 0 0-7.726 30.592-2.95 115.047 1.906 33.687 5.9 57.524 5.9 57.524s-3.356-1.488-3.73 4.043c-.367 5.524 3.73 6.313 3.73 6.313s-3.857.531-1.63 9.476c2.222 8.948 1.237 12.899-2.1 15.001-3.327 2.107-.854 2.633 0 5 .864 2.369 3.827 5.257 0 7.363-3.824 2.107-3.386 2.9-3.731 6.32-.341 3.425 3.605 1.05 1.88 2.894-1.722 1.841-.587 2.103-1.894 5-1.308 2.895-6.99 18.686-6.739 53.687.247 34.997-5.921 41.048-6.412 59.467-.497 18.416 1.834 19.734 0 28.152-1.844 8.425-4.2 12.374-3.68 18.69.526 6.315 2.894 11.58 2.099 15.001-.785 3.421-2.178 8.42-2.178 8.42s8.743-2.368 18.704 0c9.98 2.367 23.44 8.154 27.897 8.419 4.463.261 3.677-5.525 5.51-9.207 1.842-3.682 1.316-9.475 0-13.157-1.306-3.686 1.841-12.109 3.675-17.37 1.834-5.263 3.419-30.786 4.469-38.416 1.05-7.63 11.018-60.262 11.802-76.575.788-16.313-1.042-33.158 2.107-42.898 3.145-9.737 8.924-9.21 12.065-42.104 3.152-32.895 12.335-82.629 16.533-93.683 3.903-10.274 2.978-24.857 8.313-25.591.616.123 1.706.634 3.59 2.177 13.977 11.436 33.477 52.366 38.202 74.206 4.72 21.84 21.885 77.893 27.918 86.576 6.035 8.684 7.085.521 11.81 37.628 4.72 37.1 9.44 44.472 11.277 52.367 1.841 7.895 9.449 55.52 9.71 57.368.262 1.841 5.248 6.308 4.987 7.1-.262.792 1.843 15.53 2.631 27.634.784 12.1 10.228 23.158 10.228 23.158s10.853-7.105 25.024-10.795c14.17-3.682 19.15 5.525 19.15 5.525s2.885-3.425 2.1-8.157c-.788-4.739-2.615-7.627-4.199-11.313-1.572-3.682-.787-15.527-1.837-18.683-1.046-3.155-2.887-12.625-2.887-12.625s.265-12.107 0-17.895c-.258-5.79-.253-10.001-3.667-18.946-3.413-8.948-4.464-45.53-11.022-73.95-6.566-28.421-9.71-31.572-10.767-33.94-1.046-2.375-1.831-5.002-2.093-8.426-.257-3.421-1.307-2.104-2.886-4.206-1.577-2.107-.794-3.427-1.582-6.583-.78-3.16-1.302-2.893-3.405-7.894-2.095-5-2.886-18.157-2.624-20.79.265-2.636-2.888-3.687-3.433-6.582-.556-2.894-2.077-9.995-1.816-13.42.262-3.42 3.937-5.26 0-16.576s.43-65.788-7.61-96.577c-14.578-55.87-17.781-98.387-17.783-98.407h-61.722v-.014H275.515z" fill="#574d4f"/><path d="M314.753 312.893l-73.98 24.016c-17.166 20.773-75.011 114.083-65.247 148.23 9.765 34.147 8.951 6.48 8.951 6.48l36.357-5.906s-6.3 10.989-.535-9.86c5.574 3.496 17.118-13.37 24.266-25.13 9.437-15.525 14.793-31.995 15.819-31.864.026-10.063-5.134 10.581 4.848 46.54 11.753 42.34 5.064 129.92 4.523 151.6 0 0 18.909 42.243 87.562 42.397v.128c68.95 0 89.506-43.458 89.506-43.458-3.238-26.776-15.924-105.237-6.02-146.306.662-2.742 0 0 3.857-11.774-5.364 2.522 3.503 29.577 3.503 29.577l49.626 1.408s3.043-35.96.145-61.69c-2.897-25.732-6.598-68.422-22.25-90.372-.451.228-1.236.595-1.738.845l.27-.731-74.951-23.527-21.943 7.822-8.566 42.735-8.886 53.006-16.887-50.123-5.331-46.272z" fill="#93bbd3"/><path d="M434.966 459.664l-25.739 12.533-25.739-12.533v-41.347h51.478zM377.42 320.153l-4.512 33.099-7.54 30.79.007.085c-.693 2.447-1.529 5.713-2.745 11.115l-9.25 43.004.057-.043-.035.078-.858 220.86 6.958-.085-.83-225.427c5.34-25.751 7.416-33.48 8.072-36.756l.007.085.106-.617c.044-.24.109-.583.135-.773l10.058-57.595z" fill="#669ec0"/><path d="M341.358 350.924l5.696 33.426-.007.085c.692 2.447 1.528 5.712 2.745 11.114l11.999 27.626s-2.867-6.132-14.796-25.994c-3.582-20.282-8.041-41.403-9.252-58.9l-.133-18.38c3.449 18.137 2.81 17.644 3.749 31.023zM181.301 504.853s-4.203-5.56-.79-18.19c3.412-12.631 16.636-21.148 33.72-14.532 8.543 3.309 18.105 3.584 12.114 17.939-.027 5.038-2.19 9.249-2.19 9.249-4.154-6.987-10.489-15.414-27.093-5.449-6.153 3.69-9.066 17.35-9.066 17.35zm264.349-11.236s-2.562-6.44 5.435-16.651c7.997-10.212 25.033-13.371 40.962-1.584 7.964 5.894 18.062 9.403 6.722 20.288-1.77 4.527-5.528 7.582-5.528 7.582-2.016-7.709-5.86-17.46-27-14.149-7.832 1.224-15.653 12.533-15.653 12.533z" fill="#669ec0"/><path d="M400.516 224.174c0 11.48-4.05 57.547-15.245 56.864-11.102 29.439-40.772 29.753-51.533-.496-12.068-1.55-17.308-43.963-17.308-55.5-3.209 31.373 8.4 64.123 24.04 76.026 15.639 11.903 21.086 12.193 37.942-.004 16.857-12.197 22.85-46.803 22.104-76.89z" fill="#846558"/><path d="M324.903 148.291c3.03.06 29.687-2.41 38.83 1.604 9.144 4.015 7.807 4.408 13.36 8.843-.886-2.623-.116-.408-1.868-2.891 6.382 2.984 15.556 7.228 17.59 18.062 5.391 4.433 7.212 6.834 10.639 15.53l-2.128 35.597-4.825-24.796s-6.017-5.277-7.257-10.443c-5.153.423-19.07-5.362-23.325-3.09-4.255 2.273-6.553 4.128-12.7 1.532-6.149-2.596-7.464-1.983-14.233 1.371-4.718 1.304-16.2 7.09-16.2 7.09l-6.49 27.94-1.704-36.372-8.323-8.813s1.153-2.934 5.68-5.925c4.528-2.992 7.365-3.604 7.365-3.604-4.736-2.518-5.25-4-9.854-6.256 7.503-8.325 15.414-9.46 19.23-9.244-2.633-1.397-2.857-3.259-3.787-6.135z" fill="#231f20"/><path d="M355.36 262.79h3.384l-.952 8.823c-7.103-.332-14.035-.263-17.398 1.253 1.915-8.933 12.667-4.084 14.965-10.076zm8.995 0h-3.384l.951 8.823c7.103-.332 14.036-.263 17.399 1.253-1.915-8.933-12.667-4.084-14.966-10.076z" fill="#846558"/><path d="M267.756 567.38c-.23-.14-27.916-15.593-42.751-5.007-14.832 10.586-33.407 50.26-36.182 99.944-2.182 38.924 9.206 38.274 9.206 38.274s10.347-83.94 18.877-101.728c20.577-42.925 48.111-21.612 48.111-21.612l2.739-9.87z" fill="#393536"/><path d="M267.756 567.38c4.009 4.177 10.426 19.426 14.653 57.648 4.227 38.226 1.006 102.469 1.006 102.469s-1.682 26.692-28.188 25.032l-26.51-1.667s-28.959-13.175-30.898-32.738c-1.94-19.553 10.742-154.375 37.427-154.694 26.68-.324 32.51 3.95 32.51 3.95z" fill="#231f20"/><g fill="#231f20"><path d="M195.505 702.671l1.322.077.52-9.21-6.203-.349c-.09 4.395 1.58 7.47 4.318 10.285l.043-.803zm-2.2-15.615a1.758 1.758 0 01-1.66-1.86l.527-9.373a1.756 1.756 0 011.848-1.663l2.81.156.753-13.408c-11.091-.62-6.436 31.472-6.436 31.472l6.254.352.298-5.426-4.394-.25z"/><path d="M195.549 684.503a1.54 1.54 0 01-1.616 1.449 1.532 1.532 0 01-1.442-1.62l.432-7.772a1.53 1.53 0 113.058.17l-.432 7.773zm2.122 2.822l-1.584-.089 1.47-26.305 1.585.089z"/></g><path d="M209.367 645.576l67.457 3.791-2.608 90.267c-2.778 6.144-45.115 13.313-62.216-3.29-17.105-16.608-2.633-90.768-2.633-90.768z" fill="#393536"/><g fill="#393536"><path d="M271.758 622.435l-26.943-18.659a2.722 2.722 0 00-3.802.698l-15.678 22.755c-.85 1.242-.545 2.956.697 3.813l26.943 18.667a2.732 2.732 0 003.802-.701l15.67-22.756a2.75 2.75 0 00-.69-3.817zm8.058-12.398c-.436.636-1.536.84-2.339.283l-23.39-16.207a1.773 1.773 0 01-.444-2.455l22.244-32.3a1.761 1.761 0 012.451-.442l23.39 16.204c.804.552 1 1.648.335 2.618l-22.247 32.3z"/><path d="M261.97 636.38a1.757 1.757 0 01-2.45.447l-23.799-16.48a1.78 1.78 0 01-.446-2.455l15.674-22.759a1.757 1.757 0 012.45-.446l23.795 16.483c.803.556.999 1.653.447 2.455l-15.67 22.756z"/><path d="M282.63 609.028l-1.409-.974-17.024 24.71 1.42.984a1.755 1.755 0 002.44-.45l15.031-21.815c.541-.803.341-1.9-.458-2.455zm-29.121-20.246l1.416.98-17.025 24.713-1.409-.98a1.767 1.767 0 01-.454-2.455l15.031-21.808a1.748 1.748 0 012.44-.45z"/><path d="M237.897 614.475l14.846-21.553a3.23 3.23 0 00-2.996 1.376l-13.23 19.211 1.38.966zm41.178-3.308l-14.882 21.593 1.39.962 13.263-19.269a3.221 3.221 0 00.23-3.286z"/><path d="M256.908 649.098a1.757 1.757 0 01-2.451.447l-28.795-19.952a1.762 1.762 0 01-.447-2.451l15.67-22.76a1.76 1.76 0 012.445-.45l28.805 19.956c.8.552.995 1.652.443 2.451l-15.67 22.76z"/><path d="M245.113 603.599l26.485 18.349-.739 1.065-26.484-18.349z"/></g><path fill="#393536" d="M267.756 612.307l-12.5-23.42 182.185-267.32 28.417 8.189z"/><path d="M188.896 501.203l-.128.418a19.33 19.33 0 00.192 12.392c.617 1.743 1.49 3.396 2.234 5.1l2.32 5.07 4.638 10.144 9.27 20.278 4.64 10.143 2.326 5.072 1.156 2.539.574 1.262c.106.237.193.38.298.688l.234.653 3.994 11.235a75.83 75.83 0 002.447 6.866l.993 2.802.036.099c.517 1.45 1.305 2.72 2.227 3.851 12.388 21.532 32.39 19.689 46.636 18.655 0 0 5.359-3.761 3.703-8.37 0 0-9.298-4.36-18.392-17.782l-.823-2.496c-.15-1.02-.047-2.022.149-2.994l6.249 9.214a6.263 6.263 0 008.696 1.66c2.847-1.943 3.573-5.853 1.645-8.696l-12.944-19.052c-1.409-2.098-3.885-3.045-6.228-2.638l-.036-.1-11.64 3.334-1.397-4.227c-.538-1.67-.992-3.54-1.497-5.299L239 555.662l-2.944-10.71-5.88-21.435-2.943-10.717-1-3.639c-1.676-8.446-7.615-40.929-37.337-7.958z" fill="#a77660"/><path d="M370.845 495.839l3.21 65.564c.345 2.219-5.828 5.037-13.781 6.283-7.968 1.238-14.697.457-15.046-1.769l-16.876-63.422 42.493-6.656z" fill="#fff"/><path d="M338.237 533.977c-1.409-9.068 4.78-17.57 13.818-18.989 9.043-1.42 17.515 4.783 18.939 13.854 1.409 9.076-4.772 17.574-13.818 18.99-9.05 1.413-17.519-4.786-18.939-13.855z" fill="#7fb860"/><path fill="#d1d3d4" d="M370.845 495.839l-42.497 6.656.974 3.64 41.585-8.673z"/><path d="M326.667 501.504l-.461-2.982 3.145-.49-.432-4.757c-.15-.923 8.37-3.022 19.029-4.692 10.644-1.663 19.4-2.274 19.541-1.355l1.032 4.663 3.152-.49.461 2.978.934 1.104-46.957 7.354.556-1.333z" fill="#fff"/><path d="M449.653 504.955l-68.142 27.676a149.045 149.045 0 00-2.553-8.788c-.002-.003.001-.01 0-.014a5.851 5.851 0 00-.717-2.206c-.005-.015-.009-.036-.014-.05h-.014a5.793 5.793 0 00-3.383-2.695c-3.076-.912-6.324.843-7.22 3.93l-.086.865c-10.874 1.743-15.33.99-20.364 1.432-.083-.014-.149-.067-.234-.078l-15.916-1.986a4.363 4.363 0 00-4.859 3.795 4.4 4.4 0 003.802 4.887l14.094 1.752c.056.82.15 1.647.283 2.483l-9.575-.901a4.37 4.37 0 00-4.852 3.802 4.394 4.394 0 003.795 4.887l.482.042c-1.412.578-2.51 1.832-2.702 3.454a4.38 4.38 0 003.802 4.88l7.788.972c.246.692.483 1.413.823 2.227l-4.27 1.05c-2.321.566-3.773 2.95-3.2 5.284a4.387 4.387 0 005.292 3.206l6.845-1.68c1.985 1.083 4.555 1.117 7.568.233l10.873-1.957c5.835-.04 12.824-.936 18.37-2.944 9.425-1.299 96.73-13.338 98.862-13.682 9.385-8.964 9.663-36.998 9.646-41.962v-.014c.03-.212-.005-.358.008-.554-.002-.234.014-1.319.014-1.319h-.007c3.272-12.208-38.735-23.398-44.239 3.972z" fill="#a77660"/><path d="M392.87 348.004l-15.92-27.734 10.339-17.745.036-7.572 18.263 17.078zm-70.978 0l15.92-27.734-10.34-17.745-.036-7.572-18.262 17.078z" fill="#669ec0"/><path d="M345.345 215.357c5.215 1.476 5.306.77 6.788.937-.021 1.163-.096 2.775-2.145 3.083-2.049.307-26.321-3.511-29.685-1.502 4.081-8.324 19.827-3.994 25.042-2.518z" fill="#614a41"/><path d="M364.454 285.054l-7.939-.11c.199 4.85 1.19 2.943 3.962 5.687 3.238-2.86 3.977-1.185 3.977-5.577z" fill="#846558"/><path d="M372.562 214c-4.935 2.232-6.013 1.716-7.494 1.856.02.97.626 2.51 2.674 2.766 2.05.256 17.766-9.275 29.155-1.448-2.04-3.471-6.29-8.016-11.389-7.827-5.098.189-10.073 3.353-12.946 4.652z" fill="#614a41"/><path d="M384.405 216.571c-7.165.047-14.07 2.231-21.104 3.105-2.936.364-5.961.454-8.902.115-3.91-.451-7.695-1.648-11.602-2.185-3.491-.48-7.027-.98-10.54-1-6.14-.036-12.079 1.84-18.098 2.851 0 1.717-.358 3.921.542 5.128.928 1.245 2.494 2.383 2.9 4.07.964 4 2.331 7.921 4.08 11.68.85 1.828 2.453 3.101 4.244 3.979 4.313 2.112 9.418 2.423 14.149 1.759 6.738-.946 10.393-5.876 13.182-11.509 1.043-2.29 1.16-4.932 2.534-7.025.817-1.242 2.713-.72 4.068-.724 1.355-.005 2.504 2.193 2.924 3.656 1.488 5.177 3.97 10.67 8.902 13.383 7.364 4.05 18.967 3.293 23.745-4.013 1.87-2.859 2.387-6.328 3.325-9.565.571-1.97 1.082-4.32 3.113-5.404.82-.437.244-2.182.365-3.196.132-1.105.386-2.082-1.226-2.3-2.812-.378-5.54-1.53-8.418-1.92-2.728-.369-5.4-.903-8.183-.885zm-47.373 1.84c2.034-.012 4.06.133 6.037.54 11.78 2.43 12.017 7.163 7.168 16.947-3.951 7.973-12.137 9.97-20.385 8.06-3.803-.882-6.402-3.47-7.629-7.014-1.294-3.74-2.273-7.715-2.051-11.646.297-5.265 6.404-6.005 10.776-6.485 2.007-.22 4.05-.39 6.084-.402zm43.01 0c2.035.011 4.078.182 6.085.402 4.372.48 10.48 1.22 10.776 6.485.222 3.931-.757 7.905-2.052 11.646-1.226 3.544-3.826 6.132-7.628 7.013-8.248 1.911-16.433-.086-20.385-8.059-4.85-9.784-4.611-14.517 7.169-16.947 1.977-.407 4.002-.553 6.036-.54h0z" fill="#191d2a" stroke="#191d2a" stroke-width=".462"/></svg>