<svg xmlns="http://www.w3.org/2000/svg" width="100" height="100" viewBox="0 0 93.75 93.75"><path d="M18.512.66c2.867.057 28.106-2.282 36.762 1.519 8.657 3.8 7.391 4.173 12.648 8.372-.838-2.483-.11-.386-1.768-2.738 6.042 2.826 14.728 6.844 16.653 17.101 5.105 4.197 6.828 6.47 10.073 14.702L90.865 73.32l-4.568-23.476s-5.696-4.996-6.87-9.887c-4.879.4-18.054-5.076-22.083-2.925-4.029 2.152-6.204 3.908-12.025 1.45-5.82-2.458-7.066-1.877-13.474 1.298-4.467 1.235-15.338 6.712-15.338 6.712l-6.145 26.454L8.75 38.509.87 30.164s1.091-2.777 5.378-5.61c4.286-2.832 6.972-3.41 6.972-3.41-4.484-2.385-4.97-3.789-9.33-5.924 7.105-7.881 14.595-8.956 18.206-8.752-2.492-1.322-2.704-3.085-3.584-5.807z" fill="#231f20"/><path d="M37.865 64.155c4.938 1.398 5.023.729 6.426.887-.02 1.101-.09 2.627-2.03 2.919-1.94.29-24.92-3.324-28.104-1.422 3.864-7.88 18.771-3.782 23.708-2.384zm25.768-1.285c-4.673 2.113-5.692 1.625-7.095 1.757.02.918.592 2.376 2.532 2.619 1.94.243 16.82-8.781 27.602-1.37-1.932-3.287-5.955-7.59-10.782-7.411-4.827.179-9.537 3.175-12.257 4.405z" fill="#614a41"/><path d="M74.846 65.305c-6.784.044-13.322 2.112-19.981 2.939-2.78.345-5.644.43-8.428.109-3.701-.427-7.285-1.56-10.984-2.069-3.306-.453-6.652-.928-9.979-.946-5.813-.034-11.435 1.74-17.134 2.7 0 1.625-.339 3.711.513 4.854.879 1.178 2.362 2.256 2.746 3.853a58.988 58.988 0 003.862 11.059c.805 1.73 2.323 2.935 4.019 3.766 4.083 2 8.915 2.294 13.395 1.665 6.379-.895 9.84-5.563 12.48-10.895.988-2.168 1.098-4.67 2.4-6.651.772-1.177 2.568-.681 3.85-.686 1.283-.005 2.37 2.077 2.769 3.462 1.409 4.901 3.758 10.101 8.427 12.67 6.973 3.835 17.958 3.117 22.482-3.8 1.77-2.706 2.26-5.99 3.147-9.055.541-1.866 1.025-4.09 2.947-5.116.776-.414.232-2.066.346-3.026.125-1.046.366-1.972-1.16-2.177-2.663-.359-5.246-1.449-7.97-1.818-2.583-.35-5.113-.855-7.747-.838zm-44.851 1.741c1.926-.01 3.843.126 5.715.512 11.153 2.3 11.378 6.78 6.787 16.044-3.741 7.548-11.491 9.44-19.3 7.63-3.6-.834-6.061-3.284-7.222-6.64-1.226-3.54-2.152-7.303-1.943-11.026.282-4.984 6.063-5.685 10.203-6.139 1.9-.208 3.834-.369 5.76-.38zm40.72 0c1.926.011 3.86.173 5.76.381 4.14.454 9.922 1.155 10.203 6.14.21 3.722-.717 7.484-1.942 11.026-1.161 3.355-3.623 5.805-7.223 6.64-7.808 1.809-15.558-.083-19.3-7.63-4.59-9.264-4.365-13.745 6.788-16.045 1.871-.386 3.789-.523 5.715-.512z" fill="#191d2a" stroke="#191d2a" stroke-width=".437"/></svg>